M48
; DRILL file {KiCad 8.0.2-1} date 2024-05-28T13:40:08-0700
; FORMAT={-:-/ absolute / inch / decimal}
; #@! TF.CreationDate,2024-05-28T13:40:08-07:00
; #@! TF.GenerationSoftware,Kicad,Pcbnew,8.0.2-1
; #@! TF.FileFunction,Plated,1,4,PTH
FMAT,2
INCH
; #@! TA.AperFunction,Plated,PTH,ViaDrill
T1C0.0078
; #@! TA.AperFunction,Plated,PTH,ViaDrill
T2C0.0079
; #@! TA.AperFunction,Plated,PTH,ComponentDrill
T3C0.0290
; #@! TA.AperFunction,Plated,PTH,ComponentDrill
T4C0.0827
; #@! TA.AperFunction,Plated,PTH,ComponentDrill
T5C0.1575
%
G90
G05
T1
X2.7559Y-5.2047
X2.8Y-5.17
X2.874Y-5.334
X2.904Y-3.734
X2.904Y-3.766
X2.904Y-3.832
X2.904Y-3.864
X2.904Y-3.926
X2.904Y-3.958
X2.9223Y-4.534
X2.954Y-5.17
X2.9949Y-3.3598
X3.174Y-5.22
X3.194Y-5.064
X3.2019Y-5.1921
X3.22Y-5.334
X3.224Y-5.064
X3.2323Y-4.5335
X3.249Y-5.193
X3.256Y-5.064
X3.28Y-5.194
X3.288Y-5.064
X3.288Y-5.104
X3.288Y-5.334
X3.31Y-5.194
X3.32Y-5.064
X3.344Y-5.194
X3.354Y-5.064
X3.358Y-5.334
X3.376Y-5.194
X3.386Y-5.064
X3.412Y-5.194
X3.418Y-5.064
T2
X2.7454Y-3.2738
X2.7474Y-3.1808
X2.7474Y-3.3588
X2.7526Y-2.9663
X2.7526Y-3.0608
X2.7598Y-5.338
X2.76Y-3.549
X2.761Y-3.654
X2.7635Y-5.427
X2.771Y-3.406
X2.7746Y-3.8773
X2.7746Y-3.9153
X2.7746Y-3.9563
X2.7746Y-3.9993
X2.7763Y-3.0135
X2.7763Y-3.108
X2.779Y-3.843
X2.779Y-4.101
X2.781Y-4.252
X2.7843Y-4.4992
X2.787Y-4.882
X2.7871Y-5.3798
X2.789Y-4.57
X2.789Y-5.103
X2.7906Y-3.8693
X2.7906Y-3.8863
X2.7906Y-3.9023
X2.7906Y-3.9183
X2.7906Y-3.9333
X2.7906Y-3.9493
X2.7906Y-3.9653
X2.791Y-4.647
X2.7946Y-3.3588
X2.7961Y-3.9835
X2.7999Y-2.9663
X2.7999Y-3.0608
X2.801Y-4.398
X2.804Y-3.737
X2.804Y-4.215
X2.804Y-4.286
X2.807Y-5.338
X2.8071Y-3.9955
X2.8108Y-5.427
X2.811Y-4.535
X2.812Y-4.608
X2.8181Y-4.0075
X2.8182Y-3.406
X2.8235Y-3.0135
X2.8235Y-3.108
X2.827Y-4.249
X2.8283Y-3.885
X2.8283Y-3.898
X2.8283Y-3.913
X2.8283Y-3.928
X2.8283Y-3.943
X2.8287Y-3.9594
X2.8299Y-3.798
X2.8299Y-4.0185
X2.8309Y-4.0345
X2.8309Y-4.0505
X2.8309Y-4.0665
X2.8319Y-4.329
X2.8319Y-4.344
X2.8319Y-4.359
X2.8323Y-3.5849
X2.8323Y-3.6009
X2.8323Y-3.6159
X2.8323Y-3.6319
X2.8323Y-3.6469
X2.8344Y-5.3798
X2.8367Y-3.9714
X2.838Y-4.571
X2.8419Y-3.3588
X2.8423Y-4.3139
X2.8449Y-3.9051
X2.8449Y-3.9413
X2.846Y-4.447
X2.8467Y-3.9814
X2.8471Y-2.9663
X2.8471Y-3.0608
X2.848Y-4.172
X2.8481Y-3.7441
X2.851Y-4.287
X2.852Y-3.473
X2.8531Y-4.2268
X2.8543Y-3.7697
X2.8553Y-4.3029
X2.8555Y-3.7071
X2.858Y-5.427
X2.8583Y-3.9937
X2.859Y-4.535
X2.859Y-4.608
X2.8594Y-3.9177
X2.8594Y-3.9327
X2.8594Y-3.9477
X2.8594Y-3.9637
X2.8594Y-3.9797
X2.8638Y-3.9011
X2.8641Y-3.7441
X2.8654Y-3.7783
X2.8655Y-3.406
X2.8673Y-4.2909
X2.8681Y-3.5823
X2.8681Y-3.5973
X2.8681Y-3.6143
X2.8681Y-3.6303
X2.8681Y-4.3449
X2.8681Y-4.3594
X2.8685Y-3.6453
X2.8697Y-4.0241
X2.8697Y-4.0391
X2.8697Y-4.0541
X2.8697Y-4.0691
X2.8706Y-3.9991
X2.8708Y-3.0135
X2.8708Y-3.108
X2.872Y-3.758
X2.873Y-5.292
X2.8748Y-3.8911
X2.876Y-4.25
X2.879Y-4.883
X2.8791Y-3.7783
X2.8806Y-4.0091
X2.881Y-4.571
X2.8811Y-3.7441
X2.8813Y-3.2315
X2.8816Y-5.3798
X2.8826Y-3.8186
X2.8833Y-3.2681
X2.8858Y-3.8811
X2.8862Y-3.848
X2.8882Y-4.2858
X2.8891Y-3.3588
X2.8894Y-4.3213
X2.8906Y-4.0181
X2.8929Y-3.7783
X2.8936Y-4.0966
X2.8944Y-2.9663
X2.8944Y-3.0608
X2.8953Y-3.2315
X2.897Y-4.214
X2.8973Y-3.2681
X2.8976Y-3.8146
X2.8976Y-3.9421
X2.898Y-4.607
X2.9Y-4.397
X2.9032Y-4.2858
X2.9052Y-5.427
X2.9066Y-3.979
X2.9098Y-4.4984
X2.9103Y-3.2315
X2.911Y-4.3213
X2.9123Y-3.2681
X2.9126Y-3.8146
X2.9134Y-3.9114
X2.9146Y-4.0846
X2.9146Y-4.0996
X2.9146Y-4.1146
X2.9165Y-3.6862
X2.9165Y-4.1819
X2.9166Y-3.989
X2.9172Y-4.2858
X2.918Y-3.0135
X2.918Y-3.108
X2.919Y-4.25
X2.9197Y-4.199
X2.922Y-4.647
X2.9244Y-4.3217
X2.9253Y-3.2315
X2.9259Y-4.5703
X2.9263Y-3.2681
X2.9276Y-3.8146
X2.9276Y-4.0
X2.9283Y-4.8992
X2.9299Y-5.3798
X2.9307Y-3.9102
X2.9307Y-4.211
X2.9312Y-4.2858
X2.9315Y-3.6862
X2.9374Y-3.3588
X2.9378Y-4.3213
X2.9403Y-3.2315
X2.9403Y-3.2681
X2.9413Y-3.815
X2.9426Y-2.9663
X2.9426Y-3.0608
X2.9428Y-3.143
X2.9429Y-4.2222
X2.9429Y-4.6063
X2.944Y-3.456
X2.9448Y-3.6862
X2.9458Y-4.2854
X2.9503Y-4.8622
X2.9512Y-4.3217
X2.9535Y-5.427
X2.9539Y-4.2342
X2.9543Y-3.2315
X2.9543Y-3.2681
X2.9559Y-4.0669
X2.9563Y-3.815
X2.9563Y-4.0974
X2.9563Y-4.1134
X2.9563Y-4.1294
X2.9563Y-4.1444
X2.9563Y-4.1604
X2.9563Y-4.1764
X2.959Y-3.321
X2.9598Y-3.6862
X2.96Y-3.538
X2.9657Y-4.2453
X2.9663Y-3.0135
X2.9663Y-3.108
X2.9677Y-4.189
X2.9771Y-5.3798
X2.978Y-4.2571
X2.9787Y-4.201
X2.9846Y-3.1808
X2.9897Y-4.213
X2.9899Y-2.9663
X2.9899Y-3.0608
X2.99Y-3.143
X2.9905Y-4.5656
X2.9945Y-4.7087
X2.9957Y-4.6398
X2.997Y-3.455
X2.998Y-4.7748
X3.0Y-3.668
X3.0008Y-5.427
X3.0016Y-4.224
X3.0043Y-4.5248
X3.005Y-3.503
X3.0075Y-4.6016
X3.0082Y-3.406
X3.0115Y-4.7447
X3.0127Y-4.6758
X3.0135Y-3.0135
X3.0135Y-3.108
X3.0138Y-4.2358
X3.015Y-4.8108
X3.024Y-5.218
X3.0244Y-5.3798
X3.0319Y-3.1808
X3.0323Y-3.3782
X3.0323Y-3.3932
X3.0323Y-3.4082
X3.0323Y-3.4232
X3.0323Y-3.4382
X3.0323Y-3.4532
X3.0323Y-3.4682
X3.0323Y-3.4832
X3.0323Y-3.4982
X3.0323Y-3.5132
X3.0323Y-3.5272
X3.0335Y-3.584
X3.0335Y-3.599
X3.0335Y-3.614
X3.0335Y-3.629
X3.0335Y-3.644
X3.0335Y-3.659
X3.0335Y-3.674
X3.035Y-3.361
X3.0371Y-2.9663
X3.0371Y-3.0608
X3.0372Y-3.143
X3.043Y-3.35
X3.0437Y-3.2693
X3.0453Y-3.2311
X3.0453Y-3.2831
X3.048Y-5.427
X3.054Y-3.341
X3.0551Y-3.2736
X3.0603Y-3.2311
X3.0608Y-3.0135
X3.0608Y-3.108
X3.0701Y-3.6456
X3.0701Y-3.6606
X3.0701Y-3.6756
X3.0713Y-3.3831
X3.0713Y-3.3991
X3.0713Y-3.4141
X3.0713Y-3.4291
X3.0713Y-3.4441
X3.0713Y-3.4591
X3.0713Y-3.4741
X3.0713Y-3.4891
X3.0713Y-3.5041
X3.0713Y-3.5191
X3.0713Y-3.5341
X3.0716Y-5.3798
X3.0752Y-3.2402
X3.0788Y-3.3704
X3.0791Y-3.1808
X3.0844Y-2.9663
X3.0844Y-3.0608
X3.0855Y-3.143
X3.0862Y-3.2512
X3.0878Y-3.3594
X3.0913Y-3.2295
X3.0915Y-3.455
X3.0941Y-3.2705
X3.0941Y-3.2866
X3.0945Y-3.3035
X3.0945Y-3.3197
X3.0949Y-3.3374
X3.0952Y-5.427
X3.0995Y-3.503
X3.1008Y-3.2508
X3.102Y-3.358
X3.1027Y-3.406
X3.108Y-3.0135
X3.108Y-3.108
X3.111Y-3.2402
X3.1114Y-3.3669
X3.1199Y-5.3798
X3.121Y-3.379
X3.1224Y-3.6448
X3.1224Y-3.6598
X3.1224Y-3.6748
X3.123Y-3.397
X3.123Y-3.412
X3.123Y-3.427
X3.123Y-3.442
X3.123Y-3.457
X3.123Y-3.472
X3.123Y-3.487
X3.123Y-3.502
X3.123Y-3.517
X3.123Y-3.532
X3.1253Y-3.2319
X3.1274Y-3.1808
X3.1326Y-2.9663
X3.1326Y-3.0608
X3.1328Y-3.143
X3.1331Y-3.2724
X3.1362Y-3.3366
X3.1413Y-3.2319
X3.1425Y-3.2815
X3.1435Y-5.427
X3.1461Y-3.2685
X3.1472Y-3.3476
X3.1563Y-3.0135
X3.1563Y-3.108
X3.1572Y-3.3616
X3.1587Y-3.5833
X3.1587Y-3.5983
X3.1587Y-3.6133
X3.1591Y-3.6279
X3.1591Y-3.6429
X3.1591Y-3.6579
X3.1592Y-3.3796
X3.1592Y-3.3946
X3.1592Y-3.4096
X3.1592Y-3.4246
X3.1592Y-3.4396
X3.1592Y-3.4546
X3.1592Y-3.4696
X3.1592Y-3.4846
X3.1592Y-3.4996
X3.1592Y-3.5146
X3.1592Y-3.5286
X3.1671Y-5.3798
X3.1746Y-3.1808
X3.1799Y-2.9663
X3.1799Y-3.0608
X3.18Y-3.143
X3.187Y-3.455
X3.1908Y-5.427
X3.195Y-3.503
X3.196Y-4.7376
X3.1965Y-4.5957
X3.1972Y-4.6687
X3.1973Y-4.2553
X3.1982Y-3.406
X3.1995Y-4.8038
X3.2035Y-3.0135
X3.2035Y-3.108
X3.2058Y-4.5538
X3.2083Y-4.2453
X3.209Y-4.6305
X3.213Y-4.7736
X3.213Y-3.687
X3.2142Y-4.7047
X3.2144Y-5.3798
X3.2165Y-4.8398
X3.219Y-5.098
X3.2205Y-4.2362
X3.2219Y-3.1808
X3.2271Y-2.9663
X3.2271Y-3.0608
X3.228Y-3.143
X3.228Y-3.93
X3.228Y-3.965
X3.2315Y-4.2262
X3.238Y-5.427
X3.239Y-3.657
X3.24Y-3.541
X3.2415Y-4.2152
X3.242Y-3.456
X3.2421Y-4.1041
X3.2421Y-4.1201
X3.2421Y-4.1361
X3.2421Y-4.1511
X3.2421Y-4.1671
X3.2421Y-4.1831
X3.2425Y-4.1984
X3.2433Y-4.0657
X3.2435Y-3.321
X3.2439Y-3.2315
X3.2453Y-4.2689
X3.2456Y-3.702
X3.2459Y-3.2673
X3.248Y-3.7378
X3.2508Y-3.0135
X3.2508Y-3.108
X3.2535Y-3.6858
X3.2547Y-3.9071
X3.2547Y-4.2843
X3.2555Y-3.7709
X3.2555Y-4.2579
X3.2579Y-3.2315
X3.2598Y-3.9933
X3.2599Y-3.2673
X3.2606Y-3.702
X3.2616Y-5.3798
X3.2626Y-4.3217
X3.263Y-3.7378
X3.2661Y-4.2469
X3.2685Y-3.6354
X3.2691Y-3.3588
X3.2697Y-3.9071
X3.27Y-4.285
X3.27Y-3.8713
X3.2708Y-3.9843
X3.272Y-3.141
X3.2729Y-3.2315
X3.2744Y-2.9663
X3.2744Y-3.0608
X3.2749Y-3.2673
X3.2756Y-3.702
X3.276Y-4.3217
X3.278Y-3.7378
X3.279Y-4.497
X3.2815Y-4.189
X3.2815Y-4.205
X3.2815Y-4.221
X3.2828Y-3.9743
X3.283Y-4.249
X3.283Y-4.404
X3.2834Y-4.0846
X3.2834Y-4.0996
X3.2834Y-4.1156
X3.284Y-4.285
X3.2852Y-5.427
X3.2862Y-3.8713
X3.2879Y-3.2315
X3.2882Y-3.9083
X3.2889Y-3.2673
X3.2894Y-4.3217
X3.291Y-4.0204
X3.2927Y-3.406
X3.294Y-3.7378
X3.298Y-4.285
X3.298Y-3.0135
X3.298Y-3.108
X3.2984Y-3.7713
X3.2992Y-4.6142
X3.302Y-4.0094
X3.3029Y-3.2315
X3.3029Y-3.2673
X3.3043Y-3.8725
X3.3055Y-4.2213
X3.309Y-3.7378
X3.3094Y-4.0996
X3.312Y-3.9984
X3.313Y-4.285
X3.313Y-4.322
X3.3139Y-5.3798
X3.3154Y-3.7571
X3.3169Y-3.2315
X3.3169Y-3.2673
X3.3214Y-3.3588
X3.323Y-3.9874
X3.324Y-3.743
X3.3266Y-2.9663
X3.3266Y-3.0608
X3.329Y-4.249
X3.3303Y-4.0161
X3.3303Y-4.0311
X3.3303Y-4.0461
X3.3303Y-4.0611
X3.3311Y-4.3524
X3.3311Y-4.3661
X3.3312Y-4.2885
X3.3327Y-3.5829
X3.3327Y-3.5989
X3.3327Y-3.6149
X3.3327Y-3.6319
X3.3354Y-3.9713
X3.3358Y-3.9508
X3.3375Y-5.427
X3.3386Y-3.9882
X3.3386Y-4.0051
X3.34Y-4.54
X3.3406Y-3.7303
X3.341Y-4.613
X3.3422Y-4.2985
X3.345Y-3.406
X3.349Y-3.895
X3.349Y-3.94
X3.3503Y-3.0135
X3.3503Y-3.108
X3.351Y-3.473
X3.351Y-4.167
X3.3516Y-4.2248
X3.352Y-4.287
X3.3522Y-4.3085
X3.354Y-4.449
X3.3542Y-3.9897
X3.3563Y-3.7949
X3.3611Y-5.3798
X3.3622Y-4.3185
X3.3642Y-3.9787
X3.3654Y-3.887
X3.3654Y-3.902
X3.3654Y-3.917
X3.3654Y-3.932
X3.3654Y-3.947
X3.3654Y-3.962
X3.3673Y-3.5846
X3.3673Y-3.5996
X3.3673Y-3.6146
X3.3673Y-3.6296
X3.3673Y-3.6446
X3.3686Y-3.3588
X3.3689Y-4.3365
X3.3689Y-4.3515
X3.3689Y-4.3665
X3.3693Y-4.0393
X3.3693Y-4.0543
X3.3693Y-4.0703
X3.3739Y-2.9663
X3.3739Y-3.0608
X3.3743Y-4.0253
X3.378Y-4.25
X3.3848Y-5.427
X3.3853Y-4.0153
X3.388Y-4.54
X3.388Y-4.613
X3.3922Y-3.406
X3.3953Y-4.0043
X3.3975Y-3.0135
X3.3975Y-3.108
X3.399Y-4.214
X3.399Y-4.287
X3.4058Y-3.8674
X3.4058Y-3.8824
X3.4058Y-3.8974
X3.4058Y-3.9124
X3.4058Y-3.9274
X3.4058Y-3.9424
X3.4058Y-3.9574
X3.4058Y-3.9724
X3.4058Y-3.9874
X3.407Y-4.399
X3.4078Y-5.338
X3.4084Y-5.3798
X3.4114Y-3.6433
X3.4159Y-3.3588
X3.417Y-3.802
X3.417Y-3.833
X3.418Y-4.501
X3.421Y-4.1
X3.421Y-4.25
X3.4211Y-2.9663
X3.4211Y-3.0608
X3.4248Y-3.8674
X3.4248Y-3.9054
X3.4248Y-3.9464
X3.4248Y-3.9894
X3.432Y-5.427
X3.437Y-3.735
X3.437Y-4.6142
X3.4375Y-3.321
X3.4395Y-3.228
X3.4395Y-3.406
X3.4448Y-3.0135
X3.4448Y-3.108
X3.445Y-3.548
X3.445Y-3.659
X3.455Y-5.338
X3.4556Y-5.3798
X3.4611Y-3.2738
X3.4631Y-3.1808
X3.4631Y-3.3588
X3.4684Y-2.9663
X3.4684Y-3.0608
T3
X2.8Y-3.2
X2.8Y-3.3
X2.8Y-3.5
X2.8Y-3.6
X2.8Y-4.05
X2.8Y-4.15
X2.8Y-4.35
X2.8Y-4.45
X2.85Y-3.25
X2.85Y-3.55
X2.85Y-4.1
X2.85Y-4.4
X2.9Y-3.2
X2.9Y-3.3
X2.9Y-3.5
X2.9Y-3.6
X2.9Y-4.05
X2.9Y-4.15
X2.9Y-4.35
X2.9Y-4.45
X3.3Y-3.2
X3.3Y-3.3
X3.3Y-3.5
X3.3Y-3.6
X3.3Y-4.05
X3.3Y-4.15
X3.3Y-4.35
X3.3Y-4.45
X3.35Y-3.25
X3.35Y-3.55
X3.35Y-4.1
X3.35Y-4.4
X3.4Y-3.2
X3.4Y-3.3
X3.4Y-3.5
X3.4Y-3.6
X3.4Y-4.05
X3.4Y-4.15
X3.4Y-4.35
X3.4Y-4.45
T4
X2.8244Y-2.8941
X2.8244Y-4.9472
X3.4012Y-2.8941
X3.4012Y-4.9472
T5
X2.8638Y-4.7543
X3.3612Y-4.7559
M30
