M48
; DRILL file {KiCad 8.0.2-1} date 2024-05-28T13:40:08-0700
; FORMAT={-:-/ absolute / inch / decimal}
; #@! TF.CreationDate,2024-05-28T13:40:08-07:00
; #@! TF.GenerationSoftware,Kicad,Pcbnew,8.0.2-1
; #@! TF.FileFunction,Plated,1,3,Blind
FMAT,2
INCH
; #@! TA.AperFunction,Plated,Buried,ViaDrill
T1C0.0078
%
G90
G05
T1
X2.938Y-5.334
X2.954Y-3.62
X2.954Y-5.194
X2.984Y-3.62
X3.0Y-5.334
X3.004Y-3.552
X3.014Y-3.62
X3.03Y-5.194
X3.066Y-5.334
X3.0697Y-5.194
X3.073Y-3.621
X3.1054Y-5.1949
X3.119Y-3.621
X3.12Y-5.334
X3.146Y-5.194
X3.17Y-5.334
X3.174Y-3.62
X3.188Y-3.554
X3.206Y-3.62
X3.236Y-3.62
X3.28Y-5.222
X3.298Y-3.754
X3.298Y-3.822
X3.298Y-3.856
X3.298Y-3.924
X3.298Y-3.956
X3.458Y-5.166
X3.458Y-5.186
X3.472Y-5.262
X3.472Y-5.292
M30
