M48
; DRILL file {KiCad 8.0.2-1} date 2024-05-28T13:40:08-0700
; FORMAT={-:-/ absolute / inch / decimal}
; #@! TF.CreationDate,2024-05-28T13:40:08-07:00
; #@! TF.GenerationSoftware,Kicad,Pcbnew,8.0.2-1
; #@! TF.FileFunction,Plated,1,2,Blind
FMAT,2
INCH
; #@! TA.AperFunction,Plated,Buried,ViaDrill
T1C0.0078
%
G90
G05
T1
X2.7569Y-5.0463
X2.762Y-5.064
X2.7657Y-3.7677
X2.7687Y-3.7264
X2.792Y-5.064
X2.826Y-5.194
X2.856Y-5.064
X2.866Y-5.194
X2.908Y-5.194
X2.92Y-5.064
X2.96Y-4.022
X2.984Y-5.064
X2.99Y-4.022
X2.994Y-5.194
X3.022Y-4.022
X3.044Y-5.064
X3.054Y-4.022
X3.086Y-4.022
X3.116Y-5.064
X3.118Y-4.022
X3.146Y-5.22
X3.15Y-4.022
X3.16Y-5.064
X3.182Y-4.022
X3.1996Y-3.3622
X3.214Y-4.022
X3.242Y-4.022
X3.4295Y-3.7098
X3.4299Y-3.7606
M30
