%TF.GenerationSoftware,KiCad,Pcbnew,9.0.0*%
%TF.CreationDate,2025-03-28T09:35:17-07:00*%
%TF.ProjectId,optical_pcb_v2,6f707469-6361-46c5-9f70-63625f76322e,V1*%
%TF.SameCoordinates,Original*%
%TF.FileFunction,Copper,L1,Top*%
%TF.FilePolarity,Positive*%
%FSLAX46Y46*%
G04 Gerber Fmt 4.6, Leading zero omitted, Abs format (unit mm)*
G04 Created by KiCad (PCBNEW 9.0.0) date 2025-03-28 09:35:17*
%MOMM*%
%LPD*%
G01*
G04 APERTURE LIST*
G04 Aperture macros list*
%AMRoundRect*
0 Rectangle with rounded corners*
0 $1 Rounding radius*
0 $2 $3 $4 $5 $6 $7 $8 $9 X,Y pos of 4 corners*
0 Add a 4 corners polygon primitive as box body*
4,1,4,$2,$3,$4,$5,$6,$7,$8,$9,$2,$3,0*
0 Add four circle primitives for the rounded corners*
1,1,$1+$1,$2,$3*
1,1,$1+$1,$4,$5*
1,1,$1+$1,$6,$7*
1,1,$1+$1,$8,$9*
0 Add four rect primitives between the rounded corners*
20,1,$1+$1,$2,$3,$4,$5,0*
20,1,$1+$1,$4,$5,$6,$7,0*
20,1,$1+$1,$6,$7,$8,$9,0*
20,1,$1+$1,$8,$9,$2,$3,0*%
G04 Aperture macros list end*
%TA.AperFunction,SMDPad,CuDef*%
%ADD10RoundRect,0.125000X0.125000X0.125000X-0.125000X0.125000X-0.125000X-0.125000X0.125000X-0.125000X0*%
%TD*%
%TA.AperFunction,ComponentPad*%
%ADD11C,0.990600*%
%TD*%
%TA.AperFunction,SMDPad,CuDef*%
%ADD12RoundRect,0.100000X0.100000X0.150000X-0.100000X0.150000X-0.100000X-0.150000X0.100000X-0.150000X0*%
%TD*%
%TA.AperFunction,ComponentPad*%
%ADD13C,3.000000*%
%TD*%
%TA.AperFunction,SMDPad,CuDef*%
%ADD14RoundRect,0.100000X-0.150000X0.100000X-0.150000X-0.100000X0.150000X-0.100000X0.150000X0.100000X0*%
%TD*%
%TA.AperFunction,SMDPad,CuDef*%
%ADD15RoundRect,0.100000X0.150000X-0.100000X0.150000X0.100000X-0.150000X0.100000X-0.150000X-0.100000X0*%
%TD*%
%TA.AperFunction,SMDPad,CuDef*%
%ADD16R,0.550000X0.550000*%
%TD*%
%TA.AperFunction,SMDPad,CuDef*%
%ADD17RoundRect,0.100000X-0.100000X-0.150000X0.100000X-0.150000X0.100000X0.150000X-0.100000X0.150000X0*%
%TD*%
%TA.AperFunction,ComponentPad*%
%ADD18C,5.000000*%
%TD*%
%TA.AperFunction,ViaPad*%
%ADD19C,0.300000*%
%TD*%
%TA.AperFunction,ViaPad*%
%ADD20C,0.400000*%
%TD*%
%TA.AperFunction,Conductor*%
%ADD21C,0.195000*%
%TD*%
%TA.AperFunction,Conductor*%
%ADD22C,0.100000*%
%TD*%
%TA.AperFunction,Conductor*%
%ADD23C,0.368590*%
%TD*%
G04 APERTURE END LIST*
D10*
%TO.P,,2*%
%TO.N,Net-(C2-Pad2)*%
X82550000Y-84520000D03*
%TD*%
%TO.P,,3*%
%TO.N,Net-(C3-Pad2)*%
X74940000Y-84520000D03*
%TD*%
D11*
%TO.P,SMP3,*%
%TO.N,Net-(C3-Pad1)*%
X72390000Y-104140000D03*
%TO.P,SMP3,2,2*%
%TO.N,GND*%
X71120000Y-105410000D03*
%TO.P,SMP3,3,3*%
X73660000Y-105410000D03*
%TO.P,SMP3,4,4*%
X73660000Y-102870000D03*
%TO.P,SMP3,5,5*%
X71120000Y-102870000D03*
%TD*%
D12*
%TO.P,,14*%
%TO.N,14*%
X80780000Y-76700000D03*
%TD*%
D11*
%TO.P,SMP2,*%
%TO.N,Net-(C2-Pad1)*%
X85090000Y-104140000D03*
%TO.P,SMP2,2,2*%
%TO.N,GND*%
X83820000Y-105410000D03*
%TO.P,SMP2,3,3*%
X86360000Y-105410000D03*
%TO.P,SMP2,4,4*%
X86360000Y-102870000D03*
%TO.P,SMP2,5,5*%
X83820000Y-102870000D03*
%TD*%
D13*
%TO.P,,*%
%TO.N,GND*%
X85795000Y-125660000D03*
%TD*%
D14*
%TO.P,,24*%
%TO.N,24*%
X74910000Y-79150000D03*
%TD*%
D15*
%TO.P,,6*%
%TO.N,6*%
X82550900Y-81550000D03*
%TD*%
D16*
%TO.P,R6,*%
%TO.N,Net-(C3-Pad2)*%
X75150000Y-106970000D03*
%TO.N,Net-(C3-Pad1)*%
X76100000Y-106970000D03*
%TD*%
%TO.P,,*%
%TO.N,Net-(C1-Pad2)*%
X80480759Y-116581036D03*
%TO.N,Net-(R1-Pad1)*%
X80480762Y-117531038D03*
%TD*%
D12*
%TO.P,,42*%
%TO.N,42*%
X76370000Y-75440000D03*
%TD*%
D15*
%TO.P,,22*%
%TO.N,22*%
X74900000Y-77560000D03*
%TD*%
%TO.P,,32*%
%TO.N,32*%
X83946300Y-79550000D03*
%TD*%
%TO.P,,33*%
%TO.N,33*%
X83950900Y-78760000D03*
%TD*%
D17*
%TO.P,,41*%
%TO.N,41*%
X77160000Y-75440000D03*
%TD*%
D14*
%TO.P,,48*%
%TO.N,48*%
X73590000Y-81150000D03*
%TD*%
D12*
%TO.P,,12*%
%TO.N,12*%
X82368370Y-76700000D03*
%TD*%
D18*
%TO.P,,*%
%TO.N,GND*%
X84780000Y-120800000D03*
%TD*%
D12*
%TO.P,,39*%
%TO.N,39*%
X78770000Y-75440000D03*
%TD*%
%TO.P,,16*%
%TO.N,16*%
X79180000Y-76700000D03*
%TD*%
D15*
%TO.P,,44*%
%TO.N,44*%
X73570000Y-77960000D03*
%TD*%
D16*
%TO.P,,*%
%TO.N,Net-(C3-Pad2)*%
X77189997Y-108469998D03*
%TO.N,Net-(R3-Pad1)*%
X77190000Y-109420000D03*
%TD*%
D15*
%TO.P,,9*%
%TO.N,9*%
X82547800Y-79167200D03*
%TD*%
%TO.P,,34*%
%TO.N,34*%
X83935700Y-77970000D03*
%TD*%
D12*
%TO.P,,17*%
%TO.N,17*%
X78370000Y-76700000D03*
%TD*%
D14*
%TO.P,,47*%
%TO.N,47*%
X73590000Y-80360000D03*
%TD*%
D13*
%TO.P,,*%
%TO.N,GND*%
X71740000Y-125660000D03*
%TD*%
D14*
%TO.P,,27*%
%TO.N,27*%
X74930000Y-81550000D03*
%TD*%
D12*
%TO.P,,21*%
%TO.N,21*%
X75170000Y-76700000D03*
%TD*%
D15*
%TO.P,,29*%
%TO.N,29*%
X83950900Y-81950000D03*
%TD*%
D14*
%TO.P,,26*%
%TO.N,26*%
X74930000Y-80750000D03*
%TD*%
D12*
%TO.P,9,18*%
%TO.N,18*%
X77580000Y-76700000D03*
%TD*%
D11*
%TO.P,SMP4,1,1*%
%TO.N,Net-(C4-Pad1)*%
X72390000Y-111760000D03*
%TO.P,SMP4,2,2*%
%TO.N,GND*%
X71120000Y-113030000D03*
%TO.P,SMP4,3,3*%
X73660000Y-113030000D03*
%TO.P,SMP4,4,4*%
X73660000Y-110490000D03*
%TO.P,SMP4,5,5*%
X71120000Y-110490000D03*
%TD*%
D13*
%TO.P,,*%
%TO.N,GND*%
X71740000Y-73510000D03*
%TD*%
D12*
%TO.P,,36*%
%TO.N,36*%
X81170000Y-75440000D03*
%TD*%
D14*
%TO.P,,49*%
%TO.N,49*%
X73580000Y-81950000D03*
%TD*%
D16*
%TO.P,,*%
%TO.N,Net-(C4-Pad1)*%
X76270000Y-114580000D03*
%TO.N,Net-(C4-Pad2)*%
X75320000Y-114580001D03*
%TD*%
D12*
%TO.P,,43*%
%TO.N,43*%
X75570000Y-75440000D03*
%TD*%
D10*
%TO.P,,4*%
%TO.N,Net-(C4-Pad2)*%
X74940000Y-83400000D03*
%TD*%
D16*
%TO.P,R6,*%
%TO.N,Net-(C2-Pad1)*%
X81282500Y-106970000D03*
%TO.N,Net-(C2-Pad2)*%
X82232500Y-106970000D03*
%TD*%
D15*
%TO.P,,8*%
%TO.N,8*%
X82550900Y-79960000D03*
%TD*%
D11*
%TO.P,SMP1,*%
%TO.N,Net-(C1-Pad1)*%
X85090000Y-111760000D03*
%TO.P,SMP1,2,2*%
%TO.N,GND*%
X83820000Y-113030000D03*
%TO.P,SMP1,3,3*%
X86360000Y-113030000D03*
%TO.P,SMP1,4,4*%
X86360000Y-110490000D03*
%TO.P,SMP1,5,5*%
X83820000Y-110490000D03*
%TD*%
D12*
%TO.P,,38*%
%TO.N,38*%
X79570000Y-75440000D03*
%TD*%
D14*
%TO.P,,46*%
%TO.N,46*%
X73590000Y-79550000D03*
%TD*%
D12*
%TO.P,,15*%
%TO.N,15*%
X79968400Y-76690000D03*
%TD*%
D15*
%TO.P,,30*%
%TO.N,30*%
X83950900Y-81150000D03*
%TD*%
D12*
%TO.P,,20*%
%TO.N,20*%
X75980000Y-76700000D03*
%TD*%
D17*
%TO.P,,35*%
%TO.N,35*%
X81970000Y-75440000D03*
%TD*%
D10*
%TO.P,,1*%
%TO.N,Net-(C1-Pad2)*%
X82540000Y-83410000D03*
%TD*%
D12*
%TO.P,,37*%
%TO.N,37*%
X80380000Y-75440000D03*
%TD*%
D16*
%TO.P,,*%
%TO.N,Net-(C1-Pad2)*%
X82223970Y-114581903D03*
%TO.N,Net-(C1-Pad1)*%
X81273970Y-114581904D03*
%TD*%
D14*
%TO.P,,10*%
%TO.N,10*%
X82570000Y-78360000D03*
%TD*%
D12*
%TO.P,,19*%
%TO.N,19*%
X76780000Y-76700000D03*
%TD*%
D13*
%TO.P,,*%
%TO.N,GND*%
X85790000Y-73510000D03*
%TD*%
D15*
%TO.P,,31*%
%TO.N,31*%
X83950900Y-80358000D03*
%TD*%
D16*
%TO.P,,*%
%TO.N,Net-(C2-Pad2)*%
X80338856Y-108471036D03*
%TO.N,Net-(R2-Pad1)*%
X80338859Y-109421038D03*
%TD*%
D15*
%TO.P,,23*%
%TO.N,23*%
X74900000Y-78360000D03*
%TD*%
D12*
%TO.P,,40*%
%TO.N,40*%
X77960000Y-75440000D03*
%TD*%
D15*
%TO.P,,5*%
%TO.N,5*%
X82539700Y-82360000D03*
%TD*%
D14*
%TO.P,,11*%
%TO.N,11*%
X82590000Y-77550000D03*
%TD*%
%TO.P,,28*%
%TO.N,28*%
X74930000Y-82350000D03*
%TD*%
D16*
%TO.P,,*%
%TO.N,Net-(C4-Pad2)*%
X77210759Y-116591036D03*
%TO.N,Net-(R4-Pad1)*%
X77210762Y-117541038D03*
%TD*%
D15*
%TO.P,,7*%
%TO.N,7*%
X82550900Y-80760000D03*
%TD*%
D14*
%TO.P,,25*%
%TO.N,25*%
X74922300Y-79950000D03*
%TD*%
D18*
%TO.P,,*%
%TO.N,GND*%
X72740000Y-120760000D03*
%TD*%
D14*
%TO.P,,45*%
%TO.N,45*%
X73590000Y-78760000D03*
%TD*%
D12*
%TO.P,,13*%
%TO.N,13*%
X81570000Y-76700000D03*
%TD*%
D19*
%TO.N,31*%
X77290000Y-135160000D03*
X84560000Y-80360000D03*
X77291600Y-131508896D03*
%TO.N,32*%
X84560000Y-79550000D03*
%TO.N,33*%
X84560000Y-78760000D03*
X76691600Y-131492614D03*
X76690000Y-135150000D03*
%TO.N,34*%
X84560000Y-77970000D03*
%TO.N,35*%
X81970000Y-74820000D03*
X76090000Y-135160000D03*
X76091600Y-131490000D03*
%TO.N,36*%
X81170000Y-74820000D03*
%TO.N,37*%
X80380000Y-74830000D03*
X75490000Y-135120000D03*
X75491600Y-131500000D03*
%TO.N,39*%
X78770000Y-74820000D03*
X74891600Y-131516715D03*
X74890000Y-135130000D03*
%TO.N,40*%
X77960000Y-74820000D03*
D20*
%TO.N,GND*%
X87460000Y-82220000D03*
D19*
X69280000Y-96030000D03*
X87750000Y-84070000D03*
D20*
X86537800Y-111734600D03*
D19*
X70010000Y-86270000D03*
X83660000Y-83760000D03*
X84940000Y-84170000D03*
X70920000Y-108000000D03*
D20*
X88000000Y-117550000D03*
X69460000Y-74220000D03*
D19*
X70030000Y-90990000D03*
X86600000Y-115570000D03*
X71430000Y-97810000D03*
X86030000Y-107960000D03*
X87490000Y-102210000D03*
X73640000Y-83000000D03*
D20*
X69960000Y-72220000D03*
D19*
X88200000Y-88550000D03*
D20*
X76311200Y-125069800D03*
X87910000Y-132070000D03*
D19*
X84500000Y-83760000D03*
X70220000Y-107460000D03*
X69280000Y-102430000D03*
X83000000Y-108080000D03*
X72360000Y-83000000D03*
X88230000Y-107610000D03*
X88200000Y-93150000D03*
X69300000Y-110620000D03*
X87470000Y-98120000D03*
D20*
X70550000Y-127510000D03*
X69960000Y-80720000D03*
X69460000Y-76220000D03*
D19*
X72130000Y-115380000D03*
D20*
X81810000Y-118230000D03*
D19*
X86200000Y-97600000D03*
X70700000Y-96180000D03*
X86760000Y-104560000D03*
D20*
X87460000Y-77220000D03*
D19*
X71420000Y-91120000D03*
D20*
X87960000Y-128720000D03*
D19*
X69750000Y-114060000D03*
X70690000Y-100420000D03*
D20*
X72190000Y-117730000D03*
D19*
X88220000Y-104250000D03*
X86960000Y-100250000D03*
D20*
X87361200Y-127669800D03*
D19*
X70030000Y-90560000D03*
X69280000Y-104920000D03*
X74420000Y-108870000D03*
X82780000Y-108850000D03*
D20*
X73486635Y-75193317D03*
X74938800Y-123500200D03*
D19*
X87450000Y-109280000D03*
D20*
X84800000Y-123830000D03*
D19*
X70000000Y-106200000D03*
X84900000Y-83020000D03*
X86940000Y-87770000D03*
X84630000Y-84900000D03*
D20*
X81601800Y-120454400D03*
D19*
X86950000Y-94830000D03*
X87470000Y-94350000D03*
X69880000Y-83260000D03*
X72180000Y-83750000D03*
X71510000Y-108630000D03*
X88220000Y-106760000D03*
X87470000Y-93530000D03*
X82820000Y-112570000D03*
D20*
X87960000Y-81720000D03*
D19*
X83180000Y-107340000D03*
X86550000Y-106310000D03*
X87480000Y-86380000D03*
X70000000Y-104970000D03*
X86950000Y-94410000D03*
X69300000Y-92490000D03*
D20*
X79960000Y-72720000D03*
D19*
X69280000Y-99870000D03*
X69300000Y-90380000D03*
X84100000Y-108850000D03*
X74110000Y-107320000D03*
X69300000Y-93350000D03*
X72800000Y-116030000D03*
X82900000Y-116210000D03*
X69300000Y-111090000D03*
X85210000Y-114220000D03*
X84840000Y-107340000D03*
X86940000Y-89370000D03*
D20*
X69460000Y-80220000D03*
D19*
X88200000Y-91450000D03*
X86170000Y-87600000D03*
D20*
X71145400Y-111709200D03*
D19*
X70730000Y-106590000D03*
D20*
X81911800Y-121374400D03*
D19*
X87460000Y-91800000D03*
X88250000Y-110940000D03*
X70040000Y-94020000D03*
X70660000Y-82990000D03*
X71900000Y-84140000D03*
D20*
X69960000Y-81720000D03*
D19*
X88210000Y-112620000D03*
X69280000Y-106920000D03*
X71170000Y-101210000D03*
X88200000Y-91850000D03*
X73140000Y-108100000D03*
D20*
X82950000Y-102120000D03*
D19*
X85690000Y-114220000D03*
X82020000Y-116210000D03*
X69300000Y-113320000D03*
X81450000Y-105400000D03*
X70010000Y-87590000D03*
D20*
X71460000Y-76220000D03*
D19*
X86190000Y-94670000D03*
X82450000Y-116980000D03*
X86930000Y-115260000D03*
X72820000Y-107320000D03*
X70000000Y-103730000D03*
X73050000Y-114930000D03*
X83290000Y-106590000D03*
D20*
X69960000Y-115720000D03*
D19*
X73890000Y-83750000D03*
X81760000Y-105120000D03*
D20*
X79960000Y-71720000D03*
X69460000Y-79220000D03*
X85140000Y-110450000D03*
D19*
X87220000Y-84630000D03*
D20*
X75890000Y-136740000D03*
D19*
X69300000Y-109320000D03*
D20*
X73960000Y-72720000D03*
D19*
X73680000Y-116240000D03*
X69280000Y-96430000D03*
X70020000Y-99460000D03*
X81620000Y-116970000D03*
X72330000Y-108870000D03*
X88210000Y-113020000D03*
X72680000Y-108100000D03*
X86190000Y-93420000D03*
X74290000Y-83750000D03*
X88220000Y-103850000D03*
X88210000Y-98140000D03*
X76460000Y-106410000D03*
X83660000Y-108850000D03*
X71430000Y-94210000D03*
X87450000Y-108860000D03*
X70690000Y-92760000D03*
D20*
X86460000Y-123720000D03*
D19*
X74930000Y-116230000D03*
X70670000Y-87600000D03*
D20*
X75090000Y-103660000D03*
D19*
X74140000Y-103790000D03*
X69300000Y-101390000D03*
X88190000Y-87750000D03*
X88230000Y-108430000D03*
X88200000Y-96920000D03*
X75130000Y-105710000D03*
X87480000Y-85880000D03*
X74020000Y-108100000D03*
X71350000Y-84160000D03*
X74700000Y-114940000D03*
X76480000Y-108860000D03*
X81690000Y-113910000D03*
X87470000Y-93100000D03*
X70760000Y-103740000D03*
X87490000Y-103410000D03*
D20*
X85460000Y-76220000D03*
D19*
X87490000Y-105830000D03*
X71430000Y-99060000D03*
X84770000Y-114220000D03*
D20*
X82460000Y-110720000D03*
D19*
X71430000Y-96050000D03*
X87470000Y-96030000D03*
X70010000Y-86720000D03*
D20*
X86938200Y-117425600D03*
D19*
X86950000Y-97770000D03*
D20*
X73460000Y-72220000D03*
D19*
X81000000Y-108840000D03*
X69300000Y-112010000D03*
D20*
X69960000Y-78720000D03*
X80460000Y-72220000D03*
D19*
X84290000Y-111360000D03*
X74560000Y-107320000D03*
X72670000Y-116930000D03*
X70690000Y-91030000D03*
X73970000Y-112130000D03*
X74290000Y-114930000D03*
X69280000Y-103720000D03*
X75440000Y-106030000D03*
X87490000Y-96860000D03*
X69290000Y-86100000D03*
X87490000Y-101810000D03*
X74130000Y-116240000D03*
X74400000Y-112370000D03*
X83220000Y-84170000D03*
X88210000Y-111790000D03*
X70010000Y-89310000D03*
X86200000Y-100940000D03*
D20*
X82460000Y-72220000D03*
D19*
X86970000Y-96920000D03*
X83600000Y-107340000D03*
X87430000Y-111370000D03*
X70010000Y-85840000D03*
X70760000Y-104150000D03*
X74260000Y-84160000D03*
X82650000Y-104200000D03*
X76600000Y-113580000D03*
X86960000Y-96520000D03*
X86200000Y-86750000D03*
X70700000Y-94920000D03*
X88230000Y-104650000D03*
X85910000Y-85040000D03*
X87060000Y-100730000D03*
X84940000Y-83760000D03*
X69280000Y-103320000D03*
D20*
X87778200Y-118455600D03*
D19*
X71540000Y-106590000D03*
D20*
X70960000Y-71720000D03*
X83460000Y-75220000D03*
D19*
X70660000Y-88910000D03*
X71430000Y-94680000D03*
X70380000Y-114710000D03*
X86950000Y-85870000D03*
X74490000Y-105070000D03*
X87460000Y-110940000D03*
X69300000Y-111550000D03*
X82530000Y-112880000D03*
X70410000Y-100850000D03*
D20*
X71251200Y-130499800D03*
D19*
X70020000Y-97410000D03*
X69290000Y-87830000D03*
X86200000Y-100070000D03*
X75750000Y-116240000D03*
X84200000Y-114950000D03*
X70000000Y-103310000D03*
X70670000Y-99140000D03*
X76590000Y-108100000D03*
X76102064Y-105668181D03*
X69300000Y-94700000D03*
X69550000Y-83600000D03*
X70020000Y-108730000D03*
X70680000Y-98310000D03*
X70050000Y-95700000D03*
D20*
X69960000Y-74720000D03*
D19*
X86180000Y-89200000D03*
X70670000Y-85780000D03*
X86180000Y-92090000D03*
X69290000Y-95150000D03*
X88200000Y-88150000D03*
X87470000Y-94770000D03*
X74820000Y-105410000D03*
X70000000Y-102900000D03*
D20*
X83960000Y-75720000D03*
D19*
X84550000Y-106600000D03*
X83220000Y-108850000D03*
X87480000Y-96460000D03*
X86940000Y-90570000D03*
X84390000Y-112150000D03*
D20*
X75960000Y-71720000D03*
D19*
X71410000Y-92010000D03*
D20*
X76960000Y-72720000D03*
D19*
X88220000Y-100650000D03*
D20*
X72380000Y-110640000D03*
D19*
X71940000Y-84910000D03*
X82930000Y-114220000D03*
X88190000Y-85350000D03*
D20*
X75960000Y-72720000D03*
D19*
X76630000Y-114010000D03*
X86170000Y-88400000D03*
D20*
X69500000Y-123490000D03*
D19*
X69280000Y-96850000D03*
X84970000Y-106590000D03*
X69300000Y-92920000D03*
X81200000Y-116200000D03*
X86960000Y-97340000D03*
X70020000Y-101070000D03*
D20*
X76010000Y-120320000D03*
D19*
X84620000Y-116220000D03*
X85790000Y-84170000D03*
X71980000Y-116340000D03*
D20*
X82960000Y-72720000D03*
X87960000Y-74720000D03*
D19*
X86940000Y-91450000D03*
D20*
X87460000Y-78220000D03*
D19*
X70010000Y-107890000D03*
D20*
X85190000Y-136790000D03*
X83960000Y-72720000D03*
D19*
X71400000Y-88720000D03*
X72400000Y-107320000D03*
X70020000Y-97820000D03*
X82350000Y-104510000D03*
X81960000Y-112330000D03*
X72150000Y-114210000D03*
X69280000Y-95610000D03*
D20*
X86460000Y-71720000D03*
D19*
X70670000Y-84830000D03*
X83830000Y-111360000D03*
D20*
X72460000Y-75220000D03*
D19*
X70730000Y-106170000D03*
X69280000Y-98930000D03*
D20*
X73400000Y-117630000D03*
D19*
X70700000Y-93210000D03*
X88210000Y-99390000D03*
X84320000Y-114220000D03*
D20*
X76100000Y-122000000D03*
D19*
X87470000Y-95200000D03*
X70030000Y-90130000D03*
X73450000Y-114930000D03*
X88210000Y-113470000D03*
X71430000Y-99460000D03*
X71430000Y-99860000D03*
X86190000Y-98440000D03*
X87430000Y-112200000D03*
D20*
X87460000Y-72720000D03*
D19*
X75570000Y-113600000D03*
X71410000Y-89920000D03*
X81330000Y-108080000D03*
X72320000Y-116650000D03*
X86940000Y-87310000D03*
X83830000Y-104490000D03*
D20*
X69460000Y-129720000D03*
D19*
X75310000Y-116940000D03*
X87490000Y-101410000D03*
X86190000Y-91200000D03*
X74540000Y-106600000D03*
D20*
X77960000Y-71720000D03*
D19*
X74030000Y-84890000D03*
D20*
X74080000Y-125860000D03*
D19*
X87460000Y-87710000D03*
D20*
X74000000Y-115590000D03*
D19*
X87150000Y-83430000D03*
X82160000Y-108080000D03*
X72480000Y-115730000D03*
D20*
X87460000Y-80220000D03*
X73961200Y-127509800D03*
D19*
X74470000Y-108100000D03*
X75760000Y-108090000D03*
X70030000Y-111800000D03*
X84130000Y-106590000D03*
X70040000Y-95280000D03*
D20*
X81190000Y-119190000D03*
D19*
X87490000Y-105010000D03*
D20*
X83460000Y-76220000D03*
D19*
X70000000Y-104140000D03*
D20*
X81960000Y-72720000D03*
D19*
X71400000Y-86720000D03*
D20*
X87460000Y-75220000D03*
D19*
X85050000Y-114950000D03*
X70680000Y-99960000D03*
X84070000Y-83760000D03*
D20*
X82420000Y-109870000D03*
X80960000Y-71720000D03*
D19*
X87550000Y-114610000D03*
X73220000Y-83000000D03*
D20*
X87960000Y-76720000D03*
D19*
X87470000Y-97710000D03*
X87050000Y-113900000D03*
X87490000Y-100610000D03*
X88220000Y-103450000D03*
X86950000Y-86360000D03*
X84980000Y-115990000D03*
X69280000Y-98080000D03*
X86180000Y-92900000D03*
X70000000Y-88450000D03*
X86950000Y-90970000D03*
D20*
X69960000Y-76720000D03*
D19*
X88230000Y-107180000D03*
X88200000Y-93560000D03*
X71840000Y-114930000D03*
X84530000Y-116960000D03*
X86180000Y-89600000D03*
X74830000Y-111720000D03*
D20*
X82960000Y-71720000D03*
D19*
X70800000Y-102020000D03*
X81690000Y-106260000D03*
X70670000Y-86230000D03*
X83280000Y-84890000D03*
D20*
X82180000Y-136790000D03*
X72960000Y-71720000D03*
D19*
X85390000Y-106600000D03*
D20*
X87960000Y-73720000D03*
D19*
X86330000Y-83020000D03*
X70020000Y-89720000D03*
X83420000Y-108080000D03*
X70680000Y-95750000D03*
X85480000Y-84900000D03*
X86230000Y-83760000D03*
X83770000Y-84890000D03*
X84970000Y-116990000D03*
X76400000Y-105960000D03*
D20*
X73790000Y-73350000D03*
X83960000Y-74720000D03*
D19*
X74430000Y-84890000D03*
D20*
X87960000Y-78720000D03*
D19*
X88210000Y-98970000D03*
X69280000Y-106520000D03*
X85790000Y-83760000D03*
X86950000Y-93160000D03*
X88210000Y-95670000D03*
X71410000Y-87920000D03*
X82460000Y-116210000D03*
X74170000Y-104730000D03*
X87250000Y-114940000D03*
X76330000Y-113240000D03*
X75260000Y-108870000D03*
X71070000Y-83000000D03*
X84690000Y-108050000D03*
X69280000Y-98510000D03*
X76170000Y-116940000D03*
X82350000Y-108850000D03*
X70030000Y-91430000D03*
X70690000Y-92330000D03*
X70650000Y-85310000D03*
D20*
X69430000Y-127510000D03*
D19*
X82260000Y-112020000D03*
X73420000Y-84170000D03*
X71420000Y-98240000D03*
X70010000Y-108310000D03*
X71400000Y-86300000D03*
X86180000Y-92500000D03*
X69300000Y-89970000D03*
D20*
X75460000Y-72220000D03*
D19*
X70680000Y-86720000D03*
X85980000Y-116170000D03*
X82050000Y-116990000D03*
D20*
X84640000Y-117730000D03*
D19*
X71500000Y-107320000D03*
D20*
X71220000Y-134230000D03*
D19*
X73240000Y-107320000D03*
X75720000Y-106400000D03*
D20*
X88071200Y-126979800D03*
D19*
X75180000Y-104720000D03*
D20*
X72450000Y-102950000D03*
X73251200Y-128199800D03*
D19*
X85030000Y-108840000D03*
D20*
X73126600Y-124028200D03*
D19*
X88230000Y-108850000D03*
X75850000Y-113960000D03*
X71430000Y-95600000D03*
X71410000Y-92420000D03*
X74450000Y-116940000D03*
X86210000Y-97180000D03*
X73210000Y-84890000D03*
X86900000Y-84910000D03*
X87460000Y-110120000D03*
X76580000Y-116940000D03*
D20*
X85980000Y-117400000D03*
D19*
X86160000Y-114220000D03*
X70860000Y-114090000D03*
X69290000Y-86500000D03*
D20*
X75830000Y-115480000D03*
D19*
X81910000Y-113510000D03*
X71410000Y-90720000D03*
X87490000Y-102610000D03*
D20*
X71711200Y-128349800D03*
D19*
X71410000Y-91600000D03*
X69280000Y-104120000D03*
X84420000Y-107340000D03*
X72200000Y-108050000D03*
D20*
X70800000Y-131310000D03*
D19*
X70000000Y-102050000D03*
X86270000Y-84290000D03*
X86930000Y-88170000D03*
X86760000Y-104160000D03*
X88200000Y-95240000D03*
D20*
X71961200Y-129809800D03*
D19*
X70670000Y-88490000D03*
X86190000Y-94260000D03*
X70000000Y-85380000D03*
X87460000Y-89310000D03*
X72380000Y-84900000D03*
X87470000Y-84950000D03*
X86950000Y-107040000D03*
X71410000Y-89520000D03*
X88240000Y-110540000D03*
X73110000Y-112120000D03*
X74860000Y-104390000D03*
D20*
X69460000Y-75220000D03*
D19*
X87450000Y-108430000D03*
X83710000Y-116970000D03*
X70030000Y-110450000D03*
D20*
X87960000Y-80720000D03*
D19*
X69300000Y-93800000D03*
X73160000Y-116940000D03*
X87440000Y-113080000D03*
X83990000Y-112140000D03*
D20*
X69648200Y-117425600D03*
D19*
X87470000Y-86840000D03*
X82660000Y-105290000D03*
X74460000Y-83000000D03*
X83710000Y-106600000D03*
D20*
X74531200Y-125049800D03*
D19*
X88200000Y-97330000D03*
X76610000Y-116240000D03*
X75130000Y-112050000D03*
D20*
X81960000Y-71720000D03*
D19*
X71340000Y-115690000D03*
X73290000Y-104500000D03*
X70700000Y-97020000D03*
D20*
X69460000Y-77220000D03*
D19*
X70850000Y-101550000D03*
X70000000Y-84970000D03*
X87460000Y-92610000D03*
D20*
X76960000Y-71720000D03*
D19*
X86760000Y-103760000D03*
D20*
X73960000Y-75720000D03*
X76890000Y-136740000D03*
D19*
X73110000Y-111410000D03*
X70040000Y-92310000D03*
X70710000Y-115040000D03*
X70060000Y-114390000D03*
X70690000Y-94470000D03*
D20*
X87960000Y-115720000D03*
D19*
X81750000Y-108080000D03*
D20*
X69960000Y-75720000D03*
D19*
X81900000Y-108840000D03*
X87460000Y-83750000D03*
X83620000Y-83010000D03*
X74530000Y-116240000D03*
X82920000Y-111430000D03*
X72550000Y-114210000D03*
X86950000Y-93590000D03*
D20*
X73890000Y-136740000D03*
D19*
X70030000Y-110900000D03*
X86180000Y-90400000D03*
X86280000Y-115870000D03*
D20*
X69550000Y-134880000D03*
D19*
X72780000Y-84900000D03*
D20*
X87960000Y-125720000D03*
D19*
X86940000Y-92670000D03*
X86190000Y-95940000D03*
X88210000Y-100250000D03*
X82880000Y-106600000D03*
D20*
X87980000Y-123040000D03*
D19*
X87470000Y-101010000D03*
X72750000Y-108870000D03*
X70030000Y-112220000D03*
X84640000Y-114950000D03*
X71400000Y-88320000D03*
X87460000Y-90110000D03*
X83160000Y-112280000D03*
X72650000Y-114930000D03*
X74970000Y-112980000D03*
X70040000Y-94440000D03*
X85390000Y-116790000D03*
X86190000Y-95520000D03*
X71420000Y-93310000D03*
X72790000Y-83000000D03*
D20*
X75800000Y-118500000D03*
D19*
X70040000Y-93150000D03*
X73230000Y-106590000D03*
D20*
X71890000Y-136740000D03*
D19*
X86180000Y-90800000D03*
X83350000Y-104590000D03*
D20*
X72952297Y-75697122D03*
X80960000Y-112220000D03*
D19*
X71210000Y-108310000D03*
D20*
X79460000Y-72220000D03*
D19*
X84330000Y-103790000D03*
X84240000Y-108080000D03*
X86960000Y-99390000D03*
X69290000Y-86930000D03*
X70890000Y-84420000D03*
D20*
X84960000Y-75720000D03*
X78890000Y-136740000D03*
D19*
X87470000Y-95620000D03*
X86810000Y-83120000D03*
X83820000Y-108080000D03*
X85710000Y-108260000D03*
X88230000Y-109700000D03*
X76040000Y-112940000D03*
X70650000Y-107690000D03*
X70680000Y-96590000D03*
X70000000Y-105770000D03*
D20*
X86790000Y-134270000D03*
D19*
X86190000Y-85880000D03*
X71430000Y-93740000D03*
X82580000Y-108080000D03*
D20*
X85191600Y-113004600D03*
X83960000Y-76720000D03*
D19*
X73660000Y-106590000D03*
D20*
X69870000Y-116520000D03*
D19*
X88200000Y-91040000D03*
X85250000Y-115690000D03*
X82210000Y-113200000D03*
X86200000Y-96780000D03*
D20*
X75270000Y-110100000D03*
D19*
X69290000Y-87380000D03*
X82950000Y-114930000D03*
X70030000Y-96980000D03*
X86940000Y-91860000D03*
X86170000Y-88800000D03*
X69300000Y-110140000D03*
X71410000Y-87120000D03*
X73250000Y-116240000D03*
X87840000Y-114290000D03*
D20*
X71960000Y-75720000D03*
X87500000Y-124000000D03*
D19*
X87340000Y-113520000D03*
X69300000Y-91210000D03*
X87430000Y-112600000D03*
X88200000Y-88950000D03*
X83400000Y-114220000D03*
X86960000Y-98590000D03*
X70030000Y-111330000D03*
X87480000Y-98530000D03*
X83220000Y-83760000D03*
D20*
X76180000Y-104700000D03*
X87460000Y-81220000D03*
D19*
X70020000Y-99950000D03*
X71830000Y-107760000D03*
X84030000Y-83020000D03*
X81660000Y-112640000D03*
D20*
X86990000Y-131190000D03*
D19*
X70010000Y-100450000D03*
X87490000Y-106300000D03*
D20*
X69670000Y-132570000D03*
D19*
X70000000Y-105370000D03*
X73470000Y-83750000D03*
X81460000Y-108840000D03*
X87490000Y-103010000D03*
X82060000Y-104810000D03*
X83780000Y-116210000D03*
X69300000Y-94260000D03*
D20*
X72288400Y-112953800D03*
D19*
X75310000Y-108100000D03*
D20*
X85960000Y-75720000D03*
D19*
X71730000Y-83760000D03*
X86260000Y-106590000D03*
X71320000Y-83750000D03*
X69300000Y-108920000D03*
X83370000Y-111360000D03*
X80920000Y-113680000D03*
X70040000Y-92730000D03*
X74540000Y-104070000D03*
X70000000Y-107020000D03*
X88200000Y-86150000D03*
X70760000Y-104570000D03*
D20*
X81570000Y-122140000D03*
X82060000Y-115520000D03*
X69460000Y-82220000D03*
X69430000Y-120980000D03*
D19*
X70690000Y-97880000D03*
X87450000Y-88510000D03*
X84200000Y-84900000D03*
X73660000Y-107320000D03*
X83370000Y-114940000D03*
D20*
X78460000Y-72220000D03*
D19*
X82580000Y-111720000D03*
X86200000Y-100500000D03*
X69290000Y-88250000D03*
X88200000Y-94830000D03*
X69290000Y-100370000D03*
X86200000Y-98850000D03*
X75740000Y-112640000D03*
X73620000Y-84890000D03*
X70030000Y-91860000D03*
X69280000Y-105720000D03*
X71430000Y-95150000D03*
X74040000Y-111410000D03*
D20*
X77460000Y-72220000D03*
D19*
X85360000Y-83760000D03*
X86760000Y-102090000D03*
D20*
X83050000Y-117950000D03*
D19*
X75440000Y-112340000D03*
D20*
X71960000Y-71720000D03*
D19*
X86180000Y-90000000D03*
D20*
X78960000Y-72720000D03*
D19*
X69290000Y-84480000D03*
D20*
X70960000Y-109220000D03*
D19*
X82950000Y-103900000D03*
D20*
X77890000Y-136740000D03*
X87960000Y-82720000D03*
D19*
X88210000Y-97740000D03*
D20*
X84430669Y-76221017D03*
D19*
X70050000Y-84550000D03*
X87480000Y-85380000D03*
X86500000Y-101290000D03*
X70020000Y-109130000D03*
D20*
X69460000Y-81220000D03*
X83432631Y-72224063D03*
X69410000Y-118970000D03*
X70460000Y-75220000D03*
D19*
X70020000Y-99060000D03*
X81380000Y-112940000D03*
X75730000Y-116940000D03*
X88200000Y-86950000D03*
X85680000Y-116510000D03*
D20*
X77960000Y-72720000D03*
D19*
X72960000Y-114210000D03*
D20*
X87190000Y-136790000D03*
D19*
X75490000Y-105030000D03*
X71140000Y-106600000D03*
D20*
X81500000Y-111310000D03*
D19*
X69290000Y-88680000D03*
X70050000Y-93570000D03*
X71960000Y-107320000D03*
D20*
X70789800Y-124002800D03*
X79890000Y-136740000D03*
D19*
X86950000Y-98180000D03*
X88200000Y-90630000D03*
X69280000Y-97250000D03*
X71430000Y-96990000D03*
X75250000Y-113280000D03*
X74900000Y-116950000D03*
X86950000Y-96090000D03*
X71420000Y-85480000D03*
X71430000Y-100270000D03*
D20*
X84000000Y-124500000D03*
X88151200Y-129689800D03*
X85115400Y-105841800D03*
D19*
X70700000Y-95340000D03*
X80920000Y-106190000D03*
D20*
X69460000Y-78220000D03*
D19*
X76180000Y-108100000D03*
X88210000Y-112200000D03*
X73610000Y-116940000D03*
X83850000Y-103790000D03*
X71900000Y-108860000D03*
X88210000Y-92740000D03*
X70680000Y-98720000D03*
D20*
X74960000Y-71720000D03*
D19*
X86600000Y-84610000D03*
D20*
X82040000Y-103130000D03*
D19*
X85820000Y-106600000D03*
X72930000Y-84170000D03*
X71570000Y-85100000D03*
D20*
X69960000Y-77720000D03*
D19*
X87460000Y-92210000D03*
X69290000Y-107720000D03*
X87470000Y-110520000D03*
D20*
X74960000Y-72720000D03*
D19*
X84570000Y-108850000D03*
X86940000Y-89770000D03*
X72430000Y-84150000D03*
X87250000Y-106730000D03*
X74690000Y-112680000D03*
X70680000Y-87160000D03*
X70690000Y-91890000D03*
D20*
X69460000Y-128720000D03*
X81880000Y-123630000D03*
D19*
X70680000Y-88060000D03*
X87490000Y-105430000D03*
X69300000Y-112920000D03*
D20*
X81460000Y-110220000D03*
D19*
X72410000Y-106590000D03*
X86160000Y-85400000D03*
D20*
X75668200Y-121085600D03*
D19*
X75340000Y-116240000D03*
X70010000Y-98650000D03*
X71410000Y-90320000D03*
X70020000Y-109550000D03*
D20*
X70460000Y-76220000D03*
D19*
X69280000Y-106120000D03*
D20*
X75578200Y-119405600D03*
D19*
X71290000Y-114200053D03*
D20*
X70950000Y-117100000D03*
X72460000Y-76220000D03*
D19*
X71440000Y-97390000D03*
X88200000Y-94410000D03*
X81180000Y-116970000D03*
X83570000Y-112160000D03*
X82880000Y-116990000D03*
D20*
X87960000Y-79720000D03*
D19*
X88210000Y-101050000D03*
X74610000Y-114220000D03*
D20*
X72800000Y-129010000D03*
X87680000Y-122100000D03*
D19*
X69300000Y-109720000D03*
X87450000Y-107190000D03*
X86950000Y-94000000D03*
D20*
X70390000Y-122990000D03*
D19*
X86950000Y-95680000D03*
X81070000Y-113260000D03*
X83310000Y-116970000D03*
D20*
X80960000Y-72720000D03*
D19*
X88190000Y-86550000D03*
X69300000Y-92040000D03*
X88210000Y-99850000D03*
D20*
X74460000Y-72220000D03*
D19*
X87460000Y-89710000D03*
X88220000Y-103050000D03*
X70000000Y-104550000D03*
X87460000Y-88910000D03*
X86940000Y-85360000D03*
D20*
X83460000Y-73220000D03*
D19*
X86190000Y-96350000D03*
X88230000Y-108020000D03*
X69300000Y-108520000D03*
D20*
X70970000Y-136790000D03*
D19*
X84460000Y-83020000D03*
X70700000Y-93630000D03*
X69290000Y-100910000D03*
X88200000Y-84820000D03*
X70020000Y-88890000D03*
X82010000Y-105920000D03*
D20*
X86910000Y-128480000D03*
X75390000Y-122690000D03*
D19*
X70010000Y-98240000D03*
X87450000Y-108010000D03*
X83180000Y-83020000D03*
X85550000Y-115400000D03*
X69290000Y-90780000D03*
X87450000Y-88110000D03*
X88200000Y-93980000D03*
X71960000Y-106590000D03*
X88210000Y-92310000D03*
X73720000Y-104500000D03*
D20*
X74740000Y-117880000D03*
D19*
X86650000Y-114220000D03*
X70220000Y-83000000D03*
X84200000Y-116210000D03*
X72250000Y-114930000D03*
X86630000Y-107340000D03*
X80910000Y-108080000D03*
X70550000Y-113780000D03*
D20*
X85050000Y-102800000D03*
D19*
X69300000Y-91640000D03*
X88220000Y-101850000D03*
D20*
X81460000Y-72220000D03*
D19*
X81620000Y-116200000D03*
X70680000Y-90620000D03*
X88240000Y-111360000D03*
X70020000Y-109960000D03*
D20*
X70550000Y-129850000D03*
D19*
X85370000Y-107410000D03*
X70060000Y-96550000D03*
X69300000Y-89540000D03*
X69280000Y-105320000D03*
X88190000Y-87350000D03*
X74200000Y-114210000D03*
X71400000Y-87520000D03*
X85050000Y-84900000D03*
D20*
X74046270Y-71760648D03*
D19*
X70880000Y-83770000D03*
D20*
X73959907Y-76765800D03*
D19*
X86960000Y-98990000D03*
X71940000Y-83000000D03*
D20*
X76280000Y-123450000D03*
D19*
X71030000Y-115380000D03*
X85360000Y-84170000D03*
X86750000Y-101670000D03*
X74500000Y-111450000D03*
X70040000Y-96120000D03*
D20*
X72480000Y-105430000D03*
D19*
X88220000Y-105130000D03*
X85090000Y-107790000D03*
X86200000Y-99650000D03*
X73880000Y-114930000D03*
D20*
X87780000Y-119700000D03*
D19*
X70700000Y-97450000D03*
X83390000Y-103790000D03*
X88220000Y-96070000D03*
D20*
X82400000Y-123000000D03*
X87441200Y-130379800D03*
X69410000Y-125140000D03*
D19*
X88210000Y-98540000D03*
X82340000Y-105630000D03*
X87490000Y-103810000D03*
D20*
X72890000Y-136740000D03*
D19*
X74040000Y-83000000D03*
D20*
X76000000Y-111410000D03*
D19*
X73170000Y-108870000D03*
X86920000Y-84310000D03*
X87470000Y-90910000D03*
X87450000Y-109690000D03*
X83660000Y-84160000D03*
X69280000Y-107320000D03*
X69280000Y-104520000D03*
X73360000Y-114210000D03*
X86950000Y-95260000D03*
X88200000Y-89350000D03*
X83860000Y-114220000D03*
X88210000Y-96490000D03*
X85460000Y-114950000D03*
D20*
X87460000Y-79220000D03*
D19*
X74100000Y-106590000D03*
D20*
X74890000Y-136740000D03*
D19*
X88220000Y-105950000D03*
X86200000Y-99250000D03*
D20*
X83190000Y-136790000D03*
D19*
X74030000Y-116940000D03*
X70020000Y-87160000D03*
X76200000Y-116240000D03*
D20*
X82770000Y-124560000D03*
D19*
X87460000Y-91390000D03*
X70670000Y-99550000D03*
X82990000Y-104950000D03*
X73780000Y-114210000D03*
X88230000Y-110110000D03*
X83780000Y-114940000D03*
D20*
X70960000Y-75720000D03*
X69960000Y-79720000D03*
X87960000Y-77720000D03*
D19*
X69450000Y-113760000D03*
D20*
X88070000Y-120920000D03*
D19*
X70700000Y-94050000D03*
X86960000Y-99820000D03*
D20*
X81941800Y-119624400D03*
D19*
X70470000Y-83830000D03*
X71420000Y-96560000D03*
X86600000Y-83990000D03*
D20*
X69890000Y-136740000D03*
D19*
X69280000Y-99370000D03*
D20*
X71001200Y-129039800D03*
D19*
X70690000Y-91460000D03*
X87450000Y-87310000D03*
X70000000Y-106600000D03*
D20*
X75150000Y-126570000D03*
D19*
X73580000Y-108100000D03*
X86190000Y-95090000D03*
X71410000Y-89120000D03*
X86930000Y-88570000D03*
X87450000Y-107600000D03*
X86330000Y-107660000D03*
X84310000Y-104490000D03*
D20*
X76460000Y-112220000D03*
D19*
X74000000Y-108870000D03*
D20*
X86190000Y-136790000D03*
D19*
X73570000Y-111410000D03*
X88220000Y-106350000D03*
X85890000Y-115060000D03*
X71660000Y-116000000D03*
X86940000Y-92270000D03*
X71420000Y-98650000D03*
X86190000Y-93850000D03*
X72620000Y-83750000D03*
X87480000Y-97280000D03*
X86180000Y-88000000D03*
D20*
X76460000Y-72220000D03*
X69460000Y-130720000D03*
D19*
X86200000Y-86320000D03*
D20*
X75241200Y-124359800D03*
D19*
X88150000Y-113940000D03*
X87480000Y-99330000D03*
D20*
X88130000Y-135310000D03*
D19*
X85380000Y-83020000D03*
D20*
X69460000Y-73220000D03*
D19*
X73840000Y-84170000D03*
X86190000Y-98030000D03*
D20*
X74460000Y-109720000D03*
D19*
X74840000Y-108870000D03*
D20*
X75601200Y-125759800D03*
D19*
X70680000Y-89790000D03*
D20*
X86460000Y-76220000D03*
X81190000Y-136790000D03*
D19*
X88220000Y-102250000D03*
X88190000Y-85750000D03*
X73530000Y-112120000D03*
X85400000Y-108560000D03*
X71500000Y-83000000D03*
X73590000Y-108870000D03*
D20*
X87960000Y-75720000D03*
D19*
X87430000Y-111780000D03*
X87490000Y-104610000D03*
X70000000Y-102450000D03*
X75820000Y-105370000D03*
X84070000Y-84170000D03*
X69300000Y-112520000D03*
X87490000Y-100210000D03*
X84020000Y-107340000D03*
X88200000Y-89750000D03*
D20*
X78960000Y-71720000D03*
X87160000Y-116520000D03*
D19*
X71420000Y-100780000D03*
X71420000Y-92860000D03*
X86940000Y-86820000D03*
X69290000Y-108120000D03*
X88220000Y-101450000D03*
X70030000Y-112650000D03*
X86940000Y-88970000D03*
X87490000Y-104210000D03*
X81150000Y-105690000D03*
X84120000Y-116970000D03*
X69280000Y-97650000D03*
X84500000Y-84170000D03*
X70150000Y-84150000D03*
D20*
X86960000Y-75720000D03*
D19*
X69290000Y-84000000D03*
D20*
X87460000Y-76220000D03*
D19*
X72810000Y-106590000D03*
X70030000Y-113080000D03*
D20*
X76460000Y-110220000D03*
D19*
X73050000Y-83750000D03*
X70270000Y-113490000D03*
X86190000Y-87180000D03*
X70660000Y-89350000D03*
X86940000Y-90170000D03*
X86180000Y-91680000D03*
X69290000Y-84880000D03*
D20*
X84460000Y-75220000D03*
X70728200Y-118005600D03*
X83500000Y-123500000D03*
D19*
X69290000Y-89080000D03*
X73220000Y-103770000D03*
X71740000Y-114210000D03*
X70670000Y-90210000D03*
X87480000Y-99740000D03*
X88220000Y-102650000D03*
X88060000Y-84360000D03*
X88230000Y-109280000D03*
X85860000Y-83010000D03*
X74900000Y-108100000D03*
D20*
X84190000Y-136790000D03*
D19*
X70050000Y-94860000D03*
X88210000Y-90150000D03*
X69290000Y-85700000D03*
D20*
X86460000Y-108720000D03*
D19*
X69290000Y-85290000D03*
X73660000Y-103770000D03*
X69300000Y-101890000D03*
X88220000Y-105540000D03*
X75660000Y-108870000D03*
X76080000Y-108870000D03*
X70000000Y-101610000D03*
D20*
X83960000Y-71720000D03*
D19*
X83340000Y-116210000D03*
X87460000Y-90510000D03*
D20*
X84960000Y-71720000D03*
X73460000Y-76220000D03*
D19*
X71410000Y-85900000D03*
X87470000Y-93940000D03*
X69280000Y-102870000D03*
X87480000Y-98930000D03*
X70000000Y-88010000D03*
%TO.N,Net-(R4-Pad1)*%
X85369000Y-132320000D03*
%TO.N,38*%
X79570000Y-74820000D03*
%TO.N,Net-(R1-Pad1)*%
X86340000Y-135300000D03*
%TO.N,Net-(R2-Pad1)*%
X85970000Y-132250000D03*
%TO.N,Net-(R3-Pad1)*%
X85680000Y-135300000D03*
%TO.N,18*%
X77580000Y-76110000D03*
%TO.N,17*%
X78370000Y-76120000D03*
%TO.N,16*%
X79170000Y-76130000D03*
%TO.N,26*%
X74292859Y-80740588D03*
%TO.N,23*%
X74340000Y-78360000D03*
%TO.N,49*%
X72970000Y-81950000D03*
%TO.N,27*%
X74290807Y-81540144D03*
%TO.N,44*%
X73000000Y-77960000D03*
%TO.N,21*%
X75170000Y-76120000D03*
%TO.N,30*%
X84560000Y-81150000D03*
%TO.N,28*%
X74300000Y-82350000D03*
%TO.N,48*%
X72970000Y-81150000D03*
X72200000Y-131560000D03*
%TO.N,42*%
X76370000Y-74820000D03*
%TO.N,47*%
X72960000Y-80340000D03*
%TO.N,19*%
X76780000Y-76120000D03*
%TO.N,22*%
X74340000Y-77560000D03*
%TO.N,20*%
X75980000Y-76120000D03*
%TO.N,43*%
X75570000Y-74820000D03*
X73691600Y-131542171D03*
X73690000Y-135110000D03*
%TO.N,45*%
X73090000Y-135100000D03*
X73091600Y-131530000D03*
X72980000Y-78760000D03*
%TO.N,15*%
X79970000Y-76120000D03*
%TO.N,25*%
X74319112Y-79941687D03*
%TO.N,14*%
X80780000Y-76120000D03*
%TO.N,46*%
X72970000Y-79550000D03*
%TO.N,13*%
X81570000Y-76120000D03*
%TO.N,29*%
X77905414Y-131504742D03*
X84560000Y-81950000D03*
X77900000Y-135140000D03*
%TO.N,24*%
X74340000Y-79150000D03*
%TO.N,41*%
X74290000Y-135100000D03*
X77160000Y-74820000D03*
X74291600Y-131510260D03*
%TO.N,5*%
X83170000Y-82360000D03*
%TO.N,6*%
X83170000Y-81550000D03*
%TO.N,7*%
X83170000Y-80760000D03*
%TO.N,8*%
X83150000Y-79960000D03*
%TO.N,9*%
X83150000Y-79170000D03*
%TO.N,10*%
X83160000Y-78360000D03*
%TO.N,11*%
X83160000Y-77550000D03*
%TO.N,12*%
X82370000Y-76120000D03*
%TD*%
D21*
%TO.N,Net-(C2-Pad2)*%
X86570000Y-85130000D02*
X86570000Y-100800000D01*
X86955000Y-106465000D02*
X86735000Y-106685000D01*
X80338856Y-108471036D02*
X84948964Y-108471036D01*
X85960000Y-84520000D02*
X86570000Y-85130000D01*
X87140000Y-106280000D02*
X86955000Y-106465000D01*
X87140000Y-101370000D02*
X87140000Y-106280000D01*
X84948964Y-108471036D02*
X86735000Y-106685000D01*
X86735000Y-106685000D02*
X86450000Y-106970000D01*
X82232500Y-106970000D02*
X86450000Y-106970000D01*
X82550000Y-84520000D02*
X85960000Y-84520000D01*
X86570000Y-100800000D02*
X87140000Y-101370000D01*
X86450000Y-106970000D02*
X86955000Y-106465000D01*
D22*
%TO.N,31*%
X77291600Y-131508896D02*
X77291600Y-135158400D01*
X77291600Y-135158400D02*
X77290000Y-135160000D01*
X84558000Y-80358000D02*
X84560000Y-80360000D01*
X83950900Y-80358000D02*
X84558000Y-80358000D01*
%TO.N,32*%
X83946300Y-79550000D02*
X84560000Y-79550000D01*
%TO.N,33*%
X76691600Y-135148400D02*
X76690000Y-135150000D01*
X83950900Y-78760000D02*
X84560000Y-78760000D01*
X76691600Y-131492614D02*
X76691600Y-135148400D01*
%TO.N,34*%
X83935700Y-77970000D02*
X84560000Y-77970000D01*
%TO.N,35*%
X76091600Y-131490000D02*
X76091600Y-135158400D01*
X81970000Y-75440000D02*
X81970000Y-74820000D01*
X76091600Y-135158400D02*
X76090000Y-135160000D01*
%TO.N,36*%
X81170000Y-75440000D02*
X81170000Y-74820000D01*
%TO.N,37*%
X75491600Y-135118400D02*
X75490000Y-135120000D01*
X80380000Y-75440000D02*
X80380000Y-74830000D01*
X75491600Y-131500000D02*
X75491600Y-135118400D01*
%TO.N,39*%
X74891600Y-135128400D02*
X74890000Y-135130000D01*
X78770000Y-75440000D02*
X78770000Y-74820000D01*
X74891600Y-131516715D02*
X74891600Y-135128400D01*
%TO.N,40*%
X77960000Y-75440000D02*
X78024000Y-75376000D01*
X77960000Y-75440000D02*
X77960000Y-74820000D01*
D21*
%TO.N,Net-(C1-Pad1)*%
X81273970Y-113576030D02*
X81273970Y-114581904D01*
X83090000Y-111760000D02*
X81273970Y-113576030D01*
X85090000Y-111760000D02*
X83090000Y-111760000D01*
%TO.N,Net-(C2-Pad1)*%
X81282500Y-106970000D02*
X81280000Y-106967500D01*
X81280000Y-106967500D02*
X81280000Y-106100000D01*
X83240000Y-104140000D02*
X85090000Y-104140000D01*
D23*
X85090000Y-104140000D02*
X85145305Y-104084695D01*
D21*
X81280000Y-106100000D02*
X83240000Y-104140000D01*
D22*
%TO.N,Net-(R4-Pad1)*%
X77210000Y-123080000D02*
X85400000Y-131270000D01*
X85400000Y-131270000D02*
X85400000Y-132289000D01*
X77210000Y-117540000D02*
X77210000Y-123080000D01*
X85400000Y-132289000D02*
X85369000Y-132320000D01*
%TO.N,38*%
X79570000Y-75440000D02*
X79570000Y-74820000D01*
D21*
%TO.N,Net-(C3-Pad2)*%
X71050000Y-84940000D02*
X71050000Y-100730000D01*
X74940000Y-84520000D02*
X71470000Y-84520000D01*
X70470000Y-106970000D02*
X71969998Y-108469998D01*
X71969998Y-108469998D02*
X77189997Y-108469998D01*
X71050000Y-100730000D02*
X70360000Y-101420000D01*
X71470000Y-84520000D02*
X71050000Y-84940000D01*
X70360000Y-106860000D02*
X70470000Y-106970000D01*
X75150000Y-106970000D02*
X70470000Y-106970000D01*
X70360000Y-101420000D02*
X70360000Y-106860000D01*
D22*
%TO.N,Net-(R1-Pad1)*%
X80481904Y-123818096D02*
X80481904Y-125311904D01*
X86340000Y-134960000D02*
X86340000Y-135300000D01*
X80481904Y-117535433D02*
X80481904Y-123818096D01*
X86340000Y-131170000D02*
X86340000Y-134960000D01*
X80481904Y-125311904D02*
X86340000Y-131170000D01*
D21*
%TO.N,Net-(C4-Pad2)*%
X69650000Y-113400000D02*
X69650000Y-84070000D01*
X72840000Y-116590000D02*
X70190000Y-113940000D01*
X77209999Y-116590000D02*
X72840000Y-116590000D01*
X70830001Y-114580001D02*
X70190000Y-113940000D01*
X70320000Y-83400000D02*
X74940000Y-83400000D01*
X75320000Y-114580001D02*
X70830001Y-114580001D01*
X69650000Y-84070000D02*
X70320000Y-83400000D01*
X70190000Y-113940000D02*
X69650000Y-113400000D01*
D22*
%TO.N,Net-(R2-Pad1)*%
X79200000Y-110559897D02*
X79200000Y-124030000D01*
X85970000Y-131230000D02*
X85970000Y-132250000D01*
X79200000Y-124030000D02*
X79200000Y-124460000D01*
X79200000Y-124460000D02*
X85970000Y-131230000D01*
X80338859Y-109421038D02*
X79200000Y-110559897D01*
%TO.N,Net-(R3-Pad1)*%
X85669000Y-131239000D02*
X85669000Y-135221000D01*
X78330000Y-123900000D02*
X85669000Y-131239000D01*
X85680000Y-135232000D02*
X85680000Y-135300000D01*
X85669000Y-135221000D02*
X85680000Y-135232000D01*
X77190000Y-109420000D02*
X78330000Y-110560000D01*
X78330000Y-110560000D02*
X78330000Y-123900000D01*
D21*
%TO.N,Net-(C3-Pad1)*%
X76100000Y-106160000D02*
X74080000Y-104140000D01*
X76100000Y-106970000D02*
X76100000Y-106160000D01*
X74080000Y-104140000D02*
X72390000Y-104140000D01*
%TO.N,Net-(C1-Pad2)*%
X86948097Y-114581903D02*
X86950000Y-114580000D01*
X84944567Y-116585433D02*
X80481903Y-116585433D01*
X86950000Y-114580000D02*
X84944567Y-116585433D01*
X87841500Y-84701500D02*
X87841500Y-113688500D01*
X82540000Y-83410000D02*
X86550000Y-83410000D01*
X86550000Y-83410000D02*
X87841500Y-84701500D01*
X82223970Y-114581903D02*
X86948097Y-114581903D01*
X87841500Y-113688500D02*
X86950000Y-114580000D01*
%TO.N,Net-(C4-Pad1)*%
X74330000Y-111760000D02*
X72390000Y-111760000D01*
X76270000Y-113700000D02*
X74330000Y-111760000D01*
X76270000Y-114580000D02*
X76270000Y-113700000D01*
D22*
%TO.N,18*%
X77580000Y-76700000D02*
X77580000Y-76110000D01*
%TO.N,17*%
X78370000Y-76700000D02*
X78370000Y-76120000D01*
%TO.N,16*%
X79180000Y-76140000D02*
X79170000Y-76130000D01*
X79180000Y-76700000D02*
X79180000Y-76140000D01*
%TO.N,26*%
X74930000Y-80750000D02*
X74302271Y-80750000D01*
X74302271Y-80750000D02*
X74292859Y-80740588D01*
%TO.N,23*%
X74900000Y-78360000D02*
X74340000Y-78360000D01*
%TO.N,49*%
X73580000Y-81950000D02*
X72970000Y-81950000D01*
%TO.N,27*%
X74930000Y-81550000D02*
X74300663Y-81550000D01*
X74300663Y-81550000D02*
X74290807Y-81540144D01*
%TO.N,44*%
X73570000Y-77960000D02*
X73000000Y-77960000D01*
%TO.N,21*%
X75170000Y-76700000D02*
X75170000Y-76120000D01*
%TO.N,30*%
X83950900Y-81150000D02*
X84560000Y-81150000D01*
%TO.N,28*%
X74930000Y-82350000D02*
X74300000Y-82350000D01*
%TO.N,48*%
X73590000Y-81150000D02*
X72970000Y-81150000D01*
%TO.N,42*%
X76370000Y-75440000D02*
X76370000Y-74820000D01*
%TO.N,47*%
X72980000Y-80360000D02*
X72960000Y-80340000D01*
X73590000Y-80360000D02*
X72980000Y-80360000D01*
%TO.N,19*%
X76780000Y-76700000D02*
X76780000Y-76120000D01*
%TO.N,22*%
X74900000Y-77560000D02*
X74340000Y-77560000D01*
%TO.N,20*%
X75980000Y-76700000D02*
X75980000Y-76120000D01*
%TO.N,43*%
X73691600Y-131542171D02*
X73690000Y-131543771D01*
X73691600Y-131542171D02*
X73730000Y-131580571D01*
X73690000Y-131543771D02*
X73690000Y-135110000D01*
X75570000Y-75440000D02*
X75570000Y-74820000D01*
%TO.N,45*%
X73091600Y-135098400D02*
X73090000Y-135100000D01*
X73091600Y-131530000D02*
X73091600Y-135098400D01*
X73590000Y-78760000D02*
X72980000Y-78760000D01*
%TO.N,15*%
X79968400Y-76121600D02*
X79970000Y-76120000D01*
X79968400Y-76690000D02*
X79968400Y-76121600D01*
%TO.N,25*%
X74327425Y-79950000D02*
X74319112Y-79941687D01*
X74922300Y-79950000D02*
X74327425Y-79950000D01*
%TO.N,14*%
X80780000Y-76700000D02*
X80780000Y-76120000D01*
%TO.N,46*%
X73590000Y-79550000D02*
X72970000Y-79550000D01*
%TO.N,13*%
X81570000Y-76700000D02*
X81570000Y-76120000D01*
%TO.N,29*%
X77905414Y-131504742D02*
X77905414Y-135134586D01*
X83950900Y-81950000D02*
X84560000Y-81950000D01*
X77905414Y-135134586D02*
X77900000Y-135140000D01*
%TO.N,24*%
X74910000Y-79150000D02*
X74340000Y-79150000D01*
%TO.N,41*%
X74291600Y-131510260D02*
X74291600Y-135098400D01*
X77160000Y-75440000D02*
X77160000Y-74820000D01*
X74290000Y-135100000D02*
X74291600Y-135101600D01*
X74291600Y-135098400D02*
X74290000Y-135100000D01*
%TO.N,5*%
X82539700Y-82360000D02*
X83170000Y-82360000D01*
%TO.N,6*%
X82550900Y-81550000D02*
X83170000Y-81550000D01*
%TO.N,7*%
X82550900Y-80760000D02*
X83170000Y-80760000D01*
%TO.N,8*%
X82550900Y-79960000D02*
X83150000Y-79960000D01*
%TO.N,9*%
X83147200Y-79167200D02*
X83150000Y-79170000D01*
X82547800Y-79167200D02*
X83147200Y-79167200D01*
%TO.N,10*%
X82570000Y-78360000D02*
X83160000Y-78360000D01*
%TO.N,11*%
X82590000Y-77550000D02*
X83160000Y-77550000D01*
%TO.N,12*%
X82368370Y-76700000D02*
X82368370Y-76121630D01*
X82368370Y-76121630D02*
X82370000Y-76120000D01*
%TD*%
%TA.AperFunction,Conductor*%
%TO.N,GND*%
G36*
X85624204Y-71008139D02*
G01*
X85631093Y-71008333D01*
X85941116Y-71025747D01*
X85954920Y-71027303D01*
X86257598Y-71078733D01*
X86271149Y-71081827D01*
X86566147Y-71166818D01*
X86579264Y-71171407D01*
X86813364Y-71268377D01*
X86862911Y-71288901D01*
X86875440Y-71294935D01*
X87142933Y-71442777D01*
X87144126Y-71443436D01*
X87155900Y-71450834D01*
X87406281Y-71628493D01*
X87417146Y-71637158D01*
X87567380Y-71771416D01*
X87646062Y-71841731D01*
X87655894Y-71851564D01*
X87860459Y-72080475D01*
X87869127Y-72091344D01*
X87984613Y-72254108D01*
X88046784Y-72341730D01*
X88054182Y-72353504D01*
X88202684Y-72622201D01*
X88208717Y-72634730D01*
X88326200Y-72918361D01*
X88330793Y-72931486D01*
X88415781Y-73226490D01*
X88418875Y-73240046D01*
X88470300Y-73542710D01*
X88471857Y-73556528D01*
X88489267Y-73866552D01*
X88489462Y-73873452D01*
X88516312Y-136713011D01*
X88515532Y-136726948D01*
X88503931Y-136829909D01*
X88497752Y-136856980D01*
X88465836Y-136948189D01*
X88453789Y-136973205D01*
X88402378Y-137055026D01*
X88385065Y-137076736D01*
X88316736Y-137145065D01*
X88295026Y-137162378D01*
X88213205Y-137213789D01*
X88188189Y-137225836D01*
X88096980Y-137257752D01*
X88069912Y-137263930D01*
X87976423Y-137274463D01*
X87967038Y-137275521D01*
X87952926Y-137276300D01*
X69796128Y-137242565D01*
X69795714Y-137242499D01*
X69776408Y-137242499D01*
X69766099Y-137242499D01*
X69753945Y-137241902D01*
X69631202Y-137229813D01*
X69607361Y-137225071D01*
X69495196Y-137191046D01*
X69472738Y-137181743D01*
X69369372Y-137126493D01*
X69349160Y-137112988D01*
X69258556Y-137038631D01*
X69241368Y-137021443D01*
X69181250Y-136948189D01*
X69167010Y-136930837D01*
X69153506Y-136910627D01*
X69098256Y-136807261D01*
X69088953Y-136784803D01*
X69075637Y-136740906D01*
X69054926Y-136672632D01*
X69050187Y-136648804D01*
X69038098Y-136526061D01*
X69037501Y-136513907D01*
X69037501Y-136479155D01*
X69037499Y-136479039D01*
X69037499Y-135050172D01*
X72839500Y-135050172D01*
X72839500Y-135068368D01*
X72839500Y-135149829D01*
X72877636Y-135241897D01*
X72948103Y-135312364D01*
X73040172Y-135350500D01*
X73040174Y-135350500D01*
X73139826Y-135350500D01*
X73139828Y-135350500D01*
X73231897Y-135312364D01*
X73297319Y-135246942D01*
X73358642Y-135213457D01*
X73428334Y-135218441D01*
X73472681Y-135246942D01*
X73477636Y-135251897D01*
X73548103Y-135322364D01*
X73640172Y-135360500D01*
X73640174Y-135360500D01*
X73739826Y-135360500D01*
X73739828Y-135360500D01*
X73831897Y-135322364D01*
X73902364Y-135251897D01*
X73902364Y-135251896D01*
X73907319Y-135246942D01*
X73968642Y-135213457D01*
X74038334Y-135218441D01*
X74082681Y-135246942D01*
X74148103Y-135312364D01*
X74240172Y-135350500D01*
X74240174Y-135350500D01*
X74339826Y-135350500D01*
X74339828Y-135350500D01*
X74431897Y-135312364D01*
X74488578Y-135255682D01*
X74549897Y-135222200D01*
X74619589Y-135227184D01*
X74668478Y-135263782D01*
X74669000Y-135263261D01*
X74672623Y-135266884D01*
X74675523Y-135269055D01*
X74677287Y-135271548D01*
X74677636Y-135271897D01*
X74748103Y-135342364D01*
X74840172Y-135380500D01*
X74840174Y-135380500D01*
X74939826Y-135380500D01*
X74939828Y-135380500D01*
X75031897Y-135342364D01*
X75102364Y-135271897D01*
X75102364Y-135271896D01*
X75107319Y-135266942D01*
X75168642Y-135233457D01*
X75238334Y-135238441D01*
X75282681Y-135266942D01*
X75348103Y-135332364D01*
X75440172Y-135370500D01*
X75440174Y-135370500D01*
X75539826Y-135370500D01*
X75539828Y-135370500D01*
X75631897Y-135332364D01*
X75684573Y-135279687D01*
X75745892Y-135246205D01*
X75815584Y-135251189D01*
X75871518Y-135293060D01*
X75875353Y-135298480D01*
X75877636Y-135301897D01*
X75948103Y-135372364D01*
X76040172Y-135410500D01*
X76040174Y-135410500D01*
X76139826Y-135410500D01*
X76139828Y-135410500D01*
X76231897Y-135372364D01*
X76302364Y-135301897D01*
X76302364Y-135301896D01*
X76307319Y-135296942D01*
X76368642Y-135263457D01*
X76438334Y-135268441D01*
X76482681Y-135296942D01*
X76548103Y-135362364D01*
X76640172Y-135400500D01*
X76640174Y-135400500D01*
X76739826Y-135400500D01*
X76739828Y-135400500D01*
X76831897Y-135362364D01*
X76897319Y-135296942D01*
X76958642Y-135263457D01*
X77028334Y-135268441D01*
X77072681Y-135296942D01*
X77077636Y-135301897D01*
X77148103Y-135372364D01*
X77240172Y-135410500D01*
X77240174Y-135410500D01*
X77339826Y-135410500D01*
X77339828Y-135410500D01*
X77431897Y-135372364D01*
X77502364Y-135301897D01*
X77502364Y-135301896D01*
X77511000Y-135293261D01*
X77512392Y-135294653D01*
X77554252Y-135259671D01*
X77623577Y-135250962D01*
X77686604Y-135281116D01*
X77691424Y-135285685D01*
X77758103Y-135352364D01*
X77850172Y-135390500D01*
X77850174Y-135390500D01*
X77949826Y-135390500D01*
X77949828Y-135390500D01*
X78041897Y-135352364D01*
X78112364Y-135281897D01*
X78150500Y-135189828D01*
X78150500Y-135090172D01*
X78112364Y-134998103D01*
X78092233Y-134977972D01*
X78058748Y-134916649D01*
X78055914Y-134890291D01*
X78055914Y-131759865D01*
X78075599Y-131692826D01*
X78092233Y-131672184D01*
X78104361Y-131660056D01*
X78117778Y-131646639D01*
X78155914Y-131554570D01*
X78155914Y-131454914D01*
X78117778Y-131362845D01*
X78047311Y-131292378D01*
X78018034Y-131280251D01*
X77955243Y-131254242D01*
X77955242Y-131254242D01*
X77855586Y-131254242D01*
X77855584Y-131254242D01*
X77763516Y-131292378D01*
X77763515Y-131292379D01*
X77684414Y-131371481D01*
X77681292Y-131368359D01*
X77645882Y-131397901D01*
X77576550Y-131406549D01*
X77513548Y-131376340D01*
X77508809Y-131371844D01*
X77433497Y-131296532D01*
X77341429Y-131258396D01*
X77341428Y-131258396D01*
X77241772Y-131258396D01*
X77241770Y-131258396D01*
X77149702Y-131296532D01*
X77149701Y-131296533D01*
X77087422Y-131358813D01*
X77026099Y-131392298D01*
X76956407Y-131387314D01*
X76912060Y-131358813D01*
X76833497Y-131280250D01*
X76741429Y-131242114D01*
X76741428Y-131242114D01*
X76641772Y-131242114D01*
X76641770Y-131242114D01*
X76549702Y-131280250D01*
X76549701Y-131280251D01*
X76480588Y-131349365D01*
X76419265Y-131382850D01*
X76349573Y-131377866D01*
X76305226Y-131349365D01*
X76233497Y-131277636D01*
X76141429Y-131239500D01*
X76141428Y-131239500D01*
X76041772Y-131239500D01*
X76041770Y-131239500D01*
X75949702Y-131277636D01*
X75949701Y-131277637D01*
X75874281Y-131353058D01*
X75812958Y-131386543D01*
X75743266Y-131381559D01*
X75698919Y-131353058D01*
X75633497Y-131287636D01*
X75541429Y-131249500D01*
X75541428Y-131249500D01*
X75441772Y-131249500D01*
X75441770Y-131249500D01*
X75349703Y-131287636D01*
X75270923Y-131366416D01*
X75209599Y-131399900D01*
X75139908Y-131394916D01*
X75095561Y-131366415D01*
X75033497Y-131304351D01*
X74941429Y-131266215D01*
X74941428Y-131266215D01*
X74841772Y-131266215D01*
X74841770Y-131266215D01*
X74749703Y-131304351D01*
X74682508Y-131371546D01*
X74621184Y-131405030D01*
X74551493Y-131400045D01*
X74507146Y-131371545D01*
X74433497Y-131297896D01*
X74341429Y-131259760D01*
X74341428Y-131259760D01*
X74241772Y-131259760D01*
X74241770Y-131259760D01*
X74149702Y-131297896D01*
X74149701Y-131297897D01*
X74070600Y-131376999D01*
X74069483Y-131375882D01*
X74026574Y-131411738D01*
X73957248Y-131420441D01*
X73894223Y-131390282D01*
X73889410Y-131385720D01*
X73833497Y-131329807D01*
X73741429Y-131291671D01*
X73741428Y-131291671D01*
X73641772Y-131291671D01*
X73641770Y-131291671D01*
X73549703Y-131329807D01*
X73485366Y-131394144D01*
X73424042Y-131427628D01*
X73354351Y-131422643D01*
X73310004Y-131394143D01*
X73233497Y-131317636D01*
X73141429Y-131279500D01*
X73141428Y-131279500D01*
X73041772Y-131279500D01*
X73041770Y-131279500D01*
X72949702Y-131317636D01*
X72879236Y-131388102D01*
X72841100Y-131480170D01*
X72841100Y-131579829D01*
X72879236Y-131671897D01*
X72904781Y-131697442D01*
X72938266Y-131758765D01*
X72941100Y-131785123D01*
X72941100Y-134843277D01*
X72937630Y-134855091D01*
X72938740Y-134867352D01*
X72927030Y-134900647D01*
X72918230Y-134917508D01*
X72877636Y-134958103D01*
X72839500Y-135050172D01*
X69037499Y-135050172D01*
X69037498Y-131510170D01*
X71949500Y-131510170D01*
X71949500Y-131609829D01*
X71986164Y-131698344D01*
X71987636Y-131701897D01*
X72058103Y-131772364D01*
X72150172Y-131810500D01*
X72150174Y-131810500D01*
X72249826Y-131810500D01*
X72249828Y-131810500D01*
X72341897Y-131772364D01*
X72412364Y-131701897D01*
X72450500Y-131609828D01*
X72450500Y-131510172D01*
X72412364Y-131418103D01*
X72341897Y-131347636D01*
X72298854Y-131329807D01*
X72249829Y-131309500D01*
X72249828Y-131309500D01*
X72150172Y-131309500D01*
X72150170Y-131309500D01*
X72058102Y-131347636D01*
X71987636Y-131418102D01*
X71949500Y-131510170D01*
X69037498Y-131510170D01*
X69037490Y-84030615D01*
X69452000Y-84030615D01*
X69452000Y-113360616D01*
X69452000Y-113439384D01*
X69482143Y-113512158D01*
X69751999Y-113782014D01*
X70015072Y-114045086D01*
X70015075Y-114045090D01*
X70022143Y-114052158D01*
X72727842Y-116757857D01*
X72727847Y-116757859D01*
X72779294Y-116779169D01*
X72779300Y-116779171D01*
X72789587Y-116783432D01*
X72800612Y-116787999D01*
X72800613Y-116787999D01*
X72800615Y-116788000D01*
X72800616Y-116788000D01*
X72879384Y-116788000D01*
X76716004Y-116788000D01*
X76783043Y-116807685D01*
X76815370Y-116837822D01*
X76835260Y-116864466D01*
X76835260Y-116875934D01*
X76841090Y-116905249D01*
X76863302Y-116938493D01*
X76896546Y-116960705D01*
X76908944Y-116963171D01*
X76930360Y-116991859D01*
X76935402Y-117005432D01*
X76944688Y-117016543D01*
X76947324Y-117037528D01*
X76954690Y-117057356D01*
X76951593Y-117071501D01*
X76953398Y-117085867D01*
X76944270Y-117104946D01*
X76939747Y-117125609D01*
X76929494Y-117135833D01*
X76923246Y-117148896D01*
X76899884Y-117169140D01*
X76863304Y-117193580D01*
X76841094Y-117226823D01*
X76841091Y-117226829D01*
X76835262Y-117256136D01*
X76835262Y-117825932D01*
X76835263Y-117825940D01*
X76841092Y-117855250D01*
X76863304Y-117888495D01*
X76879981Y-117899637D01*
X76896549Y-117910707D01*
X76896552Y-117910707D01*
X76896553Y-117910708D01*
X76925858Y-117916537D01*
X76925863Y-117916538D01*
X76935495Y-117916537D01*
X77002533Y-117936217D01*
X77048291Y-117989018D01*
X77059500Y-118040537D01*
X77059500Y-123109936D01*
X77059500Y-123109938D01*
X77059501Y-123109939D01*
X77068990Y-123132848D01*
X77082411Y-123165251D01*
X85213181Y-131296020D01*
X85246666Y-131357343D01*
X85249500Y-131383701D01*
X85249500Y-132033877D01*
X85229815Y-132100916D01*
X85213181Y-132121558D01*
X85156637Y-132178101D01*
X85156636Y-132178102D01*
X85118500Y-132270170D01*
X85118500Y-132270172D01*
X85118500Y-132369828D01*
X85156636Y-132461897D01*
X85227103Y-132532364D01*
X85319172Y-132570500D01*
X85319174Y-132570500D01*
X85394500Y-132570500D01*
X85461539Y-132590185D01*
X85507294Y-132642989D01*
X85518500Y-132694500D01*
X85518500Y-135055877D01*
X85498815Y-135122916D01*
X85482181Y-135143558D01*
X85467637Y-135158101D01*
X85467636Y-135158102D01*
X85429500Y-135250170D01*
X85429500Y-135349829D01*
X85454631Y-135410500D01*
X85467636Y-135441897D01*
X85538103Y-135512364D01*
X85630172Y-135550500D01*
X85630174Y-135550500D01*
X85729826Y-135550500D01*
X85729828Y-135550500D01*
X85821897Y-135512364D01*
X85892364Y-135441897D01*
X85895439Y-135434472D01*
X85939279Y-135380069D01*
X86005574Y-135358004D01*
X86073273Y-135375283D01*
X86120884Y-135426420D01*
X86124559Y-135434470D01*
X86127636Y-135441897D01*
X86198103Y-135512364D01*
X86290172Y-135550500D01*
X86290174Y-135550500D01*
X86389826Y-135550500D01*
X86389828Y-135550500D01*
X86481897Y-135512364D01*
X86552364Y-135441897D01*
X86590500Y-135349828D01*
X86590500Y-135250172D01*
X86552364Y-135158103D01*
X86526819Y-135132558D01*
X86493334Y-135071235D01*
X86490500Y-135044877D01*
X86490500Y-131140065D01*
X86490500Y-131140064D01*
X86474904Y-131102413D01*
X86467588Y-131084749D01*
X86467585Y-131084745D01*
X80668723Y-125285883D01*
X80635238Y-125224560D01*
X80632404Y-125198202D01*
X80632404Y-118030537D01*
X80652089Y-117963498D01*
X80704893Y-117917743D01*
X80756404Y-117906537D01*
X80765657Y-117906537D01*
X80765660Y-117906537D01*
X80794975Y-117900707D01*
X80828219Y-117878495D01*
X80850431Y-117845251D01*
X80856262Y-117815937D01*
X80856261Y-117246140D01*
X80850431Y-117216825D01*
X80828219Y-117183581D01*
X80794975Y-117161369D01*
X80794973Y-117161368D01*
X80791639Y-117159141D01*
X80746832Y-117105530D01*
X80738122Y-117036205D01*
X80762112Y-116980599D01*
X80783237Y-116953038D01*
X80794972Y-116950705D01*
X80828216Y-116928493D01*
X80850428Y-116895249D01*
X80856259Y-116865935D01*
X80856259Y-116857775D01*
X80876020Y-116831996D01*
X80881853Y-116827732D01*
X80885202Y-116821330D01*
X80909684Y-116807388D01*
X80932427Y-116790765D01*
X80939638Y-116790331D01*
X80945918Y-116786756D01*
X80974434Y-116783433D01*
X84983950Y-116783433D01*
X84983951Y-116783433D01*
X84983952Y-116783433D01*
X85005262Y-116774605D01*
X85005266Y-116774605D01*
X85005266Y-116774604D01*
X85056725Y-116753290D01*
X87042813Y-114767199D01*
X87042816Y-114767198D01*
X87062159Y-114747856D01*
X88009356Y-113800658D01*
X88039500Y-113727885D01*
X88039500Y-113649116D01*
X88039500Y-84662115D01*
X88039499Y-84662112D01*
X88027091Y-84632156D01*
X88016702Y-84607076D01*
X88009357Y-84589342D01*
X88009356Y-84589341D01*
X88009356Y-84589340D01*
X86662159Y-83242144D01*
X86662158Y-83242143D01*
X86610699Y-83220828D01*
X86610696Y-83220826D01*
X86596918Y-83215120D01*
X86589385Y-83212000D01*
X86589384Y-83212000D01*
X82953709Y-83212000D01*
X82886670Y-83192315D01*
X82850609Y-83156893D01*
X82827577Y-83122423D01*
X82802600Y-83105734D01*
X82752987Y-83072583D01*
X82731061Y-83068222D01*
X82687211Y-83059500D01*
X82687209Y-83059500D01*
X82392791Y-83059500D01*
X82327013Y-83072583D01*
X82327011Y-83072584D01*
X82252423Y-83122423D01*
X82202583Y-83197012D01*
X82189500Y-83262790D01*
X82189500Y-83557208D01*
X82202583Y-83622986D01*
X82202584Y-83622988D01*
X82210155Y-83634319D01*
X82252423Y-83697577D01*
X82308238Y-83734871D01*
X82327012Y-83747416D01*
X82327014Y-83747417D01*
X82392789Y-83760500D01*
X82687210Y-83760499D01*
X82752986Y-83747417D01*
X82827577Y-83697577D01*
X82850608Y-83663107D01*
X82904218Y-83618305D01*
X82953709Y-83608000D01*
X86416623Y-83608000D01*
X86483662Y-83627685D01*
X86504304Y-83644319D01*
X87607181Y-84747196D01*
X87640666Y-84808519D01*
X87643500Y-84834877D01*
X87643500Y-113555123D01*
X87623815Y-113622162D01*
X87607181Y-113642804D01*
X86902401Y-114347584D01*
X86841078Y-114381069D01*
X86814720Y-114383903D01*
X82718519Y-114383903D01*
X82651480Y-114364218D01*
X82605725Y-114311414D01*
X82596901Y-114284090D01*
X82593639Y-114267690D01*
X82571427Y-114234445D01*
X82538184Y-114212235D01*
X82538185Y-114212235D01*
X82538183Y-114212234D01*
X82538181Y-114212233D01*
X82538178Y-114212232D01*
X82508871Y-114206403D01*
X81939075Y-114206403D01*
X81939067Y-114206404D01*
X81909757Y-114212233D01*
X81876513Y-114234445D01*
X81852072Y-114271025D01*
X81798460Y-114315830D01*
X81729135Y-114324539D01*
X81674556Y-114301325D01*
X81646079Y-114279961D01*
X81643639Y-114267691D01*
X81621427Y-114234447D01*
X81588183Y-114212235D01*
X81558869Y-114206404D01*
X81548030Y-114206404D01*
X81521557Y-114186544D01*
X81516844Y-114180235D01*
X81509866Y-114176585D01*
X81496231Y-114152639D01*
X81479743Y-114130567D01*
X81479189Y-114122711D01*
X81475293Y-114115869D01*
X81471970Y-114087354D01*
X81471970Y-113709406D01*
X81491655Y-113642367D01*
X81508289Y-113621725D01*
X82026606Y-113103408D01*
X83074699Y-113103408D01*
X83103340Y-113247390D01*
X83103342Y-113247396D01*
X83159522Y-113383028D01*
X83159526Y-113383035D01*
X83211861Y-113461360D01*
X83211862Y-113461361D01*
X83485681Y-113187541D01*
X83525287Y-113256141D01*
X83593859Y-113324713D01*
X83662457Y-113364318D01*
X83388638Y-113638137D01*
X83388638Y-113638138D01*
X83466971Y-113690478D01*
X83602599Y-113746656D01*
X83602609Y-113746659D01*
X83746591Y-113775300D01*
X83893408Y-113775300D01*
X84037390Y-113746659D01*
X84037400Y-113746656D01*
X84173025Y-113690479D01*
X84173032Y-113690475D01*
X84251360Y-113638137D01*
X83977542Y-113364318D01*
X84046141Y-113324713D01*
X84114713Y-113256141D01*
X84154318Y-113187542D01*
X84428137Y-113461360D01*
X84480475Y-113383032D01*
X84480479Y-113383025D01*
X84536656Y-113247400D01*
X84536659Y-113247390D01*
X84565300Y-113103408D01*
X85614699Y-113103408D01*
X85643340Y-113247390D01*
X85643342Y-113247396D01*
X85699522Y-113383028D01*
X85699526Y-113383035D01*
X85751861Y-113461360D01*
X85751862Y-113461361D01*
X86025681Y-113187541D01*
X86065287Y-113256141D01*
X86133859Y-113324713D01*
X86202457Y-113364318D01*
X85928638Y-113638137D01*
X85928638Y-113638138D01*
X86006971Y-113690478D01*
X86142599Y-113746656D01*
X86142609Y-113746659D01*
X86286591Y-113775300D01*
X86433408Y-113775300D01*
X86577390Y-113746659D01*
X86577400Y-113746656D01*
X86713025Y-113690479D01*
X86713032Y-113690475D01*
X86791360Y-113638137D01*
X86517542Y-113364318D01*
X86586141Y-113324713D01*
X86654713Y-113256141D01*
X86694318Y-113187542D01*
X86968137Y-113461360D01*
X87020475Y-113383032D01*
X87020479Y-113383025D01*
X87076656Y-113247400D01*
X87076659Y-113247390D01*
X87105300Y-113103408D01*
X87105300Y-112956591D01*
X87076659Y-112812609D01*
X87076656Y-112812599D01*
X87020478Y-112676971D01*
X86968137Y-112598638D01*
X86694318Y-112872457D01*
X86654713Y-112803859D01*
X86586141Y-112735287D01*
X86517542Y-112695681D01*
X86791361Y-112421862D01*
X86791360Y-112421861D01*
X86713035Y-112369526D01*
X86713028Y-112369522D01*
X86577396Y-112313342D01*
X86577390Y-112313340D01*
X86433408Y-112284700D01*
X86286592Y-112284700D01*
X86142609Y-112313340D01*
X86142603Y-112313342D01*
X86006971Y-112369522D01*
X86006959Y-112369529D01*
X85928638Y-112421860D01*
X85928637Y-112421861D01*
X86202457Y-112695681D01*
X86133859Y-112735287D01*
X86065287Y-112803859D01*
X86025681Y-112872457D01*
X85751861Y-112598637D01*
X85751860Y-112598638D01*
X85699529Y-112676959D01*
X85699522Y-112676971D01*
X85643342Y-112812603D01*
X85643340Y-112812609D01*
X85614700Y-112956591D01*
X85614700Y-113103408D01*
X85614699Y-113103408D01*
X84565300Y-113103408D01*
X84565300Y-112956591D01*
X84536659Y-112812609D01*
X84536656Y-112812599D01*
X84480478Y-112676971D01*
X84428137Y-112598638D01*
X84154318Y-112872456D01*
X84114713Y-112803859D01*
X84046141Y-112735287D01*
X83977542Y-112695681D01*
X84251361Y-112421862D01*
X84251360Y-112421861D01*
X84173035Y-112369526D01*
X84173028Y-112369522D01*
X84037396Y-112313342D01*
X84037390Y-112313340D01*
X83893408Y-112284700D01*
X83746592Y-112284700D01*
X83602609Y-112313340D01*
X83602603Y-112313342D01*
X83466971Y-112369522D01*
X83466959Y-112369529D01*
X83388638Y-112421860D01*
X83388637Y-112421861D01*
X83662457Y-112695681D01*
X83593859Y-112735287D01*
X83525287Y-112803859D01*
X83485681Y-112872457D01*
X83211861Y-112598637D01*
X83211860Y-112598638D01*
X83159529Y-112676959D01*
X83159522Y-112676971D01*
X83103342Y-112812603D01*
X83103340Y-112812609D01*
X83074700Y-112956591D01*
X83074700Y-113103408D01*
X83074699Y-113103408D01*
X82026606Y-113103408D01*
X83135695Y-111994319D01*
X83197018Y-111960834D01*
X83223376Y-111958000D01*
X84444754Y-111958000D01*
X84511793Y-111977685D01*
X84552140Y-112019998D01*
X84591634Y-112088406D01*
X84613239Y-112125828D01*
X84613241Y-112125830D01*
X84724170Y-112236759D01*
X84860030Y-112315197D01*
X85011561Y-112355800D01*
X85011564Y-112355800D01*
X85168436Y-112355800D01*
X85168439Y-112355800D01*
X85319970Y-112315197D01*
X85455830Y-112236759D01*
X85566759Y-112125830D01*
X85645197Y-111989970D01*
X85685800Y-111838439D01*
X85685800Y-111681561D01*
X85645197Y-111530030D01*
X85566759Y-111394170D01*
X85455830Y-111283241D01*
X85319970Y-111204803D01*
X85319971Y-111204803D01*
X85285420Y-111195545D01*
X85168439Y-111164200D01*
X85011561Y-111164200D01*
X84897912Y-111194652D01*
X84860029Y-111204803D01*
X84724171Y-111283240D01*
X84724168Y-111283242D01*
X84613240Y-111394170D01*
X84578771Y-111453873D01*
X84552140Y-111500000D01*
X84501575Y-111548215D01*
X84444754Y-111562000D01*
X83050614Y-111562000D01*
X82999153Y-111583316D01*
X82977845Y-111592143D01*
X82977840Y-111592145D01*
X81106115Y-113463869D01*
X81106112Y-113463874D01*
X81086114Y-113512156D01*
X81086112Y-113512159D01*
X81075971Y-113536640D01*
X81075970Y-113536646D01*
X81075970Y-114087355D01*
X81056285Y-114154394D01*
X81003481Y-114200149D01*
X80976157Y-114208973D01*
X80959757Y-114212234D01*
X80926512Y-114234446D01*
X80904302Y-114267689D01*
X80904299Y-114267695D01*
X80898470Y-114297002D01*
X80898470Y-114866798D01*
X80898471Y-114866806D01*
X80904300Y-114896116D01*
X80926512Y-114929361D01*
X80943189Y-114940503D01*
X80959757Y-114951573D01*
X80959760Y-114951573D01*
X80959761Y-114951574D01*
X80969617Y-114953534D01*
X80989071Y-114957404D01*
X81558868Y-114957403D01*
X81588183Y-114951573D01*
X81621427Y-114929361D01*
X81643639Y-114896117D01*
X81643639Y-114896114D01*
X81645865Y-114892784D01*
X81699476Y-114847977D01*
X81768801Y-114839267D01*
X81831829Y-114869420D01*
X81852074Y-114892783D01*
X81876512Y-114929360D01*
X81893189Y-114940502D01*
X81909757Y-114951572D01*
X81909760Y-114951572D01*
X81909761Y-114951573D01*
X81919617Y-114953533D01*
X81939071Y-114957403D01*
X82508868Y-114957402D01*
X82538183Y-114951572D01*
X82571427Y-114929360D01*
X82593639Y-114896116D01*
X82594302Y-114892783D01*
X82596903Y-114879710D01*
X82629289Y-114817799D01*
X82690005Y-114783226D01*
X82718520Y-114779903D01*
X86170721Y-114779903D01*
X86237760Y-114799588D01*
X86283515Y-114852392D01*
X86293459Y-114921550D01*
X86264434Y-114985106D01*
X86258402Y-114991584D01*
X84898871Y-116351114D01*
X84837548Y-116384599D01*
X84811190Y-116387433D01*
X80976182Y-116387433D01*
X80909143Y-116367748D01*
X80863388Y-116314944D01*
X80854564Y-116287619D01*
X80850428Y-116266823D01*
X80828216Y-116233578D01*
X80801213Y-116215537D01*
X80794972Y-116211367D01*
X80794970Y-116211366D01*
X80794967Y-116211365D01*
X80765660Y-116205536D01*
X80195864Y-116205536D01*
X80195856Y-116205537D01*
X80166546Y-116211366D01*
X80133301Y-116233578D01*
X80111091Y-116266821D01*
X80111088Y-116266827D01*
X80105259Y-116296134D01*
X80105259Y-116865930D01*
X80105260Y-116865938D01*
X80111089Y-116895248D01*
X80117772Y-116905249D01*
X80133302Y-116928493D01*
X80166546Y-116950705D01*
X80166548Y-116950705D01*
X80169881Y-116952932D01*
X80214688Y-117006543D01*
X80223398Y-117075867D01*
X80193246Y-117138896D01*
X80169884Y-117159140D01*
X80133304Y-117183580D01*
X80111094Y-117216823D01*
X80111091Y-117216829D01*
X80105262Y-117246136D01*
X80105262Y-117815932D01*
X80105263Y-117815940D01*
X80111092Y-117845250D01*
X80133304Y-117878495D01*
X80148272Y-117888495D01*
X80166549Y-117900707D01*
X80166552Y-117900707D01*
X80166553Y-117900708D01*
X80195858Y-117906537D01*
X80195863Y-117906538D01*
X80207400Y-117906537D01*
X80274438Y-117926218D01*
X80320195Y-117979019D01*
X80331404Y-118030537D01*
X80331404Y-125079202D01*
X80311719Y-125146241D01*
X80258915Y-125191996D01*
X80189757Y-125201940D01*
X80126201Y-125172915D01*
X80119723Y-125166883D01*
X79386819Y-124433979D01*
X79353334Y-124372656D01*
X79350500Y-124346298D01*
X79350500Y-110673598D01*
X79370185Y-110606559D01*
X79386815Y-110585921D01*
X79409328Y-110563408D01*
X83074699Y-110563408D01*
X83103340Y-110707390D01*
X83103342Y-110707396D01*
X83159522Y-110843028D01*
X83159526Y-110843035D01*
X83211861Y-110921360D01*
X83211862Y-110921361D01*
X83485681Y-110647541D01*
X83525287Y-110716141D01*
X83593859Y-110784713D01*
X83662457Y-110824318D01*
X83388638Y-111098137D01*
X83388638Y-111098138D01*
X83466971Y-111150478D01*
X83602599Y-111206656D01*
X83602609Y-111206659D01*
X83746591Y-111235300D01*
X83893408Y-111235300D01*
X84037390Y-111206659D01*
X84037400Y-111206656D01*
X84173025Y-111150479D01*
X84173032Y-111150475D01*
X84251360Y-111098137D01*
X83977542Y-110824318D01*
X84046141Y-110784713D01*
X84114713Y-110716141D01*
X84154318Y-110647542D01*
X84428137Y-110921360D01*
X84480475Y-110843032D01*
X84480479Y-110843025D01*
X84536656Y-110707400D01*
X84536659Y-110707390D01*
X84565300Y-110563408D01*
X85614699Y-110563408D01*
X85643340Y-110707390D01*
X85643342Y-110707396D01*
X85699522Y-110843028D01*
X85699526Y-110843035D01*
X85751861Y-110921360D01*
X85751862Y-110921361D01*
X86025681Y-110647541D01*
X86065287Y-110716141D01*
X86133859Y-110784713D01*
X86202457Y-110824318D01*
X85928638Y-111098137D01*
X85928638Y-111098138D01*
X86006971Y-111150478D01*
X86142599Y-111206656D01*
X86142609Y-111206659D01*
X86286591Y-111235300D01*
X86433408Y-111235300D01*
X86577390Y-111206659D01*
X86577400Y-111206656D01*
X86713025Y-111150479D01*
X86713032Y-111150475D01*
X86791360Y-111098137D01*
X86517542Y-110824318D01*
X86586141Y-110784713D01*
X86654713Y-110716141D01*
X86694318Y-110647542D01*
X86968137Y-110921360D01*
X87020475Y-110843032D01*
X87020479Y-110843025D01*
X87076656Y-110707400D01*
X87076659Y-110707390D01*
X87105300Y-110563408D01*
X87105300Y-110416591D01*
X87076659Y-110272609D01*
X87076656Y-110272599D01*
X87020478Y-110136971D01*
X86968137Y-110058638D01*
X86694318Y-110332457D01*
X86654713Y-110263859D01*
X86586141Y-110195287D01*
X86517542Y-110155681D01*
X86791361Y-109881862D01*
X86791360Y-109881861D01*
X86713035Y-109829526D01*
X86713028Y-109829522D01*
X86577396Y-109773342D01*
X86577390Y-109773340D01*
X86433408Y-109744700D01*
X86286592Y-109744700D01*
X86142609Y-109773340D01*
X86142603Y-109773342D01*
X86006971Y-109829522D01*
X86006959Y-109829529D01*
X85928638Y-109881860D01*
X85928637Y-109881861D01*
X86202457Y-110155681D01*
X86133859Y-110195287D01*
X86065287Y-110263859D01*
X86025681Y-110332457D01*
X85751861Y-110058637D01*
X85751860Y-110058638D01*
X85699529Y-110136959D01*
X85699522Y-110136971D01*
X85643342Y-110272603D01*
X85643340Y-110272609D01*
X85614700Y-110416591D01*
X85614700Y-110563408D01*
X85614699Y-110563408D01*
X84565300Y-110563408D01*
X84565300Y-110416591D01*
X84536659Y-110272609D01*
X84536656Y-110272599D01*
X84480478Y-110136971D01*
X84428137Y-110058638D01*
X84154318Y-110332456D01*
X84114713Y-110263859D01*
X84046141Y-110195287D01*
X83977542Y-110155681D01*
X84251361Y-109881862D01*
X84251360Y-109881861D01*
X84173035Y-109829526D01*
X84173028Y-109829522D01*
X84037396Y-109773342D01*
X84037390Y-109773340D01*
X83893408Y-109744700D01*
X83746592Y-109744700D01*
X83602609Y-109773340D01*
X83602603Y-109773342D01*
X83466971Y-109829522D01*
X83466959Y-109829529D01*
X83388638Y-109881860D01*
X83388637Y-109881861D01*
X83662457Y-110155681D01*
X83593859Y-110195287D01*
X83525287Y-110263859D01*
X83485681Y-110332457D01*
X83211861Y-110058637D01*
X83211860Y-110058638D01*
X83159529Y-110136959D01*
X83159522Y-110136971D01*
X83103342Y-110272603D01*
X83103340Y-110272609D01*
X83074700Y-110416591D01*
X83074700Y-110563408D01*
X83074699Y-110563408D01*
X79409328Y-110563408D01*
X80139880Y-109832855D01*
X80201203Y-109799371D01*
X80227561Y-109796537D01*
X80623754Y-109796537D01*
X80623757Y-109796537D01*
X80653072Y-109790707D01*
X80686316Y-109768495D01*
X80708528Y-109735251D01*
X80714359Y-109705937D01*
X80714358Y-109136140D01*
X80708528Y-109106825D01*
X80686316Y-109073581D01*
X80653072Y-109051369D01*
X80653070Y-109051368D01*
X80649736Y-109049141D01*
X80604929Y-108995530D01*
X80596219Y-108926205D01*
X80619433Y-108871622D01*
X80640796Y-108843145D01*
X80653069Y-108840705D01*
X80686313Y-108818493D01*
X80708525Y-108785249D01*
X80714356Y-108755935D01*
X80714356Y-108745094D01*
X80734216Y-108718622D01*
X80740525Y-108713909D01*
X80744175Y-108706932D01*
X80768117Y-108693298D01*
X80790193Y-108676809D01*
X80798048Y-108676255D01*
X80804891Y-108672359D01*
X80833406Y-108669036D01*
X84988347Y-108669036D01*
X84988348Y-108669036D01*
X84988349Y-108669036D01*
X85009659Y-108660208D01*
X85009663Y-108660208D01*
X85009663Y-108660207D01*
X85061122Y-108638893D01*
X86544716Y-107155296D01*
X86544719Y-107155295D01*
X86562157Y-107137857D01*
X86562158Y-107137857D01*
X87122857Y-106577158D01*
X87122857Y-106577157D01*
X87307857Y-106392157D01*
X87338000Y-106319384D01*
X87338000Y-106240615D01*
X87338000Y-101330615D01*
X87337998Y-101330610D01*
X87328568Y-101307843D01*
X87328566Y-101307840D01*
X87328566Y-101307839D01*
X87307857Y-101257842D01*
X86804319Y-100754304D01*
X86770834Y-100692981D01*
X86768000Y-100666623D01*
X86768000Y-85090616D01*
X86768000Y-85090615D01*
X86737856Y-85017842D01*
X86682158Y-84962144D01*
X86072158Y-84352143D01*
X86020699Y-84330828D01*
X86020696Y-84330826D01*
X86006918Y-84325120D01*
X85999385Y-84322000D01*
X85999384Y-84322000D01*
X82963709Y-84322000D01*
X82896670Y-84302315D01*
X82860609Y-84266893D01*
X82837577Y-84232423D01*
X82794105Y-84203376D01*
X82762987Y-84182583D01*
X82741061Y-84178222D01*
X82697211Y-84169500D01*
X82697209Y-84169500D01*
X82402791Y-84169500D01*
X82337013Y-84182583D01*
X82337011Y-84182584D01*
X82262423Y-84232423D01*
X82212583Y-84307012D01*
X82199500Y-84372790D01*
X82199500Y-84667208D01*
X82212583Y-84732986D01*
X82212584Y-84732988D01*
X82222078Y-84747196D01*
X82262423Y-84807577D01*
X82318238Y-84844871D01*
X82337012Y-84857416D01*
X82337014Y-84857417D01*
X82402789Y-84870500D01*
X82697210Y-84870499D01*
X82762986Y-84857417D01*
X82837577Y-84807577D01*
X82860608Y-84773107D01*
X82914218Y-84728305D01*
X82963709Y-84718000D01*
X85826623Y-84718000D01*
X85893662Y-84737685D01*
X85914304Y-84754319D01*
X86335681Y-85175695D01*
X86369166Y-85237018D01*
X86372000Y-85263376D01*
X86372000Y-100760616D01*
X86372000Y-100839384D01*
X86402143Y-100912158D01*
X86402145Y-100912160D01*
X86905681Y-101415696D01*
X86939166Y-101477019D01*
X86942000Y-101503377D01*
X86942000Y-102130527D01*
X86922315Y-102197566D01*
X86869511Y-102243321D01*
X86800353Y-102253265D01*
X86749110Y-102233629D01*
X86713043Y-102209530D01*
X86713025Y-102209520D01*
X86577400Y-102153343D01*
X86577390Y-102153340D01*
X86433408Y-102124700D01*
X86286592Y-102124700D01*
X86142609Y-102153340D01*
X86142603Y-102153342D01*
X86006971Y-102209522D01*
X86006959Y-102209529D01*
X85928638Y-102261860D01*
X85928637Y-102261861D01*
X86202457Y-102535681D01*
X86133859Y-102575287D01*
X86065287Y-102643859D01*
X86025681Y-102712457D01*
X85751861Y-102438637D01*
X85751860Y-102438638D01*
X85699529Y-102516959D01*
X85699522Y-102516971D01*
X85643342Y-102652603D01*
X85643340Y-102652609D01*
X85614700Y-102796591D01*
X85614700Y-102943408D01*
X85614699Y-102943408D01*
X85643340Y-103087390D01*
X85643342Y-103087396D01*
X85699522Y-103223028D01*
X85699526Y-103223035D01*
X85751861Y-103301360D01*
X85751861Y-103301361D01*
X86025680Y-103027540D01*
X86065287Y-103096141D01*
X86133859Y-103164713D01*
X86202457Y-103204318D01*
X85928638Y-103478137D01*
X85928638Y-103478138D01*
X86006971Y-103530478D01*
X86142599Y-103586656D01*
X86142609Y-103586659D01*
X86286591Y-103615300D01*
X86433408Y-103615300D01*
X86577390Y-103586659D01*
X86577400Y-103586656D01*
X86713025Y-103530479D01*
X86713040Y-103530471D01*
X86749108Y-103506371D01*
X86815785Y-103485492D01*
X86883165Y-103503976D01*
X86929856Y-103555954D01*
X86942000Y-103609472D01*
X86942000Y-104670527D01*
X86922315Y-104737566D01*
X86869511Y-104783321D01*
X86800353Y-104793265D01*
X86749110Y-104773629D01*
X86713043Y-104749530D01*
X86713025Y-104749520D01*
X86577400Y-104693343D01*
X86577390Y-104693340D01*
X86433408Y-104664700D01*
X86286592Y-104664700D01*
X86142609Y-104693340D01*
X86142603Y-104693342D01*
X86006971Y-104749522D01*
X86006959Y-104749529D01*
X85928638Y-104801860D01*
X85928637Y-104801861D01*
X86202457Y-105075681D01*
X86133859Y-105115287D01*
X86065287Y-105183859D01*
X86025681Y-105252457D01*
X85751861Y-104978637D01*
X85751860Y-104978638D01*
X85699529Y-105056959D01*
X85699522Y-105056971D01*
X85643342Y-105192603D01*
X85643340Y-105192609D01*
X85614700Y-105336591D01*
X85614700Y-105483408D01*
X85614699Y-105483408D01*
X85643340Y-105627390D01*
X85643342Y-105627396D01*
X85699522Y-105763028D01*
X85699526Y-105763035D01*
X85751861Y-105841360D01*
X85751861Y-105841361D01*
X86025680Y-105567540D01*
X86065287Y-105636141D01*
X86133859Y-105704713D01*
X86202457Y-105744318D01*
X85928638Y-106018137D01*
X85928638Y-106018138D01*
X86006971Y-106070478D01*
X86142599Y-106126656D01*
X86142609Y-106126659D01*
X86286591Y-106155300D01*
X86433408Y-106155300D01*
X86577390Y-106126659D01*
X86577400Y-106126656D01*
X86713025Y-106070479D01*
X86713036Y-106070473D01*
X86740513Y-106052113D01*
X86762668Y-106045174D01*
X86783047Y-106034047D01*
X86795386Y-106034929D01*
X86807190Y-106031233D01*
X86829580Y-106037374D01*
X86852739Y-106039031D01*
X86862641Y-106046443D01*
X86874571Y-106049716D01*
X86890086Y-106066987D01*
X86908673Y-106080901D01*
X86912996Y-106092491D01*
X86921262Y-106101693D01*
X86924976Y-106124610D01*
X86933091Y-106146365D01*
X86930461Y-106158452D01*
X86932441Y-106170663D01*
X86923174Y-106191952D01*
X86918240Y-106214638D01*
X86906438Y-106230403D01*
X86904557Y-106234727D01*
X86897093Y-106242888D01*
X86897089Y-106242894D01*
X86825402Y-106314582D01*
X86825399Y-106314585D01*
X86404304Y-106735681D01*
X86342981Y-106769166D01*
X86316623Y-106772000D01*
X82727049Y-106772000D01*
X82660010Y-106752315D01*
X82614255Y-106699511D01*
X82605431Y-106672187D01*
X82602169Y-106655787D01*
X82579957Y-106622542D01*
X82546714Y-106600332D01*
X82546715Y-106600332D01*
X82546713Y-106600331D01*
X82546711Y-106600330D01*
X82546708Y-106600329D01*
X82517401Y-106594500D01*
X81947605Y-106594500D01*
X81947597Y-106594501D01*
X81918287Y-106600330D01*
X81885042Y-106622542D01*
X81860604Y-106659120D01*
X81806993Y-106703927D01*
X81737668Y-106712636D01*
X81683653Y-106689844D01*
X81654668Y-106668356D01*
X81652169Y-106655787D01*
X81629957Y-106622543D01*
X81596713Y-106600331D01*
X81567399Y-106594500D01*
X81555043Y-106594500D01*
X81528153Y-106574565D01*
X81523190Y-106568000D01*
X81515897Y-106564185D01*
X81502430Y-106540536D01*
X81486021Y-106518828D01*
X81485395Y-106510620D01*
X81481323Y-106503469D01*
X81478000Y-106474953D01*
X81478000Y-106233376D01*
X81497685Y-106166337D01*
X81514319Y-106145695D01*
X82176606Y-105483408D01*
X83074699Y-105483408D01*
X83103340Y-105627390D01*
X83103342Y-105627396D01*
X83159522Y-105763028D01*
X83159526Y-105763035D01*
X83211861Y-105841360D01*
X83211862Y-105841361D01*
X83485681Y-105567541D01*
X83525287Y-105636141D01*
X83593859Y-105704713D01*
X83662457Y-105744318D01*
X83388638Y-106018137D01*
X83388638Y-106018138D01*
X83466971Y-106070478D01*
X83602599Y-106126656D01*
X83602609Y-106126659D01*
X83746591Y-106155300D01*
X83893408Y-106155300D01*
X84037390Y-106126659D01*
X84037400Y-106126656D01*
X84173025Y-106070479D01*
X84173032Y-106070475D01*
X84251360Y-106018137D01*
X83977542Y-105744318D01*
X84046141Y-105704713D01*
X84114713Y-105636141D01*
X84154318Y-105567542D01*
X84428137Y-105841360D01*
X84480475Y-105763032D01*
X84480479Y-105763025D01*
X84536656Y-105627400D01*
X84536659Y-105627390D01*
X84565300Y-105483408D01*
X84565300Y-105336591D01*
X84536659Y-105192609D01*
X84536656Y-105192599D01*
X84480478Y-105056971D01*
X84428137Y-104978638D01*
X84154318Y-105252457D01*
X84114713Y-105183859D01*
X84046141Y-105115287D01*
X83977542Y-105075681D01*
X84251361Y-104801862D01*
X84251360Y-104801861D01*
X84173035Y-104749526D01*
X84173028Y-104749522D01*
X84037396Y-104693342D01*
X84037390Y-104693340D01*
X83893408Y-104664700D01*
X83746592Y-104664700D01*
X83602609Y-104693340D01*
X83602603Y-104693342D01*
X83466971Y-104749522D01*
X83466959Y-104749529D01*
X83388638Y-104801860D01*
X83388637Y-104801861D01*
X83662457Y-105075681D01*
X83593859Y-105115287D01*
X83525287Y-105183859D01*
X83485681Y-105252457D01*
X83211861Y-104978637D01*
X83211860Y-104978638D01*
X83159529Y-105056959D01*
X83159522Y-105056971D01*
X83103342Y-105192603D01*
X83103340Y-105192609D01*
X83074700Y-105336591D01*
X83074700Y-105483408D01*
X83074699Y-105483408D01*
X82176606Y-105483408D01*
X83285695Y-104374319D01*
X83347018Y-104340834D01*
X83373376Y-104338000D01*
X84444754Y-104338000D01*
X84511793Y-104357685D01*
X84552140Y-104399998D01*
X84591634Y-104468406D01*
X84613239Y-104505828D01*
X84613241Y-104505830D01*
X84724170Y-104616759D01*
X84860030Y-104695197D01*
X85011561Y-104735800D01*
X85011564Y-104735800D01*
X85168436Y-104735800D01*
X85168439Y-104735800D01*
X85319970Y-104695197D01*
X85455830Y-104616759D01*
X85566759Y-104505830D01*
X85645197Y-104369970D01*
X85685800Y-104218439D01*
X85685800Y-104061561D01*
X85645197Y-103910030D01*
X85566759Y-103774170D01*
X85455830Y-103663241D01*
X85319970Y-103584803D01*
X85319971Y-103584803D01*
X85282087Y-103574652D01*
X85168439Y-103544200D01*
X85011561Y-103544200D01*
X84897912Y-103574652D01*
X84860029Y-103584803D01*
X84724171Y-103663240D01*
X84724168Y-103663242D01*
X84613240Y-103774170D01*
X84578771Y-103833873D01*
X84552140Y-103880000D01*
X84501575Y-103928215D01*
X84444754Y-103942000D01*
X83200614Y-103942000D01*
X83188129Y-103947171D01*
X83170472Y-103954485D01*
X83152813Y-103961799D01*
X83127841Y-103972143D01*
X83127840Y-103972144D01*
X81112144Y-105987839D01*
X81101485Y-106013571D01*
X81090828Y-106039300D01*
X81088395Y-106045174D01*
X81082000Y-106060615D01*
X81082000Y-106475948D01*
X81062315Y-106542987D01*
X81009511Y-106588742D01*
X80982188Y-106597566D01*
X80968287Y-106600330D01*
X80935042Y-106622542D01*
X80912832Y-106655785D01*
X80912829Y-106655791D01*
X80907000Y-106685098D01*
X80907000Y-107254894D01*
X80907001Y-107254902D01*
X80912830Y-107284212D01*
X80935042Y-107317457D01*
X80936391Y-107318358D01*
X80968287Y-107339669D01*
X80968290Y-107339669D01*
X80968291Y-107339670D01*
X80978147Y-107341630D01*
X80997601Y-107345500D01*
X81567398Y-107345499D01*
X81596713Y-107339669D01*
X81629957Y-107317457D01*
X81652169Y-107284213D01*
X81652169Y-107284208D01*
X81654393Y-107280881D01*
X81708003Y-107236074D01*
X81777328Y-107227363D01*
X81840357Y-107257514D01*
X81860603Y-107280878D01*
X81862830Y-107284212D01*
X81862831Y-107284213D01*
X81885043Y-107317457D01*
X81918287Y-107339669D01*
X81918290Y-107339669D01*
X81918291Y-107339670D01*
X81928147Y-107341630D01*
X81947601Y-107345500D01*
X82517398Y-107345499D01*
X82546713Y-107339669D01*
X82579957Y-107317457D01*
X82602169Y-107284213D01*
X82602832Y-107280881D01*
X82605433Y-107267807D01*
X82637819Y-107205896D01*
X82698535Y-107171323D01*
X82727050Y-107168000D01*
X85672624Y-107168000D01*
X85739663Y-107187685D01*
X85785418Y-107240489D01*
X85795362Y-107309647D01*
X85766337Y-107373203D01*
X85760305Y-107379681D01*
X84903268Y-108236717D01*
X84841945Y-108270202D01*
X84815587Y-108273036D01*
X80833405Y-108273036D01*
X80766366Y-108253351D01*
X80720611Y-108200547D01*
X80711787Y-108173223D01*
X80708525Y-108156823D01*
X80686313Y-108123578D01*
X80653070Y-108101368D01*
X80653071Y-108101368D01*
X80653069Y-108101367D01*
X80653067Y-108101366D01*
X80653064Y-108101365D01*
X80623757Y-108095536D01*
X80053961Y-108095536D01*
X80053953Y-108095537D01*
X80024643Y-108101366D01*
X79991398Y-108123578D01*
X79969188Y-108156821D01*
X79969185Y-108156827D01*
X79963356Y-108186134D01*
X79963356Y-108755930D01*
X79963357Y-108755938D01*
X79969186Y-108785248D01*
X79990705Y-108817454D01*
X79991399Y-108818493D01*
X80024643Y-108840705D01*
X80024645Y-108840705D01*
X80027978Y-108842932D01*
X80072785Y-108896543D01*
X80081495Y-108965867D01*
X80051343Y-109028896D01*
X80027981Y-109049140D01*
X79991401Y-109073580D01*
X79969191Y-109106823D01*
X79969188Y-109106829D01*
X79963359Y-109136136D01*
X79963359Y-109532335D01*
X79943674Y-109599374D01*
X79927040Y-109620016D01*
X79072413Y-110474643D01*
X79072412Y-110474645D01*
X79058990Y-110507048D01*
X79058989Y-110507051D01*
X79058988Y-110507050D01*
X79049500Y-110529959D01*
X79049500Y-124107298D01*
X79029815Y-124174337D01*
X78977011Y-124220092D01*
X78907853Y-124230036D01*
X78844297Y-124201011D01*
X78837819Y-124194979D01*
X78516819Y-123873979D01*
X78483334Y-123812656D01*
X78480500Y-123786298D01*
X78480500Y-110530065D01*
X78480457Y-110529961D01*
X78457587Y-110474749D01*
X78457587Y-110474748D01*
X77601818Y-109618979D01*
X77568333Y-109557656D01*
X77565499Y-109531298D01*
X77565499Y-109135105D01*
X77565498Y-109135097D01*
X77559669Y-109105787D01*
X77537457Y-109072543D01*
X77537456Y-109072542D01*
X77504213Y-109050331D01*
X77504211Y-109050330D01*
X77500877Y-109048103D01*
X77456070Y-108994492D01*
X77447360Y-108925167D01*
X77477513Y-108862139D01*
X77500877Y-108841893D01*
X77504207Y-108839667D01*
X77504210Y-108839667D01*
X77537454Y-108817455D01*
X77559666Y-108784211D01*
X77565497Y-108754897D01*
X77565496Y-108185100D01*
X77559666Y-108155785D01*
X77538148Y-108123579D01*
X77537454Y-108122540D01*
X77505765Y-108101368D01*
X77504210Y-108100329D01*
X77504208Y-108100328D01*
X77504205Y-108100327D01*
X77474898Y-108094498D01*
X76905102Y-108094498D01*
X76905094Y-108094499D01*
X76875784Y-108100328D01*
X76842539Y-108122540D01*
X76820329Y-108155783D01*
X76820326Y-108155789D01*
X76817064Y-108172191D01*
X76784678Y-108234102D01*
X76723962Y-108268675D01*
X76695447Y-108271998D01*
X72103374Y-108271998D01*
X72036335Y-108252313D01*
X72015693Y-108235679D01*
X71159696Y-107379681D01*
X71126211Y-107318358D01*
X71131195Y-107248666D01*
X71173067Y-107192733D01*
X71238531Y-107168316D01*
X71247377Y-107168000D01*
X74655451Y-107168000D01*
X74722490Y-107187685D01*
X74768245Y-107240489D01*
X74777069Y-107267813D01*
X74780330Y-107284212D01*
X74802542Y-107317457D01*
X74803891Y-107318358D01*
X74835787Y-107339669D01*
X74835790Y-107339669D01*
X74835791Y-107339670D01*
X74845647Y-107341630D01*
X74865101Y-107345500D01*
X75434898Y-107345499D01*
X75464213Y-107339669D01*
X75497457Y-107317457D01*
X75519669Y-107284213D01*
X75519669Y-107284208D01*
X75521893Y-107280881D01*
X75575503Y-107236074D01*
X75644828Y-107227363D01*
X75707857Y-107257514D01*
X75728103Y-107280878D01*
X75730330Y-107284212D01*
X75730331Y-107284213D01*
X75752543Y-107317457D01*
X75785787Y-107339669D01*
X75785790Y-107339669D01*
X75785791Y-107339670D01*
X75795647Y-107341630D01*
X75815101Y-107345500D01*
X76384898Y-107345499D01*
X76414213Y-107339669D01*
X76447457Y-107317457D01*
X76469669Y-107284213D01*
X76475500Y-107254899D01*
X76475499Y-106685102D01*
X76469669Y-106655787D01*
X76464466Y-106648000D01*
X76447457Y-106622542D01*
X76414214Y-106600332D01*
X76414215Y-106600332D01*
X76414213Y-106600331D01*
X76414211Y-106600330D01*
X76414208Y-106600329D01*
X76397807Y-106597067D01*
X76335896Y-106564681D01*
X76301323Y-106503965D01*
X76298000Y-106475450D01*
X76298000Y-106120616D01*
X76298000Y-106120615D01*
X76267856Y-106047842D01*
X76212158Y-105992144D01*
X74192158Y-103972143D01*
X74140699Y-103950828D01*
X74140696Y-103950826D01*
X74126918Y-103945120D01*
X74119385Y-103942000D01*
X74119384Y-103942000D01*
X73035246Y-103942000D01*
X72968207Y-103922315D01*
X72927859Y-103880001D01*
X72866759Y-103774170D01*
X72755830Y-103663241D01*
X72619970Y-103584803D01*
X72619971Y-103584803D01*
X72585420Y-103575545D01*
X72468439Y-103544200D01*
X72311561Y-103544200D01*
X72197912Y-103574652D01*
X72160029Y-103584803D01*
X72024171Y-103663240D01*
X72024168Y-103663242D01*
X71913242Y-103774168D01*
X71913240Y-103774171D01*
X71834803Y-103910029D01*
X71823872Y-103950826D01*
X71794200Y-104061561D01*
X71794200Y-104218439D01*
X71834803Y-104369970D01*
X71913241Y-104505830D01*
X72024170Y-104616759D01*
X72160030Y-104695197D01*
X72311561Y-104735800D01*
X72311564Y-104735800D01*
X72468436Y-104735800D01*
X72468439Y-104735800D01*
X72619970Y-104695197D01*
X72755830Y-104616759D01*
X72866759Y-104505830D01*
X72927859Y-104399999D01*
X72978425Y-104351785D01*
X73035246Y-104338000D01*
X73946623Y-104338000D01*
X74013662Y-104357685D01*
X74034304Y-104374319D01*
X75865681Y-106205695D01*
X75899166Y-106267018D01*
X75902000Y-106293376D01*
X75902000Y-106475451D01*
X75882315Y-106542490D01*
X75852413Y-106574641D01*
X75825940Y-106594500D01*
X75815102Y-106594501D01*
X75785787Y-106600331D01*
X75752543Y-106622543D01*
X75730331Y-106655787D01*
X75727890Y-106668058D01*
X75699413Y-106689422D01*
X75685716Y-106694546D01*
X75674493Y-106703927D01*
X75653648Y-106706545D01*
X75633974Y-106713907D01*
X75619680Y-106710812D01*
X75605168Y-106712636D01*
X75586215Y-106703568D01*
X75565686Y-106699125D01*
X75555335Y-106688795D01*
X75542140Y-106682483D01*
X75521896Y-106659120D01*
X75497457Y-106622542D01*
X75464214Y-106600332D01*
X75464215Y-106600332D01*
X75464213Y-106600331D01*
X75464211Y-106600330D01*
X75464208Y-106600329D01*
X75434901Y-106594500D01*
X74865105Y-106594500D01*
X74865097Y-106594501D01*
X74835787Y-106600330D01*
X74802542Y-106622542D01*
X74780332Y-106655785D01*
X74780329Y-106655791D01*
X74777067Y-106672193D01*
X74744681Y-106734104D01*
X74683965Y-106768677D01*
X74655450Y-106772000D01*
X70682000Y-106772000D01*
X70614961Y-106752315D01*
X70569206Y-106699511D01*
X70558000Y-106648000D01*
X70558000Y-106162836D01*
X70577685Y-106095797D01*
X70630489Y-106050042D01*
X70699647Y-106040098D01*
X70750892Y-106059735D01*
X70766959Y-106070471D01*
X70766974Y-106070479D01*
X70902599Y-106126656D01*
X70902609Y-106126659D01*
X71046591Y-106155300D01*
X71193408Y-106155300D01*
X71337390Y-106126659D01*
X71337400Y-106126656D01*
X71473025Y-106070479D01*
X71473032Y-106070475D01*
X71551360Y-106018137D01*
X71277541Y-105744318D01*
X71346141Y-105704713D01*
X71414713Y-105636141D01*
X71454318Y-105567542D01*
X71728137Y-105841360D01*
X71780475Y-105763032D01*
X71780479Y-105763025D01*
X71836656Y-105627400D01*
X71836659Y-105627390D01*
X71865300Y-105483408D01*
X72914699Y-105483408D01*
X72943340Y-105627390D01*
X72943342Y-105627396D01*
X72999522Y-105763028D01*
X72999526Y-105763035D01*
X73051861Y-105841360D01*
X73051862Y-105841361D01*
X73325681Y-105567541D01*
X73365287Y-105636141D01*
X73433859Y-105704713D01*
X73502457Y-105744318D01*
X73228638Y-106018137D01*
X73228638Y-106018138D01*
X73306971Y-106070478D01*
X73442599Y-106126656D01*
X73442609Y-106126659D01*
X73586591Y-106155300D01*
X73733408Y-106155300D01*
X73877390Y-106126659D01*
X73877400Y-106126656D01*
X74013025Y-106070479D01*
X74013032Y-106070475D01*
X74091360Y-106018137D01*
X73817542Y-105744318D01*
X73886141Y-105704713D01*
X73954713Y-105636141D01*
X73994318Y-105567542D01*
X74268137Y-105841360D01*
X74320475Y-105763032D01*
X74320479Y-105763025D01*
X74376656Y-105627400D01*
X74376659Y-105627390D01*
X74405300Y-105483408D01*
X74405300Y-105336591D01*
X74376659Y-105192609D01*
X74376656Y-105192599D01*
X74320478Y-105056971D01*
X74268137Y-104978638D01*
X73994318Y-105252457D01*
X73954713Y-105183859D01*
X73886141Y-105115287D01*
X73817542Y-105075681D01*
X74091361Y-104801862D01*
X74091360Y-104801861D01*
X74013035Y-104749526D01*
X74013028Y-104749522D01*
X73877396Y-104693342D01*
X73877390Y-104693340D01*
X73733408Y-104664700D01*
X73586592Y-104664700D01*
X73442609Y-104693340D01*
X73442603Y-104693342D01*
X73306971Y-104749522D01*
X73306959Y-104749529D01*
X73228638Y-104801860D01*
X73228637Y-104801861D01*
X73502457Y-105075681D01*
X73433859Y-105115287D01*
X73365287Y-105183859D01*
X73325681Y-105252457D01*
X73051861Y-104978637D01*
X73051860Y-104978638D01*
X72999529Y-105056959D01*
X72999522Y-105056971D01*
X72943342Y-105192603D01*
X72943340Y-105192609D01*
X72914700Y-105336591D01*
X72914700Y-105483408D01*
X72914699Y-105483408D01*
X71865300Y-105483408D01*
X71865300Y-105336591D01*
X71836659Y-105192609D01*
X71836656Y-105192599D01*
X71780478Y-105056971D01*
X71728137Y-104978638D01*
X71454318Y-105252456D01*
X71414713Y-105183859D01*
X71346141Y-105115287D01*
X71277541Y-105075680D01*
X71551361Y-104801861D01*
X71473035Y-104749526D01*
X71473028Y-104749522D01*
X71337396Y-104693342D01*
X71337390Y-104693340D01*
X71193408Y-104664700D01*
X71046592Y-104664700D01*
X70902609Y-104693340D01*
X70902599Y-104693343D01*
X70766974Y-104749520D01*
X70766965Y-104749525D01*
X70750889Y-104760267D01*
X70684211Y-104781143D01*
X70616831Y-104762657D01*
X70570142Y-104710677D01*
X70558000Y-104657163D01*
X70558000Y-103622836D01*
X70577685Y-103555797D01*
X70630489Y-103510042D01*
X70699647Y-103500098D01*
X70750892Y-103519735D01*
X70766959Y-103530471D01*
X70766974Y-103530479D01*
X70902599Y-103586656D01*
X70902609Y-103586659D01*
X71046591Y-103615300D01*
X71193408Y-103615300D01*
X71337390Y-103586659D01*
X71337400Y-103586656D01*
X71473025Y-103530479D01*
X71473032Y-103530475D01*
X71551360Y-103478137D01*
X71277541Y-103204318D01*
X71346141Y-103164713D01*
X71414713Y-103096141D01*
X71454318Y-103027542D01*
X71728137Y-103301360D01*
X71780475Y-103223032D01*
X71780479Y-103223025D01*
X71836656Y-103087400D01*
X71836659Y-103087390D01*
X71865300Y-102943408D01*
X72914699Y-102943408D01*
X72943340Y-103087390D01*
X72943342Y-103087396D01*
X72999522Y-103223028D01*
X72999526Y-103223035D01*
X73051861Y-103301360D01*
X73051862Y-103301361D01*
X73325681Y-103027541D01*
X73365287Y-103096141D01*
X73433859Y-103164713D01*
X73502457Y-103204318D01*
X73228638Y-103478137D01*
X73228638Y-103478138D01*
X73306971Y-103530478D01*
X73442599Y-103586656D01*
X73442609Y-103586659D01*
X73586591Y-103615300D01*
X73733408Y-103615300D01*
X73877390Y-103586659D01*
X73877400Y-103586656D01*
X74013025Y-103530479D01*
X74013032Y-103530475D01*
X74091360Y-103478137D01*
X73817542Y-103204318D01*
X73886141Y-103164713D01*
X73954713Y-103096141D01*
X73994318Y-103027542D01*
X74268137Y-103301360D01*
X74320475Y-103223032D01*
X74320479Y-103223025D01*
X74376656Y-103087400D01*
X74376659Y-103087390D01*
X74405300Y-102943408D01*
X83074699Y-102943408D01*
X83103340Y-103087390D01*
X83103342Y-103087396D01*
X83159522Y-103223028D01*
X83159526Y-103223035D01*
X83211861Y-103301360D01*
X83211862Y-103301361D01*
X83485681Y-103027541D01*
X83525287Y-103096141D01*
X83593859Y-103164713D01*
X83662457Y-103204318D01*
X83388638Y-103478137D01*
X83388638Y-103478138D01*
X83466971Y-103530478D01*
X83602599Y-103586656D01*
X83602609Y-103586659D01*
X83746591Y-103615300D01*
X83893408Y-103615300D01*
X84037390Y-103586659D01*
X84037400Y-103586656D01*
X84173025Y-103530479D01*
X84173032Y-103530475D01*
X84251360Y-103478137D01*
X83977542Y-103204318D01*
X84046141Y-103164713D01*
X84114713Y-103096141D01*
X84154318Y-103027542D01*
X84428137Y-103301360D01*
X84480475Y-103223032D01*
X84480479Y-103223025D01*
X84536656Y-103087400D01*
X84536659Y-103087390D01*
X84565300Y-102943408D01*
X84565300Y-102796591D01*
X84536659Y-102652609D01*
X84536656Y-102652599D01*
X84480478Y-102516971D01*
X84428137Y-102438638D01*
X84154318Y-102712457D01*
X84114713Y-102643859D01*
X84046141Y-102575287D01*
X83977542Y-102535681D01*
X84251361Y-102261862D01*
X84251360Y-102261861D01*
X84173035Y-102209526D01*
X84173028Y-102209522D01*
X84037396Y-102153342D01*
X84037390Y-102153340D01*
X83893408Y-102124700D01*
X83746592Y-102124700D01*
X83602609Y-102153340D01*
X83602603Y-102153342D01*
X83466971Y-102209522D01*
X83466959Y-102209529D01*
X83388638Y-102261860D01*
X83388637Y-102261861D01*
X83662457Y-102535681D01*
X83593859Y-102575287D01*
X83525287Y-102643859D01*
X83485681Y-102712457D01*
X83211861Y-102438637D01*
X83211860Y-102438638D01*
X83159529Y-102516959D01*
X83159522Y-102516971D01*
X83103342Y-102652603D01*
X83103340Y-102652609D01*
X83074700Y-102796591D01*
X83074700Y-102943408D01*
X83074699Y-102943408D01*
X74405300Y-102943408D01*
X74405300Y-102796591D01*
X74376659Y-102652609D01*
X74376656Y-102652599D01*
X74320478Y-102516971D01*
X74268137Y-102438638D01*
X73994318Y-102712457D01*
X73954713Y-102643859D01*
X73886141Y-102575287D01*
X73817542Y-102535681D01*
X74091361Y-102261862D01*
X74091360Y-102261861D01*
X74013035Y-102209526D01*
X74013028Y-102209522D01*
X73877396Y-102153342D01*
X73877390Y-102153340D01*
X73733408Y-102124700D01*
X73586592Y-102124700D01*
X73442609Y-102153340D01*
X73442603Y-102153342D01*
X73306971Y-102209522D01*
X73306959Y-102209529D01*
X73228638Y-102261860D01*
X73228637Y-102261861D01*
X73502457Y-102535681D01*
X73433859Y-102575287D01*
X73365287Y-102643859D01*
X73325681Y-102712457D01*
X73051861Y-102438637D01*
X73051860Y-102438638D01*
X72999529Y-102516959D01*
X72999522Y-102516971D01*
X72943342Y-102652603D01*
X72943340Y-102652609D01*
X72914700Y-102796591D01*
X72914700Y-102943408D01*
X72914699Y-102943408D01*
X71865300Y-102943408D01*
X71865300Y-102796591D01*
X71836659Y-102652609D01*
X71836656Y-102652599D01*
X71780478Y-102516971D01*
X71728137Y-102438638D01*
X71454318Y-102712456D01*
X71414713Y-102643859D01*
X71346141Y-102575287D01*
X71277541Y-102535680D01*
X71551361Y-102261861D01*
X71473035Y-102209526D01*
X71473028Y-102209522D01*
X71337396Y-102153342D01*
X71337390Y-102153340D01*
X71193408Y-102124700D01*
X71046592Y-102124700D01*
X70902609Y-102153340D01*
X70902599Y-102153343D01*
X70766974Y-102209520D01*
X70766965Y-102209525D01*
X70750889Y-102220267D01*
X70684211Y-102241143D01*
X70616831Y-102222657D01*
X70570142Y-102170677D01*
X70558000Y-102117163D01*
X70558000Y-101553376D01*
X70577685Y-101486337D01*
X70594319Y-101465695D01*
X71217854Y-100842160D01*
X71217856Y-100842158D01*
X71248000Y-100769385D01*
X71248000Y-100690616D01*
X71248000Y-85073377D01*
X71267685Y-85006338D01*
X71284319Y-84985696D01*
X71515696Y-84754319D01*
X71577019Y-84720834D01*
X71603377Y-84718000D01*
X74526291Y-84718000D01*
X74593330Y-84737685D01*
X74629390Y-84773106D01*
X74652423Y-84807577D01*
X74702037Y-84840728D01*
X74727012Y-84857416D01*
X74727014Y-84857417D01*
X74792789Y-84870500D01*
X75087210Y-84870499D01*
X75152986Y-84857417D01*
X75227577Y-84807577D01*
X75277417Y-84732986D01*
X75290500Y-84667211D01*
X75290499Y-84372790D01*
X75277417Y-84307014D01*
X75227577Y-84232423D01*
X75184105Y-84203376D01*
X75152987Y-84182583D01*
X75131061Y-84178222D01*
X75087211Y-84169500D01*
X75087209Y-84169500D01*
X74792791Y-84169500D01*
X74727013Y-84182583D01*
X74727011Y-84182584D01*
X74652424Y-84232422D01*
X74652423Y-84232423D01*
X74629391Y-84266892D01*
X74575782Y-84311695D01*
X74526291Y-84322000D01*
X71430615Y-84322000D01*
X71409302Y-84330826D01*
X71409300Y-84330828D01*
X71383571Y-84341485D01*
X71357839Y-84352144D01*
X70882145Y-84827839D01*
X70882141Y-84827845D01*
X70864473Y-84870498D01*
X70864474Y-84870499D01*
X70852000Y-84900613D01*
X70852000Y-100596622D01*
X70832315Y-100663661D01*
X70815681Y-100684303D01*
X70192144Y-101307839D01*
X70181485Y-101333571D01*
X70170828Y-101359300D01*
X70162000Y-101380615D01*
X70162000Y-106820616D01*
X70162000Y-106899384D01*
X70192143Y-106972158D01*
X70192144Y-106972159D01*
X70192145Y-106972160D01*
X70302142Y-107082157D01*
X70302143Y-107082158D01*
X71857841Y-108637855D01*
X71860340Y-108638890D01*
X71900471Y-108655513D01*
X71930610Y-108667997D01*
X71930611Y-108667997D01*
X71930613Y-108667998D01*
X71930614Y-108667998D01*
X72009383Y-108667998D01*
X76695448Y-108667998D01*
X76762487Y-108687683D01*
X76794638Y-108717584D01*
X76814498Y-108744056D01*
X76814498Y-108754896D01*
X76820328Y-108784211D01*
X76842540Y-108817455D01*
X76875784Y-108839667D01*
X76888058Y-108842108D01*
X76909422Y-108870585D01*
X76914547Y-108884283D01*
X76923926Y-108895505D01*
X76926544Y-108916347D01*
X76933907Y-108936024D01*
X76930812Y-108950318D01*
X76932636Y-108964829D01*
X76923570Y-108983779D01*
X76919126Y-109004312D01*
X76908795Y-109014663D01*
X76902484Y-109027858D01*
X76879122Y-109048102D01*
X76842542Y-109072542D01*
X76820332Y-109105785D01*
X76820329Y-109105791D01*
X76814500Y-109135098D01*
X76814500Y-109704894D01*
X76814501Y-109704902D01*
X76820330Y-109734212D01*
X76842542Y-109767457D01*
X76859219Y-109778599D01*
X76875787Y-109789669D01*
X76875790Y-109789669D01*
X76875791Y-109789670D01*
X76881005Y-109790707D01*
X76905101Y-109795500D01*
X77301297Y-109795499D01*
X77368336Y-109815183D01*
X77388978Y-109831818D01*
X78143181Y-110586020D01*
X78176666Y-110647343D01*
X78179500Y-110673701D01*
X78179500Y-123537298D01*
X78159815Y-123604337D01*
X78107011Y-123650092D01*
X78037853Y-123660036D01*
X77974297Y-123631011D01*
X77967819Y-123624979D01*
X77396819Y-123053979D01*
X77363334Y-122992656D01*
X77360500Y-122966298D01*
X77360500Y-118040537D01*
X77380185Y-117973498D01*
X77432989Y-117927743D01*
X77484500Y-117916537D01*
X77495657Y-117916537D01*
X77495660Y-117916537D01*
X77524975Y-117910707D01*
X77558219Y-117888495D01*
X77580431Y-117855251D01*
X77586262Y-117825937D01*
X77586261Y-117256140D01*
X77580431Y-117226825D01*
X77558219Y-117193581D01*
X77524975Y-117171369D01*
X77524973Y-117171368D01*
X77521639Y-117169141D01*
X77476832Y-117115530D01*
X77468122Y-117046205D01*
X77498275Y-116983177D01*
X77521639Y-116962931D01*
X77524969Y-116960705D01*
X77524972Y-116960705D01*
X77558216Y-116938493D01*
X77580428Y-116905249D01*
X77586259Y-116875935D01*
X77586258Y-116306138D01*
X77580428Y-116276823D01*
X77573749Y-116266827D01*
X77558216Y-116243578D01*
X77524973Y-116221368D01*
X77524974Y-116221368D01*
X77524972Y-116221367D01*
X77524970Y-116221366D01*
X77524967Y-116221365D01*
X77495660Y-116215536D01*
X76925864Y-116215536D01*
X76925856Y-116215537D01*
X76896546Y-116221366D01*
X76863301Y-116243578D01*
X76841091Y-116276821D01*
X76841089Y-116276826D01*
X76838032Y-116292194D01*
X76805646Y-116354104D01*
X76744929Y-116388677D01*
X76716415Y-116392000D01*
X72973377Y-116392000D01*
X72906338Y-116372315D01*
X72885696Y-116355681D01*
X71519697Y-114989682D01*
X71486212Y-114928359D01*
X71491196Y-114858667D01*
X71533068Y-114802734D01*
X71598532Y-114778317D01*
X71607378Y-114778001D01*
X74825451Y-114778001D01*
X74892490Y-114797686D01*
X74938245Y-114850490D01*
X74947069Y-114877814D01*
X74950330Y-114894213D01*
X74972542Y-114927458D01*
X74989219Y-114938600D01*
X75005787Y-114949670D01*
X75005790Y-114949670D01*
X75005791Y-114949671D01*
X75015339Y-114951570D01*
X75035101Y-114955501D01*
X75604898Y-114955500D01*
X75634213Y-114949670D01*
X75667457Y-114927458D01*
X75689669Y-114894214D01*
X75689669Y-114894211D01*
X75691895Y-114890881D01*
X75745506Y-114846074D01*
X75814831Y-114837364D01*
X75877859Y-114867517D01*
X75898104Y-114890880D01*
X75922542Y-114927457D01*
X75939219Y-114938599D01*
X75955787Y-114949669D01*
X75955790Y-114949669D01*
X75955791Y-114949670D01*
X75965344Y-114951570D01*
X75985101Y-114955500D01*
X76554898Y-114955499D01*
X76584213Y-114949669D01*
X76617457Y-114927457D01*
X76639669Y-114894213D01*
X76645500Y-114864899D01*
X76645499Y-114295102D01*
X76639669Y-114265787D01*
X76639668Y-114265786D01*
X76617457Y-114232542D01*
X76592496Y-114215865D01*
X76584213Y-114210331D01*
X76584211Y-114210330D01*
X76584208Y-114210329D01*
X76567807Y-114207067D01*
X76505896Y-114174681D01*
X76471323Y-114113965D01*
X76468000Y-114085450D01*
X76468000Y-113660616D01*
X76468000Y-113660615D01*
X76437856Y-113587842D01*
X76382158Y-113532144D01*
X74442158Y-111592143D01*
X74390699Y-111570828D01*
X74390696Y-111570826D01*
X74376918Y-111565120D01*
X74369385Y-111562000D01*
X74369384Y-111562000D01*
X73035246Y-111562000D01*
X72968207Y-111542315D01*
X72927859Y-111500001D01*
X72866759Y-111394170D01*
X72755830Y-111283241D01*
X72619970Y-111204803D01*
X72619971Y-111204803D01*
X72585420Y-111195545D01*
X72468439Y-111164200D01*
X72311561Y-111164200D01*
X72197912Y-111194652D01*
X72160029Y-111204803D01*
X72024171Y-111283240D01*
X72024168Y-111283242D01*
X71913242Y-111394168D01*
X71913240Y-111394171D01*
X71834803Y-111530029D01*
X71823872Y-111570826D01*
X71794200Y-111681561D01*
X71794200Y-111838439D01*
X71834803Y-111989970D01*
X71913241Y-112125830D01*
X72024170Y-112236759D01*
X72160030Y-112315197D01*
X72311561Y-112355800D01*
X72311564Y-112355800D01*
X72468436Y-112355800D01*
X72468439Y-112355800D01*
X72619970Y-112315197D01*
X72755830Y-112236759D01*
X72866759Y-112125830D01*
X72927859Y-112019999D01*
X72978425Y-111971785D01*
X73035246Y-111958000D01*
X74196623Y-111958000D01*
X74263662Y-111977685D01*
X74284304Y-111994319D01*
X76035681Y-113745695D01*
X76069166Y-113807018D01*
X76072000Y-113833376D01*
X76072000Y-114085451D01*
X76052315Y-114152490D01*
X76022413Y-114184642D01*
X75995941Y-114204500D01*
X75985102Y-114204501D01*
X75955787Y-114210331D01*
X75922543Y-114232543D01*
X75900331Y-114265787D01*
X75897889Y-114278058D01*
X75869412Y-114299423D01*
X75855711Y-114304549D01*
X75844490Y-114313927D01*
X75823648Y-114316545D01*
X75803972Y-114323907D01*
X75789677Y-114320812D01*
X75775165Y-114322636D01*
X75756213Y-114313568D01*
X75735684Y-114309125D01*
X75725331Y-114298793D01*
X75712137Y-114292481D01*
X75691895Y-114269120D01*
X75689667Y-114265786D01*
X75684715Y-114258374D01*
X75667457Y-114232543D01*
X75637061Y-114212235D01*
X75634213Y-114210332D01*
X75634211Y-114210331D01*
X75634208Y-114210330D01*
X75604901Y-114204501D01*
X75035105Y-114204501D01*
X75035097Y-114204502D01*
X75005787Y-114210331D01*
X74972542Y-114232543D01*
X74950332Y-114265786D01*
X74950329Y-114265792D01*
X74947067Y-114282194D01*
X74914681Y-114344105D01*
X74853965Y-114378678D01*
X74825450Y-114382001D01*
X70963378Y-114382001D01*
X70896339Y-114362316D01*
X70875697Y-114345682D01*
X70295093Y-113765078D01*
X70295086Y-113765072D01*
X70209622Y-113679608D01*
X70066660Y-113536646D01*
X69884319Y-113354304D01*
X69850834Y-113292981D01*
X69848000Y-113266623D01*
X69848000Y-113103408D01*
X70374699Y-113103408D01*
X70403340Y-113247390D01*
X70403342Y-113247396D01*
X70459522Y-113383028D01*
X70459526Y-113383035D01*
X70511861Y-113461360D01*
X70511862Y-113461361D01*
X70785681Y-113187541D01*
X70825287Y-113256141D01*
X70893859Y-113324713D01*
X70962457Y-113364318D01*
X70688638Y-113638137D01*
X70688638Y-113638138D01*
X70766971Y-113690478D01*
X70902599Y-113746656D01*
X70902609Y-113746659D01*
X71046591Y-113775300D01*
X71193408Y-113775300D01*
X71337390Y-113746659D01*
X71337400Y-113746656D01*
X71473025Y-113690479D01*
X71473032Y-113690475D01*
X71551360Y-113638137D01*
X71277542Y-113364318D01*
X71346141Y-113324713D01*
X71414713Y-113256141D01*
X71454318Y-113187542D01*
X71728137Y-113461360D01*
X71780475Y-113383032D01*
X71780479Y-113383025D01*
X71836656Y-113247400D01*
X71836659Y-113247390D01*
X71865300Y-113103408D01*
X72914699Y-113103408D01*
X72943340Y-113247390D01*
X72943342Y-113247396D01*
X72999522Y-113383028D01*
X72999526Y-113383035D01*
X73051861Y-113461360D01*
X73051862Y-113461361D01*
X73325681Y-113187541D01*
X73365287Y-113256141D01*
X73433859Y-113324713D01*
X73502457Y-113364318D01*
X73228638Y-113638137D01*
X73228638Y-113638138D01*
X73306971Y-113690478D01*
X73442599Y-113746656D01*
X73442609Y-113746659D01*
X73586591Y-113775300D01*
X73733408Y-113775300D01*
X73877390Y-113746659D01*
X73877400Y-113746656D01*
X74013025Y-113690479D01*
X74013032Y-113690475D01*
X74091360Y-113638137D01*
X73817542Y-113364318D01*
X73886141Y-113324713D01*
X73954713Y-113256141D01*
X73994318Y-113187542D01*
X74268137Y-113461360D01*
X74320475Y-113383032D01*
X74320479Y-113383025D01*
X74376656Y-113247400D01*
X74376659Y-113247390D01*
X74405300Y-113103408D01*
X74405300Y-112956591D01*
X74376659Y-112812609D01*
X74376656Y-112812599D01*
X74320478Y-112676971D01*
X74268137Y-112598638D01*
X73994318Y-112872457D01*
X73954713Y-112803859D01*
X73886141Y-112735287D01*
X73817542Y-112695681D01*
X74091361Y-112421862D01*
X74091360Y-112421861D01*
X74013035Y-112369526D01*
X74013028Y-112369522D01*
X73877396Y-112313342D01*
X73877390Y-112313340D01*
X73733408Y-112284700D01*
X73586592Y-112284700D01*
X73442609Y-112313340D01*
X73442603Y-112313342D01*
X73306971Y-112369522D01*
X73306959Y-112369529D01*
X73228638Y-112421860D01*
X73228637Y-112421861D01*
X73502457Y-112695681D01*
X73433859Y-112735287D01*
X73365287Y-112803859D01*
X73325681Y-112872457D01*
X73051861Y-112598637D01*
X73051860Y-112598638D01*
X72999529Y-112676959D01*
X72999522Y-112676971D01*
X72943342Y-112812603D01*
X72943340Y-112812609D01*
X72914700Y-112956591D01*
X72914700Y-113103408D01*
X72914699Y-113103408D01*
X71865300Y-113103408D01*
X71865300Y-112956591D01*
X71836659Y-112812609D01*
X71836656Y-112812599D01*
X71780478Y-112676971D01*
X71728137Y-112598638D01*
X71454318Y-112872457D01*
X71414713Y-112803859D01*
X71346141Y-112735287D01*
X71277542Y-112695681D01*
X71551361Y-112421862D01*
X71551360Y-112421861D01*
X71473035Y-112369526D01*
X71473028Y-112369522D01*
X71337396Y-112313342D01*
X71337390Y-112313340D01*
X71193408Y-112284700D01*
X71046592Y-112284700D01*
X70902609Y-112313340D01*
X70902603Y-112313342D01*
X70766971Y-112369522D01*
X70766959Y-112369529D01*
X70688638Y-112421860D01*
X70688637Y-112421861D01*
X70962457Y-112695681D01*
X70893859Y-112735287D01*
X70825287Y-112803859D01*
X70785681Y-112872457D01*
X70511861Y-112598637D01*
X70511860Y-112598638D01*
X70459529Y-112676959D01*
X70459522Y-112676971D01*
X70403342Y-112812603D01*
X70403340Y-112812609D01*
X70374700Y-112956591D01*
X70374700Y-113103408D01*
X70374699Y-113103408D01*
X69848000Y-113103408D01*
X69848000Y-110563408D01*
X70374699Y-110563408D01*
X70403340Y-110707390D01*
X70403342Y-110707396D01*
X70459522Y-110843028D01*
X70459526Y-110843035D01*
X70511861Y-110921360D01*
X70511862Y-110921361D01*
X70785681Y-110647541D01*
X70825287Y-110716141D01*
X70893859Y-110784713D01*
X70962457Y-110824318D01*
X70688638Y-111098137D01*
X70688638Y-111098138D01*
X70766971Y-111150478D01*
X70902599Y-111206656D01*
X70902609Y-111206659D01*
X71046591Y-111235300D01*
X71193408Y-111235300D01*
X71337390Y-111206659D01*
X71337400Y-111206656D01*
X71473025Y-111150479D01*
X71473032Y-111150475D01*
X71551360Y-111098137D01*
X71277542Y-110824318D01*
X71346141Y-110784713D01*
X71414713Y-110716141D01*
X71454318Y-110647542D01*
X71728137Y-110921360D01*
X71780475Y-110843032D01*
X71780479Y-110843025D01*
X71836656Y-110707400D01*
X71836659Y-110707390D01*
X71865300Y-110563408D01*
X72914699Y-110563408D01*
X72943340Y-110707390D01*
X72943342Y-110707396D01*
X72999522Y-110843028D01*
X72999526Y-110843035D01*
X73051861Y-110921360D01*
X73051862Y-110921361D01*
X73325681Y-110647541D01*
X73365287Y-110716141D01*
X73433859Y-110784713D01*
X73502457Y-110824318D01*
X73228638Y-111098137D01*
X73228638Y-111098138D01*
X73306971Y-111150478D01*
X73442599Y-111206656D01*
X73442609Y-111206659D01*
X73586591Y-111235300D01*
X73733408Y-111235300D01*
X73877390Y-111206659D01*
X73877400Y-111206656D01*
X74013025Y-111150479D01*
X74013032Y-111150475D01*
X74091360Y-111098137D01*
X73817542Y-110824318D01*
X73886141Y-110784713D01*
X73954713Y-110716141D01*
X73994318Y-110647542D01*
X74268137Y-110921360D01*
X74320475Y-110843032D01*
X74320479Y-110843025D01*
X74376656Y-110707400D01*
X74376659Y-110707390D01*
X74405300Y-110563408D01*
X74405300Y-110416591D01*
X74376659Y-110272609D01*
X74376656Y-110272599D01*
X74320478Y-110136971D01*
X74268137Y-110058638D01*
X73994318Y-110332457D01*
X73954713Y-110263859D01*
X73886141Y-110195287D01*
X73817542Y-110155681D01*
X74091361Y-109881862D01*
X74091360Y-109881861D01*
X74013035Y-109829526D01*
X74013028Y-109829522D01*
X73877396Y-109773342D01*
X73877390Y-109773340D01*
X73733408Y-109744700D01*
X73586592Y-109744700D01*
X73442609Y-109773340D01*
X73442603Y-109773342D01*
X73306971Y-109829522D01*
X73306959Y-109829529D01*
X73228638Y-109881860D01*
X73228637Y-109881861D01*
X73502457Y-110155681D01*
X73433859Y-110195287D01*
X73365287Y-110263859D01*
X73325681Y-110332457D01*
X73051861Y-110058637D01*
X73051860Y-110058638D01*
X72999529Y-110136959D01*
X72999522Y-110136971D01*
X72943342Y-110272603D01*
X72943340Y-110272609D01*
X72914700Y-110416591D01*
X72914700Y-110563408D01*
X72914699Y-110563408D01*
X71865300Y-110563408D01*
X71865300Y-110416591D01*
X71836659Y-110272609D01*
X71836656Y-110272599D01*
X71780478Y-110136971D01*
X71728137Y-110058638D01*
X71454318Y-110332457D01*
X71414713Y-110263859D01*
X71346141Y-110195287D01*
X71277542Y-110155681D01*
X71551361Y-109881862D01*
X71551360Y-109881861D01*
X71473035Y-109829526D01*
X71473028Y-109829522D01*
X71337396Y-109773342D01*
X71337390Y-109773340D01*
X71193408Y-109744700D01*
X71046592Y-109744700D01*
X70902609Y-109773340D01*
X70902603Y-109773342D01*
X70766971Y-109829522D01*
X70766959Y-109829529D01*
X70688638Y-109881860D01*
X70688637Y-109881861D01*
X70962457Y-110155681D01*
X70893859Y-110195287D01*
X70825287Y-110263859D01*
X70785681Y-110332457D01*
X70511861Y-110058637D01*
X70511860Y-110058638D01*
X70459529Y-110136959D01*
X70459522Y-110136971D01*
X70403342Y-110272603D01*
X70403340Y-110272609D01*
X70374700Y-110416591D01*
X70374700Y-110563408D01*
X70374699Y-110563408D01*
X69848000Y-110563408D01*
X69848000Y-84203376D01*
X69867685Y-84136337D01*
X69884319Y-84115695D01*
X70365695Y-83634319D01*
X70427018Y-83600834D01*
X70453376Y-83598000D01*
X74526291Y-83598000D01*
X74593330Y-83617685D01*
X74629390Y-83653106D01*
X74652423Y-83687577D01*
X74702037Y-83720728D01*
X74727012Y-83737416D01*
X74727014Y-83737417D01*
X74792789Y-83750500D01*
X75087210Y-83750499D01*
X75152986Y-83737417D01*
X75227577Y-83687577D01*
X75277417Y-83612986D01*
X75290500Y-83547211D01*
X75290499Y-83252790D01*
X75277417Y-83187014D01*
X75227577Y-83112423D01*
X75167954Y-83072584D01*
X75152987Y-83062583D01*
X75131061Y-83058222D01*
X75087211Y-83049500D01*
X75087209Y-83049500D01*
X74792791Y-83049500D01*
X74727013Y-83062583D01*
X74727011Y-83062584D01*
X74652424Y-83112422D01*
X74652423Y-83112423D01*
X74629391Y-83146892D01*
X74575782Y-83191695D01*
X74526291Y-83202000D01*
X70280614Y-83202000D01*
X70207840Y-83232145D01*
X69482144Y-83957839D01*
X69482143Y-83957842D01*
X69460828Y-84009300D01*
X69452000Y-84030615D01*
X69037490Y-84030615D01*
X69037490Y-82409829D01*
X69037490Y-80290170D01*
X72709500Y-80290170D01*
X72709500Y-80389829D01*
X72737718Y-80457953D01*
X72747636Y-80481897D01*
X72818103Y-80552364D01*
X72910172Y-80590500D01*
X72910174Y-80590500D01*
X73009826Y-80590500D01*
X73009828Y-80590500D01*
X73101897Y-80552364D01*
X73101900Y-80552360D01*
X73108495Y-80547955D01*
X73175172Y-80527076D01*
X73242552Y-80545560D01*
X73258563Y-80557320D01*
X73271201Y-80568265D01*
X73295448Y-80604552D01*
X73361769Y-80648867D01*
X73365020Y-80649513D01*
X73378589Y-80661264D01*
X73393466Y-80684400D01*
X73411109Y-80705511D01*
X73412096Y-80713370D01*
X73416380Y-80720032D01*
X73416387Y-80747541D01*
X73419816Y-80774836D01*
X73416397Y-80781980D01*
X73416400Y-80789901D01*
X73401533Y-80813047D01*
X73389661Y-80837863D01*
X73380493Y-80845806D01*
X73378642Y-80848690D01*
X73375519Y-80850116D01*
X73366305Y-80858102D01*
X73295446Y-80905449D01*
X73292811Y-80909393D01*
X73239196Y-80954195D01*
X73169871Y-80962899D01*
X73120822Y-80943600D01*
X73111899Y-80937638D01*
X73111897Y-80937636D01*
X73043712Y-80909393D01*
X73019829Y-80899500D01*
X73019828Y-80899500D01*
X72920172Y-80899500D01*
X72920170Y-80899500D01*
X72828102Y-80937636D01*
X72757636Y-81008102D01*
X72719500Y-81100170D01*
X72719500Y-81199829D01*
X72741195Y-81252205D01*
X72757636Y-81291897D01*
X72828103Y-81362364D01*
X72920172Y-81400500D01*
X72920174Y-81400500D01*
X73019826Y-81400500D01*
X73019828Y-81400500D01*
X73111897Y-81362364D01*
X73111901Y-81362359D01*
X73120818Y-81356402D01*
X73187495Y-81335522D01*
X73254876Y-81354005D01*
X73266534Y-81362165D01*
X73281922Y-81374310D01*
X73295448Y-81394552D01*
X73361769Y-81438867D01*
X73364375Y-81439385D01*
X73378329Y-81450398D01*
X73395824Y-81475057D01*
X73415203Y-81498246D01*
X73415832Y-81503259D01*
X73418758Y-81507383D01*
X73420143Y-81537581D01*
X73423910Y-81567571D01*
X73421728Y-81572130D01*
X73421960Y-81577180D01*
X73406800Y-81603330D01*
X73393755Y-81630598D01*
X73389074Y-81633910D01*
X73386920Y-81637627D01*
X73375638Y-81643417D01*
X73361367Y-81653516D01*
X73361923Y-81654348D01*
X73285446Y-81705448D01*
X73276812Y-81714083D01*
X73275876Y-81713147D01*
X73232286Y-81749575D01*
X73162961Y-81758281D01*
X73113909Y-81738980D01*
X73111900Y-81737637D01*
X73019829Y-81699500D01*
X73019828Y-81699500D01*
X72920172Y-81699500D01*
X72920170Y-81699500D01*
X72828102Y-81737636D01*
X72757636Y-81808102D01*
X72719500Y-81900170D01*
X72719500Y-81999829D01*
X72741283Y-82052417D01*
X72757636Y-82091897D01*
X72828103Y-82162364D01*
X72920172Y-82200500D01*
X72920174Y-82200500D01*
X73019826Y-82200500D01*
X73019828Y-82200500D01*
X73111897Y-82162364D01*
X73111904Y-82162356D01*
X73113903Y-82161022D01*
X73118956Y-82159439D01*
X73123180Y-82157690D01*
X73123336Y-82158067D01*
X73180579Y-82140141D01*
X73247960Y-82158622D01*
X73276535Y-82186193D01*
X73276812Y-82185917D01*
X73285446Y-82194551D01*
X73351769Y-82238867D01*
X73351770Y-82238868D01*
X73410247Y-82250499D01*
X73410250Y-82250500D01*
X73410252Y-82250500D01*
X73749750Y-82250500D01*
X73749751Y-82250499D01*
X73764568Y-82247552D01*
X73808229Y-82238868D01*
X73808231Y-82238867D01*
X73856608Y-82206542D01*
X73923285Y-82185663D01*
X73990665Y-82204147D01*
X74037356Y-82256125D01*
X74049500Y-82309643D01*
X74049500Y-82399829D01*
X74078462Y-82469748D01*
X74087636Y-82491897D01*
X74158103Y-82562364D01*
X74250172Y-82600500D01*
X74250174Y-82600500D01*
X74349826Y-82600500D01*
X74349828Y-82600500D01*
X74441897Y-82562364D01*
X74441900Y-82562360D01*
X74452051Y-82555579D01*
X74453482Y-82557721D01*
X74499500Y-82532588D01*
X74569192Y-82537566D01*
X74625130Y-82579431D01*
X74628971Y-82584860D01*
X74635446Y-82594551D01*
X74701769Y-82638867D01*
X74701770Y-82638868D01*
X74760247Y-82650499D01*
X74760250Y-82650500D01*
X74760252Y-82650500D01*
X75099750Y-82650500D01*
X75099751Y-82650499D01*
X75114568Y-82647552D01*
X75158229Y-82638868D01*
X75158229Y-82638867D01*
X75158231Y-82638867D01*
X75224552Y-82594552D01*
X75268867Y-82528231D01*
X75268867Y-82528229D01*
X75268868Y-82528229D01*
X75280499Y-82469752D01*
X75280500Y-82469750D01*
X75280500Y-82230249D01*
X75280499Y-82230247D01*
X75268868Y-82171770D01*
X75268867Y-82171769D01*
X75224552Y-82105447D01*
X75148077Y-82054348D01*
X75150091Y-82051332D01*
X75112103Y-82020719D01*
X75090039Y-81954424D01*
X75107319Y-81886725D01*
X75149365Y-81847579D01*
X75148077Y-81845652D01*
X75224552Y-81794552D01*
X75243349Y-81766421D01*
X75268867Y-81728231D01*
X75268867Y-81728229D01*
X75268868Y-81728229D01*
X75280499Y-81669752D01*
X75280500Y-81669750D01*
X75280500Y-81430249D01*
X75280499Y-81430247D01*
X75268868Y-81371770D01*
X75268867Y-81371769D01*
X75224552Y-81305447D01*
X75148077Y-81254348D01*
X75150091Y-81251332D01*
X75112103Y-81220719D01*
X75090039Y-81154424D01*
X75107319Y-81086725D01*
X75149365Y-81047579D01*
X75148077Y-81045652D01*
X75224552Y-80994552D01*
X75242056Y-80968356D01*
X75268867Y-80928231D01*
X75268867Y-80928229D01*
X75268868Y-80928229D01*
X75278511Y-80879748D01*
X75280500Y-80869748D01*
X75280500Y-80630252D01*
X75280500Y-80630249D01*
X75280499Y-80630247D01*
X75268868Y-80571770D01*
X75268867Y-80571769D01*
X75224552Y-80505447D01*
X75148077Y-80454348D01*
X75149403Y-80452363D01*
X75108053Y-80419039D01*
X75085991Y-80352744D01*
X75103273Y-80285046D01*
X75141021Y-80245221D01*
X75150530Y-80238867D01*
X75150531Y-80238867D01*
X75216852Y-80194552D01*
X75261167Y-80128231D01*
X75261167Y-80128229D01*
X75261168Y-80128229D01*
X75270811Y-80079748D01*
X75272800Y-80069748D01*
X75272800Y-79830252D01*
X75272800Y-79830249D01*
X75272799Y-79830247D01*
X75261168Y-79771770D01*
X75261167Y-79771769D01*
X75216852Y-79705447D01*
X75140377Y-79654348D01*
X75141220Y-79653085D01*
X75097516Y-79617868D01*
X75075451Y-79551573D01*
X75092730Y-79483874D01*
X75130481Y-79444045D01*
X75138230Y-79438867D01*
X75138231Y-79438867D01*
X75204552Y-79394552D01*
X75248867Y-79328231D01*
X75248867Y-79328229D01*
X75248868Y-79328229D01*
X75260499Y-79269752D01*
X75260500Y-79269750D01*
X75260500Y-79030249D01*
X75260499Y-79030247D01*
X75248868Y-78971770D01*
X75248867Y-78971769D01*
X75204552Y-78905447D01*
X75128695Y-78854761D01*
X75083890Y-78801148D01*
X75075183Y-78731823D01*
X75105338Y-78668796D01*
X75128695Y-78648557D01*
X75194552Y-78604552D01*
X75204096Y-78590268D01*
X75238867Y-78538231D01*
X75238867Y-78538229D01*
X75238868Y-78538229D01*
X75250499Y-78479752D01*
X75250500Y-78479750D01*
X75250500Y-78240249D01*
X75250499Y-78240247D01*
X75238868Y-78181770D01*
X75238867Y-78181769D01*
X75194552Y-78115447D01*
X75118077Y-78064348D01*
X75120091Y-78061332D01*
X75082103Y-78030719D01*
X75060039Y-77964424D01*
X75077319Y-77896725D01*
X75119365Y-77857579D01*
X75118077Y-77855652D01*
X75194552Y-77804552D01*
X75238867Y-77738231D01*
X75238867Y-77738229D01*
X75238868Y-77738229D01*
X75249305Y-77685756D01*
X75250500Y-77679748D01*
X75250500Y-77440252D01*
X75250500Y-77440249D01*
X75250499Y-77440247D01*
X75238868Y-77381770D01*
X75238867Y-77381769D01*
X75194552Y-77315447D01*
X75137913Y-77277602D01*
X75093108Y-77223989D01*
X75084401Y-77154664D01*
X75114556Y-77091637D01*
X75173999Y-77054918D01*
X75206804Y-77050500D01*
X75289750Y-77050500D01*
X75289751Y-77050499D01*
X75304568Y-77047552D01*
X75348229Y-77038868D01*
X75348229Y-77038867D01*
X75348231Y-77038867D01*
X75414552Y-76994552D01*
X75458867Y-76928231D01*
X75458867Y-76928226D01*
X75460439Y-76924436D01*
X75504280Y-76870033D01*
X75570575Y-76847968D01*
X75638274Y-76865247D01*
X75685884Y-76916385D01*
X75689561Y-76924436D01*
X75691133Y-76928231D01*
X75735447Y-76994552D01*
X75801769Y-77038867D01*
X75801770Y-77038868D01*
X75860247Y-77050499D01*
X75860250Y-77050500D01*
X75860252Y-77050500D01*
X76099750Y-77050500D01*
X76099751Y-77050499D01*
X76114568Y-77047552D01*
X76158229Y-77038868D01*
X76158229Y-77038867D01*
X76158231Y-77038867D01*
X76224552Y-76994552D01*
X76268867Y-76928231D01*
X76268866Y-76928231D01*
X76275652Y-76918077D01*
X76278667Y-76920091D01*
X76309281Y-76882103D01*
X76375576Y-76860039D01*
X76443275Y-76877319D01*
X76482420Y-76919365D01*
X76484348Y-76918077D01*
X76535447Y-76994552D01*
X76601769Y-77038867D01*
X76601770Y-77038868D01*
X76660247Y-77050499D01*
X76660250Y-77050500D01*
X76660252Y-77050500D01*
X76899750Y-77050500D01*
X76899751Y-77050499D01*
X76914568Y-77047552D01*
X76958229Y-77038868D01*
X76958229Y-77038867D01*
X76958231Y-77038867D01*
X77024552Y-76994552D01*
X77068867Y-76928231D01*
X77068866Y-76928231D01*
X77075652Y-76918077D01*
X77078667Y-76920091D01*
X77109281Y-76882103D01*
X77175576Y-76860039D01*
X77243275Y-76877319D01*
X77282420Y-76919365D01*
X77284348Y-76918077D01*
X77335447Y-76994552D01*
X77401769Y-77038867D01*
X77401770Y-77038868D01*
X77460247Y-77050499D01*
X77460250Y-77050500D01*
X77460252Y-77050500D01*
X77699750Y-77050500D01*
X77699751Y-77050499D01*
X77714568Y-77047552D01*
X77758229Y-77038868D01*
X77758229Y-77038867D01*
X77758231Y-77038867D01*
X77824552Y-76994552D01*
X77868867Y-76928231D01*
X77868866Y-76928231D01*
X77871898Y-76923695D01*
X77925511Y-76878890D01*
X77994836Y-76870183D01*
X78057863Y-76900338D01*
X78078102Y-76923695D01*
X78125447Y-76994552D01*
X78191769Y-77038867D01*
X78191770Y-77038868D01*
X78250247Y-77050499D01*
X78250250Y-77050500D01*
X78250252Y-77050500D01*
X78489750Y-77050500D01*
X78489751Y-77050499D01*
X78504568Y-77047552D01*
X78548229Y-77038868D01*
X78548229Y-77038867D01*
X78548231Y-77038867D01*
X78614552Y-76994552D01*
X78658867Y-76928231D01*
X78658867Y-76928226D01*
X78660439Y-76924436D01*
X78704280Y-76870033D01*
X78770575Y-76847968D01*
X78838274Y-76865247D01*
X78885884Y-76916385D01*
X78889561Y-76924436D01*
X78891133Y-76928231D01*
X78935447Y-76994552D01*
X79001769Y-77038867D01*
X79001770Y-77038868D01*
X79060247Y-77050499D01*
X79060250Y-77050500D01*
X79060252Y-77050500D01*
X79299750Y-77050500D01*
X79299751Y-77050499D01*
X79314568Y-77047552D01*
X79358229Y-77038868D01*
X79358229Y-77038867D01*
X79358231Y-77038867D01*
X79424552Y-76994552D01*
X79468867Y-76928231D01*
X79468867Y-76928228D01*
X79474437Y-76919893D01*
X79528049Y-76875087D01*
X79597374Y-76866380D01*
X79660402Y-76896534D01*
X79680641Y-76919891D01*
X79723846Y-76984551D01*
X79790169Y-77028867D01*
X79790170Y-77028868D01*
X79848647Y-77040499D01*
X79848650Y-77040500D01*
X79848652Y-77040500D01*
X80088150Y-77040500D01*
X80088151Y-77040499D01*
X80102968Y-77037552D01*
X80146629Y-77028868D01*
X80146629Y-77028867D01*
X80146631Y-77028867D01*
X80212952Y-76984552D01*
X80257267Y-76918231D01*
X80257267Y-76918228D01*
X80257565Y-76917511D01*
X80258638Y-76916178D01*
X80264052Y-76908077D01*
X80264776Y-76908561D01*
X80301403Y-76863105D01*
X80367696Y-76841037D01*
X80435396Y-76858313D01*
X80483009Y-76909448D01*
X80486687Y-76917500D01*
X80491132Y-76928229D01*
X80535447Y-76994552D01*
X80601769Y-77038867D01*
X80601770Y-77038868D01*
X80660247Y-77050499D01*
X80660250Y-77050500D01*
X80660252Y-77050500D01*
X80899750Y-77050500D01*
X80899751Y-77050499D01*
X80914568Y-77047552D01*
X80958229Y-77038868D01*
X80958229Y-77038867D01*
X80958231Y-77038867D01*
X81024552Y-76994552D01*
X81068867Y-76928231D01*
X81068866Y-76928231D01*
X81071898Y-76923695D01*
X81125511Y-76878890D01*
X81194836Y-76870183D01*
X81257863Y-76900338D01*
X81278102Y-76923695D01*
X81325447Y-76994552D01*
X81391769Y-77038867D01*
X81391770Y-77038868D01*
X81450247Y-77050499D01*
X81450250Y-77050500D01*
X81450252Y-77050500D01*
X81689750Y-77050500D01*
X81689751Y-77050499D01*
X81704568Y-77047552D01*
X81748229Y-77038868D01*
X81748229Y-77038867D01*
X81748231Y-77038867D01*
X81814552Y-76994552D01*
X81858867Y-76928231D01*
X81858866Y-76928231D01*
X81865652Y-76918077D01*
X81869169Y-76920427D01*
X81898449Y-76884082D01*
X81964739Y-76862007D01*
X82032441Y-76879275D01*
X82070166Y-76919781D01*
X82072718Y-76918077D01*
X82123817Y-76994552D01*
X82190139Y-77038867D01*
X82190140Y-77038868D01*
X82248617Y-77050499D01*
X82248620Y-77050500D01*
X82268230Y-77050500D01*
X82335269Y-77070185D01*
X82381024Y-77122989D01*
X82390968Y-77192147D01*
X82361943Y-77255703D01*
X82337122Y-77277602D01*
X82295446Y-77305448D01*
X82251132Y-77371769D01*
X82251131Y-77371770D01*
X82239500Y-77430247D01*
X82239500Y-77669752D01*
X82251131Y-77728229D01*
X82251132Y-77728230D01*
X82295447Y-77794552D01*
X82371923Y-77845652D01*
X82370410Y-77847915D01*
X82410851Y-77880507D01*
X82432913Y-77946802D01*
X82415631Y-78014501D01*
X82364492Y-78062109D01*
X82352898Y-78066082D01*
X82353054Y-78066458D01*
X82341769Y-78071132D01*
X82275447Y-78115447D01*
X82231132Y-78181769D01*
X82231131Y-78181770D01*
X82219500Y-78240247D01*
X82219500Y-78479752D01*
X82231131Y-78538229D01*
X82231132Y-78538230D01*
X82275447Y-78604552D01*
X82351923Y-78655652D01*
X82349507Y-78659267D01*
X82385509Y-78688230D01*
X82407629Y-78754506D01*
X82390407Y-78822219D01*
X82339309Y-78869873D01*
X82330537Y-78872894D01*
X82330854Y-78873658D01*
X82319569Y-78878332D01*
X82253247Y-78922647D01*
X82208932Y-78988969D01*
X82208931Y-78988970D01*
X82197300Y-79047447D01*
X82197300Y-79286952D01*
X82208931Y-79345429D01*
X82208932Y-79345430D01*
X82253247Y-79411752D01*
X82280936Y-79430253D01*
X82319569Y-79456067D01*
X82327750Y-79461533D01*
X82372555Y-79515145D01*
X82381262Y-79584470D01*
X82351108Y-79647497D01*
X82327751Y-79667736D01*
X82256348Y-79715446D01*
X82212032Y-79781769D01*
X82212031Y-79781770D01*
X82200400Y-79840247D01*
X82200400Y-80079752D01*
X82212031Y-80138229D01*
X82212032Y-80138230D01*
X82256347Y-80204552D01*
X82332823Y-80255652D01*
X82330808Y-80258666D01*
X82368804Y-80289293D01*
X82390861Y-80355590D01*
X82373573Y-80423287D01*
X82331532Y-80462417D01*
X82332823Y-80464348D01*
X82256347Y-80515447D01*
X82212032Y-80581769D01*
X82212031Y-80581770D01*
X82200400Y-80640247D01*
X82200400Y-80879752D01*
X82212031Y-80938229D01*
X82212032Y-80938230D01*
X82249476Y-80994267D01*
X82256348Y-81004552D01*
X82265250Y-81010500D01*
X82327205Y-81051898D01*
X82372009Y-81105511D01*
X82380716Y-81174836D01*
X82350561Y-81237863D01*
X82327205Y-81258102D01*
X82256347Y-81305448D01*
X82212032Y-81371769D01*
X82212031Y-81371770D01*
X82200400Y-81430247D01*
X82200400Y-81669752D01*
X82212031Y-81728229D01*
X82212032Y-81728230D01*
X82256347Y-81794552D01*
X82332823Y-81845652D01*
X82331909Y-81847019D01*
X82375267Y-81881961D01*
X82397331Y-81948255D01*
X82380051Y-82015954D01*
X82328914Y-82063564D01*
X82320867Y-82067239D01*
X82311471Y-82071131D01*
X82245147Y-82115447D01*
X82200832Y-82181769D01*
X82200831Y-82181770D01*
X82189200Y-82240247D01*
X82189200Y-82479752D01*
X82200831Y-82538229D01*
X82200832Y-82538230D01*
X82245147Y-82604552D01*
X82311469Y-82648867D01*
X82311470Y-82648868D01*
X82369947Y-82660499D01*
X82369950Y-82660500D01*
X82369952Y-82660500D01*
X82709450Y-82660500D01*
X82709451Y-82660499D01*
X82724268Y-82657552D01*
X82767929Y-82648868D01*
X82767929Y-82648867D01*
X82767931Y-82648867D01*
X82834252Y-82604552D01*
X82840845Y-82594684D01*
X82894455Y-82549878D01*
X82963780Y-82541168D01*
X83017187Y-82566718D01*
X83017949Y-82565579D01*
X83025873Y-82570873D01*
X83026808Y-82571321D01*
X83027442Y-82571922D01*
X83028102Y-82572363D01*
X83028103Y-82572364D01*
X83120172Y-82610500D01*
X83120174Y-82610500D01*
X83219826Y-82610500D01*
X83219828Y-82610500D01*
X83311897Y-82572364D01*
X83382364Y-82501897D01*
X83420500Y-82409828D01*
X83420500Y-82310172D01*
X83382364Y-82218103D01*
X83311897Y-82147636D01*
X83298612Y-82142133D01*
X83219829Y-82109500D01*
X83219828Y-82109500D01*
X83120172Y-82109500D01*
X83120170Y-82109500D01*
X83028102Y-82147636D01*
X83017949Y-82154421D01*
X83016558Y-82152340D01*
X82970295Y-82177596D01*
X82900604Y-82172605D01*
X82867572Y-82154113D01*
X82851900Y-82141859D01*
X82834252Y-82115448D01*
X82767931Y-82071133D01*
X82759224Y-82069401D01*
X82740812Y-82055005D01*
X82729907Y-82039782D01*
X82715329Y-82028033D01*
X82709983Y-82011969D01*
X82700124Y-81998206D01*
X82699180Y-81979503D01*
X82693268Y-81961737D01*
X82697455Y-81945334D01*
X82696602Y-81928425D01*
X82705919Y-81912182D01*
X82710551Y-81894039D01*
X82722943Y-81882502D01*
X82731367Y-81867818D01*
X82747984Y-81859191D01*
X82761691Y-81846432D01*
X82769739Y-81842757D01*
X82779128Y-81838867D01*
X82779131Y-81838867D01*
X82845452Y-81794552D01*
X82847805Y-81791029D01*
X82901415Y-81746224D01*
X82970740Y-81737514D01*
X83019799Y-81756815D01*
X83028099Y-81762360D01*
X83028103Y-81762364D01*
X83120172Y-81800500D01*
X83120174Y-81800500D01*
X83219826Y-81800500D01*
X83219828Y-81800500D01*
X83311897Y-81762364D01*
X83382364Y-81691897D01*
X83382367Y-81691887D01*
X83385664Y-81686955D01*
X83394312Y-81679726D01*
X83398429Y-81671856D01*
X83398755Y-81653612D01*
X83402529Y-81643213D01*
X83407755Y-81630598D01*
X83418122Y-81605570D01*
X83420499Y-81599831D01*
X83420500Y-81599826D01*
X83420500Y-81500173D01*
X83420500Y-81500172D01*
X83382364Y-81408103D01*
X83311897Y-81337636D01*
X83289191Y-81328231D01*
X83219829Y-81299500D01*
X83219828Y-81299500D01*
X83120172Y-81299500D01*
X83120170Y-81299500D01*
X83028098Y-81337638D01*
X83019795Y-81343186D01*
X82953117Y-81364061D01*
X82885737Y-81345573D01*
X82873921Y-81337286D01*
X82858637Y-81325181D01*
X82845452Y-81305448D01*
X82779131Y-81261133D01*
X82777314Y-81260771D01*
X82766498Y-81252205D01*
X82749106Y-81227602D01*
X82729790Y-81204489D01*
X82729146Y-81199367D01*
X82726166Y-81195151D01*
X82724836Y-81165048D01*
X82721083Y-81135164D01*
X82723310Y-81130507D01*
X82723083Y-81125350D01*
X82738235Y-81099312D01*
X82751238Y-81072137D01*
X82756913Y-81067219D01*
X82758227Y-81064962D01*
X82761376Y-81063352D01*
X82774595Y-81051898D01*
X82836550Y-81010500D01*
X82845452Y-81004552D01*
X82847805Y-81001029D01*
X82901415Y-80956224D01*
X82970740Y-80947514D01*
X83019799Y-80966815D01*
X83028099Y-80972360D01*
X83028103Y-80972364D01*
X83120172Y-81010500D01*
X83120174Y-81010500D01*
X83219826Y-81010500D01*
X83219828Y-81010500D01*
X83311897Y-80972364D01*
X83382364Y-80901897D01*
X83382367Y-80901887D01*
X83382832Y-80901194D01*
X83384263Y-80899997D01*
X83391000Y-80893261D01*
X83391602Y-80893863D01*
X83405525Y-80882225D01*
X83404029Y-80877578D01*
X83409287Y-80857782D01*
X83409653Y-80837304D01*
X83413427Y-80826904D01*
X83420499Y-80809831D01*
X83420500Y-80809826D01*
X83420500Y-80710173D01*
X83420499Y-80710170D01*
X83404331Y-80671137D01*
X83382364Y-80618103D01*
X83311897Y-80547636D01*
X83289191Y-80538231D01*
X83219829Y-80509500D01*
X83219828Y-80509500D01*
X83120172Y-80509500D01*
X83120170Y-80509500D01*
X83028098Y-80547638D01*
X83019795Y-80553186D01*
X82953117Y-80574061D01*
X82885737Y-80555573D01*
X82874875Y-80548034D01*
X82858982Y-80535697D01*
X82845452Y-80515448D01*
X82779131Y-80471133D01*
X82774659Y-80470243D01*
X82758826Y-80457953D01*
X82747746Y-80442600D01*
X82733003Y-80430719D01*
X82727722Y-80414853D01*
X82717939Y-80401296D01*
X82716918Y-80382390D01*
X82710939Y-80364424D01*
X82715074Y-80348223D01*
X82714173Y-80331528D01*
X82723536Y-80315071D01*
X82728219Y-80296725D01*
X82740456Y-80285331D01*
X82748725Y-80270799D01*
X82765498Y-80262017D01*
X82770265Y-80257579D01*
X82768977Y-80255652D01*
X82825173Y-80218102D01*
X82845452Y-80204552D01*
X82845453Y-80204551D01*
X82854088Y-80195917D01*
X82856236Y-80198065D01*
X82895227Y-80165468D01*
X82964551Y-80156749D01*
X82996195Y-80169198D01*
X82996820Y-80167690D01*
X83008102Y-80172363D01*
X83008103Y-80172364D01*
X83100172Y-80210500D01*
X83100174Y-80210500D01*
X83199826Y-80210500D01*
X83199828Y-80210500D01*
X83291897Y-80172364D01*
X83362364Y-80101897D01*
X83400500Y-80009828D01*
X83400500Y-79910172D01*
X83362364Y-79818103D01*
X83291897Y-79747636D01*
X83288756Y-79746335D01*
X83199829Y-79709500D01*
X83199828Y-79709500D01*
X83100172Y-79709500D01*
X83100170Y-79709500D01*
X83052312Y-79729324D01*
X83008103Y-79747636D01*
X83008102Y-79747636D01*
X82996820Y-79752310D01*
X82995682Y-79749564D01*
X82946943Y-79764823D01*
X82879564Y-79746335D01*
X82870575Y-79740221D01*
X82853481Y-79727465D01*
X82845452Y-79715448D01*
X82779131Y-79671133D01*
X82777582Y-79670824D01*
X82765679Y-79661942D01*
X82746563Y-79636487D01*
X82726144Y-79612054D01*
X82725728Y-79608741D01*
X82723723Y-79606072D01*
X82721403Y-79574309D01*
X82717437Y-79542729D01*
X82718877Y-79539718D01*
X82718634Y-79536388D01*
X82733856Y-79508410D01*
X82747592Y-79479701D01*
X82751157Y-79476611D01*
X82752027Y-79475014D01*
X82754677Y-79473561D01*
X82770950Y-79459462D01*
X82842352Y-79411752D01*
X82850988Y-79403117D01*
X82853257Y-79405386D01*
X82891783Y-79373175D01*
X82961106Y-79364452D01*
X82996531Y-79378386D01*
X82996820Y-79377690D01*
X83008102Y-79382363D01*
X83008103Y-79382364D01*
X83100172Y-79420500D01*
X83100174Y-79420500D01*
X83199826Y-79420500D01*
X83199828Y-79420500D01*
X83291897Y-79382364D01*
X83362364Y-79311897D01*
X83400500Y-79219828D01*
X83400500Y-79120172D01*
X83362364Y-79028103D01*
X83291897Y-78957636D01*
X83278612Y-78952133D01*
X83199829Y-78919500D01*
X83199828Y-78919500D01*
X83100172Y-78919500D01*
X83100170Y-78919500D01*
X83045313Y-78942223D01*
X83008103Y-78957636D01*
X83008102Y-78957636D01*
X82996820Y-78962310D01*
X82995793Y-78959832D01*
X82946079Y-78975391D01*
X82878702Y-78956895D01*
X82868971Y-78950221D01*
X82852361Y-78937628D01*
X82842352Y-78922648D01*
X82776031Y-78878333D01*
X82773484Y-78877826D01*
X82759172Y-78866975D01*
X82747513Y-78851201D01*
X82732238Y-78838894D01*
X82727172Y-78823680D01*
X82717643Y-78810787D01*
X82716363Y-78791214D01*
X82710166Y-78772602D01*
X82714130Y-78757064D01*
X82713084Y-78741066D01*
X82722589Y-78723907D01*
X82727439Y-78704901D01*
X82739173Y-78693973D01*
X82746943Y-78679949D01*
X82764215Y-78670653D01*
X82778571Y-78657286D01*
X82787265Y-78654312D01*
X82786946Y-78653542D01*
X82798229Y-78648867D01*
X82798231Y-78648867D01*
X82864552Y-78604552D01*
X82864553Y-78604551D01*
X82873188Y-78595917D01*
X82876271Y-78599000D01*
X82911685Y-78569366D01*
X82981005Y-78560614D01*
X83008701Y-78568469D01*
X83018102Y-78572363D01*
X83018103Y-78572364D01*
X83110172Y-78610500D01*
X83110174Y-78610500D01*
X83209826Y-78610500D01*
X83209828Y-78610500D01*
X83301897Y-78572364D01*
X83372364Y-78501897D01*
X83410500Y-78409828D01*
X83410500Y-78310172D01*
X83410499Y-78310171D01*
X83409564Y-78305467D01*
X83408234Y-78303489D01*
X83408126Y-78298238D01*
X83408117Y-78298193D01*
X83408125Y-78298191D01*
X83407621Y-78273714D01*
X83404494Y-78244626D01*
X83380872Y-78226611D01*
X83301897Y-78147636D01*
X83209829Y-78109500D01*
X83209828Y-78109500D01*
X83110172Y-78109500D01*
X83110170Y-78109500D01*
X83110168Y-78109501D01*
X83008700Y-78151530D01*
X82939231Y-78158999D01*
X82889509Y-78138110D01*
X82870852Y-78124877D01*
X82864552Y-78115448D01*
X82798231Y-78071133D01*
X82793853Y-78070262D01*
X82779268Y-78059917D01*
X82765916Y-78043003D01*
X82749142Y-78029483D01*
X82744698Y-78016127D01*
X82735975Y-78005077D01*
X82733886Y-77983630D01*
X82727085Y-77963186D01*
X82730568Y-77949546D01*
X82729204Y-77935536D01*
X82739041Y-77916367D01*
X82744373Y-77895489D01*
X82754678Y-77885896D01*
X82761105Y-77873374D01*
X82779742Y-77862567D01*
X82792978Y-77850247D01*
X83585200Y-77850247D01*
X83585200Y-78089747D01*
X83590171Y-78114740D01*
X83586228Y-78158782D01*
X83605727Y-78170754D01*
X83619570Y-78182260D01*
X83641148Y-78214552D01*
X83707469Y-78258867D01*
X83713086Y-78259984D01*
X83730437Y-78274405D01*
X83769412Y-78332394D01*
X83770848Y-78402249D01*
X83734290Y-78461791D01*
X83720070Y-78472868D01*
X83656348Y-78515446D01*
X83612032Y-78581769D01*
X83612031Y-78581770D01*
X83600400Y-78640247D01*
X83600400Y-78879752D01*
X83612031Y-78938229D01*
X83612032Y-78938230D01*
X83656346Y-79004551D01*
X83724905Y-79050361D01*
X83769709Y-79103974D01*
X83778416Y-79173299D01*
X83748261Y-79236326D01*
X83724905Y-79256564D01*
X83651748Y-79305446D01*
X83607432Y-79371769D01*
X83607431Y-79371770D01*
X83595800Y-79430247D01*
X83595800Y-79669752D01*
X83607431Y-79728229D01*
X83607432Y-79728230D01*
X83651747Y-79794552D01*
X83686992Y-79818102D01*
X83718069Y-79838867D01*
X83718072Y-79838867D01*
X83721747Y-79840390D01*
X83776151Y-79884230D01*
X83798217Y-79950524D01*
X83780939Y-80018224D01*
X83729802Y-80065835D01*
X83722855Y-80069008D01*
X83656347Y-80113447D01*
X83612032Y-80179769D01*
X83612031Y-80179770D01*
X83600400Y-80238247D01*
X83600400Y-80477752D01*
X83608377Y-80517860D01*
X83608380Y-80517867D01*
X83612033Y-80536231D01*
X83624243Y-80554505D01*
X83624244Y-80554506D01*
X83654308Y-80599500D01*
X83656348Y-80602552D01*
X83712762Y-80640247D01*
X83728702Y-80650898D01*
X83773506Y-80704511D01*
X83782213Y-80773836D01*
X83752058Y-80836863D01*
X83743419Y-80845573D01*
X83727409Y-80860190D01*
X83722669Y-80861133D01*
X83656348Y-80905448D01*
X83622720Y-80955773D01*
X83611596Y-80965931D01*
X83606630Y-80968356D01*
X83607557Y-80994267D01*
X83600400Y-81030250D01*
X83600400Y-81269748D01*
X83606647Y-81301161D01*
X83606649Y-81301165D01*
X83612033Y-81328231D01*
X83656348Y-81394552D01*
X83659060Y-81396364D01*
X83732823Y-81445652D01*
X83730808Y-81448666D01*
X83768804Y-81479293D01*
X83790861Y-81545590D01*
X83773573Y-81613287D01*
X83751806Y-81640408D01*
X83731625Y-81659351D01*
X83722669Y-81661133D01*
X83656348Y-81705448D01*
X83612308Y-81771355D01*
X83610776Y-81772795D01*
X83610389Y-81780028D01*
X83600400Y-81830250D01*
X83600400Y-82069752D01*
X83610764Y-82121854D01*
X83610765Y-82121856D01*
X83612033Y-82128231D01*
X83615867Y-82133969D01*
X83615869Y-82133973D01*
X83656347Y-82194552D01*
X83722669Y-82238867D01*
X83722670Y-82238868D01*
X83781147Y-82250499D01*
X83781150Y-82250500D01*
X83781152Y-82250500D01*
X84120650Y-82250500D01*
X84120651Y-82250499D01*
X84135468Y-82247552D01*
X84179129Y-82238868D01*
X84179129Y-82238867D01*
X84179131Y-82238867D01*
X84245452Y-82194552D01*
X84245453Y-82194551D01*
X84254088Y-82185917D01*
X84255123Y-82186952D01*
X84298330Y-82150843D01*
X84367655Y-82142133D01*
X84416717Y-82161437D01*
X84418100Y-82162361D01*
X84418103Y-82162364D01*
X84510172Y-82200500D01*
X84510174Y-82200500D01*
X84609826Y-82200500D01*
X84609828Y-82200500D01*
X84701897Y-82162364D01*
X84772364Y-82091897D01*
X84810500Y-81999828D01*
X84810500Y-81900172D01*
X84772364Y-81808103D01*
X84701897Y-81737636D01*
X84679189Y-81728230D01*
X84609829Y-81699500D01*
X84609828Y-81699500D01*
X84510172Y-81699500D01*
X84510170Y-81699500D01*
X84418101Y-81737637D01*
X84416711Y-81738566D01*
X84413220Y-81739658D01*
X84406820Y-81742310D01*
X84406582Y-81741737D01*
X84350033Y-81759442D01*
X84282653Y-81740956D01*
X84273009Y-81734350D01*
X84256335Y-81721735D01*
X84245452Y-81705448D01*
X84179131Y-81661133D01*
X84175197Y-81660350D01*
X84160046Y-81648888D01*
X84148330Y-81633070D01*
X84133003Y-81620719D01*
X84127961Y-81605570D01*
X84118460Y-81592743D01*
X84117155Y-81573101D01*
X84110939Y-81554424D01*
X84114887Y-81538956D01*
X84113829Y-81523027D01*
X84123350Y-81505797D01*
X84128219Y-81486725D01*
X84139902Y-81475847D01*
X84147625Y-81461874D01*
X84164950Y-81452527D01*
X84170265Y-81447579D01*
X84168977Y-81445652D01*
X84236550Y-81400500D01*
X84245452Y-81394552D01*
X84245453Y-81394551D01*
X84254088Y-81385917D01*
X84255123Y-81386952D01*
X84298330Y-81350843D01*
X84367655Y-81342133D01*
X84416717Y-81361437D01*
X84418100Y-81362361D01*
X84418103Y-81362364D01*
X84510172Y-81400500D01*
X84510174Y-81400500D01*
X84609826Y-81400500D01*
X84609828Y-81400500D01*
X84701897Y-81362364D01*
X84772364Y-81291897D01*
X84810500Y-81199828D01*
X84810500Y-81100172D01*
X84772364Y-81008103D01*
X84701897Y-80937636D01*
X84679189Y-80928230D01*
X84609829Y-80899500D01*
X84609828Y-80899500D01*
X84510172Y-80899500D01*
X84510170Y-80899500D01*
X84440811Y-80928230D01*
X84427548Y-80933724D01*
X84418101Y-80937637D01*
X84416711Y-80938566D01*
X84413220Y-80939658D01*
X84406820Y-80942310D01*
X84406582Y-80941737D01*
X84350033Y-80959442D01*
X84282653Y-80940956D01*
X84272189Y-80933724D01*
X84256040Y-80921293D01*
X84245452Y-80905448D01*
X84179131Y-80861133D01*
X84177444Y-80860797D01*
X84166355Y-80852262D01*
X84148142Y-80827241D01*
X84128293Y-80803490D01*
X84127758Y-80799237D01*
X84125237Y-80795773D01*
X84123442Y-80764873D01*
X84119586Y-80734165D01*
X84121435Y-80730299D01*
X84121187Y-80726021D01*
X84136382Y-80699058D01*
X84149741Y-80671137D01*
X84154386Y-80667111D01*
X84155491Y-80665152D01*
X84158459Y-80663582D01*
X84173098Y-80650898D01*
X84189038Y-80640247D01*
X84245452Y-80602552D01*
X84245453Y-80602551D01*
X84254088Y-80593917D01*
X84255456Y-80595285D01*
X84297406Y-80560225D01*
X84366731Y-80551516D01*
X84415791Y-80570818D01*
X84418098Y-80572359D01*
X84418103Y-80572364D01*
X84510172Y-80610500D01*
X84510174Y-80610500D01*
X84609826Y-80610500D01*
X84609828Y-80610500D01*
X84701897Y-80572364D01*
X84772364Y-80501897D01*
X84810500Y-80409828D01*
X84810500Y-80310172D01*
X84772364Y-80218103D01*
X84701897Y-80147636D01*
X84679189Y-80138230D01*
X84609829Y-80109500D01*
X84609828Y-80109500D01*
X84510172Y-80109500D01*
X84510170Y-80109500D01*
X84418098Y-80147638D01*
X84417632Y-80147950D01*
X84416460Y-80148316D01*
X84406820Y-80152310D01*
X84406462Y-80151446D01*
X84350953Y-80168825D01*
X84283574Y-80150337D01*
X84275669Y-80145024D01*
X84257880Y-80132047D01*
X84245452Y-80113448D01*
X84179131Y-80069133D01*
X84168821Y-80067082D01*
X84149826Y-80053226D01*
X84137192Y-80036776D01*
X84121046Y-80023765D01*
X84116341Y-80009630D01*
X84107266Y-79997814D01*
X84105530Y-79977147D01*
X84098982Y-79957471D01*
X84102666Y-79943035D01*
X84101420Y-79928190D01*
X84111132Y-79909867D01*
X84116262Y-79889772D01*
X84127166Y-79879619D01*
X84134144Y-79866457D01*
X84152220Y-79856294D01*
X84167400Y-79842162D01*
X84174347Y-79838989D01*
X84174528Y-79838867D01*
X84174531Y-79838867D01*
X84240852Y-79794552D01*
X84241537Y-79793526D01*
X84243617Y-79791787D01*
X84249488Y-79785917D01*
X84250012Y-79786441D01*
X84295143Y-79748720D01*
X84364468Y-79740007D01*
X84413533Y-79759310D01*
X84418102Y-79762363D01*
X84418103Y-79762364D01*
X84510172Y-79800500D01*
X84510174Y-79800500D01*
X84609826Y-79800500D01*
X84609828Y-79800500D01*
X84701897Y-79762364D01*
X84772364Y-79691897D01*
X84810500Y-79599828D01*
X84810500Y-79500172D01*
X84772364Y-79408103D01*
X84701897Y-79337636D01*
X84679189Y-79328230D01*
X84609829Y-79299500D01*
X84609828Y-79299500D01*
X84510172Y-79299500D01*
X84510170Y-79299500D01*
X84418098Y-79337638D01*
X84413528Y-79340692D01*
X84346850Y-79361567D01*
X84279471Y-79343080D01*
X84268170Y-79335198D01*
X84252558Y-79322967D01*
X84240852Y-79305448D01*
X84174531Y-79261133D01*
X84173324Y-79260893D01*
X84164714Y-79254147D01*
X84147012Y-79229385D01*
X84127490Y-79206025D01*
X84126888Y-79201235D01*
X84124081Y-79197308D01*
X84122576Y-79166904D01*
X84118783Y-79136700D01*
X84120866Y-79132345D01*
X84120628Y-79127524D01*
X84135797Y-79101137D01*
X84148938Y-79073672D01*
X84154216Y-79069098D01*
X84155451Y-79066951D01*
X84158543Y-79065349D01*
X84172296Y-79053434D01*
X84210208Y-79028102D01*
X84245452Y-79004552D01*
X84245453Y-79004551D01*
X84254088Y-78995917D01*
X84255123Y-78996952D01*
X84298330Y-78960843D01*
X84367655Y-78952133D01*
X84416717Y-78971437D01*
X84418100Y-78972361D01*
X84418103Y-78972364D01*
X84510172Y-79010500D01*
X84510174Y-79010500D01*
X84609826Y-79010500D01*
X84609828Y-79010500D01*
X84701897Y-78972364D01*
X84772364Y-78901897D01*
X84810500Y-78809828D01*
X84810500Y-78710172D01*
X84772364Y-78618103D01*
X84701897Y-78547636D01*
X84679189Y-78538230D01*
X84609829Y-78509500D01*
X84609828Y-78509500D01*
X84510172Y-78509500D01*
X84510170Y-78509500D01*
X84418101Y-78547637D01*
X84416711Y-78548566D01*
X84413220Y-78549658D01*
X84406820Y-78552310D01*
X84406582Y-78551737D01*
X84350033Y-78569442D01*
X84282653Y-78550956D01*
X84272902Y-78544269D01*
X84256296Y-78531677D01*
X84245452Y-78515448D01*
X84179131Y-78471133D01*
X84175496Y-78470409D01*
X84160500Y-78459039D01*
X84148835Y-78443255D01*
X84133554Y-78430937D01*
X84128495Y-78415732D01*
X84118974Y-78402848D01*
X84117694Y-78383264D01*
X84111499Y-78364640D01*
X84115464Y-78349113D01*
X84114420Y-78333127D01*
X84123930Y-78315961D01*
X84128788Y-78296943D01*
X84142458Y-78282522D01*
X84148282Y-78272012D01*
X84156732Y-78267465D01*
X84166529Y-78257131D01*
X84230252Y-78214552D01*
X84234444Y-78208278D01*
X84288054Y-78163474D01*
X84357378Y-78154765D01*
X84406237Y-78178140D01*
X84407949Y-78175579D01*
X84418102Y-78182363D01*
X84418103Y-78182364D01*
X84510172Y-78220500D01*
X84510174Y-78220500D01*
X84609826Y-78220500D01*
X84609828Y-78220500D01*
X84701897Y-78182364D01*
X84772364Y-78111897D01*
X84810500Y-78019828D01*
X84810500Y-77920172D01*
X84772364Y-77828103D01*
X84701897Y-77757636D01*
X84676789Y-77747236D01*
X84609829Y-77719500D01*
X84609828Y-77719500D01*
X84510172Y-77719500D01*
X84510170Y-77719500D01*
X84418102Y-77757636D01*
X84407949Y-77764421D01*
X84405760Y-77761145D01*
X84363864Y-77784005D01*
X84294174Y-77778997D01*
X84238254Y-77737108D01*
X84234444Y-77731721D01*
X84230252Y-77725447D01*
X84163930Y-77681132D01*
X84163929Y-77681131D01*
X84105452Y-77669500D01*
X84105448Y-77669500D01*
X83765952Y-77669500D01*
X83765947Y-77669500D01*
X83707470Y-77681131D01*
X83707469Y-77681132D01*
X83641147Y-77725447D01*
X83596875Y-77791704D01*
X83596838Y-77791734D01*
X83585200Y-77850247D01*
X82792978Y-77850247D01*
X82795516Y-77847885D01*
X82807101Y-77843916D01*
X82806946Y-77843542D01*
X82818229Y-77838867D01*
X82818231Y-77838867D01*
X82884552Y-77794552D01*
X82884556Y-77794545D01*
X82887838Y-77791265D01*
X82949160Y-77757778D01*
X83018852Y-77762759D01*
X83022954Y-77764373D01*
X83110172Y-77800500D01*
X83110174Y-77800500D01*
X83209826Y-77800500D01*
X83209828Y-77800500D01*
X83301897Y-77762364D01*
X83372364Y-77691897D01*
X83372365Y-77691893D01*
X83373928Y-77689556D01*
X83375394Y-77688330D01*
X83375440Y-77685756D01*
X83379206Y-77675377D01*
X83410500Y-77599828D01*
X83410500Y-77500172D01*
X83372364Y-77408103D01*
X83301897Y-77337636D01*
X83250508Y-77316350D01*
X83209829Y-77299500D01*
X83209828Y-77299500D01*
X83110172Y-77299500D01*
X83110170Y-77299500D01*
X83110168Y-77299501D01*
X83022975Y-77335617D01*
X82953506Y-77343086D01*
X82891027Y-77311810D01*
X82887842Y-77308737D01*
X82884553Y-77305448D01*
X82818230Y-77261132D01*
X82818229Y-77261131D01*
X82759752Y-77249500D01*
X82759748Y-77249500D01*
X82640140Y-77249500D01*
X82573101Y-77229815D01*
X82527346Y-77177011D01*
X82517402Y-77107853D01*
X82546427Y-77044297D01*
X82571248Y-77022398D01*
X82612923Y-76994551D01*
X82627626Y-76972545D01*
X82657237Y-76928231D01*
X82657237Y-76928229D01*
X82657238Y-76928229D01*
X82666975Y-76879275D01*
X82668870Y-76869748D01*
X82668870Y-76530252D01*
X82668870Y-76530249D01*
X82668869Y-76530247D01*
X82657238Y-76471770D01*
X82657237Y-76471769D01*
X82612921Y-76405446D01*
X82607855Y-76400380D01*
X82574370Y-76339057D01*
X82579354Y-76269365D01*
X82580976Y-76265245D01*
X82582362Y-76261898D01*
X82582364Y-76261897D01*
X82613948Y-76185644D01*
X82620499Y-76169831D01*
X82620499Y-76169829D01*
X82620500Y-76169828D01*
X82620500Y-76070172D01*
X82582364Y-75978103D01*
X82511897Y-75907636D01*
X82487755Y-75897636D01*
X82419829Y-75869500D01*
X82419828Y-75869500D01*
X82356371Y-75869500D01*
X82289332Y-75849815D01*
X82243577Y-75797011D01*
X82233633Y-75727853D01*
X82253270Y-75676608D01*
X82258867Y-75668231D01*
X82258868Y-75668229D01*
X82270499Y-75609752D01*
X82270500Y-75609750D01*
X82270500Y-75270249D01*
X82270499Y-75270247D01*
X82258868Y-75211770D01*
X82258867Y-75211769D01*
X82214551Y-75145446D01*
X82210610Y-75142813D01*
X82165805Y-75089200D01*
X82157099Y-75019875D01*
X82176402Y-74970818D01*
X82182359Y-74961901D01*
X82182364Y-74961897D01*
X82220500Y-74869828D01*
X82220500Y-74770172D01*
X82182364Y-74678103D01*
X82111897Y-74607636D01*
X82019829Y-74569500D01*
X82019828Y-74569500D01*
X81920172Y-74569500D01*
X81920170Y-74569500D01*
X81828102Y-74607636D01*
X81757636Y-74678102D01*
X81719500Y-74770170D01*
X81719500Y-74869829D01*
X81738568Y-74915862D01*
X81757636Y-74961897D01*
X81757638Y-74961899D01*
X81763600Y-74970822D01*
X81784477Y-75037500D01*
X81765992Y-75104880D01*
X81758368Y-75115851D01*
X81746054Y-75131678D01*
X81725448Y-75145448D01*
X81681133Y-75211769D01*
X81680234Y-75216285D01*
X81667871Y-75232178D01*
X81652553Y-75243207D01*
X81640707Y-75257904D01*
X81624787Y-75263200D01*
X81611171Y-75273005D01*
X81592321Y-75274001D01*
X81574410Y-75279961D01*
X81558151Y-75275808D01*
X81541398Y-75276695D01*
X81525003Y-75267343D01*
X81506713Y-75262673D01*
X81495280Y-75250390D01*
X81480707Y-75242078D01*
X81471969Y-75225346D01*
X81467582Y-75220632D01*
X81465652Y-75221923D01*
X81414551Y-75145446D01*
X81410610Y-75142813D01*
X81365805Y-75089200D01*
X81357099Y-75019875D01*
X81376402Y-74970818D01*
X81382359Y-74961901D01*
X81382364Y-74961897D01*
X81420500Y-74869828D01*
X81420500Y-74770172D01*
X81382364Y-74678103D01*
X81311897Y-74607636D01*
X81219829Y-74569500D01*
X81219828Y-74569500D01*
X81120172Y-74569500D01*
X81120170Y-74569500D01*
X81028102Y-74607636D01*
X80957636Y-74678102D01*
X80919500Y-74770170D01*
X80919500Y-74869829D01*
X80938568Y-74915862D01*
X80957636Y-74961897D01*
X80957638Y-74961899D01*
X80963600Y-74970822D01*
X80984477Y-75037500D01*
X80965992Y-75104880D01*
X80957616Y-75116809D01*
X80945537Y-75132024D01*
X80925448Y-75145448D01*
X80881133Y-75211769D01*
X80880765Y-75213618D01*
X80872119Y-75224510D01*
X80847555Y-75241832D01*
X80824489Y-75261109D01*
X80819296Y-75261761D01*
X80815020Y-75264777D01*
X80784987Y-75266070D01*
X80755164Y-75269816D01*
X80750444Y-75267557D01*
X80745215Y-75267783D01*
X80719248Y-75252632D01*
X80692137Y-75239661D01*
X80687146Y-75233902D01*
X80684867Y-75232572D01*
X80683256Y-75229413D01*
X80671898Y-75216305D01*
X80624549Y-75145444D01*
X80615917Y-75136812D01*
X80616852Y-75135876D01*
X80580426Y-75092292D01*
X80571717Y-75022967D01*
X80591022Y-74973903D01*
X80592356Y-74971904D01*
X80592364Y-74971897D01*
X80630500Y-74879828D01*
X80630500Y-74780172D01*
X80592364Y-74688103D01*
X80521897Y-74617636D01*
X80497755Y-74607636D01*
X80429829Y-74579500D01*
X80429828Y-74579500D01*
X80330172Y-74579500D01*
X80330170Y-74579500D01*
X80238102Y-74617636D01*
X80167636Y-74688102D01*
X80129500Y-74780170D01*
X80129500Y-74879829D01*
X80167637Y-74971900D01*
X80168980Y-74973909D01*
X80170560Y-74978955D01*
X80172310Y-74983180D01*
X80171931Y-74983336D01*
X80189858Y-75040586D01*
X80171373Y-75107966D01*
X80166259Y-75115597D01*
X80153224Y-75133569D01*
X80135448Y-75145448D01*
X80091133Y-75211769D01*
X80089099Y-75221991D01*
X80075381Y-75240908D01*
X80058836Y-75253688D01*
X80045717Y-75269968D01*
X80031742Y-75274618D01*
X80020088Y-75283622D01*
X79999258Y-75285429D01*
X79979422Y-75292031D01*
X79965153Y-75288388D01*
X79950480Y-75289662D01*
X79931979Y-75279920D01*
X79911724Y-75274750D01*
X79901689Y-75263971D01*
X79888657Y-75257109D01*
X79878359Y-75238912D01*
X79864115Y-75223611D01*
X79860440Y-75215566D01*
X79858867Y-75211770D01*
X79858867Y-75211769D01*
X79814552Y-75145448D01*
X79814551Y-75145446D01*
X79810610Y-75142813D01*
X79765805Y-75089200D01*
X79757099Y-75019875D01*
X79776402Y-74970818D01*
X79782359Y-74961901D01*
X79782364Y-74961897D01*
X79820500Y-74869828D01*
X79820500Y-74770172D01*
X79782364Y-74678103D01*
X79711897Y-74607636D01*
X79619829Y-74569500D01*
X79619828Y-74569500D01*
X79520172Y-74569500D01*
X79520170Y-74569500D01*
X79428102Y-74607636D01*
X79357636Y-74678102D01*
X79319500Y-74770170D01*
X79319500Y-74869829D01*
X79338568Y-74915862D01*
X79357636Y-74961897D01*
X79357638Y-74961899D01*
X79363600Y-74970822D01*
X79384477Y-75037500D01*
X79365992Y-75104880D01*
X79358368Y-75115851D01*
X79346054Y-75131678D01*
X79325448Y-75145448D01*
X79281133Y-75211769D01*
X79280234Y-75216285D01*
X79267871Y-75232178D01*
X79252553Y-75243207D01*
X79240707Y-75257904D01*
X79224787Y-75263200D01*
X79211171Y-75273005D01*
X79192321Y-75274001D01*
X79174410Y-75279961D01*
X79158151Y-75275808D01*
X79141398Y-75276695D01*
X79125003Y-75267343D01*
X79106713Y-75262673D01*
X79095280Y-75250390D01*
X79080707Y-75242078D01*
X79071969Y-75225346D01*
X79067582Y-75220632D01*
X79065652Y-75221923D01*
X79014551Y-75145446D01*
X79010610Y-75142813D01*
X78965805Y-75089200D01*
X78957099Y-75019875D01*
X78976402Y-74970818D01*
X78982359Y-74961901D01*
X78982364Y-74961897D01*
X79020500Y-74869828D01*
X79020500Y-74770172D01*
X78982364Y-74678103D01*
X78911897Y-74607636D01*
X78819829Y-74569500D01*
X78819828Y-74569500D01*
X78720172Y-74569500D01*
X78720170Y-74569500D01*
X78628102Y-74607636D01*
X78557636Y-74678102D01*
X78519500Y-74770170D01*
X78519500Y-74869829D01*
X78538568Y-74915862D01*
X78557636Y-74961897D01*
X78557638Y-74961899D01*
X78563600Y-74970822D01*
X78584477Y-75037500D01*
X78565992Y-75104880D01*
X78559994Y-75113714D01*
X78547203Y-75130911D01*
X78525448Y-75145448D01*
X78481133Y-75211769D01*
X78478967Y-75222656D01*
X78464497Y-75242112D01*
X78448379Y-75254255D01*
X78435717Y-75269968D01*
X78421045Y-75274850D01*
X78408694Y-75284157D01*
X78388568Y-75285658D01*
X78369422Y-75292031D01*
X78354438Y-75288206D01*
X78339018Y-75289357D01*
X78321277Y-75279741D01*
X78301724Y-75274750D01*
X78291187Y-75263432D01*
X78277591Y-75256063D01*
X78267863Y-75238378D01*
X78254115Y-75223611D01*
X78250440Y-75215566D01*
X78248867Y-75211770D01*
X78248867Y-75211769D01*
X78204552Y-75145448D01*
X78204551Y-75145446D01*
X78200610Y-75142813D01*
X78155805Y-75089200D01*
X78147099Y-75019875D01*
X78166402Y-74970818D01*
X78172359Y-74961901D01*
X78172364Y-74961897D01*
X78210500Y-74869828D01*
X78210500Y-74770172D01*
X78172364Y-74678103D01*
X78101897Y-74607636D01*
X78009829Y-74569500D01*
X78009828Y-74569500D01*
X77910172Y-74569500D01*
X77910170Y-74569500D01*
X77818102Y-74607636D01*
X77747636Y-74678102D01*
X77709500Y-74770170D01*
X77709500Y-74869829D01*
X77728568Y-74915862D01*
X77747636Y-74961897D01*
X77747638Y-74961899D01*
X77753600Y-74970822D01*
X77774477Y-75037500D01*
X77755992Y-75104880D01*
X77748368Y-75115851D01*
X77736054Y-75131678D01*
X77715448Y-75145448D01*
X77671133Y-75211769D01*
X77670234Y-75216285D01*
X77657871Y-75232178D01*
X77642553Y-75243207D01*
X77630707Y-75257904D01*
X77614787Y-75263200D01*
X77601171Y-75273005D01*
X77582321Y-75274001D01*
X77564410Y-75279961D01*
X77548151Y-75275808D01*
X77531398Y-75276695D01*
X77515003Y-75267343D01*
X77496713Y-75262673D01*
X77485280Y-75250390D01*
X77470707Y-75242078D01*
X77461969Y-75225346D01*
X77457582Y-75220632D01*
X77455652Y-75221923D01*
X77404551Y-75145446D01*
X77400610Y-75142813D01*
X77355805Y-75089200D01*
X77347099Y-75019875D01*
X77366402Y-74970818D01*
X77372359Y-74961901D01*
X77372364Y-74961897D01*
X77410500Y-74869828D01*
X77410500Y-74770172D01*
X77372364Y-74678103D01*
X77301897Y-74607636D01*
X77209829Y-74569500D01*
X77209828Y-74569500D01*
X77110172Y-74569500D01*
X77110170Y-74569500D01*
X77018102Y-74607636D01*
X76947636Y-74678102D01*
X76909500Y-74770170D01*
X76909500Y-74869829D01*
X76928568Y-74915862D01*
X76947636Y-74961897D01*
X76947638Y-74961899D01*
X76953600Y-74970822D01*
X76974477Y-75037500D01*
X76955992Y-75104880D01*
X76947616Y-75116809D01*
X76935537Y-75132024D01*
X76915448Y-75145448D01*
X76871133Y-75211769D01*
X76870765Y-75213618D01*
X76862119Y-75224510D01*
X76837555Y-75241832D01*
X76814489Y-75261109D01*
X76809296Y-75261761D01*
X76805020Y-75264777D01*
X76774987Y-75266070D01*
X76745164Y-75269816D01*
X76740444Y-75267557D01*
X76735215Y-75267783D01*
X76709248Y-75252632D01*
X76682137Y-75239661D01*
X76677146Y-75233902D01*
X76674867Y-75232572D01*
X76673256Y-75229413D01*
X76661898Y-75216305D01*
X76656125Y-75207665D01*
X76614552Y-75145448D01*
X76614550Y-75145447D01*
X76614550Y-75145446D01*
X76610610Y-75142813D01*
X76565805Y-75089200D01*
X76557099Y-75019875D01*
X76576402Y-74970818D01*
X76582359Y-74961901D01*
X76582364Y-74961897D01*
X76620500Y-74869828D01*
X76620500Y-74770172D01*
X76582364Y-74678103D01*
X76511897Y-74607636D01*
X76419829Y-74569500D01*
X76419828Y-74569500D01*
X76320172Y-74569500D01*
X76320170Y-74569500D01*
X76228102Y-74607636D01*
X76157636Y-74678102D01*
X76119500Y-74770170D01*
X76119500Y-74869829D01*
X76138568Y-74915862D01*
X76157636Y-74961897D01*
X76157638Y-74961899D01*
X76163600Y-74970822D01*
X76184477Y-75037500D01*
X76165992Y-75104880D01*
X76158368Y-75115851D01*
X76146054Y-75131678D01*
X76125448Y-75145448D01*
X76081133Y-75211769D01*
X76080234Y-75216285D01*
X76067871Y-75232178D01*
X76052553Y-75243207D01*
X76040707Y-75257904D01*
X76024787Y-75263200D01*
X76011171Y-75273005D01*
X75992321Y-75274001D01*
X75974410Y-75279961D01*
X75958151Y-75275808D01*
X75941398Y-75276695D01*
X75925003Y-75267343D01*
X75906713Y-75262673D01*
X75895280Y-75250390D01*
X75880707Y-75242078D01*
X75871969Y-75225346D01*
X75867582Y-75220632D01*
X75865652Y-75221923D01*
X75814551Y-75145446D01*
X75810610Y-75142813D01*
X75765805Y-75089200D01*
X75757099Y-75019875D01*
X75776402Y-74970818D01*
X75782359Y-74961901D01*
X75782364Y-74961897D01*
X75820500Y-74869828D01*
X75820500Y-74770172D01*
X75782364Y-74678103D01*
X75711897Y-74607636D01*
X75619829Y-74569500D01*
X75619828Y-74569500D01*
X75520172Y-74569500D01*
X75520170Y-74569500D01*
X75428102Y-74607636D01*
X75357636Y-74678102D01*
X75319500Y-74770170D01*
X75319500Y-74869829D01*
X75338568Y-74915862D01*
X75357636Y-74961897D01*
X75357638Y-74961899D01*
X75363600Y-74970822D01*
X75384477Y-75037500D01*
X75365992Y-75104880D01*
X75329393Y-75142811D01*
X75325448Y-75145447D01*
X75281132Y-75211769D01*
X75281131Y-75211770D01*
X75269500Y-75270247D01*
X75269500Y-75609752D01*
X75281131Y-75668229D01*
X75281132Y-75668231D01*
X75286730Y-75676608D01*
X75307609Y-75743285D01*
X75289125Y-75810666D01*
X75237147Y-75857356D01*
X75183629Y-75869500D01*
X75120170Y-75869500D01*
X75028102Y-75907636D01*
X74957636Y-75978102D01*
X74919500Y-76070170D01*
X74919500Y-76169829D01*
X74958546Y-76264094D01*
X74966015Y-76333564D01*
X74934740Y-76396043D01*
X74931669Y-76399225D01*
X74925449Y-76405444D01*
X74881132Y-76471769D01*
X74881131Y-76471770D01*
X74869500Y-76530247D01*
X74869500Y-76869752D01*
X74881131Y-76928229D01*
X74881132Y-76928230D01*
X74925447Y-76994552D01*
X74982087Y-77032398D01*
X75026892Y-77086011D01*
X75035599Y-77155336D01*
X75005444Y-77218363D01*
X74946001Y-77255082D01*
X74913196Y-77259500D01*
X74730247Y-77259500D01*
X74671770Y-77271131D01*
X74671769Y-77271132D01*
X74605443Y-77315450D01*
X74605081Y-77315813D01*
X74604097Y-77316350D01*
X74595293Y-77322233D01*
X74594766Y-77321444D01*
X74543756Y-77349295D01*
X74474065Y-77344306D01*
X74469953Y-77342688D01*
X74389831Y-77309501D01*
X74389829Y-77309500D01*
X74389828Y-77309500D01*
X74290172Y-77309500D01*
X74290170Y-77309500D01*
X74198102Y-77347636D01*
X74127636Y-77418102D01*
X74089500Y-77510170D01*
X74089500Y-77510172D01*
X74089500Y-77609828D01*
X74127636Y-77701897D01*
X74198103Y-77772364D01*
X74290172Y-77810500D01*
X74290174Y-77810500D01*
X74389826Y-77810500D01*
X74389828Y-77810500D01*
X74469954Y-77777310D01*
X74539421Y-77769842D01*
X74587877Y-77789844D01*
X74602257Y-77799776D01*
X74605448Y-77804552D01*
X74671769Y-77848867D01*
X74673959Y-77849302D01*
X74686511Y-77857972D01*
X74700543Y-77875299D01*
X74717904Y-77889293D01*
X74722106Y-77901924D01*
X74730484Y-77912269D01*
X74732921Y-77934430D01*
X74739961Y-77955590D01*
X74736666Y-77968489D01*
X74738122Y-77981720D01*
X74728190Y-78001681D01*
X74722673Y-78023287D01*
X74712928Y-78032356D01*
X74706999Y-78044275D01*
X74687850Y-78055699D01*
X74680632Y-78062417D01*
X74681923Y-78064348D01*
X74605443Y-78115450D01*
X74605081Y-78115813D01*
X74604097Y-78116350D01*
X74595293Y-78122233D01*
X74594766Y-78121444D01*
X74543756Y-78149295D01*
X74474065Y-78144306D01*
X74469953Y-78142688D01*
X74389831Y-78109501D01*
X74389829Y-78109500D01*
X74389828Y-78109500D01*
X74290172Y-78109500D01*
X74290170Y-78109500D01*
X74198103Y-78147636D01*
X74123759Y-78221980D01*
X74062435Y-78255464D01*
X73992744Y-78250480D01*
X73936810Y-78208608D01*
X73912394Y-78143143D01*
X73914460Y-78110109D01*
X73920500Y-78079748D01*
X73920500Y-77840252D01*
X73908867Y-77781769D01*
X73864552Y-77715448D01*
X73864550Y-77715447D01*
X73864550Y-77715446D01*
X73798230Y-77671132D01*
X73798229Y-77671131D01*
X73739752Y-77659500D01*
X73739748Y-77659500D01*
X73400252Y-77659500D01*
X73400247Y-77659500D01*
X73341770Y-77671131D01*
X73341769Y-77671132D01*
X73275447Y-77715448D01*
X73272154Y-77718741D01*
X73210829Y-77752223D01*
X73141138Y-77747236D01*
X73137024Y-77745617D01*
X73049831Y-77709501D01*
X73049829Y-77709500D01*
X73049828Y-77709500D01*
X72950172Y-77709500D01*
X72950170Y-77709500D01*
X72858102Y-77747636D01*
X72787636Y-77818102D01*
X72749500Y-77910170D01*
X72749500Y-78009829D01*
X72771155Y-78062109D01*
X72787636Y-78101897D01*
X72858103Y-78172364D01*
X72950172Y-78210500D01*
X72950174Y-78210500D01*
X73049826Y-78210500D01*
X73049828Y-78210500D01*
X73137025Y-78174381D01*
X73206492Y-78166913D01*
X73253516Y-78185941D01*
X73270715Y-78197469D01*
X73275448Y-78204552D01*
X73341769Y-78248867D01*
X73349771Y-78250458D01*
X73366720Y-78261819D01*
X73381524Y-78279586D01*
X73399535Y-78294099D01*
X73403471Y-78305924D01*
X73411447Y-78315496D01*
X73414295Y-78338444D01*
X73421601Y-78360392D01*
X73418519Y-78372467D01*
X73420054Y-78384833D01*
X73410042Y-78405680D01*
X73404323Y-78428092D01*
X73394101Y-78438876D01*
X73389808Y-78447817D01*
X73379768Y-78453998D01*
X73366572Y-78467922D01*
X73295447Y-78515447D01*
X73286812Y-78524083D01*
X73285876Y-78523147D01*
X73242286Y-78559575D01*
X73172961Y-78568281D01*
X73123909Y-78548980D01*
X73121900Y-78547637D01*
X73029829Y-78509500D01*
X73029828Y-78509500D01*
X72930172Y-78509500D01*
X72930170Y-78509500D01*
X72838102Y-78547636D01*
X72767636Y-78618102D01*
X72729500Y-78710170D01*
X72729500Y-78809829D01*
X72758462Y-78879748D01*
X72767636Y-78901897D01*
X72838103Y-78972364D01*
X72930172Y-79010500D01*
X72930174Y-79010500D01*
X73029826Y-79010500D01*
X73029828Y-79010500D01*
X73121897Y-78972364D01*
X73121904Y-78972356D01*
X73123903Y-78971022D01*
X73128956Y-78969439D01*
X73133180Y-78967690D01*
X73133336Y-78968067D01*
X73190579Y-78950141D01*
X73257960Y-78968622D01*
X73268643Y-78976020D01*
X73284654Y-78988398D01*
X73295448Y-79004552D01*
X73361769Y-79048867D01*
X73363248Y-79049161D01*
X73373257Y-79056899D01*
X73391346Y-79081862D01*
X73411109Y-79105511D01*
X73411659Y-79109895D01*
X73414254Y-79113476D01*
X73415975Y-79144255D01*
X73419816Y-79174836D01*
X73417908Y-79178823D01*
X73418155Y-79183237D01*
X73402962Y-79210060D01*
X73389661Y-79237863D01*
X73384860Y-79242022D01*
X73383722Y-79244033D01*
X73380715Y-79245614D01*
X73366305Y-79258102D01*
X73295446Y-79305449D01*
X73292811Y-79309393D01*
X73239196Y-79354195D01*
X73169871Y-79362899D01*
X73120822Y-79343600D01*
X73111899Y-79337638D01*
X73111897Y-79337636D01*
X73063767Y-79317700D01*
X73019829Y-79299500D01*
X73019828Y-79299500D01*
X72920172Y-79299500D01*
X72920170Y-79299500D01*
X72828102Y-79337636D01*
X72757636Y-79408102D01*
X72719500Y-79500170D01*
X72719500Y-79599829D01*
X72744217Y-79659500D01*
X72757636Y-79691897D01*
X72828103Y-79762364D01*
X72920172Y-79800500D01*
X72920174Y-79800500D01*
X73019826Y-79800500D01*
X73019828Y-79800500D01*
X73111897Y-79762364D01*
X73111901Y-79762359D01*
X73120818Y-79756402D01*
X73187495Y-79735522D01*
X73254876Y-79754005D01*
X73263714Y-79760005D01*
X73280910Y-79772794D01*
X73295448Y-79794552D01*
X73361769Y-79838867D01*
X73372656Y-79841032D01*
X73392112Y-79855503D01*
X73404255Y-79871619D01*
X73419968Y-79884283D01*
X73424851Y-79898955D01*
X73434157Y-79911307D01*
X73435658Y-79931431D01*
X73442031Y-79950578D01*
X73438206Y-79965561D01*
X73439357Y-79980982D01*
X73429741Y-79998722D01*
X73424750Y-80018276D01*
X73413432Y-80028812D01*
X73406063Y-80042409D01*
X73388378Y-80052136D01*
X73373611Y-80065885D01*
X73365566Y-80069560D01*
X73361768Y-80071133D01*
X73295446Y-80115448D01*
X73286812Y-80124083D01*
X73285486Y-80122757D01*
X73243363Y-80157957D01*
X73174038Y-80166660D01*
X73111012Y-80136501D01*
X73106200Y-80131939D01*
X73101897Y-80127636D01*
X73009829Y-80089500D01*
X73009828Y-80089500D01*
X72910172Y-80089500D01*
X72910170Y-80089500D01*
X72818102Y-80127636D01*
X72747636Y-80198102D01*
X72709500Y-80290170D01*
X69037490Y-80290170D01*
X69037490Y-80277959D01*
X69037489Y-77070185D01*
X69037489Y-73872828D01*
X69037684Y-73865876D01*
X69038664Y-73848432D01*
X69055094Y-73555864D01*
X69056648Y-73542067D01*
X69108077Y-73239380D01*
X69111165Y-73225849D01*
X69196162Y-72930816D01*
X69200752Y-72917702D01*
X69246980Y-72806098D01*
X69318242Y-72634054D01*
X69324261Y-72621555D01*
X69472783Y-72352827D01*
X69480161Y-72341084D01*
X69657841Y-72090668D01*
X69666492Y-72079822D01*
X69735265Y-72002866D01*
X69871070Y-71850899D01*
X69880901Y-71841069D01*
X70109826Y-71636488D01*
X70120668Y-71627841D01*
X70371084Y-71450161D01*
X70382827Y-71442783D01*
X70651555Y-71294261D01*
X70664054Y-71288242D01*
X70947709Y-71170749D01*
X70960816Y-71166162D01*
X71255849Y-71081165D01*
X71269380Y-71078077D01*
X71572067Y-71026648D01*
X71585864Y-71025094D01*
X71895881Y-71007683D01*
X71902827Y-71007489D01*
X85624204Y-71008139D01*
G37*
%TD.AperFunction*%
%TD*%
M02*
