%TF.GenerationSoftware,KiCad,Pcbnew,9.0.0*%
%TF.CreationDate,2025-03-31T10:14:12-07:00*%
%TF.ProjectId,optical_pcb_v2,6f707469-6361-46c5-9f70-63625f76322e,V1*%
%TF.SameCoordinates,Original*%
%TF.FileFunction,Soldermask,Bot*%
%TF.FilePolarity,Negative*%
%FSLAX46Y46*%
G04 Gerber Fmt 4.6, Leading zero omitted, Abs format (unit mm)*
G04 Created by KiCad (PCBNEW 9.0.0) date 2025-03-31 10:14:12*
%MOMM*%
%LPD*%
G01*
G04 APERTURE LIST*
%ADD10C,0.100000*%
%ADD11C,0.990600*%
%ADD12C,3.000000*%
%ADD13C,5.000000*%
%ADD14R,0.300000X0.670000*%
%ADD15R,0.300000X0.500000*%
%ADD16R,0.350000X1.000000*%
G04 APERTURE END LIST*
D10*
X68370000Y-70200000D02*
X89749016Y-70200000D01*
X89749016Y-85566466D01*
X68370000Y-85566466D01*
X68370000Y-70200000D01*
G36*
X68370000Y-70200000D02*
G01*
X89749016Y-70200000D01*
X89749016Y-85566466D01*
X68370000Y-85566466D01*
X68370000Y-70200000D01*
G37*
X68380984Y-89460000D02*
X89760000Y-89460000D01*
X89760000Y-131396466D01*
X68380984Y-131396466D01*
X68380984Y-89460000D01*
G36*
X68380984Y-89460000D02*
G01*
X89760000Y-89460000D01*
X89760000Y-131396466D01*
X68380984Y-131396466D01*
X68380984Y-89460000D01*
G37*
X85630000Y-85566466D02*
X89150000Y-85566466D01*
X89150000Y-89790000D01*
X85630000Y-89790000D01*
X85630000Y-85566466D01*
G36*
X85630000Y-85566466D02*
G01*
X89150000Y-85566466D01*
X89150000Y-89790000D01*
X85630000Y-89790000D01*
X85630000Y-85566466D01*
G37*
X68370000Y-85566466D02*
X71890000Y-85566466D01*
X71890000Y-89790000D01*
X68370000Y-89790000D01*
X68370000Y-85566466D01*
G36*
X68370000Y-85566466D02*
G01*
X71890000Y-85566466D01*
X71890000Y-89790000D01*
X68370000Y-89790000D01*
X68370000Y-85566466D01*
G37*
D11*
%TO.C,SMP3*%
X72390000Y-104140000D03*
X71120000Y-105410000D03*
X73660000Y-105410000D03*
X73660000Y-102870000D03*
X71120000Y-102870000D03*
%TD*%
%TO.C,SMP2*%
X85090000Y-104140000D03*
X83820000Y-105410000D03*
X86360000Y-105410000D03*
X86360000Y-102870000D03*
X83820000Y-102870000D03*
%TD*%
D12*
%TO.C,*%
X85795000Y-125660000D03*
%TD*%
D13*
%TO.C,*%
X84780000Y-120800000D03*
%TD*%
D12*
%TO.C,*%
X71740000Y-125660000D03*
%TD*%
D11*
%TO.C,SMP4*%
X72390000Y-111760000D03*
X71120000Y-113030000D03*
X73660000Y-113030000D03*
X73660000Y-110490000D03*
X71120000Y-110490000D03*
%TD*%
D12*
%TO.C,*%
X71740000Y-73510000D03*
%TD*%
D11*
%TO.C,SMP1*%
X85090000Y-111760000D03*
X83820000Y-113030000D03*
X86360000Y-113030000D03*
X86360000Y-110490000D03*
X83820000Y-110490000D03*
%TD*%
D12*
%TO.C,*%
X85790000Y-73510000D03*
%TD*%
D13*
%TO.C,*%
X72740000Y-120760000D03*
%TD*%
D14*
%TO.C,ZIF1*%
X86291600Y-135885000D03*
D15*
X85991600Y-132820000D03*
D14*
X85691600Y-135885000D03*
D15*
X85391600Y-132820000D03*
D14*
X85091600Y-135885000D03*
D15*
X84791600Y-132820000D03*
D14*
X84491600Y-135885000D03*
D15*
X84191600Y-132820000D03*
D14*
X83891600Y-135885000D03*
D15*
X83591600Y-132820000D03*
D14*
X83291600Y-135885000D03*
D15*
X82991600Y-132820000D03*
D14*
X82691600Y-135885000D03*
D15*
X82391600Y-132820000D03*
D14*
X82091600Y-135885000D03*
D15*
X81791600Y-132820000D03*
D14*
X81491600Y-135885000D03*
D15*
X81191600Y-132820000D03*
D14*
X80891600Y-135885000D03*
D15*
X80591600Y-132820000D03*
D14*
X80291600Y-135885000D03*
D15*
X79991600Y-132820000D03*
D14*
X79691600Y-135885000D03*
D15*
X79391600Y-132820000D03*
D14*
X79091600Y-135885000D03*
D15*
X78791600Y-132820000D03*
D14*
X78491600Y-135885000D03*
D15*
X78191600Y-132820000D03*
D14*
X77891600Y-135885000D03*
D15*
X77591600Y-132820000D03*
D14*
X77291600Y-135885000D03*
D15*
X76991600Y-132820000D03*
D14*
X76691600Y-135885000D03*
D15*
X76391600Y-132820000D03*
D14*
X76091600Y-135885000D03*
D15*
X75791600Y-132820000D03*
D14*
X75491600Y-135885000D03*
D15*
X75191600Y-132820000D03*
D14*
X74891600Y-135885000D03*
D15*
X74591600Y-132820000D03*
D14*
X74291600Y-135885000D03*
D15*
X73991600Y-132820000D03*
D14*
X73691600Y-135885000D03*
D15*
X73391600Y-132820000D03*
D14*
X73091600Y-135885000D03*
D15*
X72791600Y-132820000D03*
D14*
X72491600Y-135885000D03*
D15*
X72191600Y-132820000D03*
D14*
X71891600Y-135885000D03*
D15*
X71591600Y-132820000D03*
D14*
X71291600Y-135885000D03*
D16*
X87266600Y-135620000D03*
X70316600Y-135620000D03*
%TD*%
M02*
