%TF.GenerationSoftware,KiCad,Pcbnew,9.0.0*%
%TF.CreationDate,2025-03-31T10:14:12-07:00*%
%TF.ProjectId,optical_pcb_v2,6f707469-6361-46c5-9f70-63625f76322e,V1*%
%TF.SameCoordinates,Original*%
%TF.FileFunction,Copper,L2,Inr*%
%TF.FilePolarity,Positive*%
%FSLAX46Y46*%
G04 Gerber Fmt 4.6, Leading zero omitted, Abs format (unit mm)*
G04 Created by KiCad (PCBNEW 9.0.0) date 2025-03-31 10:14:12*
%MOMM*%
%LPD*%
G01*
G04 APERTURE LIST*
%TA.AperFunction,ComponentPad*%
%ADD10C,0.990600*%
%TD*%
%TA.AperFunction,ComponentPad*%
%ADD11C,3.000000*%
%TD*%
%TA.AperFunction,ComponentPad*%
%ADD12C,5.000000*%
%TD*%
%TA.AperFunction,ViaPad*%
%ADD13C,0.300000*%
%TD*%
%TA.AperFunction,ViaPad*%
%ADD14C,0.400000*%
%TD*%
%TA.AperFunction,Conductor*%
%ADD15C,0.100000*%
%TD*%
G04 APERTURE END LIST*
D10*
%TO.N,Net-(C3-Pad1)*%
%TO.C,SMP3*%
X72390000Y-104140000D03*
%TO.N,GND*%
X71120000Y-105410000D03*
X73660000Y-105410000D03*
X73660000Y-102870000D03*
X71120000Y-102870000D03*
%TD*%
%TO.N,Net-(C2-Pad1)*%
%TO.C,SMP2*%
X85090000Y-104140000D03*
%TO.N,GND*%
X83820000Y-105410000D03*
X86360000Y-105410000D03*
X86360000Y-102870000D03*
X83820000Y-102870000D03*
%TD*%
D11*
%TO.N,GND*%
%TO.C,*%
X85795000Y-125660000D03*
%TD*%
D12*
%TO.N,GND*%
%TO.C,*%
X84780000Y-120800000D03*
%TD*%
D11*
%TO.N,GND*%
%TO.C,*%
X71740000Y-125660000D03*
%TD*%
D10*
%TO.N,Net-(C4-Pad1)*%
%TO.C,SMP4*%
X72390000Y-111760000D03*
%TO.N,GND*%
X71120000Y-113030000D03*
X73660000Y-113030000D03*
X73660000Y-110490000D03*
X71120000Y-110490000D03*
%TD*%
D11*
%TO.N,GND*%
%TO.C,*%
X71740000Y-73510000D03*
%TD*%
D10*
%TO.N,Net-(C1-Pad1)*%
%TO.C,SMP1*%
X85090000Y-111760000D03*
%TO.N,GND*%
X83820000Y-113030000D03*
X86360000Y-113030000D03*
X86360000Y-110490000D03*
X83820000Y-110490000D03*
%TD*%
D11*
%TO.N,GND*%
%TO.C,*%
X85790000Y-73510000D03*
%TD*%
D12*
%TO.N,GND*%
%TO.C,*%
X72740000Y-120760000D03*
%TD*%
D13*
%TO.N,31*%
X77290000Y-135160000D03*
X84560000Y-80360000D03*
X77291600Y-131508896D03*
%TO.N,32*%
X84560000Y-79550000D03*
%TO.N,33*%
X84560000Y-78760000D03*
X76691600Y-131492614D03*
X76690000Y-135150000D03*
%TO.N,34*%
X84560000Y-77970000D03*
%TO.N,35*%
X81970000Y-74820000D03*
X76090000Y-135160000D03*
X76091600Y-131490000D03*
%TO.N,36*%
X81170000Y-74820000D03*
%TO.N,37*%
X80380000Y-74830000D03*
X75490000Y-135120000D03*
X75491600Y-131500000D03*
%TO.N,39*%
X78770000Y-74820000D03*
X74891600Y-131516715D03*
X74890000Y-135130000D03*
%TO.N,40*%
X77960000Y-74820000D03*
D14*
%TO.N,GND*%
X87460000Y-82220000D03*
D13*
X69280000Y-96030000D03*
X87750000Y-84070000D03*
D14*
X86537800Y-111734600D03*
D13*
X70010000Y-86270000D03*
X83660000Y-83760000D03*
X84940000Y-84170000D03*
X70920000Y-108000000D03*
D14*
X88000000Y-117550000D03*
X69460000Y-74220000D03*
D13*
X70030000Y-90990000D03*
X86600000Y-115570000D03*
X71430000Y-97810000D03*
X86030000Y-107960000D03*
X87490000Y-102210000D03*
X73640000Y-83000000D03*
D14*
X69960000Y-72220000D03*
D13*
X88200000Y-88550000D03*
D14*
X76311200Y-125069800D03*
X87910000Y-132070000D03*
D13*
X84500000Y-83760000D03*
X70220000Y-107460000D03*
X69280000Y-102430000D03*
X83000000Y-108080000D03*
X72360000Y-83000000D03*
X88230000Y-107610000D03*
X88200000Y-93150000D03*
X69300000Y-110620000D03*
X87470000Y-98120000D03*
D14*
X70550000Y-127510000D03*
X69960000Y-80720000D03*
X69460000Y-76220000D03*
D13*
X72130000Y-115380000D03*
D14*
X81810000Y-118230000D03*
D13*
X86200000Y-97600000D03*
X70700000Y-96180000D03*
X86760000Y-104560000D03*
D14*
X87460000Y-77220000D03*
D13*
X71420000Y-91120000D03*
D14*
X87960000Y-128720000D03*
D13*
X69750000Y-114060000D03*
X70690000Y-100420000D03*
D14*
X72190000Y-117730000D03*
D13*
X88220000Y-104250000D03*
X86960000Y-100250000D03*
D14*
X87361200Y-127669800D03*
D13*
X70030000Y-90560000D03*
X69280000Y-104920000D03*
X74420000Y-108870000D03*
X82780000Y-108850000D03*
D14*
X73486635Y-75193317D03*
X74938800Y-123500200D03*
D13*
X87450000Y-109280000D03*
D14*
X84800000Y-123830000D03*
D13*
X70000000Y-106200000D03*
X84900000Y-83020000D03*
X86940000Y-87770000D03*
X84630000Y-84900000D03*
D14*
X81601800Y-120454400D03*
D13*
X86950000Y-94830000D03*
X87470000Y-94350000D03*
X69880000Y-83260000D03*
X72180000Y-83750000D03*
X71510000Y-108630000D03*
X88220000Y-106760000D03*
X87470000Y-93530000D03*
X82820000Y-112570000D03*
D14*
X87960000Y-81720000D03*
D13*
X83180000Y-107340000D03*
X86550000Y-106310000D03*
X87480000Y-86380000D03*
X70000000Y-104970000D03*
X86950000Y-94410000D03*
X69300000Y-92490000D03*
D14*
X79960000Y-72720000D03*
D13*
X69280000Y-99870000D03*
X69300000Y-90380000D03*
X84100000Y-108850000D03*
X74110000Y-107320000D03*
X69300000Y-93350000D03*
X72800000Y-116030000D03*
X82900000Y-116210000D03*
X69300000Y-111090000D03*
X85210000Y-114220000D03*
X84840000Y-107340000D03*
X86940000Y-89370000D03*
D14*
X69460000Y-80220000D03*
D13*
X88200000Y-91450000D03*
X86170000Y-87600000D03*
D14*
X71145400Y-111709200D03*
D13*
X70730000Y-106590000D03*
D14*
X81911800Y-121374400D03*
D13*
X87460000Y-91800000D03*
X88250000Y-110940000D03*
X70040000Y-94020000D03*
X70660000Y-82990000D03*
X71900000Y-84140000D03*
D14*
X69960000Y-81720000D03*
D13*
X88210000Y-112620000D03*
X69280000Y-106920000D03*
X71170000Y-101210000D03*
X88200000Y-91850000D03*
X73140000Y-108100000D03*
D14*
X82950000Y-102120000D03*
D13*
X85690000Y-114220000D03*
X82020000Y-116210000D03*
X69300000Y-113320000D03*
X81450000Y-105400000D03*
X70010000Y-87590000D03*
D14*
X71460000Y-76220000D03*
D13*
X86190000Y-94670000D03*
X82450000Y-116980000D03*
X86930000Y-115260000D03*
X72820000Y-107320000D03*
X70000000Y-103730000D03*
X73050000Y-114930000D03*
X83290000Y-106590000D03*
D14*
X69960000Y-115720000D03*
D13*
X73890000Y-83750000D03*
X81760000Y-105120000D03*
D14*
X79960000Y-71720000D03*
X69460000Y-79220000D03*
X85140000Y-110450000D03*
D13*
X87220000Y-84630000D03*
D14*
X75890000Y-136740000D03*
D13*
X69300000Y-109320000D03*
D14*
X73960000Y-72720000D03*
D13*
X73680000Y-116240000D03*
X69280000Y-96430000D03*
X70020000Y-99460000D03*
X81620000Y-116970000D03*
X72330000Y-108870000D03*
X88210000Y-113020000D03*
X72680000Y-108100000D03*
X86190000Y-93420000D03*
X74290000Y-83750000D03*
X88220000Y-103850000D03*
X88210000Y-98140000D03*
X76460000Y-106410000D03*
X83660000Y-108850000D03*
X71430000Y-94210000D03*
X87450000Y-108860000D03*
X70690000Y-92760000D03*
D14*
X86460000Y-123720000D03*
D13*
X74930000Y-116230000D03*
X70670000Y-87600000D03*
D14*
X75090000Y-103660000D03*
D13*
X74140000Y-103790000D03*
X69300000Y-101390000D03*
X88190000Y-87750000D03*
X88230000Y-108430000D03*
X88200000Y-96920000D03*
X75130000Y-105710000D03*
X87480000Y-85880000D03*
X74020000Y-108100000D03*
X71350000Y-84160000D03*
X74700000Y-114940000D03*
X76480000Y-108860000D03*
X81690000Y-113910000D03*
X87470000Y-93100000D03*
X70760000Y-103740000D03*
X87490000Y-103410000D03*
D14*
X85460000Y-76220000D03*
D13*
X87490000Y-105830000D03*
X71430000Y-99060000D03*
X84770000Y-114220000D03*
D14*
X82460000Y-110720000D03*
D13*
X71430000Y-96050000D03*
X87470000Y-96030000D03*
X70010000Y-86720000D03*
D14*
X86938200Y-117425600D03*
D13*
X86950000Y-97770000D03*
D14*
X73460000Y-72220000D03*
D13*
X81000000Y-108840000D03*
X69300000Y-112010000D03*
D14*
X69960000Y-78720000D03*
X80460000Y-72220000D03*
D13*
X84290000Y-111360000D03*
X74560000Y-107320000D03*
X72670000Y-116930000D03*
X70690000Y-91030000D03*
X73970000Y-112130000D03*
X74290000Y-114930000D03*
X69280000Y-103720000D03*
X75440000Y-106030000D03*
X87490000Y-96860000D03*
X69290000Y-86100000D03*
X87490000Y-101810000D03*
X74130000Y-116240000D03*
X74400000Y-112370000D03*
X83220000Y-84170000D03*
X88210000Y-111790000D03*
X70010000Y-89310000D03*
X86200000Y-100940000D03*
D14*
X82460000Y-72220000D03*
D13*
X86970000Y-96920000D03*
X83600000Y-107340000D03*
X87430000Y-111370000D03*
X70010000Y-85840000D03*
X70760000Y-104150000D03*
X74260000Y-84160000D03*
X82650000Y-104200000D03*
X76600000Y-113580000D03*
X86960000Y-96520000D03*
X86200000Y-86750000D03*
X70700000Y-94920000D03*
X88230000Y-104650000D03*
X85910000Y-85040000D03*
X87060000Y-100730000D03*
X84940000Y-83760000D03*
X69280000Y-103320000D03*
D14*
X87778200Y-118455600D03*
D13*
X71540000Y-106590000D03*
D14*
X70960000Y-71720000D03*
X83460000Y-75220000D03*
D13*
X70660000Y-88910000D03*
X71430000Y-94680000D03*
X70380000Y-114710000D03*
X86950000Y-85870000D03*
X74490000Y-105070000D03*
X87460000Y-110940000D03*
X69300000Y-111550000D03*
X82530000Y-112880000D03*
X70410000Y-100850000D03*
D14*
X71251200Y-130499800D03*
D13*
X70020000Y-97410000D03*
X69290000Y-87830000D03*
X86200000Y-100070000D03*
X75750000Y-116240000D03*
X84200000Y-114950000D03*
X70000000Y-103310000D03*
X70670000Y-99140000D03*
X76590000Y-108100000D03*
X76102064Y-105668181D03*
X69300000Y-94700000D03*
X69550000Y-83600000D03*
X70020000Y-108730000D03*
X70680000Y-98310000D03*
X70050000Y-95700000D03*
D14*
X69960000Y-74720000D03*
D13*
X86180000Y-89200000D03*
X70670000Y-85780000D03*
X86180000Y-92090000D03*
X69290000Y-95150000D03*
X88200000Y-88150000D03*
X87470000Y-94770000D03*
X74820000Y-105410000D03*
X70000000Y-102900000D03*
D14*
X83960000Y-75720000D03*
D13*
X84550000Y-106600000D03*
X83220000Y-108850000D03*
X87480000Y-96460000D03*
X86940000Y-90570000D03*
X84390000Y-112150000D03*
D14*
X75960000Y-71720000D03*
D13*
X71410000Y-92010000D03*
D14*
X76960000Y-72720000D03*
D13*
X88220000Y-100650000D03*
D14*
X72380000Y-110640000D03*
D13*
X71940000Y-84910000D03*
X82930000Y-114220000D03*
X88190000Y-85350000D03*
D14*
X75960000Y-72720000D03*
D13*
X76630000Y-114010000D03*
X86170000Y-88400000D03*
D14*
X69500000Y-123490000D03*
D13*
X69280000Y-96850000D03*
X84970000Y-106590000D03*
X69300000Y-92920000D03*
X81200000Y-116200000D03*
X86960000Y-97340000D03*
X70020000Y-101070000D03*
D14*
X76010000Y-120320000D03*
D13*
X84620000Y-116220000D03*
X85790000Y-84170000D03*
X71980000Y-116340000D03*
D14*
X82960000Y-72720000D03*
X87960000Y-74720000D03*
D13*
X86940000Y-91450000D03*
D14*
X87460000Y-78220000D03*
D13*
X70010000Y-107890000D03*
D14*
X85190000Y-136790000D03*
X83960000Y-72720000D03*
D13*
X71400000Y-88720000D03*
X72400000Y-107320000D03*
X70020000Y-97820000D03*
X82350000Y-104510000D03*
X81960000Y-112330000D03*
X72150000Y-114210000D03*
X69280000Y-95610000D03*
D14*
X86460000Y-71720000D03*
D13*
X70670000Y-84830000D03*
X83830000Y-111360000D03*
D14*
X72460000Y-75220000D03*
D13*
X70730000Y-106170000D03*
X69280000Y-98930000D03*
D14*
X73400000Y-117630000D03*
D13*
X70700000Y-93210000D03*
X88210000Y-99390000D03*
X84320000Y-114220000D03*
D14*
X76100000Y-122000000D03*
D13*
X87470000Y-95200000D03*
X70030000Y-90130000D03*
X73450000Y-114930000D03*
X88210000Y-113470000D03*
X71430000Y-99460000D03*
X71430000Y-99860000D03*
X86190000Y-98440000D03*
X87430000Y-112200000D03*
D14*
X87460000Y-72720000D03*
D13*
X75570000Y-113600000D03*
X71410000Y-89920000D03*
X81330000Y-108080000D03*
X72320000Y-116650000D03*
X86940000Y-87310000D03*
X83830000Y-104490000D03*
D14*
X69460000Y-129720000D03*
D13*
X75310000Y-116940000D03*
X87490000Y-101410000D03*
X86190000Y-91200000D03*
X74540000Y-106600000D03*
D14*
X77960000Y-71720000D03*
D13*
X74030000Y-84890000D03*
D14*
X74080000Y-125860000D03*
D13*
X87460000Y-87710000D03*
D14*
X74000000Y-115590000D03*
D13*
X87150000Y-83430000D03*
X82160000Y-108080000D03*
X72480000Y-115730000D03*
D14*
X87460000Y-80220000D03*
X73961200Y-127509800D03*
D13*
X74470000Y-108100000D03*
X75760000Y-108090000D03*
X70030000Y-111800000D03*
X84130000Y-106590000D03*
X70040000Y-95280000D03*
D14*
X81190000Y-119190000D03*
D13*
X87490000Y-105010000D03*
D14*
X83460000Y-76220000D03*
D13*
X70000000Y-104140000D03*
D14*
X81960000Y-72720000D03*
D13*
X71400000Y-86720000D03*
D14*
X87460000Y-75220000D03*
D13*
X85050000Y-114950000D03*
X70680000Y-99960000D03*
X84070000Y-83760000D03*
D14*
X82420000Y-109870000D03*
X80960000Y-71720000D03*
D13*
X87550000Y-114610000D03*
X73220000Y-83000000D03*
D14*
X87960000Y-76720000D03*
D13*
X87470000Y-97710000D03*
X87050000Y-113900000D03*
X87490000Y-100610000D03*
X88220000Y-103450000D03*
X86950000Y-86360000D03*
X84980000Y-115990000D03*
X69280000Y-98080000D03*
X86180000Y-92900000D03*
X70000000Y-88450000D03*
X86950000Y-90970000D03*
D14*
X69960000Y-76720000D03*
D13*
X88230000Y-107180000D03*
X88200000Y-93560000D03*
X71840000Y-114930000D03*
X84530000Y-116960000D03*
X86180000Y-89600000D03*
X74830000Y-111720000D03*
D14*
X82960000Y-71720000D03*
D13*
X70800000Y-102020000D03*
X81690000Y-106260000D03*
X70670000Y-86230000D03*
X83280000Y-84890000D03*
D14*
X82180000Y-136790000D03*
X72960000Y-71720000D03*
D13*
X85390000Y-106600000D03*
D14*
X87960000Y-73720000D03*
D13*
X86330000Y-83020000D03*
X70020000Y-89720000D03*
X83420000Y-108080000D03*
X70680000Y-95750000D03*
X85480000Y-84900000D03*
X86230000Y-83760000D03*
X83770000Y-84890000D03*
X84970000Y-116990000D03*
X76400000Y-105960000D03*
D14*
X73790000Y-73350000D03*
X83960000Y-74720000D03*
D13*
X74430000Y-84890000D03*
D14*
X87960000Y-78720000D03*
D13*
X88210000Y-98970000D03*
X69280000Y-106520000D03*
X85790000Y-83760000D03*
X86950000Y-93160000D03*
X88210000Y-95670000D03*
X71410000Y-87920000D03*
X82460000Y-116210000D03*
X74170000Y-104730000D03*
X87250000Y-114940000D03*
X76330000Y-113240000D03*
X75260000Y-108870000D03*
X71070000Y-83000000D03*
X84690000Y-108050000D03*
X69280000Y-98510000D03*
X76170000Y-116940000D03*
X82350000Y-108850000D03*
X70030000Y-91430000D03*
X70690000Y-92330000D03*
X70650000Y-85310000D03*
D14*
X69430000Y-127510000D03*
D13*
X82260000Y-112020000D03*
X73420000Y-84170000D03*
X71420000Y-98240000D03*
X70010000Y-108310000D03*
X71400000Y-86300000D03*
X86180000Y-92500000D03*
X69300000Y-89970000D03*
D14*
X75460000Y-72220000D03*
D13*
X70680000Y-86720000D03*
X85980000Y-116170000D03*
X82050000Y-116990000D03*
D14*
X84640000Y-117730000D03*
D13*
X71500000Y-107320000D03*
D14*
X71220000Y-134230000D03*
D13*
X73240000Y-107320000D03*
X75720000Y-106400000D03*
D14*
X88071200Y-126979800D03*
D13*
X75180000Y-104720000D03*
D14*
X72450000Y-102950000D03*
X73251200Y-128199800D03*
D13*
X85030000Y-108840000D03*
D14*
X73126600Y-124028200D03*
D13*
X88230000Y-108850000D03*
X75850000Y-113960000D03*
X71430000Y-95600000D03*
X71410000Y-92420000D03*
X74450000Y-116940000D03*
X86210000Y-97180000D03*
X73210000Y-84890000D03*
X86900000Y-84910000D03*
X87460000Y-110120000D03*
X76580000Y-116940000D03*
D14*
X85980000Y-117400000D03*
D13*
X86160000Y-114220000D03*
X70860000Y-114090000D03*
X69290000Y-86500000D03*
D14*
X75830000Y-115480000D03*
D13*
X81910000Y-113510000D03*
X71410000Y-90720000D03*
X87490000Y-102610000D03*
D14*
X71711200Y-128349800D03*
D13*
X71410000Y-91600000D03*
X69280000Y-104120000D03*
X84420000Y-107340000D03*
X72200000Y-108050000D03*
D14*
X70800000Y-131310000D03*
D13*
X70000000Y-102050000D03*
X86270000Y-84290000D03*
X86930000Y-88170000D03*
X86760000Y-104160000D03*
X88200000Y-95240000D03*
D14*
X71961200Y-129809800D03*
D13*
X70670000Y-88490000D03*
X86190000Y-94260000D03*
X70000000Y-85380000D03*
X87460000Y-89310000D03*
X72380000Y-84900000D03*
X87470000Y-84950000D03*
X86950000Y-107040000D03*
X71410000Y-89520000D03*
X88240000Y-110540000D03*
X73110000Y-112120000D03*
X74860000Y-104390000D03*
D14*
X69460000Y-75220000D03*
D13*
X87450000Y-108430000D03*
X83710000Y-116970000D03*
X70030000Y-110450000D03*
D14*
X87960000Y-80720000D03*
D13*
X69300000Y-93800000D03*
X73160000Y-116940000D03*
X87440000Y-113080000D03*
X83990000Y-112140000D03*
D14*
X69648200Y-117425600D03*
D13*
X87470000Y-86840000D03*
X82660000Y-105290000D03*
X74460000Y-83000000D03*
X83710000Y-106600000D03*
D14*
X74531200Y-125049800D03*
D13*
X88200000Y-97330000D03*
X76610000Y-116240000D03*
X75130000Y-112050000D03*
D14*
X81960000Y-71720000D03*
D13*
X71340000Y-115690000D03*
X73290000Y-104500000D03*
X70700000Y-97020000D03*
D14*
X69460000Y-77220000D03*
D13*
X70850000Y-101550000D03*
X70000000Y-84970000D03*
X87460000Y-92610000D03*
D14*
X76960000Y-71720000D03*
D13*
X86760000Y-103760000D03*
D14*
X73960000Y-75720000D03*
X76890000Y-136740000D03*
D13*
X73110000Y-111410000D03*
X70040000Y-92310000D03*
X70710000Y-115040000D03*
X70060000Y-114390000D03*
X70690000Y-94470000D03*
D14*
X87960000Y-115720000D03*
D13*
X81750000Y-108080000D03*
D14*
X69960000Y-75720000D03*
D13*
X81900000Y-108840000D03*
X87460000Y-83750000D03*
X83620000Y-83010000D03*
X74530000Y-116240000D03*
X82920000Y-111430000D03*
X72550000Y-114210000D03*
X86950000Y-93590000D03*
D14*
X73890000Y-136740000D03*
D13*
X70030000Y-110900000D03*
X86180000Y-90400000D03*
X86280000Y-115870000D03*
D14*
X69550000Y-134880000D03*
D13*
X72780000Y-84900000D03*
D14*
X87960000Y-125720000D03*
D13*
X86940000Y-92670000D03*
X86190000Y-95940000D03*
X88210000Y-100250000D03*
X82880000Y-106600000D03*
D14*
X87980000Y-123040000D03*
D13*
X87470000Y-101010000D03*
X72750000Y-108870000D03*
X70030000Y-112220000D03*
X84640000Y-114950000D03*
X71400000Y-88320000D03*
X87460000Y-90110000D03*
X83160000Y-112280000D03*
X72650000Y-114930000D03*
X74970000Y-112980000D03*
X70040000Y-94440000D03*
X85390000Y-116790000D03*
X86190000Y-95520000D03*
X71420000Y-93310000D03*
X72790000Y-83000000D03*
D14*
X75800000Y-118500000D03*
D13*
X70040000Y-93150000D03*
X73230000Y-106590000D03*
D14*
X71890000Y-136740000D03*
D13*
X86180000Y-90800000D03*
X83350000Y-104590000D03*
D14*
X72952297Y-75697122D03*
X80960000Y-112220000D03*
D13*
X71210000Y-108310000D03*
D14*
X79460000Y-72220000D03*
D13*
X84330000Y-103790000D03*
X84240000Y-108080000D03*
X86960000Y-99390000D03*
X69290000Y-86930000D03*
X70890000Y-84420000D03*
D14*
X84960000Y-75720000D03*
X78890000Y-136740000D03*
D13*
X87470000Y-95620000D03*
X86810000Y-83120000D03*
X83820000Y-108080000D03*
X85710000Y-108260000D03*
X88230000Y-109700000D03*
X76040000Y-112940000D03*
X70650000Y-107690000D03*
X70680000Y-96590000D03*
X70000000Y-105770000D03*
D14*
X86790000Y-134270000D03*
D13*
X86190000Y-85880000D03*
X71430000Y-93740000D03*
X82580000Y-108080000D03*
D14*
X85191600Y-113004600D03*
X83960000Y-76720000D03*
D13*
X73660000Y-106590000D03*
D14*
X69870000Y-116520000D03*
D13*
X88200000Y-91040000D03*
X85250000Y-115690000D03*
X82210000Y-113200000D03*
X86200000Y-96780000D03*
D14*
X75270000Y-110100000D03*
D13*
X69290000Y-87380000D03*
X82950000Y-114930000D03*
X70030000Y-96980000D03*
X86940000Y-91860000D03*
X86170000Y-88800000D03*
X69300000Y-110140000D03*
X71410000Y-87120000D03*
X73250000Y-116240000D03*
X87840000Y-114290000D03*
D14*
X71960000Y-75720000D03*
X87500000Y-124000000D03*
D13*
X87340000Y-113520000D03*
X69300000Y-91210000D03*
X87430000Y-112600000D03*
X88200000Y-88950000D03*
X83400000Y-114220000D03*
X86960000Y-98590000D03*
X70030000Y-111330000D03*
X87480000Y-98530000D03*
X83220000Y-83760000D03*
D14*
X76180000Y-104700000D03*
X87460000Y-81220000D03*
D13*
X70020000Y-99950000D03*
X71830000Y-107760000D03*
X84030000Y-83020000D03*
X81660000Y-112640000D03*
D14*
X86990000Y-131190000D03*
D13*
X70010000Y-100450000D03*
X87490000Y-106300000D03*
D14*
X69670000Y-132570000D03*
D13*
X70000000Y-105370000D03*
X73470000Y-83750000D03*
X81460000Y-108840000D03*
X87490000Y-103010000D03*
X82060000Y-104810000D03*
X83780000Y-116210000D03*
X69300000Y-94260000D03*
D14*
X72288400Y-112953800D03*
D13*
X75310000Y-108100000D03*
D14*
X85960000Y-75720000D03*
D13*
X71730000Y-83760000D03*
X86260000Y-106590000D03*
X71320000Y-83750000D03*
X69300000Y-108920000D03*
X83370000Y-111360000D03*
X80920000Y-113680000D03*
X70040000Y-92730000D03*
X74540000Y-104070000D03*
X70000000Y-107020000D03*
X88200000Y-86150000D03*
X70760000Y-104570000D03*
D14*
X81570000Y-122140000D03*
X82060000Y-115520000D03*
X69460000Y-82220000D03*
X69430000Y-120980000D03*
D13*
X70690000Y-97880000D03*
X87450000Y-88510000D03*
X84200000Y-84900000D03*
X73660000Y-107320000D03*
X83370000Y-114940000D03*
D14*
X78460000Y-72220000D03*
D13*
X82580000Y-111720000D03*
X86200000Y-100500000D03*
X69290000Y-88250000D03*
X88200000Y-94830000D03*
X69290000Y-100370000D03*
X86200000Y-98850000D03*
X75740000Y-112640000D03*
X73620000Y-84890000D03*
X70030000Y-91860000D03*
X69280000Y-105720000D03*
X71430000Y-95150000D03*
X74040000Y-111410000D03*
D14*
X77460000Y-72220000D03*
D13*
X85360000Y-83760000D03*
X86760000Y-102090000D03*
D14*
X83050000Y-117950000D03*
D13*
X75440000Y-112340000D03*
D14*
X71960000Y-71720000D03*
D13*
X86180000Y-90000000D03*
D14*
X78960000Y-72720000D03*
D13*
X69290000Y-84480000D03*
D14*
X70960000Y-109220000D03*
D13*
X82950000Y-103900000D03*
D14*
X77890000Y-136740000D03*
X87960000Y-82720000D03*
D13*
X88210000Y-97740000D03*
D14*
X84430669Y-76221017D03*
D13*
X70050000Y-84550000D03*
X87480000Y-85380000D03*
X86500000Y-101290000D03*
X70020000Y-109130000D03*
D14*
X69460000Y-81220000D03*
X83432631Y-72224063D03*
X69410000Y-118970000D03*
X70460000Y-75220000D03*
D13*
X70020000Y-99060000D03*
X81380000Y-112940000D03*
X75730000Y-116940000D03*
X88200000Y-86950000D03*
X85680000Y-116510000D03*
D14*
X77960000Y-72720000D03*
D13*
X72960000Y-114210000D03*
D14*
X87190000Y-136790000D03*
D13*
X75490000Y-105030000D03*
X71140000Y-106600000D03*
D14*
X81500000Y-111310000D03*
D13*
X69290000Y-88680000D03*
X70050000Y-93570000D03*
X71960000Y-107320000D03*
D14*
X70789800Y-124002800D03*
X79890000Y-136740000D03*
D13*
X86950000Y-98180000D03*
X88200000Y-90630000D03*
X69280000Y-97250000D03*
X71430000Y-96990000D03*
X75250000Y-113280000D03*
X74900000Y-116950000D03*
X86950000Y-96090000D03*
X71420000Y-85480000D03*
X71430000Y-100270000D03*
D14*
X84000000Y-124500000D03*
X88151200Y-129689800D03*
X85115400Y-105841800D03*
D13*
X70700000Y-95340000D03*
X80920000Y-106190000D03*
D14*
X69460000Y-78220000D03*
D13*
X76180000Y-108100000D03*
X88210000Y-112200000D03*
X73610000Y-116940000D03*
X83850000Y-103790000D03*
X71900000Y-108860000D03*
X88210000Y-92740000D03*
X70680000Y-98720000D03*
D14*
X74960000Y-71720000D03*
D13*
X86600000Y-84610000D03*
D14*
X82040000Y-103130000D03*
D13*
X85820000Y-106600000D03*
X72930000Y-84170000D03*
X71570000Y-85100000D03*
D14*
X69960000Y-77720000D03*
D13*
X87460000Y-92210000D03*
X69290000Y-107720000D03*
X87470000Y-110520000D03*
D14*
X74960000Y-72720000D03*
D13*
X84570000Y-108850000D03*
X86940000Y-89770000D03*
X72430000Y-84150000D03*
X87250000Y-106730000D03*
X74690000Y-112680000D03*
X70680000Y-87160000D03*
X70690000Y-91890000D03*
D14*
X69460000Y-128720000D03*
X81880000Y-123630000D03*
D13*
X70680000Y-88060000D03*
X87490000Y-105430000D03*
X69300000Y-112920000D03*
D14*
X81460000Y-110220000D03*
D13*
X72410000Y-106590000D03*
X86160000Y-85400000D03*
D14*
X75668200Y-121085600D03*
D13*
X75340000Y-116240000D03*
X70010000Y-98650000D03*
X71410000Y-90320000D03*
X70020000Y-109550000D03*
D14*
X70460000Y-76220000D03*
D13*
X69280000Y-106120000D03*
D14*
X75578200Y-119405600D03*
D13*
X71290000Y-114200053D03*
D14*
X70950000Y-117100000D03*
X72460000Y-76220000D03*
D13*
X71440000Y-97390000D03*
X88200000Y-94410000D03*
X81180000Y-116970000D03*
X83570000Y-112160000D03*
X82880000Y-116990000D03*
D14*
X87960000Y-79720000D03*
D13*
X88210000Y-101050000D03*
X74610000Y-114220000D03*
D14*
X72800000Y-129010000D03*
X87680000Y-122100000D03*
D13*
X69300000Y-109720000D03*
X87450000Y-107190000D03*
X86950000Y-94000000D03*
D14*
X70390000Y-122990000D03*
D13*
X86950000Y-95680000D03*
X81070000Y-113260000D03*
X83310000Y-116970000D03*
D14*
X80960000Y-72720000D03*
D13*
X88190000Y-86550000D03*
X69300000Y-92040000D03*
X88210000Y-99850000D03*
D14*
X74460000Y-72220000D03*
D13*
X87460000Y-89710000D03*
X88220000Y-103050000D03*
X70000000Y-104550000D03*
X87460000Y-88910000D03*
X86940000Y-85360000D03*
D14*
X83460000Y-73220000D03*
D13*
X86190000Y-96350000D03*
X88230000Y-108020000D03*
X69300000Y-108520000D03*
D14*
X70970000Y-136790000D03*
D13*
X84460000Y-83020000D03*
X70700000Y-93630000D03*
X69290000Y-100910000D03*
X88200000Y-84820000D03*
X70020000Y-88890000D03*
X82010000Y-105920000D03*
D14*
X86910000Y-128480000D03*
X75390000Y-122690000D03*
D13*
X70010000Y-98240000D03*
X87450000Y-108010000D03*
X83180000Y-83020000D03*
X85550000Y-115400000D03*
X69290000Y-90780000D03*
X87450000Y-88110000D03*
X88200000Y-93980000D03*
X71960000Y-106590000D03*
X88210000Y-92310000D03*
X73720000Y-104500000D03*
D14*
X74740000Y-117880000D03*
D13*
X86650000Y-114220000D03*
X70220000Y-83000000D03*
X84200000Y-116210000D03*
X72250000Y-114930000D03*
X86630000Y-107340000D03*
X80910000Y-108080000D03*
X70550000Y-113780000D03*
D14*
X85050000Y-102800000D03*
D13*
X69300000Y-91640000D03*
X88220000Y-101850000D03*
D14*
X81460000Y-72220000D03*
D13*
X81620000Y-116200000D03*
X70680000Y-90620000D03*
X88240000Y-111360000D03*
X70020000Y-109960000D03*
D14*
X70550000Y-129850000D03*
D13*
X85370000Y-107410000D03*
X70060000Y-96550000D03*
X69300000Y-89540000D03*
X69280000Y-105320000D03*
X88190000Y-87350000D03*
X74200000Y-114210000D03*
X71400000Y-87520000D03*
X85050000Y-84900000D03*
D14*
X74046270Y-71760648D03*
D13*
X70880000Y-83770000D03*
D14*
X73959907Y-76765800D03*
D13*
X86960000Y-98990000D03*
X71940000Y-83000000D03*
D14*
X76280000Y-123450000D03*
D13*
X71030000Y-115380000D03*
X85360000Y-84170000D03*
X86750000Y-101670000D03*
X74500000Y-111450000D03*
X70040000Y-96120000D03*
D14*
X72480000Y-105430000D03*
D13*
X88220000Y-105130000D03*
X85090000Y-107790000D03*
X86200000Y-99650000D03*
X73880000Y-114930000D03*
D14*
X87780000Y-119700000D03*
D13*
X70700000Y-97450000D03*
X83390000Y-103790000D03*
X88220000Y-96070000D03*
D14*
X82400000Y-123000000D03*
X87441200Y-130379800D03*
X69410000Y-125140000D03*
D13*
X88210000Y-98540000D03*
X82340000Y-105630000D03*
X87490000Y-103810000D03*
D14*
X72890000Y-136740000D03*
D13*
X74040000Y-83000000D03*
D14*
X76000000Y-111410000D03*
D13*
X73170000Y-108870000D03*
X86920000Y-84310000D03*
X87470000Y-90910000D03*
X87450000Y-109690000D03*
X83660000Y-84160000D03*
X69280000Y-107320000D03*
X69280000Y-104520000D03*
X73360000Y-114210000D03*
X86950000Y-95260000D03*
X88200000Y-89350000D03*
X83860000Y-114220000D03*
X88210000Y-96490000D03*
X85460000Y-114950000D03*
D14*
X87460000Y-79220000D03*
D13*
X74100000Y-106590000D03*
D14*
X74890000Y-136740000D03*
D13*
X88220000Y-105950000D03*
X86200000Y-99250000D03*
D14*
X83190000Y-136790000D03*
D13*
X74030000Y-116940000D03*
X70020000Y-87160000D03*
X76200000Y-116240000D03*
D14*
X82770000Y-124560000D03*
D13*
X87460000Y-91390000D03*
X70670000Y-99550000D03*
X82990000Y-104950000D03*
X73780000Y-114210000D03*
X88230000Y-110110000D03*
X83780000Y-114940000D03*
D14*
X70960000Y-75720000D03*
X69960000Y-79720000D03*
X87960000Y-77720000D03*
D13*
X69450000Y-113760000D03*
D14*
X88070000Y-120920000D03*
D13*
X70700000Y-94050000D03*
X86960000Y-99820000D03*
D14*
X81941800Y-119624400D03*
D13*
X70470000Y-83830000D03*
X71420000Y-96560000D03*
X86600000Y-83990000D03*
D14*
X69890000Y-136740000D03*
D13*
X69280000Y-99370000D03*
D14*
X71001200Y-129039800D03*
D13*
X70690000Y-91460000D03*
X87450000Y-87310000D03*
X70000000Y-106600000D03*
D14*
X75150000Y-126570000D03*
D13*
X73580000Y-108100000D03*
X86190000Y-95090000D03*
X71410000Y-89120000D03*
X86930000Y-88570000D03*
X87450000Y-107600000D03*
X86330000Y-107660000D03*
X84310000Y-104490000D03*
D14*
X76460000Y-112220000D03*
D13*
X74000000Y-108870000D03*
D14*
X86190000Y-136790000D03*
D13*
X73570000Y-111410000D03*
X88220000Y-106350000D03*
X85890000Y-115060000D03*
X71660000Y-116000000D03*
X86940000Y-92270000D03*
X71420000Y-98650000D03*
X86190000Y-93850000D03*
X72620000Y-83750000D03*
X87480000Y-97280000D03*
X86180000Y-88000000D03*
D14*
X76460000Y-72220000D03*
X69460000Y-130720000D03*
D13*
X86200000Y-86320000D03*
D14*
X75241200Y-124359800D03*
D13*
X88150000Y-113940000D03*
X87480000Y-99330000D03*
D14*
X88130000Y-135310000D03*
D13*
X85380000Y-83020000D03*
D14*
X69460000Y-73220000D03*
D13*
X73840000Y-84170000D03*
X86190000Y-98030000D03*
D14*
X74460000Y-109720000D03*
D13*
X74840000Y-108870000D03*
D14*
X75601200Y-125759800D03*
D13*
X70680000Y-89790000D03*
D14*
X86460000Y-76220000D03*
X81190000Y-136790000D03*
D13*
X88220000Y-102250000D03*
X88190000Y-85750000D03*
X73530000Y-112120000D03*
X85400000Y-108560000D03*
X71500000Y-83000000D03*
X73590000Y-108870000D03*
D14*
X87960000Y-75720000D03*
D13*
X87430000Y-111780000D03*
X87490000Y-104610000D03*
X70000000Y-102450000D03*
X75820000Y-105370000D03*
X84070000Y-84170000D03*
X69300000Y-112520000D03*
X87490000Y-100210000D03*
X84020000Y-107340000D03*
X88200000Y-89750000D03*
D14*
X78960000Y-71720000D03*
X87160000Y-116520000D03*
D13*
X71420000Y-100780000D03*
X71420000Y-92860000D03*
X86940000Y-86820000D03*
X69290000Y-108120000D03*
X88220000Y-101450000D03*
X70030000Y-112650000D03*
X86940000Y-88970000D03*
X87490000Y-104210000D03*
X81150000Y-105690000D03*
X84120000Y-116970000D03*
X69280000Y-97650000D03*
X84500000Y-84170000D03*
X70150000Y-84150000D03*
D14*
X86960000Y-75720000D03*
D13*
X69290000Y-84000000D03*
D14*
X87460000Y-76220000D03*
D13*
X72810000Y-106590000D03*
X70030000Y-113080000D03*
D14*
X76460000Y-110220000D03*
D13*
X73050000Y-83750000D03*
X70270000Y-113490000D03*
X86190000Y-87180000D03*
X70660000Y-89350000D03*
X86940000Y-90170000D03*
X86180000Y-91680000D03*
X69290000Y-84880000D03*
D14*
X84460000Y-75220000D03*
X70728200Y-118005600D03*
X83500000Y-123500000D03*
D13*
X69290000Y-89080000D03*
X73220000Y-103770000D03*
X71740000Y-114210000D03*
X70670000Y-90210000D03*
X87480000Y-99740000D03*
X88220000Y-102650000D03*
X88060000Y-84360000D03*
X88230000Y-109280000D03*
X85860000Y-83010000D03*
X74900000Y-108100000D03*
D14*
X84190000Y-136790000D03*
D13*
X70050000Y-94860000D03*
X88210000Y-90150000D03*
X69290000Y-85700000D03*
D14*
X86460000Y-108720000D03*
D13*
X69290000Y-85290000D03*
X73660000Y-103770000D03*
X69300000Y-101890000D03*
X88220000Y-105540000D03*
X75660000Y-108870000D03*
X76080000Y-108870000D03*
X70000000Y-101610000D03*
D14*
X83960000Y-71720000D03*
D13*
X83340000Y-116210000D03*
X87460000Y-90510000D03*
D14*
X84960000Y-71720000D03*
X73460000Y-76220000D03*
D13*
X71410000Y-85900000D03*
X87470000Y-93940000D03*
X69280000Y-102870000D03*
X87480000Y-98930000D03*
X70000000Y-88010000D03*
%TO.N,Net-(R4-Pad1)*%
X85369000Y-132320000D03*
%TO.N,38*%
X79570000Y-74820000D03*
%TO.N,Net-(R1-Pad1)*%
X86340000Y-135300000D03*
%TO.N,Net-(R2-Pad1)*%
X85970000Y-132250000D03*
%TO.N,Net-(R3-Pad1)*%
X85680000Y-135300000D03*
%TO.N,18*%
X77580000Y-76110000D03*
%TO.N,17*%
X78370000Y-76120000D03*
%TO.N,16*%
X79170000Y-76130000D03*
%TO.N,26*%
X74292859Y-80740588D03*
X76760000Y-102920000D03*
X78740000Y-132240000D03*
%TO.N,23*%
X74340000Y-78360000D03*
X79640000Y-135140000D03*
X77664000Y-102160000D03*
%TO.N,49*%
X72970000Y-81950000D03*
X71900000Y-135090000D03*
X74890000Y-102140000D03*
%TO.N,27*%
X74290807Y-81540144D03*
X76460000Y-102147466D03*
X78440000Y-135130000D03*
%TO.N,44*%
X73000000Y-77960000D03*
%TO.N,21*%
X75170000Y-76120000D03*
%TO.N,30*%
X84560000Y-81150000D03*
%TO.N,28*%
X74300000Y-82350000D03*
X76160000Y-102900000D03*
X78140000Y-132210000D03*
%TO.N,48*%
X72970000Y-81150000D03*
X72200000Y-131560000D03*
X75390000Y-102160000D03*
%TO.N,42*%
X76370000Y-74820000D03*
%TO.N,47*%
X72960000Y-80340000D03*
X75860000Y-102150000D03*
X72500000Y-135100000D03*
%TO.N,19*%
X76780000Y-76120000D03*
%TO.N,22*%
X74340000Y-77560000D03*
%TO.N,20*%
X75980000Y-76120000D03*
%TO.N,43*%
X75570000Y-74820000D03*
X73691600Y-131542171D03*
X73690000Y-135110000D03*
%TO.N,45*%
X73090000Y-135100000D03*
X73091600Y-131530000D03*
X72980000Y-78760000D03*
%TO.N,15*%
X79970000Y-76120000D03*
%TO.N,25*%
X74319112Y-79941687D03*
X79040000Y-135160000D03*
X77060000Y-102170000D03*
%TO.N,14*%
X80780000Y-76120000D03*
%TO.N,46*%
X72970000Y-79550000D03*
%TO.N,13*%
X81570000Y-76120000D03*
%TO.N,29*%
X77905414Y-131504742D03*
X84560000Y-81950000D03*
X77900000Y-135140000D03*
%TO.N,24*%
X74340000Y-79150000D03*
X77360000Y-102930000D03*
X79340000Y-132250000D03*
%TO.N,41*%
X74290000Y-135100000D03*
X77160000Y-74820000D03*
X74291600Y-131510260D03*
%TO.N,5*%
X83170000Y-82360000D03*
%TO.N,6*%
X83170000Y-81550000D03*
%TO.N,7*%
X83170000Y-80760000D03*
%TO.N,8*%
X83150000Y-79960000D03*
%TO.N,9*%
X83150000Y-79170000D03*
%TO.N,10*%
X83160000Y-78360000D03*
%TO.N,11*%
X83160000Y-77550000D03*
%TO.N,12*%
X82370000Y-76120000D03*
%TD*%
D15*
%TO.N,26*%
X79825660Y-130695660D02*
X79927000Y-130594320D01*
X79881321Y-130640000D02*
X79825660Y-130695660D01*
X78740000Y-131781320D02*
X78740000Y-132240000D01*
X76760000Y-102920000D02*
X76760000Y-103039935D01*
X79825660Y-130695660D02*
X78740000Y-131781320D01*
X77264448Y-103544384D02*
X78195616Y-103544384D01*
X76760000Y-103039935D02*
X77264448Y-103544384D01*
X79927000Y-130594320D02*
X79927000Y-105280000D01*
X78195616Y-103544384D02*
X79927000Y-105275768D01*
%TO.N,23*%
X79640000Y-132000000D02*
X80530000Y-131110000D01*
X80530000Y-131110000D02*
X80530000Y-105026000D01*
X79640000Y-132000000D02*
X79640000Y-135140000D01*
X80530000Y-105026000D02*
X77664000Y-102160000D01*
%TO.N,49*%
X78922000Y-124358000D02*
X74130000Y-129150000D01*
X78922000Y-106666256D02*
X78922000Y-124358000D01*
X74890000Y-102634256D02*
X78922000Y-106666256D01*
X74890000Y-102140000D02*
X74890000Y-102634256D01*
X71900000Y-131380000D02*
X71900000Y-135090000D01*
X74130000Y-129150000D02*
X71900000Y-131380000D01*
%TO.N,27*%
X78440000Y-131676000D02*
X78440000Y-135130000D01*
X76460000Y-103045679D02*
X76984321Y-103570000D01*
X79726000Y-106170000D02*
X79726000Y-115480000D01*
X76984321Y-103570000D02*
X76990000Y-103570000D01*
X76460000Y-102147466D02*
X76460000Y-103045679D01*
X79726000Y-115480000D02*
X79726000Y-130390000D01*
X79726000Y-130390000D02*
X78440000Y-131676000D01*
X78113488Y-103746512D02*
X79726000Y-105359024D01*
X76990000Y-103570000D02*
X77166512Y-103746512D01*
X77166512Y-103746512D02*
X78113488Y-103746512D01*
X79726000Y-105359024D02*
X79726000Y-106170000D01*
%TO.N,28*%
X76160000Y-102900000D02*
X76160000Y-103029936D01*
X79525000Y-130306744D02*
X78140000Y-131691744D01*
X78140000Y-131691744D02*
X78140000Y-132210000D01*
X79525000Y-105442280D02*
X79525000Y-110000000D01*
X77910000Y-103947512D02*
X78030232Y-103947512D01*
X77077576Y-103947512D02*
X77910000Y-103947512D01*
X78030232Y-103947512D02*
X79516360Y-105433640D01*
X79525000Y-124200000D02*
X79525000Y-130306744D01*
X79525000Y-110000000D02*
X79525000Y-124200000D01*
X79516360Y-105433640D02*
X79525000Y-105442280D01*
X76160000Y-103029936D02*
X77077576Y-103947512D01*
%TO.N,48*%
X79123000Y-110140000D02*
X79123000Y-124472744D01*
X78230000Y-105690000D02*
X79123000Y-106583000D01*
X72200000Y-131395744D02*
X72200000Y-131560000D01*
X75390000Y-102850000D02*
X78230000Y-105690000D01*
X75390000Y-102160000D02*
X75390000Y-102850000D01*
X79123000Y-124472744D02*
X72200000Y-131395744D01*
X79123000Y-106583000D02*
X79123000Y-110140000D01*
%TO.N,47*%
X75860000Y-102774321D02*
X75859000Y-102775321D01*
X75860000Y-102150000D02*
X75860000Y-102774321D01*
X72500000Y-131380000D02*
X72500000Y-133840000D01*
X72500000Y-133840000D02*
X72500000Y-135100000D01*
X79314321Y-106480000D02*
X79324000Y-106480000D01*
X79324000Y-106480000D02*
X79324000Y-124556000D01*
X75859000Y-102775321D02*
X75859000Y-103024679D01*
X75859000Y-103024679D02*
X79314321Y-106480000D01*
X79324000Y-124556000D02*
X72500000Y-131380000D01*
%TO.N,25*%
X78260000Y-103340000D02*
X78275488Y-103340000D01*
X80128000Y-106130000D02*
X80128000Y-128340000D01*
X80128000Y-130819000D02*
X79040000Y-131907000D01*
X80128000Y-128340000D02*
X80128000Y-130819000D01*
X77344321Y-103340000D02*
X78260000Y-103340000D01*
X79040000Y-131907000D02*
X79040000Y-135160000D01*
X78275488Y-103340000D02*
X80128000Y-105192512D01*
X77060000Y-103055679D02*
X77344321Y-103340000D01*
X80128000Y-105192512D02*
X80128000Y-106130000D01*
X77060000Y-102170000D02*
X77060000Y-103055679D01*
%TO.N,24*%
X79340000Y-132250000D02*
X79340000Y-131892322D01*
X78149744Y-102930000D02*
X77360000Y-102930000D01*
X80329000Y-130903322D02*
X80329000Y-105109256D01*
X80329000Y-105109256D02*
X78149744Y-102930000D01*
X79340000Y-131892322D02*
X80329000Y-130903322D01*
%TD*%
%TA.AperFunction,Conductor*%
%TO.N,GND*%
G36*
X85624204Y-71008139D02*
G01*
X85631093Y-71008333D01*
X85941116Y-71025747D01*
X85954920Y-71027303D01*
X86257598Y-71078733D01*
X86271149Y-71081827D01*
X86566147Y-71166818D01*
X86579264Y-71171407D01*
X86813364Y-71268377D01*
X86862911Y-71288901D01*
X86875440Y-71294935D01*
X87142933Y-71442777D01*
X87144126Y-71443436D01*
X87155900Y-71450834D01*
X87406281Y-71628493D01*
X87417146Y-71637158D01*
X87567380Y-71771416D01*
X87646062Y-71841731D01*
X87655894Y-71851564D01*
X87860459Y-72080475D01*
X87869127Y-72091344D01*
X87984613Y-72254108D01*
X88046784Y-72341730D01*
X88054182Y-72353504D01*
X88202684Y-72622201D01*
X88208717Y-72634730D01*
X88326200Y-72918361D01*
X88330793Y-72931486D01*
X88415781Y-73226490D01*
X88418875Y-73240046D01*
X88470300Y-73542710D01*
X88471857Y-73556528D01*
X88489267Y-73866552D01*
X88489462Y-73873452D01*
X88516312Y-136713011D01*
X88515532Y-136726948D01*
X88503931Y-136829909D01*
X88497752Y-136856980D01*
X88465836Y-136948189D01*
X88453789Y-136973205D01*
X88402378Y-137055026D01*
X88385065Y-137076736D01*
X88316736Y-137145065D01*
X88295026Y-137162378D01*
X88213205Y-137213789D01*
X88188189Y-137225836D01*
X88096980Y-137257752D01*
X88069912Y-137263930D01*
X87976423Y-137274463D01*
X87967038Y-137275521D01*
X87952926Y-137276300D01*
X69796128Y-137242565D01*
X69795714Y-137242499D01*
X69776408Y-137242499D01*
X69766099Y-137242499D01*
X69753945Y-137241902D01*
X69631202Y-137229813D01*
X69607361Y-137225071D01*
X69495196Y-137191046D01*
X69472738Y-137181743D01*
X69369372Y-137126493D01*
X69349160Y-137112988D01*
X69258556Y-137038631D01*
X69241368Y-137021443D01*
X69181250Y-136948189D01*
X69167010Y-136930837D01*
X69153506Y-136910627D01*
X69098256Y-136807261D01*
X69088953Y-136784803D01*
X69075637Y-136740906D01*
X69054926Y-136672632D01*
X69050187Y-136648804D01*
X69038098Y-136526061D01*
X69037501Y-136513907D01*
X69037501Y-136479155D01*
X69037499Y-136479039D01*
X69037499Y-135040172D01*
X71649500Y-135040172D01*
X71649500Y-135058164D01*
X71649500Y-135139829D01*
X71683619Y-135222200D01*
X71687636Y-135231897D01*
X71758103Y-135302364D01*
X71850172Y-135340500D01*
X71850174Y-135340500D01*
X71949826Y-135340500D01*
X71949828Y-135340500D01*
X72041897Y-135302364D01*
X72107319Y-135236942D01*
X72168642Y-135203457D01*
X72238334Y-135208441D01*
X72282681Y-135236942D01*
X72287636Y-135241897D01*
X72358103Y-135312364D01*
X72450172Y-135350500D01*
X72450174Y-135350500D01*
X72549826Y-135350500D01*
X72549828Y-135350500D01*
X72641897Y-135312364D01*
X72707319Y-135246942D01*
X72768642Y-135213457D01*
X72838334Y-135218441D01*
X72882681Y-135246942D01*
X72948103Y-135312364D01*
X73040172Y-135350500D01*
X73040174Y-135350500D01*
X73139826Y-135350500D01*
X73139828Y-135350500D01*
X73231897Y-135312364D01*
X73297319Y-135246942D01*
X73358642Y-135213457D01*
X73428334Y-135218441D01*
X73472681Y-135246942D01*
X73477636Y-135251897D01*
X73548103Y-135322364D01*
X73640172Y-135360500D01*
X73640174Y-135360500D01*
X73739826Y-135360500D01*
X73739828Y-135360500D01*
X73831897Y-135322364D01*
X73902364Y-135251897D01*
X73902364Y-135251896D01*
X73907319Y-135246942D01*
X73968642Y-135213457D01*
X74038334Y-135218441D01*
X74082681Y-135246942D01*
X74148103Y-135312364D01*
X74240172Y-135350500D01*
X74240174Y-135350500D01*
X74339826Y-135350500D01*
X74339828Y-135350500D01*
X74431897Y-135312364D01*
X74488578Y-135255682D01*
X74549897Y-135222200D01*
X74619589Y-135227184D01*
X74668478Y-135263782D01*
X74669000Y-135263261D01*
X74672623Y-135266884D01*
X74675523Y-135269055D01*
X74677287Y-135271548D01*
X74677636Y-135271897D01*
X74748103Y-135342364D01*
X74840172Y-135380500D01*
X74840174Y-135380500D01*
X74939826Y-135380500D01*
X74939828Y-135380500D01*
X75031897Y-135342364D01*
X75102364Y-135271897D01*
X75102364Y-135271896D01*
X75107319Y-135266942D01*
X75168642Y-135233457D01*
X75238334Y-135238441D01*
X75282681Y-135266942D01*
X75348103Y-135332364D01*
X75440172Y-135370500D01*
X75440174Y-135370500D01*
X75539826Y-135370500D01*
X75539828Y-135370500D01*
X75631897Y-135332364D01*
X75684573Y-135279687D01*
X75745892Y-135246205D01*
X75815584Y-135251189D01*
X75871518Y-135293060D01*
X75875353Y-135298480D01*
X75877636Y-135301897D01*
X75948103Y-135372364D01*
X76040172Y-135410500D01*
X76040174Y-135410500D01*
X76139826Y-135410500D01*
X76139828Y-135410500D01*
X76231897Y-135372364D01*
X76302364Y-135301897D01*
X76302364Y-135301896D01*
X76307319Y-135296942D01*
X76368642Y-135263457D01*
X76438334Y-135268441D01*
X76482681Y-135296942D01*
X76548103Y-135362364D01*
X76640172Y-135400500D01*
X76640174Y-135400500D01*
X76739826Y-135400500D01*
X76739828Y-135400500D01*
X76831897Y-135362364D01*
X76897319Y-135296942D01*
X76958642Y-135263457D01*
X77028334Y-135268441D01*
X77072681Y-135296942D01*
X77077636Y-135301897D01*
X77148103Y-135372364D01*
X77240172Y-135410500D01*
X77240174Y-135410500D01*
X77339826Y-135410500D01*
X77339828Y-135410500D01*
X77431897Y-135372364D01*
X77502364Y-135301897D01*
X77502364Y-135301896D01*
X77511000Y-135293261D01*
X77512392Y-135294653D01*
X77554252Y-135259671D01*
X77623577Y-135250962D01*
X77686604Y-135281116D01*
X77691424Y-135285685D01*
X77758103Y-135352364D01*
X77850172Y-135390500D01*
X77850174Y-135390500D01*
X77949826Y-135390500D01*
X77949828Y-135390500D01*
X78041897Y-135352364D01*
X78087319Y-135306942D01*
X78148642Y-135273457D01*
X78218334Y-135278441D01*
X78262681Y-135306942D01*
X78298103Y-135342364D01*
X78390172Y-135380500D01*
X78390174Y-135380500D01*
X78489826Y-135380500D01*
X78489828Y-135380500D01*
X78581897Y-135342364D01*
X78638578Y-135285682D01*
X78699897Y-135252200D01*
X78769589Y-135257184D01*
X78818478Y-135293782D01*
X78819000Y-135293261D01*
X78822623Y-135296884D01*
X78825523Y-135299055D01*
X78827287Y-135301548D01*
X78827636Y-135301897D01*
X78898103Y-135372364D01*
X78990172Y-135410500D01*
X78990174Y-135410500D01*
X79089826Y-135410500D01*
X79089828Y-135410500D01*
X79181897Y-135372364D01*
X79252364Y-135301897D01*
X79252364Y-135301896D01*
X79261000Y-135293261D01*
X79263838Y-135296099D01*
X79300194Y-135265687D01*
X79369515Y-135256948D01*
X79432557Y-135287073D01*
X79437418Y-135291679D01*
X79498103Y-135352364D01*
X79590172Y-135390500D01*
X79590174Y-135390500D01*
X79689826Y-135390500D01*
X79689828Y-135390500D01*
X79781897Y-135352364D01*
X79852364Y-135281897D01*
X79865506Y-135250170D01*
X85429500Y-135250170D01*
X85429500Y-135349829D01*
X85454631Y-135410500D01*
X85467636Y-135441897D01*
X85538103Y-135512364D01*
X85630172Y-135550500D01*
X85630174Y-135550500D01*
X85729826Y-135550500D01*
X85729828Y-135550500D01*
X85821897Y-135512364D01*
X85892364Y-135441897D01*
X85895439Y-135434472D01*
X85939279Y-135380069D01*
X86005574Y-135358004D01*
X86073273Y-135375283D01*
X86120884Y-135426420D01*
X86124559Y-135434470D01*
X86127636Y-135441897D01*
X86198103Y-135512364D01*
X86290172Y-135550500D01*
X86290174Y-135550500D01*
X86389826Y-135550500D01*
X86389828Y-135550500D01*
X86481897Y-135512364D01*
X86552364Y-135441897D01*
X86590500Y-135349828D01*
X86590500Y-135250172D01*
X86552364Y-135158103D01*
X86481897Y-135087636D01*
X86415593Y-135060172D01*
X86389829Y-135049500D01*
X86389828Y-135049500D01*
X86290172Y-135049500D01*
X86290170Y-135049500D01*
X86198102Y-135087636D01*
X86127637Y-135158101D01*
X86127634Y-135158105D01*
X86124560Y-135165528D01*
X86080719Y-135219931D01*
X86014424Y-135241995D01*
X85946725Y-135224715D01*
X85899115Y-135173577D01*
X85895440Y-135165528D01*
X85892365Y-135158105D01*
X85892364Y-135158104D01*
X85892364Y-135158103D01*
X85821897Y-135087636D01*
X85755593Y-135060172D01*
X85729829Y-135049500D01*
X85729828Y-135049500D01*
X85630172Y-135049500D01*
X85630170Y-135049500D01*
X85538102Y-135087636D01*
X85467636Y-135158102D01*
X85429500Y-135250170D01*
X79865506Y-135250170D01*
X79890500Y-135189828D01*
X79890500Y-135090172D01*
X79852364Y-134998103D01*
X79826819Y-134972558D01*
X79793334Y-134911235D01*
X79790500Y-134884877D01*
X79790500Y-132270170D01*
X85118500Y-132270170D01*
X85118500Y-132369829D01*
X85140261Y-132422364D01*
X85156636Y-132461897D01*
X85227103Y-132532364D01*
X85319172Y-132570500D01*
X85319174Y-132570500D01*
X85418826Y-132570500D01*
X85418828Y-132570500D01*
X85510897Y-132532364D01*
X85581364Y-132461897D01*
X85582477Y-132459209D01*
X85586470Y-132454253D01*
X85588149Y-132451742D01*
X85588373Y-132451892D01*
X85626316Y-132404807D01*
X85692609Y-132382740D01*
X85760309Y-132400018D01*
X85784719Y-132418980D01*
X85828103Y-132462364D01*
X85920172Y-132500500D01*
X85920174Y-132500500D01*
X86019826Y-132500500D01*
X86019828Y-132500500D01*
X86111897Y-132462364D01*
X86182364Y-132391897D01*
X86220500Y-132299828D01*
X86220500Y-132200172D01*
X86182364Y-132108103D01*
X86111897Y-132037636D01*
X86019829Y-131999500D01*
X86019828Y-131999500D01*
X85920172Y-131999500D01*
X85920170Y-131999500D01*
X85828102Y-132037636D01*
X85757637Y-132108101D01*
X85757634Y-132108106D01*
X85756519Y-132110798D01*
X85752521Y-132115758D01*
X85750851Y-132118258D01*
X85750627Y-132118108D01*
X85712675Y-132165199D01*
X85646379Y-132187259D01*
X85578681Y-132169976D01*
X85554280Y-132151019D01*
X85510897Y-132107636D01*
X85418829Y-132069500D01*
X85418828Y-132069500D01*
X85319172Y-132069500D01*
X85319170Y-132069500D01*
X85227102Y-132107636D01*
X85156636Y-132178102D01*
X85118500Y-132270170D01*
X79790500Y-132270170D01*
X79790500Y-132113701D01*
X79810185Y-132046662D01*
X79826819Y-132026020D01*
X80657587Y-131195252D01*
X80664271Y-131179111D01*
X80664297Y-131179049D01*
X80680500Y-131139936D01*
X80680500Y-113103408D01*
X83074699Y-113103408D01*
X83103340Y-113247390D01*
X83103342Y-113247396D01*
X83159522Y-113383028D01*
X83159526Y-113383035D01*
X83211861Y-113461360D01*
X83211862Y-113461361D01*
X83485681Y-113187541D01*
X83525287Y-113256141D01*
X83593859Y-113324713D01*
X83662457Y-113364318D01*
X83388638Y-113638137D01*
X83388638Y-113638138D01*
X83466971Y-113690478D01*
X83602599Y-113746656D01*
X83602609Y-113746659D01*
X83746591Y-113775300D01*
X83893408Y-113775300D01*
X84037390Y-113746659D01*
X84037400Y-113746656D01*
X84173025Y-113690479D01*
X84173032Y-113690475D01*
X84251360Y-113638137D01*
X83977542Y-113364318D01*
X84046141Y-113324713D01*
X84114713Y-113256141D01*
X84154318Y-113187542D01*
X84428137Y-113461360D01*
X84480475Y-113383032D01*
X84480479Y-113383025D01*
X84536656Y-113247400D01*
X84536659Y-113247390D01*
X84565300Y-113103408D01*
X85614699Y-113103408D01*
X85643340Y-113247390D01*
X85643342Y-113247396D01*
X85699522Y-113383028D01*
X85699526Y-113383035D01*
X85751861Y-113461360D01*
X85751862Y-113461361D01*
X86025681Y-113187541D01*
X86065287Y-113256141D01*
X86133859Y-113324713D01*
X86202457Y-113364318D01*
X85928638Y-113638137D01*
X85928638Y-113638138D01*
X86006971Y-113690478D01*
X86142599Y-113746656D01*
X86142609Y-113746659D01*
X86286591Y-113775300D01*
X86433408Y-113775300D01*
X86577390Y-113746659D01*
X86577400Y-113746656D01*
X86713025Y-113690479D01*
X86713032Y-113690475D01*
X86791360Y-113638137D01*
X86517542Y-113364318D01*
X86586141Y-113324713D01*
X86654713Y-113256141D01*
X86694318Y-113187542D01*
X86968137Y-113461360D01*
X87020475Y-113383032D01*
X87020479Y-113383025D01*
X87076656Y-113247400D01*
X87076659Y-113247390D01*
X87105300Y-113103408D01*
X87105300Y-112956591D01*
X87076659Y-112812609D01*
X87076656Y-112812599D01*
X87020478Y-112676971D01*
X86968137Y-112598638D01*
X86694318Y-112872457D01*
X86654713Y-112803859D01*
X86586141Y-112735287D01*
X86517542Y-112695681D01*
X86791361Y-112421862D01*
X86791360Y-112421861D01*
X86713035Y-112369526D01*
X86713028Y-112369522D01*
X86577396Y-112313342D01*
X86577390Y-112313340D01*
X86433408Y-112284700D01*
X86286592Y-112284700D01*
X86142609Y-112313340D01*
X86142603Y-112313342D01*
X86006971Y-112369522D01*
X86006959Y-112369529D01*
X85928638Y-112421860D01*
X85928637Y-112421861D01*
X86202457Y-112695681D01*
X86133859Y-112735287D01*
X86065287Y-112803859D01*
X86025681Y-112872457D01*
X85751861Y-112598637D01*
X85751860Y-112598638D01*
X85699529Y-112676959D01*
X85699522Y-112676971D01*
X85643342Y-112812603D01*
X85643340Y-112812609D01*
X85614700Y-112956591D01*
X85614700Y-113103408D01*
X85614699Y-113103408D01*
X84565300Y-113103408D01*
X84565300Y-112956591D01*
X84536659Y-112812609D01*
X84536656Y-112812599D01*
X84480478Y-112676971D01*
X84428137Y-112598638D01*
X84154318Y-112872456D01*
X84114713Y-112803859D01*
X84046141Y-112735287D01*
X83977542Y-112695681D01*
X84251361Y-112421862D01*
X84251360Y-112421861D01*
X84173035Y-112369526D01*
X84173028Y-112369522D01*
X84037396Y-112313342D01*
X84037390Y-112313340D01*
X83893408Y-112284700D01*
X83746592Y-112284700D01*
X83602609Y-112313340D01*
X83602603Y-112313342D01*
X83466971Y-112369522D01*
X83466959Y-112369529D01*
X83388638Y-112421860D01*
X83388637Y-112421861D01*
X83662457Y-112695681D01*
X83593859Y-112735287D01*
X83525287Y-112803859D01*
X83485681Y-112872457D01*
X83211861Y-112598637D01*
X83211860Y-112598638D01*
X83159529Y-112676959D01*
X83159522Y-112676971D01*
X83103342Y-112812603D01*
X83103340Y-112812609D01*
X83074700Y-112956591D01*
X83074700Y-113103408D01*
X83074699Y-113103408D01*
X80680500Y-113103408D01*
X80680500Y-111681561D01*
X84494200Y-111681561D01*
X84494200Y-111838439D01*
X84534803Y-111989970D01*
X84613241Y-112125830D01*
X84724170Y-112236759D01*
X84860030Y-112315197D01*
X85011561Y-112355800D01*
X85011564Y-112355800D01*
X85168436Y-112355800D01*
X85168439Y-112355800D01*
X85319970Y-112315197D01*
X85455830Y-112236759D01*
X85566759Y-112125830D01*
X85645197Y-111989970D01*
X85685800Y-111838439D01*
X85685800Y-111681561D01*
X85645197Y-111530030D01*
X85566759Y-111394170D01*
X85455830Y-111283241D01*
X85319970Y-111204803D01*
X85319971Y-111204803D01*
X85285420Y-111195545D01*
X85168439Y-111164200D01*
X85011561Y-111164200D01*
X84897912Y-111194652D01*
X84860029Y-111204803D01*
X84724171Y-111283240D01*
X84724168Y-111283242D01*
X84613242Y-111394168D01*
X84613240Y-111394171D01*
X84534803Y-111530029D01*
X84534803Y-111530030D01*
X84494200Y-111681561D01*
X80680500Y-111681561D01*
X80680500Y-110563408D01*
X83074699Y-110563408D01*
X83103340Y-110707390D01*
X83103342Y-110707396D01*
X83159522Y-110843028D01*
X83159526Y-110843035D01*
X83211861Y-110921360D01*
X83211862Y-110921361D01*
X83485681Y-110647541D01*
X83525287Y-110716141D01*
X83593859Y-110784713D01*
X83662457Y-110824318D01*
X83388638Y-111098137D01*
X83388638Y-111098138D01*
X83466971Y-111150478D01*
X83602599Y-111206656D01*
X83602609Y-111206659D01*
X83746591Y-111235300D01*
X83893408Y-111235300D01*
X84037390Y-111206659D01*
X84037400Y-111206656D01*
X84173025Y-111150479D01*
X84173032Y-111150475D01*
X84251360Y-111098137D01*
X83977542Y-110824318D01*
X84046141Y-110784713D01*
X84114713Y-110716141D01*
X84154318Y-110647542D01*
X84428137Y-110921360D01*
X84480475Y-110843032D01*
X84480479Y-110843025D01*
X84536656Y-110707400D01*
X84536659Y-110707390D01*
X84565300Y-110563408D01*
X85614699Y-110563408D01*
X85643340Y-110707390D01*
X85643342Y-110707396D01*
X85699522Y-110843028D01*
X85699526Y-110843035D01*
X85751861Y-110921360D01*
X85751862Y-110921361D01*
X86025681Y-110647541D01*
X86065287Y-110716141D01*
X86133859Y-110784713D01*
X86202457Y-110824318D01*
X85928638Y-111098137D01*
X85928638Y-111098138D01*
X86006971Y-111150478D01*
X86142599Y-111206656D01*
X86142609Y-111206659D01*
X86286591Y-111235300D01*
X86433408Y-111235300D01*
X86577390Y-111206659D01*
X86577400Y-111206656D01*
X86713025Y-111150479D01*
X86713032Y-111150475D01*
X86791360Y-111098137D01*
X86517542Y-110824318D01*
X86586141Y-110784713D01*
X86654713Y-110716141D01*
X86694318Y-110647542D01*
X86968137Y-110921360D01*
X87020475Y-110843032D01*
X87020479Y-110843025D01*
X87076656Y-110707400D01*
X87076659Y-110707390D01*
X87105300Y-110563408D01*
X87105300Y-110416591D01*
X87076659Y-110272609D01*
X87076656Y-110272599D01*
X87020478Y-110136971D01*
X86968137Y-110058638D01*
X86694318Y-110332457D01*
X86654713Y-110263859D01*
X86586141Y-110195287D01*
X86517542Y-110155681D01*
X86791361Y-109881862D01*
X86791360Y-109881861D01*
X86713035Y-109829526D01*
X86713028Y-109829522D01*
X86577396Y-109773342D01*
X86577390Y-109773340D01*
X86433408Y-109744700D01*
X86286592Y-109744700D01*
X86142609Y-109773340D01*
X86142603Y-109773342D01*
X86006971Y-109829522D01*
X86006959Y-109829529D01*
X85928638Y-109881860D01*
X85928637Y-109881861D01*
X86202457Y-110155681D01*
X86133859Y-110195287D01*
X86065287Y-110263859D01*
X86025681Y-110332457D01*
X85751861Y-110058637D01*
X85751860Y-110058638D01*
X85699529Y-110136959D01*
X85699522Y-110136971D01*
X85643342Y-110272603D01*
X85643340Y-110272609D01*
X85614700Y-110416591D01*
X85614700Y-110563408D01*
X85614699Y-110563408D01*
X84565300Y-110563408D01*
X84565300Y-110416591D01*
X84536659Y-110272609D01*
X84536656Y-110272599D01*
X84480478Y-110136971D01*
X84428137Y-110058638D01*
X84154318Y-110332456D01*
X84114713Y-110263859D01*
X84046141Y-110195287D01*
X83977542Y-110155681D01*
X84251361Y-109881862D01*
X84251360Y-109881861D01*
X84173035Y-109829526D01*
X84173028Y-109829522D01*
X84037396Y-109773342D01*
X84037390Y-109773340D01*
X83893408Y-109744700D01*
X83746592Y-109744700D01*
X83602609Y-109773340D01*
X83602603Y-109773342D01*
X83466971Y-109829522D01*
X83466959Y-109829529D01*
X83388638Y-109881860D01*
X83388637Y-109881861D01*
X83662457Y-110155681D01*
X83593859Y-110195287D01*
X83525287Y-110263859D01*
X83485681Y-110332457D01*
X83211861Y-110058637D01*
X83211860Y-110058638D01*
X83159529Y-110136959D01*
X83159522Y-110136971D01*
X83103342Y-110272603D01*
X83103340Y-110272609D01*
X83074700Y-110416591D01*
X83074700Y-110563408D01*
X83074699Y-110563408D01*
X80680500Y-110563408D01*
X80680500Y-105483408D01*
X83074699Y-105483408D01*
X83103340Y-105627390D01*
X83103342Y-105627396D01*
X83159522Y-105763028D01*
X83159526Y-105763035D01*
X83211861Y-105841360D01*
X83211862Y-105841361D01*
X83485681Y-105567541D01*
X83525287Y-105636141D01*
X83593859Y-105704713D01*
X83662457Y-105744318D01*
X83388638Y-106018137D01*
X83388638Y-106018138D01*
X83466971Y-106070478D01*
X83602599Y-106126656D01*
X83602609Y-106126659D01*
X83746591Y-106155300D01*
X83893408Y-106155300D01*
X84037390Y-106126659D01*
X84037400Y-106126656D01*
X84173025Y-106070479D01*
X84173032Y-106070475D01*
X84251360Y-106018137D01*
X83977542Y-105744318D01*
X84046141Y-105704713D01*
X84114713Y-105636141D01*
X84154318Y-105567542D01*
X84428137Y-105841360D01*
X84480475Y-105763032D01*
X84480479Y-105763025D01*
X84536656Y-105627400D01*
X84536659Y-105627390D01*
X84565300Y-105483408D01*
X85614699Y-105483408D01*
X85643340Y-105627390D01*
X85643342Y-105627396D01*
X85699522Y-105763028D01*
X85699526Y-105763035D01*
X85751861Y-105841360D01*
X85751862Y-105841361D01*
X86025681Y-105567541D01*
X86065287Y-105636141D01*
X86133859Y-105704713D01*
X86202457Y-105744318D01*
X85928638Y-106018137D01*
X85928638Y-106018138D01*
X86006971Y-106070478D01*
X86142599Y-106126656D01*
X86142609Y-106126659D01*
X86286591Y-106155300D01*
X86433408Y-106155300D01*
X86577390Y-106126659D01*
X86577400Y-106126656D01*
X86713025Y-106070479D01*
X86713032Y-106070475D01*
X86791360Y-106018137D01*
X86517542Y-105744318D01*
X86586141Y-105704713D01*
X86654713Y-105636141D01*
X86694318Y-105567542D01*
X86968137Y-105841360D01*
X87020475Y-105763032D01*
X87020479Y-105763025D01*
X87076656Y-105627400D01*
X87076659Y-105627390D01*
X87105300Y-105483408D01*
X87105300Y-105336591D01*
X87076659Y-105192609D01*
X87076656Y-105192599D01*
X87020478Y-105056971D01*
X86968137Y-104978638D01*
X86694318Y-105252457D01*
X86654713Y-105183859D01*
X86586141Y-105115287D01*
X86517542Y-105075681D01*
X86791361Y-104801862D01*
X86791360Y-104801861D01*
X86713035Y-104749526D01*
X86713028Y-104749522D01*
X86577396Y-104693342D01*
X86577390Y-104693340D01*
X86433408Y-104664700D01*
X86286592Y-104664700D01*
X86142609Y-104693340D01*
X86142603Y-104693342D01*
X86006971Y-104749522D01*
X86006959Y-104749529D01*
X85928638Y-104801860D01*
X85928637Y-104801861D01*
X86202457Y-105075681D01*
X86133859Y-105115287D01*
X86065287Y-105183859D01*
X86025681Y-105252457D01*
X85751861Y-104978637D01*
X85751860Y-104978638D01*
X85699529Y-105056959D01*
X85699522Y-105056971D01*
X85643342Y-105192603D01*
X85643340Y-105192609D01*
X85614700Y-105336591D01*
X85614700Y-105483408D01*
X85614699Y-105483408D01*
X84565300Y-105483408D01*
X84565300Y-105336591D01*
X84536659Y-105192609D01*
X84536656Y-105192599D01*
X84480478Y-105056971D01*
X84428137Y-104978638D01*
X84154318Y-105252457D01*
X84114713Y-105183859D01*
X84046141Y-105115287D01*
X83977542Y-105075681D01*
X84251361Y-104801862D01*
X84251360Y-104801861D01*
X84173035Y-104749526D01*
X84173028Y-104749522D01*
X84037396Y-104693342D01*
X84037390Y-104693340D01*
X83893408Y-104664700D01*
X83746592Y-104664700D01*
X83602609Y-104693340D01*
X83602603Y-104693342D01*
X83466971Y-104749522D01*
X83466959Y-104749529D01*
X83388638Y-104801860D01*
X83388637Y-104801861D01*
X83662457Y-105075681D01*
X83593859Y-105115287D01*
X83525287Y-105183859D01*
X83485681Y-105252457D01*
X83211861Y-104978637D01*
X83211860Y-104978638D01*
X83159529Y-105056959D01*
X83159522Y-105056971D01*
X83103342Y-105192603D01*
X83103340Y-105192609D01*
X83074700Y-105336591D01*
X83074700Y-105483408D01*
X83074699Y-105483408D01*
X80680500Y-105483408D01*
X80680500Y-104996064D01*
X80657587Y-104940749D01*
X80657587Y-104940748D01*
X80333596Y-104616757D01*
X79857955Y-104141115D01*
X79778401Y-104061561D01*
X84494200Y-104061561D01*
X84494200Y-104218439D01*
X84534803Y-104369970D01*
X84613241Y-104505830D01*
X84724170Y-104616759D01*
X84860030Y-104695197D01*
X85011561Y-104735800D01*
X85011564Y-104735800D01*
X85168436Y-104735800D01*
X85168439Y-104735800D01*
X85319970Y-104695197D01*
X85455830Y-104616759D01*
X85566759Y-104505830D01*
X85645197Y-104369970D01*
X85685800Y-104218439D01*
X85685800Y-104061561D01*
X85645197Y-103910030D01*
X85566759Y-103774170D01*
X85455830Y-103663241D01*
X85319970Y-103584803D01*
X85319971Y-103584803D01*
X85285420Y-103575545D01*
X85168439Y-103544200D01*
X85011561Y-103544200D01*
X84897912Y-103574652D01*
X84860029Y-103584803D01*
X84724171Y-103663240D01*
X84724168Y-103663242D01*
X84613242Y-103774168D01*
X84613240Y-103774171D01*
X84534803Y-103910029D01*
X84534803Y-103910030D01*
X84494200Y-104061561D01*
X79778401Y-104061561D01*
X78660248Y-102943408D01*
X83074699Y-102943408D01*
X83103340Y-103087390D01*
X83103342Y-103087396D01*
X83159522Y-103223028D01*
X83159526Y-103223035D01*
X83211861Y-103301360D01*
X83211862Y-103301361D01*
X83485681Y-103027541D01*
X83525287Y-103096141D01*
X83593859Y-103164713D01*
X83662457Y-103204318D01*
X83388638Y-103478137D01*
X83388638Y-103478138D01*
X83466971Y-103530478D01*
X83602599Y-103586656D01*
X83602609Y-103586659D01*
X83746591Y-103615300D01*
X83893408Y-103615300D01*
X84037390Y-103586659D01*
X84037400Y-103586656D01*
X84173025Y-103530479D01*
X84173032Y-103530475D01*
X84251360Y-103478137D01*
X83977542Y-103204318D01*
X84046141Y-103164713D01*
X84114713Y-103096141D01*
X84154318Y-103027542D01*
X84428137Y-103301360D01*
X84480475Y-103223032D01*
X84480479Y-103223025D01*
X84536656Y-103087400D01*
X84536659Y-103087390D01*
X84565300Y-102943408D01*
X85614699Y-102943408D01*
X85643340Y-103087390D01*
X85643342Y-103087396D01*
X85699522Y-103223028D01*
X85699526Y-103223035D01*
X85751861Y-103301360D01*
X85751862Y-103301361D01*
X86025681Y-103027541D01*
X86065287Y-103096141D01*
X86133859Y-103164713D01*
X86202457Y-103204318D01*
X85928638Y-103478137D01*
X85928638Y-103478138D01*
X86006971Y-103530478D01*
X86142599Y-103586656D01*
X86142609Y-103586659D01*
X86286591Y-103615300D01*
X86433408Y-103615300D01*
X86577390Y-103586659D01*
X86577400Y-103586656D01*
X86713025Y-103530479D01*
X86713032Y-103530475D01*
X86791360Y-103478137D01*
X86517542Y-103204318D01*
X86586141Y-103164713D01*
X86654713Y-103096141D01*
X86694318Y-103027542D01*
X86968137Y-103301360D01*
X87020475Y-103223032D01*
X87020479Y-103223025D01*
X87076656Y-103087400D01*
X87076659Y-103087390D01*
X87105300Y-102943408D01*
X87105300Y-102796591D01*
X87076659Y-102652609D01*
X87076656Y-102652599D01*
X87020478Y-102516971D01*
X86968137Y-102438638D01*
X86694318Y-102712457D01*
X86654713Y-102643859D01*
X86586141Y-102575287D01*
X86517542Y-102535681D01*
X86791361Y-102261862D01*
X86791360Y-102261861D01*
X86713035Y-102209526D01*
X86713028Y-102209522D01*
X86577396Y-102153342D01*
X86577390Y-102153340D01*
X86433408Y-102124700D01*
X86286592Y-102124700D01*
X86142609Y-102153340D01*
X86142603Y-102153342D01*
X86006971Y-102209522D01*
X86006959Y-102209529D01*
X85928638Y-102261860D01*
X85928637Y-102261861D01*
X86202457Y-102535681D01*
X86133859Y-102575287D01*
X86065287Y-102643859D01*
X86025681Y-102712457D01*
X85751861Y-102438637D01*
X85751860Y-102438638D01*
X85699529Y-102516959D01*
X85699522Y-102516971D01*
X85643342Y-102652603D01*
X85643340Y-102652609D01*
X85614700Y-102796591D01*
X85614700Y-102943408D01*
X85614699Y-102943408D01*
X84565300Y-102943408D01*
X84565300Y-102796591D01*
X84536659Y-102652609D01*
X84536656Y-102652599D01*
X84480478Y-102516971D01*
X84428137Y-102438638D01*
X84154318Y-102712456D01*
X84114713Y-102643859D01*
X84046141Y-102575287D01*
X83977542Y-102535681D01*
X84251361Y-102261862D01*
X84251360Y-102261861D01*
X84173035Y-102209526D01*
X84173028Y-102209522D01*
X84037396Y-102153342D01*
X84037390Y-102153340D01*
X83893408Y-102124700D01*
X83746592Y-102124700D01*
X83602609Y-102153340D01*
X83602603Y-102153342D01*
X83466971Y-102209522D01*
X83466959Y-102209529D01*
X83388638Y-102261860D01*
X83388637Y-102261861D01*
X83662457Y-102535681D01*
X83593859Y-102575287D01*
X83525287Y-102643859D01*
X83485681Y-102712457D01*
X83211861Y-102438637D01*
X83211860Y-102438638D01*
X83159529Y-102516959D01*
X83159522Y-102516971D01*
X83103342Y-102652603D01*
X83103340Y-102652609D01*
X83074700Y-102796591D01*
X83074700Y-102943408D01*
X83074699Y-102943408D01*
X78660248Y-102943408D01*
X77950819Y-102233979D01*
X77917334Y-102172656D01*
X77914500Y-102146298D01*
X77914500Y-102110173D01*
X77914499Y-102110170D01*
X77876364Y-102018103D01*
X77805897Y-101947636D01*
X77781755Y-101937636D01*
X77713829Y-101909500D01*
X77713828Y-101909500D01*
X77614172Y-101909500D01*
X77614170Y-101909500D01*
X77522102Y-101947636D01*
X77522101Y-101947637D01*
X77444681Y-102025058D01*
X77383358Y-102058543D01*
X77313666Y-102053559D01*
X77269319Y-102025058D01*
X77201897Y-101957636D01*
X77109829Y-101919500D01*
X77109828Y-101919500D01*
X77010172Y-101919500D01*
X77010170Y-101919500D01*
X76918103Y-101957636D01*
X76858433Y-102017306D01*
X76797109Y-102050790D01*
X76727418Y-102045805D01*
X76682800Y-102012404D01*
X76681000Y-102014205D01*
X76601897Y-101935102D01*
X76509829Y-101896966D01*
X76509828Y-101896966D01*
X76410172Y-101896966D01*
X76410170Y-101896966D01*
X76318102Y-101935102D01*
X76318101Y-101935103D01*
X76246414Y-102006791D01*
X76185091Y-102040276D01*
X76115399Y-102035292D01*
X76071052Y-102006791D01*
X76001897Y-101937636D01*
X75909829Y-101899500D01*
X75909828Y-101899500D01*
X75810172Y-101899500D01*
X75810170Y-101899500D01*
X75718102Y-101937636D01*
X75707676Y-101948062D01*
X75646351Y-101981544D01*
X75576659Y-101976555D01*
X75542101Y-101954345D01*
X75542051Y-101954421D01*
X75537788Y-101951572D01*
X75532318Y-101948057D01*
X75531897Y-101947636D01*
X75439829Y-101909500D01*
X75439828Y-101909500D01*
X75340172Y-101909500D01*
X75340170Y-101909500D01*
X75248102Y-101947636D01*
X75248101Y-101947637D01*
X75237681Y-101958058D01*
X75176358Y-101991543D01*
X75106666Y-101986559D01*
X75062319Y-101958058D01*
X75031897Y-101927636D01*
X74939829Y-101889500D01*
X74939828Y-101889500D01*
X74840172Y-101889500D01*
X74840170Y-101889500D01*
X74748102Y-101927636D01*
X74677636Y-101998102D01*
X74639500Y-102090170D01*
X74639500Y-102189829D01*
X74677636Y-102281897D01*
X74703181Y-102307442D01*
X74736666Y-102368765D01*
X74739500Y-102395123D01*
X74739500Y-102664192D01*
X74741695Y-102669491D01*
X74741696Y-102669500D01*
X74741699Y-102669500D01*
X74762412Y-102719508D01*
X74762413Y-102719509D01*
X74762414Y-102719510D01*
X78735181Y-106692276D01*
X78768666Y-106753599D01*
X78771500Y-106779957D01*
X78771500Y-124244298D01*
X78751815Y-124311337D01*
X78735181Y-124331979D01*
X74002411Y-129064749D01*
X71772413Y-131294745D01*
X71768434Y-131304351D01*
X71758990Y-131327151D01*
X71758989Y-131327154D01*
X71758988Y-131327153D01*
X71749500Y-131350062D01*
X71749500Y-134834877D01*
X71746085Y-134846505D01*
X71747215Y-134858573D01*
X71735609Y-134891904D01*
X71726771Y-134908967D01*
X71687636Y-134948103D01*
X71649500Y-135040172D01*
X69037499Y-135040172D01*
X69037495Y-113103408D01*
X70374699Y-113103408D01*
X70403340Y-113247390D01*
X70403342Y-113247396D01*
X70459522Y-113383028D01*
X70459526Y-113383035D01*
X70511861Y-113461360D01*
X70511862Y-113461361D01*
X70785681Y-113187541D01*
X70825287Y-113256141D01*
X70893859Y-113324713D01*
X70962457Y-113364318D01*
X70688638Y-113638137D01*
X70688638Y-113638138D01*
X70766971Y-113690478D01*
X70902599Y-113746656D01*
X70902609Y-113746659D01*
X71046591Y-113775300D01*
X71193408Y-113775300D01*
X71337390Y-113746659D01*
X71337400Y-113746656D01*
X71473025Y-113690479D01*
X71473032Y-113690475D01*
X71551360Y-113638137D01*
X71277542Y-113364318D01*
X71346141Y-113324713D01*
X71414713Y-113256141D01*
X71454318Y-113187542D01*
X71728137Y-113461360D01*
X71780475Y-113383032D01*
X71780479Y-113383025D01*
X71836656Y-113247400D01*
X71836659Y-113247390D01*
X71865300Y-113103408D01*
X72914699Y-113103408D01*
X72943340Y-113247390D01*
X72943342Y-113247396D01*
X72999522Y-113383028D01*
X72999526Y-113383035D01*
X73051861Y-113461360D01*
X73051862Y-113461361D01*
X73325681Y-113187541D01*
X73365287Y-113256141D01*
X73433859Y-113324713D01*
X73502457Y-113364318D01*
X73228638Y-113638137D01*
X73228638Y-113638138D01*
X73306971Y-113690478D01*
X73442599Y-113746656D01*
X73442609Y-113746659D01*
X73586591Y-113775300D01*
X73733408Y-113775300D01*
X73877390Y-113746659D01*
X73877400Y-113746656D01*
X74013025Y-113690479D01*
X74013032Y-113690475D01*
X74091360Y-113638137D01*
X73817542Y-113364318D01*
X73886141Y-113324713D01*
X73954713Y-113256141D01*
X73994318Y-113187542D01*
X74268137Y-113461360D01*
X74320475Y-113383032D01*
X74320479Y-113383025D01*
X74376656Y-113247400D01*
X74376659Y-113247390D01*
X74405300Y-113103408D01*
X74405300Y-112956591D01*
X74376659Y-112812609D01*
X74376656Y-112812599D01*
X74320478Y-112676971D01*
X74268137Y-112598638D01*
X73994318Y-112872457D01*
X73954713Y-112803859D01*
X73886141Y-112735287D01*
X73817542Y-112695681D01*
X74091361Y-112421862D01*
X74091360Y-112421861D01*
X74013035Y-112369526D01*
X74013028Y-112369522D01*
X73877396Y-112313342D01*
X73877390Y-112313340D01*
X73733408Y-112284700D01*
X73586592Y-112284700D01*
X73442609Y-112313340D01*
X73442603Y-112313342D01*
X73306971Y-112369522D01*
X73306959Y-112369529D01*
X73228638Y-112421860D01*
X73228637Y-112421861D01*
X73502457Y-112695681D01*
X73433859Y-112735287D01*
X73365287Y-112803859D01*
X73325681Y-112872457D01*
X73051861Y-112598637D01*
X73051860Y-112598638D01*
X72999529Y-112676959D01*
X72999522Y-112676971D01*
X72943342Y-112812603D01*
X72943340Y-112812609D01*
X72914700Y-112956591D01*
X72914700Y-113103408D01*
X72914699Y-113103408D01*
X71865300Y-113103408D01*
X71865300Y-112956591D01*
X71836659Y-112812609D01*
X71836656Y-112812599D01*
X71780478Y-112676971D01*
X71728137Y-112598638D01*
X71454318Y-112872457D01*
X71414713Y-112803859D01*
X71346141Y-112735287D01*
X71277542Y-112695681D01*
X71551361Y-112421862D01*
X71551360Y-112421861D01*
X71473035Y-112369526D01*
X71473028Y-112369522D01*
X71337396Y-112313342D01*
X71337390Y-112313340D01*
X71193408Y-112284700D01*
X71046592Y-112284700D01*
X70902609Y-112313340D01*
X70902603Y-112313342D01*
X70766971Y-112369522D01*
X70766959Y-112369529D01*
X70688638Y-112421860D01*
X70688637Y-112421861D01*
X70962457Y-112695681D01*
X70893859Y-112735287D01*
X70825287Y-112803859D01*
X70785681Y-112872457D01*
X70511861Y-112598637D01*
X70511860Y-112598638D01*
X70459529Y-112676959D01*
X70459522Y-112676971D01*
X70403342Y-112812603D01*
X70403340Y-112812609D01*
X70374700Y-112956591D01*
X70374700Y-113103408D01*
X70374699Y-113103408D01*
X69037495Y-113103408D01*
X69037495Y-111681561D01*
X71794200Y-111681561D01*
X71794200Y-111838439D01*
X71834803Y-111989970D01*
X71913241Y-112125830D01*
X72024170Y-112236759D01*
X72160030Y-112315197D01*
X72311561Y-112355800D01*
X72311564Y-112355800D01*
X72468436Y-112355800D01*
X72468439Y-112355800D01*
X72619970Y-112315197D01*
X72755830Y-112236759D01*
X72866759Y-112125830D01*
X72945197Y-111989970D01*
X72985800Y-111838439D01*
X72985800Y-111681561D01*
X72945197Y-111530030D01*
X72866759Y-111394170D01*
X72755830Y-111283241D01*
X72619970Y-111204803D01*
X72619971Y-111204803D01*
X72585420Y-111195545D01*
X72468439Y-111164200D01*
X72311561Y-111164200D01*
X72197912Y-111194652D01*
X72160029Y-111204803D01*
X72024171Y-111283240D01*
X72024168Y-111283242D01*
X71913242Y-111394168D01*
X71913240Y-111394171D01*
X71834803Y-111530029D01*
X71834803Y-111530030D01*
X71794200Y-111681561D01*
X69037495Y-111681561D01*
X69037495Y-110563408D01*
X70374699Y-110563408D01*
X70403340Y-110707390D01*
X70403342Y-110707396D01*
X70459522Y-110843028D01*
X70459526Y-110843035D01*
X70511861Y-110921360D01*
X70511862Y-110921361D01*
X70785681Y-110647541D01*
X70825287Y-110716141D01*
X70893859Y-110784713D01*
X70962457Y-110824318D01*
X70688638Y-111098137D01*
X70688638Y-111098138D01*
X70766971Y-111150478D01*
X70902599Y-111206656D01*
X70902609Y-111206659D01*
X71046591Y-111235300D01*
X71193408Y-111235300D01*
X71337390Y-111206659D01*
X71337400Y-111206656D01*
X71473025Y-111150479D01*
X71473032Y-111150475D01*
X71551360Y-111098137D01*
X71277542Y-110824318D01*
X71346141Y-110784713D01*
X71414713Y-110716141D01*
X71454318Y-110647542D01*
X71728137Y-110921360D01*
X71780475Y-110843032D01*
X71780479Y-110843025D01*
X71836656Y-110707400D01*
X71836659Y-110707390D01*
X71865300Y-110563408D01*
X72914699Y-110563408D01*
X72943340Y-110707390D01*
X72943342Y-110707396D01*
X72999522Y-110843028D01*
X72999526Y-110843035D01*
X73051861Y-110921360D01*
X73051862Y-110921361D01*
X73325681Y-110647541D01*
X73365287Y-110716141D01*
X73433859Y-110784713D01*
X73502457Y-110824318D01*
X73228638Y-111098137D01*
X73228638Y-111098138D01*
X73306971Y-111150478D01*
X73442599Y-111206656D01*
X73442609Y-111206659D01*
X73586591Y-111235300D01*
X73733408Y-111235300D01*
X73877390Y-111206659D01*
X73877400Y-111206656D01*
X74013025Y-111150479D01*
X74013032Y-111150475D01*
X74091360Y-111098137D01*
X73817542Y-110824318D01*
X73886141Y-110784713D01*
X73954713Y-110716141D01*
X73994318Y-110647542D01*
X74268137Y-110921360D01*
X74320475Y-110843032D01*
X74320479Y-110843025D01*
X74376656Y-110707400D01*
X74376659Y-110707390D01*
X74405300Y-110563408D01*
X74405300Y-110416591D01*
X74376659Y-110272609D01*
X74376656Y-110272599D01*
X74320478Y-110136971D01*
X74268137Y-110058638D01*
X73994318Y-110332457D01*
X73954713Y-110263859D01*
X73886141Y-110195287D01*
X73817542Y-110155681D01*
X74091361Y-109881862D01*
X74091360Y-109881861D01*
X74013035Y-109829526D01*
X74013028Y-109829522D01*
X73877396Y-109773342D01*
X73877390Y-109773340D01*
X73733408Y-109744700D01*
X73586592Y-109744700D01*
X73442609Y-109773340D01*
X73442603Y-109773342D01*
X73306971Y-109829522D01*
X73306959Y-109829529D01*
X73228638Y-109881860D01*
X73228637Y-109881861D01*
X73502457Y-110155681D01*
X73433859Y-110195287D01*
X73365287Y-110263859D01*
X73325681Y-110332457D01*
X73051861Y-110058637D01*
X73051860Y-110058638D01*
X72999529Y-110136959D01*
X72999522Y-110136971D01*
X72943342Y-110272603D01*
X72943340Y-110272609D01*
X72914700Y-110416591D01*
X72914700Y-110563408D01*
X72914699Y-110563408D01*
X71865300Y-110563408D01*
X71865300Y-110416591D01*
X71836659Y-110272609D01*
X71836656Y-110272599D01*
X71780478Y-110136971D01*
X71728137Y-110058638D01*
X71454318Y-110332457D01*
X71414713Y-110263859D01*
X71346141Y-110195287D01*
X71277542Y-110155681D01*
X71551361Y-109881862D01*
X71551360Y-109881861D01*
X71473035Y-109829526D01*
X71473028Y-109829522D01*
X71337396Y-109773342D01*
X71337390Y-109773340D01*
X71193408Y-109744700D01*
X71046592Y-109744700D01*
X70902609Y-109773340D01*
X70902603Y-109773342D01*
X70766971Y-109829522D01*
X70766959Y-109829529D01*
X70688638Y-109881860D01*
X70688637Y-109881861D01*
X70962457Y-110155681D01*
X70893859Y-110195287D01*
X70825287Y-110263859D01*
X70785681Y-110332457D01*
X70511861Y-110058637D01*
X70511860Y-110058638D01*
X70459529Y-110136959D01*
X70459522Y-110136971D01*
X70403342Y-110272603D01*
X70403340Y-110272609D01*
X70374700Y-110416591D01*
X70374700Y-110563408D01*
X70374699Y-110563408D01*
X69037495Y-110563408D01*
X69037494Y-105483408D01*
X70374699Y-105483408D01*
X70403340Y-105627390D01*
X70403342Y-105627396D01*
X70459522Y-105763028D01*
X70459526Y-105763035D01*
X70511861Y-105841360D01*
X70511862Y-105841361D01*
X70785681Y-105567541D01*
X70825287Y-105636141D01*
X70893859Y-105704713D01*
X70962457Y-105744318D01*
X70688638Y-106018137D01*
X70688638Y-106018138D01*
X70766971Y-106070478D01*
X70902599Y-106126656D01*
X70902609Y-106126659D01*
X71046591Y-106155300D01*
X71193408Y-106155300D01*
X71337390Y-106126659D01*
X71337400Y-106126656D01*
X71473025Y-106070479D01*
X71473032Y-106070475D01*
X71551360Y-106018137D01*
X71277542Y-105744318D01*
X71346141Y-105704713D01*
X71414713Y-105636141D01*
X71454318Y-105567542D01*
X71728137Y-105841360D01*
X71780475Y-105763032D01*
X71780479Y-105763025D01*
X71836656Y-105627400D01*
X71836659Y-105627390D01*
X71865300Y-105483408D01*
X72914699Y-105483408D01*
X72943340Y-105627390D01*
X72943342Y-105627396D01*
X72999522Y-105763028D01*
X72999526Y-105763035D01*
X73051861Y-105841360D01*
X73051862Y-105841361D01*
X73325681Y-105567541D01*
X73365287Y-105636141D01*
X73433859Y-105704713D01*
X73502457Y-105744318D01*
X73228638Y-106018137D01*
X73228638Y-106018138D01*
X73306971Y-106070478D01*
X73442599Y-106126656D01*
X73442609Y-106126659D01*
X73586591Y-106155300D01*
X73733408Y-106155300D01*
X73877390Y-106126659D01*
X73877400Y-106126656D01*
X74013025Y-106070479D01*
X74013032Y-106070475D01*
X74091360Y-106018137D01*
X73817542Y-105744318D01*
X73886141Y-105704713D01*
X73954713Y-105636141D01*
X73994318Y-105567542D01*
X74268137Y-105841360D01*
X74320475Y-105763032D01*
X74320479Y-105763025D01*
X74376656Y-105627400D01*
X74376659Y-105627390D01*
X74405300Y-105483408D01*
X74405300Y-105336591D01*
X74376659Y-105192609D01*
X74376656Y-105192599D01*
X74320478Y-105056971D01*
X74268137Y-104978638D01*
X73994318Y-105252457D01*
X73954713Y-105183859D01*
X73886141Y-105115287D01*
X73817542Y-105075681D01*
X74091361Y-104801862D01*
X74091360Y-104801861D01*
X74013035Y-104749526D01*
X74013028Y-104749522D01*
X73877396Y-104693342D01*
X73877390Y-104693340D01*
X73733408Y-104664700D01*
X73586592Y-104664700D01*
X73442609Y-104693340D01*
X73442603Y-104693342D01*
X73306971Y-104749522D01*
X73306959Y-104749529D01*
X73228638Y-104801860D01*
X73228637Y-104801861D01*
X73502457Y-105075681D01*
X73433859Y-105115287D01*
X73365287Y-105183859D01*
X73325681Y-105252457D01*
X73051861Y-104978637D01*
X73051860Y-104978638D01*
X72999529Y-105056959D01*
X72999522Y-105056971D01*
X72943342Y-105192603D01*
X72943340Y-105192609D01*
X72914700Y-105336591D01*
X72914700Y-105483408D01*
X72914699Y-105483408D01*
X71865300Y-105483408D01*
X71865300Y-105336591D01*
X71836659Y-105192609D01*
X71836656Y-105192599D01*
X71780478Y-105056971D01*
X71728137Y-104978638D01*
X71454318Y-105252457D01*
X71414713Y-105183859D01*
X71346141Y-105115287D01*
X71277542Y-105075681D01*
X71551361Y-104801862D01*
X71551360Y-104801861D01*
X71473035Y-104749526D01*
X71473028Y-104749522D01*
X71337396Y-104693342D01*
X71337390Y-104693340D01*
X71193408Y-104664700D01*
X71046592Y-104664700D01*
X70902609Y-104693340D01*
X70902603Y-104693342D01*
X70766971Y-104749522D01*
X70766959Y-104749529D01*
X70688638Y-104801860D01*
X70688637Y-104801861D01*
X70962457Y-105075681D01*
X70893859Y-105115287D01*
X70825287Y-105183859D01*
X70785681Y-105252457D01*
X70511861Y-104978637D01*
X70511860Y-104978638D01*
X70459529Y-105056959D01*
X70459522Y-105056971D01*
X70403342Y-105192603D01*
X70403340Y-105192609D01*
X70374700Y-105336591D01*
X70374700Y-105483408D01*
X70374699Y-105483408D01*
X69037494Y-105483408D01*
X69037494Y-104061561D01*
X71794200Y-104061561D01*
X71794200Y-104218439D01*
X71834803Y-104369970D01*
X71913241Y-104505830D01*
X72024170Y-104616759D01*
X72160030Y-104695197D01*
X72311561Y-104735800D01*
X72311564Y-104735800D01*
X72468436Y-104735800D01*
X72468439Y-104735800D01*
X72619970Y-104695197D01*
X72755830Y-104616759D01*
X72866759Y-104505830D01*
X72945197Y-104369970D01*
X72985800Y-104218439D01*
X72985800Y-104061561D01*
X72945197Y-103910030D01*
X72866759Y-103774170D01*
X72755830Y-103663241D01*
X72619970Y-103584803D01*
X72619971Y-103584803D01*
X72585420Y-103575545D01*
X72468439Y-103544200D01*
X72311561Y-103544200D01*
X72197912Y-103574652D01*
X72160029Y-103584803D01*
X72024171Y-103663240D01*
X72024168Y-103663242D01*
X71913242Y-103774168D01*
X71913240Y-103774171D01*
X71834803Y-103910029D01*
X71834803Y-103910030D01*
X71794200Y-104061561D01*
X69037494Y-104061561D01*
X69037494Y-102943408D01*
X70374699Y-102943408D01*
X70403340Y-103087390D01*
X70403342Y-103087396D01*
X70459522Y-103223028D01*
X70459526Y-103223035D01*
X70511861Y-103301360D01*
X70511862Y-103301361D01*
X70785681Y-103027541D01*
X70825287Y-103096141D01*
X70893859Y-103164713D01*
X70962457Y-103204318D01*
X70688638Y-103478137D01*
X70688638Y-103478138D01*
X70766971Y-103530478D01*
X70902599Y-103586656D01*
X70902609Y-103586659D01*
X71046591Y-103615300D01*
X71193408Y-103615300D01*
X71337390Y-103586659D01*
X71337400Y-103586656D01*
X71473025Y-103530479D01*
X71473032Y-103530475D01*
X71551360Y-103478137D01*
X71277542Y-103204318D01*
X71346141Y-103164713D01*
X71414713Y-103096141D01*
X71454318Y-103027542D01*
X71728137Y-103301360D01*
X71780475Y-103223032D01*
X71780479Y-103223025D01*
X71836656Y-103087400D01*
X71836659Y-103087390D01*
X71865300Y-102943408D01*
X72914699Y-102943408D01*
X72943340Y-103087390D01*
X72943342Y-103087396D01*
X72999522Y-103223028D01*
X72999526Y-103223035D01*
X73051861Y-103301360D01*
X73051862Y-103301361D01*
X73325681Y-103027541D01*
X73365287Y-103096141D01*
X73433859Y-103164713D01*
X73502457Y-103204318D01*
X73228638Y-103478137D01*
X73228638Y-103478138D01*
X73306971Y-103530478D01*
X73442599Y-103586656D01*
X73442609Y-103586659D01*
X73586591Y-103615300D01*
X73733408Y-103615300D01*
X73877390Y-103586659D01*
X73877400Y-103586656D01*
X74013025Y-103530479D01*
X74013032Y-103530475D01*
X74091360Y-103478137D01*
X73817542Y-103204318D01*
X73886141Y-103164713D01*
X73954713Y-103096141D01*
X73994318Y-103027542D01*
X74268137Y-103301360D01*
X74320475Y-103223032D01*
X74320479Y-103223025D01*
X74376656Y-103087400D01*
X74376659Y-103087390D01*
X74405300Y-102943408D01*
X74405300Y-102796591D01*
X74376659Y-102652609D01*
X74376656Y-102652599D01*
X74320478Y-102516971D01*
X74268137Y-102438638D01*
X73994318Y-102712457D01*
X73954713Y-102643859D01*
X73886141Y-102575287D01*
X73817542Y-102535681D01*
X74091361Y-102261862D01*
X74091360Y-102261861D01*
X74013035Y-102209526D01*
X74013028Y-102209522D01*
X73877396Y-102153342D01*
X73877390Y-102153340D01*
X73733408Y-102124700D01*
X73586592Y-102124700D01*
X73442609Y-102153340D01*
X73442603Y-102153342D01*
X73306971Y-102209522D01*
X73306959Y-102209529D01*
X73228638Y-102261860D01*
X73228637Y-102261861D01*
X73502457Y-102535681D01*
X73433859Y-102575287D01*
X73365287Y-102643859D01*
X73325681Y-102712457D01*
X73051861Y-102438637D01*
X73051860Y-102438638D01*
X72999529Y-102516959D01*
X72999522Y-102516971D01*
X72943342Y-102652603D01*
X72943340Y-102652609D01*
X72914700Y-102796591D01*
X72914700Y-102943408D01*
X72914699Y-102943408D01*
X71865300Y-102943408D01*
X71865300Y-102796591D01*
X71836659Y-102652609D01*
X71836656Y-102652599D01*
X71780478Y-102516971D01*
X71728137Y-102438638D01*
X71454318Y-102712457D01*
X71414713Y-102643859D01*
X71346141Y-102575287D01*
X71277542Y-102535681D01*
X71551361Y-102261862D01*
X71551360Y-102261861D01*
X71473035Y-102209526D01*
X71473028Y-102209522D01*
X71337396Y-102153342D01*
X71337390Y-102153340D01*
X71193408Y-102124700D01*
X71046592Y-102124700D01*
X70902609Y-102153340D01*
X70902603Y-102153342D01*
X70766971Y-102209522D01*
X70766959Y-102209529D01*
X70688638Y-102261860D01*
X70688637Y-102261861D01*
X70962457Y-102535681D01*
X70893859Y-102575287D01*
X70825287Y-102643859D01*
X70785681Y-102712457D01*
X70511861Y-102438637D01*
X70511860Y-102438638D01*
X70459529Y-102516959D01*
X70459522Y-102516971D01*
X70403342Y-102652603D01*
X70403340Y-102652609D01*
X70374700Y-102796591D01*
X70374700Y-102943408D01*
X70374699Y-102943408D01*
X69037494Y-102943408D01*
X69037490Y-82300170D01*
X74049500Y-82300170D01*
X74049500Y-82399829D01*
X74087636Y-82491897D01*
X74158103Y-82562364D01*
X74250172Y-82600500D01*
X74250174Y-82600500D01*
X74349826Y-82600500D01*
X74349828Y-82600500D01*
X74441897Y-82562364D01*
X74512364Y-82491897D01*
X74550500Y-82399828D01*
X74550500Y-82310170D01*
X82919500Y-82310170D01*
X82919500Y-82310172D01*
X82919500Y-82409828D01*
X82957636Y-82501897D01*
X83028103Y-82572364D01*
X83120172Y-82610500D01*
X83120174Y-82610500D01*
X83219826Y-82610500D01*
X83219828Y-82610500D01*
X83311897Y-82572364D01*
X83382364Y-82501897D01*
X83420500Y-82409828D01*
X83420500Y-82310172D01*
X83382364Y-82218103D01*
X83311897Y-82147636D01*
X83287755Y-82137636D01*
X83219829Y-82109500D01*
X83219828Y-82109500D01*
X83120172Y-82109500D01*
X83120170Y-82109500D01*
X83028102Y-82147636D01*
X82957636Y-82218102D01*
X82919500Y-82310170D01*
X74550500Y-82310170D01*
X74550500Y-82300172D01*
X74512364Y-82208103D01*
X74441897Y-82137636D01*
X74349829Y-82099500D01*
X74349828Y-82099500D01*
X74250172Y-82099500D01*
X74250170Y-82099500D01*
X74158102Y-82137636D01*
X74087636Y-82208102D01*
X74049500Y-82300170D01*
X69037490Y-82300170D01*
X69037490Y-81900170D01*
X72719500Y-81900170D01*
X72719500Y-81900172D01*
X72719500Y-81999828D01*
X72757636Y-82091897D01*
X72828103Y-82162364D01*
X72920172Y-82200500D01*
X72920174Y-82200500D01*
X73019826Y-82200500D01*
X73019828Y-82200500D01*
X73111897Y-82162364D01*
X73182364Y-82091897D01*
X73220500Y-81999828D01*
X73220500Y-81900172D01*
X73220499Y-81900170D01*
X84309500Y-81900170D01*
X84309500Y-81900172D01*
X84309500Y-81999828D01*
X84347636Y-82091897D01*
X84418103Y-82162364D01*
X84510172Y-82200500D01*
X84510174Y-82200500D01*
X84609826Y-82200500D01*
X84609828Y-82200500D01*
X84701897Y-82162364D01*
X84772364Y-82091897D01*
X84810500Y-81999828D01*
X84810500Y-81900172D01*
X84772364Y-81808103D01*
X84701897Y-81737636D01*
X84609829Y-81699500D01*
X84609828Y-81699500D01*
X84510172Y-81699500D01*
X84510170Y-81699500D01*
X84418102Y-81737636D01*
X84347636Y-81808102D01*
X84309500Y-81900170D01*
X73220499Y-81900170D01*
X73182364Y-81808103D01*
X73111897Y-81737636D01*
X73019829Y-81699500D01*
X73019828Y-81699500D01*
X72920172Y-81699500D01*
X72920170Y-81699500D01*
X72828102Y-81737636D01*
X72757636Y-81808102D01*
X72719500Y-81900170D01*
X69037490Y-81900170D01*
X69037490Y-81490314D01*
X74040307Y-81490314D01*
X74040307Y-81589973D01*
X74044389Y-81599828D01*
X74078443Y-81682041D01*
X74148910Y-81752508D01*
X74240979Y-81790644D01*
X74240981Y-81790644D01*
X74340633Y-81790644D01*
X74340635Y-81790644D01*
X74432704Y-81752508D01*
X74503171Y-81682041D01*
X74541307Y-81589972D01*
X74541307Y-81500170D01*
X82919500Y-81500170D01*
X82919500Y-81599829D01*
X82957636Y-81691897D01*
X83028103Y-81762364D01*
X83120172Y-81800500D01*
X83120174Y-81800500D01*
X83219826Y-81800500D01*
X83219828Y-81800500D01*
X83311897Y-81762364D01*
X83382364Y-81691897D01*
X83420500Y-81599828D01*
X83420500Y-81500172D01*
X83382364Y-81408103D01*
X83311897Y-81337636D01*
X83219829Y-81299500D01*
X83219828Y-81299500D01*
X83120172Y-81299500D01*
X83120170Y-81299500D01*
X83028102Y-81337636D01*
X82957636Y-81408102D01*
X82919500Y-81500170D01*
X74541307Y-81500170D01*
X74541307Y-81490316D01*
X74503171Y-81398247D01*
X74432704Y-81327780D01*
X74364430Y-81299500D01*
X74340636Y-81289644D01*
X74340635Y-81289644D01*
X74240979Y-81289644D01*
X74240977Y-81289644D01*
X74148909Y-81327780D01*
X74078443Y-81398246D01*
X74040307Y-81490314D01*
X69037490Y-81490314D01*
X69037490Y-81100170D01*
X72719500Y-81100170D01*
X72719500Y-81100172D01*
X72719500Y-81199828D01*
X72757636Y-81291897D01*
X72828103Y-81362364D01*
X72920172Y-81400500D01*
X72920174Y-81400500D01*
X73019826Y-81400500D01*
X73019828Y-81400500D01*
X73111897Y-81362364D01*
X73182364Y-81291897D01*
X73220500Y-81199828D01*
X73220500Y-81100172D01*
X73220499Y-81100170D01*
X84309500Y-81100170D01*
X84309500Y-81100172D01*
X84309500Y-81199828D01*
X84347636Y-81291897D01*
X84418103Y-81362364D01*
X84510172Y-81400500D01*
X84510174Y-81400500D01*
X84609826Y-81400500D01*
X84609828Y-81400500D01*
X84701897Y-81362364D01*
X84772364Y-81291897D01*
X84810500Y-81199828D01*
X84810500Y-81100172D01*
X84772364Y-81008103D01*
X84701897Y-80937636D01*
X84609829Y-80899500D01*
X84609828Y-80899500D01*
X84510172Y-80899500D01*
X84510170Y-80899500D01*
X84418102Y-80937636D01*
X84347636Y-81008102D01*
X84309500Y-81100170D01*
X73220499Y-81100170D01*
X73182364Y-81008103D01*
X73111897Y-80937636D01*
X73019829Y-80899500D01*
X73019828Y-80899500D01*
X72920172Y-80899500D01*
X72920170Y-80899500D01*
X72828102Y-80937636D01*
X72757636Y-81008102D01*
X72719500Y-81100170D01*
X69037490Y-81100170D01*
X69037490Y-80690758D01*
X74042359Y-80690758D01*
X74042359Y-80790417D01*
X74050400Y-80809829D01*
X74080495Y-80882485D01*
X74150962Y-80952952D01*
X74243031Y-80991088D01*
X74243033Y-80991088D01*
X74342685Y-80991088D01*
X74342687Y-80991088D01*
X74434756Y-80952952D01*
X74505223Y-80882485D01*
X74543359Y-80790416D01*
X74543359Y-80710170D01*
X82919500Y-80710170D01*
X82919500Y-80710172D01*
X82919500Y-80809828D01*
X82957636Y-80901897D01*
X83028103Y-80972364D01*
X83120172Y-81010500D01*
X83120174Y-81010500D01*
X83219826Y-81010500D01*
X83219828Y-81010500D01*
X83311897Y-80972364D01*
X83382364Y-80901897D01*
X83420500Y-80809828D01*
X83420500Y-80710172D01*
X83382364Y-80618103D01*
X83311897Y-80547636D01*
X83219829Y-80509500D01*
X83219828Y-80509500D01*
X83120172Y-80509500D01*
X83120170Y-80509500D01*
X83028102Y-80547636D01*
X82957636Y-80618102D01*
X82919500Y-80710170D01*
X74543359Y-80710170D01*
X74543359Y-80690760D01*
X74505223Y-80598691D01*
X74434756Y-80528224D01*
X74371197Y-80501897D01*
X74342688Y-80490088D01*
X74342687Y-80490088D01*
X74243031Y-80490088D01*
X74243029Y-80490088D01*
X74150961Y-80528224D01*
X74080495Y-80598690D01*
X74042359Y-80690758D01*
X69037490Y-80690758D01*
X69037490Y-80290170D01*
X72709500Y-80290170D01*
X72709500Y-80389829D01*
X72747636Y-80481897D01*
X72818103Y-80552364D01*
X72910172Y-80590500D01*
X72910174Y-80590500D01*
X73009826Y-80590500D01*
X73009828Y-80590500D01*
X73101897Y-80552364D01*
X73172364Y-80481897D01*
X73210500Y-80389828D01*
X73210500Y-80310170D01*
X84309500Y-80310170D01*
X84309500Y-80310172D01*
X84309500Y-80409828D01*
X84347636Y-80501897D01*
X84418103Y-80572364D01*
X84510172Y-80610500D01*
X84510174Y-80610500D01*
X84609826Y-80610500D01*
X84609828Y-80610500D01*
X84701897Y-80572364D01*
X84772364Y-80501897D01*
X84810500Y-80409828D01*
X84810500Y-80310172D01*
X84772364Y-80218103D01*
X84701897Y-80147636D01*
X84609829Y-80109500D01*
X84609828Y-80109500D01*
X84510172Y-80109500D01*
X84510170Y-80109500D01*
X84418102Y-80147636D01*
X84347636Y-80218102D01*
X84309500Y-80310170D01*
X73210500Y-80310170D01*
X73210500Y-80290172D01*
X73172364Y-80198103D01*
X73101897Y-80127636D01*
X73058113Y-80109500D01*
X73009829Y-80089500D01*
X73009828Y-80089500D01*
X72910172Y-80089500D01*
X72910170Y-80089500D01*
X72818102Y-80127636D01*
X72747636Y-80198102D01*
X72709500Y-80290170D01*
X69037490Y-80290170D01*
X69037490Y-79891857D01*
X74068612Y-79891857D01*
X74068612Y-79991516D01*
X74076197Y-80009828D01*
X74106748Y-80083584D01*
X74177215Y-80154051D01*
X74269284Y-80192187D01*
X74269286Y-80192187D01*
X74368938Y-80192187D01*
X74368940Y-80192187D01*
X74461009Y-80154051D01*
X74531476Y-80083584D01*
X74569612Y-79991515D01*
X74569612Y-79910170D01*
X82899500Y-79910170D01*
X82899500Y-80009829D01*
X82932501Y-80089500D01*
X82937636Y-80101897D01*
X83008103Y-80172364D01*
X83100172Y-80210500D01*
X83100174Y-80210500D01*
X83199826Y-80210500D01*
X83199828Y-80210500D01*
X83291897Y-80172364D01*
X83362364Y-80101897D01*
X83400500Y-80009828D01*
X83400500Y-79910172D01*
X83362364Y-79818103D01*
X83291897Y-79747636D01*
X83199829Y-79709500D01*
X83199828Y-79709500D01*
X83100172Y-79709500D01*
X83100170Y-79709500D01*
X83008102Y-79747636D01*
X82937636Y-79818102D01*
X82899500Y-79910170D01*
X74569612Y-79910170D01*
X74569612Y-79891859D01*
X74531476Y-79799790D01*
X74461009Y-79729323D01*
X74413152Y-79709500D01*
X74368941Y-79691187D01*
X74368940Y-79691187D01*
X74269284Y-79691187D01*
X74269282Y-79691187D01*
X74177214Y-79729323D01*
X74106748Y-79799789D01*
X74068612Y-79891857D01*
X69037490Y-79891857D01*
X69037490Y-79500170D01*
X72719500Y-79500170D01*
X72719500Y-79500172D01*
X72719500Y-79599828D01*
X72757636Y-79691897D01*
X72828103Y-79762364D01*
X72920172Y-79800500D01*
X72920174Y-79800500D01*
X73019826Y-79800500D01*
X73019828Y-79800500D01*
X73111897Y-79762364D01*
X73182364Y-79691897D01*
X73220500Y-79599828D01*
X73220500Y-79500172D01*
X73220499Y-79500170D01*
X84309500Y-79500170D01*
X84309500Y-79500172D01*
X84309500Y-79599828D01*
X84347636Y-79691897D01*
X84418103Y-79762364D01*
X84510172Y-79800500D01*
X84510174Y-79800500D01*
X84609826Y-79800500D01*
X84609828Y-79800500D01*
X84701897Y-79762364D01*
X84772364Y-79691897D01*
X84810500Y-79599828D01*
X84810500Y-79500172D01*
X84772364Y-79408103D01*
X84701897Y-79337636D01*
X84609829Y-79299500D01*
X84609828Y-79299500D01*
X84510172Y-79299500D01*
X84510170Y-79299500D01*
X84418102Y-79337636D01*
X84347636Y-79408102D01*
X84309500Y-79500170D01*
X73220499Y-79500170D01*
X73182364Y-79408103D01*
X73111897Y-79337636D01*
X73019829Y-79299500D01*
X73019828Y-79299500D01*
X72920172Y-79299500D01*
X72920170Y-79299500D01*
X72828102Y-79337636D01*
X72757636Y-79408102D01*
X72719500Y-79500170D01*
X69037490Y-79500170D01*
X69037490Y-79100170D01*
X74089500Y-79100170D01*
X74089500Y-79199829D01*
X74127636Y-79291897D01*
X74198103Y-79362364D01*
X74290172Y-79400500D01*
X74290174Y-79400500D01*
X74389826Y-79400500D01*
X74389828Y-79400500D01*
X74481897Y-79362364D01*
X74552364Y-79291897D01*
X74590500Y-79199828D01*
X74590500Y-79120170D01*
X82899500Y-79120170D01*
X82899500Y-79120172D01*
X82899500Y-79219828D01*
X82937636Y-79311897D01*
X83008103Y-79382364D01*
X83100172Y-79420500D01*
X83100174Y-79420500D01*
X83199826Y-79420500D01*
X83199828Y-79420500D01*
X83291897Y-79382364D01*
X83362364Y-79311897D01*
X83400500Y-79219828D01*
X83400500Y-79120172D01*
X83362364Y-79028103D01*
X83291897Y-78957636D01*
X83199829Y-78919500D01*
X83199828Y-78919500D01*
X83100172Y-78919500D01*
X83100170Y-78919500D01*
X83008102Y-78957636D01*
X82937636Y-79028102D01*
X82899500Y-79120170D01*
X74590500Y-79120170D01*
X74590500Y-79100172D01*
X74552364Y-79008103D01*
X74481897Y-78937636D01*
X74438113Y-78919500D01*
X74389829Y-78899500D01*
X74389828Y-78899500D01*
X74290172Y-78899500D01*
X74290170Y-78899500D01*
X74198102Y-78937636D01*
X74127636Y-79008102D01*
X74089500Y-79100170D01*
X69037490Y-79100170D01*
X69037490Y-78710170D01*
X72729500Y-78710170D01*
X72729500Y-78710172D01*
X72729500Y-78809828D01*
X72767636Y-78901897D01*
X72838103Y-78972364D01*
X72930172Y-79010500D01*
X72930174Y-79010500D01*
X73029826Y-79010500D01*
X73029828Y-79010500D01*
X73121897Y-78972364D01*
X73192364Y-78901897D01*
X73230500Y-78809828D01*
X73230500Y-78710172D01*
X73230499Y-78710170D01*
X84309500Y-78710170D01*
X84309500Y-78710172D01*
X84309500Y-78809828D01*
X84347636Y-78901897D01*
X84418103Y-78972364D01*
X84510172Y-79010500D01*
X84510174Y-79010500D01*
X84609826Y-79010500D01*
X84609828Y-79010500D01*
X84701897Y-78972364D01*
X84772364Y-78901897D01*
X84810500Y-78809828D01*
X84810500Y-78710172D01*
X84772364Y-78618103D01*
X84701897Y-78547636D01*
X84609829Y-78509500D01*
X84609828Y-78509500D01*
X84510172Y-78509500D01*
X84510170Y-78509500D01*
X84418102Y-78547636D01*
X84347636Y-78618102D01*
X84309500Y-78710170D01*
X73230499Y-78710170D01*
X73192364Y-78618103D01*
X73121897Y-78547636D01*
X73029829Y-78509500D01*
X73029828Y-78509500D01*
X72930172Y-78509500D01*
X72930170Y-78509500D01*
X72838102Y-78547636D01*
X72767636Y-78618102D01*
X72729500Y-78710170D01*
X69037490Y-78710170D01*
X69037490Y-78310170D01*
X74089500Y-78310170D01*
X74089500Y-78310172D01*
X74089500Y-78409828D01*
X74127636Y-78501897D01*
X74198103Y-78572364D01*
X74290172Y-78610500D01*
X74290174Y-78610500D01*
X74389826Y-78610500D01*
X74389828Y-78610500D01*
X74481897Y-78572364D01*
X74552364Y-78501897D01*
X74590500Y-78409828D01*
X74590500Y-78310172D01*
X74590499Y-78310170D01*
X82909500Y-78310170D01*
X82909500Y-78310172D01*
X82909500Y-78409828D01*
X82947636Y-78501897D01*
X83018103Y-78572364D01*
X83110172Y-78610500D01*
X83110174Y-78610500D01*
X83209826Y-78610500D01*
X83209828Y-78610500D01*
X83301897Y-78572364D01*
X83372364Y-78501897D01*
X83410500Y-78409828D01*
X83410500Y-78310172D01*
X83372364Y-78218103D01*
X83301897Y-78147636D01*
X83209829Y-78109500D01*
X83209828Y-78109500D01*
X83110172Y-78109500D01*
X83110170Y-78109500D01*
X83018102Y-78147636D01*
X82947636Y-78218102D01*
X82909500Y-78310170D01*
X74590499Y-78310170D01*
X74552364Y-78218103D01*
X74481897Y-78147636D01*
X74389829Y-78109500D01*
X74389828Y-78109500D01*
X74290172Y-78109500D01*
X74290170Y-78109500D01*
X74198102Y-78147636D01*
X74127636Y-78218102D01*
X74089500Y-78310170D01*
X69037490Y-78310170D01*
X69037490Y-77910170D01*
X72749500Y-77910170D01*
X72749500Y-78009829D01*
X72787636Y-78101897D01*
X72858103Y-78172364D01*
X72950172Y-78210500D01*
X72950174Y-78210500D01*
X73049826Y-78210500D01*
X73049828Y-78210500D01*
X73141897Y-78172364D01*
X73212364Y-78101897D01*
X73250500Y-78009828D01*
X73250500Y-77920170D01*
X84309500Y-77920170D01*
X84309500Y-77920172D01*
X84309500Y-78019828D01*
X84347636Y-78111897D01*
X84418103Y-78182364D01*
X84510172Y-78220500D01*
X84510174Y-78220500D01*
X84609826Y-78220500D01*
X84609828Y-78220500D01*
X84701897Y-78182364D01*
X84772364Y-78111897D01*
X84810500Y-78019828D01*
X84810500Y-77920172D01*
X84772364Y-77828103D01*
X84701897Y-77757636D01*
X84677755Y-77747636D01*
X84609829Y-77719500D01*
X84609828Y-77719500D01*
X84510172Y-77719500D01*
X84510170Y-77719500D01*
X84418102Y-77757636D01*
X84347636Y-77828102D01*
X84309500Y-77920170D01*
X73250500Y-77920170D01*
X73250500Y-77910172D01*
X73212364Y-77818103D01*
X73141897Y-77747636D01*
X73049829Y-77709500D01*
X73049828Y-77709500D01*
X72950172Y-77709500D01*
X72950170Y-77709500D01*
X72858102Y-77747636D01*
X72787636Y-77818102D01*
X72749500Y-77910170D01*
X69037490Y-77910170D01*
X69037490Y-77510170D01*
X74089500Y-77510170D01*
X74089500Y-77510172D01*
X74089500Y-77609828D01*
X74127636Y-77701897D01*
X74198103Y-77772364D01*
X74290172Y-77810500D01*
X74290174Y-77810500D01*
X74389826Y-77810500D01*
X74389828Y-77810500D01*
X74481897Y-77772364D01*
X74552364Y-77701897D01*
X74590500Y-77609828D01*
X74590500Y-77510172D01*
X74586357Y-77500170D01*
X82909500Y-77500170D01*
X82909500Y-77599829D01*
X82947636Y-77691897D01*
X83018103Y-77762364D01*
X83110172Y-77800500D01*
X83110174Y-77800500D01*
X83209826Y-77800500D01*
X83209828Y-77800500D01*
X83301897Y-77762364D01*
X83372364Y-77691897D01*
X83410500Y-77599828D01*
X83410500Y-77500172D01*
X83372364Y-77408103D01*
X83301897Y-77337636D01*
X83209829Y-77299500D01*
X83209828Y-77299500D01*
X83110172Y-77299500D01*
X83110170Y-77299500D01*
X83018102Y-77337636D01*
X82947636Y-77408102D01*
X82909500Y-77500170D01*
X74586357Y-77500170D01*
X74552364Y-77418103D01*
X74481897Y-77347636D01*
X74457755Y-77337636D01*
X74389829Y-77309500D01*
X74389828Y-77309500D01*
X74290172Y-77309500D01*
X74290170Y-77309500D01*
X74198102Y-77347636D01*
X74127636Y-77418102D01*
X74089500Y-77510170D01*
X69037490Y-77510170D01*
X69037490Y-77299500D01*
X69037490Y-76070170D01*
X74919500Y-76070170D01*
X74919500Y-76169829D01*
X74953494Y-76251897D01*
X74957636Y-76261897D01*
X75028103Y-76332364D01*
X75120172Y-76370500D01*
X75120174Y-76370500D01*
X75219826Y-76370500D01*
X75219828Y-76370500D01*
X75311897Y-76332364D01*
X75382364Y-76261897D01*
X75420500Y-76169828D01*
X75420500Y-76070172D01*
X75420499Y-76070170D01*
X75729500Y-76070170D01*
X75729500Y-76169829D01*
X75763494Y-76251897D01*
X75767636Y-76261897D01*
X75838103Y-76332364D01*
X75930172Y-76370500D01*
X75930174Y-76370500D01*
X76029826Y-76370500D01*
X76029828Y-76370500D01*
X76121897Y-76332364D01*
X76192364Y-76261897D01*
X76230500Y-76169828D01*
X76230500Y-76070172D01*
X76230499Y-76070170D01*
X76529500Y-76070170D01*
X76529500Y-76169829D01*
X76563494Y-76251897D01*
X76567636Y-76261897D01*
X76638103Y-76332364D01*
X76730172Y-76370500D01*
X76730174Y-76370500D01*
X76829826Y-76370500D01*
X76829828Y-76370500D01*
X76921897Y-76332364D01*
X76992364Y-76261897D01*
X77030500Y-76169828D01*
X77030500Y-76070172D01*
X77026357Y-76060170D01*
X77329500Y-76060170D01*
X77329500Y-76159829D01*
X77367636Y-76251897D01*
X77438103Y-76322364D01*
X77530172Y-76360500D01*
X77530174Y-76360500D01*
X77629826Y-76360500D01*
X77629828Y-76360500D01*
X77721897Y-76322364D01*
X77792364Y-76251897D01*
X77830500Y-76159828D01*
X77830500Y-76070170D01*
X78119500Y-76070170D01*
X78119500Y-76169829D01*
X78153494Y-76251897D01*
X78157636Y-76261897D01*
X78228103Y-76332364D01*
X78320172Y-76370500D01*
X78320174Y-76370500D01*
X78419826Y-76370500D01*
X78419828Y-76370500D01*
X78511897Y-76332364D01*
X78582364Y-76261897D01*
X78620500Y-76169828D01*
X78620500Y-76080170D01*
X78919500Y-76080170D01*
X78919500Y-76080172D01*
X78919500Y-76179828D01*
X78957636Y-76271897D01*
X79028103Y-76342364D01*
X79120172Y-76380500D01*
X79120174Y-76380500D01*
X79219826Y-76380500D01*
X79219828Y-76380500D01*
X79311897Y-76342364D01*
X79382364Y-76271897D01*
X79420500Y-76179828D01*
X79420500Y-76080172D01*
X79416357Y-76070170D01*
X79719500Y-76070170D01*
X79719500Y-76169829D01*
X79753494Y-76251897D01*
X79757636Y-76261897D01*
X79828103Y-76332364D01*
X79920172Y-76370500D01*
X79920174Y-76370500D01*
X80019826Y-76370500D01*
X80019828Y-76370500D01*
X80111897Y-76332364D01*
X80182364Y-76261897D01*
X80220500Y-76169828D01*
X80220500Y-76070172D01*
X80220499Y-76070170D01*
X80529500Y-76070170D01*
X80529500Y-76169829D01*
X80563494Y-76251897D01*
X80567636Y-76261897D01*
X80638103Y-76332364D01*
X80730172Y-76370500D01*
X80730174Y-76370500D01*
X80829826Y-76370500D01*
X80829828Y-76370500D01*
X80921897Y-76332364D01*
X80992364Y-76261897D01*
X81030500Y-76169828D01*
X81030500Y-76070172D01*
X81030499Y-76070170D01*
X81319500Y-76070170D01*
X81319500Y-76169829D01*
X81353494Y-76251897D01*
X81357636Y-76261897D01*
X81428103Y-76332364D01*
X81520172Y-76370500D01*
X81520174Y-76370500D01*
X81619826Y-76370500D01*
X81619828Y-76370500D01*
X81711897Y-76332364D01*
X81782364Y-76261897D01*
X81820500Y-76169828D01*
X81820500Y-76070172D01*
X81820499Y-76070170D01*
X82119500Y-76070170D01*
X82119500Y-76169829D01*
X82153494Y-76251897D01*
X82157636Y-76261897D01*
X82228103Y-76332364D01*
X82320172Y-76370500D01*
X82320174Y-76370500D01*
X82419826Y-76370500D01*
X82419828Y-76370500D01*
X82511897Y-76332364D01*
X82582364Y-76261897D01*
X82620500Y-76169828D01*
X82620500Y-76070172D01*
X82582364Y-75978103D01*
X82511897Y-75907636D01*
X82487755Y-75897636D01*
X82419829Y-75869500D01*
X82419828Y-75869500D01*
X82320172Y-75869500D01*
X82320170Y-75869500D01*
X82228102Y-75907636D01*
X82157636Y-75978102D01*
X82119500Y-76070170D01*
X81820499Y-76070170D01*
X81782364Y-75978103D01*
X81711897Y-75907636D01*
X81687755Y-75897636D01*
X81619829Y-75869500D01*
X81619828Y-75869500D01*
X81520172Y-75869500D01*
X81520170Y-75869500D01*
X81428102Y-75907636D01*
X81357636Y-75978102D01*
X81319500Y-76070170D01*
X81030499Y-76070170D01*
X80992364Y-75978103D01*
X80921897Y-75907636D01*
X80897755Y-75897636D01*
X80829829Y-75869500D01*
X80829828Y-75869500D01*
X80730172Y-75869500D01*
X80730170Y-75869500D01*
X80638102Y-75907636D01*
X80567636Y-75978102D01*
X80529500Y-76070170D01*
X80220499Y-76070170D01*
X80182364Y-75978103D01*
X80111897Y-75907636D01*
X80087755Y-75897636D01*
X80019829Y-75869500D01*
X80019828Y-75869500D01*
X79920172Y-75869500D01*
X79920170Y-75869500D01*
X79828102Y-75907636D01*
X79757636Y-75978102D01*
X79719500Y-76070170D01*
X79416357Y-76070170D01*
X79382364Y-75988103D01*
X79311897Y-75917636D01*
X79287755Y-75907636D01*
X79219829Y-75879500D01*
X79219828Y-75879500D01*
X79120172Y-75879500D01*
X79120170Y-75879500D01*
X79028102Y-75917636D01*
X78957636Y-75988102D01*
X78919500Y-76080170D01*
X78620500Y-76080170D01*
X78620500Y-76070172D01*
X78582364Y-75978103D01*
X78511897Y-75907636D01*
X78487755Y-75897636D01*
X78419829Y-75869500D01*
X78419828Y-75869500D01*
X78320172Y-75869500D01*
X78320170Y-75869500D01*
X78228102Y-75907636D01*
X78157636Y-75978102D01*
X78119500Y-76070170D01*
X77830500Y-76070170D01*
X77830500Y-76060172D01*
X77792364Y-75968103D01*
X77721897Y-75897636D01*
X77678113Y-75879500D01*
X77629829Y-75859500D01*
X77629828Y-75859500D01*
X77530172Y-75859500D01*
X77530170Y-75859500D01*
X77438102Y-75897636D01*
X77367636Y-75968102D01*
X77329500Y-76060170D01*
X77026357Y-76060170D01*
X76992364Y-75978103D01*
X76921897Y-75907636D01*
X76897755Y-75897636D01*
X76829829Y-75869500D01*
X76829828Y-75869500D01*
X76730172Y-75869500D01*
X76730170Y-75869500D01*
X76638102Y-75907636D01*
X76567636Y-75978102D01*
X76529500Y-76070170D01*
X76230499Y-76070170D01*
X76192364Y-75978103D01*
X76121897Y-75907636D01*
X76097755Y-75897636D01*
X76029829Y-75869500D01*
X76029828Y-75869500D01*
X75930172Y-75869500D01*
X75930170Y-75869500D01*
X75838102Y-75907636D01*
X75767636Y-75978102D01*
X75729500Y-76070170D01*
X75420499Y-76070170D01*
X75382364Y-75978103D01*
X75311897Y-75907636D01*
X75287755Y-75897636D01*
X75219829Y-75869500D01*
X75219828Y-75869500D01*
X75120172Y-75869500D01*
X75120170Y-75869500D01*
X75028102Y-75907636D01*
X74957636Y-75978102D01*
X74919500Y-76070170D01*
X69037490Y-76070170D01*
X69037490Y-76057959D01*
X69037489Y-74770170D01*
X75319500Y-74770170D01*
X75319500Y-74869829D01*
X75357636Y-74961897D01*
X75428103Y-75032364D01*
X75520172Y-75070500D01*
X75520174Y-75070500D01*
X75619826Y-75070500D01*
X75619828Y-75070500D01*
X75711897Y-75032364D01*
X75782364Y-74961897D01*
X75820500Y-74869828D01*
X75820500Y-74770172D01*
X75820499Y-74770170D01*
X76119500Y-74770170D01*
X76119500Y-74869829D01*
X76157636Y-74961897D01*
X76228103Y-75032364D01*
X76320172Y-75070500D01*
X76320174Y-75070500D01*
X76419826Y-75070500D01*
X76419828Y-75070500D01*
X76511897Y-75032364D01*
X76582364Y-74961897D01*
X76620500Y-74869828D01*
X76620500Y-74770172D01*
X76620499Y-74770170D01*
X76909500Y-74770170D01*
X76909500Y-74869829D01*
X76947636Y-74961897D01*
X77018103Y-75032364D01*
X77110172Y-75070500D01*
X77110174Y-75070500D01*
X77209826Y-75070500D01*
X77209828Y-75070500D01*
X77301897Y-75032364D01*
X77372364Y-74961897D01*
X77410500Y-74869828D01*
X77410500Y-74770172D01*
X77410499Y-74770170D01*
X77709500Y-74770170D01*
X77709500Y-74869829D01*
X77747636Y-74961897D01*
X77818103Y-75032364D01*
X77910172Y-75070500D01*
X77910174Y-75070500D01*
X78009826Y-75070500D01*
X78009828Y-75070500D01*
X78101897Y-75032364D01*
X78172364Y-74961897D01*
X78210500Y-74869828D01*
X78210500Y-74770172D01*
X78210499Y-74770170D01*
X78519500Y-74770170D01*
X78519500Y-74869829D01*
X78557636Y-74961897D01*
X78628103Y-75032364D01*
X78720172Y-75070500D01*
X78720174Y-75070500D01*
X78819826Y-75070500D01*
X78819828Y-75070500D01*
X78911897Y-75032364D01*
X78982364Y-74961897D01*
X79020500Y-74869828D01*
X79020500Y-74770172D01*
X79020499Y-74770170D01*
X79319500Y-74770170D01*
X79319500Y-74869829D01*
X79357636Y-74961897D01*
X79428103Y-75032364D01*
X79520172Y-75070500D01*
X79520174Y-75070500D01*
X79619826Y-75070500D01*
X79619828Y-75070500D01*
X79711897Y-75032364D01*
X79782364Y-74961897D01*
X79820500Y-74869828D01*
X79820500Y-74780170D01*
X80129500Y-74780170D01*
X80129500Y-74780172D01*
X80129500Y-74879828D01*
X80167636Y-74971897D01*
X80238103Y-75042364D01*
X80330172Y-75080500D01*
X80330174Y-75080500D01*
X80429826Y-75080500D01*
X80429828Y-75080500D01*
X80521897Y-75042364D01*
X80592364Y-74971897D01*
X80630500Y-74879828D01*
X80630500Y-74780172D01*
X80626357Y-74770170D01*
X80919500Y-74770170D01*
X80919500Y-74869829D01*
X80957636Y-74961897D01*
X81028103Y-75032364D01*
X81120172Y-75070500D01*
X81120174Y-75070500D01*
X81219826Y-75070500D01*
X81219828Y-75070500D01*
X81311897Y-75032364D01*
X81382364Y-74961897D01*
X81420500Y-74869828D01*
X81420500Y-74770172D01*
X81420499Y-74770170D01*
X81719500Y-74770170D01*
X81719500Y-74869829D01*
X81757636Y-74961897D01*
X81828103Y-75032364D01*
X81920172Y-75070500D01*
X81920174Y-75070500D01*
X82019826Y-75070500D01*
X82019828Y-75070500D01*
X82111897Y-75032364D01*
X82182364Y-74961897D01*
X82220500Y-74869828D01*
X82220500Y-74770172D01*
X82182364Y-74678103D01*
X82111897Y-74607636D01*
X82019829Y-74569500D01*
X82019828Y-74569500D01*
X81920172Y-74569500D01*
X81920170Y-74569500D01*
X81828102Y-74607636D01*
X81757636Y-74678102D01*
X81719500Y-74770170D01*
X81420499Y-74770170D01*
X81382364Y-74678103D01*
X81311897Y-74607636D01*
X81219829Y-74569500D01*
X81219828Y-74569500D01*
X81120172Y-74569500D01*
X81120170Y-74569500D01*
X81028102Y-74607636D01*
X80957636Y-74678102D01*
X80919500Y-74770170D01*
X80626357Y-74770170D01*
X80592364Y-74688103D01*
X80521897Y-74617636D01*
X80497755Y-74607636D01*
X80429829Y-74579500D01*
X80429828Y-74579500D01*
X80330172Y-74579500D01*
X80330170Y-74579500D01*
X80238102Y-74617636D01*
X80167636Y-74688102D01*
X80129500Y-74780170D01*
X79820500Y-74780170D01*
X79820500Y-74770172D01*
X79782364Y-74678103D01*
X79711897Y-74607636D01*
X79619829Y-74569500D01*
X79619828Y-74569500D01*
X79520172Y-74569500D01*
X79520170Y-74569500D01*
X79428102Y-74607636D01*
X79357636Y-74678102D01*
X79319500Y-74770170D01*
X79020499Y-74770170D01*
X78982364Y-74678103D01*
X78911897Y-74607636D01*
X78819829Y-74569500D01*
X78819828Y-74569500D01*
X78720172Y-74569500D01*
X78720170Y-74569500D01*
X78628102Y-74607636D01*
X78557636Y-74678102D01*
X78519500Y-74770170D01*
X78210499Y-74770170D01*
X78172364Y-74678103D01*
X78101897Y-74607636D01*
X78009829Y-74569500D01*
X78009828Y-74569500D01*
X77910172Y-74569500D01*
X77910170Y-74569500D01*
X77818102Y-74607636D01*
X77747636Y-74678102D01*
X77709500Y-74770170D01*
X77410499Y-74770170D01*
X77372364Y-74678103D01*
X77301897Y-74607636D01*
X77209829Y-74569500D01*
X77209828Y-74569500D01*
X77110172Y-74569500D01*
X77110170Y-74569500D01*
X77018102Y-74607636D01*
X76947636Y-74678102D01*
X76909500Y-74770170D01*
X76620499Y-74770170D01*
X76582364Y-74678103D01*
X76511897Y-74607636D01*
X76419829Y-74569500D01*
X76419828Y-74569500D01*
X76320172Y-74569500D01*
X76320170Y-74569500D01*
X76228102Y-74607636D01*
X76157636Y-74678102D01*
X76119500Y-74770170D01*
X75820499Y-74770170D01*
X75782364Y-74678103D01*
X75711897Y-74607636D01*
X75619829Y-74569500D01*
X75619828Y-74569500D01*
X75520172Y-74569500D01*
X75520170Y-74569500D01*
X75428102Y-74607636D01*
X75357636Y-74678102D01*
X75319500Y-74770170D01*
X69037489Y-74770170D01*
X69037489Y-74757959D01*
X69037489Y-73872829D01*
X69037684Y-73865876D01*
X69038664Y-73848432D01*
X69055094Y-73555864D01*
X69056648Y-73542067D01*
X69108077Y-73239380D01*
X69111165Y-73225849D01*
X69196162Y-72930816D01*
X69200752Y-72917702D01*
X69246980Y-72806098D01*
X69318242Y-72634054D01*
X69324261Y-72621555D01*
X69472783Y-72352827D01*
X69480161Y-72341084D01*
X69657841Y-72090668D01*
X69666492Y-72079822D01*
X69735265Y-72002866D01*
X69871070Y-71850899D01*
X69880901Y-71841069D01*
X70109826Y-71636488D01*
X70120668Y-71627841D01*
X70371084Y-71450161D01*
X70382827Y-71442783D01*
X70651555Y-71294261D01*
X70664054Y-71288242D01*
X70947709Y-71170749D01*
X70960816Y-71166162D01*
X71255849Y-71081165D01*
X71269380Y-71078077D01*
X71572067Y-71026648D01*
X71585864Y-71025094D01*
X71895881Y-71007683D01*
X71902827Y-71007489D01*
X85624204Y-71008139D01*
G37*
%TD.AperFunction*%
%TD*%
M02*
