%TF.GenerationSoftware,KiCad,Pcbnew,9.0.0*%
%TF.CreationDate,2025-03-28T09:35:18-07:00*%
%TF.ProjectId,optical_pcb_v2,6f707469-6361-46c5-9f70-63625f76322e,V1*%
%TF.SameCoordinates,Original*%
%TF.FileFunction,Paste,Top*%
%TF.FilePolarity,Positive*%
%FSLAX46Y46*%
G04 Gerber Fmt 4.6, Leading zero omitted, Abs format (unit mm)*
G04 Created by KiCad (PCBNEW 9.0.0) date 2025-03-28 09:35:18*
%MOMM*%
%LPD*%
G01*
G04 APERTURE LIST*
%ADD10C,0.010000*%
G04 APERTURE END LIST*
%TO.C,R6*%
D10*
X74875000Y-107245000D02*
X75425000Y-107245000D01*
X75425000Y-106695000D01*
X74875000Y-106695000D01*
X74875000Y-107245000D01*
G36*
X74875000Y-107245000D02*
G01*
X75425000Y-107245000D01*
X75425000Y-106695000D01*
X74875000Y-106695000D01*
X74875000Y-107245000D01*
G37*
X75825000Y-107245000D02*
X76375000Y-107245000D01*
X76375000Y-106695000D01*
X75825000Y-106695000D01*
X75825000Y-107245000D01*
G36*
X75825000Y-107245000D02*
G01*
X76375000Y-107245000D01*
X76375000Y-106695000D01*
X75825000Y-106695000D01*
X75825000Y-107245000D01*
G37*
%TO.C,*%
X80755761Y-116856037D02*
X80205760Y-116856038D01*
X80205761Y-116306037D01*
X80755761Y-116306036D01*
X80755761Y-116856037D01*
G36*
X80755761Y-116856037D02*
G01*
X80205760Y-116856038D01*
X80205761Y-116306037D01*
X80755761Y-116306036D01*
X80755761Y-116856037D01*
G37*
X80755761Y-117806037D02*
X80205762Y-117806038D01*
X80205762Y-117256037D01*
X80755762Y-117256037D01*
X80755761Y-117806037D01*
G36*
X80755761Y-117806037D02*
G01*
X80205762Y-117806038D01*
X80205762Y-117256037D01*
X80755762Y-117256037D01*
X80755761Y-117806037D01*
G37*
X77464999Y-108744999D02*
X76914998Y-108745000D01*
X76914999Y-108194999D01*
X77464999Y-108194998D01*
X77464999Y-108744999D01*
G36*
X77464999Y-108744999D02*
G01*
X76914998Y-108745000D01*
X76914999Y-108194999D01*
X77464999Y-108194998D01*
X77464999Y-108744999D01*
G37*
X77464999Y-109694999D02*
X76915000Y-109695000D01*
X76915000Y-109144999D01*
X77465000Y-109144999D01*
X77464999Y-109694999D01*
G36*
X77464999Y-109694999D02*
G01*
X76915000Y-109695000D01*
X76915000Y-109144999D01*
X77465000Y-109144999D01*
X77464999Y-109694999D01*
G37*
X75595000Y-114855001D02*
X75045000Y-114854999D01*
X75045000Y-114305000D01*
X75595000Y-114305000D01*
X75595000Y-114855001D01*
G36*
X75595000Y-114855001D02*
G01*
X75045000Y-114854999D01*
X75045000Y-114305000D01*
X75595000Y-114305000D01*
X75595000Y-114855001D01*
G37*
X76545000Y-114305001D02*
X76545000Y-114855000D01*
X75995000Y-114855000D01*
X75995000Y-114305000D01*
X76545000Y-114305001D01*
G36*
X76545000Y-114305001D02*
G01*
X76545000Y-114855000D01*
X75995000Y-114855000D01*
X75995000Y-114305000D01*
X76545000Y-114305001D01*
G37*
%TO.C,R6*%
X81007500Y-107245000D02*
X81557500Y-107245000D01*
X81557500Y-106695000D01*
X81007500Y-106695000D01*
X81007500Y-107245000D01*
G36*
X81007500Y-107245000D02*
G01*
X81557500Y-107245000D01*
X81557500Y-106695000D01*
X81007500Y-106695000D01*
X81007500Y-107245000D01*
G37*
X81957500Y-107245000D02*
X82507500Y-107245000D01*
X82507500Y-106695000D01*
X81957500Y-106695000D01*
X81957500Y-107245000D01*
G36*
X81957500Y-107245000D02*
G01*
X82507500Y-107245000D01*
X82507500Y-106695000D01*
X81957500Y-106695000D01*
X81957500Y-107245000D01*
G37*
%TO.C,*%
X81548970Y-114856904D02*
X80998970Y-114856902D01*
X80998970Y-114306903D01*
X81548970Y-114306903D01*
X81548970Y-114856904D01*
G36*
X81548970Y-114856904D02*
G01*
X80998970Y-114856902D01*
X80998970Y-114306903D01*
X81548970Y-114306903D01*
X81548970Y-114856904D01*
G37*
X82498970Y-114306904D02*
X82498970Y-114856903D01*
X81948970Y-114856903D01*
X81948970Y-114306903D01*
X82498970Y-114306904D01*
G36*
X82498970Y-114306904D02*
G01*
X82498970Y-114856903D01*
X81948970Y-114856903D01*
X81948970Y-114306903D01*
X82498970Y-114306904D01*
G37*
X80613858Y-108746037D02*
X80063857Y-108746038D01*
X80063858Y-108196037D01*
X80613858Y-108196036D01*
X80613858Y-108746037D01*
G36*
X80613858Y-108746037D02*
G01*
X80063857Y-108746038D01*
X80063858Y-108196037D01*
X80613858Y-108196036D01*
X80613858Y-108746037D01*
G37*
X80613858Y-109696037D02*
X80063859Y-109696038D01*
X80063859Y-109146037D01*
X80613859Y-109146037D01*
X80613858Y-109696037D01*
G36*
X80613858Y-109696037D02*
G01*
X80063859Y-109696038D01*
X80063859Y-109146037D01*
X80613859Y-109146037D01*
X80613858Y-109696037D01*
G37*
X77485761Y-116866037D02*
X76935760Y-116866038D01*
X76935761Y-116316037D01*
X77485761Y-116316036D01*
X77485761Y-116866037D01*
G36*
X77485761Y-116866037D02*
G01*
X76935760Y-116866038D01*
X76935761Y-116316037D01*
X77485761Y-116316036D01*
X77485761Y-116866037D01*
G37*
X77485761Y-117816037D02*
X76935762Y-117816038D01*
X76935762Y-117266037D01*
X77485762Y-117266037D01*
X77485761Y-117816037D01*
G36*
X77485761Y-117816037D02*
G01*
X76935762Y-117816038D01*
X76935762Y-117266037D01*
X77485762Y-117266037D01*
X77485761Y-117816037D01*
G37*
%TD*%
M02*
