M48
; DRILL file {KiCad 9.0.0} date 2025-04-03T19:43:38-0700
; FORMAT={-:-/ absolute / metric / decimal}
; #@! TF.CreationDate,2025-04-03T19:43:38-07:00
; #@! TF.GenerationSoftware,Kicad,Pcbnew,9.0.0
; #@! TF.FileFunction,Plated,1,3,Blind
FMAT,2
METRIC
; #@! TA.AperFunction,Plated,Buried,ViaDrill
T1C0.200
%
G90
G05
T1
X74.291Y-81.54
X74.293Y-80.741
X74.3Y-82.35
X74.319Y-79.942
X74.34Y-77.56
X74.34Y-78.36
X74.34Y-79.15
X75.17Y-76.12
X75.98Y-76.12
X76.78Y-76.12
X77.58Y-76.11
X78.37Y-76.12
X79.17Y-76.13
X79.97Y-76.12
X80.78Y-76.12
X81.57Y-76.12
X82.37Y-76.12
X83.15Y-79.17
X83.15Y-79.96
X83.16Y-77.55
X83.16Y-78.36
X83.17Y-80.76
X83.17Y-81.55
X83.17Y-82.36
M30
