%TF.GenerationSoftware,KiCad,Pcbnew,9.0.0*%
%TF.CreationDate,2025-04-03T19:43:41-07:00*%
%TF.ProjectId,optical_pcb_v2,6f707469-6361-46c5-9f70-63625f76322e,V1*%
%TF.SameCoordinates,Original*%
%TF.FileFunction,Soldermask,Top*%
%TF.FilePolarity,Negative*%
%FSLAX46Y46*%
G04 Gerber Fmt 4.6, Leading zero omitted, Abs format (unit mm)*
G04 Created by KiCad (PCBNEW 9.0.0) date 2025-04-03 19:43:41*
%MOMM*%
%LPD*%
G01*
G04 APERTURE LIST*
%ADD10C,0.100000*%
%ADD11C,0.010000*%
%ADD12C,0.990600*%
%ADD13C,3.000000*%
%ADD14C,5.000000*%
G04 APERTURE END LIST*
D10*
X89739883Y-73289164D02*
X68447907Y-73291583D01*
X68448234Y-70207723D01*
X89740838Y-70183674D01*
X89739883Y-73289164D01*
G36*
X89739883Y-73289164D02*
G01*
X68447907Y-73291583D01*
X68448234Y-70207723D01*
X89740838Y-70183674D01*
X89739883Y-73289164D01*
G37*
X85990984Y-85316767D02*
X88700000Y-85316767D01*
X88700000Y-101393232D01*
X85990984Y-101393232D01*
X85990984Y-85316767D01*
G36*
X85990984Y-85316767D02*
G01*
X88700000Y-85316767D01*
X88700000Y-101393232D01*
X85990984Y-101393232D01*
X85990984Y-85316767D01*
G37*
X89672275Y-82761572D02*
X87139285Y-82761860D01*
X87140200Y-74143714D01*
X89674924Y-74140851D01*
X89672275Y-82761572D01*
G36*
X89672275Y-82761572D02*
G01*
X87139285Y-82761860D01*
X87140200Y-74143714D01*
X89674924Y-74140851D01*
X89672275Y-82761572D01*
G37*
X87300984Y-101321767D02*
X88640000Y-101321767D01*
X88640000Y-118438232D01*
X87300984Y-118438232D01*
X87300984Y-101321767D01*
G36*
X87300984Y-101321767D02*
G01*
X88640000Y-101321767D01*
X88640000Y-118438232D01*
X87300984Y-118438232D01*
X87300984Y-101321767D01*
G37*
X68860000Y-101403535D02*
X70199016Y-101403535D01*
X70199016Y-118520000D01*
X68860000Y-118520000D01*
X68860000Y-101403535D01*
G36*
X68860000Y-101403535D02*
G01*
X70199016Y-101403535D01*
X70199016Y-118520000D01*
X68860000Y-118520000D01*
X68860000Y-101403535D01*
G37*
X84756657Y-77221011D02*
X73534656Y-77222286D01*
X73534944Y-74502969D01*
X84757497Y-74490294D01*
X84756657Y-77221011D01*
G36*
X84756657Y-77221011D02*
G01*
X73534656Y-77222286D01*
X73534944Y-74502969D01*
X84757497Y-74490294D01*
X84756657Y-77221011D01*
G37*
X70382671Y-82607112D02*
X68269119Y-82607352D01*
X68270209Y-72342712D01*
X70385828Y-72340323D01*
X70382671Y-82607112D01*
G36*
X70382671Y-82607112D02*
G01*
X68269119Y-82607352D01*
X68270209Y-72342712D01*
X70385828Y-72340323D01*
X70382671Y-82607112D01*
G37*
X78390492Y-82853535D02*
X86160000Y-82853535D01*
X86160000Y-101380000D01*
X78390492Y-101380000D01*
X78390492Y-82853535D01*
G36*
X78390492Y-82853535D02*
G01*
X86160000Y-82853535D01*
X86160000Y-101380000D01*
X78390492Y-101380000D01*
X78390492Y-82853535D01*
G37*
X73645416Y-76339371D02*
X68300023Y-76339978D01*
X68300444Y-72373111D01*
X73646637Y-72367073D01*
X73645416Y-76339371D01*
G36*
X73645416Y-76339371D02*
G01*
X68300023Y-76339978D01*
X68300444Y-72373111D01*
X73646637Y-72367073D01*
X73645416Y-76339371D01*
G37*
X68700984Y-84821767D02*
X71410000Y-84821767D01*
X71410000Y-101398232D01*
X68700984Y-101398232D01*
X68700984Y-84821767D01*
G36*
X68700984Y-84821767D02*
G01*
X71410000Y-84821767D01*
X71410000Y-101398232D01*
X68700984Y-101398232D01*
X68700984Y-84821767D01*
G37*
X71430984Y-82820000D02*
X78834016Y-82820000D01*
X78834016Y-101396465D01*
X71430984Y-101396465D01*
X71430984Y-82820000D01*
G36*
X71430984Y-82820000D02*
G01*
X78834016Y-82820000D01*
X78834016Y-101396465D01*
X71430984Y-101396465D01*
X71430984Y-82820000D01*
G37*
X87945492Y-82585000D02*
X88724508Y-82585000D01*
X88724508Y-85475001D01*
X87945492Y-85475001D01*
X87945492Y-82585000D01*
G36*
X87945492Y-82585000D02*
G01*
X88724508Y-82585000D01*
X88724508Y-85475001D01*
X87945492Y-85475001D01*
X87945492Y-82585000D01*
G37*
X68340000Y-118213534D02*
X89719016Y-118213534D01*
X89719016Y-137660000D01*
X68340000Y-137660000D01*
X68340000Y-118213534D01*
G36*
X68340000Y-118213534D02*
G01*
X89719016Y-118213534D01*
X89719016Y-137660000D01*
X68340000Y-137660000D01*
X68340000Y-118213534D01*
G37*
X78070000Y-102043535D02*
X79409016Y-102043535D01*
X79409016Y-119160000D01*
X78070000Y-119160000D01*
X78070000Y-102043535D01*
G36*
X78070000Y-102043535D02*
G01*
X79409016Y-102043535D01*
X79409016Y-119160000D01*
X78070000Y-119160000D01*
X78070000Y-102043535D01*
G37*
X84722052Y-85163570D02*
X72792520Y-85164926D01*
X72793361Y-77238694D01*
X84724493Y-77225217D01*
X84722052Y-85163570D01*
G36*
X84722052Y-85163570D02*
G01*
X72792520Y-85164926D01*
X72793361Y-77238694D01*
X84724493Y-77225217D01*
X84722052Y-85163570D01*
G37*
X68590000Y-82105000D02*
X69369016Y-82105000D01*
X69369016Y-84995001D01*
X68590000Y-84995001D01*
X68590000Y-82105000D01*
G36*
X68590000Y-82105000D02*
G01*
X69369016Y-82105000D01*
X69369016Y-84995001D01*
X68590000Y-84995001D01*
X68590000Y-82105000D01*
G37*
X75355984Y-100785001D02*
X82164016Y-100785001D01*
X82164016Y-103565000D01*
X75355984Y-103565000D01*
X75355984Y-100785001D01*
G36*
X75355984Y-100785001D02*
G01*
X82164016Y-100785001D01*
X82164016Y-103565000D01*
X75355984Y-103565000D01*
X75355984Y-100785001D01*
G37*
X89209489Y-76269992D02*
X83864058Y-76270599D01*
X83864459Y-72493705D01*
X89210652Y-72487667D01*
X89209489Y-76269992D01*
G36*
X89209489Y-76269992D02*
G01*
X83864058Y-76270599D01*
X83864459Y-72493705D01*
X89210652Y-72487667D01*
X89209489Y-76269992D01*
G37*
%TO.C,*%
D11*
X82800000Y-84770000D02*
X82300000Y-84770000D01*
X82300000Y-84270000D01*
X82800000Y-84270000D01*
X82800000Y-84770000D01*
G36*
X82800000Y-84770000D02*
G01*
X82300000Y-84770000D01*
X82300000Y-84270000D01*
X82800000Y-84270000D01*
X82800000Y-84770000D01*
G37*
X75190000Y-84770000D02*
X74690000Y-84770000D01*
X74690000Y-84270000D01*
X75190000Y-84270000D01*
X75190000Y-84770000D01*
G36*
X75190000Y-84770000D02*
G01*
X74690000Y-84770000D01*
X74690000Y-84270000D01*
X75190000Y-84270000D01*
X75190000Y-84770000D01*
G37*
X80905000Y-76950000D02*
X80655000Y-76950000D01*
X80655000Y-76450000D01*
X80905000Y-76450000D01*
X80905000Y-76950000D01*
G36*
X80905000Y-76950000D02*
G01*
X80655000Y-76950000D01*
X80655000Y-76450000D01*
X80905000Y-76450000D01*
X80905000Y-76950000D01*
G37*
X75160000Y-79025000D02*
X74660000Y-79025000D01*
X74660000Y-79275000D01*
X75160000Y-79275000D01*
X75160000Y-79025000D01*
G36*
X75160000Y-79025000D02*
G01*
X74660000Y-79025000D01*
X74660000Y-79275000D01*
X75160000Y-79275000D01*
X75160000Y-79025000D01*
G37*
X82300900Y-81675000D02*
X82800900Y-81675000D01*
X82800900Y-81425000D01*
X82300900Y-81425000D01*
X82300900Y-81675000D01*
G36*
X82300900Y-81675000D02*
G01*
X82800900Y-81675000D01*
X82800900Y-81425000D01*
X82300900Y-81425000D01*
X82300900Y-81675000D01*
G37*
%TO.C,R6*%
X74875000Y-107245000D02*
X75425000Y-107245000D01*
X75425000Y-106695000D01*
X74875000Y-106695000D01*
X74875000Y-107245000D01*
G36*
X74875000Y-107245000D02*
G01*
X75425000Y-107245000D01*
X75425000Y-106695000D01*
X74875000Y-106695000D01*
X74875000Y-107245000D01*
G37*
X75825000Y-107245000D02*
X76375000Y-107245000D01*
X76375000Y-106695000D01*
X75825000Y-106695000D01*
X75825000Y-107245000D01*
G36*
X75825000Y-107245000D02*
G01*
X76375000Y-107245000D01*
X76375000Y-106695000D01*
X75825000Y-106695000D01*
X75825000Y-107245000D01*
G37*
%TO.C,*%
X80755761Y-116856037D02*
X80205760Y-116856038D01*
X80205761Y-116306037D01*
X80755761Y-116306036D01*
X80755761Y-116856037D01*
G36*
X80755761Y-116856037D02*
G01*
X80205760Y-116856038D01*
X80205761Y-116306037D01*
X80755761Y-116306036D01*
X80755761Y-116856037D01*
G37*
X80755761Y-117806037D02*
X80205762Y-117806038D01*
X80205762Y-117256037D01*
X80755762Y-117256037D01*
X80755761Y-117806037D01*
G36*
X80755761Y-117806037D02*
G01*
X80205762Y-117806038D01*
X80205762Y-117256037D01*
X80755762Y-117256037D01*
X80755761Y-117806037D01*
G37*
X76495000Y-75690000D02*
X76245000Y-75690000D01*
X76245000Y-75190000D01*
X76495000Y-75190000D01*
X76495000Y-75690000D01*
G36*
X76495000Y-75690000D02*
G01*
X76245000Y-75690000D01*
X76245000Y-75190000D01*
X76495000Y-75190000D01*
X76495000Y-75690000D01*
G37*
X83696300Y-79675000D02*
X84196300Y-79675000D01*
X84196300Y-79425000D01*
X83696300Y-79425000D01*
X83696300Y-79675000D01*
G36*
X83696300Y-79675000D02*
G01*
X84196300Y-79675000D01*
X84196300Y-79425000D01*
X83696300Y-79425000D01*
X83696300Y-79675000D01*
G37*
X83700900Y-78885000D02*
X84200900Y-78885000D01*
X84200900Y-78635000D01*
X83700900Y-78635000D01*
X83700900Y-78885000D01*
G36*
X83700900Y-78885000D02*
G01*
X84200900Y-78885000D01*
X84200900Y-78635000D01*
X83700900Y-78635000D01*
X83700900Y-78885000D01*
G37*
X77035000Y-75190000D02*
X77285000Y-75190000D01*
X77285000Y-75690000D01*
X77035000Y-75690000D01*
X77035000Y-75190000D01*
G36*
X77035000Y-75190000D02*
G01*
X77285000Y-75190000D01*
X77285000Y-75690000D01*
X77035000Y-75690000D01*
X77035000Y-75190000D01*
G37*
X73840000Y-81025000D02*
X73340000Y-81025000D01*
X73340000Y-81275000D01*
X73840000Y-81275000D01*
X73840000Y-81025000D01*
G36*
X73840000Y-81025000D02*
G01*
X73340000Y-81025000D01*
X73340000Y-81275000D01*
X73840000Y-81275000D01*
X73840000Y-81025000D01*
G37*
X82493370Y-76950000D02*
X82243370Y-76950000D01*
X82243370Y-76450000D01*
X82493370Y-76450000D01*
X82493370Y-76950000D01*
G36*
X82493370Y-76950000D02*
G01*
X82243370Y-76950000D01*
X82243370Y-76450000D01*
X82493370Y-76450000D01*
X82493370Y-76950000D01*
G37*
X78895000Y-75690000D02*
X78645000Y-75690000D01*
X78645000Y-75190000D01*
X78895000Y-75190000D01*
X78895000Y-75690000D01*
G36*
X78895000Y-75690000D02*
G01*
X78645000Y-75690000D01*
X78645000Y-75190000D01*
X78895000Y-75190000D01*
X78895000Y-75690000D01*
G37*
X79305000Y-76950000D02*
X79055000Y-76950000D01*
X79055000Y-76450000D01*
X79305000Y-76450000D01*
X79305000Y-76950000D01*
G36*
X79305000Y-76950000D02*
G01*
X79055000Y-76950000D01*
X79055000Y-76450000D01*
X79305000Y-76450000D01*
X79305000Y-76950000D01*
G37*
X73320000Y-78085000D02*
X73820000Y-78085000D01*
X73820000Y-77835000D01*
X73320000Y-77835000D01*
X73320000Y-78085000D01*
G36*
X73320000Y-78085000D02*
G01*
X73820000Y-78085000D01*
X73820000Y-77835000D01*
X73320000Y-77835000D01*
X73320000Y-78085000D01*
G37*
X77464999Y-108744999D02*
X76914998Y-108745000D01*
X76914999Y-108194999D01*
X77464999Y-108194998D01*
X77464999Y-108744999D01*
G36*
X77464999Y-108744999D02*
G01*
X76914998Y-108745000D01*
X76914999Y-108194999D01*
X77464999Y-108194998D01*
X77464999Y-108744999D01*
G37*
X77464999Y-109694999D02*
X76915000Y-109695000D01*
X76915000Y-109144999D01*
X77465000Y-109144999D01*
X77464999Y-109694999D01*
G36*
X77464999Y-109694999D02*
G01*
X76915000Y-109695000D01*
X76915000Y-109144999D01*
X77465000Y-109144999D01*
X77464999Y-109694999D01*
G37*
X82297800Y-79292200D02*
X82797800Y-79292200D01*
X82797800Y-79042200D01*
X82297800Y-79042200D01*
X82297800Y-79292200D01*
G36*
X82297800Y-79292200D02*
G01*
X82797800Y-79292200D01*
X82797800Y-79042200D01*
X82297800Y-79042200D01*
X82297800Y-79292200D01*
G37*
X83685700Y-78095000D02*
X84185700Y-78095000D01*
X84185700Y-77845000D01*
X83685700Y-77845000D01*
X83685700Y-78095000D01*
G36*
X83685700Y-78095000D02*
G01*
X84185700Y-78095000D01*
X84185700Y-77845000D01*
X83685700Y-77845000D01*
X83685700Y-78095000D01*
G37*
X78495000Y-76950000D02*
X78245000Y-76950000D01*
X78245000Y-76450000D01*
X78495000Y-76450000D01*
X78495000Y-76950000D01*
G36*
X78495000Y-76950000D02*
G01*
X78245000Y-76950000D01*
X78245000Y-76450000D01*
X78495000Y-76450000D01*
X78495000Y-76950000D01*
G37*
X73840000Y-80235000D02*
X73340000Y-80235000D01*
X73340000Y-80485000D01*
X73840000Y-80485000D01*
X73840000Y-80235000D01*
G36*
X73840000Y-80235000D02*
G01*
X73340000Y-80235000D01*
X73340000Y-80485000D01*
X73840000Y-80485000D01*
X73840000Y-80235000D01*
G37*
X75295000Y-76950000D02*
X75045000Y-76950000D01*
X75045000Y-76450000D01*
X75295000Y-76450000D01*
X75295000Y-76950000D01*
G36*
X75295000Y-76950000D02*
G01*
X75045000Y-76950000D01*
X75045000Y-76450000D01*
X75295000Y-76450000D01*
X75295000Y-76950000D01*
G37*
X83700900Y-82075000D02*
X84200900Y-82075000D01*
X84200900Y-81825000D01*
X83700900Y-81825000D01*
X83700900Y-82075000D01*
G36*
X83700900Y-82075000D02*
G01*
X84200900Y-82075000D01*
X84200900Y-81825000D01*
X83700900Y-81825000D01*
X83700900Y-82075000D01*
G37*
X75180000Y-80625000D02*
X74680000Y-80625000D01*
X74680000Y-80875000D01*
X75180000Y-80875000D01*
X75180000Y-80625000D01*
G36*
X75180000Y-80625000D02*
G01*
X74680000Y-80625000D01*
X74680000Y-80875000D01*
X75180000Y-80875000D01*
X75180000Y-80625000D01*
G37*
%TO.C,9*%
X77705000Y-76950000D02*
X77455000Y-76950000D01*
X77455000Y-76450000D01*
X77705000Y-76450000D01*
X77705000Y-76950000D01*
G36*
X77705000Y-76950000D02*
G01*
X77455000Y-76950000D01*
X77455000Y-76450000D01*
X77705000Y-76450000D01*
X77705000Y-76950000D01*
G37*
%TO.C,*%
X81295000Y-75690000D02*
X81045000Y-75690000D01*
X81045000Y-75190000D01*
X81295000Y-75190000D01*
X81295000Y-75690000D01*
G36*
X81295000Y-75690000D02*
G01*
X81045000Y-75690000D01*
X81045000Y-75190000D01*
X81295000Y-75190000D01*
X81295000Y-75690000D01*
G37*
X75595000Y-114855001D02*
X75045000Y-114854999D01*
X75045000Y-114305000D01*
X75595000Y-114305000D01*
X75595000Y-114855001D01*
G36*
X75595000Y-114855001D02*
G01*
X75045000Y-114854999D01*
X75045000Y-114305000D01*
X75595000Y-114305000D01*
X75595000Y-114855001D01*
G37*
X76545000Y-114305001D02*
X76545000Y-114855000D01*
X75995000Y-114855000D01*
X75995000Y-114305000D01*
X76545000Y-114305001D01*
G36*
X76545000Y-114305001D02*
G01*
X76545000Y-114855000D01*
X75995000Y-114855000D01*
X75995000Y-114305000D01*
X76545000Y-114305001D01*
G37*
X75695000Y-75690000D02*
X75445000Y-75690000D01*
X75445000Y-75190000D01*
X75695000Y-75190000D01*
X75695000Y-75690000D01*
G36*
X75695000Y-75690000D02*
G01*
X75445000Y-75690000D01*
X75445000Y-75190000D01*
X75695000Y-75190000D01*
X75695000Y-75690000D01*
G37*
X75190000Y-83650000D02*
X74690000Y-83650000D01*
X74690000Y-83150000D01*
X75190000Y-83150000D01*
X75190000Y-83650000D01*
G36*
X75190000Y-83650000D02*
G01*
X74690000Y-83650000D01*
X74690000Y-83150000D01*
X75190000Y-83150000D01*
X75190000Y-83650000D01*
G37*
%TO.C,R6*%
X81007500Y-107245000D02*
X81557500Y-107245000D01*
X81557500Y-106695000D01*
X81007500Y-106695000D01*
X81007500Y-107245000D01*
G36*
X81007500Y-107245000D02*
G01*
X81557500Y-107245000D01*
X81557500Y-106695000D01*
X81007500Y-106695000D01*
X81007500Y-107245000D01*
G37*
X81957500Y-107245000D02*
X82507500Y-107245000D01*
X82507500Y-106695000D01*
X81957500Y-106695000D01*
X81957500Y-107245000D01*
G36*
X81957500Y-107245000D02*
G01*
X82507500Y-107245000D01*
X82507500Y-106695000D01*
X81957500Y-106695000D01*
X81957500Y-107245000D01*
G37*
%TO.C,*%
X82300900Y-80085000D02*
X82800900Y-80085000D01*
X82800900Y-79835000D01*
X82300900Y-79835000D01*
X82300900Y-80085000D01*
G36*
X82300900Y-80085000D02*
G01*
X82800900Y-80085000D01*
X82800900Y-79835000D01*
X82300900Y-79835000D01*
X82300900Y-80085000D01*
G37*
X79695000Y-75690000D02*
X79445000Y-75690000D01*
X79445000Y-75190000D01*
X79695000Y-75190000D01*
X79695000Y-75690000D01*
G36*
X79695000Y-75690000D02*
G01*
X79445000Y-75690000D01*
X79445000Y-75190000D01*
X79695000Y-75190000D01*
X79695000Y-75690000D01*
G37*
X73840000Y-79425000D02*
X73340000Y-79425000D01*
X73340000Y-79675000D01*
X73840000Y-79675000D01*
X73840000Y-79425000D01*
G36*
X73840000Y-79425000D02*
G01*
X73340000Y-79425000D01*
X73340000Y-79675000D01*
X73840000Y-79675000D01*
X73840000Y-79425000D01*
G37*
X80093400Y-76940000D02*
X79843400Y-76940000D01*
X79843400Y-76440000D01*
X80093400Y-76440000D01*
X80093400Y-76940000D01*
G36*
X80093400Y-76940000D02*
G01*
X79843400Y-76940000D01*
X79843400Y-76440000D01*
X80093400Y-76440000D01*
X80093400Y-76940000D01*
G37*
X83700900Y-81275000D02*
X84200900Y-81275000D01*
X84200900Y-81025000D01*
X83700900Y-81025000D01*
X83700900Y-81275000D01*
G36*
X83700900Y-81275000D02*
G01*
X84200900Y-81275000D01*
X84200900Y-81025000D01*
X83700900Y-81025000D01*
X83700900Y-81275000D01*
G37*
X76105000Y-76950000D02*
X75855000Y-76950000D01*
X75855000Y-76450000D01*
X76105000Y-76450000D01*
X76105000Y-76950000D01*
G36*
X76105000Y-76950000D02*
G01*
X75855000Y-76950000D01*
X75855000Y-76450000D01*
X76105000Y-76450000D01*
X76105000Y-76950000D01*
G37*
X81845000Y-75190000D02*
X82095000Y-75190000D01*
X82095000Y-75690000D01*
X81845000Y-75690000D01*
X81845000Y-75190000D01*
G36*
X81845000Y-75190000D02*
G01*
X82095000Y-75190000D01*
X82095000Y-75690000D01*
X81845000Y-75690000D01*
X81845000Y-75190000D01*
G37*
X82790000Y-83660000D02*
X82290000Y-83660000D01*
X82290000Y-83160000D01*
X82790000Y-83160000D01*
X82790000Y-83660000D01*
G36*
X82790000Y-83660000D02*
G01*
X82290000Y-83660000D01*
X82290000Y-83160000D01*
X82790000Y-83160000D01*
X82790000Y-83660000D01*
G37*
X80505000Y-75690000D02*
X80255000Y-75690000D01*
X80255000Y-75190000D01*
X80505000Y-75190000D01*
X80505000Y-75690000D01*
G36*
X80505000Y-75690000D02*
G01*
X80255000Y-75690000D01*
X80255000Y-75190000D01*
X80505000Y-75190000D01*
X80505000Y-75690000D01*
G37*
X81548970Y-114856904D02*
X80998970Y-114856902D01*
X80998970Y-114306903D01*
X81548970Y-114306903D01*
X81548970Y-114856904D01*
G36*
X81548970Y-114856904D02*
G01*
X80998970Y-114856902D01*
X80998970Y-114306903D01*
X81548970Y-114306903D01*
X81548970Y-114856904D01*
G37*
X82498970Y-114306904D02*
X82498970Y-114856903D01*
X81948970Y-114856903D01*
X81948970Y-114306903D01*
X82498970Y-114306904D01*
G36*
X82498970Y-114306904D02*
G01*
X82498970Y-114856903D01*
X81948970Y-114856903D01*
X81948970Y-114306903D01*
X82498970Y-114306904D01*
G37*
X82820000Y-78235000D02*
X82320000Y-78235000D01*
X82320000Y-78485000D01*
X82820000Y-78485000D01*
X82820000Y-78235000D01*
G36*
X82820000Y-78235000D02*
G01*
X82320000Y-78235000D01*
X82320000Y-78485000D01*
X82820000Y-78485000D01*
X82820000Y-78235000D01*
G37*
X76905000Y-76950000D02*
X76655000Y-76950000D01*
X76655000Y-76450000D01*
X76905000Y-76450000D01*
X76905000Y-76950000D01*
G36*
X76905000Y-76950000D02*
G01*
X76655000Y-76950000D01*
X76655000Y-76450000D01*
X76905000Y-76450000D01*
X76905000Y-76950000D01*
G37*
X83700900Y-80483000D02*
X84200900Y-80483000D01*
X84200900Y-80233000D01*
X83700900Y-80233000D01*
X83700900Y-80483000D01*
G36*
X83700900Y-80483000D02*
G01*
X84200900Y-80483000D01*
X84200900Y-80233000D01*
X83700900Y-80233000D01*
X83700900Y-80483000D01*
G37*
X80613858Y-108746037D02*
X80063857Y-108746038D01*
X80063858Y-108196037D01*
X80613858Y-108196036D01*
X80613858Y-108746037D01*
G36*
X80613858Y-108746037D02*
G01*
X80063857Y-108746038D01*
X80063858Y-108196037D01*
X80613858Y-108196036D01*
X80613858Y-108746037D01*
G37*
X80613858Y-109696037D02*
X80063859Y-109696038D01*
X80063859Y-109146037D01*
X80613859Y-109146037D01*
X80613858Y-109696037D01*
G36*
X80613858Y-109696037D02*
G01*
X80063859Y-109696038D01*
X80063859Y-109146037D01*
X80613859Y-109146037D01*
X80613858Y-109696037D01*
G37*
X74650000Y-78485000D02*
X75150000Y-78485000D01*
X75150000Y-78235000D01*
X74650000Y-78235000D01*
X74650000Y-78485000D01*
G36*
X74650000Y-78485000D02*
G01*
X75150000Y-78485000D01*
X75150000Y-78235000D01*
X74650000Y-78235000D01*
X74650000Y-78485000D01*
G37*
X78085000Y-75690000D02*
X77835000Y-75690000D01*
X77835000Y-75190000D01*
X78085000Y-75190000D01*
X78085000Y-75690000D01*
G36*
X78085000Y-75690000D02*
G01*
X77835000Y-75690000D01*
X77835000Y-75190000D01*
X78085000Y-75190000D01*
X78085000Y-75690000D01*
G37*
X82289700Y-82485000D02*
X82789700Y-82485000D01*
X82789700Y-82235000D01*
X82289700Y-82235000D01*
X82289700Y-82485000D01*
G36*
X82289700Y-82485000D02*
G01*
X82789700Y-82485000D01*
X82789700Y-82235000D01*
X82289700Y-82235000D01*
X82289700Y-82485000D01*
G37*
X77485761Y-116866037D02*
X76935760Y-116866038D01*
X76935761Y-116316037D01*
X77485761Y-116316036D01*
X77485761Y-116866037D01*
G36*
X77485761Y-116866037D02*
G01*
X76935760Y-116866038D01*
X76935761Y-116316037D01*
X77485761Y-116316036D01*
X77485761Y-116866037D01*
G37*
X77485761Y-117816037D02*
X76935762Y-117816038D01*
X76935762Y-117266037D01*
X77485762Y-117266037D01*
X77485761Y-117816037D01*
G36*
X77485761Y-117816037D02*
G01*
X76935762Y-117816038D01*
X76935762Y-117266037D01*
X77485762Y-117266037D01*
X77485761Y-117816037D01*
G37*
X82300900Y-80885000D02*
X82800900Y-80885000D01*
X82800900Y-80635000D01*
X82300900Y-80635000D01*
X82300900Y-80885000D01*
G36*
X82300900Y-80885000D02*
G01*
X82800900Y-80885000D01*
X82800900Y-80635000D01*
X82300900Y-80635000D01*
X82300900Y-80885000D01*
G37*
X75172300Y-79825000D02*
X74672300Y-79825000D01*
X74672300Y-80075000D01*
X75172300Y-80075000D01*
X75172300Y-79825000D01*
G36*
X75172300Y-79825000D02*
G01*
X74672300Y-79825000D01*
X74672300Y-80075000D01*
X75172300Y-80075000D01*
X75172300Y-79825000D01*
G37*
X73840000Y-78635000D02*
X73340000Y-78635000D01*
X73340000Y-78885000D01*
X73840000Y-78885000D01*
X73840000Y-78635000D01*
G36*
X73840000Y-78635000D02*
G01*
X73340000Y-78635000D01*
X73340000Y-78885000D01*
X73840000Y-78885000D01*
X73840000Y-78635000D01*
G37*
X81695000Y-76950000D02*
X81445000Y-76950000D01*
X81445000Y-76450000D01*
X81695000Y-76450000D01*
X81695000Y-76950000D01*
G36*
X81695000Y-76950000D02*
G01*
X81445000Y-76950000D01*
X81445000Y-76450000D01*
X81695000Y-76450000D01*
X81695000Y-76950000D01*
G37*
%TD*%
D12*
%TO.C,SMP3*%
X72390000Y-104140000D03*
X71120000Y-105410000D03*
X73660000Y-105410000D03*
X73660000Y-102870000D03*
X71120000Y-102870000D03*
%TD*%
%TO.C,SMP2*%
X85090000Y-104140000D03*
X83820000Y-105410000D03*
X86360000Y-105410000D03*
X86360000Y-102870000D03*
X83820000Y-102870000D03*
%TD*%
D13*
%TO.C,*%
X85795000Y-125660000D03*
%TD*%
D14*
%TO.C,*%
X84780000Y-120800000D03*
%TD*%
D13*
%TO.C,*%
X71740000Y-125660000D03*
%TD*%
D12*
%TO.C,SMP4*%
X72390000Y-111760000D03*
X71120000Y-113030000D03*
X73660000Y-113030000D03*
X73660000Y-110490000D03*
X71120000Y-110490000D03*
%TD*%
D13*
%TO.C,*%
X71740000Y-73510000D03*
%TD*%
D12*
%TO.C,SMP1*%
X85090000Y-111760000D03*
X83820000Y-113030000D03*
X86360000Y-113030000D03*
X86360000Y-110490000D03*
X83820000Y-110490000D03*
%TD*%
D13*
%TO.C,*%
X85790000Y-73510000D03*
%TD*%
D14*
%TO.C,*%
X72740000Y-120760000D03*
%TD*%
M02*
