%TF.GenerationSoftware,KiCad,Pcbnew,9.0.0*%
%TF.CreationDate,2025-04-03T19:43:41-07:00*%
%TF.ProjectId,optical_pcb_v2,6f707469-6361-46c5-9f70-63625f76322e,V1*%
%TF.SameCoordinates,Original*%
%TF.FileFunction,Legend,Bot*%
%TF.FilePolarity,Positive*%
%FSLAX46Y46*%
G04 Gerber Fmt 4.6, Leading zero omitted, Abs format (unit mm)*
G04 Created by KiCad (PCBNEW 9.0.0) date 2025-04-03 19:43:41*
%MOMM*%
%LPD*%
G01*
G04 APERTURE LIST*
%ADD10C,0.100000*%
G04 APERTURE END LIST*
D10*
X83156115Y-88153609D02*
X82822782Y-88153609D01*
X82679925Y-88677419D02*
X83156115Y-88677419D01*
X83156115Y-88677419D02*
X83156115Y-87677419D01*
X83156115Y-87677419D02*
X82679925Y-87677419D01*
X81775163Y-88677419D02*
X82251353Y-88677419D01*
X82251353Y-88677419D02*
X82251353Y-87677419D01*
X80727543Y-87772657D02*
X80679924Y-87725038D01*
X80679924Y-87725038D02*
X80584686Y-87677419D01*
X80584686Y-87677419D02*
X80346591Y-87677419D01*
X80346591Y-87677419D02*
X80251353Y-87725038D01*
X80251353Y-87725038D02*
X80203734Y-87772657D01*
X80203734Y-87772657D02*
X80156115Y-87867895D01*
X80156115Y-87867895D02*
X80156115Y-87963133D01*
X80156115Y-87963133D02*
X80203734Y-88105990D01*
X80203734Y-88105990D02*
X80775162Y-88677419D01*
X80775162Y-88677419D02*
X80156115Y-88677419D01*
X79537067Y-87677419D02*
X79441829Y-87677419D01*
X79441829Y-87677419D02*
X79346591Y-87725038D01*
X79346591Y-87725038D02*
X79298972Y-87772657D01*
X79298972Y-87772657D02*
X79251353Y-87867895D01*
X79251353Y-87867895D02*
X79203734Y-88058371D01*
X79203734Y-88058371D02*
X79203734Y-88296466D01*
X79203734Y-88296466D02*
X79251353Y-88486942D01*
X79251353Y-88486942D02*
X79298972Y-88582180D01*
X79298972Y-88582180D02*
X79346591Y-88629800D01*
X79346591Y-88629800D02*
X79441829Y-88677419D01*
X79441829Y-88677419D02*
X79537067Y-88677419D01*
X79537067Y-88677419D02*
X79632305Y-88629800D01*
X79632305Y-88629800D02*
X79679924Y-88582180D01*
X79679924Y-88582180D02*
X79727543Y-88486942D01*
X79727543Y-88486942D02*
X79775162Y-88296466D01*
X79775162Y-88296466D02*
X79775162Y-88058371D01*
X79775162Y-88058371D02*
X79727543Y-87867895D01*
X79727543Y-87867895D02*
X79679924Y-87772657D01*
X79679924Y-87772657D02*
X79632305Y-87725038D01*
X79632305Y-87725038D02*
X79537067Y-87677419D01*
X78822781Y-87772657D02*
X78775162Y-87725038D01*
X78775162Y-87725038D02*
X78679924Y-87677419D01*
X78679924Y-87677419D02*
X78441829Y-87677419D01*
X78441829Y-87677419D02*
X78346591Y-87725038D01*
X78346591Y-87725038D02*
X78298972Y-87772657D01*
X78298972Y-87772657D02*
X78251353Y-87867895D01*
X78251353Y-87867895D02*
X78251353Y-87963133D01*
X78251353Y-87963133D02*
X78298972Y-88105990D01*
X78298972Y-88105990D02*
X78870400Y-88677419D01*
X78870400Y-88677419D02*
X78251353Y-88677419D01*
X77346591Y-87677419D02*
X77822781Y-87677419D01*
X77822781Y-87677419D02*
X77870400Y-88153609D01*
X77870400Y-88153609D02*
X77822781Y-88105990D01*
X77822781Y-88105990D02*
X77727543Y-88058371D01*
X77727543Y-88058371D02*
X77489448Y-88058371D01*
X77489448Y-88058371D02*
X77394210Y-88105990D01*
X77394210Y-88105990D02*
X77346591Y-88153609D01*
X77346591Y-88153609D02*
X77298972Y-88248847D01*
X77298972Y-88248847D02*
X77298972Y-88486942D01*
X77298972Y-88486942D02*
X77346591Y-88582180D01*
X77346591Y-88582180D02*
X77394210Y-88629800D01*
X77394210Y-88629800D02*
X77489448Y-88677419D01*
X77489448Y-88677419D02*
X77727543Y-88677419D01*
X77727543Y-88677419D02*
X77822781Y-88629800D01*
X77822781Y-88629800D02*
X77870400Y-88582180D01*
X76679924Y-87677419D02*
X76584686Y-87677419D01*
X76584686Y-87677419D02*
X76489448Y-87725038D01*
X76489448Y-87725038D02*
X76441829Y-87772657D01*
X76441829Y-87772657D02*
X76394210Y-87867895D01*
X76394210Y-87867895D02*
X76346591Y-88058371D01*
X76346591Y-88058371D02*
X76346591Y-88296466D01*
X76346591Y-88296466D02*
X76394210Y-88486942D01*
X76394210Y-88486942D02*
X76441829Y-88582180D01*
X76441829Y-88582180D02*
X76489448Y-88629800D01*
X76489448Y-88629800D02*
X76584686Y-88677419D01*
X76584686Y-88677419D02*
X76679924Y-88677419D01*
X76679924Y-88677419D02*
X76775162Y-88629800D01*
X76775162Y-88629800D02*
X76822781Y-88582180D01*
X76822781Y-88582180D02*
X76870400Y-88486942D01*
X76870400Y-88486942D02*
X76918019Y-88296466D01*
X76918019Y-88296466D02*
X76918019Y-88058371D01*
X76918019Y-88058371D02*
X76870400Y-87867895D01*
X76870400Y-87867895D02*
X76822781Y-87772657D01*
X76822781Y-87772657D02*
X76775162Y-87725038D01*
X76775162Y-87725038D02*
X76679924Y-87677419D01*
X76013257Y-87677419D02*
X75394210Y-87677419D01*
X75394210Y-87677419D02*
X75727543Y-88058371D01*
X75727543Y-88058371D02*
X75584686Y-88058371D01*
X75584686Y-88058371D02*
X75489448Y-88105990D01*
X75489448Y-88105990D02*
X75441829Y-88153609D01*
X75441829Y-88153609D02*
X75394210Y-88248847D01*
X75394210Y-88248847D02*
X75394210Y-88486942D01*
X75394210Y-88486942D02*
X75441829Y-88582180D01*
X75441829Y-88582180D02*
X75489448Y-88629800D01*
X75489448Y-88629800D02*
X75584686Y-88677419D01*
X75584686Y-88677419D02*
X75870400Y-88677419D01*
X75870400Y-88677419D02*
X75965638Y-88629800D01*
X75965638Y-88629800D02*
X76013257Y-88582180D01*
X75013257Y-87772657D02*
X74965638Y-87725038D01*
X74965638Y-87725038D02*
X74870400Y-87677419D01*
X74870400Y-87677419D02*
X74632305Y-87677419D01*
X74632305Y-87677419D02*
X74537067Y-87725038D01*
X74537067Y-87725038D02*
X74489448Y-87772657D01*
X74489448Y-87772657D02*
X74441829Y-87867895D01*
X74441829Y-87867895D02*
X74441829Y-87963133D01*
X74441829Y-87963133D02*
X74489448Y-88105990D01*
X74489448Y-88105990D02*
X75060876Y-88677419D01*
X75060876Y-88677419D02*
X74441829Y-88677419D01*
X73584686Y-87677419D02*
X73775162Y-87677419D01*
X73775162Y-87677419D02*
X73870400Y-87725038D01*
X73870400Y-87725038D02*
X73918019Y-87772657D01*
X73918019Y-87772657D02*
X74013257Y-87915514D01*
X74013257Y-87915514D02*
X74060876Y-88105990D01*
X74060876Y-88105990D02*
X74060876Y-88486942D01*
X74060876Y-88486942D02*
X74013257Y-88582180D01*
X74013257Y-88582180D02*
X73965638Y-88629800D01*
X73965638Y-88629800D02*
X73870400Y-88677419D01*
X73870400Y-88677419D02*
X73679924Y-88677419D01*
X73679924Y-88677419D02*
X73584686Y-88629800D01*
X73584686Y-88629800D02*
X73537067Y-88582180D01*
X73537067Y-88582180D02*
X73489448Y-88486942D01*
X73489448Y-88486942D02*
X73489448Y-88248847D01*
X73489448Y-88248847D02*
X73537067Y-88153609D01*
X73537067Y-88153609D02*
X73584686Y-88105990D01*
X73584686Y-88105990D02*
X73679924Y-88058371D01*
X73679924Y-88058371D02*
X73870400Y-88058371D01*
X73870400Y-88058371D02*
X73965638Y-88105990D01*
X73965638Y-88105990D02*
X74013257Y-88153609D01*
X74013257Y-88153609D02*
X74060876Y-88248847D01*
X84251353Y-86510752D02*
X84060877Y-87177419D01*
X84060877Y-87177419D02*
X83870401Y-86701228D01*
X83870401Y-86701228D02*
X83679925Y-87177419D01*
X83679925Y-87177419D02*
X83489449Y-86510752D01*
X83108496Y-87177419D02*
X83108496Y-86510752D01*
X83108496Y-86177419D02*
X83156115Y-86225038D01*
X83156115Y-86225038D02*
X83108496Y-86272657D01*
X83108496Y-86272657D02*
X83060877Y-86225038D01*
X83060877Y-86225038D02*
X83108496Y-86177419D01*
X83108496Y-86177419D02*
X83108496Y-86272657D01*
X82203735Y-87177419D02*
X82203735Y-86177419D01*
X82203735Y-87129800D02*
X82298973Y-87177419D01*
X82298973Y-87177419D02*
X82489449Y-87177419D01*
X82489449Y-87177419D02*
X82584687Y-87129800D01*
X82584687Y-87129800D02*
X82632306Y-87082180D01*
X82632306Y-87082180D02*
X82679925Y-86986942D01*
X82679925Y-86986942D02*
X82679925Y-86701228D01*
X82679925Y-86701228D02*
X82632306Y-86605990D01*
X82632306Y-86605990D02*
X82584687Y-86558371D01*
X82584687Y-86558371D02*
X82489449Y-86510752D01*
X82489449Y-86510752D02*
X82298973Y-86510752D01*
X82298973Y-86510752D02*
X82203735Y-86558371D01*
X81346592Y-87129800D02*
X81441830Y-87177419D01*
X81441830Y-87177419D02*
X81632306Y-87177419D01*
X81632306Y-87177419D02*
X81727544Y-87129800D01*
X81727544Y-87129800D02*
X81775163Y-87034561D01*
X81775163Y-87034561D02*
X81775163Y-86653609D01*
X81775163Y-86653609D02*
X81727544Y-86558371D01*
X81727544Y-86558371D02*
X81632306Y-86510752D01*
X81632306Y-86510752D02*
X81441830Y-86510752D01*
X81441830Y-86510752D02*
X81346592Y-86558371D01*
X81346592Y-86558371D02*
X81298973Y-86653609D01*
X81298973Y-86653609D02*
X81298973Y-86748847D01*
X81298973Y-86748847D02*
X81775163Y-86844085D01*
X81108497Y-87272657D02*
X80346592Y-87272657D01*
X79965639Y-87177419D02*
X80060877Y-87129800D01*
X80060877Y-87129800D02*
X80108496Y-87082180D01*
X80108496Y-87082180D02*
X80156115Y-86986942D01*
X80156115Y-86986942D02*
X80156115Y-86701228D01*
X80156115Y-86701228D02*
X80108496Y-86605990D01*
X80108496Y-86605990D02*
X80060877Y-86558371D01*
X80060877Y-86558371D02*
X79965639Y-86510752D01*
X79965639Y-86510752D02*
X79822782Y-86510752D01*
X79822782Y-86510752D02*
X79727544Y-86558371D01*
X79727544Y-86558371D02*
X79679925Y-86605990D01*
X79679925Y-86605990D02*
X79632306Y-86701228D01*
X79632306Y-86701228D02*
X79632306Y-86986942D01*
X79632306Y-86986942D02*
X79679925Y-87082180D01*
X79679925Y-87082180D02*
X79727544Y-87129800D01*
X79727544Y-87129800D02*
X79822782Y-87177419D01*
X79822782Y-87177419D02*
X79965639Y-87177419D01*
X79203734Y-86510752D02*
X79203734Y-87510752D01*
X79203734Y-86558371D02*
X79108496Y-86510752D01*
X79108496Y-86510752D02*
X78918020Y-86510752D01*
X78918020Y-86510752D02*
X78822782Y-86558371D01*
X78822782Y-86558371D02*
X78775163Y-86605990D01*
X78775163Y-86605990D02*
X78727544Y-86701228D01*
X78727544Y-86701228D02*
X78727544Y-86986942D01*
X78727544Y-86986942D02*
X78775163Y-87082180D01*
X78775163Y-87082180D02*
X78822782Y-87129800D01*
X78822782Y-87129800D02*
X78918020Y-87177419D01*
X78918020Y-87177419D02*
X79108496Y-87177419D01*
X79108496Y-87177419D02*
X79203734Y-87129800D01*
X78441829Y-86510752D02*
X78060877Y-86510752D01*
X78298972Y-86177419D02*
X78298972Y-87034561D01*
X78298972Y-87034561D02*
X78251353Y-87129800D01*
X78251353Y-87129800D02*
X78156115Y-87177419D01*
X78156115Y-87177419D02*
X78060877Y-87177419D01*
X77727543Y-87177419D02*
X77727543Y-86510752D01*
X77727543Y-86177419D02*
X77775162Y-86225038D01*
X77775162Y-86225038D02*
X77727543Y-86272657D01*
X77727543Y-86272657D02*
X77679924Y-86225038D01*
X77679924Y-86225038D02*
X77727543Y-86177419D01*
X77727543Y-86177419D02*
X77727543Y-86272657D01*
X76822782Y-87129800D02*
X76918020Y-87177419D01*
X76918020Y-87177419D02*
X77108496Y-87177419D01*
X77108496Y-87177419D02*
X77203734Y-87129800D01*
X77203734Y-87129800D02*
X77251353Y-87082180D01*
X77251353Y-87082180D02*
X77298972Y-86986942D01*
X77298972Y-86986942D02*
X77298972Y-86701228D01*
X77298972Y-86701228D02*
X77251353Y-86605990D01*
X77251353Y-86605990D02*
X77203734Y-86558371D01*
X77203734Y-86558371D02*
X77108496Y-86510752D01*
X77108496Y-86510752D02*
X76918020Y-86510752D01*
X76918020Y-86510752D02*
X76822782Y-86558371D01*
X75965639Y-87177419D02*
X75965639Y-86653609D01*
X75965639Y-86653609D02*
X76013258Y-86558371D01*
X76013258Y-86558371D02*
X76108496Y-86510752D01*
X76108496Y-86510752D02*
X76298972Y-86510752D01*
X76298972Y-86510752D02*
X76394210Y-86558371D01*
X75965639Y-87129800D02*
X76060877Y-87177419D01*
X76060877Y-87177419D02*
X76298972Y-87177419D01*
X76298972Y-87177419D02*
X76394210Y-87129800D01*
X76394210Y-87129800D02*
X76441829Y-87034561D01*
X76441829Y-87034561D02*
X76441829Y-86939323D01*
X76441829Y-86939323D02*
X76394210Y-86844085D01*
X76394210Y-86844085D02*
X76298972Y-86796466D01*
X76298972Y-86796466D02*
X76060877Y-86796466D01*
X76060877Y-86796466D02*
X75965639Y-86748847D01*
X75346591Y-87177419D02*
X75441829Y-87129800D01*
X75441829Y-87129800D02*
X75489448Y-87034561D01*
X75489448Y-87034561D02*
X75489448Y-86177419D01*
X75203734Y-87272657D02*
X74441829Y-87272657D01*
X74298971Y-86510752D02*
X74060876Y-87177419D01*
X74060876Y-87177419D02*
X73822781Y-86510752D01*
X73489447Y-86272657D02*
X73441828Y-86225038D01*
X73441828Y-86225038D02*
X73346590Y-86177419D01*
X73346590Y-86177419D02*
X73108495Y-86177419D01*
X73108495Y-86177419D02*
X73013257Y-86225038D01*
X73013257Y-86225038D02*
X72965638Y-86272657D01*
X72965638Y-86272657D02*
X72918019Y-86367895D01*
X72918019Y-86367895D02*
X72918019Y-86463133D01*
X72918019Y-86463133D02*
X72965638Y-86605990D01*
X72965638Y-86605990D02*
X73537066Y-87177419D01*
X73537066Y-87177419D02*
X72918019Y-87177419D01*
%TO.C,ZIF1*%
X70091600Y-132570000D02*
X70091600Y-134795000D01*
X71291600Y-132570000D02*
X70091600Y-132570000D01*
X86291600Y-132570000D02*
X87491600Y-132570000D01*
X87491600Y-132570000D02*
X87491600Y-134795000D01*
%TD*%
M02*
