M48
; DRILL file {KiCad 9.0.0} date 2025-03-31T10:14:02-0700
; FORMAT={-:-/ absolute / metric / decimal}
; #@! TF.CreationDate,2025-03-31T10:14:02-07:00
; #@! TF.GenerationSoftware,Kicad,Pcbnew,9.0.0
; #@! TF.FileFunction,Plated,1,4,PTH
FMAT,2
METRIC
; #@! TA.AperFunction,Plated,PTH,ViaDrill
T1C0.200
; #@! TA.AperFunction,Plated,PTH,ComponentDrill
T2C0.737
; #@! TA.AperFunction,Plated,PTH,ComponentDrill
T3C2.300
; #@! TA.AperFunction,Plated,PTH,ComponentDrill
T4C4.000
%
G90
G05
T1
X69.28Y-95.61
X69.28Y-96.03
X69.28Y-96.43
X69.28Y-96.85
X69.28Y-97.25
X69.28Y-97.65
X69.28Y-98.08
X69.28Y-98.51
X69.28Y-98.93
X69.28Y-99.37
X69.28Y-99.87
X69.28Y-102.43
X69.28Y-102.87
X69.28Y-103.32
X69.28Y-103.72
X69.28Y-104.12
X69.28Y-104.52
X69.28Y-104.92
X69.28Y-105.32
X69.28Y-105.72
X69.28Y-106.12
X69.28Y-106.52
X69.28Y-106.92
X69.28Y-107.32
X69.29Y-84.0
X69.29Y-84.48
X69.29Y-84.88
X69.29Y-85.29
X69.29Y-85.7
X69.29Y-86.1
X69.29Y-86.5
X69.29Y-86.93
X69.29Y-87.38
X69.29Y-87.83
X69.29Y-88.25
X69.29Y-88.68
X69.29Y-89.08
X69.29Y-90.78
X69.29Y-95.15
X69.29Y-100.37
X69.29Y-100.91
X69.29Y-107.72
X69.29Y-108.12
X69.3Y-89.54
X69.3Y-89.97
X69.3Y-90.38
X69.3Y-91.21
X69.3Y-91.64
X69.3Y-92.04
X69.3Y-92.49
X69.3Y-92.92
X69.3Y-93.35
X69.3Y-93.8
X69.3Y-94.26
X69.3Y-94.7
X69.3Y-101.39
X69.3Y-101.89
X69.3Y-108.52
X69.3Y-108.92
X69.3Y-109.32
X69.3Y-109.72
X69.3Y-110.14
X69.3Y-110.62
X69.3Y-111.09
X69.3Y-111.55
X69.3Y-112.01
X69.3Y-112.52
X69.3Y-112.92
X69.3Y-113.32
X69.41Y-118.97
X69.41Y-125.14
X69.43Y-120.98
X69.43Y-127.51
X69.45Y-113.76
X69.46Y-73.22
X69.46Y-74.22
X69.46Y-75.22
X69.46Y-76.22
X69.46Y-77.22
X69.46Y-78.22
X69.46Y-79.22
X69.46Y-80.22
X69.46Y-81.22
X69.46Y-82.22
X69.46Y-128.72
X69.46Y-129.72
X69.46Y-130.72
X69.5Y-123.49
X69.55Y-83.6
X69.55Y-134.88
X69.648Y-117.426
X69.67Y-132.57
X69.75Y-114.06
X69.87Y-116.52
X69.88Y-83.26
X69.89Y-136.74
X69.96Y-72.22
X69.96Y-74.72
X69.96Y-75.72
X69.96Y-76.72
X69.96Y-77.72
X69.96Y-78.72
X69.96Y-79.72
X69.96Y-80.72
X69.96Y-81.72
X69.96Y-115.72
X70.0Y-84.97
X70.0Y-85.38
X70.0Y-88.01
X70.0Y-88.45
X70.0Y-101.61
X70.0Y-102.05
X70.0Y-102.45
X70.0Y-102.9
X70.0Y-103.31
X70.0Y-103.73
X70.0Y-104.14
X70.0Y-104.55
X70.0Y-104.97
X70.0Y-105.37
X70.0Y-105.77
X70.0Y-106.2
X70.0Y-106.6
X70.0Y-107.02
X70.01Y-85.84
X70.01Y-86.27
X70.01Y-86.72
X70.01Y-87.59
X70.01Y-89.31
X70.01Y-98.24
X70.01Y-98.65
X70.01Y-100.45
X70.01Y-107.89
X70.01Y-108.31
X70.02Y-87.16
X70.02Y-88.89
X70.02Y-89.72
X70.02Y-97.41
X70.02Y-97.82
X70.02Y-99.06
X70.02Y-99.46
X70.02Y-99.95
X70.02Y-101.07
X70.02Y-108.73
X70.02Y-109.13
X70.02Y-109.55
X70.02Y-109.96
X70.03Y-90.13
X70.03Y-90.56
X70.03Y-90.99
X70.03Y-91.43
X70.03Y-91.86
X70.03Y-96.98
X70.03Y-110.45
X70.03Y-110.9
X70.03Y-111.33
X70.03Y-111.8
X70.03Y-112.22
X70.03Y-112.65
X70.03Y-113.08
X70.04Y-92.31
X70.04Y-92.73
X70.04Y-93.15
X70.04Y-94.02
X70.04Y-94.44
X70.04Y-95.28
X70.04Y-96.12
X70.05Y-84.55
X70.05Y-93.57
X70.05Y-94.86
X70.05Y-95.7
X70.06Y-96.55
X70.06Y-114.39
X70.15Y-84.15
X70.22Y-83.0
X70.22Y-107.46
X70.27Y-113.49
X70.38Y-114.71
X70.39Y-122.99
X70.41Y-100.85
X70.46Y-75.22
X70.46Y-76.22
X70.47Y-83.83
X70.55Y-113.78
X70.55Y-127.51
X70.55Y-129.85
X70.65Y-85.31
X70.65Y-107.69
X70.66Y-82.99
X70.66Y-88.91
X70.66Y-89.35
X70.67Y-84.83
X70.67Y-85.78
X70.67Y-86.23
X70.67Y-87.6
X70.67Y-88.49
X70.67Y-90.21
X70.67Y-99.14
X70.67Y-99.55
X70.68Y-86.72
X70.68Y-87.16
X70.68Y-88.06
X70.68Y-89.79
X70.68Y-90.62
X70.68Y-95.75
X70.68Y-96.59
X70.68Y-98.31
X70.68Y-98.72
X70.68Y-99.96
X70.69Y-91.03
X70.69Y-91.46
X70.69Y-91.89
X70.69Y-92.33
X70.69Y-92.76
X70.69Y-94.47
X70.69Y-97.88
X70.69Y-100.42
X70.7Y-93.21
X70.7Y-93.63
X70.7Y-94.05
X70.7Y-94.92
X70.7Y-95.34
X70.7Y-96.18
X70.7Y-97.02
X70.7Y-97.45
X70.71Y-115.04
X70.728Y-118.006
X70.73Y-106.17
X70.73Y-106.59
X70.76Y-103.74
X70.76Y-104.15
X70.76Y-104.57
X70.79Y-124.003
X70.8Y-102.02
X70.8Y-131.31
X70.85Y-101.55
X70.86Y-114.09
X70.88Y-83.77
X70.89Y-84.42
X70.92Y-108.0
X70.95Y-117.1
X70.96Y-71.72
X70.96Y-75.72
X70.96Y-109.22
X70.97Y-136.79
X71.001Y-129.04
X71.03Y-115.38
X71.07Y-83.0
X71.14Y-106.6
X71.145Y-111.709
X71.17Y-101.21
X71.21Y-108.31
X71.22Y-134.23
X71.251Y-130.5
X71.29Y-114.2
X71.32Y-83.75
X71.34Y-115.69
X71.35Y-84.16
X71.4Y-86.3
X71.4Y-86.72
X71.4Y-87.52
X71.4Y-88.32
X71.4Y-88.72
X71.41Y-85.9
X71.41Y-87.12
X71.41Y-87.92
X71.41Y-89.12
X71.41Y-89.52
X71.41Y-89.92
X71.41Y-90.32
X71.41Y-90.72
X71.41Y-91.6
X71.41Y-92.01
X71.41Y-92.42
X71.42Y-85.48
X71.42Y-91.12
X71.42Y-92.86
X71.42Y-93.31
X71.42Y-96.56
X71.42Y-98.24
X71.42Y-98.65
X71.42Y-100.78
X71.43Y-93.74
X71.43Y-94.21
X71.43Y-94.68
X71.43Y-95.15
X71.43Y-95.6
X71.43Y-96.05
X71.43Y-96.99
X71.43Y-97.81
X71.43Y-99.06
X71.43Y-99.46
X71.43Y-99.86
X71.43Y-100.27
X71.44Y-97.39
X71.46Y-76.22
X71.5Y-83.0
X71.5Y-107.32
X71.51Y-108.63
X71.54Y-106.59
X71.57Y-85.1
X71.66Y-116.0
X71.711Y-128.35
X71.73Y-83.76
X71.74Y-114.21
X71.83Y-107.76
X71.84Y-114.93
X71.89Y-136.74
X71.9Y-84.14
X71.9Y-108.86
X71.94Y-83.0
X71.94Y-84.91
X71.96Y-71.72
X71.96Y-75.72
X71.96Y-106.59
X71.96Y-107.32
X71.961Y-129.81
X71.98Y-116.34
X72.13Y-115.38
X72.15Y-114.21
X72.18Y-83.75
X72.19Y-117.73
X72.2Y-108.05
X72.2Y-131.56
X72.25Y-114.93
X72.288Y-112.954
X72.32Y-116.65
X72.33Y-108.87
X72.36Y-83.0
X72.38Y-84.9
X72.38Y-110.64
X72.4Y-107.32
X72.41Y-106.59
X72.43Y-84.15
X72.45Y-102.95
X72.46Y-75.22
X72.46Y-76.22
X72.48Y-105.43
X72.48Y-115.73
X72.55Y-114.21
X72.62Y-83.75
X72.65Y-114.93
X72.67Y-116.93
X72.68Y-108.1
X72.75Y-108.87
X72.78Y-84.9
X72.79Y-83.0
X72.8Y-116.03
X72.8Y-129.01
X72.81Y-106.59
X72.82Y-107.32
X72.89Y-136.74
X72.93Y-84.17
X72.952Y-75.697
X72.96Y-71.72
X72.96Y-80.34
X72.96Y-114.21
X72.97Y-79.55
X72.97Y-81.15
X72.97Y-81.95
X72.98Y-78.76
X73.0Y-77.96
X73.05Y-83.75
X73.05Y-114.93
X73.09Y-135.1
X73.092Y-131.53
X73.11Y-111.41
X73.11Y-112.12
X73.127Y-124.028
X73.14Y-108.1
X73.16Y-116.94
X73.17Y-108.87
X73.21Y-84.89
X73.22Y-83.0
X73.22Y-103.77
X73.23Y-106.59
X73.24Y-107.32
X73.25Y-116.24
X73.251Y-128.2
X73.29Y-104.5
X73.36Y-114.21
X73.4Y-117.63
X73.42Y-84.17
X73.45Y-114.93
X73.46Y-72.22
X73.46Y-76.22
X73.47Y-83.75
X73.487Y-75.193
X73.53Y-112.12
X73.57Y-111.41
X73.58Y-108.1
X73.59Y-108.87
X73.61Y-116.94
X73.62Y-84.89
X73.64Y-83.0
X73.66Y-103.77
X73.66Y-106.59
X73.66Y-107.32
X73.68Y-116.24
X73.69Y-135.11
X73.692Y-131.542
X73.72Y-104.5
X73.78Y-114.21
X73.79Y-73.35
X73.84Y-84.17
X73.88Y-114.93
X73.89Y-83.75
X73.89Y-136.74
X73.96Y-76.766
X73.96Y-72.72
X73.96Y-75.72
X73.961Y-127.51
X73.97Y-112.13
X74.0Y-108.87
X74.0Y-115.59
X74.02Y-108.1
X74.03Y-84.89
X74.03Y-116.94
X74.04Y-83.0
X74.04Y-111.41
X74.046Y-71.761
X74.08Y-125.86
X74.1Y-106.59
X74.11Y-107.32
X74.13Y-116.24
X74.14Y-103.79
X74.17Y-104.73
X74.2Y-114.21
X74.26Y-84.16
X74.29Y-83.75
X74.29Y-114.93
X74.29Y-135.1
X74.292Y-131.51
X74.4Y-112.37
X74.42Y-108.87
X74.43Y-84.89
X74.45Y-116.94
X74.46Y-72.22
X74.46Y-83.0
X74.46Y-109.72
X74.47Y-108.1
X74.49Y-105.07
X74.5Y-111.45
X74.53Y-116.24
X74.531Y-125.05
X74.54Y-104.07
X74.54Y-106.6
X74.56Y-107.32
X74.61Y-114.22
X74.69Y-112.68
X74.7Y-114.94
X74.74Y-117.88
X74.82Y-105.41
X74.83Y-111.72
X74.84Y-108.87
X74.86Y-104.39
X74.89Y-135.13
X74.89Y-136.74
X74.892Y-131.517
X74.9Y-108.1
X74.9Y-116.95
X74.93Y-116.23
X74.939Y-123.5
X74.96Y-71.72
X74.96Y-72.72
X74.97Y-112.98
X75.09Y-103.66
X75.13Y-105.71
X75.13Y-112.05
X75.15Y-126.57
X75.18Y-104.72
X75.241Y-124.36
X75.25Y-113.28
X75.26Y-108.87
X75.27Y-110.1
X75.31Y-108.1
X75.31Y-116.94
X75.34Y-116.24
X75.39Y-122.69
X75.44Y-106.03
X75.44Y-112.34
X75.46Y-72.22
X75.49Y-105.03
X75.49Y-135.12
X75.492Y-131.5
X75.57Y-74.82
X75.57Y-113.6
X75.578Y-119.406
X75.601Y-125.76
X75.66Y-108.87
X75.668Y-121.086
X75.72Y-106.4
X75.73Y-116.94
X75.74Y-112.64
X75.75Y-116.24
X75.76Y-108.09
X75.8Y-118.5
X75.82Y-105.37
X75.83Y-115.48
X75.85Y-113.96
X75.89Y-136.74
X75.96Y-71.72
X75.96Y-72.72
X76.0Y-111.41
X76.01Y-120.32
X76.04Y-112.94
X76.08Y-108.87
X76.09Y-135.16
X76.092Y-131.49
X76.1Y-122.0
X76.102Y-105.668
X76.17Y-116.94
X76.18Y-104.7
X76.18Y-108.1
X76.2Y-116.24
X76.28Y-123.45
X76.311Y-125.07
X76.33Y-113.24
X76.37Y-74.82
X76.4Y-105.96
X76.46Y-72.22
X76.46Y-106.41
X76.46Y-110.22
X76.46Y-112.22
X76.48Y-108.86
X76.58Y-116.94
X76.59Y-108.1
X76.6Y-113.58
X76.61Y-116.24
X76.63Y-114.01
X76.69Y-135.15
X76.692Y-131.493
X76.89Y-136.74
X76.96Y-71.72
X76.96Y-72.72
X77.16Y-74.82
X77.29Y-135.16
X77.292Y-131.509
X77.46Y-72.22
X77.89Y-136.74
X77.9Y-135.14
X77.905Y-131.505
X77.96Y-71.72
X77.96Y-72.72
X77.96Y-74.82
X78.46Y-72.22
X78.77Y-74.82
X78.89Y-136.74
X78.96Y-71.72
X78.96Y-72.72
X79.46Y-72.22
X79.57Y-74.82
X79.89Y-136.74
X79.96Y-71.72
X79.96Y-72.72
X80.38Y-74.83
X80.46Y-72.22
X80.91Y-108.08
X80.92Y-106.19
X80.92Y-113.68
X80.96Y-71.72
X80.96Y-72.72
X80.96Y-112.22
X81.0Y-108.84
X81.07Y-113.26
X81.15Y-105.69
X81.17Y-74.82
X81.18Y-116.97
X81.19Y-119.19
X81.19Y-136.79
X81.2Y-116.2
X81.33Y-108.08
X81.38Y-112.94
X81.45Y-105.4
X81.46Y-72.22
X81.46Y-108.84
X81.46Y-110.22
X81.5Y-111.31
X81.57Y-122.14
X81.602Y-120.454
X81.62Y-116.2
X81.62Y-116.97
X81.66Y-112.64
X81.69Y-106.26
X81.69Y-113.91
X81.75Y-108.08
X81.76Y-105.12
X81.81Y-118.23
X81.88Y-123.63
X81.9Y-108.84
X81.91Y-113.51
X81.912Y-121.374
X81.942Y-119.624
X81.96Y-71.72
X81.96Y-72.72
X81.96Y-112.33
X81.97Y-74.82
X82.01Y-105.92
X82.02Y-116.21
X82.04Y-103.13
X82.05Y-116.99
X82.06Y-104.81
X82.06Y-115.52
X82.16Y-108.08
X82.18Y-136.79
X82.21Y-113.2
X82.26Y-112.02
X82.34Y-105.63
X82.35Y-104.51
X82.35Y-108.85
X82.4Y-123.0
X82.42Y-109.87
X82.45Y-116.98
X82.46Y-72.22
X82.46Y-110.72
X82.46Y-116.21
X82.53Y-112.88
X82.58Y-108.08
X82.58Y-111.72
X82.65Y-104.2
X82.66Y-105.29
X82.77Y-124.56
X82.78Y-108.85
X82.82Y-112.57
X82.88Y-106.6
X82.88Y-116.99
X82.9Y-116.21
X82.92Y-111.43
X82.93Y-114.22
X82.95Y-102.12
X82.95Y-103.9
X82.95Y-114.93
X82.96Y-71.72
X82.96Y-72.72
X82.99Y-104.95
X83.0Y-108.08
X83.05Y-117.95
X83.16Y-112.28
X83.18Y-83.02
X83.18Y-107.34
X83.19Y-136.79
X83.22Y-83.76
X83.22Y-84.17
X83.22Y-108.85
X83.28Y-84.89
X83.29Y-106.59
X83.31Y-116.97
X83.34Y-116.21
X83.35Y-104.59
X83.37Y-111.36
X83.37Y-114.94
X83.39Y-103.79
X83.4Y-114.22
X83.42Y-108.08
X83.433Y-72.224
X83.46Y-73.22
X83.46Y-75.22
X83.46Y-76.22
X83.5Y-123.5
X83.57Y-112.16
X83.6Y-107.34
X83.62Y-83.01
X83.66Y-83.76
X83.66Y-84.16
X83.66Y-108.85
X83.71Y-106.6
X83.71Y-116.97
X83.77Y-84.89
X83.78Y-114.94
X83.78Y-116.21
X83.82Y-108.08
X83.83Y-104.49
X83.83Y-111.36
X83.85Y-103.79
X83.86Y-114.22
X83.96Y-71.72
X83.96Y-72.72
X83.96Y-74.72
X83.96Y-75.72
X83.96Y-76.72
X83.99Y-112.14
X84.0Y-124.5
X84.02Y-107.34
X84.03Y-83.02
X84.07Y-83.76
X84.07Y-84.17
X84.1Y-108.85
X84.12Y-116.97
X84.13Y-106.59
X84.19Y-136.79
X84.2Y-84.9
X84.2Y-114.95
X84.2Y-116.21
X84.24Y-108.08
X84.29Y-111.36
X84.31Y-104.49
X84.32Y-114.22
X84.33Y-103.79
X84.39Y-112.15
X84.42Y-107.34
X84.431Y-76.221
X84.46Y-75.22
X84.46Y-83.02
X84.5Y-83.76
X84.5Y-84.17
X84.53Y-116.96
X84.55Y-106.6
X84.56Y-77.97
X84.56Y-78.76
X84.56Y-79.55
X84.56Y-80.36
X84.56Y-81.15
X84.56Y-81.95
X84.57Y-108.85
X84.62Y-116.22
X84.63Y-84.9
X84.64Y-114.95
X84.64Y-117.73
X84.69Y-108.05
X84.77Y-114.22
X84.8Y-123.83
X84.84Y-107.34
X84.9Y-83.02
X84.94Y-83.76
X84.94Y-84.17
X84.96Y-71.72
X84.96Y-75.72
X84.97Y-106.59
X84.97Y-116.99
X84.98Y-115.99
X85.03Y-108.84
X85.05Y-84.9
X85.05Y-102.8
X85.05Y-114.95
X85.09Y-107.79
X85.115Y-105.842
X85.14Y-110.45
X85.19Y-136.79
X85.192Y-113.005
X85.21Y-114.22
X85.25Y-115.69
X85.36Y-83.76
X85.36Y-84.17
X85.369Y-132.32
X85.37Y-107.41
X85.38Y-83.02
X85.39Y-106.6
X85.39Y-116.79
X85.4Y-108.56
X85.46Y-76.22
X85.46Y-114.95
X85.48Y-84.9
X85.55Y-115.4
X85.68Y-116.51
X85.68Y-135.3
X85.69Y-114.22
X85.71Y-108.26
X85.79Y-83.76
X85.79Y-84.17
X85.82Y-106.6
X85.86Y-83.01
X85.89Y-115.06
X85.91Y-85.04
X85.96Y-75.72
X85.97Y-132.25
X85.98Y-116.17
X85.98Y-117.4
X86.03Y-107.96
X86.16Y-85.4
X86.16Y-114.22
X86.17Y-87.6
X86.17Y-88.4
X86.17Y-88.8
X86.18Y-88.0
X86.18Y-89.2
X86.18Y-89.6
X86.18Y-90.0
X86.18Y-90.4
X86.18Y-90.8
X86.18Y-91.68
X86.18Y-92.09
X86.18Y-92.5
X86.18Y-92.9
X86.19Y-85.88
X86.19Y-87.18
X86.19Y-91.2
X86.19Y-93.42
X86.19Y-93.85
X86.19Y-94.26
X86.19Y-94.67
X86.19Y-95.09
X86.19Y-95.52
X86.19Y-95.94
X86.19Y-96.35
X86.19Y-98.03
X86.19Y-98.44
X86.19Y-136.79
X86.2Y-86.32
X86.2Y-86.75
X86.2Y-96.78
X86.2Y-97.6
X86.2Y-98.85
X86.2Y-99.25
X86.2Y-99.65
X86.2Y-100.07
X86.2Y-100.5
X86.2Y-100.94
X86.21Y-97.18
X86.23Y-83.76
X86.26Y-106.59
X86.27Y-84.29
X86.28Y-115.87
X86.33Y-83.02
X86.33Y-107.66
X86.34Y-135.3
X86.46Y-71.72
X86.46Y-76.22
X86.46Y-108.72
X86.46Y-123.72
X86.5Y-101.29
X86.538Y-111.735
X86.55Y-106.31
X86.6Y-83.99
X86.6Y-84.61
X86.6Y-115.57
X86.63Y-107.34
X86.65Y-114.22
X86.75Y-101.67
X86.76Y-102.09
X86.76Y-103.76
X86.76Y-104.16
X86.76Y-104.56
X86.79Y-134.27
X86.81Y-83.12
X86.9Y-84.91
X86.91Y-128.48
X86.92Y-84.31
X86.93Y-88.17
X86.93Y-88.57
X86.93Y-115.26
X86.938Y-117.426
X86.94Y-85.36
X86.94Y-86.82
X86.94Y-87.31
X86.94Y-87.77
X86.94Y-88.97
X86.94Y-89.37
X86.94Y-89.77
X86.94Y-90.17
X86.94Y-90.57
X86.94Y-91.45
X86.94Y-91.86
X86.94Y-92.27
X86.94Y-92.67
X86.95Y-85.87
X86.95Y-86.36
X86.95Y-90.97
X86.95Y-93.16
X86.95Y-93.59
X86.95Y-94.0
X86.95Y-94.41
X86.95Y-94.83
X86.95Y-95.26
X86.95Y-95.68
X86.95Y-96.09
X86.95Y-97.77
X86.95Y-98.18
X86.95Y-107.04
X86.96Y-75.72
X86.96Y-96.52
X86.96Y-97.34
X86.96Y-98.59
X86.96Y-98.99
X86.96Y-99.39
X86.96Y-99.82
X86.96Y-100.25
X86.97Y-96.92
X86.99Y-131.19
X87.05Y-113.9
X87.06Y-100.73
X87.15Y-83.43
X87.16Y-116.52
X87.19Y-136.79
X87.22Y-84.63
X87.25Y-106.73
X87.25Y-114.94
X87.34Y-113.52
X87.361Y-127.67
X87.43Y-111.37
X87.43Y-111.78
X87.43Y-112.2
X87.43Y-112.6
X87.44Y-113.08
X87.441Y-130.38
X87.45Y-87.31
X87.45Y-88.11
X87.45Y-88.51
X87.45Y-107.19
X87.45Y-107.6
X87.45Y-108.01
X87.45Y-108.43
X87.45Y-108.86
X87.45Y-109.28
X87.45Y-109.69
X87.46Y-72.72
X87.46Y-75.22
X87.46Y-76.22
X87.46Y-77.22
X87.46Y-78.22
X87.46Y-79.22
X87.46Y-80.22
X87.46Y-81.22
X87.46Y-82.22
X87.46Y-83.75
X87.46Y-87.71
X87.46Y-88.91
X87.46Y-89.31
X87.46Y-89.71
X87.46Y-90.11
X87.46Y-90.51
X87.46Y-91.39
X87.46Y-91.8
X87.46Y-92.21
X87.46Y-92.61
X87.46Y-110.12
X87.46Y-110.94
X87.47Y-84.95
X87.47Y-86.84
X87.47Y-90.91
X87.47Y-93.1
X87.47Y-93.53
X87.47Y-93.94
X87.47Y-94.35
X87.47Y-94.77
X87.47Y-95.2
X87.47Y-95.62
X87.47Y-96.03
X87.47Y-97.71
X87.47Y-98.12
X87.47Y-101.01
X87.47Y-110.52
X87.48Y-85.38
X87.48Y-85.88
X87.48Y-86.38
X87.48Y-96.46
X87.48Y-97.28
X87.48Y-98.53
X87.48Y-98.93
X87.48Y-99.33
X87.48Y-99.74
X87.49Y-96.86
X87.49Y-100.21
X87.49Y-100.61
X87.49Y-101.41
X87.49Y-101.81
X87.49Y-102.21
X87.49Y-102.61
X87.49Y-103.01
X87.49Y-103.41
X87.49Y-103.81
X87.49Y-104.21
X87.49Y-104.61
X87.49Y-105.01
X87.49Y-105.43
X87.49Y-105.83
X87.49Y-106.3
X87.5Y-124.0
X87.55Y-114.61
X87.68Y-122.1
X87.75Y-84.07
X87.778Y-118.456
X87.78Y-119.7
X87.84Y-114.29
X87.91Y-132.07
X87.96Y-73.72
X87.96Y-74.72
X87.96Y-75.72
X87.96Y-76.72
X87.96Y-77.72
X87.96Y-78.72
X87.96Y-79.72
X87.96Y-80.72
X87.96Y-81.72
X87.96Y-82.72
X87.96Y-115.72
X87.96Y-125.72
X87.96Y-128.72
X87.98Y-123.04
X88.0Y-117.55
X88.06Y-84.36
X88.07Y-120.92
X88.071Y-126.98
X88.13Y-135.31
X88.15Y-113.94
X88.151Y-129.69
X88.19Y-85.35
X88.19Y-85.75
X88.19Y-86.55
X88.19Y-87.35
X88.19Y-87.75
X88.2Y-84.82
X88.2Y-86.15
X88.2Y-86.95
X88.2Y-88.15
X88.2Y-88.55
X88.2Y-88.95
X88.2Y-89.35
X88.2Y-89.75
X88.2Y-90.63
X88.2Y-91.04
X88.2Y-91.45
X88.2Y-91.85
X88.2Y-93.15
X88.2Y-93.56
X88.2Y-93.98
X88.2Y-94.41
X88.2Y-94.83
X88.2Y-95.24
X88.2Y-96.92
X88.2Y-97.33
X88.21Y-90.15
X88.21Y-92.31
X88.21Y-92.74
X88.21Y-95.67
X88.21Y-96.49
X88.21Y-97.74
X88.21Y-98.14
X88.21Y-98.54
X88.21Y-98.97
X88.21Y-99.39
X88.21Y-99.85
X88.21Y-100.25
X88.21Y-101.05
X88.21Y-111.79
X88.21Y-112.2
X88.21Y-112.62
X88.21Y-113.02
X88.21Y-113.47
X88.22Y-96.07
X88.22Y-100.65
X88.22Y-101.45
X88.22Y-101.85
X88.22Y-102.25
X88.22Y-102.65
X88.22Y-103.05
X88.22Y-103.45
X88.22Y-103.85
X88.22Y-104.25
X88.22Y-105.13
X88.22Y-105.54
X88.22Y-105.95
X88.22Y-106.35
X88.22Y-106.76
X88.23Y-104.65
X88.23Y-107.18
X88.23Y-107.61
X88.23Y-108.02
X88.23Y-108.43
X88.23Y-108.85
X88.23Y-109.28
X88.23Y-109.7
X88.23Y-110.11
X88.24Y-110.54
X88.24Y-111.36
X88.25Y-110.94
T2
X71.12Y-102.87
X71.12Y-105.41
X71.12Y-110.49
X71.12Y-113.03
X72.39Y-104.14
X72.39Y-111.76
X73.66Y-102.87
X73.66Y-105.41
X73.66Y-110.49
X73.66Y-113.03
X83.82Y-102.87
X83.82Y-105.41
X83.82Y-110.49
X83.82Y-113.03
X85.09Y-104.14
X85.09Y-111.76
X86.36Y-102.87
X86.36Y-105.41
X86.36Y-110.49
X86.36Y-113.03
T3
X71.74Y-73.51
X71.74Y-125.66
X85.79Y-73.51
X85.795Y-125.66
T4
X72.74Y-120.76
X84.78Y-120.8
M30
