%TF.GenerationSoftware,KiCad,Pcbnew,8.0.3*%
%TF.CreationDate,2024-07-21T22:55:40-07:00*%
%TF.ProjectId,wide_v1_4_layer,77696465-5f76-4315-9f34-5f6c61796572,V1*%
%TF.SameCoordinates,Original*%
%TF.FileFunction,Copper,L2,Inr*%
%TF.FilePolarity,Positive*%
%FSLAX46Y46*%
G04 Gerber Fmt 4.6, Leading zero omitted, Abs format (unit mm)*
G04 Created by KiCad (PCBNEW 8.0.3) date 2024-07-21 22:55:40*
%MOMM*%
%LPD*%
G01*
G04 APERTURE LIST*
%TA.AperFunction,ComponentPad*%
%ADD10C,0.990600*%
%TD*%
%TA.AperFunction,ComponentPad*%
%ADD11C,3.000000*%
%TD*%
%TA.AperFunction,ComponentPad*%
%ADD12C,5.000000*%
%TD*%
%TA.AperFunction,ViaPad*%
%ADD13C,0.300000*%
%TD*%
%TA.AperFunction,ViaPad*%
%ADD14C,0.400000*%
%TD*%
%TA.AperFunction,ViaPad*%
%ADD15C,0.500000*%
%TD*%
%TA.AperFunction,Conductor*%
%ADD16C,0.099060*%
%TD*%
%TA.AperFunction,Conductor*%
%ADD17C,0.099000*%
%TD*%
G04 APERTURE END LIST*
D10*
%TO.N,Net-(C2-Pad1)*%
%TO.C,SMP2*%
X72390000Y-104140000D03*
%TO.N,GND*%
X71120000Y-105410000D03*
X73660000Y-105410000D03*
X73660000Y-102870000D03*
X71120000Y-102870000D03*
%TD*%
%TO.N,Net-(R3-Pad1)*%
%TO.C,SMP3*%
X85090000Y-104140000D03*
%TO.N,GND*%
X83820000Y-105410000D03*
X86360000Y-105410000D03*
X86360000Y-102870000D03*
X83820000Y-102870000D03*
%TD*%
D11*
%TO.N,GND*%
%TO.C,*%
X86390000Y-125660000D03*
%TD*%
D12*
%TO.N,GND*%
%TO.C,*%
X85375000Y-120800000D03*
%TD*%
D11*
%TO.N,GND*%
%TO.C,*%
X71740000Y-125660000D03*
%TD*%
D10*
%TO.N,Net-(C1-Pad1)*%
%TO.C,SMP1*%
X72390000Y-111760000D03*
%TO.N,GND*%
X71120000Y-113030000D03*
X73660000Y-113030000D03*
X73660000Y-110490000D03*
X71120000Y-110490000D03*
%TD*%
D11*
%TO.N,GND*%
%TO.C,*%
X71740000Y-73510000D03*
%TD*%
D10*
%TO.N,Net-(R4-Pad1)*%
%TO.C,SMP4*%
X85090000Y-111760000D03*
%TO.N,GND*%
X83820000Y-113030000D03*
X86360000Y-113030000D03*
X86360000Y-110490000D03*
X83820000Y-110490000D03*
%TD*%
D11*
%TO.N,GND*%
%TO.C,*%
X86390000Y-73510000D03*
%TD*%
D12*
%TO.N,GND*%
%TO.C,*%
X72740000Y-120760000D03*
%TD*%
D13*
%TO.N,Net-(Sample1-Pad3)*%
X70750000Y-130620000D03*
X75184000Y-101090400D03*
%TO.N,Net-(Sample1-Pad4)*%
X70916800Y-128625600D03*
X75946000Y-101090400D03*
%TO.N,Net-(Sample1-Pad5)*%
X76758800Y-101090400D03*
X71780400Y-131927600D03*
%TO.N,Net-(Sample1-Pad6)*%
X72542400Y-128625600D03*
X77571600Y-101090400D03*
%TO.N,Net-(Sample1-Pad7)*%
X78384400Y-101090400D03*
X72796400Y-131927600D03*
%TO.N,Net-(Sample1-Pad8)*%
X73470000Y-128600000D03*
X79197200Y-101090400D03*
%TO.N,Net-(Sample1-Pad9)*%
X80010000Y-101090400D03*
X73863200Y-131927600D03*
%TO.N,Net-(Sample1-Pad10)*%
X74420000Y-128590000D03*
X80822800Y-101090400D03*
%TO.N,Net-(Sample1-Pad11)*%
X74460000Y-131927600D03*
X81635600Y-101090400D03*
%TO.N,Net-(Sample1-Pad12)*%
X75210000Y-128600000D03*
X82346800Y-101090400D03*
%TO.N,unconnected-(ZIF1-Pad13)*%
X73550000Y-135480000D03*
X74334900Y-98138210D03*
%TO.N,Net-(Sample1-Pad15)*%
X74334900Y-97325410D03*
X74625200Y-135483600D03*
%TO.N,Net-(Sample1-Pad16)*%
X75031600Y-131927600D03*
X74327100Y-99130000D03*
%TO.N,Net-(Sample1-Pad17)*%
X74328700Y-96512799D03*
X76200000Y-135483600D03*
%TO.N,Net-(Sample1-Pad18)*%
X72889100Y-99600000D03*
X76962000Y-131927600D03*
%TO.N,Net-(Sample1-Pad19)*%
X77876400Y-135483600D03*
X72880000Y-98680000D03*
%TO.N,Net-(Sample1-Pad20)*%
X77971130Y-131927600D03*
X72880000Y-97845190D03*
%TO.N,Net-(Sample1-Pad21)*%
X78588000Y-135483600D03*
X72877900Y-96922230D03*
%TO.N,Net-(Sample1-Pad22)*%
X78878160Y-131949243D03*
X72877900Y-96087420D03*
%TO.N,Net-(Sample1-Pad23)*%
X79400000Y-135480000D03*
X72877900Y-95325410D03*
%TO.N,Net-(Sample1-Pad24)*%
X84750300Y-95311700D03*
X79908400Y-131927600D03*
%TO.N,unconnected-(ZIF1-Pad27)*%
X74328700Y-95700000D03*
X80118000Y-135483600D03*
%TO.N,31*%
X81788001Y-135483600D03*
X83265665Y-94899980D03*
%TO.N,32*%
X83265665Y-95749990D03*
X80619600Y-132588000D03*
%TO.N,33*%
X83260400Y-96499980D03*
X83515200Y-135483600D03*
%TO.N,34*%
X81328043Y-131879557D03*
X83260400Y-97299990D03*
%TO.N,35*%
X83260400Y-98150790D03*
X85293201Y-135483600D03*
%TO.N,36*%
X83260400Y-99090000D03*
X82524600Y-131902200D03*
%TO.N,37*%
X84745035Y-96911700D03*
X88188800Y-134416800D03*
%TO.N,39*%
X88188800Y-133654800D03*
X84768155Y-97773710D03*
%TO.N,40*%
X84768155Y-98685840D03*
X87833200Y-131216400D03*
%TO.N,Net-(Sample1-Pad37)*%
X84745035Y-96099330D03*
X83312000Y-132638800D03*
%TO.N,52*%
X86817200Y-128625600D03*
X86664800Y-131927600D03*
%TO.N,Net-(Sample1-Pad40)*%
X81127600Y-128625600D03*
X83312000Y-131927600D03*
%TO.N,Net-(Sample1-Pad42)*%
X82702400Y-128625600D03*
X84074000Y-131927600D03*
%TO.N,Net-(Sample1-Pad44)*%
X84328000Y-128625600D03*
X84937600Y-131927600D03*
%TO.N,Net-(Sample1-Pad46)*%
X85750400Y-131927600D03*
X86004400Y-128625600D03*
D14*
%TO.N,GND*%
X86537800Y-111734600D03*
D13*
X73730000Y-94410000D03*
X75150000Y-105240000D03*
D14*
X81762600Y-129489200D03*
D13*
X86190000Y-96381400D03*
X69220000Y-83110000D03*
D14*
X88050000Y-80020000D03*
X86610000Y-98910000D03*
D13*
X88130000Y-97324600D03*
X73670000Y-100960000D03*
D14*
X81110000Y-106260000D03*
X70517200Y-76543200D03*
D13*
X83520000Y-94400000D03*
X72280000Y-109480000D03*
D14*
X70550000Y-127510000D03*
D13*
X87140000Y-97710000D03*
D14*
X71500000Y-89050000D03*
X72974200Y-134416800D03*
X72317200Y-75343200D03*
X86335600Y-92391600D03*
X84772800Y-137845800D03*
D15*
X83814000Y-93300000D03*
D13*
X74205000Y-92200000D03*
D14*
X86334600Y-107035600D03*
D13*
X74150000Y-94390000D03*
D14*
X73590000Y-114100000D03*
X88070000Y-105880000D03*
D13*
X73970000Y-101250000D03*
D14*
X81680000Y-113080000D03*
X72150000Y-108520000D03*
D13*
X71540000Y-94740000D03*
X70400000Y-93500000D03*
X75150000Y-104030000D03*
X81770000Y-108760000D03*
X87150000Y-101330000D03*
X74150000Y-104320000D03*
D14*
X69480000Y-107320000D03*
D13*
X87600000Y-94780000D03*
D14*
X74938800Y-123500200D03*
X85000000Y-124000000D03*
X78896400Y-78820000D03*
D13*
X73824000Y-92200000D03*
X72300000Y-95840000D03*
D14*
X82000000Y-120400000D03*
D13*
X88130000Y-98950000D03*
X72681000Y-92200000D03*
X69380000Y-96553400D03*
X82340000Y-105099000D03*
D14*
X76490000Y-105190000D03*
D13*
X86610000Y-99810000D03*
X69390000Y-99299400D03*
X83310000Y-106600000D03*
D14*
X72470000Y-107360000D03*
D13*
X88130000Y-96207000D03*
X72360000Y-101070000D03*
D14*
X84496800Y-75343200D03*
X71145400Y-111709200D03*
X82310000Y-121320000D03*
D13*
X82340000Y-104718000D03*
X72300000Y-98650000D03*
D14*
X71805800Y-107924600D03*
D13*
X85810000Y-101940000D03*
X88130000Y-96588000D03*
D14*
X82569200Y-76543200D03*
D13*
X86190000Y-97143400D03*
D14*
X78296400Y-80020000D03*
D13*
X86190000Y-98652400D03*
X71540000Y-92380000D03*
X80700000Y-109720000D03*
X76240000Y-107410000D03*
D14*
X73793200Y-137845800D03*
X88030000Y-108940000D03*
D13*
X69390000Y-97775400D03*
D14*
X69860000Y-88090000D03*
D13*
X84600000Y-110930000D03*
D14*
X82572400Y-81030000D03*
X77096400Y-80020000D03*
D13*
X87140000Y-98860000D03*
X85520000Y-109680000D03*
X86190000Y-97880000D03*
X84340000Y-101940000D03*
D14*
X73496600Y-104052800D03*
D13*
X85210000Y-97917600D03*
D14*
X83388200Y-111861600D03*
X81460000Y-95020000D03*
X87960000Y-127670000D03*
X70793200Y-136645800D03*
D13*
X76550000Y-107730000D03*
X71310000Y-97040000D03*
X86190000Y-97524400D03*
D14*
X86900200Y-93055800D03*
X76546400Y-81030000D03*
D13*
X85210000Y-96010000D03*
X69390000Y-98156400D03*
D14*
X74696400Y-80020000D03*
D13*
X69390000Y-100442400D03*
D14*
X71393200Y-137845800D03*
D13*
X73062000Y-92200000D03*
X75460000Y-108090000D03*
D14*
X71670400Y-78820000D03*
D15*
X73780000Y-93300000D03*
D13*
X71310000Y-97776600D03*
X69380000Y-95410400D03*
D14*
X81369200Y-76543200D03*
D13*
X85490000Y-100790000D03*
D14*
X76020000Y-94000000D03*
D13*
X81710000Y-109800000D03*
X86600000Y-95220000D03*
X70690000Y-93230000D03*
X73443000Y-92200000D03*
D14*
X78946400Y-81030000D03*
D13*
X74560000Y-101840000D03*
X70400000Y-96582400D03*
X87140000Y-97334400D03*
X88150000Y-95445000D03*
D14*
X78619200Y-137845800D03*
D13*
X85200000Y-98330000D03*
D14*
X70097800Y-135585200D03*
X74120400Y-81030000D03*
D13*
X70370000Y-100900000D03*
X88120000Y-101594600D03*
X70960000Y-94410000D03*
D14*
X73660000Y-125120000D03*
D13*
X80710000Y-110159000D03*
X85360000Y-92510000D03*
X71310000Y-98549000D03*
D14*
X82780000Y-114580000D03*
X74070400Y-78820000D03*
X69725400Y-91392200D03*
X88050000Y-111090000D03*
X78343200Y-77743200D03*
D13*
X72380000Y-93850000D03*
D14*
X85096800Y-76543200D03*
X70193200Y-137845800D03*
X86640000Y-96030000D03*
D13*
X71310000Y-99311000D03*
D14*
X80172400Y-81030000D03*
X83281200Y-116000200D03*
X83000000Y-116900000D03*
X83169200Y-75343200D03*
D13*
X72870000Y-108910000D03*
X80700000Y-108850000D03*
X70400000Y-96201400D03*
D14*
X88050000Y-112960000D03*
D13*
X70400000Y-98138000D03*
D14*
X86300000Y-81030000D03*
X76464600Y-106434600D03*
D13*
X87150000Y-98090000D03*
X87150000Y-96572400D03*
D14*
X79410000Y-96584800D03*
D13*
X72960000Y-94730000D03*
D14*
X72317200Y-77743200D03*
D13*
X72080000Y-100780000D03*
X83330000Y-106160000D03*
X69380000Y-97290000D03*
X75150000Y-104440000D03*
D14*
X73660000Y-111683800D03*
X70024400Y-90143800D03*
X81924800Y-116209800D03*
X69500000Y-123490000D03*
X71297800Y-135585200D03*
X76219200Y-137845800D03*
D13*
X87150000Y-95800000D03*
D14*
X75960000Y-116530000D03*
X75900000Y-105770400D03*
X76010000Y-120320000D03*
D13*
X72320000Y-99500000D03*
D14*
X84496800Y-77743200D03*
X71221600Y-107061000D03*
D13*
X83930000Y-100960000D03*
X69380000Y-96934400D03*
X88130000Y-96969000D03*
D14*
X85372800Y-136645800D03*
X87772800Y-136645800D03*
D13*
X87150000Y-98500000D03*
X74160000Y-103770000D03*
D14*
X72339200Y-105968800D03*
D13*
X85000000Y-92250000D03*
D14*
X80769200Y-75343200D03*
X72917200Y-76543200D03*
D13*
X69390000Y-101560000D03*
D14*
X71070400Y-80020000D03*
X76100000Y-122000000D03*
D13*
X86190000Y-99033400D03*
D14*
X75619200Y-136645800D03*
X83960000Y-107220000D03*
D13*
X87860000Y-95060000D03*
X83060000Y-101820000D03*
X84930000Y-101380000D03*
D14*
X87149000Y-90868000D03*
D13*
X83812000Y-92190000D03*
X73100000Y-100370000D03*
D14*
X75296400Y-78820000D03*
D13*
X85580000Y-110130000D03*
D14*
X72920400Y-81030000D03*
D13*
X81630000Y-106940000D03*
X73380000Y-100670000D03*
D14*
X74850000Y-114420000D03*
D13*
X70970000Y-92970000D03*
X70400000Y-95820400D03*
X72800000Y-100090000D03*
D14*
X85696800Y-77743200D03*
X87450000Y-78820000D03*
X72188600Y-116693200D03*
D13*
X75150000Y-104830000D03*
X83431000Y-92190000D03*
D14*
X87090000Y-106560000D03*
D13*
X86190000Y-95619400D03*
D14*
X81969200Y-77743200D03*
X70637400Y-108000800D03*
D13*
X72330000Y-95430000D03*
X82240000Y-106310000D03*
X87150000Y-99250000D03*
D14*
X80722400Y-80020000D03*
D13*
X76970000Y-110580000D03*
D14*
X86334600Y-108889800D03*
D13*
X71990000Y-109760000D03*
D14*
X77143200Y-77743200D03*
X70589000Y-90808000D03*
D13*
X72310000Y-97850000D03*
D14*
X85696800Y-75343200D03*
X76543200Y-76543200D03*
X72870400Y-78820000D03*
D13*
X69380000Y-95791400D03*
X84790000Y-100090000D03*
X75270000Y-106430000D03*
X69390000Y-101204400D03*
X71310000Y-96278000D03*
D14*
X87000000Y-109390000D03*
X75660000Y-117500000D03*
X78943200Y-76543200D03*
X79569200Y-77743200D03*
D13*
X84220000Y-100670000D03*
X83050000Y-92190000D03*
D14*
X88096800Y-77743200D03*
X83169200Y-77743200D03*
X69480000Y-113120000D03*
D13*
X76970000Y-109380000D03*
D14*
X84172600Y-117700000D03*
X77419200Y-137845800D03*
X88096800Y-75343200D03*
D13*
X76970000Y-108960000D03*
D14*
X81969200Y-75343200D03*
X82845200Y-136645800D03*
X69430000Y-127510000D03*
D13*
X73240000Y-101930000D03*
D14*
X85650000Y-80020000D03*
D13*
X87150000Y-96953400D03*
D14*
X87757000Y-135585200D03*
X87500000Y-118000000D03*
D13*
X84300000Y-108720000D03*
D14*
X73583800Y-107035600D03*
D15*
X84900000Y-93660000D03*
D14*
X77970000Y-96564800D03*
D13*
X69390000Y-100061400D03*
X72310000Y-98250000D03*
D14*
X73126600Y-124028200D03*
X74850000Y-113327800D03*
D13*
X84300000Y-94600000D03*
X71310000Y-95897000D03*
D14*
X87500000Y-81030000D03*
D13*
X75150000Y-107780000D03*
X69380000Y-96172400D03*
X84600000Y-92190000D03*
D14*
X82360000Y-113280000D03*
D13*
X85210000Y-96800000D03*
D14*
X81045200Y-137845800D03*
D13*
X88250000Y-84390000D03*
D15*
X85350000Y-94090000D03*
D14*
X84450000Y-80020000D03*
D13*
X75160000Y-106040000D03*
D15*
X84394000Y-93300000D03*
D14*
X88050000Y-92680000D03*
X76020000Y-93080000D03*
D13*
X74840000Y-107450000D03*
D14*
X86610000Y-97990000D03*
D13*
X80740000Y-107990000D03*
X84600000Y-102250000D03*
X75140000Y-102910000D03*
D14*
X79522400Y-80020000D03*
X72747400Y-115753400D03*
X80169200Y-76543200D03*
X87810000Y-113850000D03*
D13*
X71310000Y-96659000D03*
D14*
X85700000Y-116200000D03*
D13*
X88120000Y-100096000D03*
X83074000Y-94390000D03*
X80710000Y-109290000D03*
D14*
X74743200Y-77743200D03*
D13*
X72300000Y-92200000D03*
X70860000Y-99880000D03*
X70400000Y-97344400D03*
X69210000Y-84400000D03*
X76890000Y-108060000D03*
X69380000Y-95029400D03*
X88120000Y-99334000D03*
D14*
X87172800Y-137845800D03*
X77143200Y-75343200D03*
D13*
X72320000Y-99070000D03*
D14*
X75943200Y-77743200D03*
X85100000Y-81030000D03*
X80880000Y-96530000D03*
X71528800Y-91392200D03*
D13*
X85190000Y-96400000D03*
D14*
X87496800Y-76543200D03*
X87930000Y-89090000D03*
D13*
X82340000Y-103543400D03*
X85210000Y-97562000D03*
X84660000Y-101690000D03*
X84950000Y-109030000D03*
X86480000Y-93680000D03*
X86190000Y-99770000D03*
D14*
X87980000Y-123040000D03*
X83722400Y-78820000D03*
X74850000Y-112286400D03*
X71720400Y-81030000D03*
D13*
X70570000Y-99610000D03*
X72310000Y-97080000D03*
D14*
X81490000Y-93980000D03*
D13*
X82340000Y-105900000D03*
D14*
X87174400Y-88531200D03*
X75800000Y-118500000D03*
D13*
X81800000Y-108320000D03*
X70400000Y-97700000D03*
X82340000Y-103162400D03*
D14*
X86896800Y-77743200D03*
X79845200Y-137845800D03*
D13*
X74586000Y-92200000D03*
X71140000Y-100170000D03*
D14*
X86250000Y-78820000D03*
D13*
X69390000Y-98537400D03*
D15*
X86180000Y-94920000D03*
D13*
X85210000Y-109340000D03*
X82840000Y-107340000D03*
D14*
X86893400Y-104140000D03*
D13*
X84680000Y-108800000D03*
D14*
X83769200Y-76543200D03*
X88100000Y-107020000D03*
X70410600Y-115728000D03*
X85191600Y-113004600D03*
D13*
X88130000Y-98569000D03*
X88120000Y-97810000D03*
X87020000Y-94230000D03*
D14*
X75346400Y-81030000D03*
X86584400Y-90203800D03*
D13*
X86880000Y-95510000D03*
X76970000Y-110199000D03*
X70400000Y-99255600D03*
X86210000Y-93400000D03*
D14*
X87500000Y-124000000D03*
X69720000Y-92840000D03*
X81922400Y-80020000D03*
X69450000Y-115110000D03*
X74380000Y-124440000D03*
D13*
X88120000Y-100477000D03*
D14*
X86893400Y-107950000D03*
D13*
X72300000Y-93190000D03*
X72940000Y-103500000D03*
D14*
X73517200Y-75343200D03*
X85130000Y-107310000D03*
X71221600Y-108864400D03*
X85006200Y-117100000D03*
D13*
X82760000Y-102120000D03*
D14*
X81372400Y-81030000D03*
X77743200Y-76543200D03*
D15*
X73200000Y-93300000D03*
D14*
X86260000Y-89090000D03*
D13*
X85590000Y-102320000D03*
X70380000Y-101400000D03*
X74240000Y-106810000D03*
D14*
X72288400Y-112953800D03*
D13*
X71310000Y-99666600D03*
D14*
X86572800Y-136645800D03*
D13*
X73270000Y-108780000D03*
X82340000Y-104280000D03*
X69230000Y-81940000D03*
X75140000Y-105630000D03*
D14*
X73517200Y-77743200D03*
D13*
X81710000Y-110199000D03*
D14*
X87140000Y-114390000D03*
X86758800Y-116007800D03*
X81968200Y-122085600D03*
D13*
X88120000Y-101239000D03*
D14*
X70520400Y-81030000D03*
X69430000Y-120980000D03*
X71117200Y-77743200D03*
D13*
X86070000Y-100230000D03*
X86760000Y-93950000D03*
X70400000Y-95439400D03*
D14*
X86285400Y-91452200D03*
X88088800Y-91452200D03*
X79569200Y-75343200D03*
D13*
X84193000Y-92190000D03*
D14*
X83122400Y-80020000D03*
X81645200Y-136645800D03*
D13*
X75970000Y-110470000D03*
X86890000Y-99500000D03*
X70400000Y-98900000D03*
X74240000Y-101550000D03*
D14*
X83388200Y-107924600D03*
D13*
X86190000Y-98271400D03*
D15*
X83194000Y-93300000D03*
D14*
X69410000Y-118970000D03*
D13*
X71310000Y-95135000D03*
D14*
X69480000Y-109420000D03*
D13*
X75160000Y-103650000D03*
X69240000Y-87110000D03*
D14*
X70789800Y-124002800D03*
D13*
X80980000Y-107590000D03*
D14*
X86200000Y-117600000D03*
X84556600Y-107924600D03*
D13*
X70400000Y-95058400D03*
D14*
X76819200Y-136645800D03*
D13*
X82450000Y-102390000D03*
X85210000Y-98770000D03*
D14*
X73179200Y-116667800D03*
X84000000Y-124500000D03*
X71717200Y-76543200D03*
X80122400Y-78820000D03*
X85115400Y-105841800D03*
D13*
X71900000Y-92190000D03*
X69390000Y-100823400D03*
X74840000Y-102140000D03*
X83350000Y-101530000D03*
D14*
X70586600Y-104165400D03*
D13*
X69220000Y-85750000D03*
X75150000Y-103270000D03*
D14*
X70665200Y-91976400D03*
X80769200Y-77743200D03*
D13*
X86190000Y-99414400D03*
D14*
X75010000Y-110290000D03*
D13*
X70640000Y-94710000D03*
D14*
X83772400Y-81030000D03*
X82522400Y-78820000D03*
D13*
X88120000Y-98191000D03*
X83340000Y-104049000D03*
D14*
X87620000Y-115310000D03*
X69917200Y-77743200D03*
X83445200Y-137845800D03*
D13*
X82340000Y-103924400D03*
D14*
X69480000Y-111180000D03*
X75668200Y-121085600D03*
D13*
X71790000Y-100500000D03*
X72720000Y-93580000D03*
X71890000Y-103460000D03*
D14*
X73888200Y-115735600D03*
X75578200Y-119405600D03*
X85370000Y-108630000D03*
X73050400Y-107950000D03*
D13*
X73300000Y-94440000D03*
X88120000Y-99715000D03*
X76970000Y-109800000D03*
D14*
X70994800Y-116693200D03*
X74743200Y-75343200D03*
D13*
X83340000Y-104430000D03*
D14*
X70470400Y-78820000D03*
X75943200Y-75343200D03*
X86850000Y-80020000D03*
D13*
X74550000Y-94410000D03*
D14*
X70390000Y-122990000D03*
X70461400Y-117683800D03*
X78343200Y-75343200D03*
D13*
X83120000Y-107000000D03*
X69870000Y-94060000D03*
X72300000Y-96250000D03*
D14*
X77970000Y-97530000D03*
D13*
X82340000Y-105480000D03*
D14*
X82163000Y-115479800D03*
X81322400Y-78820000D03*
X69870400Y-80020000D03*
X76660000Y-96520000D03*
D15*
X74400000Y-93300000D03*
D13*
X88280000Y-87100000D03*
D14*
X87174400Y-89623400D03*
D13*
X82480000Y-107660000D03*
X85200000Y-99660000D03*
D14*
X87840000Y-93640000D03*
X75390000Y-122690000D03*
X76496400Y-78820000D03*
X74419200Y-136645800D03*
X82243000Y-117095400D03*
X85801200Y-107950000D03*
D13*
X72120000Y-94150000D03*
D14*
X77746400Y-81030000D03*
D13*
X87140000Y-100860000D03*
D14*
X69430000Y-105560000D03*
X84060000Y-104130000D03*
X71444200Y-90298400D03*
D13*
X83644000Y-101250000D03*
X75890000Y-107070000D03*
X72950000Y-101650000D03*
D14*
X87300000Y-117200000D03*
D13*
X80700000Y-108420000D03*
X72710000Y-93200000D03*
X85920000Y-93100000D03*
X83890000Y-108720000D03*
D14*
X86557000Y-135585200D03*
D13*
X85210000Y-97181000D03*
D14*
X86896800Y-75343200D03*
D13*
X71920000Y-93440000D03*
D14*
X69700000Y-89030000D03*
D13*
X71310000Y-98930000D03*
D14*
X86296800Y-76543200D03*
X75880000Y-114580000D03*
X80445200Y-136645800D03*
D13*
X74110000Y-108780000D03*
X75120000Y-102550000D03*
X69550000Y-94310000D03*
D14*
X70614400Y-88471200D03*
X75670000Y-113100000D03*
X82400000Y-123000000D03*
D13*
X85210000Y-99170000D03*
D14*
X69410000Y-125140000D03*
X84172800Y-136645800D03*
D13*
X84560000Y-94890000D03*
D14*
X85050000Y-78820000D03*
D13*
X69390000Y-98918400D03*
X86190000Y-96000400D03*
D14*
X71993200Y-136645800D03*
X77696400Y-78820000D03*
D13*
X75970000Y-109960000D03*
X84500000Y-100400000D03*
X69390000Y-99680400D03*
X75760000Y-108370000D03*
D14*
X81135400Y-105015400D03*
X85972800Y-137845800D03*
D13*
X72310000Y-96670000D03*
D15*
X85780000Y-94490000D03*
D14*
X70969400Y-114839000D03*
X69917200Y-75343200D03*
X75440000Y-111290000D03*
D13*
X88270000Y-81930000D03*
X71310000Y-95516000D03*
D14*
X82340000Y-119570000D03*
D13*
X85210000Y-95600000D03*
X71230000Y-92660000D03*
D14*
X81734800Y-114479800D03*
X88004200Y-90358400D03*
X72188600Y-114839000D03*
D13*
X71310000Y-98168000D03*
D14*
X75019200Y-137845800D03*
D13*
X81710000Y-110580000D03*
X81950000Y-106620000D03*
X86190000Y-96762400D03*
D14*
X72593200Y-137845800D03*
X71655200Y-115753400D03*
D13*
X74160000Y-106410000D03*
X74530000Y-107110000D03*
X85790000Y-100510000D03*
D14*
X73788800Y-117683800D03*
D13*
X85640000Y-92830000D03*
X88120000Y-100858000D03*
X70400000Y-96963400D03*
D14*
X70614400Y-89563400D03*
X72270400Y-80020000D03*
X78019200Y-136645800D03*
D13*
X71820000Y-94420000D03*
D14*
X74320000Y-116650000D03*
D13*
X83950000Y-94390000D03*
X88260000Y-85740000D03*
D14*
X75896400Y-80020000D03*
D13*
X71510000Y-100210000D03*
D14*
X86200000Y-115245800D03*
X73193200Y-136645800D03*
D13*
X85200000Y-101100000D03*
X76970000Y-108530000D03*
D14*
X83944800Y-115300000D03*
X79410000Y-97550000D03*
D13*
X71310000Y-97421000D03*
X73700000Y-108780000D03*
D14*
X75528200Y-115615600D03*
X81490000Y-93060000D03*
D13*
X88260000Y-83100000D03*
X70400000Y-98519000D03*
X72650000Y-101350000D03*
D14*
X70290000Y-113930000D03*
X84900000Y-115100000D03*
D13*
X82130000Y-107970000D03*
X88150000Y-95826000D03*
D14*
X83431400Y-114153600D03*
D13*
X82340000Y-102781400D03*
X87150000Y-96191400D03*
D14*
X82360000Y-111146400D03*
D13*
X81300000Y-107250000D03*
X83340000Y-103668000D03*
X71270000Y-94100000D03*
D14*
X75343200Y-76543200D03*
X79245200Y-136645800D03*
D13*
X69400000Y-94658400D03*
X80710000Y-110540000D03*
D14*
X81700000Y-105679600D03*
X83500000Y-123500000D03*
X87225200Y-92036400D03*
D13*
X72310000Y-97470000D03*
X75980000Y-108720000D03*
D14*
X71117200Y-75343200D03*
D13*
X70130000Y-93792000D03*
D14*
X86640000Y-96950000D03*
D13*
X72560000Y-109190000D03*
D14*
X69430000Y-117070000D03*
X73470400Y-80020000D03*
X74142600Y-107950000D03*
X82245200Y-137845800D03*
D13*
X71580000Y-93780000D03*
X85630000Y-110980000D03*
X87320000Y-94520000D03*
D14*
X74117200Y-76543200D03*
D13*
X75590000Y-106740000D03*
D14*
X75990000Y-95040000D03*
D13*
%TO.N,Net-(R4-Pad1)*%
X76290000Y-128600000D03*
X81200000Y-122090000D03*
%TO.N,38*%
X87833200Y-131724400D03*
X84745035Y-99599320D03*
%TO.N,Net-(R2-Pad1)*%
X69880000Y-104500000D03*
X71100000Y-129680000D03*
%TO.N,Net-(R3-Pad1)*%
X87610000Y-104540000D03*
X75710000Y-131960000D03*
%TO.N,Net-(Sample1-Pad25)*%
X74330000Y-94910000D03*
X80930000Y-135480000D03*
%TD*%
D16*
%TO.N,Net-(Sample1-Pad3)*%
X76000940Y-123689346D02*
X77980000Y-121710286D01*
X77980000Y-104480000D02*
X75184000Y-101684000D01*
X70750000Y-130620000D02*
X70491070Y-130361070D01*
X70491070Y-130361070D02*
X70491070Y-128358930D01*
X71946972Y-128060000D02*
X76000940Y-124006032D01*
X70491070Y-128358930D02*
X70790000Y-128060000D01*
X75184000Y-101684000D02*
X75184000Y-101090400D01*
X76000940Y-124006032D02*
X76000940Y-123689346D01*
X77980000Y-121710286D02*
X77980000Y-104480000D01*
X70790000Y-128060000D02*
X71946972Y-128060000D01*
%TO.N,Net-(Sample1-Pad4)*%
X78250000Y-121721800D02*
X76200000Y-123771800D01*
X71581340Y-128625600D02*
X70916800Y-128625600D01*
X71811146Y-128477340D02*
X71697947Y-128477340D01*
X76200000Y-123771800D02*
X76200000Y-124088486D01*
X75946000Y-102158800D02*
X75946000Y-101090400D01*
X78250000Y-104462800D02*
X78250000Y-121721800D01*
X75946000Y-102158800D02*
X78250000Y-104462800D01*
X71581340Y-128593947D02*
X71581340Y-128625600D01*
X76200000Y-124088486D02*
X71811146Y-128477340D01*
X71697947Y-128477340D02*
X71581340Y-128593947D01*
%TO.N,Net-(Sample1-Pad5)*%
X71780400Y-128676400D02*
X71780400Y-131927600D01*
X78530000Y-122040000D02*
X71893600Y-128676400D01*
X78530000Y-103930000D02*
X78530000Y-122040000D01*
X76758800Y-102158800D02*
X78530000Y-103930000D01*
X71893600Y-128676400D02*
X71780400Y-128676400D01*
X76758800Y-102158800D02*
X76758800Y-101090400D01*
%TO.N,Net-(Sample1-Pad6)*%
X78770000Y-103357200D02*
X78770000Y-122398000D01*
X78770000Y-122398000D02*
X72542400Y-128625600D01*
X77571600Y-102158800D02*
X78770000Y-103357200D01*
X77571600Y-102158800D02*
X77571600Y-101090400D01*
%TO.N,Net-(Sample1-Pad7)*%
X78990000Y-122656400D02*
X78920619Y-122656400D01*
X78920619Y-122656400D02*
X72970000Y-128607019D01*
X78384400Y-102158800D02*
X78990000Y-102764400D01*
X72970000Y-131754000D02*
X72796400Y-131927600D01*
X78990000Y-102764400D02*
X78990000Y-122656400D01*
X78384400Y-101090400D02*
X78384400Y-102158800D01*
X72970000Y-128607019D02*
X72970000Y-131754000D01*
%TO.N,Net-(Sample1-Pad8)*%
X79197200Y-122872800D02*
X73470000Y-128600000D01*
X79197200Y-101090400D02*
X79197200Y-122872800D01*
%TO.N,Net-(Sample1-Pad9)*%
X73863200Y-128630400D02*
X79396260Y-123097340D01*
X79396260Y-123097340D02*
X79396260Y-102772540D01*
X80010000Y-102158800D02*
X80010000Y-101090400D01*
X79396260Y-102772540D02*
X80010000Y-102158800D01*
X73863200Y-131927600D02*
X73863200Y-128630400D01*
%TO.N,Net-(Sample1-Pad10)*%
X79595320Y-123414680D02*
X79595320Y-103386280D01*
X79595320Y-103386280D02*
X80822800Y-102158800D01*
X74420000Y-128590000D02*
X79595320Y-123414680D01*
X80822800Y-102158800D02*
X80822800Y-101090400D01*
%TO.N,Net-(Sample1-Pad11)*%
X74861410Y-131526190D02*
X74861410Y-128448590D01*
X79794380Y-123592020D02*
X79794380Y-104000020D01*
X74460000Y-131927600D02*
X74861410Y-131526190D01*
X79794380Y-104000020D02*
X81635600Y-102158800D01*
X81635600Y-102158800D02*
X81635600Y-101090400D01*
X79717980Y-123592020D02*
X79794380Y-123592020D01*
X74861410Y-128448590D02*
X79717980Y-123592020D01*
%TO.N,Net-(Sample1-Pad12)*%
X82346800Y-101823200D02*
X82346800Y-101090400D01*
X80088120Y-104081880D02*
X82346800Y-101823200D01*
X80088120Y-123721880D02*
X80088120Y-104081880D01*
X75210000Y-128600000D02*
X80088120Y-123721880D01*
D17*
%TO.N,Net-(R4-Pad1)*%
X81200000Y-123690000D02*
X81200000Y-122090000D01*
X76290000Y-128600000D02*
X81200000Y-123690000D01*
%TO.N,Net-(R2-Pad1)*%
X69880000Y-130364268D02*
X70484292Y-130968560D01*
X71100000Y-130762939D02*
X71100000Y-129680000D01*
X71090000Y-129690000D02*
X71100000Y-129680000D01*
X70894379Y-130968560D02*
X71100000Y-130762939D01*
X70484292Y-130968560D02*
X70894379Y-130968560D01*
X69880000Y-104500000D02*
X69880000Y-104590000D01*
X69880000Y-104500000D02*
X69880000Y-130364268D01*
X69880000Y-104590000D02*
X69860000Y-104610000D01*
%TO.N,Net-(R3-Pad1)*%
X87620000Y-104550000D02*
X87610000Y-104540000D01*
X87620000Y-113330000D02*
X81548560Y-119401440D01*
X81548560Y-119401440D02*
X81548560Y-126121440D01*
X87620000Y-113330000D02*
X87620000Y-104550000D01*
X81548560Y-126121440D02*
X75710000Y-131960000D01*
%TD*%
%TA.AperFunction,Conductor*%
%TO.N,GND*%
G36*
X70924411Y-126329336D02*
G01*
X71070664Y-126475589D01*
X71194930Y-126558621D01*
X70513436Y-127240115D01*
X70655960Y-127346807D01*
X70655961Y-127346808D01*
X70907042Y-127483908D01*
X70907041Y-127483908D01*
X71175104Y-127583890D01*
X71454637Y-127644699D01*
X71700528Y-127662286D01*
X71765992Y-127686703D01*
X71807864Y-127742636D01*
X71812848Y-127812328D01*
X71779363Y-127873651D01*
X71718040Y-127907136D01*
X71691682Y-127909970D01*
X70819843Y-127909970D01*
X70760157Y-127909970D01*
X70760155Y-127909970D01*
X70760153Y-127909971D01*
X70705020Y-127932807D01*
X70705012Y-127932812D01*
X70406085Y-128231741D01*
X70406084Y-128231742D01*
X70363882Y-128273943D01*
X70341040Y-128329086D01*
X70341040Y-130313814D01*
X70321355Y-130380853D01*
X70268551Y-130426608D01*
X70199393Y-130436552D01*
X70135837Y-130407527D01*
X70129359Y-130401495D01*
X70066319Y-130338455D01*
X70032834Y-130277132D01*
X70030000Y-130250774D01*
X70030000Y-127010457D01*
X70049685Y-126943418D01*
X70102489Y-126897663D01*
X70158974Y-126887471D01*
X70841377Y-126205067D01*
X70924411Y-126329336D01*
G37*
%TD.AperFunction*%
%TA.AperFunction,Conductor*%
G36*
X71233094Y-122081521D02*
G01*
X71418479Y-122266906D01*
X71513632Y-122339919D01*
X70802818Y-123050733D01*
X70802819Y-123050734D01*
X70945484Y-123170445D01*
X71237461Y-123362480D01*
X71424273Y-123456302D01*
X71475348Y-123503980D01*
X71492537Y-123571702D01*
X71470384Y-123637967D01*
X71415923Y-123681736D01*
X71394980Y-123688278D01*
X71175104Y-123736109D01*
X70907041Y-123836091D01*
X70655961Y-123973191D01*
X70655953Y-123973196D01*
X70513437Y-124079882D01*
X70513436Y-124079883D01*
X71194931Y-124761378D01*
X71070664Y-124844411D01*
X70924411Y-124990664D01*
X70841378Y-125114931D01*
X70158789Y-124432342D01*
X70094573Y-124418373D01*
X70045168Y-124368968D01*
X70030000Y-124309541D01*
X70030000Y-122517840D01*
X70049685Y-122450801D01*
X70102489Y-122405046D01*
X70171647Y-122395102D01*
X70235203Y-122424127D01*
X70253463Y-122443793D01*
X70437962Y-122691619D01*
X70437965Y-122691623D01*
X70446148Y-122700296D01*
X71160078Y-121986365D01*
X71233094Y-122081521D01*
G37*
%TD.AperFunction*%
%TA.AperFunction,Conductor*%
G36*
X70751700Y-110538488D02*
G01*
X70776799Y-110632158D01*
X70825287Y-110716141D01*
X70893859Y-110784713D01*
X70977842Y-110833201D01*
X71071512Y-110858300D01*
X71105252Y-110858300D01*
X70614948Y-111348604D01*
X70737267Y-111413985D01*
X70924888Y-111470899D01*
X71120000Y-111490115D01*
X71315111Y-111470899D01*
X71502732Y-111413985D01*
X71675629Y-111321569D01*
X71680698Y-111318183D01*
X71681811Y-111319849D01*
X71737643Y-111296125D01*
X71806513Y-111307904D01*
X71858082Y-111355047D01*
X71875977Y-111422586D01*
X71866582Y-111466741D01*
X71809537Y-111604461D01*
X71809536Y-111604465D01*
X71789059Y-111759999D01*
X71789059Y-111760000D01*
X71809536Y-111915534D01*
X71809537Y-111915538D01*
X71866582Y-112053258D01*
X71874051Y-112122727D01*
X71842776Y-112185206D01*
X71782687Y-112220858D01*
X71712861Y-112218364D01*
X71681284Y-112200939D01*
X71680698Y-112201817D01*
X71675629Y-112198430D01*
X71502732Y-112106014D01*
X71315111Y-112049100D01*
X71120000Y-112029884D01*
X70924888Y-112049100D01*
X70737270Y-112106014D01*
X70614949Y-112171394D01*
X70614949Y-112171395D01*
X71105253Y-112661700D01*
X71071512Y-112661700D01*
X70977842Y-112686799D01*
X70893859Y-112735287D01*
X70825287Y-112803859D01*
X70776799Y-112887842D01*
X70751700Y-112981512D01*
X70751700Y-113015254D01*
X70261395Y-112524949D01*
X70259468Y-112525235D01*
X70214397Y-112571120D01*
X70146259Y-112586581D01*
X70080579Y-112562750D01*
X70038210Y-112507193D01*
X70030000Y-112462823D01*
X70030000Y-111057176D01*
X70049685Y-110990137D01*
X70102489Y-110944382D01*
X70171647Y-110934438D01*
X70235203Y-110963463D01*
X70260294Y-110994886D01*
X70261395Y-110995049D01*
X70751700Y-110504745D01*
X70751700Y-110538488D01*
G37*
%TD.AperFunction*%
%TA.AperFunction,Conductor*%
G36*
X87218603Y-110995050D02*
G01*
X87218604Y-110995050D01*
X87236642Y-110961304D01*
X87285604Y-110911459D01*
X87353742Y-110895999D01*
X87419422Y-110919831D01*
X87461790Y-110975388D01*
X87470000Y-111019757D01*
X87470000Y-112500241D01*
X87450315Y-112567280D01*
X87397511Y-112613035D01*
X87328353Y-112622979D01*
X87264797Y-112593954D01*
X87236642Y-112558695D01*
X87218604Y-112524948D01*
X86728300Y-113015252D01*
X86728300Y-112981512D01*
X86703201Y-112887842D01*
X86654713Y-112803859D01*
X86586141Y-112735287D01*
X86502158Y-112686799D01*
X86408488Y-112661700D01*
X86374747Y-112661700D01*
X86865049Y-112171395D01*
X86742727Y-112106013D01*
X86555111Y-112049100D01*
X86360000Y-112029884D01*
X86164888Y-112049100D01*
X85977267Y-112106014D01*
X85804370Y-112198430D01*
X85799302Y-112201817D01*
X85798194Y-112200159D01*
X85742300Y-112223880D01*
X85673436Y-112212071D01*
X85621888Y-112164905D01*
X85604023Y-112097358D01*
X85613415Y-112053262D01*
X85670464Y-111915535D01*
X85690941Y-111760000D01*
X85670464Y-111604465D01*
X85613416Y-111466741D01*
X85605948Y-111397272D01*
X85637223Y-111334793D01*
X85697312Y-111299141D01*
X85767137Y-111301635D01*
X85798715Y-111319060D01*
X85799302Y-111318183D01*
X85804370Y-111321569D01*
X85977267Y-111413985D01*
X86164888Y-111470899D01*
X86360000Y-111490115D01*
X86555111Y-111470899D01*
X86742730Y-111413985D01*
X86865050Y-111348603D01*
X86374747Y-110858300D01*
X86408488Y-110858300D01*
X86502158Y-110833201D01*
X86586141Y-110784713D01*
X86654713Y-110716141D01*
X86703201Y-110632158D01*
X86728300Y-110538488D01*
X86728300Y-110504747D01*
X87218603Y-110995050D01*
G37*
%TD.AperFunction*%
%TA.AperFunction,Conductor*%
G36*
X88436939Y-71026505D02*
G01*
X88482694Y-71079309D01*
X88493900Y-71130820D01*
X88493900Y-72740442D01*
X88474215Y-72807481D01*
X88421411Y-72853236D01*
X88352253Y-72863180D01*
X88288697Y-72834155D01*
X88253718Y-72783776D01*
X88213908Y-72677041D01*
X88076808Y-72425961D01*
X88076807Y-72425960D01*
X87970115Y-72283436D01*
X87288621Y-72964930D01*
X87205589Y-72840664D01*
X87059336Y-72694411D01*
X86935068Y-72611378D01*
X87616562Y-71929883D01*
X87616561Y-71929882D01*
X87474046Y-71823196D01*
X87474038Y-71823191D01*
X87222957Y-71686091D01*
X87222958Y-71686091D01*
X86954895Y-71586109D01*
X86675362Y-71525300D01*
X86390001Y-71504891D01*
X86389999Y-71504891D01*
X86104637Y-71525300D01*
X85825104Y-71586109D01*
X85557041Y-71686091D01*
X85305961Y-71823191D01*
X85305953Y-71823196D01*
X85163437Y-71929882D01*
X85163436Y-71929883D01*
X85844931Y-72611378D01*
X85720664Y-72694411D01*
X85574411Y-72840664D01*
X85491378Y-72964931D01*
X84809883Y-72283436D01*
X84809882Y-72283437D01*
X84703196Y-72425953D01*
X84703191Y-72425961D01*
X84566091Y-72677041D01*
X84466109Y-72945104D01*
X84405300Y-73224637D01*
X84384891Y-73509998D01*
X84384891Y-73510001D01*
X84405300Y-73795362D01*
X84466109Y-74074895D01*
X84566091Y-74342958D01*
X84703191Y-74594038D01*
X84703196Y-74594046D01*
X84809882Y-74736561D01*
X84809883Y-74736562D01*
X85491377Y-74055067D01*
X85574411Y-74179336D01*
X85720664Y-74325589D01*
X85844930Y-74408621D01*
X85163436Y-75090115D01*
X85305960Y-75196807D01*
X85305961Y-75196808D01*
X85557042Y-75333908D01*
X85557041Y-75333908D01*
X85825104Y-75433890D01*
X86104637Y-75494699D01*
X86389999Y-75515109D01*
X86390001Y-75515109D01*
X86675362Y-75494699D01*
X86954895Y-75433890D01*
X87222958Y-75333908D01*
X87474047Y-75196803D01*
X87616561Y-75090116D01*
X87616562Y-75090115D01*
X86935068Y-74408621D01*
X87059336Y-74325589D01*
X87205589Y-74179336D01*
X87288621Y-74055068D01*
X87970115Y-74736562D01*
X87970116Y-74736561D01*
X88076803Y-74594047D01*
X88213908Y-74342957D01*
X88213910Y-74342953D01*
X88253718Y-74236224D01*
X88295589Y-74180290D01*
X88361054Y-74155873D01*
X88429327Y-74170725D01*
X88478732Y-74220130D01*
X88493900Y-74279557D01*
X88493900Y-119911178D01*
X88474215Y-119978217D01*
X88421411Y-120023972D01*
X88352253Y-120033916D01*
X88288697Y-120004891D01*
X88251109Y-119946742D01*
X88198854Y-119772199D01*
X88060444Y-119451329D01*
X88060438Y-119451316D01*
X87885710Y-119148677D01*
X87677032Y-118868374D01*
X87668850Y-118859702D01*
X86954919Y-119573632D01*
X86881906Y-119478479D01*
X86696521Y-119293094D01*
X86601366Y-119220079D01*
X87312180Y-118509265D01*
X87312179Y-118509264D01*
X87169519Y-118389557D01*
X86877538Y-118197519D01*
X86565260Y-118040685D01*
X86565254Y-118040683D01*
X86236869Y-117921161D01*
X86236866Y-117921160D01*
X85896828Y-117840570D01*
X85549723Y-117800000D01*
X85200277Y-117800000D01*
X84853172Y-117840570D01*
X84853170Y-117840570D01*
X84513133Y-117921160D01*
X84513130Y-117921161D01*
X84184745Y-118040683D01*
X84184739Y-118040685D01*
X83872461Y-118197519D01*
X83580480Y-118389557D01*
X83437819Y-118509264D01*
X83437818Y-118509265D01*
X84148633Y-119220079D01*
X84053479Y-119293094D01*
X83868094Y-119478479D01*
X83795080Y-119573633D01*
X83081148Y-118859701D01*
X83081147Y-118859702D01*
X83072976Y-118868363D01*
X83072972Y-118868368D01*
X82864289Y-119148677D01*
X82689561Y-119451316D01*
X82689555Y-119451329D01*
X82551145Y-119772199D01*
X82450916Y-120106988D01*
X82450914Y-120106997D01*
X82390236Y-120451119D01*
X82390235Y-120451130D01*
X82369916Y-120799996D01*
X82369916Y-120800003D01*
X82390235Y-121148869D01*
X82390236Y-121148880D01*
X82450914Y-121493002D01*
X82450916Y-121493011D01*
X82551145Y-121827800D01*
X82689555Y-122148670D01*
X82689561Y-122148683D01*
X82864289Y-122451322D01*
X83072967Y-122731625D01*
X83081148Y-122740296D01*
X83795079Y-122026365D01*
X83868094Y-122121521D01*
X84053479Y-122306906D01*
X84148632Y-122379919D01*
X83437818Y-123090733D01*
X83437819Y-123090734D01*
X83580484Y-123210445D01*
X83872461Y-123402480D01*
X84184739Y-123559314D01*
X84184745Y-123559316D01*
X84513130Y-123678838D01*
X84513133Y-123678839D01*
X84853171Y-123759429D01*
X85182973Y-123797977D01*
X85247274Y-123825311D01*
X85286590Y-123883070D01*
X85288437Y-123952915D01*
X85252231Y-124012672D01*
X85242888Y-124020406D01*
X85163437Y-124079882D01*
X85163436Y-124079883D01*
X85844931Y-124761378D01*
X85720664Y-124844411D01*
X85574411Y-124990664D01*
X85491378Y-125114931D01*
X84809883Y-124433436D01*
X84809882Y-124433437D01*
X84703196Y-124575953D01*
X84703191Y-124575961D01*
X84566091Y-124827041D01*
X84466109Y-125095104D01*
X84405300Y-125374637D01*
X84384891Y-125659998D01*
X84384891Y-125660001D01*
X84405300Y-125945362D01*
X84466109Y-126224895D01*
X84566091Y-126492958D01*
X84703191Y-126744038D01*
X84703196Y-126744046D01*
X84809882Y-126886561D01*
X84809883Y-126886562D01*
X85491377Y-126205067D01*
X85574411Y-126329336D01*
X85720664Y-126475589D01*
X85844930Y-126558621D01*
X85163436Y-127240115D01*
X85305960Y-127346807D01*
X85305961Y-127346808D01*
X85557042Y-127483908D01*
X85557041Y-127483908D01*
X85825104Y-127583890D01*
X86104637Y-127644699D01*
X86389999Y-127665109D01*
X86390001Y-127665109D01*
X86675362Y-127644699D01*
X86954895Y-127583890D01*
X87222958Y-127483908D01*
X87474047Y-127346803D01*
X87616561Y-127240116D01*
X87616562Y-127240115D01*
X86935068Y-126558621D01*
X87059336Y-126475589D01*
X87205589Y-126329336D01*
X87288621Y-126205068D01*
X87970115Y-126886562D01*
X87970116Y-126886561D01*
X88076803Y-126744047D01*
X88213908Y-126492957D01*
X88213910Y-126492953D01*
X88253718Y-126386224D01*
X88295589Y-126330290D01*
X88361054Y-126305873D01*
X88429327Y-126320725D01*
X88478732Y-126370130D01*
X88493900Y-126429557D01*
X88493900Y-133269972D01*
X88474215Y-133337011D01*
X88421411Y-133382766D01*
X88352253Y-133392710D01*
X88327490Y-133386494D01*
X88241620Y-133355240D01*
X88135980Y-133355240D01*
X88036710Y-133391372D01*
X88036709Y-133391372D01*
X88036708Y-133391373D01*
X87955785Y-133459274D01*
X87955781Y-133459278D01*
X87902964Y-133550761D01*
X87902962Y-133550766D01*
X87884619Y-133654799D01*
X87884619Y-133654800D01*
X87902962Y-133758833D01*
X87902964Y-133758838D01*
X87955781Y-133850320D01*
X87955782Y-133850321D01*
X87955784Y-133850324D01*
X87996246Y-133884276D01*
X88036707Y-133918227D01*
X88036708Y-133918227D01*
X88036709Y-133918228D01*
X88039596Y-133919278D01*
X88043472Y-133922132D01*
X88046102Y-133923651D01*
X88045932Y-133923944D01*
X88095859Y-133960704D01*
X88120795Y-134025972D01*
X88106486Y-134094361D01*
X88057474Y-134144157D01*
X88039598Y-134152321D01*
X88036709Y-134153372D01*
X87955785Y-134221274D01*
X87955781Y-134221278D01*
X87902964Y-134312761D01*
X87902962Y-134312766D01*
X87884619Y-134416799D01*
X87884619Y-134416800D01*
X87902962Y-134520833D01*
X87902964Y-134520838D01*
X87955781Y-134612320D01*
X87955782Y-134612321D01*
X87955784Y-134612324D01*
X88036709Y-134680228D01*
X88135980Y-134716360D01*
X88135982Y-134716360D01*
X88241618Y-134716360D01*
X88241620Y-134716360D01*
X88327492Y-134685104D01*
X88397218Y-134680674D01*
X88458274Y-134714644D01*
X88491271Y-134776230D01*
X88493900Y-134801627D01*
X88493900Y-138357100D01*
X88474215Y-138424139D01*
X88421411Y-138469894D01*
X88369900Y-138481100D01*
X69160900Y-138481100D01*
X69093861Y-138461415D01*
X69048106Y-138408611D01*
X69036900Y-138357100D01*
X69036900Y-135479999D01*
X73245819Y-135479999D01*
X73245819Y-135480000D01*
X73264162Y-135584033D01*
X73264164Y-135584038D01*
X73316981Y-135675520D01*
X73316982Y-135675521D01*
X73316984Y-135675524D01*
X73397909Y-135743428D01*
X73497180Y-135779560D01*
X73497182Y-135779560D01*
X73602818Y-135779560D01*
X73602820Y-135779560D01*
X73702091Y-135743428D01*
X73783016Y-135675524D01*
X73835837Y-135584036D01*
X73853546Y-135483599D01*
X74321019Y-135483599D01*
X74321019Y-135483600D01*
X74339362Y-135587633D01*
X74339364Y-135587638D01*
X74392181Y-135679120D01*
X74392182Y-135679121D01*
X74392184Y-135679124D01*
X74473109Y-135747028D01*
X74572380Y-135783160D01*
X74572382Y-135783160D01*
X74678018Y-135783160D01*
X74678020Y-135783160D01*
X74777291Y-135747028D01*
X74858216Y-135679124D01*
X74911037Y-135587636D01*
X74929381Y-135483600D01*
X74929381Y-135483599D01*
X75895819Y-135483599D01*
X75895819Y-135483600D01*
X75914162Y-135587633D01*
X75914164Y-135587638D01*
X75966981Y-135679120D01*
X75966982Y-135679121D01*
X75966984Y-135679124D01*
X76047909Y-135747028D01*
X76147180Y-135783160D01*
X76147182Y-135783160D01*
X76252818Y-135783160D01*
X76252820Y-135783160D01*
X76352091Y-135747028D01*
X76433016Y-135679124D01*
X76485837Y-135587636D01*
X76504181Y-135483600D01*
X76504181Y-135483599D01*
X77572219Y-135483599D01*
X77572219Y-135483600D01*
X77590562Y-135587633D01*
X77590564Y-135587638D01*
X77643381Y-135679120D01*
X77643382Y-135679121D01*
X77643384Y-135679124D01*
X77724309Y-135747028D01*
X77823580Y-135783160D01*
X77823582Y-135783160D01*
X77929218Y-135783160D01*
X77929220Y-135783160D01*
X78028491Y-135747028D01*
X78109416Y-135679124D01*
X78124813Y-135652454D01*
X78175379Y-135604240D01*
X78243986Y-135591016D01*
X78308851Y-135616984D01*
X78339585Y-135652452D01*
X78354984Y-135679124D01*
X78435909Y-135747028D01*
X78535180Y-135783160D01*
X78535182Y-135783160D01*
X78640818Y-135783160D01*
X78640820Y-135783160D01*
X78740091Y-135747028D01*
X78821016Y-135679124D01*
X78873837Y-135587636D01*
X78873838Y-135587629D01*
X78877547Y-135577441D01*
X78880990Y-135578694D01*
X78903338Y-135533572D01*
X78963275Y-135497665D01*
X79033110Y-135499862D01*
X79090671Y-135539466D01*
X79110972Y-135575269D01*
X79114162Y-135584033D01*
X79114163Y-135584036D01*
X79116243Y-135587638D01*
X79166981Y-135675520D01*
X79166982Y-135675521D01*
X79166984Y-135675524D01*
X79247909Y-135743428D01*
X79347180Y-135779560D01*
X79347182Y-135779560D01*
X79452818Y-135779560D01*
X79452820Y-135779560D01*
X79552091Y-135743428D01*
X79633016Y-135675524D01*
X79650575Y-135645112D01*
X79701138Y-135596898D01*
X79769745Y-135583674D01*
X79834610Y-135609641D01*
X79865347Y-135645112D01*
X79884984Y-135679124D01*
X79965909Y-135747028D01*
X80065180Y-135783160D01*
X80065182Y-135783160D01*
X80170818Y-135783160D01*
X80170820Y-135783160D01*
X80270091Y-135747028D01*
X80351016Y-135679124D01*
X80403837Y-135587636D01*
X80403838Y-135587629D01*
X80407547Y-135577441D01*
X80410990Y-135578694D01*
X80433338Y-135533572D01*
X80493275Y-135497665D01*
X80563110Y-135499862D01*
X80620671Y-135539466D01*
X80640972Y-135575269D01*
X80644162Y-135584033D01*
X80644163Y-135584036D01*
X80646243Y-135587638D01*
X80696981Y-135675520D01*
X80696982Y-135675521D01*
X80696984Y-135675524D01*
X80777909Y-135743428D01*
X80877180Y-135779560D01*
X80877182Y-135779560D01*
X80982818Y-135779560D01*
X80982820Y-135779560D01*
X81082091Y-135743428D01*
X81163016Y-135675524D01*
X81215837Y-135584036D01*
X81233546Y-135483599D01*
X81483820Y-135483599D01*
X81483820Y-135483600D01*
X81502163Y-135587633D01*
X81502165Y-135587638D01*
X81554982Y-135679120D01*
X81554983Y-135679121D01*
X81554985Y-135679124D01*
X81635910Y-135747028D01*
X81735181Y-135783160D01*
X81735183Y-135783160D01*
X81840819Y-135783160D01*
X81840821Y-135783160D01*
X81940092Y-135747028D01*
X82021017Y-135679124D01*
X82073838Y-135587636D01*
X82092182Y-135483600D01*
X82092182Y-135483599D01*
X83211019Y-135483599D01*
X83211019Y-135483600D01*
X83229362Y-135587633D01*
X83229364Y-135587638D01*
X83282181Y-135679120D01*
X83282182Y-135679121D01*
X83282184Y-135679124D01*
X83363109Y-135747028D01*
X83462380Y-135783160D01*
X83462382Y-135783160D01*
X83568018Y-135783160D01*
X83568020Y-135783160D01*
X83667291Y-135747028D01*
X83748216Y-135679124D01*
X83801037Y-135587636D01*
X83819381Y-135483600D01*
X83819381Y-135483599D01*
X84989020Y-135483599D01*
X84989020Y-135483600D01*
X85007363Y-135587633D01*
X85007365Y-135587638D01*
X85060182Y-135679120D01*
X85060183Y-135679121D01*
X85060185Y-135679124D01*
X85141110Y-135747028D01*
X85240381Y-135783160D01*
X85240383Y-135783160D01*
X85346019Y-135783160D01*
X85346021Y-135783160D01*
X85445292Y-135747028D01*
X85526217Y-135679124D01*
X85579038Y-135587636D01*
X85597382Y-135483600D01*
X85579038Y-135379564D01*
X85543774Y-135318486D01*
X85526219Y-135288079D01*
X85526218Y-135288078D01*
X85526217Y-135288076D01*
X85445292Y-135220172D01*
X85346021Y-135184040D01*
X85240381Y-135184040D01*
X85141111Y-135220172D01*
X85141110Y-135220172D01*
X85141109Y-135220173D01*
X85060186Y-135288074D01*
X85060182Y-135288078D01*
X85007365Y-135379561D01*
X85007363Y-135379566D01*
X84989020Y-135483599D01*
X83819381Y-135483599D01*
X83801037Y-135379564D01*
X83765773Y-135318486D01*
X83748218Y-135288079D01*
X83748217Y-135288078D01*
X83748216Y-135288076D01*
X83667291Y-135220172D01*
X83568020Y-135184040D01*
X83462380Y-135184040D01*
X83363110Y-135220172D01*
X83363109Y-135220172D01*
X83363108Y-135220173D01*
X83282185Y-135288074D01*
X83282181Y-135288078D01*
X83229364Y-135379561D01*
X83229362Y-135379566D01*
X83211019Y-135483599D01*
X82092182Y-135483599D01*
X82073838Y-135379564D01*
X82038574Y-135318486D01*
X82021019Y-135288079D01*
X82021018Y-135288078D01*
X82021017Y-135288076D01*
X81940092Y-135220172D01*
X81840821Y-135184040D01*
X81735181Y-135184040D01*
X81635911Y-135220172D01*
X81635910Y-135220172D01*
X81635909Y-135220173D01*
X81554986Y-135288074D01*
X81554982Y-135288078D01*
X81502165Y-135379561D01*
X81502163Y-135379566D01*
X81483820Y-135483599D01*
X81233546Y-135483599D01*
X81234181Y-135480000D01*
X81215837Y-135375964D01*
X81165095Y-135288077D01*
X81163018Y-135284479D01*
X81163017Y-135284478D01*
X81163016Y-135284476D01*
X81082091Y-135216572D01*
X80982820Y-135180440D01*
X80877180Y-135180440D01*
X80777910Y-135216572D01*
X80777909Y-135216572D01*
X80777908Y-135216573D01*
X80696985Y-135284474D01*
X80696981Y-135284478D01*
X80644164Y-135375961D01*
X80640453Y-135386159D01*
X80637015Y-135384907D01*
X80614617Y-135430074D01*
X80554661Y-135465950D01*
X80484827Y-135463716D01*
X80427287Y-135424082D01*
X80407026Y-135388327D01*
X80403837Y-135379566D01*
X80403837Y-135379564D01*
X80368573Y-135318486D01*
X80351018Y-135288079D01*
X80351017Y-135288078D01*
X80351016Y-135288076D01*
X80270091Y-135220172D01*
X80170820Y-135184040D01*
X80065180Y-135184040D01*
X79965910Y-135220172D01*
X79965909Y-135220172D01*
X79965908Y-135220173D01*
X79884985Y-135288074D01*
X79884981Y-135288078D01*
X79867426Y-135318486D01*
X79816859Y-135366702D01*
X79748252Y-135379925D01*
X79683387Y-135353957D01*
X79652652Y-135318486D01*
X79633018Y-135284479D01*
X79633017Y-135284478D01*
X79633016Y-135284476D01*
X79552091Y-135216572D01*
X79452820Y-135180440D01*
X79347180Y-135180440D01*
X79247910Y-135216572D01*
X79247909Y-135216572D01*
X79247908Y-135216573D01*
X79166985Y-135284474D01*
X79166981Y-135284478D01*
X79114164Y-135375961D01*
X79110453Y-135386159D01*
X79107015Y-135384907D01*
X79084617Y-135430074D01*
X79024661Y-135465950D01*
X78954827Y-135463716D01*
X78897287Y-135424082D01*
X78877026Y-135388327D01*
X78873837Y-135379566D01*
X78873837Y-135379564D01*
X78838573Y-135318486D01*
X78821018Y-135288079D01*
X78821017Y-135288078D01*
X78821016Y-135288076D01*
X78740091Y-135220172D01*
X78640820Y-135184040D01*
X78535180Y-135184040D01*
X78435910Y-135220172D01*
X78435909Y-135220172D01*
X78435908Y-135220173D01*
X78354985Y-135288074D01*
X78354981Y-135288079D01*
X78339585Y-135314745D01*
X78289017Y-135362960D01*
X78220409Y-135376181D01*
X78155545Y-135350212D01*
X78124813Y-135314744D01*
X78109416Y-135288076D01*
X78028491Y-135220172D01*
X77929220Y-135184040D01*
X77823580Y-135184040D01*
X77724310Y-135220172D01*
X77724309Y-135220172D01*
X77724308Y-135220173D01*
X77643385Y-135288074D01*
X77643381Y-135288078D01*
X77590564Y-135379561D01*
X77590562Y-135379566D01*
X77572219Y-135483599D01*
X76504181Y-135483599D01*
X76485837Y-135379564D01*
X76450573Y-135318486D01*
X76433018Y-135288079D01*
X76433017Y-135288078D01*
X76433016Y-135288076D01*
X76352091Y-135220172D01*
X76252820Y-135184040D01*
X76147180Y-135184040D01*
X76047910Y-135220172D01*
X76047909Y-135220172D01*
X76047908Y-135220173D01*
X75966985Y-135288074D01*
X75966981Y-135288078D01*
X75914164Y-135379561D01*
X75914162Y-135379566D01*
X75895819Y-135483599D01*
X74929381Y-135483599D01*
X74911037Y-135379564D01*
X74875773Y-135318486D01*
X74858218Y-135288079D01*
X74858217Y-135288078D01*
X74858216Y-135288076D01*
X74777291Y-135220172D01*
X74678020Y-135184040D01*
X74572380Y-135184040D01*
X74473110Y-135220172D01*
X74473109Y-135220172D01*
X74473108Y-135220173D01*
X74392185Y-135288074D01*
X74392181Y-135288078D01*
X74339364Y-135379561D01*
X74339362Y-135379566D01*
X74321019Y-135483599D01*
X73853546Y-135483599D01*
X73854181Y-135480000D01*
X73835837Y-135375964D01*
X73785095Y-135288077D01*
X73783018Y-135284479D01*
X73783017Y-135284478D01*
X73783016Y-135284476D01*
X73702091Y-135216572D01*
X73602820Y-135180440D01*
X73497180Y-135180440D01*
X73397910Y-135216572D01*
X73397909Y-135216572D01*
X73397908Y-135216573D01*
X73316985Y-135284474D01*
X73316981Y-135284478D01*
X73264164Y-135375961D01*
X73264162Y-135375966D01*
X73245819Y-135479999D01*
X69036900Y-135479999D01*
X69036900Y-132587999D01*
X80315419Y-132587999D01*
X80315419Y-132588000D01*
X80333762Y-132692033D01*
X80333764Y-132692038D01*
X80386581Y-132783520D01*
X80386582Y-132783521D01*
X80386584Y-132783524D01*
X80467509Y-132851428D01*
X80566780Y-132887560D01*
X80566782Y-132887560D01*
X80672418Y-132887560D01*
X80672420Y-132887560D01*
X80771691Y-132851428D01*
X80852616Y-132783524D01*
X80905437Y-132692036D01*
X80923781Y-132588000D01*
X80905437Y-132483964D01*
X80852616Y-132392476D01*
X80771691Y-132324572D01*
X80672420Y-132288440D01*
X80566780Y-132288440D01*
X80467510Y-132324572D01*
X80467509Y-132324572D01*
X80467508Y-132324573D01*
X80386585Y-132392474D01*
X80386581Y-132392478D01*
X80333764Y-132483961D01*
X80333762Y-132483966D01*
X80315419Y-132587999D01*
X69036900Y-132587999D01*
X69036900Y-104499999D01*
X69575819Y-104499999D01*
X69575819Y-104500000D01*
X69594162Y-104604033D01*
X69594164Y-104604038D01*
X69646981Y-104695520D01*
X69646983Y-104695523D01*
X69646984Y-104695524D01*
X69685706Y-104728015D01*
X69724408Y-104786185D01*
X69730000Y-104823004D01*
X69730000Y-130394106D01*
X69743463Y-130426608D01*
X69752836Y-130449236D01*
X70357128Y-131053528D01*
X70399324Y-131095724D01*
X70454455Y-131118560D01*
X70454457Y-131118560D01*
X70924214Y-131118560D01*
X70924216Y-131118560D01*
X70979347Y-131095724D01*
X71227164Y-130847907D01*
X71250000Y-130792776D01*
X71250000Y-130733102D01*
X71250000Y-130003004D01*
X71269685Y-129935965D01*
X71294292Y-129908016D01*
X71333016Y-129875524D01*
X71385837Y-129784036D01*
X71385838Y-129784029D01*
X71389547Y-129773841D01*
X71393113Y-129775139D01*
X71415273Y-129730417D01*
X71475216Y-129694521D01*
X71545051Y-129696732D01*
X71602605Y-129736346D01*
X71629605Y-129800788D01*
X71630370Y-129814544D01*
X71630370Y-131604620D01*
X71610685Y-131671659D01*
X71586075Y-131699610D01*
X71547385Y-131732073D01*
X71547381Y-131732078D01*
X71494564Y-131823561D01*
X71494562Y-131823566D01*
X71476219Y-131927599D01*
X71476219Y-131927600D01*
X71494562Y-132031633D01*
X71494564Y-132031638D01*
X71547381Y-132123120D01*
X71547382Y-132123121D01*
X71547384Y-132123124D01*
X71628309Y-132191028D01*
X71727580Y-132227160D01*
X71727582Y-132227160D01*
X71833218Y-132227160D01*
X71833220Y-132227160D01*
X71932491Y-132191028D01*
X72013416Y-132123124D01*
X72066237Y-132031636D01*
X72084581Y-131927600D01*
X72066237Y-131823564D01*
X72034452Y-131768511D01*
X72013418Y-131732079D01*
X72013413Y-131732073D01*
X71974724Y-131699609D01*
X71936022Y-131641437D01*
X71930430Y-131604620D01*
X71930430Y-128902044D01*
X71950115Y-128835005D01*
X71971231Y-128813508D01*
X71969948Y-128812225D01*
X71978583Y-128803589D01*
X71978585Y-128803589D01*
X72067618Y-128714554D01*
X72128938Y-128681072D01*
X72198630Y-128686056D01*
X72254564Y-128727927D01*
X72262684Y-128740238D01*
X72309381Y-128821120D01*
X72309382Y-128821121D01*
X72309384Y-128821124D01*
X72390309Y-128889028D01*
X72489580Y-128925160D01*
X72489582Y-128925160D01*
X72595218Y-128925160D01*
X72595220Y-128925160D01*
X72653562Y-128903924D01*
X72723287Y-128899493D01*
X72784343Y-128933463D01*
X72817341Y-128995050D01*
X72819970Y-129020447D01*
X72819970Y-131513410D01*
X72800285Y-131580449D01*
X72747481Y-131626204D01*
X72738382Y-131629931D01*
X72644309Y-131664171D01*
X72563385Y-131732074D01*
X72563381Y-131732078D01*
X72510564Y-131823561D01*
X72510562Y-131823566D01*
X72492219Y-131927599D01*
X72492219Y-131927600D01*
X72510562Y-132031633D01*
X72510564Y-132031638D01*
X72563381Y-132123120D01*
X72563382Y-132123121D01*
X72563384Y-132123124D01*
X72644309Y-132191028D01*
X72743580Y-132227160D01*
X72743582Y-132227160D01*
X72849218Y-132227160D01*
X72849220Y-132227160D01*
X72948491Y-132191028D01*
X73029416Y-132123124D01*
X73082237Y-132031636D01*
X73100581Y-131927600D01*
X73094884Y-131895293D01*
X73102439Y-131826309D01*
X73120030Y-131783843D01*
X73120030Y-128963306D01*
X73139715Y-128896267D01*
X73192519Y-128850512D01*
X73261677Y-128840568D01*
X73306901Y-128860793D01*
X73308512Y-128858003D01*
X73317906Y-128863425D01*
X73317909Y-128863428D01*
X73417180Y-128899560D01*
X73417182Y-128899560D01*
X73522818Y-128899560D01*
X73522820Y-128899560D01*
X73546761Y-128890845D01*
X73616488Y-128886415D01*
X73677544Y-128920385D01*
X73710541Y-128981971D01*
X73713170Y-129007368D01*
X73713170Y-131604620D01*
X73693485Y-131671659D01*
X73668875Y-131699610D01*
X73630185Y-131732073D01*
X73630181Y-131732078D01*
X73577364Y-131823561D01*
X73577362Y-131823566D01*
X73559019Y-131927599D01*
X73559019Y-131927600D01*
X73577362Y-132031633D01*
X73577364Y-132031638D01*
X73630181Y-132123120D01*
X73630182Y-132123121D01*
X73630184Y-132123124D01*
X73711109Y-132191028D01*
X73810380Y-132227160D01*
X73810382Y-132227160D01*
X73916018Y-132227160D01*
X73916020Y-132227160D01*
X74015291Y-132191028D01*
X74081895Y-132135140D01*
X74145902Y-132107128D01*
X74214894Y-132118167D01*
X74241303Y-132135139D01*
X74307909Y-132191028D01*
X74407180Y-132227160D01*
X74407182Y-132227160D01*
X74512818Y-132227160D01*
X74512820Y-132227160D01*
X74612091Y-132191028D01*
X74666094Y-132145713D01*
X74730102Y-132117701D01*
X74799094Y-132128740D01*
X74825505Y-132145713D01*
X74879509Y-132191028D01*
X74978780Y-132227160D01*
X74978782Y-132227160D01*
X75084418Y-132227160D01*
X75084420Y-132227160D01*
X75183691Y-132191028D01*
X75264616Y-132123124D01*
X75264618Y-132123120D01*
X75265506Y-132122063D01*
X75267314Y-132120859D01*
X75272926Y-132116151D01*
X75273450Y-132116776D01*
X75323676Y-132083358D01*
X75393537Y-132082247D01*
X75452908Y-132119082D01*
X75467884Y-132139763D01*
X75476984Y-132155524D01*
X75557909Y-132223428D01*
X75657180Y-132259560D01*
X75657182Y-132259560D01*
X75762818Y-132259560D01*
X75762820Y-132259560D01*
X75862091Y-132223428D01*
X75943016Y-132155524D01*
X75995837Y-132064036D01*
X76014181Y-131960000D01*
X76011592Y-131945317D01*
X76013568Y-131927599D01*
X76657819Y-131927599D01*
X76657819Y-131927600D01*
X76676162Y-132031633D01*
X76676164Y-132031638D01*
X76728981Y-132123120D01*
X76728982Y-132123121D01*
X76728984Y-132123124D01*
X76809909Y-132191028D01*
X76909180Y-132227160D01*
X76909182Y-132227160D01*
X77014818Y-132227160D01*
X77014820Y-132227160D01*
X77114091Y-132191028D01*
X77195016Y-132123124D01*
X77247837Y-132031636D01*
X77266181Y-131927600D01*
X77266181Y-131927599D01*
X77666949Y-131927599D01*
X77666949Y-131927600D01*
X77685292Y-132031633D01*
X77685294Y-132031638D01*
X77738111Y-132123120D01*
X77738112Y-132123121D01*
X77738114Y-132123124D01*
X77819039Y-132191028D01*
X77918310Y-132227160D01*
X77918312Y-132227160D01*
X78023948Y-132227160D01*
X78023950Y-132227160D01*
X78123221Y-132191028D01*
X78204146Y-132123124D01*
X78256967Y-132031636D01*
X78271495Y-131949242D01*
X78573979Y-131949242D01*
X78573979Y-131949243D01*
X78592322Y-132053276D01*
X78592324Y-132053281D01*
X78645141Y-132144763D01*
X78645142Y-132144764D01*
X78645144Y-132144767D01*
X78726069Y-132212671D01*
X78825340Y-132248803D01*
X78825342Y-132248803D01*
X78930978Y-132248803D01*
X78930980Y-132248803D01*
X79030251Y-132212671D01*
X79111176Y-132144767D01*
X79163997Y-132053279D01*
X79182341Y-131949243D01*
X79178525Y-131927599D01*
X79604219Y-131927599D01*
X79604219Y-131927600D01*
X79622562Y-132031633D01*
X79622564Y-132031638D01*
X79675381Y-132123120D01*
X79675382Y-132123121D01*
X79675384Y-132123124D01*
X79756309Y-132191028D01*
X79855580Y-132227160D01*
X79855582Y-132227160D01*
X79961218Y-132227160D01*
X79961220Y-132227160D01*
X80060491Y-132191028D01*
X80141416Y-132123124D01*
X80194237Y-132031636D01*
X80212581Y-131927600D01*
X80204110Y-131879556D01*
X81023862Y-131879556D01*
X81023862Y-131879557D01*
X81042205Y-131983590D01*
X81042207Y-131983595D01*
X81095024Y-132075077D01*
X81095025Y-132075078D01*
X81095027Y-132075081D01*
X81175952Y-132142985D01*
X81275223Y-132179117D01*
X81275225Y-132179117D01*
X81380861Y-132179117D01*
X81380863Y-132179117D01*
X81480134Y-132142985D01*
X81561059Y-132075081D01*
X81613880Y-131983593D01*
X81628232Y-131902199D01*
X82220419Y-131902199D01*
X82220419Y-131902200D01*
X82238762Y-132006233D01*
X82238764Y-132006238D01*
X82291581Y-132097720D01*
X82291582Y-132097721D01*
X82291584Y-132097724D01*
X82372509Y-132165628D01*
X82471780Y-132201760D01*
X82471782Y-132201760D01*
X82577418Y-132201760D01*
X82577420Y-132201760D01*
X82676691Y-132165628D01*
X82757616Y-132097724D01*
X82804121Y-132017174D01*
X82854688Y-131968959D01*
X82923295Y-131955736D01*
X82988160Y-131981704D01*
X83018464Y-132023554D01*
X83020739Y-132022241D01*
X83078981Y-132123120D01*
X83078986Y-132123126D01*
X83156551Y-132188211D01*
X83195253Y-132246382D01*
X83196361Y-132316243D01*
X83159524Y-132375613D01*
X83156550Y-132378190D01*
X83078985Y-132443273D01*
X83078981Y-132443278D01*
X83026164Y-132534761D01*
X83026162Y-132534766D01*
X83007819Y-132638799D01*
X83007819Y-132638800D01*
X83026162Y-132742833D01*
X83026164Y-132742838D01*
X83078981Y-132834320D01*
X83078982Y-132834321D01*
X83078984Y-132834324D01*
X83159909Y-132902228D01*
X83259180Y-132938360D01*
X83259182Y-132938360D01*
X83364818Y-132938360D01*
X83364820Y-132938360D01*
X83464091Y-132902228D01*
X83545016Y-132834324D01*
X83597837Y-132742836D01*
X83616181Y-132638800D01*
X83597837Y-132534764D01*
X83545016Y-132443276D01*
X83467446Y-132378187D01*
X83428746Y-132320018D01*
X83427638Y-132250157D01*
X83464475Y-132190787D01*
X83467406Y-132188245D01*
X83545016Y-132123124D01*
X83585613Y-132052807D01*
X83636180Y-132004592D01*
X83704787Y-131991369D01*
X83769652Y-132017337D01*
X83800386Y-132052807D01*
X83811255Y-132071632D01*
X83840981Y-132123120D01*
X83840982Y-132123121D01*
X83840984Y-132123124D01*
X83921909Y-132191028D01*
X84021180Y-132227160D01*
X84021182Y-132227160D01*
X84126818Y-132227160D01*
X84126820Y-132227160D01*
X84226091Y-132191028D01*
X84307016Y-132123124D01*
X84359837Y-132031636D01*
X84378181Y-131927600D01*
X84378181Y-131927599D01*
X84633419Y-131927599D01*
X84633419Y-131927600D01*
X84651762Y-132031633D01*
X84651764Y-132031638D01*
X84704581Y-132123120D01*
X84704582Y-132123121D01*
X84704584Y-132123124D01*
X84785509Y-132191028D01*
X84884780Y-132227160D01*
X84884782Y-132227160D01*
X84990418Y-132227160D01*
X84990420Y-132227160D01*
X85089691Y-132191028D01*
X85170616Y-132123124D01*
X85223437Y-132031636D01*
X85223438Y-132031629D01*
X85227147Y-132021441D01*
X85230666Y-132022722D01*
X85252904Y-131977846D01*
X85312849Y-131941951D01*
X85382684Y-131944162D01*
X85440236Y-131983778D01*
X85457923Y-132022507D01*
X85460853Y-132021441D01*
X85464564Y-132031638D01*
X85517381Y-132123120D01*
X85517382Y-132123121D01*
X85517384Y-132123124D01*
X85598309Y-132191028D01*
X85697580Y-132227160D01*
X85697582Y-132227160D01*
X85803218Y-132227160D01*
X85803220Y-132227160D01*
X85902491Y-132191028D01*
X85983416Y-132123124D01*
X86036237Y-132031636D01*
X86054581Y-131927600D01*
X86054581Y-131927599D01*
X86360619Y-131927599D01*
X86360619Y-131927600D01*
X86378962Y-132031633D01*
X86378964Y-132031638D01*
X86431781Y-132123120D01*
X86431782Y-132123121D01*
X86431784Y-132123124D01*
X86512709Y-132191028D01*
X86611980Y-132227160D01*
X86611982Y-132227160D01*
X86717618Y-132227160D01*
X86717620Y-132227160D01*
X86816891Y-132191028D01*
X86897816Y-132123124D01*
X86950637Y-132031636D01*
X86968981Y-131927600D01*
X86950637Y-131823564D01*
X86918852Y-131768511D01*
X86897818Y-131732079D01*
X86897817Y-131732078D01*
X86897816Y-131732076D01*
X86816891Y-131664172D01*
X86717620Y-131628040D01*
X86611980Y-131628040D01*
X86512710Y-131664172D01*
X86512709Y-131664172D01*
X86512708Y-131664173D01*
X86431785Y-131732074D01*
X86431781Y-131732078D01*
X86378964Y-131823561D01*
X86378962Y-131823566D01*
X86360619Y-131927599D01*
X86054581Y-131927599D01*
X86036237Y-131823564D01*
X86004452Y-131768511D01*
X85983418Y-131732079D01*
X85983417Y-131732078D01*
X85983416Y-131732076D01*
X85902491Y-131664172D01*
X85803220Y-131628040D01*
X85697580Y-131628040D01*
X85598310Y-131664172D01*
X85598309Y-131664172D01*
X85598308Y-131664173D01*
X85517385Y-131732074D01*
X85517381Y-131732078D01*
X85464564Y-131823561D01*
X85460853Y-131833759D01*
X85457334Y-131832478D01*
X85435088Y-131877362D01*
X85375140Y-131913251D01*
X85305306Y-131911033D01*
X85247756Y-131871412D01*
X85230073Y-131832693D01*
X85227147Y-131833759D01*
X85223437Y-131823566D01*
X85223437Y-131823564D01*
X85191652Y-131768511D01*
X85170618Y-131732079D01*
X85170617Y-131732078D01*
X85170616Y-131732076D01*
X85089691Y-131664172D01*
X84990420Y-131628040D01*
X84884780Y-131628040D01*
X84785510Y-131664172D01*
X84785509Y-131664172D01*
X84785508Y-131664173D01*
X84704585Y-131732074D01*
X84704581Y-131732078D01*
X84651764Y-131823561D01*
X84651762Y-131823566D01*
X84633419Y-131927599D01*
X84378181Y-131927599D01*
X84359837Y-131823564D01*
X84328052Y-131768511D01*
X84307018Y-131732079D01*
X84307017Y-131732078D01*
X84307016Y-131732076D01*
X84226091Y-131664172D01*
X84126820Y-131628040D01*
X84021180Y-131628040D01*
X83921910Y-131664172D01*
X83921909Y-131664172D01*
X83921908Y-131664173D01*
X83840985Y-131732074D01*
X83840983Y-131732076D01*
X83800386Y-131802392D01*
X83749818Y-131850607D01*
X83681211Y-131863829D01*
X83616347Y-131837861D01*
X83585612Y-131802390D01*
X83545019Y-131732081D01*
X83545018Y-131732080D01*
X83545016Y-131732076D01*
X83464091Y-131664172D01*
X83364820Y-131628040D01*
X83259180Y-131628040D01*
X83159910Y-131664172D01*
X83159909Y-131664172D01*
X83159908Y-131664173D01*
X83078985Y-131732074D01*
X83078983Y-131732076D01*
X83032478Y-131812625D01*
X82981910Y-131860840D01*
X82913303Y-131874062D01*
X82848439Y-131848094D01*
X82818137Y-131806244D01*
X82815861Y-131807559D01*
X82802167Y-131783841D01*
X82784778Y-131753721D01*
X82757618Y-131706679D01*
X82757617Y-131706678D01*
X82757616Y-131706676D01*
X82676691Y-131638772D01*
X82577420Y-131602640D01*
X82471780Y-131602640D01*
X82372510Y-131638772D01*
X82372509Y-131638772D01*
X82372508Y-131638773D01*
X82291585Y-131706674D01*
X82291581Y-131706678D01*
X82238764Y-131798161D01*
X82238762Y-131798166D01*
X82220419Y-131902199D01*
X81628232Y-131902199D01*
X81632224Y-131879557D01*
X81613880Y-131775521D01*
X81584365Y-131724400D01*
X81561061Y-131684036D01*
X81561060Y-131684035D01*
X81561059Y-131684033D01*
X81480134Y-131616129D01*
X81380863Y-131579997D01*
X81275223Y-131579997D01*
X81175953Y-131616129D01*
X81175952Y-131616129D01*
X81175951Y-131616130D01*
X81095028Y-131684031D01*
X81095024Y-131684035D01*
X81042207Y-131775518D01*
X81042205Y-131775523D01*
X81023862Y-131879556D01*
X80204110Y-131879556D01*
X80194237Y-131823564D01*
X80162452Y-131768511D01*
X80141418Y-131732079D01*
X80141417Y-131732078D01*
X80141416Y-131732076D01*
X80060491Y-131664172D01*
X79961220Y-131628040D01*
X79855580Y-131628040D01*
X79756310Y-131664172D01*
X79756309Y-131664172D01*
X79756308Y-131664173D01*
X79675385Y-131732074D01*
X79675381Y-131732078D01*
X79622564Y-131823561D01*
X79622562Y-131823566D01*
X79604219Y-131927599D01*
X79178525Y-131927599D01*
X79163997Y-131845207D01*
X79123765Y-131775523D01*
X79111178Y-131753722D01*
X79111177Y-131753721D01*
X79111176Y-131753719D01*
X79030251Y-131685815D01*
X78930980Y-131649683D01*
X78825340Y-131649683D01*
X78726070Y-131685815D01*
X78726069Y-131685815D01*
X78726068Y-131685816D01*
X78645145Y-131753717D01*
X78645141Y-131753721D01*
X78592324Y-131845204D01*
X78592322Y-131845209D01*
X78573979Y-131949242D01*
X78271495Y-131949242D01*
X78275311Y-131927600D01*
X78256967Y-131823564D01*
X78225182Y-131768511D01*
X78204148Y-131732079D01*
X78204147Y-131732078D01*
X78204146Y-131732076D01*
X78123221Y-131664172D01*
X78023950Y-131628040D01*
X77918310Y-131628040D01*
X77819040Y-131664172D01*
X77819039Y-131664172D01*
X77819038Y-131664173D01*
X77738115Y-131732074D01*
X77738111Y-131732078D01*
X77685294Y-131823561D01*
X77685292Y-131823566D01*
X77666949Y-131927599D01*
X77266181Y-131927599D01*
X77247837Y-131823564D01*
X77216052Y-131768511D01*
X77195018Y-131732079D01*
X77195017Y-131732078D01*
X77195016Y-131732076D01*
X77114091Y-131664172D01*
X77014820Y-131628040D01*
X76909180Y-131628040D01*
X76809910Y-131664172D01*
X76809909Y-131664172D01*
X76809908Y-131664173D01*
X76728985Y-131732074D01*
X76728981Y-131732078D01*
X76676164Y-131823561D01*
X76676162Y-131823566D01*
X76657819Y-131927599D01*
X76013568Y-131927599D01*
X76019336Y-131875878D01*
X76046024Y-131836106D01*
X76665731Y-131216399D01*
X87529019Y-131216399D01*
X87529019Y-131216400D01*
X87547362Y-131320433D01*
X87547364Y-131320438D01*
X87598149Y-131408400D01*
X87614622Y-131476300D01*
X87598149Y-131532400D01*
X87547364Y-131620361D01*
X87547362Y-131620366D01*
X87529019Y-131724399D01*
X87529019Y-131724400D01*
X87547362Y-131828433D01*
X87547364Y-131828438D01*
X87600181Y-131919920D01*
X87600182Y-131919921D01*
X87600184Y-131919924D01*
X87681109Y-131987828D01*
X87780380Y-132023960D01*
X87780382Y-132023960D01*
X87886018Y-132023960D01*
X87886020Y-132023960D01*
X87985291Y-131987828D01*
X88066216Y-131919924D01*
X88119037Y-131828436D01*
X88137381Y-131724400D01*
X88134255Y-131706674D01*
X88130263Y-131684031D01*
X88119037Y-131620364D01*
X88068251Y-131532400D01*
X88051778Y-131464500D01*
X88068251Y-131408400D01*
X88084648Y-131379998D01*
X88119037Y-131320436D01*
X88137381Y-131216400D01*
X88119037Y-131112364D01*
X88066216Y-131020876D01*
X87985291Y-130952972D01*
X87886020Y-130916840D01*
X87780380Y-130916840D01*
X87681110Y-130952972D01*
X87681109Y-130952972D01*
X87681108Y-130952973D01*
X87600185Y-131020874D01*
X87600181Y-131020878D01*
X87547364Y-131112361D01*
X87547362Y-131112366D01*
X87529019Y-131216399D01*
X76665731Y-131216399D01*
X79256532Y-128625599D01*
X80823419Y-128625599D01*
X80823419Y-128625600D01*
X80841762Y-128729633D01*
X80841764Y-128729638D01*
X80894581Y-128821120D01*
X80894582Y-128821121D01*
X80894584Y-128821124D01*
X80975509Y-128889028D01*
X81074780Y-128925160D01*
X81074782Y-128925160D01*
X81180418Y-128925160D01*
X81180420Y-128925160D01*
X81279691Y-128889028D01*
X81360616Y-128821124D01*
X81413437Y-128729636D01*
X81431781Y-128625600D01*
X81431781Y-128625599D01*
X82398219Y-128625599D01*
X82398219Y-128625600D01*
X82416562Y-128729633D01*
X82416564Y-128729638D01*
X82469381Y-128821120D01*
X82469382Y-128821121D01*
X82469384Y-128821124D01*
X82550309Y-128889028D01*
X82649580Y-128925160D01*
X82649582Y-128925160D01*
X82755218Y-128925160D01*
X82755220Y-128925160D01*
X82854491Y-128889028D01*
X82935416Y-128821124D01*
X82988237Y-128729636D01*
X83006581Y-128625600D01*
X83006581Y-128625599D01*
X84023819Y-128625599D01*
X84023819Y-128625600D01*
X84042162Y-128729633D01*
X84042164Y-128729638D01*
X84094981Y-128821120D01*
X84094982Y-128821121D01*
X84094984Y-128821124D01*
X84175909Y-128889028D01*
X84275180Y-128925160D01*
X84275182Y-128925160D01*
X84380818Y-128925160D01*
X84380820Y-128925160D01*
X84480091Y-128889028D01*
X84561016Y-128821124D01*
X84613837Y-128729636D01*
X84632181Y-128625600D01*
X84632181Y-128625599D01*
X85700219Y-128625599D01*
X85700219Y-128625600D01*
X85718562Y-128729633D01*
X85718564Y-128729638D01*
X85771381Y-128821120D01*
X85771382Y-128821121D01*
X85771384Y-128821124D01*
X85852309Y-128889028D01*
X85951580Y-128925160D01*
X85951582Y-128925160D01*
X86057218Y-128925160D01*
X86057220Y-128925160D01*
X86156491Y-128889028D01*
X86237416Y-128821124D01*
X86290237Y-128729636D01*
X86290238Y-128729629D01*
X86293947Y-128719441D01*
X86297466Y-128720722D01*
X86319704Y-128675846D01*
X86379649Y-128639951D01*
X86449484Y-128642162D01*
X86507036Y-128681778D01*
X86524723Y-128720507D01*
X86527653Y-128719441D01*
X86531364Y-128729638D01*
X86584181Y-128821120D01*
X86584182Y-128821121D01*
X86584184Y-128821124D01*
X86665109Y-128889028D01*
X86764380Y-128925160D01*
X86764382Y-128925160D01*
X86870018Y-128925160D01*
X86870020Y-128925160D01*
X86969291Y-128889028D01*
X87050216Y-128821124D01*
X87103037Y-128729636D01*
X87121381Y-128625600D01*
X87103037Y-128521564D01*
X87050216Y-128430076D01*
X86969291Y-128362172D01*
X86870020Y-128326040D01*
X86764380Y-128326040D01*
X86665110Y-128362172D01*
X86665109Y-128362172D01*
X86665108Y-128362173D01*
X86584185Y-128430074D01*
X86584181Y-128430078D01*
X86531364Y-128521561D01*
X86527653Y-128531759D01*
X86524134Y-128530478D01*
X86501888Y-128575362D01*
X86441940Y-128611251D01*
X86372106Y-128609033D01*
X86314556Y-128569412D01*
X86296873Y-128530693D01*
X86293947Y-128531759D01*
X86290237Y-128521566D01*
X86290237Y-128521564D01*
X86237416Y-128430076D01*
X86156491Y-128362172D01*
X86057220Y-128326040D01*
X85951580Y-128326040D01*
X85852310Y-128362172D01*
X85852309Y-128362172D01*
X85852308Y-128362173D01*
X85771385Y-128430074D01*
X85771381Y-128430078D01*
X85718564Y-128521561D01*
X85718562Y-128521566D01*
X85700219Y-128625599D01*
X84632181Y-128625599D01*
X84613837Y-128521564D01*
X84561016Y-128430076D01*
X84480091Y-128362172D01*
X84380820Y-128326040D01*
X84275180Y-128326040D01*
X84175910Y-128362172D01*
X84175909Y-128362172D01*
X84175908Y-128362173D01*
X84094985Y-128430074D01*
X84094981Y-128430078D01*
X84042164Y-128521561D01*
X84042162Y-128521566D01*
X84023819Y-128625599D01*
X83006581Y-128625599D01*
X82988237Y-128521564D01*
X82935416Y-128430076D01*
X82854491Y-128362172D01*
X82755220Y-128326040D01*
X82649580Y-128326040D01*
X82550310Y-128362172D01*
X82550309Y-128362172D01*
X82550308Y-128362173D01*
X82469385Y-128430074D01*
X82469381Y-128430078D01*
X82416564Y-128521561D01*
X82416562Y-128521566D01*
X82398219Y-128625599D01*
X81431781Y-128625599D01*
X81413437Y-128521564D01*
X81360616Y-128430076D01*
X81279691Y-128362172D01*
X81180420Y-128326040D01*
X81074780Y-128326040D01*
X80975510Y-128362172D01*
X80975509Y-128362172D01*
X80975508Y-128362173D01*
X80894585Y-128430074D01*
X80894581Y-128430078D01*
X80841764Y-128521561D01*
X80841762Y-128521566D01*
X80823419Y-128625599D01*
X79256532Y-128625599D01*
X81675724Y-126206408D01*
X81698560Y-126151277D01*
X81698560Y-126091603D01*
X81698560Y-119514934D01*
X81718245Y-119447895D01*
X81734879Y-119427253D01*
X83402132Y-117760000D01*
X87747164Y-113414968D01*
X87770000Y-113359837D01*
X87770000Y-113300163D01*
X87770000Y-104854613D01*
X87789685Y-104787574D01*
X87814297Y-104759622D01*
X87843013Y-104735527D01*
X87843014Y-104735525D01*
X87843016Y-104735524D01*
X87849980Y-104723463D01*
X87861769Y-104703043D01*
X87895837Y-104644036D01*
X87914181Y-104540000D01*
X87895837Y-104435964D01*
X87843016Y-104344476D01*
X87762091Y-104276572D01*
X87662820Y-104240440D01*
X87557180Y-104240440D01*
X87457910Y-104276572D01*
X87457909Y-104276572D01*
X87457908Y-104276573D01*
X87376985Y-104344474D01*
X87376981Y-104344478D01*
X87324164Y-104435961D01*
X87324162Y-104435966D01*
X87305819Y-104539999D01*
X87305819Y-104540000D01*
X87317109Y-104604033D01*
X87324163Y-104644036D01*
X87369780Y-104723047D01*
X87370437Y-104724184D01*
X87386910Y-104792084D01*
X87364058Y-104858111D01*
X87309136Y-104901301D01*
X87244857Y-104908842D01*
X87218604Y-104904948D01*
X86728300Y-105395252D01*
X86728300Y-105361512D01*
X86703201Y-105267842D01*
X86654713Y-105183859D01*
X86586141Y-105115287D01*
X86502158Y-105066799D01*
X86408488Y-105041700D01*
X86374747Y-105041700D01*
X86865049Y-104551395D01*
X86742727Y-104486013D01*
X86555111Y-104429100D01*
X86360000Y-104409884D01*
X86164888Y-104429100D01*
X85977267Y-104486014D01*
X85804370Y-104578430D01*
X85799302Y-104581817D01*
X85798194Y-104580159D01*
X85742300Y-104603880D01*
X85673436Y-104592071D01*
X85621888Y-104544905D01*
X85604023Y-104477358D01*
X85613415Y-104433262D01*
X85670464Y-104295535D01*
X85690941Y-104140000D01*
X85670464Y-103984465D01*
X85613416Y-103846741D01*
X85605948Y-103777272D01*
X85637223Y-103714793D01*
X85697312Y-103679141D01*
X85767137Y-103681635D01*
X85798715Y-103699060D01*
X85799302Y-103698183D01*
X85804370Y-103701569D01*
X85977267Y-103793985D01*
X86164888Y-103850899D01*
X86360000Y-103870115D01*
X86555111Y-103850899D01*
X86742730Y-103793985D01*
X86865050Y-103728603D01*
X86374747Y-103238300D01*
X86408488Y-103238300D01*
X86502158Y-103213201D01*
X86586141Y-103164713D01*
X86654713Y-103096141D01*
X86703201Y-103012158D01*
X86728300Y-102918488D01*
X86728300Y-102884747D01*
X87218603Y-103375050D01*
X87283985Y-103252730D01*
X87340899Y-103065111D01*
X87360115Y-102870000D01*
X87340899Y-102674888D01*
X87283985Y-102487267D01*
X87218604Y-102364948D01*
X86728300Y-102855252D01*
X86728300Y-102821512D01*
X86703201Y-102727842D01*
X86654713Y-102643859D01*
X86586141Y-102575287D01*
X86502158Y-102526799D01*
X86408488Y-102501700D01*
X86374747Y-102501700D01*
X86865049Y-102011395D01*
X86742727Y-101946013D01*
X86555111Y-101889100D01*
X86360000Y-101869884D01*
X86164888Y-101889100D01*
X85977270Y-101946014D01*
X85854949Y-102011394D01*
X85854949Y-102011395D01*
X86345254Y-102501700D01*
X86311512Y-102501700D01*
X86217842Y-102526799D01*
X86133859Y-102575287D01*
X86065287Y-102643859D01*
X86016799Y-102727842D01*
X85991700Y-102821512D01*
X85991700Y-102855253D01*
X85501395Y-102364949D01*
X85501394Y-102364949D01*
X85436014Y-102487270D01*
X85379100Y-102674888D01*
X85359884Y-102870000D01*
X85379100Y-103065111D01*
X85436014Y-103252732D01*
X85528430Y-103425629D01*
X85531817Y-103430698D01*
X85530154Y-103431808D01*
X85553877Y-103487674D01*
X85542082Y-103556541D01*
X85494926Y-103608098D01*
X85427383Y-103625976D01*
X85383258Y-103616582D01*
X85245538Y-103559537D01*
X85245536Y-103559536D01*
X85245535Y-103559536D01*
X85167767Y-103549297D01*
X85090001Y-103539059D01*
X85089999Y-103539059D01*
X84934465Y-103559536D01*
X84934461Y-103559537D01*
X84796741Y-103616582D01*
X84727272Y-103624051D01*
X84664793Y-103592775D01*
X84629141Y-103532686D01*
X84631635Y-103462861D01*
X84649063Y-103431286D01*
X84648183Y-103430698D01*
X84651569Y-103425629D01*
X84743985Y-103252732D01*
X84800899Y-103065111D01*
X84820115Y-102870000D01*
X84800899Y-102674888D01*
X84743985Y-102487267D01*
X84678604Y-102364948D01*
X84188300Y-102855252D01*
X84188300Y-102821512D01*
X84163201Y-102727842D01*
X84114713Y-102643859D01*
X84046141Y-102575287D01*
X83962158Y-102526799D01*
X83868488Y-102501700D01*
X83834747Y-102501700D01*
X84325049Y-102011395D01*
X84202727Y-101946013D01*
X84015111Y-101889100D01*
X83820000Y-101869884D01*
X83624888Y-101889100D01*
X83437270Y-101946014D01*
X83314949Y-102011394D01*
X83314949Y-102011395D01*
X83805254Y-102501700D01*
X83771512Y-102501700D01*
X83677842Y-102526799D01*
X83593859Y-102575287D01*
X83525287Y-102643859D01*
X83476799Y-102727842D01*
X83451700Y-102821512D01*
X83451700Y-102855254D01*
X82961395Y-102364949D01*
X82961394Y-102364949D01*
X82896014Y-102487270D01*
X82839100Y-102674888D01*
X82819884Y-102870000D01*
X82839100Y-103065111D01*
X82896013Y-103252727D01*
X82961395Y-103375049D01*
X83451700Y-102884745D01*
X83451700Y-102918488D01*
X83476799Y-103012158D01*
X83525287Y-103096141D01*
X83593859Y-103164713D01*
X83677842Y-103213201D01*
X83771512Y-103238300D01*
X83805252Y-103238300D01*
X83314948Y-103728604D01*
X83437267Y-103793985D01*
X83624888Y-103850899D01*
X83820000Y-103870115D01*
X84015111Y-103850899D01*
X84202732Y-103793985D01*
X84375629Y-103701569D01*
X84380698Y-103698183D01*
X84381811Y-103699849D01*
X84437643Y-103676125D01*
X84506513Y-103687904D01*
X84558082Y-103735047D01*
X84575977Y-103802586D01*
X84566582Y-103846741D01*
X84509537Y-103984461D01*
X84509536Y-103984464D01*
X84509536Y-103984465D01*
X84489059Y-104140000D01*
X84507039Y-104276572D01*
X84509536Y-104295534D01*
X84509537Y-104295538D01*
X84566582Y-104433258D01*
X84574051Y-104502727D01*
X84542776Y-104565206D01*
X84482687Y-104600858D01*
X84412861Y-104598364D01*
X84381284Y-104580939D01*
X84380698Y-104581817D01*
X84375629Y-104578430D01*
X84202732Y-104486014D01*
X84015111Y-104429100D01*
X83820000Y-104409884D01*
X83624888Y-104429100D01*
X83437270Y-104486014D01*
X83314949Y-104551394D01*
X83314949Y-104551395D01*
X83805253Y-105041700D01*
X83771512Y-105041700D01*
X83677842Y-105066799D01*
X83593859Y-105115287D01*
X83525287Y-105183859D01*
X83476799Y-105267842D01*
X83451700Y-105361512D01*
X83451700Y-105395254D01*
X82961395Y-104904949D01*
X82961394Y-104904949D01*
X82896014Y-105027270D01*
X82839100Y-105214888D01*
X82819884Y-105410000D01*
X82839100Y-105605111D01*
X82896013Y-105792727D01*
X82961395Y-105915049D01*
X83451700Y-105424745D01*
X83451700Y-105458488D01*
X83476799Y-105552158D01*
X83525287Y-105636141D01*
X83593859Y-105704713D01*
X83677842Y-105753201D01*
X83771512Y-105778300D01*
X83805253Y-105778300D01*
X83314948Y-106268604D01*
X83437267Y-106333985D01*
X83624888Y-106390899D01*
X83820000Y-106410115D01*
X84015111Y-106390899D01*
X84202730Y-106333985D01*
X84325050Y-106268603D01*
X83834748Y-105778300D01*
X83868488Y-105778300D01*
X83962158Y-105753201D01*
X84046141Y-105704713D01*
X84114713Y-105636141D01*
X84163201Y-105552158D01*
X84188300Y-105458488D01*
X84188300Y-105424746D01*
X84678603Y-105915049D01*
X84743985Y-105792730D01*
X84800899Y-105605111D01*
X84820115Y-105410000D01*
X84800899Y-105214888D01*
X84743985Y-105027267D01*
X84651569Y-104854370D01*
X84648183Y-104849302D01*
X84649845Y-104848191D01*
X84626122Y-104792331D01*
X84637915Y-104723463D01*
X84685068Y-104671904D01*
X84752611Y-104654023D01*
X84796738Y-104663416D01*
X84934465Y-104720464D01*
X85071904Y-104738558D01*
X85089999Y-104740941D01*
X85090000Y-104740941D01*
X85090001Y-104740941D01*
X85106209Y-104738806D01*
X85245535Y-104720464D01*
X85383260Y-104663416D01*
X85452726Y-104655948D01*
X85515206Y-104687223D01*
X85550858Y-104747312D01*
X85548364Y-104817137D01*
X85530942Y-104848717D01*
X85531817Y-104849302D01*
X85528430Y-104854370D01*
X85436014Y-105027267D01*
X85379100Y-105214888D01*
X85359884Y-105410000D01*
X85379100Y-105605111D01*
X85436013Y-105792727D01*
X85501395Y-105915049D01*
X85991700Y-105424745D01*
X85991700Y-105458488D01*
X86016799Y-105552158D01*
X86065287Y-105636141D01*
X86133859Y-105704713D01*
X86217842Y-105753201D01*
X86311512Y-105778300D01*
X86345253Y-105778300D01*
X85854948Y-106268604D01*
X85977267Y-106333985D01*
X86164888Y-106390899D01*
X86360000Y-106410115D01*
X86555111Y-106390899D01*
X86742730Y-106333985D01*
X86865050Y-106268603D01*
X86374748Y-105778300D01*
X86408488Y-105778300D01*
X86502158Y-105753201D01*
X86586141Y-105704713D01*
X86654713Y-105636141D01*
X86703201Y-105552158D01*
X86728300Y-105458488D01*
X86728300Y-105424747D01*
X87218603Y-105915050D01*
X87218604Y-105915050D01*
X87236642Y-105881304D01*
X87285604Y-105831459D01*
X87353742Y-105815999D01*
X87419422Y-105839831D01*
X87461790Y-105895388D01*
X87470000Y-105939757D01*
X87470000Y-109960241D01*
X87450315Y-110027280D01*
X87397511Y-110073035D01*
X87328353Y-110082979D01*
X87264797Y-110053954D01*
X87236642Y-110018695D01*
X87218604Y-109984948D01*
X86728300Y-110475252D01*
X86728300Y-110441512D01*
X86703201Y-110347842D01*
X86654713Y-110263859D01*
X86586141Y-110195287D01*
X86502158Y-110146799D01*
X86408488Y-110121700D01*
X86374747Y-110121700D01*
X86865049Y-109631395D01*
X86742727Y-109566013D01*
X86555111Y-109509100D01*
X86360000Y-109489884D01*
X86164888Y-109509100D01*
X85977270Y-109566014D01*
X85854949Y-109631394D01*
X85854949Y-109631395D01*
X86345254Y-110121700D01*
X86311512Y-110121700D01*
X86217842Y-110146799D01*
X86133859Y-110195287D01*
X86065287Y-110263859D01*
X86016799Y-110347842D01*
X85991700Y-110441512D01*
X85991700Y-110475253D01*
X85501395Y-109984949D01*
X85501394Y-109984949D01*
X85436014Y-110107270D01*
X85379100Y-110294888D01*
X85359884Y-110490000D01*
X85379100Y-110685111D01*
X85436014Y-110872732D01*
X85528430Y-111045629D01*
X85531817Y-111050698D01*
X85530154Y-111051808D01*
X85553877Y-111107674D01*
X85542082Y-111176541D01*
X85494926Y-111228098D01*
X85427383Y-111245976D01*
X85383258Y-111236582D01*
X85245538Y-111179537D01*
X85245536Y-111179536D01*
X85245535Y-111179536D01*
X85167767Y-111169297D01*
X85090001Y-111159059D01*
X85089999Y-111159059D01*
X84934465Y-111179536D01*
X84934461Y-111179537D01*
X84796741Y-111236582D01*
X84727272Y-111244051D01*
X84664793Y-111212775D01*
X84629141Y-111152686D01*
X84631635Y-111082861D01*
X84649063Y-111051286D01*
X84648183Y-111050698D01*
X84651569Y-111045629D01*
X84743985Y-110872732D01*
X84800899Y-110685111D01*
X84820115Y-110490000D01*
X84800899Y-110294888D01*
X84743985Y-110107267D01*
X84678604Y-109984948D01*
X84188300Y-110475252D01*
X84188300Y-110441512D01*
X84163201Y-110347842D01*
X84114713Y-110263859D01*
X84046141Y-110195287D01*
X83962158Y-110146799D01*
X83868488Y-110121700D01*
X83834747Y-110121700D01*
X84325049Y-109631395D01*
X84202727Y-109566013D01*
X84015111Y-109509100D01*
X83820000Y-109489884D01*
X83624888Y-109509100D01*
X83437270Y-109566014D01*
X83314949Y-109631394D01*
X83314949Y-109631395D01*
X83805254Y-110121700D01*
X83771512Y-110121700D01*
X83677842Y-110146799D01*
X83593859Y-110195287D01*
X83525287Y-110263859D01*
X83476799Y-110347842D01*
X83451700Y-110441512D01*
X83451700Y-110475254D01*
X82961395Y-109984949D01*
X82961394Y-109984949D01*
X82896014Y-110107270D01*
X82839100Y-110294888D01*
X82819884Y-110490000D01*
X82839100Y-110685111D01*
X82896013Y-110872727D01*
X82961395Y-110995049D01*
X83451700Y-110504745D01*
X83451700Y-110538488D01*
X83476799Y-110632158D01*
X83525287Y-110716141D01*
X83593859Y-110784713D01*
X83677842Y-110833201D01*
X83771512Y-110858300D01*
X83805252Y-110858300D01*
X83314948Y-111348604D01*
X83437267Y-111413985D01*
X83624888Y-111470899D01*
X83820000Y-111490115D01*
X84015111Y-111470899D01*
X84202732Y-111413985D01*
X84375629Y-111321569D01*
X84380698Y-111318183D01*
X84381811Y-111319849D01*
X84437643Y-111296125D01*
X84506513Y-111307904D01*
X84558082Y-111355047D01*
X84575977Y-111422586D01*
X84566582Y-111466741D01*
X84509537Y-111604461D01*
X84509536Y-111604465D01*
X84489059Y-111759999D01*
X84489059Y-111760000D01*
X84509536Y-111915534D01*
X84509537Y-111915538D01*
X84566582Y-112053258D01*
X84574051Y-112122727D01*
X84542776Y-112185206D01*
X84482687Y-112220858D01*
X84412861Y-112218364D01*
X84381284Y-112200939D01*
X84380698Y-112201817D01*
X84375629Y-112198430D01*
X84202732Y-112106014D01*
X84015111Y-112049100D01*
X83820000Y-112029884D01*
X83624888Y-112049100D01*
X83437270Y-112106014D01*
X83314949Y-112171394D01*
X83314949Y-112171395D01*
X83805253Y-112661700D01*
X83771512Y-112661700D01*
X83677842Y-112686799D01*
X83593859Y-112735287D01*
X83525287Y-112803859D01*
X83476799Y-112887842D01*
X83451700Y-112981512D01*
X83451700Y-113015254D01*
X82961395Y-112524949D01*
X82961394Y-112524949D01*
X82896014Y-112647270D01*
X82839100Y-112834888D01*
X82819884Y-113030000D01*
X82839100Y-113225111D01*
X82896013Y-113412727D01*
X82961395Y-113535049D01*
X83451700Y-113044745D01*
X83451700Y-113078488D01*
X83476799Y-113172158D01*
X83525287Y-113256141D01*
X83593859Y-113324713D01*
X83677842Y-113373201D01*
X83771512Y-113398300D01*
X83805253Y-113398300D01*
X83314948Y-113888604D01*
X83437267Y-113953985D01*
X83624888Y-114010899D01*
X83820000Y-114030115D01*
X84015111Y-114010899D01*
X84202730Y-113953985D01*
X84325050Y-113888603D01*
X83834748Y-113398300D01*
X83868488Y-113398300D01*
X83962158Y-113373201D01*
X84046141Y-113324713D01*
X84114713Y-113256141D01*
X84163201Y-113172158D01*
X84188300Y-113078488D01*
X84188300Y-113044746D01*
X84678603Y-113535049D01*
X84743985Y-113412730D01*
X84800899Y-113225111D01*
X84820115Y-113030000D01*
X84800899Y-112834888D01*
X84743985Y-112647267D01*
X84651569Y-112474370D01*
X84648183Y-112469302D01*
X84649845Y-112468191D01*
X84626122Y-112412331D01*
X84637915Y-112343463D01*
X84685068Y-112291904D01*
X84752611Y-112274023D01*
X84796738Y-112283416D01*
X84934465Y-112340464D01*
X85071904Y-112358558D01*
X85089999Y-112360941D01*
X85090000Y-112360941D01*
X85090001Y-112360941D01*
X85106209Y-112358806D01*
X85245535Y-112340464D01*
X85383260Y-112283416D01*
X85452726Y-112275948D01*
X85515206Y-112307223D01*
X85550858Y-112367312D01*
X85548364Y-112437137D01*
X85530942Y-112468717D01*
X85531817Y-112469302D01*
X85528430Y-112474370D01*
X85436014Y-112647267D01*
X85379100Y-112834888D01*
X85359884Y-113030000D01*
X85379100Y-113225111D01*
X85436013Y-113412727D01*
X85501395Y-113535049D01*
X85991700Y-113044745D01*
X85991700Y-113078488D01*
X86016799Y-113172158D01*
X86065287Y-113256141D01*
X86133859Y-113324713D01*
X86217842Y-113373201D01*
X86311512Y-113398300D01*
X86345252Y-113398300D01*
X85854948Y-113888604D01*
X85977267Y-113953985D01*
X86164888Y-114010899D01*
X86359997Y-114030115D01*
X86400853Y-114026091D01*
X86469500Y-114039109D01*
X86520211Y-114087173D01*
X86536887Y-114155023D01*
X86514232Y-114221118D01*
X86500691Y-114237175D01*
X81463592Y-119274276D01*
X81421397Y-119316470D01*
X81421396Y-119316471D01*
X81398560Y-119371601D01*
X81398560Y-121668360D01*
X81378875Y-121735399D01*
X81326071Y-121781154D01*
X81263669Y-121790126D01*
X81263669Y-121790440D01*
X81261489Y-121790440D01*
X81256913Y-121791098D01*
X81253032Y-121790477D01*
X81252822Y-121790440D01*
X81252820Y-121790440D01*
X81147180Y-121790440D01*
X81047910Y-121826572D01*
X81047909Y-121826572D01*
X81047908Y-121826573D01*
X80966985Y-121894474D01*
X80966981Y-121894478D01*
X80914164Y-121985961D01*
X80914162Y-121985966D01*
X80895819Y-122089999D01*
X80895819Y-122090000D01*
X80914162Y-122194033D01*
X80914164Y-122194038D01*
X80966981Y-122285520D01*
X80966983Y-122285523D01*
X80966984Y-122285524D01*
X81005706Y-122318015D01*
X81044408Y-122376185D01*
X81050000Y-122413004D01*
X81050000Y-123576505D01*
X81030315Y-123643544D01*
X81013681Y-123664186D01*
X76413746Y-128264121D01*
X76352423Y-128297606D01*
X76326065Y-128300440D01*
X76237180Y-128300440D01*
X76137910Y-128336572D01*
X76137909Y-128336572D01*
X76137908Y-128336573D01*
X76056985Y-128404474D01*
X76056981Y-128404478D01*
X76004164Y-128495961D01*
X76004162Y-128495966D01*
X75985819Y-128599999D01*
X75985819Y-128600000D01*
X76004162Y-128704033D01*
X76004164Y-128704038D01*
X76056981Y-128795520D01*
X76056982Y-128795521D01*
X76056984Y-128795524D01*
X76137909Y-128863428D01*
X76237180Y-128899560D01*
X76237182Y-128899560D01*
X76342818Y-128899560D01*
X76342820Y-128899560D01*
X76442091Y-128863428D01*
X76523016Y-128795524D01*
X76575837Y-128704036D01*
X76594181Y-128600000D01*
X76591592Y-128585317D01*
X76599336Y-128515878D01*
X76626024Y-128476106D01*
X81186881Y-123915250D01*
X81248202Y-123881767D01*
X81317894Y-123886751D01*
X81373827Y-123928623D01*
X81398244Y-123994087D01*
X81398560Y-124002933D01*
X81398560Y-126007945D01*
X81378875Y-126074984D01*
X81362241Y-126095626D01*
X75833746Y-131624121D01*
X75772423Y-131657606D01*
X75746065Y-131660440D01*
X75657180Y-131660440D01*
X75557910Y-131696572D01*
X75557909Y-131696572D01*
X75557908Y-131696573D01*
X75476980Y-131764478D01*
X75476088Y-131765542D01*
X75474276Y-131766747D01*
X75468673Y-131771449D01*
X75468148Y-131770823D01*
X75417916Y-131804243D01*
X75348055Y-131805350D01*
X75288686Y-131768511D01*
X75273714Y-131747834D01*
X75264618Y-131732079D01*
X75264617Y-131732078D01*
X75264616Y-131732076D01*
X75183691Y-131664172D01*
X75093027Y-131631172D01*
X75036765Y-131589747D01*
X75011830Y-131524479D01*
X75011440Y-131514652D01*
X75011440Y-129021639D01*
X75031125Y-128954600D01*
X75083929Y-128908845D01*
X75146331Y-128899872D01*
X75146331Y-128899560D01*
X75148504Y-128899560D01*
X75153087Y-128898901D01*
X75156979Y-128899524D01*
X75157177Y-128899558D01*
X75157180Y-128899560D01*
X75157183Y-128899560D01*
X75262818Y-128899560D01*
X75262820Y-128899560D01*
X75362091Y-128863428D01*
X75443016Y-128795524D01*
X75495837Y-128704036D01*
X75514181Y-128600000D01*
X75511598Y-128585352D01*
X75519341Y-128515915D01*
X75546030Y-128476142D01*
X80215309Y-123806865D01*
X80228785Y-123774331D01*
X80238150Y-123751723D01*
X80238150Y-104195386D01*
X80257835Y-104128347D01*
X80274469Y-104107705D01*
X82473987Y-101908187D01*
X82473989Y-101908185D01*
X82496830Y-101853043D01*
X82496830Y-101793357D01*
X82496830Y-101413379D01*
X82516515Y-101346340D01*
X82541123Y-101318391D01*
X82579816Y-101285924D01*
X82632637Y-101194436D01*
X82650981Y-101090400D01*
X82632637Y-100986364D01*
X82579816Y-100894876D01*
X82498891Y-100826972D01*
X82399620Y-100790840D01*
X82293980Y-100790840D01*
X82194710Y-100826972D01*
X82194709Y-100826972D01*
X82194708Y-100826973D01*
X82113785Y-100894874D01*
X82113781Y-100894878D01*
X82098585Y-100921199D01*
X82048017Y-100969414D01*
X81979410Y-100982635D01*
X81914546Y-100956666D01*
X81883813Y-100921199D01*
X81868616Y-100894876D01*
X81787691Y-100826972D01*
X81688420Y-100790840D01*
X81582780Y-100790840D01*
X81483510Y-100826972D01*
X81483509Y-100826972D01*
X81483508Y-100826973D01*
X81402585Y-100894874D01*
X81402581Y-100894878D01*
X81349764Y-100986361D01*
X81346053Y-100996559D01*
X81342534Y-100995278D01*
X81320288Y-101040162D01*
X81260340Y-101076051D01*
X81190506Y-101073833D01*
X81132956Y-101034212D01*
X81115273Y-100995493D01*
X81112347Y-100996559D01*
X81108637Y-100986366D01*
X81108637Y-100986364D01*
X81055816Y-100894876D01*
X80974891Y-100826972D01*
X80875620Y-100790840D01*
X80769980Y-100790840D01*
X80670710Y-100826972D01*
X80670709Y-100826972D01*
X80670708Y-100826973D01*
X80589785Y-100894874D01*
X80589781Y-100894878D01*
X80536964Y-100986361D01*
X80533253Y-100996559D01*
X80529734Y-100995278D01*
X80507488Y-101040162D01*
X80447540Y-101076051D01*
X80377706Y-101073833D01*
X80320156Y-101034212D01*
X80302473Y-100995493D01*
X80299547Y-100996559D01*
X80295837Y-100986366D01*
X80295837Y-100986364D01*
X80243016Y-100894876D01*
X80162091Y-100826972D01*
X80062820Y-100790840D01*
X79957180Y-100790840D01*
X79857910Y-100826972D01*
X79857909Y-100826972D01*
X79857908Y-100826973D01*
X79776985Y-100894874D01*
X79776981Y-100894878D01*
X79724164Y-100986361D01*
X79720453Y-100996559D01*
X79716934Y-100995278D01*
X79694688Y-101040162D01*
X79634740Y-101076051D01*
X79564906Y-101073833D01*
X79507356Y-101034212D01*
X79489673Y-100995493D01*
X79486747Y-100996559D01*
X79483037Y-100986366D01*
X79483037Y-100986364D01*
X79430216Y-100894876D01*
X79349291Y-100826972D01*
X79250020Y-100790840D01*
X79144380Y-100790840D01*
X79045110Y-100826972D01*
X79045109Y-100826972D01*
X79045108Y-100826973D01*
X78964185Y-100894874D01*
X78964181Y-100894878D01*
X78911364Y-100986361D01*
X78907653Y-100996559D01*
X78904134Y-100995278D01*
X78881888Y-101040162D01*
X78821940Y-101076051D01*
X78752106Y-101073833D01*
X78694556Y-101034212D01*
X78676873Y-100995493D01*
X78673947Y-100996559D01*
X78670237Y-100986366D01*
X78670237Y-100986364D01*
X78617416Y-100894876D01*
X78536491Y-100826972D01*
X78437220Y-100790840D01*
X78331580Y-100790840D01*
X78232310Y-100826972D01*
X78232309Y-100826972D01*
X78232308Y-100826973D01*
X78151385Y-100894874D01*
X78151381Y-100894878D01*
X78098564Y-100986361D01*
X78094853Y-100996559D01*
X78091334Y-100995278D01*
X78069088Y-101040162D01*
X78009140Y-101076051D01*
X77939306Y-101073833D01*
X77881756Y-101034212D01*
X77864073Y-100995493D01*
X77861147Y-100996559D01*
X77857437Y-100986366D01*
X77857437Y-100986364D01*
X77804616Y-100894876D01*
X77723691Y-100826972D01*
X77624420Y-100790840D01*
X77518780Y-100790840D01*
X77419510Y-100826972D01*
X77419509Y-100826972D01*
X77419508Y-100826973D01*
X77338585Y-100894874D01*
X77338581Y-100894878D01*
X77285764Y-100986361D01*
X77282053Y-100996559D01*
X77278534Y-100995278D01*
X77256288Y-101040162D01*
X77196340Y-101076051D01*
X77126506Y-101073833D01*
X77068956Y-101034212D01*
X77051273Y-100995493D01*
X77048347Y-100996559D01*
X77044637Y-100986366D01*
X77044637Y-100986364D01*
X76991816Y-100894876D01*
X76910891Y-100826972D01*
X76811620Y-100790840D01*
X76705980Y-100790840D01*
X76606710Y-100826972D01*
X76606709Y-100826972D01*
X76606708Y-100826973D01*
X76525785Y-100894874D01*
X76525781Y-100894878D01*
X76472964Y-100986361D01*
X76469253Y-100996559D01*
X76465734Y-100995278D01*
X76443488Y-101040162D01*
X76383540Y-101076051D01*
X76313706Y-101073833D01*
X76256156Y-101034212D01*
X76238473Y-100995493D01*
X76235547Y-100996559D01*
X76231837Y-100986366D01*
X76231837Y-100986364D01*
X76179016Y-100894876D01*
X76098091Y-100826972D01*
X75998820Y-100790840D01*
X75893180Y-100790840D01*
X75793910Y-100826972D01*
X75793909Y-100826972D01*
X75793908Y-100826973D01*
X75712985Y-100894874D01*
X75712983Y-100894876D01*
X75672386Y-100965192D01*
X75621818Y-101013407D01*
X75553211Y-101026629D01*
X75488347Y-101000661D01*
X75457612Y-100965190D01*
X75417019Y-100894881D01*
X75417018Y-100894880D01*
X75417016Y-100894876D01*
X75336091Y-100826972D01*
X75236820Y-100790840D01*
X75131180Y-100790840D01*
X75031910Y-100826972D01*
X75031909Y-100826972D01*
X75031908Y-100826973D01*
X74950985Y-100894874D01*
X74950981Y-100894878D01*
X74898164Y-100986361D01*
X74898162Y-100986366D01*
X74879819Y-101090399D01*
X74879819Y-101090400D01*
X74898162Y-101194433D01*
X74898164Y-101194438D01*
X74950981Y-101285920D01*
X74950983Y-101285923D01*
X74950984Y-101285924D01*
X74989675Y-101318390D01*
X75028378Y-101376560D01*
X75033970Y-101413379D01*
X75033970Y-101713843D01*
X75056812Y-101768987D01*
X77793651Y-104505825D01*
X77827136Y-104567148D01*
X77829970Y-104593506D01*
X77829970Y-121596780D01*
X77810285Y-121663819D01*
X77793651Y-121684461D01*
X75915954Y-123562158D01*
X75873752Y-123604359D01*
X75850910Y-123659502D01*
X75850910Y-123892525D01*
X75831225Y-123959564D01*
X75814591Y-123980206D01*
X73950173Y-125844623D01*
X73888850Y-125878108D01*
X73819158Y-125873124D01*
X73763225Y-125831252D01*
X73738808Y-125765788D01*
X73738808Y-125748095D01*
X73745109Y-125660000D01*
X73745109Y-125659998D01*
X73724699Y-125374637D01*
X73663890Y-125095104D01*
X73563908Y-124827041D01*
X73426808Y-124575961D01*
X73426807Y-124575960D01*
X73320115Y-124433436D01*
X72638621Y-125114930D01*
X72555589Y-124990664D01*
X72409336Y-124844411D01*
X72285068Y-124761378D01*
X72966562Y-124079883D01*
X72966561Y-124079882D01*
X72837499Y-123983267D01*
X72795627Y-123927334D01*
X72790643Y-123857642D01*
X72824128Y-123796319D01*
X72885451Y-123762834D01*
X72911809Y-123760000D01*
X72914723Y-123760000D01*
X72914723Y-123759999D01*
X73261827Y-123719429D01*
X73261829Y-123719429D01*
X73601866Y-123638839D01*
X73601869Y-123638838D01*
X73930254Y-123519316D01*
X73930260Y-123519314D01*
X74242538Y-123362480D01*
X74534509Y-123170449D01*
X74534510Y-123170448D01*
X74677179Y-123050734D01*
X74677180Y-123050733D01*
X73966367Y-122339919D01*
X74061521Y-122266906D01*
X74246906Y-122081521D01*
X74319919Y-121986366D01*
X75033850Y-122700297D01*
X75033851Y-122700296D01*
X75042022Y-122691636D01*
X75042033Y-122691623D01*
X75250710Y-122411322D01*
X75425438Y-122108683D01*
X75425444Y-122108670D01*
X75563854Y-121787800D01*
X75664083Y-121453011D01*
X75664085Y-121453002D01*
X75724763Y-121108880D01*
X75724764Y-121108869D01*
X75745084Y-120760003D01*
X75745084Y-120759996D01*
X75724764Y-120411130D01*
X75724763Y-120411119D01*
X75664085Y-120066997D01*
X75664083Y-120066988D01*
X75563854Y-119732199D01*
X75425444Y-119411329D01*
X75425438Y-119411316D01*
X75250710Y-119108677D01*
X75042032Y-118828374D01*
X75033850Y-118819702D01*
X74319919Y-119533632D01*
X74246906Y-119438479D01*
X74061521Y-119253094D01*
X73966366Y-119180079D01*
X74677180Y-118469265D01*
X74677179Y-118469264D01*
X74534519Y-118349557D01*
X74242538Y-118157519D01*
X73930260Y-118000685D01*
X73930254Y-118000683D01*
X73601869Y-117881161D01*
X73601866Y-117881160D01*
X73261828Y-117800570D01*
X72914723Y-117760000D01*
X72565277Y-117760000D01*
X72218172Y-117800570D01*
X72218170Y-117800570D01*
X71878133Y-117881160D01*
X71878130Y-117881161D01*
X71549745Y-118000683D01*
X71549739Y-118000685D01*
X71237461Y-118157519D01*
X70945480Y-118349557D01*
X70802819Y-118469264D01*
X70802818Y-118469265D01*
X71513633Y-119180079D01*
X71418479Y-119253094D01*
X71233094Y-119438479D01*
X71160080Y-119533633D01*
X70446148Y-118819701D01*
X70446147Y-118819702D01*
X70437976Y-118828363D01*
X70437972Y-118828368D01*
X70253463Y-119076207D01*
X70197641Y-119118226D01*
X70127962Y-119123394D01*
X70066551Y-119090072D01*
X70032904Y-119028837D01*
X70030000Y-119002159D01*
X70030000Y-113597176D01*
X70049685Y-113530137D01*
X70102489Y-113484382D01*
X70171647Y-113474438D01*
X70235203Y-113503463D01*
X70260294Y-113534886D01*
X70261395Y-113535049D01*
X70751700Y-113044745D01*
X70751700Y-113078488D01*
X70776799Y-113172158D01*
X70825287Y-113256141D01*
X70893859Y-113324713D01*
X70977842Y-113373201D01*
X71071512Y-113398300D01*
X71105253Y-113398300D01*
X70614948Y-113888604D01*
X70737267Y-113953985D01*
X70924888Y-114010899D01*
X71120000Y-114030115D01*
X71315111Y-114010899D01*
X71502730Y-113953985D01*
X71625050Y-113888603D01*
X71134748Y-113398300D01*
X71168488Y-113398300D01*
X71262158Y-113373201D01*
X71346141Y-113324713D01*
X71414713Y-113256141D01*
X71463201Y-113172158D01*
X71488300Y-113078488D01*
X71488300Y-113044746D01*
X71978603Y-113535049D01*
X72043985Y-113412730D01*
X72100899Y-113225111D01*
X72120115Y-113030000D01*
X72100899Y-112834888D01*
X72043985Y-112647267D01*
X71951569Y-112474370D01*
X71948183Y-112469302D01*
X71949845Y-112468191D01*
X71926122Y-112412331D01*
X71937915Y-112343463D01*
X71985068Y-112291904D01*
X72052611Y-112274023D01*
X72096738Y-112283416D01*
X72234465Y-112340464D01*
X72371904Y-112358558D01*
X72389999Y-112360941D01*
X72390000Y-112360941D01*
X72390001Y-112360941D01*
X72406209Y-112358806D01*
X72545535Y-112340464D01*
X72683260Y-112283416D01*
X72752726Y-112275948D01*
X72815206Y-112307223D01*
X72850858Y-112367312D01*
X72848364Y-112437137D01*
X72830942Y-112468717D01*
X72831817Y-112469302D01*
X72828430Y-112474370D01*
X72736014Y-112647267D01*
X72679100Y-112834888D01*
X72659884Y-113030000D01*
X72679100Y-113225111D01*
X72736013Y-113412727D01*
X72801395Y-113535049D01*
X73291700Y-113044745D01*
X73291700Y-113078488D01*
X73316799Y-113172158D01*
X73365287Y-113256141D01*
X73433859Y-113324713D01*
X73517842Y-113373201D01*
X73611512Y-113398300D01*
X73645253Y-113398300D01*
X73154948Y-113888604D01*
X73277267Y-113953985D01*
X73464888Y-114010899D01*
X73660000Y-114030115D01*
X73855111Y-114010899D01*
X74042730Y-113953985D01*
X74165050Y-113888603D01*
X73674748Y-113398300D01*
X73708488Y-113398300D01*
X73802158Y-113373201D01*
X73886141Y-113324713D01*
X73954713Y-113256141D01*
X74003201Y-113172158D01*
X74028300Y-113078488D01*
X74028300Y-113044747D01*
X74518603Y-113535050D01*
X74583985Y-113412730D01*
X74640899Y-113225111D01*
X74660115Y-113030000D01*
X74640899Y-112834888D01*
X74583985Y-112647267D01*
X74518604Y-112524948D01*
X74028300Y-113015252D01*
X74028300Y-112981512D01*
X74003201Y-112887842D01*
X73954713Y-112803859D01*
X73886141Y-112735287D01*
X73802158Y-112686799D01*
X73708488Y-112661700D01*
X73674747Y-112661700D01*
X74165049Y-112171395D01*
X74042727Y-112106013D01*
X73855111Y-112049100D01*
X73660000Y-112029884D01*
X73464888Y-112049100D01*
X73277267Y-112106014D01*
X73104370Y-112198430D01*
X73099302Y-112201817D01*
X73098194Y-112200159D01*
X73042300Y-112223880D01*
X72973436Y-112212071D01*
X72921888Y-112164905D01*
X72904023Y-112097358D01*
X72913415Y-112053262D01*
X72970464Y-111915535D01*
X72990941Y-111760000D01*
X72970464Y-111604465D01*
X72913416Y-111466741D01*
X72905948Y-111397272D01*
X72937223Y-111334793D01*
X72997312Y-111299141D01*
X73067137Y-111301635D01*
X73098715Y-111319060D01*
X73099302Y-111318183D01*
X73104370Y-111321569D01*
X73277267Y-111413985D01*
X73464888Y-111470899D01*
X73660000Y-111490115D01*
X73855111Y-111470899D01*
X74042730Y-111413985D01*
X74165050Y-111348603D01*
X73674747Y-110858300D01*
X73708488Y-110858300D01*
X73802158Y-110833201D01*
X73886141Y-110784713D01*
X73954713Y-110716141D01*
X74003201Y-110632158D01*
X74028300Y-110538488D01*
X74028300Y-110504747D01*
X74518603Y-110995050D01*
X74583985Y-110872730D01*
X74640899Y-110685111D01*
X74660115Y-110490000D01*
X74640899Y-110294888D01*
X74583985Y-110107267D01*
X74518604Y-109984948D01*
X74028300Y-110475252D01*
X74028300Y-110441512D01*
X74003201Y-110347842D01*
X73954713Y-110263859D01*
X73886141Y-110195287D01*
X73802158Y-110146799D01*
X73708488Y-110121700D01*
X73674747Y-110121700D01*
X74165049Y-109631395D01*
X74042727Y-109566013D01*
X73855111Y-109509100D01*
X73660000Y-109489884D01*
X73464888Y-109509100D01*
X73277270Y-109566014D01*
X73154949Y-109631394D01*
X73154949Y-109631395D01*
X73645254Y-110121700D01*
X73611512Y-110121700D01*
X73517842Y-110146799D01*
X73433859Y-110195287D01*
X73365287Y-110263859D01*
X73316799Y-110347842D01*
X73291700Y-110441512D01*
X73291700Y-110475253D01*
X72801395Y-109984949D01*
X72801394Y-109984949D01*
X72736014Y-110107270D01*
X72679100Y-110294888D01*
X72659884Y-110490000D01*
X72679100Y-110685111D01*
X72736014Y-110872732D01*
X72828430Y-111045629D01*
X72831817Y-111050698D01*
X72830154Y-111051808D01*
X72853877Y-111107674D01*
X72842082Y-111176541D01*
X72794926Y-111228098D01*
X72727383Y-111245976D01*
X72683258Y-111236582D01*
X72545538Y-111179537D01*
X72545536Y-111179536D01*
X72545535Y-111179536D01*
X72467767Y-111169297D01*
X72390001Y-111159059D01*
X72389999Y-111159059D01*
X72234465Y-111179536D01*
X72234461Y-111179537D01*
X72096741Y-111236582D01*
X72027272Y-111244051D01*
X71964793Y-111212775D01*
X71929141Y-111152686D01*
X71931635Y-111082861D01*
X71949063Y-111051286D01*
X71948183Y-111050698D01*
X71951569Y-111045629D01*
X72043985Y-110872732D01*
X72100899Y-110685111D01*
X72120115Y-110490000D01*
X72100899Y-110294888D01*
X72043985Y-110107267D01*
X71978604Y-109984948D01*
X71488300Y-110475252D01*
X71488300Y-110441512D01*
X71463201Y-110347842D01*
X71414713Y-110263859D01*
X71346141Y-110195287D01*
X71262158Y-110146799D01*
X71168488Y-110121700D01*
X71134747Y-110121700D01*
X71625049Y-109631395D01*
X71502727Y-109566013D01*
X71315111Y-109509100D01*
X71120000Y-109489884D01*
X70924888Y-109509100D01*
X70737270Y-109566014D01*
X70614949Y-109631394D01*
X70614949Y-109631395D01*
X71105254Y-110121700D01*
X71071512Y-110121700D01*
X70977842Y-110146799D01*
X70893859Y-110195287D01*
X70825287Y-110263859D01*
X70776799Y-110347842D01*
X70751700Y-110441512D01*
X70751700Y-110475254D01*
X70261395Y-109984949D01*
X70259468Y-109985235D01*
X70214397Y-110031120D01*
X70146259Y-110046581D01*
X70080579Y-110022750D01*
X70038210Y-109967193D01*
X70030000Y-109922823D01*
X70030000Y-105977176D01*
X70049685Y-105910137D01*
X70102489Y-105864382D01*
X70171647Y-105854438D01*
X70235203Y-105883463D01*
X70260294Y-105914886D01*
X70261395Y-105915049D01*
X70751700Y-105424745D01*
X70751700Y-105458488D01*
X70776799Y-105552158D01*
X70825287Y-105636141D01*
X70893859Y-105704713D01*
X70977842Y-105753201D01*
X71071512Y-105778300D01*
X71105253Y-105778300D01*
X70614948Y-106268604D01*
X70737267Y-106333985D01*
X70924888Y-106390899D01*
X71120000Y-106410115D01*
X71315111Y-106390899D01*
X71502730Y-106333985D01*
X71625050Y-106268603D01*
X71134748Y-105778300D01*
X71168488Y-105778300D01*
X71262158Y-105753201D01*
X71346141Y-105704713D01*
X71414713Y-105636141D01*
X71463201Y-105552158D01*
X71488300Y-105458488D01*
X71488300Y-105424746D01*
X71978603Y-105915049D01*
X72043985Y-105792730D01*
X72100899Y-105605111D01*
X72120115Y-105410000D01*
X72100899Y-105214888D01*
X72043985Y-105027267D01*
X71951569Y-104854370D01*
X71948183Y-104849302D01*
X71949845Y-104848191D01*
X71926122Y-104792331D01*
X71937915Y-104723463D01*
X71985068Y-104671904D01*
X72052611Y-104654023D01*
X72096738Y-104663416D01*
X72234465Y-104720464D01*
X72371904Y-104738558D01*
X72389999Y-104740941D01*
X72390000Y-104740941D01*
X72390001Y-104740941D01*
X72406209Y-104738806D01*
X72545535Y-104720464D01*
X72683260Y-104663416D01*
X72752726Y-104655948D01*
X72815206Y-104687223D01*
X72850858Y-104747312D01*
X72848364Y-104817137D01*
X72830942Y-104848717D01*
X72831817Y-104849302D01*
X72828430Y-104854370D01*
X72736014Y-105027267D01*
X72679100Y-105214888D01*
X72659884Y-105410000D01*
X72679100Y-105605111D01*
X72736013Y-105792727D01*
X72801395Y-105915049D01*
X73291700Y-105424745D01*
X73291700Y-105458488D01*
X73316799Y-105552158D01*
X73365287Y-105636141D01*
X73433859Y-105704713D01*
X73517842Y-105753201D01*
X73611512Y-105778300D01*
X73645253Y-105778300D01*
X73154948Y-106268604D01*
X73277267Y-106333985D01*
X73464888Y-106390899D01*
X73660000Y-106410115D01*
X73855111Y-106390899D01*
X74042730Y-106333985D01*
X74165050Y-106268603D01*
X73674748Y-105778300D01*
X73708488Y-105778300D01*
X73802158Y-105753201D01*
X73886141Y-105704713D01*
X73954713Y-105636141D01*
X74003201Y-105552158D01*
X74028300Y-105458488D01*
X74028300Y-105424747D01*
X74518603Y-105915050D01*
X74583985Y-105792730D01*
X74640899Y-105605111D01*
X74660115Y-105410000D01*
X74640899Y-105214888D01*
X74583985Y-105027267D01*
X74518604Y-104904948D01*
X74028300Y-105395252D01*
X74028300Y-105361512D01*
X74003201Y-105267842D01*
X73954713Y-105183859D01*
X73886141Y-105115287D01*
X73802158Y-105066799D01*
X73708488Y-105041700D01*
X73674747Y-105041700D01*
X74165049Y-104551395D01*
X74042727Y-104486013D01*
X73855111Y-104429100D01*
X73660000Y-104409884D01*
X73464888Y-104429100D01*
X73277267Y-104486014D01*
X73104370Y-104578430D01*
X73099302Y-104581817D01*
X73098194Y-104580159D01*
X73042300Y-104603880D01*
X72973436Y-104592071D01*
X72921888Y-104544905D01*
X72904023Y-104477358D01*
X72913415Y-104433262D01*
X72970464Y-104295535D01*
X72990941Y-104140000D01*
X72970464Y-103984465D01*
X72913416Y-103846741D01*
X72905948Y-103777272D01*
X72937223Y-103714793D01*
X72997312Y-103679141D01*
X73067137Y-103681635D01*
X73098715Y-103699060D01*
X73099302Y-103698183D01*
X73104370Y-103701569D01*
X73277267Y-103793985D01*
X73464888Y-103850899D01*
X73660000Y-103870115D01*
X73855111Y-103850899D01*
X74042730Y-103793985D01*
X74165050Y-103728603D01*
X73674747Y-103238300D01*
X73708488Y-103238300D01*
X73802158Y-103213201D01*
X73886141Y-103164713D01*
X73954713Y-103096141D01*
X74003201Y-103012158D01*
X74028300Y-102918488D01*
X74028300Y-102884747D01*
X74518603Y-103375050D01*
X74583985Y-103252730D01*
X74640899Y-103065111D01*
X74660115Y-102870000D01*
X74640899Y-102674888D01*
X74583985Y-102487267D01*
X74518604Y-102364948D01*
X74028300Y-102855252D01*
X74028300Y-102821512D01*
X74003201Y-102727842D01*
X73954713Y-102643859D01*
X73886141Y-102575287D01*
X73802158Y-102526799D01*
X73708488Y-102501700D01*
X73674747Y-102501700D01*
X74165049Y-102011395D01*
X74042727Y-101946013D01*
X73855111Y-101889100D01*
X73660000Y-101869884D01*
X73464888Y-101889100D01*
X73277270Y-101946014D01*
X73154949Y-102011394D01*
X73154949Y-102011395D01*
X73645254Y-102501700D01*
X73611512Y-102501700D01*
X73517842Y-102526799D01*
X73433859Y-102575287D01*
X73365287Y-102643859D01*
X73316799Y-102727842D01*
X73291700Y-102821512D01*
X73291700Y-102855253D01*
X72801395Y-102364949D01*
X72801394Y-102364949D01*
X72736014Y-102487270D01*
X72679100Y-102674888D01*
X72659884Y-102870000D01*
X72679100Y-103065111D01*
X72736014Y-103252732D01*
X72828430Y-103425629D01*
X72831817Y-103430698D01*
X72830154Y-103431808D01*
X72853877Y-103487674D01*
X72842082Y-103556541D01*
X72794926Y-103608098D01*
X72727383Y-103625976D01*
X72683258Y-103616582D01*
X72545538Y-103559537D01*
X72545536Y-103559536D01*
X72545535Y-103559536D01*
X72467767Y-103549297D01*
X72390001Y-103539059D01*
X72389999Y-103539059D01*
X72234465Y-103559536D01*
X72234461Y-103559537D01*
X72096741Y-103616582D01*
X72027272Y-103624051D01*
X71964793Y-103592775D01*
X71929141Y-103532686D01*
X71931635Y-103462861D01*
X71949063Y-103431286D01*
X71948183Y-103430698D01*
X71951569Y-103425629D01*
X72043985Y-103252732D01*
X72100899Y-103065111D01*
X72120115Y-102870000D01*
X72100899Y-102674888D01*
X72043985Y-102487267D01*
X71978604Y-102364948D01*
X71488300Y-102855252D01*
X71488300Y-102821512D01*
X71463201Y-102727842D01*
X71414713Y-102643859D01*
X71346141Y-102575287D01*
X71262158Y-102526799D01*
X71168488Y-102501700D01*
X71134747Y-102501700D01*
X71625049Y-102011395D01*
X71502727Y-101946013D01*
X71315111Y-101889100D01*
X71120000Y-101869884D01*
X70924888Y-101889100D01*
X70737270Y-101946014D01*
X70614949Y-102011394D01*
X70614949Y-102011395D01*
X71105254Y-102501700D01*
X71071512Y-102501700D01*
X70977842Y-102526799D01*
X70893859Y-102575287D01*
X70825287Y-102643859D01*
X70776799Y-102727842D01*
X70751700Y-102821512D01*
X70751700Y-102855254D01*
X70261395Y-102364949D01*
X70261394Y-102364949D01*
X70196014Y-102487270D01*
X70139100Y-102674888D01*
X70119884Y-102870000D01*
X70139100Y-103065111D01*
X70196013Y-103252727D01*
X70261395Y-103375049D01*
X70751700Y-102884745D01*
X70751700Y-102918488D01*
X70776799Y-103012158D01*
X70825287Y-103096141D01*
X70893859Y-103164713D01*
X70977842Y-103213201D01*
X71071512Y-103238300D01*
X71105252Y-103238300D01*
X70614948Y-103728604D01*
X70737267Y-103793985D01*
X70924888Y-103850899D01*
X71120000Y-103870115D01*
X71315111Y-103850899D01*
X71502732Y-103793985D01*
X71675629Y-103701569D01*
X71680698Y-103698183D01*
X71681811Y-103699849D01*
X71737643Y-103676125D01*
X71806513Y-103687904D01*
X71858082Y-103735047D01*
X71875977Y-103802586D01*
X71866582Y-103846741D01*
X71809537Y-103984461D01*
X71809536Y-103984464D01*
X71809536Y-103984465D01*
X71789059Y-104140000D01*
X71807039Y-104276572D01*
X71809536Y-104295534D01*
X71809537Y-104295538D01*
X71866582Y-104433258D01*
X71874051Y-104502727D01*
X71842776Y-104565206D01*
X71782687Y-104600858D01*
X71712861Y-104598364D01*
X71681284Y-104580939D01*
X71680698Y-104581817D01*
X71675629Y-104578430D01*
X71502732Y-104486014D01*
X71315111Y-104429100D01*
X71120000Y-104409884D01*
X70924888Y-104429100D01*
X70737270Y-104486014D01*
X70614949Y-104551394D01*
X70614949Y-104551395D01*
X71105253Y-105041700D01*
X71071512Y-105041700D01*
X70977842Y-105066799D01*
X70893859Y-105115287D01*
X70825287Y-105183859D01*
X70776799Y-105267842D01*
X70751700Y-105361512D01*
X70751700Y-105395254D01*
X70261394Y-104904948D01*
X70211978Y-104912279D01*
X70142776Y-104902644D01*
X70089768Y-104857125D01*
X70069785Y-104790174D01*
X70089171Y-104723047D01*
X70106705Y-104703043D01*
X70113011Y-104695527D01*
X70113016Y-104695524D01*
X70165837Y-104604036D01*
X70184181Y-104500000D01*
X70165837Y-104395964D01*
X70113016Y-104304476D01*
X70032091Y-104236572D01*
X69932820Y-104200440D01*
X69827180Y-104200440D01*
X69727910Y-104236572D01*
X69727909Y-104236572D01*
X69727908Y-104236573D01*
X69646985Y-104304474D01*
X69646981Y-104304478D01*
X69594164Y-104395961D01*
X69594162Y-104395966D01*
X69575819Y-104499999D01*
X69036900Y-104499999D01*
X69036900Y-99599999D01*
X72584919Y-99599999D01*
X72584919Y-99600000D01*
X72603262Y-99704033D01*
X72603264Y-99704038D01*
X72656081Y-99795520D01*
X72656082Y-99795521D01*
X72656084Y-99795524D01*
X72737009Y-99863428D01*
X72836280Y-99899560D01*
X72836282Y-99899560D01*
X72941918Y-99899560D01*
X72941920Y-99899560D01*
X73041191Y-99863428D01*
X73122116Y-99795524D01*
X73174937Y-99704036D01*
X73193281Y-99600000D01*
X73193161Y-99599319D01*
X84440854Y-99599319D01*
X84440854Y-99599320D01*
X84459197Y-99703353D01*
X84459199Y-99703358D01*
X84512016Y-99794840D01*
X84512017Y-99794841D01*
X84512019Y-99794844D01*
X84592944Y-99862748D01*
X84692215Y-99898880D01*
X84692217Y-99898880D01*
X84797853Y-99898880D01*
X84797855Y-99898880D01*
X84897126Y-99862748D01*
X84978051Y-99794844D01*
X85030872Y-99703356D01*
X85049216Y-99599320D01*
X85030872Y-99495284D01*
X84992925Y-99429559D01*
X84978053Y-99403799D01*
X84978052Y-99403798D01*
X84978051Y-99403796D01*
X84897126Y-99335892D01*
X84797855Y-99299760D01*
X84692215Y-99299760D01*
X84592945Y-99335892D01*
X84592944Y-99335892D01*
X84592943Y-99335893D01*
X84512020Y-99403794D01*
X84512016Y-99403798D01*
X84459199Y-99495281D01*
X84459197Y-99495286D01*
X84440854Y-99599319D01*
X73193161Y-99599319D01*
X73174937Y-99495964D01*
X73122116Y-99404476D01*
X73041191Y-99336572D01*
X72941920Y-99300440D01*
X72836280Y-99300440D01*
X72737010Y-99336572D01*
X72737009Y-99336572D01*
X72737008Y-99336573D01*
X72656085Y-99404474D01*
X72656081Y-99404478D01*
X72603264Y-99495961D01*
X72603262Y-99495966D01*
X72584919Y-99599999D01*
X69036900Y-99599999D01*
X69036900Y-99129999D01*
X74022919Y-99129999D01*
X74022919Y-99130000D01*
X74041262Y-99234033D01*
X74041264Y-99234038D01*
X74094081Y-99325520D01*
X74094082Y-99325521D01*
X74094084Y-99325524D01*
X74175009Y-99393428D01*
X74274280Y-99429560D01*
X74274282Y-99429560D01*
X74379918Y-99429560D01*
X74379920Y-99429560D01*
X74479191Y-99393428D01*
X74560116Y-99325524D01*
X74612937Y-99234036D01*
X74631281Y-99130000D01*
X74624228Y-99089999D01*
X82956219Y-99089999D01*
X82956219Y-99090000D01*
X82974562Y-99194033D01*
X82974564Y-99194038D01*
X83027381Y-99285520D01*
X83027382Y-99285521D01*
X83027384Y-99285524D01*
X83108309Y-99353428D01*
X83207580Y-99389560D01*
X83207582Y-99389560D01*
X83313218Y-99389560D01*
X83313220Y-99389560D01*
X83412491Y-99353428D01*
X83493416Y-99285524D01*
X83546237Y-99194036D01*
X83564581Y-99090000D01*
X83546237Y-98985964D01*
X83493416Y-98894476D01*
X83412491Y-98826572D01*
X83313220Y-98790440D01*
X83207580Y-98790440D01*
X83108310Y-98826572D01*
X83108309Y-98826572D01*
X83108308Y-98826573D01*
X83027385Y-98894474D01*
X83027381Y-98894478D01*
X82974564Y-98985961D01*
X82974562Y-98985966D01*
X82956219Y-99089999D01*
X74624228Y-99089999D01*
X74612937Y-99025964D01*
X74568655Y-98949266D01*
X74560118Y-98934479D01*
X74560117Y-98934478D01*
X74560116Y-98934476D01*
X74479191Y-98866572D01*
X74379920Y-98830440D01*
X74274280Y-98830440D01*
X74175010Y-98866572D01*
X74175009Y-98866572D01*
X74175008Y-98866573D01*
X74094085Y-98934474D01*
X74094081Y-98934478D01*
X74041264Y-99025961D01*
X74041262Y-99025966D01*
X74022919Y-99129999D01*
X69036900Y-99129999D01*
X69036900Y-98679999D01*
X72575819Y-98679999D01*
X72575819Y-98680000D01*
X72594162Y-98784033D01*
X72594164Y-98784038D01*
X72646981Y-98875520D01*
X72646982Y-98875521D01*
X72646984Y-98875524D01*
X72727909Y-98943428D01*
X72827180Y-98979560D01*
X72827182Y-98979560D01*
X72932818Y-98979560D01*
X72932820Y-98979560D01*
X73032091Y-98943428D01*
X73113016Y-98875524D01*
X73165837Y-98784036D01*
X73183151Y-98685839D01*
X84463974Y-98685839D01*
X84463974Y-98685840D01*
X84482317Y-98789873D01*
X84482319Y-98789878D01*
X84535136Y-98881360D01*
X84535137Y-98881361D01*
X84535139Y-98881364D01*
X84616064Y-98949268D01*
X84715335Y-98985400D01*
X84715337Y-98985400D01*
X84820973Y-98985400D01*
X84820975Y-98985400D01*
X84920246Y-98949268D01*
X85001171Y-98881364D01*
X85053992Y-98789876D01*
X85072336Y-98685840D01*
X85053992Y-98581804D01*
X85001171Y-98490316D01*
X84920246Y-98422412D01*
X84820975Y-98386280D01*
X84715335Y-98386280D01*
X84616065Y-98422412D01*
X84616064Y-98422412D01*
X84616063Y-98422413D01*
X84535140Y-98490314D01*
X84535136Y-98490318D01*
X84482319Y-98581801D01*
X84482317Y-98581806D01*
X84463974Y-98685839D01*
X73183151Y-98685839D01*
X73184181Y-98680000D01*
X73165837Y-98575964D01*
X73139426Y-98530220D01*
X73113018Y-98484479D01*
X73113017Y-98484478D01*
X73113016Y-98484476D01*
X73032091Y-98416572D01*
X72932820Y-98380440D01*
X72932818Y-98380440D01*
X72929183Y-98379117D01*
X72877854Y-98341323D01*
X72848694Y-98370951D01*
X72830817Y-98379115D01*
X72727909Y-98416571D01*
X72646985Y-98484474D01*
X72646981Y-98484478D01*
X72594164Y-98575961D01*
X72594162Y-98575966D01*
X72575819Y-98679999D01*
X69036900Y-98679999D01*
X69036900Y-97845189D01*
X72575819Y-97845189D01*
X72575819Y-97845190D01*
X72594162Y-97949223D01*
X72594164Y-97949228D01*
X72646981Y-98040710D01*
X72646982Y-98040711D01*
X72646984Y-98040714D01*
X72654185Y-98046756D01*
X72727907Y-98108617D01*
X72727908Y-98108617D01*
X72727909Y-98108618D01*
X72827180Y-98144750D01*
X72827183Y-98144750D01*
X72830815Y-98146072D01*
X72882144Y-98183865D01*
X72911306Y-98154238D01*
X72929183Y-98146073D01*
X72932818Y-98144750D01*
X72932820Y-98144750D01*
X73032091Y-98108618D01*
X73113016Y-98040714D01*
X73165837Y-97949226D01*
X73184181Y-97845190D01*
X73165837Y-97741154D01*
X73113016Y-97649666D01*
X73032091Y-97581762D01*
X72932820Y-97545630D01*
X72827180Y-97545630D01*
X72727910Y-97581762D01*
X72727909Y-97581762D01*
X72727908Y-97581763D01*
X72646985Y-97649664D01*
X72646981Y-97649668D01*
X72594164Y-97741151D01*
X72594162Y-97741156D01*
X72575819Y-97845189D01*
X69036900Y-97845189D01*
X69036900Y-96922229D01*
X72573719Y-96922229D01*
X72573719Y-96922230D01*
X72592062Y-97026263D01*
X72592064Y-97026268D01*
X72644881Y-97117750D01*
X72644882Y-97117751D01*
X72644884Y-97117754D01*
X72725809Y-97185658D01*
X72825080Y-97221790D01*
X72825082Y-97221790D01*
X72930718Y-97221790D01*
X72930720Y-97221790D01*
X73029991Y-97185658D01*
X73110916Y-97117754D01*
X73163737Y-97026266D01*
X73182081Y-96922230D01*
X73179891Y-96909812D01*
X73171005Y-96859414D01*
X73163737Y-96818194D01*
X73132106Y-96763408D01*
X73110918Y-96726709D01*
X73110917Y-96726708D01*
X73110916Y-96726706D01*
X73029991Y-96658802D01*
X72930720Y-96622670D01*
X72930718Y-96622670D01*
X72927083Y-96621347D01*
X72875754Y-96583553D01*
X72846594Y-96613181D01*
X72828717Y-96621345D01*
X72725809Y-96658801D01*
X72644885Y-96726704D01*
X72644881Y-96726708D01*
X72592064Y-96818191D01*
X72592062Y-96818196D01*
X72573719Y-96922229D01*
X69036900Y-96922229D01*
X69036900Y-95325409D01*
X72573719Y-95325409D01*
X72573719Y-95325410D01*
X72592062Y-95429443D01*
X72592064Y-95429448D01*
X72644881Y-95520930D01*
X72644882Y-95520931D01*
X72644884Y-95520934D01*
X72725809Y-95588838D01*
X72728271Y-95589734D01*
X72728710Y-95589894D01*
X72732603Y-95592760D01*
X72735202Y-95594261D01*
X72735034Y-95594550D01*
X72784973Y-95631321D01*
X72809908Y-95696589D01*
X72795598Y-95764978D01*
X72746585Y-95814773D01*
X72728713Y-95822935D01*
X72725810Y-95823991D01*
X72725809Y-95823991D01*
X72644885Y-95891894D01*
X72644881Y-95891898D01*
X72592064Y-95983381D01*
X72592062Y-95983386D01*
X72573719Y-96087419D01*
X72573719Y-96087420D01*
X72592062Y-96191453D01*
X72592064Y-96191458D01*
X72644881Y-96282940D01*
X72644882Y-96282941D01*
X72644884Y-96282944D01*
X72670525Y-96304459D01*
X72725807Y-96350847D01*
X72725808Y-96350847D01*
X72725809Y-96350848D01*
X72825080Y-96386980D01*
X72825083Y-96386980D01*
X72828715Y-96388302D01*
X72880044Y-96426095D01*
X72909206Y-96396468D01*
X72927083Y-96388303D01*
X72930718Y-96386980D01*
X72930720Y-96386980D01*
X73029991Y-96350848D01*
X73110916Y-96282944D01*
X73163737Y-96191456D01*
X73182081Y-96087420D01*
X73163737Y-95983384D01*
X73117794Y-95903809D01*
X73110918Y-95891899D01*
X73110917Y-95891898D01*
X73110916Y-95891896D01*
X73029991Y-95823992D01*
X73029992Y-95823992D01*
X73027972Y-95823257D01*
X73027091Y-95822936D01*
X73023198Y-95820070D01*
X73020598Y-95818569D01*
X73020765Y-95818279D01*
X72970827Y-95781512D01*
X72945891Y-95716244D01*
X72949290Y-95699999D01*
X74024519Y-95699999D01*
X74024519Y-95700000D01*
X74042862Y-95804033D01*
X74042864Y-95804038D01*
X74095681Y-95895520D01*
X74095682Y-95895521D01*
X74095684Y-95895524D01*
X74105557Y-95903808D01*
X74176607Y-95963427D01*
X74176608Y-95963427D01*
X74176609Y-95963428D01*
X74249279Y-95989878D01*
X74305542Y-96031303D01*
X74330478Y-96096572D01*
X74316168Y-96164961D01*
X74267156Y-96214756D01*
X74249280Y-96222920D01*
X74176609Y-96249370D01*
X74095685Y-96317273D01*
X74095681Y-96317277D01*
X74042864Y-96408760D01*
X74042862Y-96408765D01*
X74024519Y-96512798D01*
X74024519Y-96512799D01*
X74042862Y-96616832D01*
X74042864Y-96616837D01*
X74095681Y-96708319D01*
X74095682Y-96708320D01*
X74095684Y-96708323D01*
X74117596Y-96726709D01*
X74176607Y-96776226D01*
X74176608Y-96776226D01*
X74176609Y-96776227D01*
X74252122Y-96803711D01*
X74308384Y-96845136D01*
X74333320Y-96910404D01*
X74319010Y-96978793D01*
X74269999Y-97028589D01*
X74252122Y-97036753D01*
X74182809Y-97061981D01*
X74101885Y-97129884D01*
X74101881Y-97129888D01*
X74049064Y-97221371D01*
X74049062Y-97221376D01*
X74030719Y-97325409D01*
X74030719Y-97325410D01*
X74049062Y-97429443D01*
X74049064Y-97429448D01*
X74101881Y-97520930D01*
X74101882Y-97520931D01*
X74101884Y-97520934D01*
X74131316Y-97545630D01*
X74182807Y-97588837D01*
X74182808Y-97588837D01*
X74182809Y-97588838D01*
X74255481Y-97615288D01*
X74311743Y-97656713D01*
X74336679Y-97721981D01*
X74322369Y-97790370D01*
X74273358Y-97840166D01*
X74255482Y-97848330D01*
X74182809Y-97874782D01*
X74101885Y-97942684D01*
X74101881Y-97942688D01*
X74049064Y-98034171D01*
X74049062Y-98034176D01*
X74030719Y-98138209D01*
X74030719Y-98138210D01*
X74049062Y-98242243D01*
X74049064Y-98242248D01*
X74101881Y-98333730D01*
X74101882Y-98333731D01*
X74101884Y-98333734D01*
X74182809Y-98401638D01*
X74282080Y-98437770D01*
X74282082Y-98437770D01*
X74387718Y-98437770D01*
X74387720Y-98437770D01*
X74486991Y-98401638D01*
X74567916Y-98333734D01*
X74620737Y-98242246D01*
X74636863Y-98150789D01*
X82956219Y-98150789D01*
X82956219Y-98150790D01*
X82974562Y-98254823D01*
X82974564Y-98254828D01*
X83027381Y-98346310D01*
X83027382Y-98346311D01*
X83027384Y-98346314D01*
X83108309Y-98414218D01*
X83207580Y-98450350D01*
X83207582Y-98450350D01*
X83313218Y-98450350D01*
X83313220Y-98450350D01*
X83412491Y-98414218D01*
X83493416Y-98346314D01*
X83546237Y-98254826D01*
X83564581Y-98150790D01*
X83546237Y-98046754D01*
X83501481Y-97969235D01*
X83493418Y-97955269D01*
X83493417Y-97955268D01*
X83493416Y-97955266D01*
X83412491Y-97887362D01*
X83313220Y-97851230D01*
X83207580Y-97851230D01*
X83108310Y-97887362D01*
X83108309Y-97887362D01*
X83108308Y-97887363D01*
X83027385Y-97955264D01*
X83027381Y-97955268D01*
X82974564Y-98046751D01*
X82974562Y-98046756D01*
X82956219Y-98150789D01*
X74636863Y-98150789D01*
X74639081Y-98138210D01*
X74620737Y-98034174D01*
X74567916Y-97942686D01*
X74537051Y-97916787D01*
X74486992Y-97874782D01*
X74461470Y-97865493D01*
X74414317Y-97848330D01*
X74358055Y-97806906D01*
X74345372Y-97773709D01*
X84463974Y-97773709D01*
X84463974Y-97773710D01*
X84482317Y-97877743D01*
X84482319Y-97877748D01*
X84535136Y-97969230D01*
X84535137Y-97969231D01*
X84535139Y-97969234D01*
X84616064Y-98037138D01*
X84715335Y-98073270D01*
X84715337Y-98073270D01*
X84820973Y-98073270D01*
X84820975Y-98073270D01*
X84920246Y-98037138D01*
X85001171Y-97969234D01*
X85053992Y-97877746D01*
X85072336Y-97773710D01*
X85053992Y-97669674D01*
X85007321Y-97588838D01*
X85001173Y-97578189D01*
X85001172Y-97578188D01*
X85001171Y-97578186D01*
X84920246Y-97510282D01*
X84820975Y-97474150D01*
X84715335Y-97474150D01*
X84616065Y-97510282D01*
X84616064Y-97510282D01*
X84616063Y-97510283D01*
X84535140Y-97578184D01*
X84535136Y-97578188D01*
X84482319Y-97669671D01*
X84482317Y-97669676D01*
X84463974Y-97773709D01*
X74345372Y-97773709D01*
X74333119Y-97741637D01*
X74347429Y-97673249D01*
X74396440Y-97623453D01*
X74414311Y-97615291D01*
X74486991Y-97588838D01*
X74567916Y-97520934D01*
X74620737Y-97429446D01*
X74639081Y-97325410D01*
X74620737Y-97221374D01*
X74567916Y-97129886D01*
X74486991Y-97061982D01*
X74411476Y-97034496D01*
X74355214Y-96993071D01*
X74330279Y-96927803D01*
X74344589Y-96859414D01*
X74393601Y-96809619D01*
X74411471Y-96801457D01*
X74480791Y-96776227D01*
X74561716Y-96708323D01*
X74614537Y-96616835D01*
X74632881Y-96512799D01*
X74630621Y-96499979D01*
X82956219Y-96499979D01*
X82956219Y-96499980D01*
X82974562Y-96604013D01*
X82974564Y-96604018D01*
X83027381Y-96695500D01*
X83027382Y-96695501D01*
X83027384Y-96695504D01*
X83108308Y-96763407D01*
X83108309Y-96763408D01*
X83163411Y-96783463D01*
X83219674Y-96824887D01*
X83244610Y-96890156D01*
X83230301Y-96958544D01*
X83181290Y-97008341D01*
X83163413Y-97016505D01*
X83108309Y-97036562D01*
X83027385Y-97104464D01*
X83027381Y-97104468D01*
X82974564Y-97195951D01*
X82974562Y-97195956D01*
X82956219Y-97299989D01*
X82956219Y-97299990D01*
X82974562Y-97404023D01*
X82974564Y-97404028D01*
X83027381Y-97495510D01*
X83027382Y-97495511D01*
X83027384Y-97495514D01*
X83108309Y-97563418D01*
X83207580Y-97599550D01*
X83207582Y-97599550D01*
X83313218Y-97599550D01*
X83313220Y-97599550D01*
X83412491Y-97563418D01*
X83493416Y-97495514D01*
X83546237Y-97404026D01*
X83564581Y-97299990D01*
X83546237Y-97195954D01*
X83508091Y-97129884D01*
X83493418Y-97104469D01*
X83493417Y-97104468D01*
X83493416Y-97104466D01*
X83442787Y-97061983D01*
X83412492Y-97036562D01*
X83392913Y-97029436D01*
X83357387Y-97016505D01*
X83301125Y-96975081D01*
X83276189Y-96909812D01*
X83290499Y-96841424D01*
X83339510Y-96791628D01*
X83357381Y-96783466D01*
X83412491Y-96763408D01*
X83493416Y-96695504D01*
X83546237Y-96604016D01*
X83564581Y-96499980D01*
X83546237Y-96395944D01*
X83493416Y-96304456D01*
X83458398Y-96275072D01*
X83412493Y-96236553D01*
X83407777Y-96233831D01*
X83359560Y-96183265D01*
X83346335Y-96114659D01*
X83352472Y-96099329D01*
X84440854Y-96099329D01*
X84440854Y-96099330D01*
X84459197Y-96203363D01*
X84459199Y-96203368D01*
X84512016Y-96294850D01*
X84512017Y-96294851D01*
X84512019Y-96294854D01*
X84538742Y-96317277D01*
X84592942Y-96362757D01*
X84592943Y-96362757D01*
X84592944Y-96362758D01*
X84665027Y-96388994D01*
X84721288Y-96430418D01*
X84746224Y-96495686D01*
X84731915Y-96564075D01*
X84682903Y-96613871D01*
X84665027Y-96622035D01*
X84592944Y-96648272D01*
X84512020Y-96716174D01*
X84512016Y-96716178D01*
X84459199Y-96807661D01*
X84459197Y-96807666D01*
X84440854Y-96911699D01*
X84440854Y-96911700D01*
X84459197Y-97015733D01*
X84459199Y-97015738D01*
X84512016Y-97107220D01*
X84512017Y-97107221D01*
X84512019Y-97107224D01*
X84592944Y-97175128D01*
X84692215Y-97211260D01*
X84692217Y-97211260D01*
X84797853Y-97211260D01*
X84797855Y-97211260D01*
X84897126Y-97175128D01*
X84978051Y-97107224D01*
X85030872Y-97015736D01*
X85049216Y-96911700D01*
X85048987Y-96910404D01*
X85032729Y-96818196D01*
X85030872Y-96807664D01*
X84984131Y-96726706D01*
X84978053Y-96716179D01*
X84978052Y-96716178D01*
X84978051Y-96716176D01*
X84947186Y-96690277D01*
X84897127Y-96648272D01*
X84868860Y-96637984D01*
X84825043Y-96622035D01*
X84768781Y-96580611D01*
X84743845Y-96515342D01*
X84758155Y-96446953D01*
X84807167Y-96397158D01*
X84825038Y-96388995D01*
X84897126Y-96362758D01*
X84978051Y-96294854D01*
X85030872Y-96203366D01*
X85049216Y-96099330D01*
X85030872Y-95995294D01*
X84978051Y-95903806D01*
X84897126Y-95835902D01*
X84861661Y-95822993D01*
X84805399Y-95781568D01*
X84780464Y-95716299D01*
X84794774Y-95647911D01*
X84843786Y-95598115D01*
X84861658Y-95589953D01*
X84902391Y-95575128D01*
X84983316Y-95507224D01*
X85036137Y-95415736D01*
X85054481Y-95311700D01*
X85036137Y-95207664D01*
X84991232Y-95129886D01*
X84983318Y-95116179D01*
X84983317Y-95116178D01*
X84983316Y-95116176D01*
X84902391Y-95048272D01*
X84803120Y-95012140D01*
X84697480Y-95012140D01*
X84598210Y-95048272D01*
X84598209Y-95048272D01*
X84598208Y-95048273D01*
X84517285Y-95116174D01*
X84517281Y-95116178D01*
X84464464Y-95207661D01*
X84464462Y-95207666D01*
X84446119Y-95311699D01*
X84446119Y-95311700D01*
X84464462Y-95415733D01*
X84464464Y-95415738D01*
X84517281Y-95507220D01*
X84517282Y-95507221D01*
X84517284Y-95507224D01*
X84557746Y-95541176D01*
X84598207Y-95575127D01*
X84598208Y-95575127D01*
X84598209Y-95575128D01*
X84633672Y-95588035D01*
X84689934Y-95629460D01*
X84714870Y-95694728D01*
X84700561Y-95763117D01*
X84651549Y-95812913D01*
X84633674Y-95821077D01*
X84592943Y-95835902D01*
X84512020Y-95903804D01*
X84512016Y-95903808D01*
X84459199Y-95995291D01*
X84459197Y-95995296D01*
X84440854Y-96099329D01*
X83352472Y-96099329D01*
X83372301Y-96049793D01*
X83410344Y-96022273D01*
X83408363Y-96018841D01*
X83417751Y-96013419D01*
X83417756Y-96013418D01*
X83498681Y-95945514D01*
X83551502Y-95854026D01*
X83569846Y-95749990D01*
X83551502Y-95645954D01*
X83498681Y-95554466D01*
X83417756Y-95486562D01*
X83318485Y-95450430D01*
X83212845Y-95450430D01*
X83113575Y-95486562D01*
X83113574Y-95486562D01*
X83113573Y-95486563D01*
X83032650Y-95554464D01*
X83032646Y-95554468D01*
X82979829Y-95645951D01*
X82979827Y-95645956D01*
X82961484Y-95749989D01*
X82961484Y-95749990D01*
X82979827Y-95854023D01*
X82979829Y-95854028D01*
X83032646Y-95945510D01*
X83032647Y-95945511D01*
X83032649Y-95945514D01*
X83113574Y-96013418D01*
X83113575Y-96013418D01*
X83118284Y-96016137D01*
X83166503Y-96066701D01*
X83179729Y-96135307D01*
X83153765Y-96200174D01*
X83115751Y-96227748D01*
X83117703Y-96231129D01*
X83108309Y-96236551D01*
X83027385Y-96304454D01*
X83027381Y-96304458D01*
X82974564Y-96395941D01*
X82974562Y-96395946D01*
X82956219Y-96499979D01*
X74630621Y-96499979D01*
X74614537Y-96408763D01*
X74561716Y-96317275D01*
X74480791Y-96249371D01*
X74408119Y-96222920D01*
X74351856Y-96181494D01*
X74326921Y-96116225D01*
X74341231Y-96047837D01*
X74390243Y-95998041D01*
X74408110Y-95989881D01*
X74480791Y-95963428D01*
X74561716Y-95895524D01*
X74614537Y-95804036D01*
X74632881Y-95700000D01*
X74631951Y-95694728D01*
X74614537Y-95595966D01*
X74614537Y-95595964D01*
X74563303Y-95507224D01*
X74561718Y-95504479D01*
X74561717Y-95504478D01*
X74561716Y-95504476D01*
X74480791Y-95436572D01*
X74440087Y-95421757D01*
X74383825Y-95380331D01*
X74358890Y-95315062D01*
X74373200Y-95246674D01*
X74422212Y-95196878D01*
X74440081Y-95188718D01*
X74482091Y-95173428D01*
X74563016Y-95105524D01*
X74615837Y-95014036D01*
X74634181Y-94910000D01*
X74632414Y-94899979D01*
X82961484Y-94899979D01*
X82961484Y-94899980D01*
X82979827Y-95004013D01*
X82979829Y-95004018D01*
X83032646Y-95095500D01*
X83032647Y-95095501D01*
X83032649Y-95095504D01*
X83113574Y-95163408D01*
X83212845Y-95199540D01*
X83212847Y-95199540D01*
X83318483Y-95199540D01*
X83318485Y-95199540D01*
X83417756Y-95163408D01*
X83498681Y-95095504D01*
X83551502Y-95004016D01*
X83569846Y-94899980D01*
X83551502Y-94795944D01*
X83498681Y-94704456D01*
X83417756Y-94636552D01*
X83318485Y-94600420D01*
X83212845Y-94600420D01*
X83113575Y-94636552D01*
X83113574Y-94636552D01*
X83113573Y-94636553D01*
X83032650Y-94704454D01*
X83032646Y-94704458D01*
X82979829Y-94795941D01*
X82979827Y-94795946D01*
X82961484Y-94899979D01*
X74632414Y-94899979D01*
X74615837Y-94805964D01*
X74563016Y-94714476D01*
X74482091Y-94646572D01*
X74382820Y-94610440D01*
X74277180Y-94610440D01*
X74177910Y-94646572D01*
X74177909Y-94646572D01*
X74177908Y-94646573D01*
X74096985Y-94714474D01*
X74096981Y-94714478D01*
X74044164Y-94805961D01*
X74044162Y-94805966D01*
X74025819Y-94909999D01*
X74025819Y-94910000D01*
X74044162Y-95014033D01*
X74044164Y-95014038D01*
X74096981Y-95105520D01*
X74096982Y-95105521D01*
X74096984Y-95105524D01*
X74126015Y-95129884D01*
X74177907Y-95173427D01*
X74177908Y-95173427D01*
X74177909Y-95173428D01*
X74218610Y-95188242D01*
X74274873Y-95229667D01*
X74299809Y-95294935D01*
X74285499Y-95363324D01*
X74236488Y-95413120D01*
X74218611Y-95421284D01*
X74176609Y-95436571D01*
X74095685Y-95504474D01*
X74095681Y-95504478D01*
X74042864Y-95595961D01*
X74042862Y-95595966D01*
X74024519Y-95699999D01*
X72949290Y-95699999D01*
X72960200Y-95647855D01*
X73009211Y-95598058D01*
X73027092Y-95589893D01*
X73029991Y-95588838D01*
X73110916Y-95520934D01*
X73163737Y-95429446D01*
X73182081Y-95325410D01*
X73180256Y-95315062D01*
X73163737Y-95221376D01*
X73163737Y-95221374D01*
X73110916Y-95129886D01*
X73029991Y-95061982D01*
X72930720Y-95025850D01*
X72825080Y-95025850D01*
X72725810Y-95061982D01*
X72725809Y-95061982D01*
X72725808Y-95061983D01*
X72644885Y-95129884D01*
X72644881Y-95129888D01*
X72592064Y-95221371D01*
X72592062Y-95221376D01*
X72573719Y-95325409D01*
X69036900Y-95325409D01*
X69036900Y-73509998D01*
X69734891Y-73509998D01*
X69734891Y-73510001D01*
X69755300Y-73795362D01*
X69816109Y-74074895D01*
X69916091Y-74342958D01*
X70053191Y-74594038D01*
X70053196Y-74594046D01*
X70159882Y-74736561D01*
X70159883Y-74736562D01*
X70841377Y-74055067D01*
X70924411Y-74179336D01*
X71070664Y-74325589D01*
X71194930Y-74408621D01*
X70513436Y-75090115D01*
X70655960Y-75196807D01*
X70655961Y-75196808D01*
X70907042Y-75333908D01*
X70907041Y-75333908D01*
X71175104Y-75433890D01*
X71454637Y-75494699D01*
X71739999Y-75515109D01*
X71740001Y-75515109D01*
X72025362Y-75494699D01*
X72304895Y-75433890D01*
X72572958Y-75333908D01*
X72824047Y-75196803D01*
X72966561Y-75090116D01*
X72966562Y-75090115D01*
X72285068Y-74408621D01*
X72409336Y-74325589D01*
X72555589Y-74179336D01*
X72638621Y-74055068D01*
X73320115Y-74736562D01*
X73320116Y-74736561D01*
X73426803Y-74594047D01*
X73563908Y-74342958D01*
X73663890Y-74074895D01*
X73724699Y-73795362D01*
X73745109Y-73510001D01*
X73745109Y-73509998D01*
X73724699Y-73224637D01*
X73663890Y-72945104D01*
X73563908Y-72677041D01*
X73426808Y-72425961D01*
X73426807Y-72425960D01*
X73320115Y-72283436D01*
X72638621Y-72964930D01*
X72555589Y-72840664D01*
X72409336Y-72694411D01*
X72285068Y-72611378D01*
X72966562Y-71929883D01*
X72966561Y-71929882D01*
X72824046Y-71823196D01*
X72824038Y-71823191D01*
X72572957Y-71686091D01*
X72572958Y-71686091D01*
X72304895Y-71586109D01*
X72025362Y-71525300D01*
X71740001Y-71504891D01*
X71739999Y-71504891D01*
X71454637Y-71525300D01*
X71175104Y-71586109D01*
X70907041Y-71686091D01*
X70655961Y-71823191D01*
X70655953Y-71823196D01*
X70513437Y-71929882D01*
X70513436Y-71929883D01*
X71194931Y-72611378D01*
X71070664Y-72694411D01*
X70924411Y-72840664D01*
X70841378Y-72964931D01*
X70159883Y-72283436D01*
X70159882Y-72283437D01*
X70053196Y-72425953D01*
X70053191Y-72425961D01*
X69916091Y-72677041D01*
X69816109Y-72945104D01*
X69755300Y-73224637D01*
X69734891Y-73509998D01*
X69036900Y-73509998D01*
X69036900Y-71130820D01*
X69056585Y-71063781D01*
X69109389Y-71018026D01*
X69160900Y-71006820D01*
X88369900Y-71006820D01*
X88436939Y-71026505D01*
G37*
%TD.AperFunction*%
%TA.AperFunction,Conductor*%
G36*
X88422007Y-121576301D02*
G01*
X88474569Y-121622334D01*
X88493900Y-121688821D01*
X88493900Y-124890442D01*
X88474215Y-124957481D01*
X88421411Y-125003236D01*
X88352253Y-125013180D01*
X88288697Y-124984155D01*
X88253718Y-124933776D01*
X88213908Y-124827041D01*
X88076808Y-124575961D01*
X88076807Y-124575960D01*
X87970115Y-124433436D01*
X87288621Y-125114930D01*
X87205589Y-124990664D01*
X87059336Y-124844411D01*
X86935068Y-124761378D01*
X87616562Y-124079883D01*
X87616561Y-124079882D01*
X87474046Y-123973196D01*
X87474038Y-123973191D01*
X87222957Y-123836091D01*
X87222958Y-123836091D01*
X86954896Y-123736110D01*
X86780126Y-123698090D01*
X86718803Y-123664605D01*
X86685319Y-123603281D01*
X86690303Y-123533590D01*
X86732175Y-123477656D01*
X86750834Y-123466113D01*
X86877545Y-123402476D01*
X87169509Y-123210449D01*
X87169510Y-123210448D01*
X87312179Y-123090734D01*
X87312180Y-123090733D01*
X86601367Y-122379919D01*
X86696521Y-122306906D01*
X86881906Y-122121521D01*
X86954919Y-122026367D01*
X87668849Y-122740297D01*
X87668851Y-122740296D01*
X87677022Y-122731636D01*
X87677033Y-122731623D01*
X87885710Y-122451322D01*
X88060438Y-122148683D01*
X88060444Y-122148670D01*
X88198854Y-121827800D01*
X88251109Y-121653257D01*
X88289194Y-121594680D01*
X88352902Y-121565992D01*
X88422007Y-121576301D01*
G37*
%TD.AperFunction*%
%TD*%
M02*
