%TF.GenerationSoftware,KiCad,Pcbnew,8.0.3*%
%TF.CreationDate,2024-07-18T21:09:06-07:00*%
%TF.ProjectId,wide_v1_4_layer,77696465-5f76-4315-9f34-5f6c61796572,V1*%
%TF.SameCoordinates,Original*%
%TF.FileFunction,Copper,L3,Inr*%
%TF.FilePolarity,Positive*%
%FSLAX46Y46*%
G04 Gerber Fmt 4.6, Leading zero omitted, Abs format (unit mm)*
G04 Created by KiCad (PCBNEW 8.0.3) date 2024-07-18 21:09:06*
%MOMM*%
%LPD*%
G01*
G04 APERTURE LIST*
%TA.AperFunction,ComponentPad*%
%ADD10C,0.990600*%
%TD*%
%TA.AperFunction,ComponentPad*%
%ADD11C,3.000000*%
%TD*%
%TA.AperFunction,ComponentPad*%
%ADD12C,5.000000*%
%TD*%
%TA.AperFunction,ViaPad*%
%ADD13C,0.300000*%
%TD*%
%TA.AperFunction,ViaPad*%
%ADD14C,0.500000*%
%TD*%
%TA.AperFunction,ViaPad*%
%ADD15C,0.400000*%
%TD*%
%TA.AperFunction,Conductor*%
%ADD16C,0.099060*%
%TD*%
G04 APERTURE END LIST*
D10*
%TO.N,Net-(C2-Pad1)*%
%TO.C,SMP2*%
X72390000Y-104140000D03*
%TO.N,GND*%
X71120000Y-105410000D03*
X73660000Y-105410000D03*
X73660000Y-102870000D03*
X71120000Y-102870000D03*
%TD*%
%TO.N,Net-(R3-Pad1)*%
%TO.C,SMP3*%
X85090000Y-104140000D03*
%TO.N,GND*%
X83820000Y-105410000D03*
X86360000Y-105410000D03*
X86360000Y-102870000D03*
X83820000Y-102870000D03*
%TD*%
D11*
%TO.N,GND*%
%TO.C,*%
X86390000Y-125660000D03*
%TD*%
D12*
%TO.N,GND*%
%TO.C,*%
X85375000Y-120800000D03*
%TD*%
D11*
%TO.N,GND*%
%TO.C,*%
X71740000Y-125660000D03*
%TD*%
D10*
%TO.N,Net-(C1-Pad1)*%
%TO.C,SMP1*%
X72390000Y-111760000D03*
%TO.N,GND*%
X71120000Y-113030000D03*
X73660000Y-113030000D03*
X73660000Y-110490000D03*
X71120000Y-110490000D03*
%TD*%
D11*
%TO.N,GND*%
%TO.C,*%
X71740000Y-73510000D03*
%TD*%
D10*
%TO.N,Net-(R4-Pad1)*%
%TO.C,SMP4*%
X85090000Y-111760000D03*
%TO.N,GND*%
X83820000Y-113030000D03*
X86360000Y-113030000D03*
X86360000Y-110490000D03*
X83820000Y-110490000D03*
%TD*%
D11*
%TO.N,GND*%
%TO.C,*%
X86390000Y-73510000D03*
%TD*%
D12*
%TO.N,GND*%
%TO.C,*%
X72740000Y-120760000D03*
%TD*%
D13*
%TO.N,GND*%
X85800000Y-101930000D03*
X85590000Y-102370000D03*
X85590000Y-103320000D03*
X84690000Y-102250000D03*
X84710000Y-103061000D03*
X84710000Y-102680000D03*
X84710000Y-103442000D03*
X86930000Y-95470000D03*
X86620000Y-95190000D03*
D14*
X86180000Y-94920000D03*
X85780000Y-94490000D03*
X85350000Y-94090000D03*
X84900000Y-93660000D03*
D13*
X88110000Y-95828000D03*
X88110000Y-97326600D03*
X87194000Y-97700000D03*
X88110000Y-96209000D03*
X87194000Y-96582400D03*
X88110000Y-96590000D03*
X88110000Y-95447000D03*
X87194000Y-97344400D03*
X87194000Y-96201400D03*
X87194000Y-96963400D03*
X87194000Y-95820400D03*
X88110000Y-96971000D03*
X88100000Y-98574000D03*
X88100000Y-100479000D03*
X88100000Y-100860000D03*
X88100000Y-98193000D03*
X87560600Y-94806000D03*
X88100000Y-101241000D03*
X88100000Y-97812000D03*
X88100000Y-98955000D03*
X88100000Y-101596600D03*
X88100000Y-99717000D03*
X88100000Y-100098000D03*
X88100000Y-99336000D03*
X87190000Y-101480000D03*
X87194000Y-98900000D03*
D14*
X84394000Y-93300000D03*
D13*
X83401000Y-92250000D03*
X85330000Y-92550000D03*
X87194000Y-98519000D03*
X87194000Y-98138000D03*
D14*
X83814000Y-93300000D03*
D13*
X87190000Y-101030000D03*
X83020000Y-92250000D03*
X84163000Y-92250000D03*
X84570000Y-92250000D03*
X83782000Y-92250000D03*
X87194000Y-99255600D03*
X87200000Y-100580000D03*
D14*
X83194000Y-93300000D03*
D13*
X84990000Y-92270000D03*
X83644000Y-101270000D03*
X85240000Y-97161000D03*
X85084000Y-99830000D03*
X84804000Y-100120000D03*
X85240000Y-98670000D03*
X83944000Y-100970000D03*
X85240000Y-97542000D03*
X84500000Y-100400000D03*
X85240000Y-96399000D03*
X85240000Y-98289000D03*
X85240000Y-97897600D03*
X85240000Y-96018000D03*
X85240000Y-99480000D03*
X82474000Y-102460000D03*
X85240000Y-96780000D03*
X85240000Y-99099000D03*
X84234000Y-100690000D03*
X85240000Y-95620000D03*
X83354000Y-101550000D03*
X83074000Y-94340000D03*
X83950000Y-94360000D03*
X83510000Y-94350000D03*
X85190000Y-101070000D03*
X86730600Y-93986000D03*
X86640000Y-99840000D03*
X86160000Y-96387000D03*
X86160000Y-99039000D03*
X86930000Y-99530000D03*
X86160000Y-97530000D03*
X85900600Y-93166000D03*
X84340000Y-94570000D03*
X84680000Y-94910000D03*
X84310000Y-101930000D03*
X84600000Y-101650000D03*
X85620000Y-92860000D03*
X86040000Y-100210000D03*
X86160000Y-98277000D03*
X86160000Y-99420000D03*
X86160000Y-96768000D03*
X87840000Y-95060000D03*
X86160000Y-97149000D03*
X86451200Y-93732000D03*
X86160000Y-99775600D03*
X86160000Y-97885600D03*
X86160000Y-95625000D03*
X87010000Y-94240000D03*
X87281200Y-94552000D03*
X84900000Y-101350000D03*
X85760000Y-100500000D03*
X86180000Y-93420000D03*
X86160000Y-98658000D03*
X86160000Y-96006000D03*
X85470000Y-100780000D03*
X82764000Y-102180000D03*
X83064000Y-101880000D03*
X83290000Y-106580000D03*
X83300000Y-103668000D03*
X83300000Y-104430000D03*
X81670000Y-110540000D03*
X82370000Y-105495600D03*
X81020000Y-107620000D03*
X84160000Y-108850000D03*
X81640000Y-106990000D03*
X82370000Y-104733600D03*
X84560000Y-108880000D03*
X80720000Y-110159000D03*
X82370000Y-102797000D03*
X83290000Y-106140000D03*
X83750000Y-108870000D03*
X81650000Y-108810000D03*
X80720000Y-108920000D03*
X81700000Y-108270000D03*
X82370000Y-107610000D03*
X83030000Y-106930000D03*
X82700000Y-107270000D03*
X82370000Y-104295600D03*
X82370000Y-105915600D03*
X82370000Y-105114600D03*
X80720000Y-109340000D03*
X85540000Y-110765600D03*
X81670000Y-109760000D03*
X80730000Y-107990000D03*
X83300000Y-104049000D03*
X82370000Y-103178000D03*
X84660000Y-110775600D03*
X80720000Y-110540000D03*
X80720000Y-108490000D03*
X82020000Y-107950000D03*
X85450000Y-109700000D03*
X81670000Y-110159000D03*
X82370000Y-103559000D03*
X81960000Y-106670000D03*
X80720000Y-109760000D03*
X81340000Y-107300000D03*
X82370000Y-103940000D03*
X84850000Y-109120000D03*
X82250000Y-106360000D03*
X85520000Y-110135600D03*
X85150000Y-109380000D03*
X74080000Y-109700000D03*
X72830000Y-110910000D03*
X71950000Y-110900000D03*
X71970000Y-110270000D03*
X72000000Y-109820000D03*
X72280000Y-109480000D03*
X72580000Y-109210000D03*
X73280000Y-108800000D03*
X73700000Y-108800000D03*
X72870000Y-108910000D03*
X74120000Y-108800000D03*
X76020000Y-110209000D03*
X76020000Y-110590000D03*
X76020000Y-109810000D03*
X76950000Y-110580000D03*
X76950000Y-109800000D03*
X76950000Y-109380000D03*
X76950000Y-110199000D03*
X76840000Y-108080000D03*
X76950000Y-108530000D03*
X76950000Y-108960000D03*
X76210000Y-107440000D03*
X75550000Y-106770000D03*
X75870000Y-107100000D03*
X76550000Y-107770000D03*
X76030000Y-108710000D03*
X75790000Y-108350000D03*
X75520000Y-108060000D03*
X75180000Y-107730000D03*
X74840000Y-107390000D03*
X74520000Y-107060000D03*
X74220000Y-106710000D03*
X74170000Y-106280000D03*
X74170000Y-104161000D03*
X74170000Y-103780000D03*
X74170000Y-104542000D03*
X75240000Y-106450000D03*
X75120000Y-106050000D03*
X75120000Y-104430000D03*
X75120000Y-103312400D03*
X75120000Y-104074400D03*
X75120000Y-102931400D03*
X75120000Y-103693400D03*
X75120000Y-105630000D03*
X75120000Y-105249000D03*
X75120000Y-104868000D03*
X74830000Y-102180000D03*
X74530000Y-101880000D03*
X75120000Y-102460000D03*
X73360000Y-100690000D03*
X74240000Y-101550000D03*
X73950000Y-101270000D03*
X72510000Y-99830000D03*
X73650000Y-100970000D03*
X72790000Y-100120000D03*
X73080000Y-100400000D03*
X72260000Y-99099000D03*
X72260000Y-99480000D03*
X72260000Y-96399000D03*
X72260000Y-97542000D03*
X72260000Y-98289000D03*
X72260000Y-96780000D03*
X72260000Y-97161000D03*
X72260000Y-97897600D03*
X72260000Y-98670000D03*
X72260000Y-96018000D03*
X72260000Y-95620000D03*
X74520000Y-94340000D03*
X73758000Y-94340000D03*
X74139000Y-94340000D03*
X72730000Y-94910000D03*
X73350000Y-94350000D03*
X73020000Y-94620000D03*
X72440000Y-95220000D03*
X72980000Y-101650000D03*
X73270000Y-101930000D03*
X72390000Y-101070000D03*
X72680000Y-101350000D03*
X72110000Y-100780000D03*
X71820000Y-100500000D03*
X71540000Y-100210000D03*
X71310000Y-98168000D03*
X71310000Y-99311000D03*
X71310000Y-98549000D03*
X71310000Y-98930000D03*
X71310000Y-99666600D03*
X71310000Y-97776600D03*
X71310000Y-95135000D03*
X71310000Y-95516000D03*
X71310000Y-96659000D03*
X71310000Y-97421000D03*
X71310000Y-96278000D03*
X71310000Y-97040000D03*
X71310000Y-95897000D03*
X71850000Y-94450000D03*
X72680000Y-93630000D03*
X71570000Y-94750000D03*
X72400600Y-93884000D03*
X72129400Y-94196000D03*
X71110000Y-100220000D03*
X70830000Y-99920000D03*
X70540000Y-99640000D03*
X71270000Y-92660000D03*
X71910000Y-92230000D03*
X71549400Y-92406000D03*
X70440000Y-93480000D03*
X70998800Y-92972000D03*
X70719400Y-93226000D03*
X69610000Y-94300000D03*
X70168800Y-93792000D03*
X69889400Y-94046000D03*
X71910000Y-93420000D03*
X71570000Y-93760000D03*
X71260000Y-94080000D03*
X70950000Y-94390000D03*
X70640000Y-94710000D03*
X72329000Y-93160000D03*
X72710000Y-93160000D03*
D14*
X73200000Y-93300000D03*
X73780000Y-93300000D03*
X74400000Y-93300000D03*
D13*
X73431000Y-92250000D03*
X73812000Y-92250000D03*
X72669000Y-92250000D03*
X74193000Y-92250000D03*
X73050000Y-92250000D03*
X72288000Y-92250000D03*
X74574000Y-92250000D03*
X70300000Y-101600000D03*
X70300000Y-100700000D03*
X70300000Y-101150000D03*
X70400000Y-99255600D03*
X70400000Y-98138000D03*
X70400000Y-98900000D03*
X70400000Y-98519000D03*
X70400000Y-96201400D03*
X70400000Y-97700000D03*
X70400000Y-96582400D03*
X70400000Y-95439400D03*
X70400000Y-96963400D03*
X70400000Y-95820400D03*
X70400000Y-95058400D03*
X70400000Y-97344400D03*
X69400000Y-95420400D03*
X69400000Y-95039400D03*
X69400000Y-96944400D03*
X69400000Y-95801400D03*
X69400000Y-96182400D03*
X69400000Y-97300000D03*
X69400000Y-96563400D03*
X69400000Y-94658400D03*
X69410000Y-99690400D03*
X69410000Y-99309400D03*
X69410000Y-101214400D03*
X69410000Y-98166400D03*
X69410000Y-100071400D03*
X69410000Y-98547400D03*
X69410000Y-100452400D03*
X69410000Y-101570000D03*
X69410000Y-100833400D03*
X69410000Y-98928400D03*
X69410000Y-97785400D03*
%TO.N,unconnected-(ZIF1-Pad13)*%
X73550000Y-135480000D03*
X74334900Y-98138210D03*
%TO.N,Net-(Sample1-Pad15)*%
X74334900Y-97325410D03*
X74625200Y-135483600D03*
%TO.N,Net-(Sample1-Pad16)*%
X75031600Y-131927600D03*
X74327100Y-99130000D03*
%TO.N,Net-(Sample1-Pad17)*%
X74328700Y-96512799D03*
X76200000Y-135483600D03*
%TO.N,Net-(Sample1-Pad18)*%
X72889100Y-99600000D03*
X76962000Y-131927600D03*
%TO.N,Net-(Sample1-Pad19)*%
X77876400Y-135483600D03*
X72880000Y-98680000D03*
%TO.N,Net-(Sample1-Pad20)*%
X77971130Y-131927600D03*
X72880000Y-97845190D03*
%TO.N,Net-(Sample1-Pad21)*%
X78588000Y-135483600D03*
X72877900Y-96922230D03*
%TO.N,Net-(Sample1-Pad22)*%
X78878160Y-131949243D03*
X72877900Y-96087420D03*
%TO.N,Net-(Sample1-Pad23)*%
X79400000Y-135480000D03*
X72877900Y-95325410D03*
%TO.N,Net-(Sample1-Pad24)*%
X84750300Y-95311700D03*
X79908400Y-131927600D03*
%TO.N,unconnected-(ZIF1-Pad27)*%
X74328700Y-95700000D03*
X80118000Y-135483600D03*
%TO.N,31*%
X81788001Y-135483600D03*
X83265665Y-94899980D03*
%TO.N,32*%
X83265665Y-95749990D03*
X80619600Y-132588000D03*
%TO.N,33*%
X83260400Y-96499980D03*
X83515200Y-135483600D03*
%TO.N,34*%
X81328043Y-131879557D03*
X83260400Y-97299990D03*
%TO.N,35*%
X83260400Y-98150790D03*
X85293201Y-135483600D03*
%TO.N,36*%
X83260400Y-99090000D03*
X82524600Y-131902200D03*
%TO.N,37*%
X84745035Y-96911700D03*
X88188800Y-134416800D03*
%TO.N,39*%
X88188800Y-133654800D03*
X84768155Y-97773710D03*
%TO.N,40*%
X84768155Y-98685840D03*
X87833200Y-131216400D03*
%TO.N,Net-(Sample1-Pad37)*%
X84745035Y-96099330D03*
X83312000Y-132638800D03*
%TO.N,52*%
X86817200Y-128625600D03*
X86664800Y-131927600D03*
%TO.N,Net-(Sample1-Pad40)*%
X81127600Y-128625600D03*
X83312000Y-131927600D03*
%TO.N,Net-(Sample1-Pad42)*%
X82702400Y-128625600D03*
X84074000Y-131927600D03*
%TO.N,Net-(Sample1-Pad44)*%
X84328000Y-128625600D03*
X84937600Y-131927600D03*
%TO.N,Net-(Sample1-Pad46)*%
X85750400Y-131927600D03*
X86004400Y-128625600D03*
D15*
%TO.N,GND*%
X86537800Y-111734600D03*
X81762600Y-129489200D03*
D13*
X69220000Y-83110000D03*
D15*
X88050000Y-80020000D03*
X86610000Y-98910000D03*
X81110000Y-106260000D03*
X70517200Y-76543200D03*
X70550000Y-127510000D03*
X71500000Y-89050000D03*
X72974200Y-134416800D03*
X72317200Y-75343200D03*
X86335600Y-92391600D03*
X84772800Y-137845800D03*
X86334600Y-107035600D03*
X73590000Y-114100000D03*
X88070000Y-105880000D03*
X81680000Y-113080000D03*
X72315400Y-108779800D03*
X69480000Y-107320000D03*
X74938800Y-123500200D03*
X85000000Y-124000000D03*
X78896400Y-78820000D03*
X82000000Y-120400000D03*
X76490000Y-105190000D03*
X72470000Y-107360000D03*
X84496800Y-75343200D03*
X71145400Y-111709200D03*
X82310000Y-121320000D03*
X71805800Y-107924600D03*
X82569200Y-76543200D03*
X78296400Y-80020000D03*
X73793200Y-137845800D03*
X88030000Y-108940000D03*
X69860000Y-88090000D03*
X82572400Y-81030000D03*
X77096400Y-80020000D03*
X73496600Y-104052800D03*
X83388200Y-111861600D03*
X81460000Y-95020000D03*
X87960000Y-127670000D03*
X70793200Y-136645800D03*
X86900200Y-93055800D03*
X76546400Y-81030000D03*
X74696400Y-80020000D03*
X71393200Y-137845800D03*
X71670400Y-78820000D03*
X81369200Y-76543200D03*
X76020000Y-94000000D03*
X78946400Y-81030000D03*
X78619200Y-137845800D03*
X70097800Y-135585200D03*
X74120400Y-81030000D03*
X73660000Y-125120000D03*
X82780000Y-114580000D03*
X74070400Y-78820000D03*
X69725400Y-91392200D03*
X88050000Y-111090000D03*
X78343200Y-77743200D03*
X85096800Y-76543200D03*
X70193200Y-137845800D03*
X86640000Y-96030000D03*
X80172400Y-81030000D03*
X83281200Y-116000200D03*
X83000000Y-116900000D03*
X83169200Y-75343200D03*
X88050000Y-112960000D03*
X86300000Y-81030000D03*
X76464600Y-106434600D03*
X79410000Y-96584800D03*
X72317200Y-77743200D03*
X73660000Y-111683800D03*
X70024400Y-90143800D03*
X81924800Y-116209800D03*
X69500000Y-123490000D03*
X71297800Y-135585200D03*
X76219200Y-137845800D03*
X75960000Y-116530000D03*
X75900000Y-105770400D03*
X76010000Y-120320000D03*
X84496800Y-77743200D03*
X71221600Y-107061000D03*
X85372800Y-136645800D03*
X87772800Y-136645800D03*
X72339200Y-105968800D03*
X80769200Y-75343200D03*
X72917200Y-76543200D03*
X71070400Y-80020000D03*
X76100000Y-122000000D03*
X75619200Y-136645800D03*
X83960000Y-107220000D03*
X87149000Y-90868000D03*
X75296400Y-78820000D03*
X72920400Y-81030000D03*
X74850000Y-114420000D03*
X85696800Y-77743200D03*
X87450000Y-78820000D03*
X72188600Y-116693200D03*
X87090000Y-106560000D03*
X81969200Y-77743200D03*
X70637400Y-108000800D03*
X80722400Y-80020000D03*
X86334600Y-108889800D03*
X77143200Y-77743200D03*
X70589000Y-90808000D03*
X85696800Y-75343200D03*
X76543200Y-76543200D03*
X72870400Y-78820000D03*
X87000000Y-109390000D03*
X75660000Y-117500000D03*
X78943200Y-76543200D03*
X79569200Y-77743200D03*
X88096800Y-77743200D03*
X83169200Y-77743200D03*
X69480000Y-113120000D03*
X84172600Y-117700000D03*
X77419200Y-137845800D03*
X88096800Y-75343200D03*
X81969200Y-75343200D03*
X82845200Y-136645800D03*
X69430000Y-127510000D03*
X85650000Y-80020000D03*
X87757000Y-135585200D03*
X87500000Y-118000000D03*
X73583800Y-107035600D03*
X77970000Y-96564800D03*
X73126600Y-124028200D03*
X74850000Y-113327800D03*
X87500000Y-81030000D03*
X82360000Y-113280000D03*
X81045200Y-137845800D03*
D13*
X88250000Y-84390000D03*
D15*
X84450000Y-80020000D03*
X88050000Y-92680000D03*
X76020000Y-93080000D03*
X86610000Y-97990000D03*
X79522400Y-80020000D03*
X72747400Y-115753400D03*
X80169200Y-76543200D03*
X87810000Y-113850000D03*
X85700000Y-116200000D03*
X74743200Y-77743200D03*
D13*
X69210000Y-84400000D03*
D15*
X87172800Y-137845800D03*
X77143200Y-75343200D03*
X75943200Y-77743200D03*
X85100000Y-81030000D03*
X80880000Y-96530000D03*
X71528800Y-91392200D03*
X87496800Y-76543200D03*
X87930000Y-89090000D03*
X87980000Y-123040000D03*
X83722400Y-78820000D03*
X74850000Y-112286400D03*
X71720400Y-81030000D03*
X81490000Y-93980000D03*
X87174400Y-88531200D03*
X75800000Y-118500000D03*
X86896800Y-77743200D03*
X79845200Y-137845800D03*
X86250000Y-78820000D03*
X86893400Y-104140000D03*
X83769200Y-76543200D03*
X88100000Y-107020000D03*
X70410600Y-115728000D03*
X85191600Y-113004600D03*
X75346400Y-81030000D03*
X86584400Y-90203800D03*
X87500000Y-124000000D03*
X69720000Y-92840000D03*
X81922400Y-80020000D03*
X69450000Y-115110000D03*
X74380000Y-124440000D03*
X86893400Y-107950000D03*
X73517200Y-75343200D03*
X85130000Y-107310000D03*
X71221600Y-108864400D03*
X85006200Y-117100000D03*
X81372400Y-81030000D03*
X77743200Y-76543200D03*
X86260000Y-89090000D03*
X72288400Y-112953800D03*
X86572800Y-136645800D03*
D13*
X69230000Y-81940000D03*
D15*
X73517200Y-77743200D03*
X87140000Y-114390000D03*
X86758800Y-116007800D03*
X81968200Y-122085600D03*
X70520400Y-81030000D03*
X69430000Y-120980000D03*
X71117200Y-77743200D03*
X86285400Y-91452200D03*
X88088800Y-91452200D03*
X79569200Y-75343200D03*
X83122400Y-80020000D03*
X81645200Y-136645800D03*
X83388200Y-107924600D03*
X69410000Y-118970000D03*
X69480000Y-109420000D03*
D13*
X69240000Y-87110000D03*
D15*
X70789800Y-124002800D03*
X86200000Y-117600000D03*
X84556600Y-107924600D03*
X76819200Y-136645800D03*
X73179200Y-116667800D03*
X84000000Y-124500000D03*
X71717200Y-76543200D03*
X80122400Y-78820000D03*
X85115400Y-105841800D03*
X70586600Y-104165400D03*
D13*
X69220000Y-85750000D03*
D15*
X70665200Y-91976400D03*
X80769200Y-77743200D03*
X75010000Y-110290000D03*
X83772400Y-81030000D03*
X82522400Y-78820000D03*
X87620000Y-115310000D03*
X69917200Y-77743200D03*
X83445200Y-137845800D03*
X69480000Y-111180000D03*
X75668200Y-121085600D03*
X73888200Y-115735600D03*
X75578200Y-119405600D03*
X85370000Y-108630000D03*
X73050400Y-107950000D03*
X70994800Y-116693200D03*
X74743200Y-75343200D03*
X70470400Y-78820000D03*
X75943200Y-75343200D03*
X86850000Y-80020000D03*
X70390000Y-122990000D03*
X70461400Y-117683800D03*
X78343200Y-75343200D03*
X77970000Y-97530000D03*
X82163000Y-115479800D03*
X81322400Y-78820000D03*
X69870400Y-80020000D03*
X76660000Y-96520000D03*
D13*
X88280000Y-87100000D03*
D15*
X87174400Y-89623400D03*
X87840000Y-93640000D03*
X75390000Y-122690000D03*
X76496400Y-78820000D03*
X74419200Y-136645800D03*
X82243000Y-117095400D03*
X85801200Y-107950000D03*
X77746400Y-81030000D03*
X69430000Y-105560000D03*
X84060000Y-104130000D03*
X71444200Y-90298400D03*
X87300000Y-117200000D03*
X86557000Y-135585200D03*
X86896800Y-75343200D03*
X69700000Y-89030000D03*
X86296800Y-76543200D03*
X75880000Y-114580000D03*
X80445200Y-136645800D03*
X70614400Y-88471200D03*
X75670000Y-113100000D03*
X82400000Y-123000000D03*
X69410000Y-125140000D03*
X84172800Y-136645800D03*
X85050000Y-78820000D03*
X71993200Y-136645800D03*
X77696400Y-78820000D03*
X81135400Y-105015400D03*
X85972800Y-137845800D03*
X70969400Y-114839000D03*
X69917200Y-75343200D03*
X75440000Y-111290000D03*
D13*
X88270000Y-81930000D03*
D15*
X82340000Y-119570000D03*
X81734800Y-114479800D03*
X88004200Y-90358400D03*
X72188600Y-114839000D03*
X75019200Y-137845800D03*
X72593200Y-137845800D03*
X71655200Y-115753400D03*
X73788800Y-117683800D03*
X70614400Y-89563400D03*
X72270400Y-80020000D03*
X78019200Y-136645800D03*
X74320000Y-116650000D03*
D13*
X88260000Y-85740000D03*
D15*
X75896400Y-80020000D03*
X86200000Y-115245800D03*
X73193200Y-136645800D03*
X83944800Y-115300000D03*
X79410000Y-97550000D03*
X75528200Y-115615600D03*
X81490000Y-93060000D03*
D13*
X88260000Y-83100000D03*
D15*
X70290000Y-113930000D03*
X84900000Y-115100000D03*
X83431400Y-114153600D03*
X82360000Y-111146400D03*
X75343200Y-76543200D03*
X79245200Y-136645800D03*
X81700000Y-105679600D03*
X83500000Y-123500000D03*
X87225200Y-92036400D03*
X71117200Y-75343200D03*
X86640000Y-96950000D03*
X69430000Y-117070000D03*
X73470400Y-80020000D03*
X74142600Y-107950000D03*
X82245200Y-137845800D03*
X74117200Y-76543200D03*
X75990000Y-95040000D03*
D13*
%TO.N,38*%
X87833200Y-131724400D03*
X84745035Y-99599320D03*
%TO.N,Net-(Sample1-Pad25)*%
X74330000Y-94910000D03*
X80930000Y-135480000D03*
%TD*%
D16*
%TO.N,Net-(Sample1-Pad18)*%
X77693900Y-131195700D02*
X76962000Y-131927600D01*
X77693900Y-131195700D02*
X77693900Y-104404800D01*
X77693900Y-104404800D02*
X72889100Y-99600000D01*
%TO.N,Net-(Sample1-Pad19)*%
X77572100Y-135179300D02*
X77876400Y-135483600D01*
X77892960Y-102938660D02*
X77892960Y-131334920D01*
X73453500Y-98680000D02*
X72880000Y-98680000D01*
X77572100Y-131655780D02*
X77572100Y-135179300D01*
X72900000Y-98700000D02*
X72880000Y-98680000D01*
X77892960Y-131334920D02*
X77572100Y-131655780D01*
X77892960Y-102938660D02*
X77712160Y-102938660D01*
X77712160Y-102938660D02*
X73453500Y-98680000D01*
%TO.N,Net-(Sample1-Pad20)*%
X74420300Y-97800010D02*
X72925180Y-97800010D01*
X72925180Y-97800010D02*
X72880000Y-97845190D01*
X77871160Y-131827630D02*
X77971130Y-131927600D01*
X78092020Y-101471730D02*
X74420300Y-97800010D01*
X78092020Y-131417374D02*
X78092020Y-101471730D01*
X77871160Y-131638234D02*
X77871160Y-131827630D01*
X78092020Y-131417374D02*
X77871160Y-131638234D01*
%TO.N,Net-(Sample1-Pad21)*%
X78291080Y-100650639D02*
X78291080Y-135186680D01*
X74562671Y-96922230D02*
X78291080Y-100650639D01*
X78291080Y-135186680D02*
X78588000Y-135483600D01*
X72877900Y-96922230D02*
X74562671Y-96922230D01*
%TO.N,Net-(Sample1-Pad22)*%
X78878160Y-131949243D02*
X78778190Y-131849273D01*
X78490140Y-100250639D02*
X74326921Y-96087420D01*
X78490140Y-131350185D02*
X78490140Y-100250639D01*
X74326921Y-96087420D02*
X72877900Y-96087420D01*
X78778190Y-131638235D02*
X78490140Y-131350185D01*
X78778190Y-131849273D02*
X78778190Y-131638235D01*
%TO.N,Net-(Sample1-Pad23)*%
X72952960Y-95400470D02*
X72877900Y-95325410D01*
X79298800Y-135378800D02*
X79400000Y-135480000D01*
X74892840Y-95400470D02*
X78689200Y-99196830D01*
X78689200Y-99196830D02*
X78689200Y-130905379D01*
X78689200Y-130905379D02*
X79298800Y-131514979D01*
X74892840Y-95400470D02*
X72952960Y-95400470D01*
X79298800Y-131514979D02*
X79298800Y-135378800D01*
%TO.N,Net-(Sample1-Pad24)*%
X84611540Y-95450460D02*
X84750300Y-95311700D01*
X82859170Y-95450460D02*
X84611540Y-95450460D01*
X79908400Y-131701644D02*
X78888260Y-130681504D01*
X79908400Y-131927600D02*
X79908400Y-131701644D01*
X78888260Y-99421370D02*
X82859170Y-95450460D01*
X78888260Y-130681504D02*
X78888260Y-99421370D01*
%TO.N,37*%
X84538070Y-131274070D02*
X84538070Y-132093091D01*
X84656275Y-97000460D02*
X84745035Y-96911700D01*
X79286380Y-123820248D02*
X82289130Y-126822998D01*
X82795920Y-97000460D02*
X84656275Y-97000460D01*
X84538070Y-132093091D02*
X86861779Y-134416800D01*
X82289130Y-126822998D02*
X82289130Y-129025130D01*
X82289130Y-129025130D02*
X84538070Y-131274070D01*
X79286380Y-100510000D02*
X79286380Y-123820248D01*
X79286380Y-100510000D02*
X82795920Y-97000460D01*
X86861779Y-134416800D02*
X88188800Y-134416800D01*
%TO.N,39*%
X79485440Y-123596374D02*
X79485440Y-100797539D01*
X86265270Y-131876800D02*
X83413600Y-129025130D01*
X83349709Y-129025130D02*
X83115670Y-128791091D01*
X83115670Y-128791091D02*
X83115670Y-127226604D01*
X79485440Y-100797539D02*
X82509269Y-97773710D01*
X82509269Y-97773710D02*
X84768155Y-97773710D01*
X86265270Y-132093091D02*
X86265270Y-131876800D01*
X87826979Y-133654800D02*
X86265270Y-132093091D01*
X83413600Y-129025130D02*
X83349709Y-129025130D01*
X88188800Y-133654800D02*
X87826979Y-133654800D01*
X83115670Y-127226604D02*
X79485440Y-123596374D01*
%TO.N,40*%
X84682785Y-98600470D02*
X84768155Y-98685840D01*
X82719530Y-98600470D02*
X84682785Y-98600470D01*
X84792070Y-128480070D02*
X79684500Y-123372500D01*
X84792070Y-128791091D02*
X84792070Y-128480070D01*
X79684500Y-123372500D02*
X79684500Y-101635500D01*
X87217379Y-131216400D02*
X84792070Y-128791091D01*
X79684500Y-101635500D02*
X82719530Y-98600470D01*
X87833200Y-131216400D02*
X87217379Y-131216400D01*
%TO.N,Net-(Sample1-Pad37)*%
X82696179Y-132638800D02*
X79087320Y-129029941D01*
X79087320Y-129029941D02*
X79087320Y-100033480D01*
X83312000Y-132638800D02*
X82696179Y-132638800D01*
X79087320Y-100033480D02*
X83021470Y-96099330D01*
X83021470Y-96099330D02*
X84745035Y-96099330D01*
%TO.N,38*%
X87998691Y-130816870D02*
X87586069Y-130816870D01*
X87890221Y-131724400D02*
X88232730Y-131381891D01*
X87833200Y-131724400D02*
X87890221Y-131724400D01*
X85591130Y-128821931D02*
X85591130Y-128460109D01*
X87586069Y-130816870D02*
X85591130Y-128821931D01*
X85591130Y-128460109D02*
X79910000Y-122778979D01*
X88232730Y-131381891D02*
X88232730Y-131050909D01*
X88232730Y-131050909D02*
X87998691Y-130816870D01*
X82700680Y-99599320D02*
X84745035Y-99599320D01*
X79910000Y-102390000D02*
X82700680Y-99599320D01*
X79910000Y-122778979D02*
X79910000Y-102390000D01*
%TD*%
%TA.AperFunction,Conductor*%
%TO.N,GND*%
G36*
X88436939Y-71026505D02*
G01*
X88482694Y-71079309D01*
X88493900Y-71130820D01*
X88493900Y-72740442D01*
X88474215Y-72807481D01*
X88421411Y-72853236D01*
X88352253Y-72863180D01*
X88288697Y-72834155D01*
X88253718Y-72783776D01*
X88213908Y-72677041D01*
X88076808Y-72425961D01*
X88076807Y-72425960D01*
X87970115Y-72283436D01*
X87288621Y-72964930D01*
X87205589Y-72840664D01*
X87059336Y-72694411D01*
X86935068Y-72611378D01*
X87616562Y-71929883D01*
X87616561Y-71929882D01*
X87474046Y-71823196D01*
X87474038Y-71823191D01*
X87222957Y-71686091D01*
X87222958Y-71686091D01*
X86954895Y-71586109D01*
X86675362Y-71525300D01*
X86390001Y-71504891D01*
X86389999Y-71504891D01*
X86104637Y-71525300D01*
X85825104Y-71586109D01*
X85557041Y-71686091D01*
X85305961Y-71823191D01*
X85305953Y-71823196D01*
X85163437Y-71929882D01*
X85163436Y-71929883D01*
X85844931Y-72611378D01*
X85720664Y-72694411D01*
X85574411Y-72840664D01*
X85491378Y-72964931D01*
X84809883Y-72283436D01*
X84809882Y-72283437D01*
X84703196Y-72425953D01*
X84703191Y-72425961D01*
X84566091Y-72677041D01*
X84466109Y-72945104D01*
X84405300Y-73224637D01*
X84384891Y-73509998D01*
X84384891Y-73510001D01*
X84405300Y-73795362D01*
X84466109Y-74074895D01*
X84566091Y-74342958D01*
X84703191Y-74594038D01*
X84703196Y-74594046D01*
X84809882Y-74736561D01*
X84809883Y-74736562D01*
X85491377Y-74055067D01*
X85574411Y-74179336D01*
X85720664Y-74325589D01*
X85844930Y-74408621D01*
X85163436Y-75090115D01*
X85305960Y-75196807D01*
X85305961Y-75196808D01*
X85557042Y-75333908D01*
X85557041Y-75333908D01*
X85825104Y-75433890D01*
X86104637Y-75494699D01*
X86389999Y-75515109D01*
X86390001Y-75515109D01*
X86675362Y-75494699D01*
X86954895Y-75433890D01*
X87222958Y-75333908D01*
X87474047Y-75196803D01*
X87616561Y-75090116D01*
X87616562Y-75090115D01*
X86935068Y-74408621D01*
X87059336Y-74325589D01*
X87205589Y-74179336D01*
X87288621Y-74055068D01*
X87970115Y-74736562D01*
X87970116Y-74736561D01*
X88076803Y-74594047D01*
X88213908Y-74342957D01*
X88213910Y-74342953D01*
X88253718Y-74236224D01*
X88295589Y-74180290D01*
X88361054Y-74155873D01*
X88429327Y-74170725D01*
X88478732Y-74220130D01*
X88493900Y-74279557D01*
X88493900Y-119911178D01*
X88474215Y-119978217D01*
X88421411Y-120023972D01*
X88352253Y-120033916D01*
X88288697Y-120004891D01*
X88251109Y-119946742D01*
X88198854Y-119772199D01*
X88060444Y-119451329D01*
X88060438Y-119451316D01*
X87885710Y-119148677D01*
X87677032Y-118868374D01*
X87668850Y-118859702D01*
X86954919Y-119573632D01*
X86881906Y-119478479D01*
X86696521Y-119293094D01*
X86601366Y-119220079D01*
X87312180Y-118509265D01*
X87312179Y-118509264D01*
X87169519Y-118389557D01*
X86877538Y-118197519D01*
X86565260Y-118040685D01*
X86565254Y-118040683D01*
X86236869Y-117921161D01*
X86236866Y-117921160D01*
X85896828Y-117840570D01*
X85549723Y-117800000D01*
X85200277Y-117800000D01*
X84853172Y-117840570D01*
X84853170Y-117840570D01*
X84513133Y-117921160D01*
X84513130Y-117921161D01*
X84184745Y-118040683D01*
X84184739Y-118040685D01*
X83872461Y-118197519D01*
X83580480Y-118389557D01*
X83437819Y-118509264D01*
X83437818Y-118509265D01*
X84148633Y-119220079D01*
X84053479Y-119293094D01*
X83868094Y-119478479D01*
X83795080Y-119573633D01*
X83081148Y-118859701D01*
X83081147Y-118859702D01*
X83072976Y-118868363D01*
X83072972Y-118868368D01*
X82864289Y-119148677D01*
X82689561Y-119451316D01*
X82689555Y-119451329D01*
X82551145Y-119772199D01*
X82450916Y-120106988D01*
X82450914Y-120106997D01*
X82390236Y-120451119D01*
X82390235Y-120451130D01*
X82369916Y-120799996D01*
X82369916Y-120800003D01*
X82390235Y-121148869D01*
X82390236Y-121148880D01*
X82450914Y-121493002D01*
X82450916Y-121493011D01*
X82551145Y-121827800D01*
X82689555Y-122148670D01*
X82689561Y-122148683D01*
X82864289Y-122451322D01*
X83072967Y-122731625D01*
X83081148Y-122740296D01*
X83795079Y-122026365D01*
X83868094Y-122121521D01*
X84053479Y-122306906D01*
X84148632Y-122379919D01*
X83437818Y-123090733D01*
X83437819Y-123090734D01*
X83580484Y-123210445D01*
X83872461Y-123402480D01*
X84184739Y-123559314D01*
X84184745Y-123559316D01*
X84513130Y-123678838D01*
X84513133Y-123678839D01*
X84853171Y-123759429D01*
X85182973Y-123797977D01*
X85247274Y-123825311D01*
X85286590Y-123883070D01*
X85288437Y-123952915D01*
X85252231Y-124012672D01*
X85242888Y-124020406D01*
X85163437Y-124079882D01*
X85163436Y-124079883D01*
X85844931Y-124761378D01*
X85720664Y-124844411D01*
X85574411Y-124990664D01*
X85491378Y-125114931D01*
X84809883Y-124433436D01*
X84809882Y-124433437D01*
X84703196Y-124575953D01*
X84703191Y-124575961D01*
X84566091Y-124827041D01*
X84466109Y-125095104D01*
X84405300Y-125374637D01*
X84384891Y-125659998D01*
X84384891Y-125660001D01*
X84405300Y-125945362D01*
X84466109Y-126224895D01*
X84566091Y-126492958D01*
X84703191Y-126744038D01*
X84703196Y-126744046D01*
X84809882Y-126886561D01*
X84809883Y-126886562D01*
X85491377Y-126205067D01*
X85574411Y-126329336D01*
X85720664Y-126475589D01*
X85844930Y-126558621D01*
X85163436Y-127240115D01*
X85305960Y-127346807D01*
X85305961Y-127346808D01*
X85557042Y-127483908D01*
X85557041Y-127483908D01*
X85825104Y-127583890D01*
X86104637Y-127644699D01*
X86389999Y-127665109D01*
X86390001Y-127665109D01*
X86675362Y-127644699D01*
X86954895Y-127583890D01*
X87222958Y-127483908D01*
X87474047Y-127346803D01*
X87616561Y-127240116D01*
X87616562Y-127240115D01*
X86935068Y-126558621D01*
X87059336Y-126475589D01*
X87205589Y-126329336D01*
X87288621Y-126205068D01*
X87970115Y-126886562D01*
X87970116Y-126886561D01*
X88076803Y-126744047D01*
X88213908Y-126492957D01*
X88213910Y-126492953D01*
X88253718Y-126386224D01*
X88295589Y-126330290D01*
X88361054Y-126305873D01*
X88429327Y-126320725D01*
X88478732Y-126370130D01*
X88493900Y-126429557D01*
X88493900Y-130800542D01*
X88474215Y-130867581D01*
X88421411Y-130913336D01*
X88352253Y-130923280D01*
X88288697Y-130894255D01*
X88282219Y-130888223D01*
X88083678Y-130689682D01*
X88028534Y-130666840D01*
X87699576Y-130666840D01*
X87632537Y-130647155D01*
X87611895Y-130630521D01*
X86049984Y-129068610D01*
X86016499Y-129007287D01*
X86021483Y-128937595D01*
X86063355Y-128881662D01*
X86091961Y-128868907D01*
X86090857Y-128866240D01*
X86102136Y-128861567D01*
X86102136Y-128861566D01*
X86102140Y-128861566D01*
X86185001Y-128806201D01*
X86240366Y-128723340D01*
X86259808Y-128625600D01*
X86259808Y-128625597D01*
X86561792Y-128625597D01*
X86561792Y-128625602D01*
X86581233Y-128723338D01*
X86581233Y-128723339D01*
X86581234Y-128723340D01*
X86636599Y-128806201D01*
X86719460Y-128861566D01*
X86743631Y-128866374D01*
X86817198Y-128881008D01*
X86817200Y-128881008D01*
X86817202Y-128881008D01*
X86870398Y-128870426D01*
X86914940Y-128861566D01*
X86997801Y-128806201D01*
X87053166Y-128723340D01*
X87072608Y-128625600D01*
X87072608Y-128625597D01*
X87053166Y-128527861D01*
X87053166Y-128527860D01*
X86997801Y-128444999D01*
X86914940Y-128389634D01*
X86914939Y-128389633D01*
X86914938Y-128389633D01*
X86817202Y-128370192D01*
X86817198Y-128370192D01*
X86719461Y-128389633D01*
X86636599Y-128444999D01*
X86581233Y-128527861D01*
X86561792Y-128625597D01*
X86259808Y-128625597D01*
X86240366Y-128527861D01*
X86240366Y-128527860D01*
X86185001Y-128444999D01*
X86102140Y-128389634D01*
X86102139Y-128389633D01*
X86102138Y-128389633D01*
X86004402Y-128370192D01*
X86004398Y-128370192D01*
X85906662Y-128389632D01*
X85886255Y-128403268D01*
X85819577Y-128424144D01*
X85752197Y-128405658D01*
X85728207Y-128382508D01*
X85726956Y-128383760D01*
X85676116Y-128332921D01*
X80096349Y-122753154D01*
X80062864Y-122691831D01*
X80060030Y-122665473D01*
X80060030Y-110490000D01*
X82819884Y-110490000D01*
X82839100Y-110685111D01*
X82896013Y-110872727D01*
X82961395Y-110995049D01*
X83451700Y-110504745D01*
X83451700Y-110538488D01*
X83476799Y-110632158D01*
X83525287Y-110716141D01*
X83593859Y-110784713D01*
X83677842Y-110833201D01*
X83771512Y-110858300D01*
X83805252Y-110858300D01*
X83314948Y-111348604D01*
X83437267Y-111413985D01*
X83624888Y-111470899D01*
X83820000Y-111490115D01*
X84015111Y-111470899D01*
X84202732Y-111413985D01*
X84375629Y-111321569D01*
X84380698Y-111318183D01*
X84381811Y-111319849D01*
X84437643Y-111296125D01*
X84506513Y-111307904D01*
X84558082Y-111355047D01*
X84575977Y-111422586D01*
X84566582Y-111466741D01*
X84509537Y-111604461D01*
X84509536Y-111604465D01*
X84489059Y-111759999D01*
X84489059Y-111760000D01*
X84509536Y-111915534D01*
X84509537Y-111915538D01*
X84566582Y-112053258D01*
X84574051Y-112122727D01*
X84542776Y-112185206D01*
X84482687Y-112220858D01*
X84412861Y-112218364D01*
X84381284Y-112200939D01*
X84380698Y-112201817D01*
X84375629Y-112198430D01*
X84202732Y-112106014D01*
X84015111Y-112049100D01*
X83820000Y-112029884D01*
X83624888Y-112049100D01*
X83437270Y-112106014D01*
X83314949Y-112171394D01*
X83314949Y-112171395D01*
X83805253Y-112661700D01*
X83771512Y-112661700D01*
X83677842Y-112686799D01*
X83593859Y-112735287D01*
X83525287Y-112803859D01*
X83476799Y-112887842D01*
X83451700Y-112981512D01*
X83451700Y-113015254D01*
X82961395Y-112524949D01*
X82961394Y-112524949D01*
X82896014Y-112647270D01*
X82839100Y-112834888D01*
X82819884Y-113030000D01*
X82839100Y-113225111D01*
X82896013Y-113412727D01*
X82961395Y-113535049D01*
X83451700Y-113044745D01*
X83451700Y-113078488D01*
X83476799Y-113172158D01*
X83525287Y-113256141D01*
X83593859Y-113324713D01*
X83677842Y-113373201D01*
X83771512Y-113398300D01*
X83805253Y-113398300D01*
X83314948Y-113888604D01*
X83437267Y-113953985D01*
X83624888Y-114010899D01*
X83820000Y-114030115D01*
X84015111Y-114010899D01*
X84202730Y-113953985D01*
X84325050Y-113888603D01*
X83834748Y-113398300D01*
X83868488Y-113398300D01*
X83962158Y-113373201D01*
X84046141Y-113324713D01*
X84114713Y-113256141D01*
X84163201Y-113172158D01*
X84188300Y-113078488D01*
X84188300Y-113044746D01*
X84678603Y-113535049D01*
X84743985Y-113412730D01*
X84800899Y-113225111D01*
X84820115Y-113030000D01*
X84800899Y-112834888D01*
X84743985Y-112647267D01*
X84651569Y-112474370D01*
X84648183Y-112469302D01*
X84649845Y-112468191D01*
X84626122Y-112412331D01*
X84637915Y-112343463D01*
X84685068Y-112291904D01*
X84752611Y-112274023D01*
X84796738Y-112283416D01*
X84934465Y-112340464D01*
X85071904Y-112358558D01*
X85089999Y-112360941D01*
X85090000Y-112360941D01*
X85090001Y-112360941D01*
X85106209Y-112358806D01*
X85245535Y-112340464D01*
X85383260Y-112283416D01*
X85452726Y-112275948D01*
X85515206Y-112307223D01*
X85550858Y-112367312D01*
X85548364Y-112437137D01*
X85530942Y-112468717D01*
X85531817Y-112469302D01*
X85528430Y-112474370D01*
X85436014Y-112647267D01*
X85379100Y-112834888D01*
X85359884Y-113030000D01*
X85379100Y-113225111D01*
X85436013Y-113412727D01*
X85501395Y-113535049D01*
X85991700Y-113044745D01*
X85991700Y-113078488D01*
X86016799Y-113172158D01*
X86065287Y-113256141D01*
X86133859Y-113324713D01*
X86217842Y-113373201D01*
X86311512Y-113398300D01*
X86345253Y-113398300D01*
X85854948Y-113888604D01*
X85977267Y-113953985D01*
X86164888Y-114010899D01*
X86360000Y-114030115D01*
X86555111Y-114010899D01*
X86742730Y-113953985D01*
X86865050Y-113888603D01*
X86374748Y-113398300D01*
X86408488Y-113398300D01*
X86502158Y-113373201D01*
X86586141Y-113324713D01*
X86654713Y-113256141D01*
X86703201Y-113172158D01*
X86728300Y-113078488D01*
X86728300Y-113044747D01*
X87218603Y-113535050D01*
X87283985Y-113412730D01*
X87340899Y-113225111D01*
X87360115Y-113030000D01*
X87340899Y-112834888D01*
X87283985Y-112647267D01*
X87218604Y-112524948D01*
X86728300Y-113015252D01*
X86728300Y-112981512D01*
X86703201Y-112887842D01*
X86654713Y-112803859D01*
X86586141Y-112735287D01*
X86502158Y-112686799D01*
X86408488Y-112661700D01*
X86374747Y-112661700D01*
X86865049Y-112171395D01*
X86742727Y-112106013D01*
X86555111Y-112049100D01*
X86360000Y-112029884D01*
X86164888Y-112049100D01*
X85977267Y-112106014D01*
X85804370Y-112198430D01*
X85799302Y-112201817D01*
X85798194Y-112200159D01*
X85742300Y-112223880D01*
X85673436Y-112212071D01*
X85621888Y-112164905D01*
X85604023Y-112097358D01*
X85613415Y-112053262D01*
X85670464Y-111915535D01*
X85690941Y-111760000D01*
X85670464Y-111604465D01*
X85613416Y-111466741D01*
X85605948Y-111397272D01*
X85637223Y-111334793D01*
X85697312Y-111299141D01*
X85767137Y-111301635D01*
X85798715Y-111319060D01*
X85799302Y-111318183D01*
X85804370Y-111321569D01*
X85977267Y-111413985D01*
X86164888Y-111470899D01*
X86360000Y-111490115D01*
X86555111Y-111470899D01*
X86742730Y-111413985D01*
X86865050Y-111348603D01*
X86374747Y-110858300D01*
X86408488Y-110858300D01*
X86502158Y-110833201D01*
X86586141Y-110784713D01*
X86654713Y-110716141D01*
X86703201Y-110632158D01*
X86728300Y-110538488D01*
X86728300Y-110504747D01*
X87218603Y-110995050D01*
X87283985Y-110872730D01*
X87340899Y-110685111D01*
X87360115Y-110490000D01*
X87340899Y-110294888D01*
X87283985Y-110107267D01*
X87218604Y-109984948D01*
X86728300Y-110475252D01*
X86728300Y-110441512D01*
X86703201Y-110347842D01*
X86654713Y-110263859D01*
X86586141Y-110195287D01*
X86502158Y-110146799D01*
X86408488Y-110121700D01*
X86374747Y-110121700D01*
X86865049Y-109631395D01*
X86742727Y-109566013D01*
X86555111Y-109509100D01*
X86360000Y-109489884D01*
X86164888Y-109509100D01*
X85977270Y-109566014D01*
X85854949Y-109631394D01*
X85854949Y-109631395D01*
X86345254Y-110121700D01*
X86311512Y-110121700D01*
X86217842Y-110146799D01*
X86133859Y-110195287D01*
X86065287Y-110263859D01*
X86016799Y-110347842D01*
X85991700Y-110441512D01*
X85991700Y-110475253D01*
X85501395Y-109984949D01*
X85501394Y-109984949D01*
X85436014Y-110107270D01*
X85379100Y-110294888D01*
X85359884Y-110490000D01*
X85379100Y-110685111D01*
X85436014Y-110872732D01*
X85528430Y-111045629D01*
X85531817Y-111050698D01*
X85530154Y-111051808D01*
X85553877Y-111107674D01*
X85542082Y-111176541D01*
X85494926Y-111228098D01*
X85427383Y-111245976D01*
X85383258Y-111236582D01*
X85245538Y-111179537D01*
X85245536Y-111179536D01*
X85245535Y-111179536D01*
X85167767Y-111169297D01*
X85090001Y-111159059D01*
X85089999Y-111159059D01*
X84934465Y-111179536D01*
X84934461Y-111179537D01*
X84796741Y-111236582D01*
X84727272Y-111244051D01*
X84664793Y-111212775D01*
X84629141Y-111152686D01*
X84631635Y-111082861D01*
X84649063Y-111051286D01*
X84648183Y-111050698D01*
X84651569Y-111045629D01*
X84743985Y-110872732D01*
X84800899Y-110685111D01*
X84820115Y-110490000D01*
X84800899Y-110294888D01*
X84743985Y-110107267D01*
X84678604Y-109984948D01*
X84188300Y-110475252D01*
X84188300Y-110441512D01*
X84163201Y-110347842D01*
X84114713Y-110263859D01*
X84046141Y-110195287D01*
X83962158Y-110146799D01*
X83868488Y-110121700D01*
X83834747Y-110121700D01*
X84325049Y-109631395D01*
X84202727Y-109566013D01*
X84015111Y-109509100D01*
X83820000Y-109489884D01*
X83624888Y-109509100D01*
X83437270Y-109566014D01*
X83314949Y-109631394D01*
X83314949Y-109631395D01*
X83805254Y-110121700D01*
X83771512Y-110121700D01*
X83677842Y-110146799D01*
X83593859Y-110195287D01*
X83525287Y-110263859D01*
X83476799Y-110347842D01*
X83451700Y-110441512D01*
X83451700Y-110475254D01*
X82961395Y-109984949D01*
X82961394Y-109984949D01*
X82896014Y-110107270D01*
X82839100Y-110294888D01*
X82819884Y-110490000D01*
X80060030Y-110490000D01*
X80060030Y-102870000D01*
X82819884Y-102870000D01*
X82839100Y-103065111D01*
X82896013Y-103252727D01*
X82961395Y-103375049D01*
X83451700Y-102884745D01*
X83451700Y-102918488D01*
X83476799Y-103012158D01*
X83525287Y-103096141D01*
X83593859Y-103164713D01*
X83677842Y-103213201D01*
X83771512Y-103238300D01*
X83805252Y-103238300D01*
X83314948Y-103728604D01*
X83437267Y-103793985D01*
X83624888Y-103850899D01*
X83820000Y-103870115D01*
X84015111Y-103850899D01*
X84202732Y-103793985D01*
X84375629Y-103701569D01*
X84380698Y-103698183D01*
X84381811Y-103699849D01*
X84437643Y-103676125D01*
X84506513Y-103687904D01*
X84558082Y-103735047D01*
X84575977Y-103802586D01*
X84566582Y-103846741D01*
X84509537Y-103984461D01*
X84509536Y-103984465D01*
X84489059Y-104139999D01*
X84489059Y-104140000D01*
X84509536Y-104295534D01*
X84509537Y-104295538D01*
X84566582Y-104433258D01*
X84574051Y-104502727D01*
X84542776Y-104565206D01*
X84482687Y-104600858D01*
X84412861Y-104598364D01*
X84381284Y-104580939D01*
X84380698Y-104581817D01*
X84375629Y-104578430D01*
X84202732Y-104486014D01*
X84015111Y-104429100D01*
X83820000Y-104409884D01*
X83624888Y-104429100D01*
X83437270Y-104486014D01*
X83314949Y-104551394D01*
X83314949Y-104551395D01*
X83805253Y-105041700D01*
X83771512Y-105041700D01*
X83677842Y-105066799D01*
X83593859Y-105115287D01*
X83525287Y-105183859D01*
X83476799Y-105267842D01*
X83451700Y-105361512D01*
X83451700Y-105395254D01*
X82961395Y-104904949D01*
X82961394Y-104904949D01*
X82896014Y-105027270D01*
X82839100Y-105214888D01*
X82819884Y-105410000D01*
X82839100Y-105605111D01*
X82896013Y-105792727D01*
X82961395Y-105915049D01*
X83451700Y-105424745D01*
X83451700Y-105458488D01*
X83476799Y-105552158D01*
X83525287Y-105636141D01*
X83593859Y-105704713D01*
X83677842Y-105753201D01*
X83771512Y-105778300D01*
X83805253Y-105778300D01*
X83314948Y-106268604D01*
X83437267Y-106333985D01*
X83624888Y-106390899D01*
X83820000Y-106410115D01*
X84015111Y-106390899D01*
X84202730Y-106333985D01*
X84325050Y-106268603D01*
X83834748Y-105778300D01*
X83868488Y-105778300D01*
X83962158Y-105753201D01*
X84046141Y-105704713D01*
X84114713Y-105636141D01*
X84163201Y-105552158D01*
X84188300Y-105458488D01*
X84188300Y-105424746D01*
X84678603Y-105915049D01*
X84743985Y-105792730D01*
X84800899Y-105605111D01*
X84820115Y-105410000D01*
X84800899Y-105214888D01*
X84743985Y-105027267D01*
X84651569Y-104854370D01*
X84648183Y-104849302D01*
X84649845Y-104848191D01*
X84626122Y-104792331D01*
X84637915Y-104723463D01*
X84685068Y-104671904D01*
X84752611Y-104654023D01*
X84796738Y-104663416D01*
X84934465Y-104720464D01*
X85071904Y-104738558D01*
X85089999Y-104740941D01*
X85090000Y-104740941D01*
X85090001Y-104740941D01*
X85106209Y-104738806D01*
X85245535Y-104720464D01*
X85383260Y-104663416D01*
X85452726Y-104655948D01*
X85515206Y-104687223D01*
X85550858Y-104747312D01*
X85548364Y-104817137D01*
X85530942Y-104848717D01*
X85531817Y-104849302D01*
X85528430Y-104854370D01*
X85436014Y-105027267D01*
X85379100Y-105214888D01*
X85359884Y-105410000D01*
X85379100Y-105605111D01*
X85436013Y-105792727D01*
X85501395Y-105915049D01*
X85991700Y-105424745D01*
X85991700Y-105458488D01*
X86016799Y-105552158D01*
X86065287Y-105636141D01*
X86133859Y-105704713D01*
X86217842Y-105753201D01*
X86311512Y-105778300D01*
X86345253Y-105778300D01*
X85854948Y-106268604D01*
X85977267Y-106333985D01*
X86164888Y-106390899D01*
X86360000Y-106410115D01*
X86555111Y-106390899D01*
X86742730Y-106333985D01*
X86865050Y-106268603D01*
X86374748Y-105778300D01*
X86408488Y-105778300D01*
X86502158Y-105753201D01*
X86586141Y-105704713D01*
X86654713Y-105636141D01*
X86703201Y-105552158D01*
X86728300Y-105458488D01*
X86728300Y-105424747D01*
X87218603Y-105915050D01*
X87283985Y-105792730D01*
X87340899Y-105605111D01*
X87360115Y-105410000D01*
X87340899Y-105214888D01*
X87283985Y-105027267D01*
X87218604Y-104904948D01*
X86728300Y-105395252D01*
X86728300Y-105361512D01*
X86703201Y-105267842D01*
X86654713Y-105183859D01*
X86586141Y-105115287D01*
X86502158Y-105066799D01*
X86408488Y-105041700D01*
X86374747Y-105041700D01*
X86865049Y-104551395D01*
X86742727Y-104486013D01*
X86555111Y-104429100D01*
X86360000Y-104409884D01*
X86164888Y-104429100D01*
X85977267Y-104486014D01*
X85804370Y-104578430D01*
X85799302Y-104581817D01*
X85798194Y-104580159D01*
X85742300Y-104603880D01*
X85673436Y-104592071D01*
X85621888Y-104544905D01*
X85604023Y-104477358D01*
X85613415Y-104433262D01*
X85670464Y-104295535D01*
X85690941Y-104140000D01*
X85670464Y-103984465D01*
X85613416Y-103846741D01*
X85605948Y-103777272D01*
X85637223Y-103714793D01*
X85697312Y-103679141D01*
X85767137Y-103681635D01*
X85798715Y-103699060D01*
X85799302Y-103698183D01*
X85804370Y-103701569D01*
X85977267Y-103793985D01*
X86164888Y-103850899D01*
X86360000Y-103870115D01*
X86555111Y-103850899D01*
X86742730Y-103793985D01*
X86865050Y-103728603D01*
X86374747Y-103238300D01*
X86408488Y-103238300D01*
X86502158Y-103213201D01*
X86586141Y-103164713D01*
X86654713Y-103096141D01*
X86703201Y-103012158D01*
X86728300Y-102918488D01*
X86728300Y-102884747D01*
X87218603Y-103375050D01*
X87283985Y-103252730D01*
X87340899Y-103065111D01*
X87360115Y-102870000D01*
X87340899Y-102674888D01*
X87283985Y-102487267D01*
X87218604Y-102364948D01*
X86728300Y-102855252D01*
X86728300Y-102821512D01*
X86703201Y-102727842D01*
X86654713Y-102643859D01*
X86586141Y-102575287D01*
X86502158Y-102526799D01*
X86408488Y-102501700D01*
X86374747Y-102501700D01*
X86865049Y-102011395D01*
X86742727Y-101946013D01*
X86555111Y-101889100D01*
X86360000Y-101869884D01*
X86164888Y-101889100D01*
X85977270Y-101946014D01*
X85854949Y-102011394D01*
X85854949Y-102011395D01*
X86345254Y-102501700D01*
X86311512Y-102501700D01*
X86217842Y-102526799D01*
X86133859Y-102575287D01*
X86065287Y-102643859D01*
X86016799Y-102727842D01*
X85991700Y-102821512D01*
X85991700Y-102855253D01*
X85501395Y-102364949D01*
X85501394Y-102364949D01*
X85436014Y-102487270D01*
X85379100Y-102674888D01*
X85359884Y-102870000D01*
X85379100Y-103065111D01*
X85436014Y-103252732D01*
X85528430Y-103425629D01*
X85531817Y-103430698D01*
X85530154Y-103431808D01*
X85553877Y-103487674D01*
X85542082Y-103556541D01*
X85494926Y-103608098D01*
X85427383Y-103625976D01*
X85383258Y-103616582D01*
X85245538Y-103559537D01*
X85245536Y-103559536D01*
X85245535Y-103559536D01*
X85167767Y-103549297D01*
X85090001Y-103539059D01*
X85089999Y-103539059D01*
X84934465Y-103559536D01*
X84934461Y-103559537D01*
X84796741Y-103616582D01*
X84727272Y-103624051D01*
X84664793Y-103592775D01*
X84629141Y-103532686D01*
X84631635Y-103462861D01*
X84649063Y-103431286D01*
X84648183Y-103430698D01*
X84651569Y-103425629D01*
X84743985Y-103252732D01*
X84800899Y-103065111D01*
X84820115Y-102870000D01*
X84800899Y-102674888D01*
X84743985Y-102487267D01*
X84678604Y-102364948D01*
X84188300Y-102855252D01*
X84188300Y-102821512D01*
X84163201Y-102727842D01*
X84114713Y-102643859D01*
X84046141Y-102575287D01*
X83962158Y-102526799D01*
X83868488Y-102501700D01*
X83834747Y-102501700D01*
X84325049Y-102011395D01*
X84202727Y-101946013D01*
X84015111Y-101889100D01*
X83820000Y-101869884D01*
X83624888Y-101889100D01*
X83437270Y-101946014D01*
X83314949Y-102011394D01*
X83314949Y-102011395D01*
X83805254Y-102501700D01*
X83771512Y-102501700D01*
X83677842Y-102526799D01*
X83593859Y-102575287D01*
X83525287Y-102643859D01*
X83476799Y-102727842D01*
X83451700Y-102821512D01*
X83451700Y-102855254D01*
X82961395Y-102364949D01*
X82961394Y-102364949D01*
X82896014Y-102487270D01*
X82839100Y-102674888D01*
X82819884Y-102870000D01*
X80060030Y-102870000D01*
X80060030Y-102503506D01*
X80079715Y-102436467D01*
X80096349Y-102415825D01*
X82726506Y-99785669D01*
X82787829Y-99752184D01*
X82814187Y-99749350D01*
X84482500Y-99749350D01*
X84549539Y-99769035D01*
X84556322Y-99774501D01*
X84564434Y-99779921D01*
X84647295Y-99835286D01*
X84650714Y-99835966D01*
X84745033Y-99854728D01*
X84745035Y-99854728D01*
X84745037Y-99854728D01*
X84793905Y-99845007D01*
X84842775Y-99835286D01*
X84925636Y-99779921D01*
X84981001Y-99697060D01*
X84996682Y-99618230D01*
X85000443Y-99599322D01*
X85000443Y-99599317D01*
X84981001Y-99501581D01*
X84981001Y-99501580D01*
X84925636Y-99418719D01*
X84842775Y-99363354D01*
X84842774Y-99363353D01*
X84842773Y-99363353D01*
X84745037Y-99343912D01*
X84745033Y-99343912D01*
X84647296Y-99363353D01*
X84554279Y-99425504D01*
X84552394Y-99422683D01*
X84508858Y-99446456D01*
X84482500Y-99449290D01*
X83553592Y-99449290D01*
X83486553Y-99429605D01*
X83440798Y-99376801D01*
X83430854Y-99307643D01*
X83450488Y-99256402D01*
X83496366Y-99187740D01*
X83515808Y-99090000D01*
X83515808Y-99089997D01*
X83496366Y-98992260D01*
X83496366Y-98992259D01*
X83463713Y-98943390D01*
X83442835Y-98876713D01*
X83461320Y-98809333D01*
X83513299Y-98762643D01*
X83566815Y-98750500D01*
X84443806Y-98750500D01*
X84510845Y-98770185D01*
X84546908Y-98805610D01*
X84587552Y-98866439D01*
X84587553Y-98866439D01*
X84587554Y-98866441D01*
X84670415Y-98921806D01*
X84702995Y-98928286D01*
X84768153Y-98941248D01*
X84768155Y-98941248D01*
X84768157Y-98941248D01*
X84817025Y-98931527D01*
X84865895Y-98921806D01*
X84948756Y-98866441D01*
X85004121Y-98783580D01*
X85023563Y-98685840D01*
X85023563Y-98685837D01*
X85004121Y-98588101D01*
X85004121Y-98588100D01*
X84948756Y-98505239D01*
X84865895Y-98449874D01*
X84865894Y-98449873D01*
X84865893Y-98449873D01*
X84768157Y-98430432D01*
X84768154Y-98430432D01*
X84679550Y-98448057D01*
X84655358Y-98450440D01*
X83593442Y-98450440D01*
X83526403Y-98430755D01*
X83480648Y-98377951D01*
X83470704Y-98308793D01*
X83490339Y-98257551D01*
X83493021Y-98253534D01*
X83496366Y-98248530D01*
X83502846Y-98215950D01*
X83515808Y-98150792D01*
X83515808Y-98150789D01*
X83500122Y-98071932D01*
X83506349Y-98002340D01*
X83549212Y-97947163D01*
X83615101Y-97923918D01*
X83621739Y-97923740D01*
X84505620Y-97923740D01*
X84572659Y-97943425D01*
X84579442Y-97948891D01*
X84587554Y-97954311D01*
X84670415Y-98009676D01*
X84702995Y-98016156D01*
X84768153Y-98029118D01*
X84768155Y-98029118D01*
X84768157Y-98029118D01*
X84817025Y-98019397D01*
X84865895Y-98009676D01*
X84948756Y-97954311D01*
X85004121Y-97871450D01*
X85023563Y-97773710D01*
X85023563Y-97773707D01*
X85004121Y-97675971D01*
X85004121Y-97675970D01*
X84948756Y-97593109D01*
X84865895Y-97537744D01*
X84865894Y-97537743D01*
X84865893Y-97537743D01*
X84768157Y-97518302D01*
X84768153Y-97518302D01*
X84670416Y-97537743D01*
X84577399Y-97599894D01*
X84575514Y-97597073D01*
X84531978Y-97620846D01*
X84505620Y-97623680D01*
X83577379Y-97623680D01*
X83510340Y-97603995D01*
X83464585Y-97551191D01*
X83454641Y-97482033D01*
X83474276Y-97430790D01*
X83479381Y-97423150D01*
X83496366Y-97397730D01*
X83510752Y-97325407D01*
X83515808Y-97299992D01*
X83515808Y-97299989D01*
X83515548Y-97298682D01*
X83515808Y-97295776D01*
X83515808Y-97287777D01*
X83516524Y-97287777D01*
X83521775Y-97229090D01*
X83564638Y-97173913D01*
X83630528Y-97150668D01*
X83637165Y-97150490D01*
X84626432Y-97150490D01*
X84649280Y-97150490D01*
X84673472Y-97152873D01*
X84745034Y-97167108D01*
X84745035Y-97167108D01*
X84745037Y-97167108D01*
X84793905Y-97157387D01*
X84842775Y-97147666D01*
X84925636Y-97092301D01*
X84981001Y-97009440D01*
X84998348Y-96922232D01*
X85000443Y-96911702D01*
X85000443Y-96911697D01*
X84983096Y-96824491D01*
X84981001Y-96813960D01*
X84925636Y-96731099D01*
X84842775Y-96675734D01*
X84842774Y-96675733D01*
X84842773Y-96675733D01*
X84745037Y-96656292D01*
X84745033Y-96656292D01*
X84647296Y-96675733D01*
X84597833Y-96708783D01*
X84564434Y-96731099D01*
X84539546Y-96768348D01*
X84521524Y-96795320D01*
X84467911Y-96840126D01*
X84418421Y-96850430D01*
X83559499Y-96850430D01*
X83492460Y-96830745D01*
X83446705Y-96777941D01*
X83436761Y-96708783D01*
X83456396Y-96657540D01*
X83457230Y-96656292D01*
X83496366Y-96597720D01*
X83515808Y-96499980D01*
X83515808Y-96499977D01*
X83495434Y-96397551D01*
X83501661Y-96327960D01*
X83544524Y-96272782D01*
X83610414Y-96249538D01*
X83617051Y-96249360D01*
X84482500Y-96249360D01*
X84549539Y-96269045D01*
X84556322Y-96274511D01*
X84564434Y-96279931D01*
X84647295Y-96335296D01*
X84679875Y-96341776D01*
X84745033Y-96354738D01*
X84745035Y-96354738D01*
X84745037Y-96354738D01*
X84793905Y-96345017D01*
X84842775Y-96335296D01*
X84925636Y-96279931D01*
X84981001Y-96197070D01*
X85000443Y-96099330D01*
X85000443Y-96099327D01*
X84981001Y-96001591D01*
X84981001Y-96001590D01*
X84925636Y-95918729D01*
X84842775Y-95863364D01*
X84842774Y-95863363D01*
X84842773Y-95863363D01*
X84745037Y-95843922D01*
X84745033Y-95843922D01*
X84647296Y-95863363D01*
X84554279Y-95925514D01*
X84552394Y-95922693D01*
X84508858Y-95946466D01*
X84482500Y-95949300D01*
X83632522Y-95949300D01*
X83565483Y-95929615D01*
X83519728Y-95876811D01*
X83509784Y-95807653D01*
X83510905Y-95801108D01*
X83521073Y-95749990D01*
X83521073Y-95749989D01*
X83520813Y-95748682D01*
X83521073Y-95745776D01*
X83521073Y-95737777D01*
X83521789Y-95737777D01*
X83527040Y-95679090D01*
X83569903Y-95623913D01*
X83635793Y-95600668D01*
X83642430Y-95600490D01*
X84641382Y-95600490D01*
X84641383Y-95600490D01*
X84696525Y-95577649D01*
X84696525Y-95577648D01*
X84699185Y-95576547D01*
X84746639Y-95567108D01*
X84750301Y-95567108D01*
X84786335Y-95559940D01*
X84848040Y-95547666D01*
X84930901Y-95492301D01*
X84986266Y-95409440D01*
X84995987Y-95360570D01*
X85005708Y-95311702D01*
X85005708Y-95311697D01*
X84988239Y-95223881D01*
X84986266Y-95213960D01*
X84930901Y-95131099D01*
X84848040Y-95075734D01*
X84848039Y-95075733D01*
X84848038Y-95075733D01*
X84750302Y-95056292D01*
X84750298Y-95056292D01*
X84652561Y-95075733D01*
X84569699Y-95131099D01*
X84514334Y-95213960D01*
X84510225Y-95223881D01*
X84466385Y-95278285D01*
X84400091Y-95300351D01*
X84395663Y-95300430D01*
X83525779Y-95300430D01*
X83458740Y-95280745D01*
X83412985Y-95227941D01*
X83403041Y-95158783D01*
X83432066Y-95095227D01*
X83438098Y-95088749D01*
X83446263Y-95080583D01*
X83446262Y-95080583D01*
X83446266Y-95080581D01*
X83501631Y-94997720D01*
X83511352Y-94948850D01*
X83521073Y-94899982D01*
X83521073Y-94899977D01*
X83501631Y-94802241D01*
X83501631Y-94802240D01*
X83446266Y-94719379D01*
X83363405Y-94664014D01*
X83363404Y-94664013D01*
X83363403Y-94664013D01*
X83265667Y-94644572D01*
X83265663Y-94644572D01*
X83167926Y-94664013D01*
X83085064Y-94719379D01*
X83029698Y-94802241D01*
X83010257Y-94899977D01*
X83010257Y-94899982D01*
X83029698Y-94997718D01*
X83029698Y-94997719D01*
X83029699Y-94997720D01*
X83085064Y-95080581D01*
X83085065Y-95080581D01*
X83085066Y-95080583D01*
X83093232Y-95088749D01*
X83126717Y-95150072D01*
X83121733Y-95219764D01*
X83079861Y-95275697D01*
X83014397Y-95300114D01*
X83005551Y-95300430D01*
X82889013Y-95300430D01*
X82829327Y-95300430D01*
X82829325Y-95300430D01*
X82829323Y-95300431D01*
X82774190Y-95323267D01*
X82774182Y-95323272D01*
X78988681Y-99108774D01*
X78927358Y-99142259D01*
X78857666Y-99137275D01*
X78813319Y-99108774D01*
X74977827Y-95273282D01*
X74922683Y-95250440D01*
X74635787Y-95250440D01*
X74568748Y-95230755D01*
X74522993Y-95177951D01*
X74513049Y-95108793D01*
X74532685Y-95057550D01*
X74565966Y-95007740D01*
X74565966Y-95007739D01*
X74567960Y-94997718D01*
X74585408Y-94910000D01*
X74585408Y-94909997D01*
X74565966Y-94812261D01*
X74565966Y-94812260D01*
X74510601Y-94729399D01*
X74427740Y-94674034D01*
X74427739Y-94674033D01*
X74427738Y-94674033D01*
X74330002Y-94654592D01*
X74329998Y-94654592D01*
X74232261Y-94674033D01*
X74149399Y-94729399D01*
X74094033Y-94812261D01*
X74074592Y-94909997D01*
X74074592Y-94910002D01*
X74094033Y-95007739D01*
X74094033Y-95007740D01*
X74127315Y-95057550D01*
X74148193Y-95124227D01*
X74129708Y-95191607D01*
X74077729Y-95238297D01*
X74024213Y-95250440D01*
X73195360Y-95250440D01*
X73128321Y-95230755D01*
X73092257Y-95195330D01*
X73058501Y-95144809D01*
X72975640Y-95089444D01*
X72975639Y-95089443D01*
X72975638Y-95089443D01*
X72877902Y-95070002D01*
X72877898Y-95070002D01*
X72780161Y-95089443D01*
X72697299Y-95144809D01*
X72641933Y-95227671D01*
X72622492Y-95325407D01*
X72622492Y-95325412D01*
X72641933Y-95423148D01*
X72641933Y-95423149D01*
X72641934Y-95423150D01*
X72697299Y-95506011D01*
X72780160Y-95561376D01*
X72808976Y-95567108D01*
X72877898Y-95580818D01*
X72877900Y-95580818D01*
X72877902Y-95580818D01*
X72975635Y-95561377D01*
X72975635Y-95561376D01*
X72975640Y-95561376D01*
X72975644Y-95561373D01*
X72979106Y-95559940D01*
X73026562Y-95550500D01*
X73951935Y-95550500D01*
X74018974Y-95570185D01*
X74064729Y-95622989D01*
X74074673Y-95692147D01*
X74073552Y-95698692D01*
X74073292Y-95699999D01*
X74073292Y-95700002D01*
X74091034Y-95789199D01*
X74084807Y-95858791D01*
X74041943Y-95913968D01*
X73976054Y-95937212D01*
X73969417Y-95937390D01*
X73140435Y-95937390D01*
X73073396Y-95917705D01*
X73066612Y-95912238D01*
X72993463Y-95863363D01*
X72975640Y-95851454D01*
X72975639Y-95851453D01*
X72975638Y-95851453D01*
X72877902Y-95832012D01*
X72877898Y-95832012D01*
X72780161Y-95851453D01*
X72697299Y-95906819D01*
X72641933Y-95989681D01*
X72622492Y-96087417D01*
X72622492Y-96087422D01*
X72641933Y-96185158D01*
X72641933Y-96185159D01*
X72641934Y-96185160D01*
X72697299Y-96268021D01*
X72780160Y-96323386D01*
X72803155Y-96327960D01*
X72877898Y-96342828D01*
X72877900Y-96342828D01*
X72877902Y-96342828D01*
X72931340Y-96332198D01*
X72975640Y-96323386D01*
X73054612Y-96270619D01*
X73068656Y-96261236D01*
X73070540Y-96264056D01*
X73114077Y-96240284D01*
X73140435Y-96237450D01*
X73980723Y-96237450D01*
X74047762Y-96257135D01*
X74093517Y-96309939D01*
X74103461Y-96379097D01*
X74095284Y-96408903D01*
X74092732Y-96415062D01*
X74073292Y-96512796D01*
X74073292Y-96512801D01*
X74095116Y-96622517D01*
X74091104Y-96623314D01*
X74096147Y-96670217D01*
X74064872Y-96732696D01*
X74004783Y-96768348D01*
X73974117Y-96772200D01*
X73140435Y-96772200D01*
X73073396Y-96752515D01*
X73066612Y-96747048D01*
X72986320Y-96693400D01*
X72975640Y-96686264D01*
X72975639Y-96686263D01*
X72975638Y-96686263D01*
X72877902Y-96666822D01*
X72877898Y-96666822D01*
X72780161Y-96686263D01*
X72697299Y-96741629D01*
X72641933Y-96824491D01*
X72622492Y-96922227D01*
X72622492Y-96922232D01*
X72641933Y-97019968D01*
X72641933Y-97019969D01*
X72641934Y-97019970D01*
X72697299Y-97102831D01*
X72780160Y-97158196D01*
X72812740Y-97164676D01*
X72877898Y-97177638D01*
X72877900Y-97177638D01*
X72877902Y-97177638D01*
X72930837Y-97167108D01*
X72975640Y-97158196D01*
X73058501Y-97102831D01*
X73058500Y-97102831D01*
X73068656Y-97096046D01*
X73070540Y-97098866D01*
X73114077Y-97075094D01*
X73140435Y-97072260D01*
X73978752Y-97072260D01*
X74045791Y-97091945D01*
X74091546Y-97144749D01*
X74101490Y-97213907D01*
X74100369Y-97220451D01*
X74079492Y-97325407D01*
X74079492Y-97325412D01*
X74098933Y-97423148D01*
X74121612Y-97457090D01*
X74142489Y-97523767D01*
X74124004Y-97591147D01*
X74072025Y-97637837D01*
X74018509Y-97649980D01*
X73076352Y-97649980D01*
X73009313Y-97630295D01*
X73007463Y-97629083D01*
X72977739Y-97609223D01*
X72880002Y-97589782D01*
X72879998Y-97589782D01*
X72782261Y-97609223D01*
X72699399Y-97664589D01*
X72644033Y-97747451D01*
X72624592Y-97845187D01*
X72624592Y-97845192D01*
X72644033Y-97942928D01*
X72644033Y-97942929D01*
X72644034Y-97942930D01*
X72699399Y-98025791D01*
X72782260Y-98081156D01*
X72814840Y-98087636D01*
X72879998Y-98100598D01*
X72880000Y-98100598D01*
X72880002Y-98100598D01*
X72928870Y-98090877D01*
X72977740Y-98081156D01*
X73060601Y-98025791D01*
X73070115Y-98011551D01*
X73074393Y-98005150D01*
X73128005Y-97960344D01*
X73177496Y-97950040D01*
X73965827Y-97950040D01*
X74032866Y-97969725D01*
X74078621Y-98022529D01*
X74088565Y-98091687D01*
X74087444Y-98098231D01*
X74079492Y-98138207D01*
X74079492Y-98138212D01*
X74098933Y-98235948D01*
X74098933Y-98235949D01*
X74098934Y-98235950D01*
X74154299Y-98318811D01*
X74237160Y-98374176D01*
X74256138Y-98377951D01*
X74334898Y-98393618D01*
X74334900Y-98393618D01*
X74334902Y-98393618D01*
X74383770Y-98383897D01*
X74432640Y-98374176D01*
X74515501Y-98318811D01*
X74516238Y-98317706D01*
X74518471Y-98315840D01*
X74524137Y-98310175D01*
X74524643Y-98310681D01*
X74569842Y-98272899D01*
X74639166Y-98264185D01*
X74702197Y-98294333D01*
X74707025Y-98298909D01*
X77905671Y-101497555D01*
X77939156Y-101558878D01*
X77941990Y-101585236D01*
X77941990Y-102656953D01*
X77922305Y-102723992D01*
X77869501Y-102769747D01*
X77800343Y-102779691D01*
X77736787Y-102750666D01*
X77730309Y-102744634D01*
X76117636Y-101131961D01*
X74487798Y-99502124D01*
X74454314Y-99440802D01*
X74459298Y-99371110D01*
X74501170Y-99315177D01*
X74506558Y-99311364D01*
X74507701Y-99310601D01*
X74563066Y-99227740D01*
X74575151Y-99166987D01*
X74582508Y-99130002D01*
X74582508Y-99129997D01*
X74563066Y-99032261D01*
X74563066Y-99032260D01*
X74507701Y-98949399D01*
X74424840Y-98894034D01*
X74424839Y-98894033D01*
X74424838Y-98894033D01*
X74327102Y-98874592D01*
X74327098Y-98874592D01*
X74229361Y-98894033D01*
X74146498Y-98949399D01*
X74145755Y-98950513D01*
X74143503Y-98952394D01*
X74137863Y-98958035D01*
X74137358Y-98957530D01*
X74092141Y-98995316D01*
X74022815Y-99004021D01*
X73959789Y-98973863D01*
X73954974Y-98969299D01*
X73538487Y-98552812D01*
X73483343Y-98529970D01*
X73142535Y-98529970D01*
X73075496Y-98510285D01*
X73068712Y-98504818D01*
X72986480Y-98449874D01*
X72977740Y-98444034D01*
X72977739Y-98444033D01*
X72977738Y-98444033D01*
X72880002Y-98424592D01*
X72879998Y-98424592D01*
X72782261Y-98444033D01*
X72699399Y-98499399D01*
X72644033Y-98582261D01*
X72624592Y-98679997D01*
X72624592Y-98680002D01*
X72644033Y-98777738D01*
X72644033Y-98777739D01*
X72644034Y-98777740D01*
X72699399Y-98860601D01*
X72782260Y-98915966D01*
X72811619Y-98921806D01*
X72879998Y-98935408D01*
X72880000Y-98935408D01*
X72880002Y-98935408D01*
X72928870Y-98925687D01*
X72977740Y-98915966D01*
X73060601Y-98860601D01*
X73060600Y-98860601D01*
X73070756Y-98853816D01*
X73072640Y-98856636D01*
X73116177Y-98832864D01*
X73142535Y-98830030D01*
X73339994Y-98830030D01*
X73407033Y-98849715D01*
X73427674Y-98866348D01*
X77627175Y-103065850D01*
X77666383Y-103082090D01*
X77720785Y-103125930D01*
X77742851Y-103192224D01*
X77742930Y-103196651D01*
X77742930Y-103942294D01*
X77723245Y-104009333D01*
X77670441Y-104055088D01*
X77601283Y-104065032D01*
X77537727Y-104036007D01*
X77531249Y-104029975D01*
X73180827Y-99679553D01*
X73147342Y-99618230D01*
X73146409Y-99609559D01*
X73144372Y-99599320D01*
X73125066Y-99502260D01*
X73069701Y-99419399D01*
X72986840Y-99364034D01*
X72986839Y-99364033D01*
X72986838Y-99364033D01*
X72889102Y-99344592D01*
X72889098Y-99344592D01*
X72791361Y-99364033D01*
X72708499Y-99419399D01*
X72653133Y-99502261D01*
X72633692Y-99599997D01*
X72633692Y-99600002D01*
X72653133Y-99697738D01*
X72653133Y-99697739D01*
X72653134Y-99697740D01*
X72708499Y-99780601D01*
X72791360Y-99835966D01*
X72847284Y-99847090D01*
X72901079Y-99857791D01*
X72900417Y-99861117D01*
X72948011Y-99875093D01*
X72968653Y-99891727D01*
X77507551Y-104430625D01*
X77541036Y-104491948D01*
X77543870Y-104518306D01*
X77543870Y-131082193D01*
X77524185Y-131149232D01*
X77507551Y-131169874D01*
X77041552Y-131635873D01*
X76980229Y-131669358D01*
X76971558Y-131670290D01*
X76864261Y-131691633D01*
X76781399Y-131746999D01*
X76726033Y-131829861D01*
X76706592Y-131927597D01*
X76706592Y-131927602D01*
X76726033Y-132025338D01*
X76726033Y-132025339D01*
X76726034Y-132025340D01*
X76781399Y-132108201D01*
X76864260Y-132163566D01*
X76888431Y-132168374D01*
X76961998Y-132183008D01*
X76962000Y-132183008D01*
X76962002Y-132183008D01*
X77014183Y-132172628D01*
X77059740Y-132163566D01*
X77142601Y-132108201D01*
X77194969Y-132029825D01*
X77248579Y-131985022D01*
X77317904Y-131976313D01*
X77380932Y-132006468D01*
X77417651Y-132065910D01*
X77422070Y-132098717D01*
X77422070Y-135149457D01*
X77422070Y-135209143D01*
X77444911Y-135264285D01*
X77584674Y-135404048D01*
X77618158Y-135465369D01*
X77619090Y-135474043D01*
X77640433Y-135581338D01*
X77640433Y-135581339D01*
X77640434Y-135581340D01*
X77695799Y-135664201D01*
X77778660Y-135719566D01*
X77811240Y-135726046D01*
X77876398Y-135739008D01*
X77876400Y-135739008D01*
X77876402Y-135739008D01*
X77925270Y-135729287D01*
X77974140Y-135719566D01*
X78057001Y-135664201D01*
X78112366Y-135581340D01*
X78112367Y-135581336D01*
X78117040Y-135570057D01*
X78120438Y-135571464D01*
X78142964Y-135528398D01*
X78203679Y-135493822D01*
X78273448Y-135497559D01*
X78330122Y-135538423D01*
X78345012Y-135571029D01*
X78347360Y-135570057D01*
X78352032Y-135581336D01*
X78352033Y-135581338D01*
X78352034Y-135581340D01*
X78407399Y-135664201D01*
X78490260Y-135719566D01*
X78522840Y-135726046D01*
X78587998Y-135739008D01*
X78588000Y-135739008D01*
X78588002Y-135739008D01*
X78636870Y-135729287D01*
X78685740Y-135719566D01*
X78768601Y-135664201D01*
X78823966Y-135581340D01*
X78838055Y-135510513D01*
X78843408Y-135483602D01*
X78843408Y-135483597D01*
X78827583Y-135404046D01*
X78823966Y-135385860D01*
X78768601Y-135302999D01*
X78685740Y-135247634D01*
X78685739Y-135247633D01*
X78685738Y-135247633D01*
X78576022Y-135225809D01*
X78576683Y-135222482D01*
X78529089Y-135208507D01*
X78508447Y-135191873D01*
X78477429Y-135160855D01*
X78443944Y-135099532D01*
X78441110Y-135073174D01*
X78441110Y-132154813D01*
X78460795Y-132087774D01*
X78513599Y-132042019D01*
X78582757Y-132032075D01*
X78646313Y-132061100D01*
X78668210Y-132085920D01*
X78697559Y-132129844D01*
X78780420Y-132185209D01*
X78813000Y-132191689D01*
X78878158Y-132204651D01*
X78878160Y-132204651D01*
X78878162Y-132204651D01*
X78975897Y-132185210D01*
X78975898Y-132185209D01*
X78975900Y-132185209D01*
X78975900Y-132185208D01*
X78977317Y-132184622D01*
X78980662Y-132184262D01*
X78987878Y-132182827D01*
X78988006Y-132183472D01*
X79046786Y-132177153D01*
X79109265Y-132208428D01*
X79144918Y-132268516D01*
X79148770Y-132299183D01*
X79148770Y-135408644D01*
X79148966Y-135409630D01*
X79148966Y-135458006D01*
X79144592Y-135479999D01*
X79144592Y-135480001D01*
X79164033Y-135577738D01*
X79164033Y-135577739D01*
X79164034Y-135577740D01*
X79219399Y-135660601D01*
X79302260Y-135715966D01*
X79334840Y-135722446D01*
X79399998Y-135735408D01*
X79400000Y-135735408D01*
X79400002Y-135735408D01*
X79448870Y-135725687D01*
X79497740Y-135715966D01*
X79580601Y-135660601D01*
X79635966Y-135577740D01*
X79637023Y-135572421D01*
X79669404Y-135510513D01*
X79717214Y-135483283D01*
X79713098Y-135480315D01*
X79800781Y-135480315D01*
X79856562Y-135520534D01*
X79880257Y-135572414D01*
X79882032Y-135581337D01*
X79882033Y-135581339D01*
X79882034Y-135581340D01*
X79937399Y-135664201D01*
X80020260Y-135719566D01*
X80052840Y-135726046D01*
X80117998Y-135739008D01*
X80118000Y-135739008D01*
X80118002Y-135739008D01*
X80166870Y-135729287D01*
X80215740Y-135719566D01*
X80298601Y-135664201D01*
X80353966Y-135581340D01*
X80368055Y-135510513D01*
X80373408Y-135483602D01*
X80373408Y-135483597D01*
X80372692Y-135479997D01*
X80674592Y-135479997D01*
X80674592Y-135480002D01*
X80694033Y-135577738D01*
X80694033Y-135577739D01*
X80694034Y-135577740D01*
X80749399Y-135660601D01*
X80832260Y-135715966D01*
X80864840Y-135722446D01*
X80929998Y-135735408D01*
X80930000Y-135735408D01*
X80930002Y-135735408D01*
X80978870Y-135725687D01*
X81027740Y-135715966D01*
X81110601Y-135660601D01*
X81165966Y-135577740D01*
X81177345Y-135520534D01*
X81184693Y-135483597D01*
X81532593Y-135483597D01*
X81532593Y-135483602D01*
X81552034Y-135581338D01*
X81552034Y-135581339D01*
X81552035Y-135581340D01*
X81607400Y-135664201D01*
X81690261Y-135719566D01*
X81722841Y-135726046D01*
X81787999Y-135739008D01*
X81788001Y-135739008D01*
X81788003Y-135739008D01*
X81836871Y-135729287D01*
X81885741Y-135719566D01*
X81968602Y-135664201D01*
X82023967Y-135581340D01*
X82038056Y-135510513D01*
X82043409Y-135483602D01*
X82043409Y-135483597D01*
X83259792Y-135483597D01*
X83259792Y-135483602D01*
X83279233Y-135581338D01*
X83279233Y-135581339D01*
X83279234Y-135581340D01*
X83334599Y-135664201D01*
X83417460Y-135719566D01*
X83450040Y-135726046D01*
X83515198Y-135739008D01*
X83515200Y-135739008D01*
X83515202Y-135739008D01*
X83564070Y-135729287D01*
X83612940Y-135719566D01*
X83695801Y-135664201D01*
X83751166Y-135581340D01*
X83765255Y-135510513D01*
X83770608Y-135483602D01*
X83770608Y-135483597D01*
X85037793Y-135483597D01*
X85037793Y-135483602D01*
X85057234Y-135581338D01*
X85057234Y-135581339D01*
X85057235Y-135581340D01*
X85112600Y-135664201D01*
X85195461Y-135719566D01*
X85228041Y-135726046D01*
X85293199Y-135739008D01*
X85293201Y-135739008D01*
X85293203Y-135739008D01*
X85342071Y-135729287D01*
X85390941Y-135719566D01*
X85473802Y-135664201D01*
X85529167Y-135581340D01*
X85543256Y-135510513D01*
X85548609Y-135483602D01*
X85548609Y-135483597D01*
X85532784Y-135404046D01*
X85529167Y-135385860D01*
X85473802Y-135302999D01*
X85390941Y-135247634D01*
X85390940Y-135247633D01*
X85390939Y-135247633D01*
X85293203Y-135228192D01*
X85293199Y-135228192D01*
X85195462Y-135247633D01*
X85112600Y-135302999D01*
X85057234Y-135385861D01*
X85037793Y-135483597D01*
X83770608Y-135483597D01*
X83754783Y-135404046D01*
X83751166Y-135385860D01*
X83695801Y-135302999D01*
X83612940Y-135247634D01*
X83612939Y-135247633D01*
X83612938Y-135247633D01*
X83515202Y-135228192D01*
X83515198Y-135228192D01*
X83417461Y-135247633D01*
X83334599Y-135302999D01*
X83279233Y-135385861D01*
X83259792Y-135483597D01*
X82043409Y-135483597D01*
X82027584Y-135404046D01*
X82023967Y-135385860D01*
X81968602Y-135302999D01*
X81885741Y-135247634D01*
X81885740Y-135247633D01*
X81885739Y-135247633D01*
X81788003Y-135228192D01*
X81787999Y-135228192D01*
X81690262Y-135247633D01*
X81607400Y-135302999D01*
X81552034Y-135385861D01*
X81532593Y-135483597D01*
X81184693Y-135483597D01*
X81185408Y-135480002D01*
X81185408Y-135479997D01*
X81167741Y-135391182D01*
X81165966Y-135382260D01*
X81110601Y-135299399D01*
X81027740Y-135244034D01*
X81027739Y-135244033D01*
X81027738Y-135244033D01*
X80930002Y-135224592D01*
X80929998Y-135224592D01*
X80832261Y-135244033D01*
X80749399Y-135299399D01*
X80694033Y-135382261D01*
X80674592Y-135479997D01*
X80372692Y-135479997D01*
X80357583Y-135404046D01*
X80353966Y-135385860D01*
X80298601Y-135302999D01*
X80215740Y-135247634D01*
X80215739Y-135247633D01*
X80215738Y-135247633D01*
X80118002Y-135228192D01*
X80117998Y-135228192D01*
X80020261Y-135247633D01*
X79937399Y-135302999D01*
X79882033Y-135385861D01*
X79880975Y-135391182D01*
X79848589Y-135453092D01*
X79800781Y-135480315D01*
X79713098Y-135480315D01*
X79661432Y-135443058D01*
X79637741Y-135391181D01*
X79635966Y-135382261D01*
X79635966Y-135382260D01*
X79580601Y-135299399D01*
X79580600Y-135299398D01*
X79503939Y-135248175D01*
X79459134Y-135194563D01*
X79448830Y-135145073D01*
X79448830Y-132587997D01*
X80364192Y-132587997D01*
X80364192Y-132588002D01*
X80383633Y-132685738D01*
X80383633Y-132685739D01*
X80383634Y-132685740D01*
X80438999Y-132768601D01*
X80521860Y-132823966D01*
X80554440Y-132830446D01*
X80619598Y-132843408D01*
X80619600Y-132843408D01*
X80619602Y-132843408D01*
X80668470Y-132833687D01*
X80717340Y-132823966D01*
X80800201Y-132768601D01*
X80855566Y-132685740D01*
X80875008Y-132588000D01*
X80875008Y-132587997D01*
X80855566Y-132490261D01*
X80855566Y-132490260D01*
X80800201Y-132407399D01*
X80717340Y-132352034D01*
X80717339Y-132352033D01*
X80717338Y-132352033D01*
X80619602Y-132332592D01*
X80619598Y-132332592D01*
X80521861Y-132352033D01*
X80438999Y-132407399D01*
X80383633Y-132490261D01*
X80364192Y-132587997D01*
X79448830Y-132587997D01*
X79448830Y-132099466D01*
X79468515Y-132032427D01*
X79521319Y-131986672D01*
X79590477Y-131976728D01*
X79654033Y-132005753D01*
X79675931Y-132030573D01*
X79727799Y-132108201D01*
X79810660Y-132163566D01*
X79834831Y-132168374D01*
X79908398Y-132183008D01*
X79908400Y-132183008D01*
X79908402Y-132183008D01*
X79960583Y-132172628D01*
X80006140Y-132163566D01*
X80089001Y-132108201D01*
X80144366Y-132025340D01*
X80163808Y-131927600D01*
X80163808Y-131927597D01*
X80144366Y-131829861D01*
X80144366Y-131829860D01*
X80089001Y-131746999D01*
X80082216Y-131736844D01*
X80085036Y-131734959D01*
X80061264Y-131691423D01*
X80060006Y-131679723D01*
X80058430Y-131671802D01*
X80056886Y-131668073D01*
X80056886Y-131668072D01*
X80035592Y-131616664D01*
X80035590Y-131616659D01*
X79074609Y-130655678D01*
X79041124Y-130594355D01*
X79038290Y-130567997D01*
X79038290Y-129492447D01*
X79057975Y-129425408D01*
X79110779Y-129379653D01*
X79179937Y-129369709D01*
X79243493Y-129398734D01*
X79249971Y-129404766D01*
X81281869Y-131436664D01*
X81315354Y-131497987D01*
X81310370Y-131567679D01*
X81268498Y-131623612D01*
X81240458Y-131636193D01*
X81241586Y-131638917D01*
X81230306Y-131643589D01*
X81147442Y-131698956D01*
X81092076Y-131781818D01*
X81072635Y-131879554D01*
X81072635Y-131879559D01*
X81092076Y-131977295D01*
X81092076Y-131977296D01*
X81092077Y-131977297D01*
X81147442Y-132060158D01*
X81230303Y-132115523D01*
X81262883Y-132122003D01*
X81328041Y-132134965D01*
X81328043Y-132134965D01*
X81328045Y-132134965D01*
X81387641Y-132123110D01*
X81425783Y-132115523D01*
X81508644Y-132060158D01*
X81564009Y-131977297D01*
X81564010Y-131977293D01*
X81568683Y-131966014D01*
X81573016Y-131967809D01*
X81592614Y-131928792D01*
X81652751Y-131893221D01*
X81722572Y-131895810D01*
X81770935Y-131925730D01*
X82568990Y-132723785D01*
X82611194Y-132765989D01*
X82666336Y-132788830D01*
X83049465Y-132788830D01*
X83116504Y-132808515D01*
X83123287Y-132813981D01*
X83131399Y-132819401D01*
X83214260Y-132874766D01*
X83246840Y-132881246D01*
X83311998Y-132894208D01*
X83312000Y-132894208D01*
X83312002Y-132894208D01*
X83360870Y-132884487D01*
X83409740Y-132874766D01*
X83492601Y-132819401D01*
X83547966Y-132736540D01*
X83567408Y-132638800D01*
X83567408Y-132638797D01*
X83547966Y-132541061D01*
X83547966Y-132541060D01*
X83492601Y-132458199D01*
X83409740Y-132402834D01*
X83409738Y-132402833D01*
X83409736Y-132402832D01*
X83398457Y-132398160D01*
X83399975Y-132394493D01*
X83357802Y-132372433D01*
X83323227Y-132311718D01*
X83326966Y-132241948D01*
X83367832Y-132185276D01*
X83399519Y-132170804D01*
X83398457Y-132168240D01*
X83409736Y-132163567D01*
X83409736Y-132163566D01*
X83409740Y-132163566D01*
X83492601Y-132108201D01*
X83547966Y-132025340D01*
X83567408Y-131927600D01*
X83567408Y-131927597D01*
X83547966Y-131829861D01*
X83547966Y-131829860D01*
X83492601Y-131746999D01*
X83409740Y-131691634D01*
X83409739Y-131691633D01*
X83409738Y-131691633D01*
X83312002Y-131672192D01*
X83311998Y-131672192D01*
X83214261Y-131691633D01*
X83131399Y-131746999D01*
X83076033Y-131829861D01*
X83056592Y-131927597D01*
X83056592Y-131927602D01*
X83076033Y-132025338D01*
X83076033Y-132025339D01*
X83076034Y-132025340D01*
X83131399Y-132108201D01*
X83214260Y-132163566D01*
X83214262Y-132163566D01*
X83214263Y-132163567D01*
X83225543Y-132168240D01*
X83224024Y-132171905D01*
X83266206Y-132193975D01*
X83300775Y-132254694D01*
X83297029Y-132324463D01*
X83256158Y-132381132D01*
X83224481Y-132395597D01*
X83225543Y-132398160D01*
X83214262Y-132402832D01*
X83121244Y-132464984D01*
X83119359Y-132462163D01*
X83075823Y-132485936D01*
X83049465Y-132488770D01*
X82809685Y-132488770D01*
X82742646Y-132469085D01*
X82722004Y-132452451D01*
X82600523Y-132330970D01*
X82567038Y-132269647D01*
X82572022Y-132199955D01*
X82613894Y-132144022D01*
X82619315Y-132140186D01*
X82622337Y-132138166D01*
X82622340Y-132138166D01*
X82705201Y-132082801D01*
X82760566Y-131999940D01*
X82772699Y-131938944D01*
X82780008Y-131902202D01*
X82780008Y-131902197D01*
X82760566Y-131804461D01*
X82760566Y-131804460D01*
X82705201Y-131721599D01*
X82622340Y-131666234D01*
X82622339Y-131666233D01*
X82622338Y-131666233D01*
X82524602Y-131646792D01*
X82524598Y-131646792D01*
X82426861Y-131666233D01*
X82365435Y-131707276D01*
X82343999Y-131721599D01*
X82312567Y-131768642D01*
X82286613Y-131807485D01*
X82233000Y-131852291D01*
X82163676Y-131860998D01*
X82100648Y-131830844D01*
X82095829Y-131826276D01*
X79273669Y-129004116D01*
X79240184Y-128942793D01*
X79237350Y-128916435D01*
X79237350Y-128625597D01*
X80872192Y-128625597D01*
X80872192Y-128625602D01*
X80891633Y-128723338D01*
X80891633Y-128723339D01*
X80891634Y-128723340D01*
X80946999Y-128806201D01*
X81029860Y-128861566D01*
X81054031Y-128866374D01*
X81127598Y-128881008D01*
X81127600Y-128881008D01*
X81127602Y-128881008D01*
X81180798Y-128870426D01*
X81225340Y-128861566D01*
X81308201Y-128806201D01*
X81363566Y-128723340D01*
X81383008Y-128625600D01*
X81383008Y-128625597D01*
X81363566Y-128527861D01*
X81363566Y-128527860D01*
X81308201Y-128444999D01*
X81225340Y-128389634D01*
X81225339Y-128389633D01*
X81225338Y-128389633D01*
X81127602Y-128370192D01*
X81127598Y-128370192D01*
X81029861Y-128389633D01*
X80946999Y-128444999D01*
X80891633Y-128527861D01*
X80872192Y-128625597D01*
X79237350Y-128625597D01*
X79237350Y-124282754D01*
X79257035Y-124215715D01*
X79309839Y-124169960D01*
X79378997Y-124160016D01*
X79442553Y-124189041D01*
X79449031Y-124195073D01*
X82102781Y-126848823D01*
X82136266Y-126910146D01*
X82139100Y-126936504D01*
X82139100Y-129054973D01*
X82161942Y-129110117D01*
X84351721Y-131299895D01*
X84385206Y-131361218D01*
X84388040Y-131387576D01*
X84388040Y-131604173D01*
X84368355Y-131671212D01*
X84315551Y-131716967D01*
X84246393Y-131726911D01*
X84195150Y-131707276D01*
X84172801Y-131692343D01*
X84171740Y-131691634D01*
X84171739Y-131691633D01*
X84171738Y-131691633D01*
X84074002Y-131672192D01*
X84073998Y-131672192D01*
X83976261Y-131691633D01*
X83893399Y-131746999D01*
X83838033Y-131829861D01*
X83818592Y-131927597D01*
X83818592Y-131927602D01*
X83838033Y-132025338D01*
X83838033Y-132025339D01*
X83838034Y-132025340D01*
X83893399Y-132108201D01*
X83976260Y-132163566D01*
X84000431Y-132168374D01*
X84073998Y-132183008D01*
X84074000Y-132183008D01*
X84074002Y-132183008D01*
X84126183Y-132172628D01*
X84171740Y-132163566D01*
X84228706Y-132125502D01*
X84295380Y-132104626D01*
X84362760Y-132123110D01*
X84403419Y-132168374D01*
X84404096Y-132167922D01*
X84407240Y-132172628D01*
X84409451Y-132175089D01*
X84410586Y-132177635D01*
X84410882Y-132178078D01*
X85625242Y-133392438D01*
X86776794Y-134543990D01*
X86831936Y-134566830D01*
X87926265Y-134566830D01*
X87993304Y-134586515D01*
X88000087Y-134591981D01*
X88008199Y-134597401D01*
X88091060Y-134652766D01*
X88123640Y-134659246D01*
X88188798Y-134672208D01*
X88188800Y-134672208D01*
X88188802Y-134672208D01*
X88237670Y-134662487D01*
X88286540Y-134652766D01*
X88301009Y-134643097D01*
X88367686Y-134622220D01*
X88435067Y-134640704D01*
X88481757Y-134692683D01*
X88493900Y-134746200D01*
X88493900Y-138357100D01*
X88474215Y-138424139D01*
X88421411Y-138469894D01*
X88369900Y-138481100D01*
X69160900Y-138481100D01*
X69093861Y-138461415D01*
X69048106Y-138408611D01*
X69036900Y-138357100D01*
X69036900Y-135479997D01*
X73294592Y-135479997D01*
X73294592Y-135480002D01*
X73314033Y-135577738D01*
X73314033Y-135577739D01*
X73314034Y-135577740D01*
X73369399Y-135660601D01*
X73452260Y-135715966D01*
X73484840Y-135722446D01*
X73549998Y-135735408D01*
X73550000Y-135735408D01*
X73550002Y-135735408D01*
X73598870Y-135725687D01*
X73647740Y-135715966D01*
X73730601Y-135660601D01*
X73785966Y-135577740D01*
X73797345Y-135520534D01*
X73804693Y-135483597D01*
X74369792Y-135483597D01*
X74369792Y-135483602D01*
X74389233Y-135581338D01*
X74389233Y-135581339D01*
X74389234Y-135581340D01*
X74444599Y-135664201D01*
X74527460Y-135719566D01*
X74560040Y-135726046D01*
X74625198Y-135739008D01*
X74625200Y-135739008D01*
X74625202Y-135739008D01*
X74674070Y-135729287D01*
X74722940Y-135719566D01*
X74805801Y-135664201D01*
X74861166Y-135581340D01*
X74875255Y-135510513D01*
X74880608Y-135483602D01*
X74880608Y-135483597D01*
X75944592Y-135483597D01*
X75944592Y-135483602D01*
X75964033Y-135581338D01*
X75964033Y-135581339D01*
X75964034Y-135581340D01*
X76019399Y-135664201D01*
X76102260Y-135719566D01*
X76134840Y-135726046D01*
X76199998Y-135739008D01*
X76200000Y-135739008D01*
X76200002Y-135739008D01*
X76248870Y-135729287D01*
X76297740Y-135719566D01*
X76380601Y-135664201D01*
X76435966Y-135581340D01*
X76450055Y-135510513D01*
X76455408Y-135483602D01*
X76455408Y-135483597D01*
X76439583Y-135404046D01*
X76435966Y-135385860D01*
X76380601Y-135302999D01*
X76297740Y-135247634D01*
X76297739Y-135247633D01*
X76297738Y-135247633D01*
X76200002Y-135228192D01*
X76199998Y-135228192D01*
X76102261Y-135247633D01*
X76019399Y-135302999D01*
X75964033Y-135385861D01*
X75944592Y-135483597D01*
X74880608Y-135483597D01*
X74864783Y-135404046D01*
X74861166Y-135385860D01*
X74805801Y-135302999D01*
X74722940Y-135247634D01*
X74722939Y-135247633D01*
X74722938Y-135247633D01*
X74625202Y-135228192D01*
X74625198Y-135228192D01*
X74527461Y-135247633D01*
X74444599Y-135302999D01*
X74389233Y-135385861D01*
X74369792Y-135483597D01*
X73804693Y-135483597D01*
X73805408Y-135480002D01*
X73805408Y-135479997D01*
X73787741Y-135391182D01*
X73785966Y-135382260D01*
X73730601Y-135299399D01*
X73647740Y-135244034D01*
X73647739Y-135244033D01*
X73647738Y-135244033D01*
X73550002Y-135224592D01*
X73549998Y-135224592D01*
X73452261Y-135244033D01*
X73369399Y-135299399D01*
X73314033Y-135382261D01*
X73294592Y-135479997D01*
X69036900Y-135479997D01*
X69036900Y-131927597D01*
X74776192Y-131927597D01*
X74776192Y-131927602D01*
X74795633Y-132025338D01*
X74795633Y-132025339D01*
X74795634Y-132025340D01*
X74850999Y-132108201D01*
X74933860Y-132163566D01*
X74958031Y-132168374D01*
X75031598Y-132183008D01*
X75031600Y-132183008D01*
X75031602Y-132183008D01*
X75083783Y-132172628D01*
X75129340Y-132163566D01*
X75212201Y-132108201D01*
X75267566Y-132025340D01*
X75287008Y-131927600D01*
X75287008Y-131927597D01*
X75267566Y-131829861D01*
X75267566Y-131829860D01*
X75212201Y-131746999D01*
X75129340Y-131691634D01*
X75129339Y-131691633D01*
X75129338Y-131691633D01*
X75031602Y-131672192D01*
X75031598Y-131672192D01*
X74933861Y-131691633D01*
X74850999Y-131746999D01*
X74795633Y-131829861D01*
X74776192Y-131927597D01*
X69036900Y-131927597D01*
X69036900Y-125659998D01*
X69734891Y-125659998D01*
X69734891Y-125660001D01*
X69755300Y-125945362D01*
X69816109Y-126224895D01*
X69916091Y-126492958D01*
X70053191Y-126744038D01*
X70053196Y-126744046D01*
X70159882Y-126886561D01*
X70159883Y-126886562D01*
X70841377Y-126205067D01*
X70924411Y-126329336D01*
X71070664Y-126475589D01*
X71194930Y-126558621D01*
X70513436Y-127240115D01*
X70655960Y-127346807D01*
X70655961Y-127346808D01*
X70907042Y-127483908D01*
X70907041Y-127483908D01*
X71175104Y-127583890D01*
X71454637Y-127644699D01*
X71739999Y-127665109D01*
X71740001Y-127665109D01*
X72025362Y-127644699D01*
X72304895Y-127583890D01*
X72572958Y-127483908D01*
X72824047Y-127346803D01*
X72966561Y-127240116D01*
X72966562Y-127240115D01*
X72285068Y-126558621D01*
X72409336Y-126475589D01*
X72555589Y-126329336D01*
X72638621Y-126205068D01*
X73320115Y-126886562D01*
X73320116Y-126886561D01*
X73426803Y-126744047D01*
X73563908Y-126492958D01*
X73663890Y-126224895D01*
X73724699Y-125945362D01*
X73745109Y-125660001D01*
X73745109Y-125659998D01*
X73724699Y-125374637D01*
X73663890Y-125095104D01*
X73563908Y-124827041D01*
X73426808Y-124575961D01*
X73426807Y-124575960D01*
X73320115Y-124433436D01*
X72638621Y-125114930D01*
X72555589Y-124990664D01*
X72409336Y-124844411D01*
X72285068Y-124761378D01*
X72966562Y-124079883D01*
X72966561Y-124079882D01*
X72837499Y-123983267D01*
X72795627Y-123927334D01*
X72790643Y-123857642D01*
X72824128Y-123796319D01*
X72885451Y-123762834D01*
X72911809Y-123760000D01*
X72914723Y-123760000D01*
X72914723Y-123759999D01*
X73261827Y-123719429D01*
X73261829Y-123719429D01*
X73601866Y-123638839D01*
X73601869Y-123638838D01*
X73930254Y-123519316D01*
X73930260Y-123519314D01*
X74242538Y-123362480D01*
X74534509Y-123170449D01*
X74534510Y-123170448D01*
X74677179Y-123050734D01*
X74677180Y-123050733D01*
X73966367Y-122339919D01*
X74061521Y-122266906D01*
X74246906Y-122081521D01*
X74319919Y-121986366D01*
X75033850Y-122700297D01*
X75033851Y-122700296D01*
X75042022Y-122691636D01*
X75042033Y-122691623D01*
X75250710Y-122411322D01*
X75425438Y-122108683D01*
X75425444Y-122108670D01*
X75563854Y-121787800D01*
X75664083Y-121453011D01*
X75664085Y-121453002D01*
X75724763Y-121108880D01*
X75724764Y-121108869D01*
X75745084Y-120760003D01*
X75745084Y-120759996D01*
X75724764Y-120411130D01*
X75724763Y-120411119D01*
X75664085Y-120066997D01*
X75664083Y-120066988D01*
X75563854Y-119732199D01*
X75425444Y-119411329D01*
X75425438Y-119411316D01*
X75250710Y-119108677D01*
X75042032Y-118828374D01*
X75033850Y-118819702D01*
X74319919Y-119533632D01*
X74246906Y-119438479D01*
X74061521Y-119253094D01*
X73966366Y-119180079D01*
X74677180Y-118469265D01*
X74677179Y-118469264D01*
X74534519Y-118349557D01*
X74242538Y-118157519D01*
X73930260Y-118000685D01*
X73930254Y-118000683D01*
X73601869Y-117881161D01*
X73601866Y-117881160D01*
X73261828Y-117800570D01*
X72914723Y-117760000D01*
X72565277Y-117760000D01*
X72218172Y-117800570D01*
X72218170Y-117800570D01*
X71878133Y-117881160D01*
X71878130Y-117881161D01*
X71549745Y-118000683D01*
X71549739Y-118000685D01*
X71237461Y-118157519D01*
X70945480Y-118349557D01*
X70802819Y-118469264D01*
X70802818Y-118469265D01*
X71513633Y-119180079D01*
X71418479Y-119253094D01*
X71233094Y-119438479D01*
X71160080Y-119533633D01*
X70446148Y-118819701D01*
X70446147Y-118819702D01*
X70437976Y-118828363D01*
X70437972Y-118828368D01*
X70229289Y-119108677D01*
X70054561Y-119411316D01*
X70054555Y-119411329D01*
X69916145Y-119732199D01*
X69815916Y-120066988D01*
X69815914Y-120066997D01*
X69755236Y-120411119D01*
X69755235Y-120411130D01*
X69734916Y-120759996D01*
X69734916Y-120760003D01*
X69755235Y-121108869D01*
X69755236Y-121108880D01*
X69815914Y-121453002D01*
X69815916Y-121453011D01*
X69916145Y-121787800D01*
X70054555Y-122108670D01*
X70054561Y-122108683D01*
X70229289Y-122411322D01*
X70437967Y-122691625D01*
X70446148Y-122700296D01*
X71160078Y-121986365D01*
X71233094Y-122081521D01*
X71418479Y-122266906D01*
X71513632Y-122339919D01*
X70802818Y-123050733D01*
X70802819Y-123050734D01*
X70945484Y-123170445D01*
X71237461Y-123362480D01*
X71424273Y-123456302D01*
X71475348Y-123503980D01*
X71492537Y-123571702D01*
X71470384Y-123637967D01*
X71415923Y-123681736D01*
X71394980Y-123688278D01*
X71175104Y-123736109D01*
X70907041Y-123836091D01*
X70655961Y-123973191D01*
X70655953Y-123973196D01*
X70513437Y-124079882D01*
X70513436Y-124079883D01*
X71194931Y-124761378D01*
X71070664Y-124844411D01*
X70924411Y-124990664D01*
X70841378Y-125114931D01*
X70159883Y-124433436D01*
X70159882Y-124433437D01*
X70053196Y-124575953D01*
X70053191Y-124575961D01*
X69916091Y-124827041D01*
X69816109Y-125095104D01*
X69755300Y-125374637D01*
X69734891Y-125659998D01*
X69036900Y-125659998D01*
X69036900Y-110490000D01*
X70119884Y-110490000D01*
X70139100Y-110685111D01*
X70196013Y-110872727D01*
X70261395Y-110995049D01*
X70751700Y-110504745D01*
X70751700Y-110538488D01*
X70776799Y-110632158D01*
X70825287Y-110716141D01*
X70893859Y-110784713D01*
X70977842Y-110833201D01*
X71071512Y-110858300D01*
X71105252Y-110858300D01*
X70614948Y-111348604D01*
X70737267Y-111413985D01*
X70924888Y-111470899D01*
X71120000Y-111490115D01*
X71315111Y-111470899D01*
X71502732Y-111413985D01*
X71675629Y-111321569D01*
X71680698Y-111318183D01*
X71681811Y-111319849D01*
X71737643Y-111296125D01*
X71806513Y-111307904D01*
X71858082Y-111355047D01*
X71875977Y-111422586D01*
X71866582Y-111466741D01*
X71809537Y-111604461D01*
X71809536Y-111604465D01*
X71789059Y-111759999D01*
X71789059Y-111760000D01*
X71809536Y-111915534D01*
X71809537Y-111915538D01*
X71866582Y-112053258D01*
X71874051Y-112122727D01*
X71842776Y-112185206D01*
X71782687Y-112220858D01*
X71712861Y-112218364D01*
X71681284Y-112200939D01*
X71680698Y-112201817D01*
X71675629Y-112198430D01*
X71502732Y-112106014D01*
X71315111Y-112049100D01*
X71120000Y-112029884D01*
X70924888Y-112049100D01*
X70737270Y-112106014D01*
X70614949Y-112171394D01*
X70614949Y-112171395D01*
X71105253Y-112661700D01*
X71071512Y-112661700D01*
X70977842Y-112686799D01*
X70893859Y-112735287D01*
X70825287Y-112803859D01*
X70776799Y-112887842D01*
X70751700Y-112981512D01*
X70751700Y-113015254D01*
X70261395Y-112524949D01*
X70261394Y-112524949D01*
X70196014Y-112647270D01*
X70139100Y-112834888D01*
X70119884Y-113030000D01*
X70139100Y-113225111D01*
X70196013Y-113412727D01*
X70261395Y-113535049D01*
X70751700Y-113044745D01*
X70751700Y-113078488D01*
X70776799Y-113172158D01*
X70825287Y-113256141D01*
X70893859Y-113324713D01*
X70977842Y-113373201D01*
X71071512Y-113398300D01*
X71105253Y-113398300D01*
X70614948Y-113888604D01*
X70737267Y-113953985D01*
X70924888Y-114010899D01*
X71120000Y-114030115D01*
X71315111Y-114010899D01*
X71502730Y-113953985D01*
X71625050Y-113888603D01*
X71134748Y-113398300D01*
X71168488Y-113398300D01*
X71262158Y-113373201D01*
X71346141Y-113324713D01*
X71414713Y-113256141D01*
X71463201Y-113172158D01*
X71488300Y-113078488D01*
X71488300Y-113044746D01*
X71978603Y-113535049D01*
X72043985Y-113412730D01*
X72100899Y-113225111D01*
X72120115Y-113030000D01*
X72100899Y-112834888D01*
X72043985Y-112647267D01*
X71951569Y-112474370D01*
X71948183Y-112469302D01*
X71949845Y-112468191D01*
X71926122Y-112412331D01*
X71937915Y-112343463D01*
X71985068Y-112291904D01*
X72052611Y-112274023D01*
X72096738Y-112283416D01*
X72234465Y-112340464D01*
X72371904Y-112358558D01*
X72389999Y-112360941D01*
X72390000Y-112360941D01*
X72390001Y-112360941D01*
X72406209Y-112358806D01*
X72545535Y-112340464D01*
X72683260Y-112283416D01*
X72752726Y-112275948D01*
X72815206Y-112307223D01*
X72850858Y-112367312D01*
X72848364Y-112437137D01*
X72830942Y-112468717D01*
X72831817Y-112469302D01*
X72828430Y-112474370D01*
X72736014Y-112647267D01*
X72679100Y-112834888D01*
X72659884Y-113030000D01*
X72679100Y-113225111D01*
X72736013Y-113412727D01*
X72801395Y-113535049D01*
X73291700Y-113044745D01*
X73291700Y-113078488D01*
X73316799Y-113172158D01*
X73365287Y-113256141D01*
X73433859Y-113324713D01*
X73517842Y-113373201D01*
X73611512Y-113398300D01*
X73645253Y-113398300D01*
X73154948Y-113888604D01*
X73277267Y-113953985D01*
X73464888Y-114010899D01*
X73660000Y-114030115D01*
X73855111Y-114010899D01*
X74042730Y-113953985D01*
X74165050Y-113888603D01*
X73674748Y-113398300D01*
X73708488Y-113398300D01*
X73802158Y-113373201D01*
X73886141Y-113324713D01*
X73954713Y-113256141D01*
X74003201Y-113172158D01*
X74028300Y-113078488D01*
X74028300Y-113044747D01*
X74518603Y-113535050D01*
X74583985Y-113412730D01*
X74640899Y-113225111D01*
X74660115Y-113030000D01*
X74640899Y-112834888D01*
X74583985Y-112647267D01*
X74518604Y-112524948D01*
X74028300Y-113015252D01*
X74028300Y-112981512D01*
X74003201Y-112887842D01*
X73954713Y-112803859D01*
X73886141Y-112735287D01*
X73802158Y-112686799D01*
X73708488Y-112661700D01*
X73674747Y-112661700D01*
X74165049Y-112171395D01*
X74042727Y-112106013D01*
X73855111Y-112049100D01*
X73660000Y-112029884D01*
X73464888Y-112049100D01*
X73277267Y-112106014D01*
X73104370Y-112198430D01*
X73099302Y-112201817D01*
X73098194Y-112200159D01*
X73042300Y-112223880D01*
X72973436Y-112212071D01*
X72921888Y-112164905D01*
X72904023Y-112097358D01*
X72913415Y-112053262D01*
X72970464Y-111915535D01*
X72990941Y-111760000D01*
X72970464Y-111604465D01*
X72913416Y-111466741D01*
X72905948Y-111397272D01*
X72937223Y-111334793D01*
X72997312Y-111299141D01*
X73067137Y-111301635D01*
X73098715Y-111319060D01*
X73099302Y-111318183D01*
X73104370Y-111321569D01*
X73277267Y-111413985D01*
X73464888Y-111470899D01*
X73660000Y-111490115D01*
X73855111Y-111470899D01*
X74042730Y-111413985D01*
X74165050Y-111348603D01*
X73674747Y-110858300D01*
X73708488Y-110858300D01*
X73802158Y-110833201D01*
X73886141Y-110784713D01*
X73954713Y-110716141D01*
X74003201Y-110632158D01*
X74028300Y-110538488D01*
X74028300Y-110504747D01*
X74518603Y-110995050D01*
X74583985Y-110872730D01*
X74640899Y-110685111D01*
X74660115Y-110490000D01*
X74640899Y-110294888D01*
X74583985Y-110107267D01*
X74518604Y-109984948D01*
X74028300Y-110475252D01*
X74028300Y-110441512D01*
X74003201Y-110347842D01*
X73954713Y-110263859D01*
X73886141Y-110195287D01*
X73802158Y-110146799D01*
X73708488Y-110121700D01*
X73674747Y-110121700D01*
X74165049Y-109631395D01*
X74042727Y-109566013D01*
X73855111Y-109509100D01*
X73660000Y-109489884D01*
X73464888Y-109509100D01*
X73277270Y-109566014D01*
X73154949Y-109631394D01*
X73154949Y-109631395D01*
X73645254Y-110121700D01*
X73611512Y-110121700D01*
X73517842Y-110146799D01*
X73433859Y-110195287D01*
X73365287Y-110263859D01*
X73316799Y-110347842D01*
X73291700Y-110441512D01*
X73291700Y-110475253D01*
X72801395Y-109984949D01*
X72801394Y-109984949D01*
X72736014Y-110107270D01*
X72679100Y-110294888D01*
X72659884Y-110490000D01*
X72679100Y-110685111D01*
X72736014Y-110872732D01*
X72828430Y-111045629D01*
X72831817Y-111050698D01*
X72830154Y-111051808D01*
X72853877Y-111107674D01*
X72842082Y-111176541D01*
X72794926Y-111228098D01*
X72727383Y-111245976D01*
X72683258Y-111236582D01*
X72545538Y-111179537D01*
X72545536Y-111179536D01*
X72545535Y-111179536D01*
X72467767Y-111169297D01*
X72390001Y-111159059D01*
X72389999Y-111159059D01*
X72234465Y-111179536D01*
X72234461Y-111179537D01*
X72096741Y-111236582D01*
X72027272Y-111244051D01*
X71964793Y-111212775D01*
X71929141Y-111152686D01*
X71931635Y-111082861D01*
X71949063Y-111051286D01*
X71948183Y-111050698D01*
X71951569Y-111045629D01*
X72043985Y-110872732D01*
X72100899Y-110685111D01*
X72120115Y-110490000D01*
X72100899Y-110294888D01*
X72043985Y-110107267D01*
X71978604Y-109984948D01*
X71488300Y-110475252D01*
X71488300Y-110441512D01*
X71463201Y-110347842D01*
X71414713Y-110263859D01*
X71346141Y-110195287D01*
X71262158Y-110146799D01*
X71168488Y-110121700D01*
X71134747Y-110121700D01*
X71625049Y-109631395D01*
X71502727Y-109566013D01*
X71315111Y-109509100D01*
X71120000Y-109489884D01*
X70924888Y-109509100D01*
X70737270Y-109566014D01*
X70614949Y-109631394D01*
X70614949Y-109631395D01*
X71105254Y-110121700D01*
X71071512Y-110121700D01*
X70977842Y-110146799D01*
X70893859Y-110195287D01*
X70825287Y-110263859D01*
X70776799Y-110347842D01*
X70751700Y-110441512D01*
X70751700Y-110475254D01*
X70261395Y-109984949D01*
X70261394Y-109984949D01*
X70196014Y-110107270D01*
X70139100Y-110294888D01*
X70119884Y-110490000D01*
X69036900Y-110490000D01*
X69036900Y-102870000D01*
X70119884Y-102870000D01*
X70139100Y-103065111D01*
X70196013Y-103252727D01*
X70261395Y-103375049D01*
X70751700Y-102884745D01*
X70751700Y-102918488D01*
X70776799Y-103012158D01*
X70825287Y-103096141D01*
X70893859Y-103164713D01*
X70977842Y-103213201D01*
X71071512Y-103238300D01*
X71105252Y-103238300D01*
X70614948Y-103728604D01*
X70737267Y-103793985D01*
X70924888Y-103850899D01*
X71120000Y-103870115D01*
X71315111Y-103850899D01*
X71502732Y-103793985D01*
X71675629Y-103701569D01*
X71680698Y-103698183D01*
X71681811Y-103699849D01*
X71737643Y-103676125D01*
X71806513Y-103687904D01*
X71858082Y-103735047D01*
X71875977Y-103802586D01*
X71866582Y-103846741D01*
X71809537Y-103984461D01*
X71809536Y-103984465D01*
X71789059Y-104139999D01*
X71789059Y-104140000D01*
X71809536Y-104295534D01*
X71809537Y-104295538D01*
X71866582Y-104433258D01*
X71874051Y-104502727D01*
X71842776Y-104565206D01*
X71782687Y-104600858D01*
X71712861Y-104598364D01*
X71681284Y-104580939D01*
X71680698Y-104581817D01*
X71675629Y-104578430D01*
X71502732Y-104486014D01*
X71315111Y-104429100D01*
X71120000Y-104409884D01*
X70924888Y-104429100D01*
X70737270Y-104486014D01*
X70614949Y-104551394D01*
X70614949Y-104551395D01*
X71105253Y-105041700D01*
X71071512Y-105041700D01*
X70977842Y-105066799D01*
X70893859Y-105115287D01*
X70825287Y-105183859D01*
X70776799Y-105267842D01*
X70751700Y-105361512D01*
X70751700Y-105395254D01*
X70261395Y-104904949D01*
X70261394Y-104904949D01*
X70196014Y-105027270D01*
X70139100Y-105214888D01*
X70119884Y-105410000D01*
X70139100Y-105605111D01*
X70196013Y-105792727D01*
X70261395Y-105915049D01*
X70751700Y-105424745D01*
X70751700Y-105458488D01*
X70776799Y-105552158D01*
X70825287Y-105636141D01*
X70893859Y-105704713D01*
X70977842Y-105753201D01*
X71071512Y-105778300D01*
X71105253Y-105778300D01*
X70614948Y-106268604D01*
X70737267Y-106333985D01*
X70924888Y-106390899D01*
X71120000Y-106410115D01*
X71315111Y-106390899D01*
X71502730Y-106333985D01*
X71625050Y-106268603D01*
X71134748Y-105778300D01*
X71168488Y-105778300D01*
X71262158Y-105753201D01*
X71346141Y-105704713D01*
X71414713Y-105636141D01*
X71463201Y-105552158D01*
X71488300Y-105458488D01*
X71488300Y-105424746D01*
X71978603Y-105915049D01*
X72043985Y-105792730D01*
X72100899Y-105605111D01*
X72120115Y-105410000D01*
X72100899Y-105214888D01*
X72043985Y-105027267D01*
X71951569Y-104854370D01*
X71948183Y-104849302D01*
X71949845Y-104848191D01*
X71926122Y-104792331D01*
X71937915Y-104723463D01*
X71985068Y-104671904D01*
X72052611Y-104654023D01*
X72096738Y-104663416D01*
X72234465Y-104720464D01*
X72371904Y-104738558D01*
X72389999Y-104740941D01*
X72390000Y-104740941D01*
X72390001Y-104740941D01*
X72406209Y-104738806D01*
X72545535Y-104720464D01*
X72683260Y-104663416D01*
X72752726Y-104655948D01*
X72815206Y-104687223D01*
X72850858Y-104747312D01*
X72848364Y-104817137D01*
X72830942Y-104848717D01*
X72831817Y-104849302D01*
X72828430Y-104854370D01*
X72736014Y-105027267D01*
X72679100Y-105214888D01*
X72659884Y-105410000D01*
X72679100Y-105605111D01*
X72736013Y-105792727D01*
X72801395Y-105915049D01*
X73291700Y-105424745D01*
X73291700Y-105458488D01*
X73316799Y-105552158D01*
X73365287Y-105636141D01*
X73433859Y-105704713D01*
X73517842Y-105753201D01*
X73611512Y-105778300D01*
X73645253Y-105778300D01*
X73154948Y-106268604D01*
X73277267Y-106333985D01*
X73464888Y-106390899D01*
X73660000Y-106410115D01*
X73855111Y-106390899D01*
X74042730Y-106333985D01*
X74165050Y-106268603D01*
X73674748Y-105778300D01*
X73708488Y-105778300D01*
X73802158Y-105753201D01*
X73886141Y-105704713D01*
X73954713Y-105636141D01*
X74003201Y-105552158D01*
X74028300Y-105458488D01*
X74028300Y-105424747D01*
X74518603Y-105915050D01*
X74583985Y-105792730D01*
X74640899Y-105605111D01*
X74660115Y-105410000D01*
X74640899Y-105214888D01*
X74583985Y-105027267D01*
X74518604Y-104904948D01*
X74028300Y-105395252D01*
X74028300Y-105361512D01*
X74003201Y-105267842D01*
X73954713Y-105183859D01*
X73886141Y-105115287D01*
X73802158Y-105066799D01*
X73708488Y-105041700D01*
X73674747Y-105041700D01*
X74165049Y-104551395D01*
X74042727Y-104486013D01*
X73855111Y-104429100D01*
X73660000Y-104409884D01*
X73464888Y-104429100D01*
X73277267Y-104486014D01*
X73104370Y-104578430D01*
X73099302Y-104581817D01*
X73098194Y-104580159D01*
X73042300Y-104603880D01*
X72973436Y-104592071D01*
X72921888Y-104544905D01*
X72904023Y-104477358D01*
X72913415Y-104433262D01*
X72970464Y-104295535D01*
X72990941Y-104140000D01*
X72970464Y-103984465D01*
X72913416Y-103846741D01*
X72905948Y-103777272D01*
X72937223Y-103714793D01*
X72997312Y-103679141D01*
X73067137Y-103681635D01*
X73098715Y-103699060D01*
X73099302Y-103698183D01*
X73104370Y-103701569D01*
X73277267Y-103793985D01*
X73464888Y-103850899D01*
X73660000Y-103870115D01*
X73855111Y-103850899D01*
X74042730Y-103793985D01*
X74165050Y-103728603D01*
X73674747Y-103238300D01*
X73708488Y-103238300D01*
X73802158Y-103213201D01*
X73886141Y-103164713D01*
X73954713Y-103096141D01*
X74003201Y-103012158D01*
X74028300Y-102918488D01*
X74028300Y-102884747D01*
X74518603Y-103375050D01*
X74583985Y-103252730D01*
X74640899Y-103065111D01*
X74660115Y-102870000D01*
X74640899Y-102674888D01*
X74583985Y-102487267D01*
X74518604Y-102364948D01*
X74028300Y-102855252D01*
X74028300Y-102821512D01*
X74003201Y-102727842D01*
X73954713Y-102643859D01*
X73886141Y-102575287D01*
X73802158Y-102526799D01*
X73708488Y-102501700D01*
X73674747Y-102501700D01*
X74165049Y-102011395D01*
X74042727Y-101946013D01*
X73855111Y-101889100D01*
X73660000Y-101869884D01*
X73464888Y-101889100D01*
X73277270Y-101946014D01*
X73154949Y-102011394D01*
X73154949Y-102011395D01*
X73645254Y-102501700D01*
X73611512Y-102501700D01*
X73517842Y-102526799D01*
X73433859Y-102575287D01*
X73365287Y-102643859D01*
X73316799Y-102727842D01*
X73291700Y-102821512D01*
X73291700Y-102855253D01*
X72801395Y-102364949D01*
X72801394Y-102364949D01*
X72736014Y-102487270D01*
X72679100Y-102674888D01*
X72659884Y-102870000D01*
X72679100Y-103065111D01*
X72736014Y-103252732D01*
X72828430Y-103425629D01*
X72831817Y-103430698D01*
X72830154Y-103431808D01*
X72853877Y-103487674D01*
X72842082Y-103556541D01*
X72794926Y-103608098D01*
X72727383Y-103625976D01*
X72683258Y-103616582D01*
X72545538Y-103559537D01*
X72545536Y-103559536D01*
X72545535Y-103559536D01*
X72467767Y-103549297D01*
X72390001Y-103539059D01*
X72389999Y-103539059D01*
X72234465Y-103559536D01*
X72234461Y-103559537D01*
X72096741Y-103616582D01*
X72027272Y-103624051D01*
X71964793Y-103592775D01*
X71929141Y-103532686D01*
X71931635Y-103462861D01*
X71949063Y-103431286D01*
X71948183Y-103430698D01*
X71951569Y-103425629D01*
X72043985Y-103252732D01*
X72100899Y-103065111D01*
X72120115Y-102870000D01*
X72100899Y-102674888D01*
X72043985Y-102487267D01*
X71978604Y-102364948D01*
X71488300Y-102855252D01*
X71488300Y-102821512D01*
X71463201Y-102727842D01*
X71414713Y-102643859D01*
X71346141Y-102575287D01*
X71262158Y-102526799D01*
X71168488Y-102501700D01*
X71134747Y-102501700D01*
X71625049Y-102011395D01*
X71502727Y-101946013D01*
X71315111Y-101889100D01*
X71120000Y-101869884D01*
X70924888Y-101889100D01*
X70737270Y-101946014D01*
X70614949Y-102011394D01*
X70614949Y-102011395D01*
X71105254Y-102501700D01*
X71071512Y-102501700D01*
X70977842Y-102526799D01*
X70893859Y-102575287D01*
X70825287Y-102643859D01*
X70776799Y-102727842D01*
X70751700Y-102821512D01*
X70751700Y-102855254D01*
X70261395Y-102364949D01*
X70261394Y-102364949D01*
X70196014Y-102487270D01*
X70139100Y-102674888D01*
X70119884Y-102870000D01*
X69036900Y-102870000D01*
X69036900Y-73509998D01*
X69734891Y-73509998D01*
X69734891Y-73510001D01*
X69755300Y-73795362D01*
X69816109Y-74074895D01*
X69916091Y-74342958D01*
X70053191Y-74594038D01*
X70053196Y-74594046D01*
X70159882Y-74736561D01*
X70159883Y-74736562D01*
X70841377Y-74055067D01*
X70924411Y-74179336D01*
X71070664Y-74325589D01*
X71194930Y-74408621D01*
X70513436Y-75090115D01*
X70655960Y-75196807D01*
X70655961Y-75196808D01*
X70907042Y-75333908D01*
X70907041Y-75333908D01*
X71175104Y-75433890D01*
X71454637Y-75494699D01*
X71739999Y-75515109D01*
X71740001Y-75515109D01*
X72025362Y-75494699D01*
X72304895Y-75433890D01*
X72572958Y-75333908D01*
X72824047Y-75196803D01*
X72966561Y-75090116D01*
X72966562Y-75090115D01*
X72285068Y-74408621D01*
X72409336Y-74325589D01*
X72555589Y-74179336D01*
X72638621Y-74055068D01*
X73320115Y-74736562D01*
X73320116Y-74736561D01*
X73426803Y-74594047D01*
X73563908Y-74342958D01*
X73663890Y-74074895D01*
X73724699Y-73795362D01*
X73745109Y-73510001D01*
X73745109Y-73509998D01*
X73724699Y-73224637D01*
X73663890Y-72945104D01*
X73563908Y-72677041D01*
X73426808Y-72425961D01*
X73426807Y-72425960D01*
X73320115Y-72283436D01*
X72638621Y-72964930D01*
X72555589Y-72840664D01*
X72409336Y-72694411D01*
X72285068Y-72611378D01*
X72966562Y-71929883D01*
X72966561Y-71929882D01*
X72824046Y-71823196D01*
X72824038Y-71823191D01*
X72572957Y-71686091D01*
X72572958Y-71686091D01*
X72304895Y-71586109D01*
X72025362Y-71525300D01*
X71740001Y-71504891D01*
X71739999Y-71504891D01*
X71454637Y-71525300D01*
X71175104Y-71586109D01*
X70907041Y-71686091D01*
X70655961Y-71823191D01*
X70655953Y-71823196D01*
X70513437Y-71929882D01*
X70513436Y-71929883D01*
X71194931Y-72611378D01*
X71070664Y-72694411D01*
X70924411Y-72840664D01*
X70841378Y-72964931D01*
X70159883Y-72283436D01*
X70159882Y-72283437D01*
X70053196Y-72425953D01*
X70053191Y-72425961D01*
X69916091Y-72677041D01*
X69816109Y-72945104D01*
X69755300Y-73224637D01*
X69734891Y-73509998D01*
X69036900Y-73509998D01*
X69036900Y-71130820D01*
X69056585Y-71063781D01*
X69109389Y-71018026D01*
X69160900Y-71006820D01*
X88369900Y-71006820D01*
X88436939Y-71026505D01*
G37*
%TD.AperFunction*%
%TA.AperFunction,Conductor*%
G36*
X88422007Y-121576301D02*
G01*
X88474569Y-121622334D01*
X88493900Y-121688821D01*
X88493900Y-124890442D01*
X88474215Y-124957481D01*
X88421411Y-125003236D01*
X88352253Y-125013180D01*
X88288697Y-124984155D01*
X88253718Y-124933776D01*
X88213908Y-124827041D01*
X88076808Y-124575961D01*
X88076807Y-124575960D01*
X87970115Y-124433436D01*
X87288621Y-125114930D01*
X87205589Y-124990664D01*
X87059336Y-124844411D01*
X86935068Y-124761378D01*
X87616562Y-124079883D01*
X87616561Y-124079882D01*
X87474046Y-123973196D01*
X87474038Y-123973191D01*
X87222957Y-123836091D01*
X87222958Y-123836091D01*
X86954896Y-123736110D01*
X86780126Y-123698090D01*
X86718803Y-123664605D01*
X86685319Y-123603281D01*
X86690303Y-123533590D01*
X86732175Y-123477656D01*
X86750834Y-123466113D01*
X86877545Y-123402476D01*
X87169509Y-123210449D01*
X87169510Y-123210448D01*
X87312179Y-123090734D01*
X87312180Y-123090733D01*
X86601367Y-122379919D01*
X86696521Y-122306906D01*
X86881906Y-122121521D01*
X86954919Y-122026367D01*
X87668849Y-122740297D01*
X87668851Y-122740296D01*
X87677022Y-122731636D01*
X87677033Y-122731623D01*
X87885710Y-122451322D01*
X88060438Y-122148683D01*
X88060444Y-122148670D01*
X88198854Y-121827800D01*
X88251109Y-121653257D01*
X88289194Y-121594680D01*
X88352902Y-121565992D01*
X88422007Y-121576301D01*
G37*
%TD.AperFunction*%
%TD*%
M02*
