%TF.GenerationSoftware,KiCad,Pcbnew,8.0.3*%
%TF.CreationDate,2024-07-19T20:57:39-07:00*%
%TF.ProjectId,wide_v1_4_layer,77696465-5f76-4315-9f34-5f6c61796572,V1*%
%TF.SameCoordinates,Original*%
%TF.FileFunction,Soldermask,Top*%
%TF.FilePolarity,Negative*%
%FSLAX46Y46*%
G04 Gerber Fmt 4.6, Leading zero omitted, Abs format (unit mm)*
G04 Created by KiCad (PCBNEW 8.0.3) date 2024-07-19 20:57:39*
%MOMM*%
%LPD*%
G01*
G04 APERTURE LIST*
%ADD10C,0.100000*%
%ADD11C,0.010000*%
%ADD12C,0.990600*%
%ADD13R,0.300000X0.670000*%
%ADD14R,0.300000X0.500000*%
%ADD15R,0.350000X1.000000*%
G04 APERTURE END LIST*
D10*
X83010000Y-100000000D02*
X82970000Y-102260000D01*
X74670000Y-102320000D01*
X74660000Y-99990000D01*
X83010000Y-100000000D01*
G36*
X83010000Y-100000000D02*
G01*
X82970000Y-102260000D01*
X74670000Y-102320000D01*
X74660000Y-99990000D01*
X83010000Y-100000000D01*
G37*
X84970000Y-100200000D02*
X72550000Y-100220000D01*
X72650000Y-92130000D01*
X85000000Y-92130000D01*
X84970000Y-100200000D01*
G36*
X84970000Y-100200000D02*
G01*
X72550000Y-100220000D01*
X72650000Y-92130000D01*
X85000000Y-92130000D01*
X84970000Y-100200000D01*
G37*
X88420000Y-92090000D02*
X69110000Y-92080000D01*
X69110000Y-81300000D01*
X88425829Y-81289975D01*
X88420000Y-92090000D01*
G36*
X88420000Y-92090000D02*
G01*
X69110000Y-92080000D01*
X69110000Y-81300000D01*
X88425829Y-81289975D01*
X88420000Y-92090000D01*
G37*
%TO.C,*%
D11*
X74750000Y-92450000D02*
X75250000Y-92450000D01*
X75250000Y-92950000D01*
X74750000Y-92950000D01*
X74750000Y-92450000D01*
G36*
X74750000Y-92450000D02*
G01*
X75250000Y-92450000D01*
X75250000Y-92950000D01*
X74750000Y-92950000D01*
X74750000Y-92450000D01*
G37*
X82350000Y-92450000D02*
X82850000Y-92450000D01*
X82850000Y-92950000D01*
X82350000Y-92950000D01*
X82350000Y-92450000D01*
G36*
X82350000Y-92450000D02*
G01*
X82850000Y-92450000D01*
X82850000Y-92950000D01*
X82350000Y-92950000D01*
X82350000Y-92450000D01*
G37*
X76646610Y-100180000D02*
X76896610Y-100180000D01*
X76896610Y-100680000D01*
X76646610Y-100680000D01*
X76646610Y-100180000D01*
G36*
X76646610Y-100180000D02*
G01*
X76896610Y-100180000D01*
X76896610Y-100680000D01*
X76646610Y-100680000D01*
X76646610Y-100180000D01*
G37*
X82350000Y-98225000D02*
X82850000Y-98225000D01*
X82850000Y-97975000D01*
X82350000Y-97975000D01*
X82350000Y-98225000D01*
G36*
X82350000Y-98225000D02*
G01*
X82850000Y-98225000D01*
X82850000Y-97975000D01*
X82350000Y-97975000D01*
X82350000Y-98225000D01*
G37*
X75239100Y-95575000D02*
X74739100Y-95575000D01*
X74739100Y-95825000D01*
X75239100Y-95825000D01*
X75239100Y-95575000D01*
G36*
X75239100Y-95575000D02*
G01*
X74739100Y-95575000D01*
X74739100Y-95825000D01*
X75239100Y-95825000D01*
X75239100Y-95575000D01*
G37*
%TO.C,R6*%
X69605000Y-101835000D02*
X70155000Y-101835000D01*
X70155000Y-102385000D01*
X69605000Y-102385000D01*
X69605000Y-101835000D01*
G36*
X69605000Y-101835000D02*
G01*
X70155000Y-101835000D01*
X70155000Y-102385000D01*
X69605000Y-102385000D01*
X69605000Y-101835000D01*
G37*
X69605000Y-102785000D02*
X70155000Y-102785000D01*
X70155000Y-103335000D01*
X69605000Y-103335000D01*
X69605000Y-102785000D01*
G36*
X69605000Y-102785000D02*
G01*
X70155000Y-102785000D01*
X70155000Y-103335000D01*
X69605000Y-103335000D01*
X69605000Y-102785000D01*
G37*
%TO.C,*%
X81103000Y-101500000D02*
X81353000Y-101500000D01*
X81353000Y-102000000D01*
X81103000Y-102000000D01*
X81103000Y-101500000D01*
G36*
X81103000Y-101500000D02*
G01*
X81353000Y-101500000D01*
X81353000Y-102000000D01*
X81103000Y-102000000D01*
X81103000Y-101500000D01*
G37*
X73843700Y-97675010D02*
X73343700Y-97675010D01*
X73343700Y-97925010D01*
X73843700Y-97925010D01*
X73843700Y-97675010D01*
G36*
X73843700Y-97675010D02*
G01*
X73343700Y-97675010D01*
X73343700Y-97925010D01*
X73843700Y-97925010D01*
X73843700Y-97675010D01*
G37*
X73839100Y-98575000D02*
X73339100Y-98575000D01*
X73339100Y-98825000D01*
X73839100Y-98825000D01*
X73839100Y-98575000D01*
G36*
X73839100Y-98575000D02*
G01*
X73339100Y-98575000D01*
X73339100Y-98825000D01*
X73839100Y-98825000D01*
X73839100Y-98575000D01*
G37*
X80540200Y-102000000D02*
X80290200Y-102000000D01*
X80290200Y-101500000D01*
X80540200Y-101500000D01*
X80540200Y-102000000D01*
G36*
X80540200Y-102000000D02*
G01*
X80290200Y-102000000D01*
X80290200Y-101500000D01*
X80540200Y-101500000D01*
X80540200Y-102000000D01*
G37*
X83783835Y-96225000D02*
X84283835Y-96225000D01*
X84283835Y-95975000D01*
X83783835Y-95975000D01*
X83783835Y-96225000D01*
G36*
X83783835Y-96225000D02*
G01*
X84283835Y-96225000D01*
X84283835Y-95975000D01*
X83783835Y-95975000D01*
X83783835Y-96225000D01*
G37*
X75046630Y-100180000D02*
X75296630Y-100180000D01*
X75296630Y-100680000D01*
X75046630Y-100680000D01*
X75046630Y-100180000D01*
G36*
X75046630Y-100180000D02*
G01*
X75296630Y-100180000D01*
X75296630Y-100680000D01*
X75046630Y-100680000D01*
X75046630Y-100180000D01*
G37*
X78613800Y-101500000D02*
X78863800Y-101500000D01*
X78863800Y-102000000D01*
X78613800Y-102000000D01*
X78613800Y-101500000D01*
G36*
X78613800Y-101500000D02*
G01*
X78863800Y-101500000D01*
X78863800Y-102000000D01*
X78613800Y-102000000D01*
X78613800Y-101500000D01*
G37*
X78221640Y-100180000D02*
X78471640Y-100180000D01*
X78471640Y-100680000D01*
X78221640Y-100680000D01*
X78221640Y-100180000D01*
G36*
X78221640Y-100180000D02*
G01*
X78471640Y-100180000D01*
X78471640Y-100680000D01*
X78221640Y-100680000D01*
X78221640Y-100180000D01*
G37*
X81476902Y-112370433D02*
X80926903Y-112370433D01*
X80926903Y-111820433D01*
X81476904Y-111820433D01*
X81476902Y-112370433D01*
G36*
X81476902Y-112370433D02*
G01*
X80926903Y-112370433D01*
X80926903Y-111820433D01*
X81476904Y-111820433D01*
X81476902Y-112370433D01*
G37*
X81476903Y-111420433D02*
X80926903Y-111420433D01*
X80926904Y-110870433D01*
X81476903Y-110870433D01*
X81476903Y-111420433D01*
G36*
X81476903Y-111420433D02*
G01*
X80926903Y-111420433D01*
X80926904Y-110870433D01*
X81476903Y-110870433D01*
X81476903Y-111420433D01*
G37*
X84283835Y-99474320D02*
X83783835Y-99474320D01*
X83783835Y-99724320D01*
X84283835Y-99724320D01*
X84283835Y-99474320D01*
G36*
X84283835Y-99474320D02*
G01*
X83783835Y-99474320D01*
X83783835Y-99724320D01*
X84283835Y-99724320D01*
X84283835Y-99474320D01*
G37*
X86277159Y-101241754D02*
X85888250Y-101630662D01*
X85499341Y-101241755D01*
X85888250Y-100852845D01*
X86277159Y-101241754D01*
G36*
X86277159Y-101241754D02*
G01*
X85888250Y-101630662D01*
X85499341Y-101241755D01*
X85888250Y-100852845D01*
X86277159Y-101241754D01*
G37*
X86948910Y-100570001D02*
X86560001Y-100958911D01*
X86171091Y-100570002D01*
X86560001Y-100181093D01*
X86948910Y-100570001D01*
G36*
X86948910Y-100570001D02*
G01*
X86560001Y-100958911D01*
X86171091Y-100570002D01*
X86560001Y-100181093D01*
X86948910Y-100570001D01*
G37*
X75242200Y-97987800D02*
X74742200Y-97987800D01*
X74742200Y-98237800D01*
X75242200Y-98237800D01*
X75242200Y-97987800D01*
G36*
X75242200Y-97987800D02*
G01*
X74742200Y-97987800D01*
X74742200Y-98237800D01*
X75242200Y-98237800D01*
X75242200Y-97987800D01*
G37*
X73854300Y-99476600D02*
X73354300Y-99476600D01*
X73354300Y-99726600D01*
X73854300Y-99726600D01*
X73854300Y-99476600D01*
G36*
X73854300Y-99476600D02*
G01*
X73354300Y-99476600D01*
X73354300Y-99726600D01*
X73854300Y-99726600D01*
X73854300Y-99476600D01*
G37*
X79046580Y-100180000D02*
X79296580Y-100180000D01*
X79296580Y-100680000D01*
X79046580Y-100680000D01*
X79046580Y-100180000D01*
G36*
X79046580Y-100180000D02*
G01*
X79296580Y-100180000D01*
X79296580Y-100680000D01*
X79046580Y-100680000D01*
X79046580Y-100180000D01*
G37*
X83783835Y-97025000D02*
X84283835Y-97025000D01*
X84283835Y-96775000D01*
X83783835Y-96775000D01*
X83783835Y-97025000D01*
G36*
X83783835Y-97025000D02*
G01*
X84283835Y-97025000D01*
X84283835Y-96775000D01*
X83783835Y-96775000D01*
X83783835Y-97025000D01*
G37*
X87874998Y-103305000D02*
X87324999Y-103305000D01*
X87324999Y-102755000D01*
X87875000Y-102755000D01*
X87874998Y-103305000D01*
G36*
X87874998Y-103305000D02*
G01*
X87324999Y-103305000D01*
X87324999Y-102755000D01*
X87875000Y-102755000D01*
X87874998Y-103305000D01*
G37*
X87874999Y-102355000D02*
X87324999Y-102355000D01*
X87325000Y-101805000D01*
X87874999Y-101805000D01*
X87874999Y-102355000D01*
G36*
X87874999Y-102355000D02*
G01*
X87324999Y-102355000D01*
X87325000Y-101805000D01*
X87874999Y-101805000D01*
X87874999Y-102355000D01*
G37*
X82246540Y-100180000D02*
X82496540Y-100180000D01*
X82496540Y-100680000D01*
X82246540Y-100680000D01*
X82246540Y-100180000D01*
G36*
X82246540Y-100180000D02*
G01*
X82496540Y-100180000D01*
X82496540Y-100680000D01*
X82246540Y-100680000D01*
X82246540Y-100180000D01*
G37*
X73839100Y-95175000D02*
X73339100Y-95175000D01*
X73339100Y-95425000D01*
X73839100Y-95425000D01*
X73839100Y-95175000D01*
G36*
X73839100Y-95175000D02*
G01*
X73339100Y-95175000D01*
X73339100Y-95425000D01*
X73839100Y-95425000D01*
X73839100Y-95175000D01*
G37*
X82327700Y-96625000D02*
X82827700Y-96625000D01*
X82827700Y-96375000D01*
X82327700Y-96375000D01*
X82327700Y-96625000D01*
G36*
X82327700Y-96625000D02*
G01*
X82827700Y-96625000D01*
X82827700Y-96375000D01*
X82327700Y-96375000D01*
X82327700Y-96625000D01*
G37*
X76756902Y-112370433D02*
X76206903Y-112370433D01*
X76206903Y-111820433D01*
X76756904Y-111820433D01*
X76756902Y-112370433D01*
G36*
X76756902Y-112370433D02*
G01*
X76206903Y-112370433D01*
X76206903Y-111820433D01*
X76756904Y-111820433D01*
X76756902Y-112370433D01*
G37*
X76756903Y-111420433D02*
X76206903Y-111420433D01*
X76206904Y-110870433D01*
X76756903Y-110870433D01*
X76756903Y-111420433D01*
G36*
X76756903Y-111420433D02*
G01*
X76206903Y-111420433D01*
X76206904Y-110870433D01*
X76756903Y-110870433D01*
X76756903Y-111420433D01*
G37*
%TO.C,9*%
X79846570Y-100180000D02*
X80096570Y-100180000D01*
X80096570Y-100680000D01*
X79846570Y-100680000D01*
X79846570Y-100180000D01*
G36*
X79846570Y-100180000D02*
G01*
X80096570Y-100180000D01*
X80096570Y-100680000D01*
X79846570Y-100680000D01*
X79846570Y-100180000D01*
G37*
%TO.C,*%
X76175400Y-101500000D02*
X76425400Y-101500000D01*
X76425400Y-102000000D01*
X76175400Y-102000000D01*
X76175400Y-101500000D01*
G36*
X76175400Y-101500000D02*
G01*
X76425400Y-101500000D01*
X76425400Y-102000000D01*
X76175400Y-102000000D01*
X76175400Y-101500000D01*
G37*
X74890433Y-109583097D02*
X74340433Y-109583096D01*
X74340433Y-109033097D01*
X74890433Y-109033097D01*
X74890433Y-109583097D01*
G36*
X74890433Y-109583097D02*
G01*
X74340433Y-109583096D01*
X74340433Y-109033097D01*
X74890433Y-109033097D01*
X74890433Y-109583097D01*
G37*
X75840433Y-109033098D02*
X75840433Y-109583097D01*
X75290433Y-109583097D01*
X75290433Y-109033096D01*
X75840433Y-109033098D01*
G36*
X75840433Y-109033098D02*
G01*
X75840433Y-109583097D01*
X75290433Y-109583097D01*
X75290433Y-109033096D01*
X75840433Y-109033098D01*
G37*
X81865000Y-101500000D02*
X82115000Y-101500000D01*
X82115000Y-102000000D01*
X81865000Y-102000000D01*
X81865000Y-101500000D01*
G36*
X81865000Y-101500000D02*
G01*
X82115000Y-101500000D01*
X82115000Y-102000000D01*
X81865000Y-102000000D01*
X81865000Y-101500000D01*
G37*
X82785000Y-109575001D02*
X82235000Y-109575000D01*
X82235000Y-109025001D01*
X82785000Y-109025001D01*
X82785000Y-109575001D01*
G36*
X82785000Y-109575001D02*
G01*
X82235000Y-109575000D01*
X82235000Y-109025001D01*
X82785000Y-109025001D01*
X82785000Y-109575001D01*
G37*
X83735000Y-109025002D02*
X83735000Y-109575001D01*
X83185000Y-109575001D01*
X83185000Y-109025000D01*
X83735000Y-109025002D01*
G36*
X83735000Y-109025002D02*
G01*
X83735000Y-109575001D01*
X83185000Y-109575001D01*
X83185000Y-109025000D01*
X83735000Y-109025002D01*
G37*
X82350000Y-93650000D02*
X82850000Y-93650000D01*
X82850000Y-94150000D01*
X82350000Y-94150000D01*
X82350000Y-93650000D01*
G36*
X82350000Y-93650000D02*
G01*
X82850000Y-93650000D01*
X82850000Y-94150000D01*
X82350000Y-94150000D01*
X82350000Y-93650000D01*
G37*
X75239100Y-97175000D02*
X74739100Y-97175000D01*
X74739100Y-97425000D01*
X75239100Y-97425000D01*
X75239100Y-97175000D01*
G36*
X75239100Y-97175000D02*
G01*
X74739100Y-97175000D01*
X74739100Y-97425000D01*
X75239100Y-97425000D01*
X75239100Y-97175000D01*
G37*
X77801000Y-101500000D02*
X78051000Y-101500000D01*
X78051000Y-102000000D01*
X77801000Y-102000000D01*
X77801000Y-101500000D01*
G36*
X77801000Y-101500000D02*
G01*
X78051000Y-101500000D01*
X78051000Y-102000000D01*
X77801000Y-102000000D01*
X77801000Y-101500000D01*
G37*
X83806955Y-97925000D02*
X84306955Y-97925000D01*
X84306955Y-97675000D01*
X83806955Y-97675000D01*
X83806955Y-97925000D01*
G36*
X83806955Y-97925000D02*
G01*
X84306955Y-97925000D01*
X84306955Y-97675000D01*
X83806955Y-97675000D01*
X83806955Y-97925000D01*
G37*
X77446600Y-100180000D02*
X77696600Y-100180000D01*
X77696600Y-100680000D01*
X77446600Y-100680000D01*
X77446600Y-100180000D01*
G36*
X77446600Y-100180000D02*
G01*
X77696600Y-100180000D01*
X77696600Y-100680000D01*
X77446600Y-100680000D01*
X77446600Y-100180000D01*
G37*
X73839100Y-95975000D02*
X73339100Y-95975000D01*
X73339100Y-96225000D01*
X73839100Y-96225000D01*
X73839100Y-95975000D01*
G36*
X73839100Y-95975000D02*
G01*
X73339100Y-95975000D01*
X73339100Y-96225000D01*
X73839100Y-96225000D01*
X73839100Y-95975000D01*
G37*
X81446550Y-100180000D02*
X81696550Y-100180000D01*
X81696550Y-100680000D01*
X81446550Y-100680000D01*
X81446550Y-100180000D01*
G36*
X81446550Y-100180000D02*
G01*
X81696550Y-100180000D01*
X81696550Y-100680000D01*
X81446550Y-100680000D01*
X81446550Y-100180000D01*
G37*
X75663400Y-102000000D02*
X75413400Y-102000000D01*
X75413400Y-101500000D01*
X75663400Y-101500000D01*
X75663400Y-102000000D01*
G36*
X75663400Y-102000000D02*
G01*
X75413400Y-102000000D01*
X75413400Y-101500000D01*
X75663400Y-101500000D01*
X75663400Y-102000000D01*
G37*
X74750000Y-93650000D02*
X75250000Y-93650000D01*
X75250000Y-94150000D01*
X74750000Y-94150000D01*
X74750000Y-93650000D01*
G36*
X74750000Y-93650000D02*
G01*
X75250000Y-93650000D01*
X75250000Y-94150000D01*
X74750000Y-94150000D01*
X74750000Y-93650000D01*
G37*
X76988200Y-101500000D02*
X77238200Y-101500000D01*
X77238200Y-102000000D01*
X76988200Y-102000000D01*
X76988200Y-101500000D01*
G36*
X76988200Y-101500000D02*
G01*
X77238200Y-101500000D01*
X77238200Y-102000000D01*
X76988200Y-102000000D01*
X76988200Y-101500000D01*
G37*
X74729100Y-99255800D02*
X75229100Y-99255800D01*
X75229100Y-99005800D01*
X74729100Y-99005800D01*
X74729100Y-99255800D01*
G36*
X74729100Y-99255800D02*
G01*
X75229100Y-99255800D01*
X75229100Y-99005800D01*
X74729100Y-99005800D01*
X74729100Y-99255800D01*
G37*
X80646560Y-100180000D02*
X80896560Y-100180000D01*
X80896560Y-100680000D01*
X80646560Y-100680000D01*
X80646560Y-100180000D01*
G36*
X80646560Y-100180000D02*
G01*
X80896560Y-100180000D01*
X80896560Y-100680000D01*
X80646560Y-100680000D01*
X80646560Y-100180000D01*
G37*
X73839100Y-96797000D02*
X73339100Y-96797000D01*
X73339100Y-97047000D01*
X73839100Y-97047000D01*
X73839100Y-96797000D01*
G36*
X73839100Y-96797000D02*
G01*
X73339100Y-96797000D01*
X73339100Y-97047000D01*
X73839100Y-97047000D01*
X73839100Y-96797000D01*
G37*
X71617157Y-100998249D02*
X71228248Y-101387158D01*
X70839341Y-100998248D01*
X71228248Y-100609339D01*
X71617157Y-100998249D01*
G36*
X71617157Y-100998249D02*
G01*
X71228248Y-101387158D01*
X70839341Y-100998248D01*
X71228248Y-100609339D01*
X71617157Y-100998249D01*
G37*
X72288908Y-101670001D02*
X71900000Y-102058909D01*
X71511091Y-101670000D01*
X71900000Y-101281092D01*
X72288908Y-101670001D01*
G36*
X72288908Y-101670001D02*
G01*
X71900000Y-102058909D01*
X71511091Y-101670000D01*
X71900000Y-101281092D01*
X72288908Y-101670001D01*
G37*
X82850000Y-98965000D02*
X82350000Y-98965000D01*
X82350000Y-99215000D01*
X82850000Y-99215000D01*
X82850000Y-98965000D01*
G36*
X82850000Y-98965000D02*
G01*
X82350000Y-98965000D01*
X82350000Y-99215000D01*
X82850000Y-99215000D01*
X82850000Y-98965000D01*
G37*
X79477400Y-101500000D02*
X79727400Y-101500000D01*
X79727400Y-102000000D01*
X79477400Y-102000000D01*
X79477400Y-101500000D01*
G36*
X79477400Y-101500000D02*
G01*
X79727400Y-101500000D01*
X79727400Y-102000000D01*
X79477400Y-102000000D01*
X79477400Y-101500000D01*
G37*
X75250300Y-94775000D02*
X74750300Y-94775000D01*
X74750300Y-95025000D01*
X75250300Y-95025000D01*
X75250300Y-94775000D01*
G36*
X75250300Y-94775000D02*
G01*
X74750300Y-94775000D01*
X74750300Y-95025000D01*
X75250300Y-95025000D01*
X75250300Y-94775000D01*
G37*
X75239100Y-96387790D02*
X74739100Y-96387790D01*
X74739100Y-96637790D01*
X75239100Y-96637790D01*
X75239100Y-96387790D01*
G36*
X75239100Y-96387790D02*
G01*
X74739100Y-96387790D01*
X74739100Y-96637790D01*
X75239100Y-96637790D01*
X75239100Y-96387790D01*
G37*
X82327700Y-97425000D02*
X82827700Y-97425000D01*
X82827700Y-97175000D01*
X82327700Y-97175000D01*
X82327700Y-97425000D01*
G36*
X82327700Y-97425000D02*
G01*
X82827700Y-97425000D01*
X82827700Y-97175000D01*
X82327700Y-97175000D01*
X82327700Y-97425000D01*
G37*
X83806955Y-98824320D02*
X84306955Y-98824320D01*
X84306955Y-98574320D01*
X83806955Y-98574320D01*
X83806955Y-98824320D01*
G36*
X83806955Y-98824320D02*
G01*
X84306955Y-98824320D01*
X84306955Y-98574320D01*
X83806955Y-98574320D01*
X83806955Y-98824320D01*
G37*
X75846620Y-100180000D02*
X76096620Y-100180000D01*
X76096620Y-100680000D01*
X75846620Y-100680000D01*
X75846620Y-100180000D01*
G36*
X75846620Y-100180000D02*
G01*
X76096620Y-100180000D01*
X76096620Y-100680000D01*
X75846620Y-100680000D01*
X75846620Y-100180000D01*
G37*
%TD*%
D12*
%TO.C,SMP2*%
X72390000Y-104140000D03*
X71120000Y-105410000D03*
X73660000Y-105410000D03*
X73660000Y-102870000D03*
X71120000Y-102870000D03*
%TD*%
%TO.C,SMP3*%
X85090000Y-104140000D03*
X83820000Y-105410000D03*
X86360000Y-105410000D03*
X86360000Y-102870000D03*
X83820000Y-102870000D03*
%TD*%
%TO.C,SMP1*%
X72390000Y-111760000D03*
X71120000Y-113030000D03*
X73660000Y-113030000D03*
X73660000Y-110490000D03*
X71120000Y-110490000D03*
%TD*%
D13*
%TO.C,ZIF1*%
X71291600Y-133451600D03*
D14*
X71591600Y-130386600D03*
D13*
X71891600Y-133451600D03*
D14*
X72191600Y-130386600D03*
D13*
X72491600Y-133451600D03*
D14*
X72791600Y-130386600D03*
D13*
X73091600Y-133451600D03*
D14*
X73391600Y-130386600D03*
D13*
X73691600Y-133451600D03*
D14*
X73991600Y-130386600D03*
D13*
X74291600Y-133451600D03*
D14*
X74591600Y-130386600D03*
D13*
X74891600Y-133451600D03*
D14*
X75191600Y-130386600D03*
D13*
X75491600Y-133451600D03*
D14*
X75791600Y-130386600D03*
D13*
X76091600Y-133451600D03*
D14*
X76391600Y-130386600D03*
D13*
X76691600Y-133451600D03*
D14*
X76991600Y-130386600D03*
D13*
X77291600Y-133451600D03*
D14*
X77591600Y-130386600D03*
D13*
X77891600Y-133451600D03*
D14*
X78191600Y-130386600D03*
D13*
X78491600Y-133451600D03*
D14*
X78791600Y-130386600D03*
D13*
X79091600Y-133451600D03*
D14*
X79391600Y-130386600D03*
D13*
X79691600Y-133451600D03*
D14*
X79991600Y-130386600D03*
D13*
X80291600Y-133451600D03*
D14*
X80591600Y-130386600D03*
D13*
X80891600Y-133451600D03*
D14*
X81191600Y-130386600D03*
D13*
X81491600Y-133451600D03*
D14*
X81791600Y-130386600D03*
D13*
X82091600Y-133451600D03*
D14*
X82391600Y-130386600D03*
D13*
X82691600Y-133451600D03*
D14*
X82991600Y-130386600D03*
D13*
X83291600Y-133451600D03*
D14*
X83591600Y-130386600D03*
D13*
X83891600Y-133451600D03*
D14*
X84191600Y-130386600D03*
D13*
X84491600Y-133451600D03*
D14*
X84791600Y-130386600D03*
D13*
X85091600Y-133451600D03*
D14*
X85391600Y-130386600D03*
D13*
X85691600Y-133451600D03*
D14*
X85991600Y-130386600D03*
D13*
X86291600Y-133451600D03*
D15*
X70316600Y-133186600D03*
X87266600Y-133186600D03*
%TD*%
D12*
%TO.C,SMP4*%
X85090000Y-111760000D03*
X83820000Y-113030000D03*
X86360000Y-113030000D03*
X86360000Y-110490000D03*
X83820000Y-110490000D03*
%TD*%
M02*
