M48
; DRILL file {KiCad 8.0.3} date 2024-07-21T22:55:39-0700
; FORMAT={-:-/ absolute / inch / decimal}
; #@! TF.CreationDate,2024-07-21T22:55:39-07:00
; #@! TF.GenerationSoftware,Kicad,Pcbnew,8.0.3
; #@! TF.FileFunction,Plated,1,4,PTH
FMAT,2
INCH
; #@! TA.AperFunction,Plated,PTH,ViaDrill
T1C0.0078
; #@! TA.AperFunction,Plated,PTH,ViaDrill
T2C0.0079
; #@! TA.AperFunction,Plated,PTH,ViaDrill
T3C0.0118
; #@! TA.AperFunction,Plated,PTH,ComponentDrill
T4C0.0290
; #@! TA.AperFunction,Plated,PTH,ComponentDrill
T5C0.0827
; #@! TA.AperFunction,Plated,PTH,ComponentDrill
T6C0.1575
%
G90
G05
T1
X2.8957Y-5.3339
X2.9263Y-3.9028
X2.9263Y-3.7677
X2.9263Y-3.7997
X2.9264Y-3.7366
X2.9266Y-3.8317
X2.9266Y-3.8637
X2.938Y-5.334
X2.954Y-5.194
X3.0Y-5.334
X3.1543Y-5.334
X3.174Y-5.22
X3.1862Y-5.3339
X3.194Y-5.064
X3.2019Y-5.1921
X3.22Y-5.334
X3.249Y-5.193
X3.256Y-5.064
X3.278Y-3.7992
X3.278Y-3.8307
X3.278Y-3.8642
X3.278Y-3.9012
X3.2782Y-3.7362
X3.2782Y-3.7697
X3.28Y-5.194
X3.288Y-5.334
X3.31Y-5.194
X3.32Y-5.064
X3.344Y-5.194
X3.358Y-5.334
X3.376Y-5.194
X3.386Y-5.064
X3.412Y-5.194
X3.418Y-5.064
T2
X2.7248Y-3.3228
X2.7252Y-3.272
X2.7252Y-3.376
X2.7256Y-3.226
X2.726Y-3.4295
X2.7315Y-3.7413
X2.7315Y-3.7563
X2.7315Y-3.7713
X2.7315Y-3.7863
X2.7315Y-3.8013
X2.7315Y-3.8163
X2.7315Y-3.8303
X2.7319Y-3.8494
X2.7319Y-3.8644
X2.7319Y-3.8794
X2.7319Y-3.8944
X2.7319Y-3.9094
X2.7319Y-3.9244
X2.7319Y-3.9394
X2.7319Y-3.9544
X2.7319Y-3.9694
X2.7319Y-3.9844
X2.7319Y-3.9984
X2.7323Y-3.7267
X2.7327Y-4.6839
X2.7327Y-4.9268
X2.7335Y-4.1559
X2.7335Y-4.6091
X2.7335Y-4.763
X2.7335Y-5.0201
X2.7343Y-4.5319
X2.7354Y-4.2252
X2.7354Y-4.3079
X2.7354Y-4.3772
X2.7354Y-4.4535
X2.7362Y-4.8618
X2.7382Y-3.713
X2.7441Y-3.5051
X2.7449Y-3.6551
X2.7451Y-3.5981
X2.7504Y-3.4681
X2.7508Y-3.7031
X2.7508Y-3.1504
X2.7526Y-2.9663
X2.7526Y-3.0608
X2.7569Y-3.549
X2.7598Y-5.338
X2.761Y-3.6926
X2.7635Y-5.427
X2.7673Y-4.4854
X2.7705Y-3.9724
X2.7709Y-3.9921
X2.7713Y-4.8421
X2.7717Y-3.6811
X2.7717Y-3.7425
X2.7717Y-3.7575
X2.7717Y-3.7725
X2.7717Y-3.7875
X2.7717Y-3.8025
X2.7717Y-3.8175
X2.7717Y-3.8325
X2.7717Y-3.8465
X2.7717Y-3.8637
X2.7717Y-3.8787
X2.7717Y-3.8937
X2.7717Y-3.9077
X2.7721Y-4.5562
X2.7741Y-4.6332
X2.7744Y-3.1031
X2.7763Y-3.0135
X2.7764Y-3.1902
X2.7776Y-5.0201
X2.7783Y-3.9217
X2.779Y-4.101
X2.7791Y-3.5751
X2.7801Y-3.4831
X2.7801Y-3.5261
X2.781Y-4.252
X2.7811Y-3.7287
X2.7821Y-3.6211
X2.7831Y-3.6705
X2.787Y-4.882
X2.7871Y-5.3798
X2.7898Y-3.9323
X2.7937Y-3.7169
X2.7941Y-4.5212
X2.7941Y-3.6602
X2.7951Y-4.5942
X2.798Y-3.1504
X2.7999Y-2.9663
X2.7999Y-3.0608
X2.8008Y-3.9437
X2.801Y-4.398
X2.804Y-4.215
X2.804Y-4.286
X2.8043Y-3.648
X2.8059Y-3.7047
X2.807Y-5.338
X2.8075Y-3.7455
X2.8075Y-3.7605
X2.8075Y-3.7755
X2.8075Y-3.7905
X2.8075Y-3.8055
X2.8075Y-3.8205
X2.8075Y-3.8355
X2.8075Y-3.8495
X2.8075Y-3.8649
X2.8075Y-3.8799
X2.8075Y-3.8949
X2.8075Y-3.9099
X2.8075Y-3.9239
X2.8108Y-5.427
X2.8128Y-3.5551
X2.815Y-3.5059
X2.8154Y-3.9453
X2.8161Y-3.5981
X2.8165Y-3.637
X2.8165Y-3.7299
X2.8181Y-3.6921
X2.8211Y-4.5572
X2.8217Y-3.1031
X2.8235Y-3.0135
X2.8236Y-3.1902
X2.8264Y-3.9567
X2.827Y-4.249
X2.8276Y-3.7173
X2.8303Y-4.0732
X2.8307Y-3.6295
X2.8315Y-3.6787
X2.8343Y-4.3213
X2.8344Y-5.3798
X2.8378Y-3.9677
X2.8394Y-3.7067
X2.8406Y-4.2724
X2.8421Y-4.5212
X2.8421Y-4.5942
X2.8453Y-3.1504
X2.8457Y-4.3102
X2.846Y-4.447
X2.8465Y-3.6299
X2.8465Y-3.6689
X2.8465Y-3.7732
X2.8465Y-3.7894
X2.8465Y-3.8839
X2.8469Y-3.8059
X2.8469Y-3.822
X2.8469Y-3.8374
X2.8469Y-3.8524
X2.8469Y-3.8681
X2.8471Y-2.9663
X2.8471Y-3.0608
X2.8472Y-3.9004
X2.8472Y-3.9173
X2.8476Y-3.7571
X2.848Y-4.172
X2.8488Y-3.9791
X2.8496Y-3.6949
X2.8531Y-4.2268
X2.8567Y-4.2988
X2.858Y-5.427
X2.8602Y-3.9902
X2.8615Y-3.6299
X2.8626Y-3.6693
X2.863Y-3.6843
X2.8641Y-4.5572
X2.8661Y-3.9406
X2.8689Y-4.2878
X2.8689Y-3.1031
X2.8708Y-3.0135
X2.8709Y-3.1902
X2.8717Y-4.0748
X2.872Y-4.002
X2.8724Y-3.7295
X2.873Y-5.292
X2.876Y-4.25
X2.8765Y-3.6299
X2.878Y-3.9516
X2.879Y-4.883
X2.8811Y-4.5932
X2.8816Y-5.3798
X2.8835Y-4.013
X2.8846Y-4.2827
X2.8858Y-3.7181
X2.889Y-3.9634
X2.8915Y-3.6299
X2.8925Y-3.1504
X2.8936Y-4.0966
X2.8944Y-2.9663
X2.8944Y-3.0608
X2.897Y-4.214
X2.8972Y-4.4921
X2.9Y-4.397
X2.9Y-4.926
X2.9004Y-3.9748
X2.9016Y-4.2827
X2.9028Y-3.7169
X2.9051Y-4.6332
X2.9052Y-5.427
X2.9065Y-3.6299
X2.909Y-4.5565
X2.9122Y-3.9862
X2.9162Y-3.1031
X2.9177Y-4.2827
X2.918Y-3.0135
X2.9181Y-3.1902
X2.919Y-4.25
X2.9193Y-3.7161
X2.9193Y-4.1071
X2.9197Y-4.0854
X2.9197Y-4.1894
X2.9215Y-3.6299
X2.9228Y-3.998
X2.9228Y-4.2051
X2.926Y-4.5925
X2.9283Y-4.8992
X2.9299Y-5.3798
X2.9343Y-4.2169
X2.935Y-3.7169
X2.9354Y-4.0094
X2.9365Y-3.6299
X2.9408Y-3.1504
X2.9426Y-2.9663
X2.9426Y-3.0608
X2.9465Y-4.0213
X2.9465Y-4.2303
X2.9469Y-4.4207
X2.9469Y-4.4617
X2.9469Y-4.5047
X2.9503Y-4.8622
X2.9531Y-4.3421
X2.9535Y-5.427
X2.9575Y-4.0374
X2.9583Y-4.0516
X2.9583Y-4.1587
X2.9587Y-4.0657
X2.9587Y-4.0957
X2.9587Y-4.1118
X2.9587Y-4.1272
X2.9587Y-4.1433
X2.9587Y-4.2433
X2.9591Y-4.0807
X2.9591Y-4.1748
X2.9634Y-4.1902
X2.9644Y-3.1031
X2.9663Y-3.0135
X2.9664Y-3.1902
X2.9681Y-4.8303
X2.9701Y-4.3815
X2.9709Y-4.2555
X2.9736Y-4.5518
X2.9755Y-4.701
X2.976Y-4.2024
X2.9771Y-5.3798
X2.9787Y-4.626
X2.9791Y-4.7671
X2.9791Y-4.4528
X2.9827Y-4.2665
X2.9843Y-4.6654
X2.9874Y-4.511
X2.9878Y-4.2154
X2.988Y-3.1504
X2.9882Y-4.1642
X2.9899Y-2.9663
X2.9899Y-3.0608
X2.9906Y-4.5878
X2.9909Y-4.3291
X2.9909Y-4.3492
X2.9913Y-4.2803
X2.9917Y-3.7417
X2.9925Y-4.737
X2.9929Y-3.6646
X2.9929Y-3.7008
X2.9961Y-4.8031
X3.0008Y-5.427
X3.0016Y-4.2287
X3.0104Y-4.1903
X3.0114Y-4.1413
X3.0117Y-3.1031
X3.0135Y-3.0135
X3.0136Y-3.1902
X3.0138Y-4.2413
X3.0181Y-3.8
X3.0244Y-5.3798
X3.0272Y-4.2543
X3.0303Y-4.2728
X3.0303Y-4.2898
X3.0303Y-4.3063
X3.0303Y-4.3228
X3.0303Y-4.3385
X3.0303Y-4.3535
X3.0353Y-3.1504
X3.0371Y-2.9663
X3.0371Y-3.0608
X3.048Y-5.427
X3.0589Y-3.1031
X3.0608Y-3.0135
X3.0609Y-3.1902
X3.0697Y-3.8018
X3.0697Y-3.8398
X3.0716Y-5.3798
X3.0825Y-3.1504
X3.0844Y-2.9663
X3.0844Y-3.0608
X3.0952Y-5.427
X3.1062Y-3.1031
X3.108Y-3.0135
X3.1081Y-3.1902
X3.1199Y-5.3798
X3.1264Y-3.8026
X3.1264Y-3.8406
X3.1308Y-3.1504
X3.1326Y-2.9663
X3.1326Y-3.0608
X3.1435Y-5.427
X3.1544Y-3.1031
X3.1563Y-3.0135
X3.1564Y-3.1902
X3.1671Y-5.3798
X3.1772Y-4.2685
X3.1772Y-4.2854
X3.1772Y-4.3197
X3.1776Y-4.3028
X3.1776Y-4.337
X3.1776Y-4.352
X3.178Y-3.1504
X3.1787Y-4.2516
X3.1799Y-2.9663
X3.1799Y-3.0608
X3.1843Y-3.8004
X3.1882Y-4.2358
X3.1908Y-5.427
X3.1933Y-4.1835
X3.1943Y-4.1345
X3.2008Y-4.2224
X3.2017Y-3.1031
X3.2035Y-3.0135
X3.2036Y-3.1902
X3.2071Y-3.7409
X3.2083Y-3.6638
X3.2083Y-3.7
X3.2138Y-4.2102
X3.2144Y-5.3798
X3.2157Y-4.452
X3.2165Y-4.1606
X3.2169Y-4.3228
X3.2169Y-4.3385
X3.2169Y-4.3535
X3.2179Y-4.5071
X3.219Y-5.098
X3.2193Y-4.2819
X3.2205Y-4.2646
X3.2253Y-3.1504
X3.2254Y-4.5752
X3.2264Y-4.1976
X3.2271Y-4.8065
X3.2271Y-2.9663
X3.2271Y-3.0608
X3.2283Y-4.7402
X3.2335Y-4.2508
X3.2348Y-4.5464
X3.2378Y-4.1854
X3.2379Y-4.6101
X3.238Y-5.427
X3.2406Y-4.7764
X3.2417Y-4.0465
X3.2417Y-4.0615
X3.2417Y-4.0765
X3.2417Y-4.0915
X3.2417Y-4.1055
X3.2417Y-4.1228
X3.2417Y-4.1378
X3.2417Y-4.1528
X3.2417Y-4.1693
X3.2417Y-4.7075
X3.2425Y-4.3758
X3.2425Y-4.4598
X3.2441Y-4.8425
X3.2461Y-4.0311
X3.2472Y-4.2386
X3.2489Y-3.1031
X3.2508Y-3.0135
X3.2509Y-3.1902
X3.2583Y-4.0205
X3.2591Y-4.511
X3.2614Y-4.226
X3.2616Y-5.3798
X3.2677Y-4.6024
X3.2697Y-3.6295
X3.2701Y-4.0087
X3.2706Y-3.7161
X3.2724Y-4.2126
X3.2725Y-3.1504
X3.2744Y-2.9663
X3.2744Y-3.0608
X3.2788Y-4.5669
X3.2799Y-4.1969
X3.2807Y-4.1795
X3.2811Y-4.0814
X3.2811Y-4.0964
X3.2811Y-4.1114
X3.2815Y-3.9972
X3.283Y-4.249
X3.283Y-4.404
X3.2847Y-3.6295
X3.2847Y-4.4942
X3.2852Y-5.427
X3.2874Y-4.8622
X3.2882Y-3.7165
X3.2931Y-3.9862
X3.2962Y-3.1031
X3.298Y-3.0135
X3.2981Y-3.1902
X3.2997Y-3.6295
X3.3028Y-4.2803
X3.3043Y-3.9748
X3.3049Y-4.5394
X3.3051Y-3.7161
X3.3055Y-4.2213
X3.3071Y-4.9016
X3.3094Y-4.0996
X3.3139Y-4.6339
X3.3139Y-5.3798
X3.3147Y-3.6295
X3.3157Y-3.9634
X3.3189Y-3.7244
X3.3189Y-4.2803
X3.3205Y-4.0134
X3.3248Y-3.1504
X3.3266Y-2.9663
X3.3266Y-3.0608
X3.3268Y-3.9528
X3.329Y-4.249
X3.3291Y-3.7358
X3.3307Y-3.6295
X3.3307Y-4.0256
X3.3307Y-4.3673
X3.3331Y-4.0035
X3.3339Y-4.2835
X3.3375Y-5.427
X3.3382Y-3.9406
X3.3425Y-4.5315
X3.3437Y-3.9913
X3.3445Y-4.2925
X3.3465Y-3.6319
X3.3465Y-4.8819
X3.3467Y-4.6102
X3.3484Y-3.1031
X3.3503Y-3.0135
X3.3504Y-3.1902
X3.351Y-4.167
X3.3516Y-4.2248
X3.3539Y-3.7953
X3.354Y-4.449
X3.3543Y-3.8713
X3.3543Y-3.9236
X3.3543Y-3.9803
X3.3547Y-3.7638
X3.3547Y-3.7799
X3.3547Y-3.811
X3.3547Y-3.826
X3.3547Y-3.841
X3.3547Y-3.855
X3.3547Y-3.8886
X3.3547Y-3.9043
X3.3547Y-4.3047
X3.3606Y-3.6421
X3.361Y-4.2768
X3.3611Y-5.3798
X3.3657Y-3.9681
X3.3669Y-4.3181
X3.3693Y-4.3358
X3.3697Y-4.0283
X3.3713Y-4.3693
X3.3717Y-3.6547
X3.372Y-3.1504
X3.3739Y-2.9663
X3.3739Y-3.0608
X3.374Y-4.5748
X3.3776Y-3.9571
X3.378Y-4.25
X3.3783Y-4.0134
X3.3827Y-3.6654
X3.3848Y-5.427
X3.3886Y-3.9461
X3.3933Y-3.7645
X3.3933Y-3.7795
X3.3933Y-3.7945
X3.3933Y-3.8095
X3.3933Y-3.8245
X3.3933Y-3.8395
X3.3933Y-3.8535
X3.3933Y-3.869
X3.3933Y-3.884
X3.3933Y-3.899
X3.3933Y-3.914
X3.3933Y-3.928
X3.3937Y-4.5372
X3.3937Y-4.6299
X3.3941Y-3.6772
X3.3957Y-3.1031
X3.3961Y-3.5075
X3.3971Y-3.6005
X3.3975Y-3.0135
X3.3976Y-3.1902
X3.399Y-4.214
X3.399Y-4.287
X3.399Y-3.6375
X3.4047Y-3.6882
X3.407Y-4.399
X3.4078Y-5.338
X3.4084Y-5.3798
X3.4088Y-3.5513
X3.4094Y-3.7488
X3.4098Y-3.8579
X3.4098Y-3.8941
X3.4098Y-3.9295
X3.411Y-3.7807
X3.411Y-3.8169
X3.4157Y-4.5672
X3.4157Y-3.6988
X3.4193Y-3.1504
X3.4205Y-3.7602
X3.4209Y-3.9173
X3.421Y-4.1
X3.421Y-4.25
X3.4211Y-2.9663
X3.4211Y-3.0608
X3.4213Y-3.6636
X3.4252Y-4.3067
X3.426Y-3.7098
X3.4287Y-4.1953
X3.4307Y-3.8321
X3.4307Y-3.8469
X3.4307Y-3.8921
X3.4307Y-3.9709
X3.4307Y-4.5035
X3.4311Y-3.5775
X3.4311Y-3.7717
X3.4311Y-3.7871
X3.4311Y-3.8021
X3.4311Y-3.8171
X3.4311Y-3.8618
X3.4311Y-3.878
X3.4311Y-3.9075
X3.4311Y-3.9894
X3.432Y-5.427
X3.4321Y-3.4855
X3.4321Y-3.5285
X3.4341Y-3.6235
X3.437Y-4.6142
X3.4378Y-3.7213
X3.4429Y-3.1031
X3.4448Y-3.0135
X3.4449Y-3.1902
X3.4449Y-4.6457
X3.4449Y-4.8819
X3.4488Y-3.7315
X3.4496Y-4.5398
X3.455Y-5.338
X3.4556Y-5.3798
X3.4571Y-4.4823
X3.4583Y-3.6866
X3.4591Y-3.7425
X3.4618Y-3.5075
X3.463Y-5.0264
X3.4638Y-4.8441
X3.4647Y-3.5574
X3.4657Y-4.289
X3.4665Y-3.1504
X3.4665Y-3.6488
X3.4665Y-4.3736
X3.4665Y-4.4472
X3.4673Y-4.1685
X3.4681Y-3.6005
X3.4684Y-2.9663
X3.4684Y-3.0608
X3.4685Y-4.2134
X3.4693Y-3.8508
X3.4693Y-3.8658
X3.4693Y-3.9108
X3.4693Y-3.9258
X3.4693Y-3.9408
X3.4693Y-3.9558
X3.4693Y-3.9708
X3.4693Y-3.9858
X3.4693Y-3.9998
X3.4697Y-3.7877
X3.4697Y-3.8027
X3.4697Y-3.8177
X3.4697Y-3.8317
X3.4697Y-3.8807
X3.4697Y-3.8957
X3.4705Y-3.7577
X3.4705Y-3.7727
X3.4744Y-3.3224
X3.4748Y-3.2717
X3.4748Y-3.3756
X3.4752Y-3.2256
X3.4756Y-3.4291
T3
X2.8819Y-3.6732
X2.9047Y-3.6732
X2.9291Y-3.6732
X3.2754Y-3.6732
X3.2998Y-3.6732
X3.3226Y-3.6732
X3.3425Y-3.6874
X3.3602Y-3.7043
X3.3772Y-3.7201
X3.3929Y-3.737
T4
X2.8Y-4.05
X2.8Y-4.15
X2.8Y-4.35
X2.8Y-4.45
X2.85Y-4.1
X2.85Y-4.4
X2.9Y-4.05
X2.9Y-4.15
X2.9Y-4.35
X2.9Y-4.45
X3.3Y-4.05
X3.3Y-4.15
X3.3Y-4.35
X3.3Y-4.45
X3.35Y-4.1
X3.35Y-4.4
X3.4Y-4.05
X3.4Y-4.15
X3.4Y-4.35
X3.4Y-4.45
T5
X2.8244Y-2.8941
X2.8244Y-4.9472
X3.4012Y-2.8941
X3.4012Y-4.9472
T6
X2.8638Y-4.7543
X3.3612Y-4.7559
M30
