M48
; DRILL file {KiCad 8.0.3} date 2024-08-09T22:56:53-0400
; FORMAT={-:-/ absolute / inch / decimal}
; #@! TF.CreationDate,2024-08-09T22:56:53-04:00
; #@! TF.GenerationSoftware,Kicad,Pcbnew,8.0.3
; #@! TF.FileFunction,Plated,1,4,PTH
FMAT,2
INCH
; #@! TA.AperFunction,Plated,PTH,ViaDrill
T1C0.0078
; #@! TA.AperFunction,Plated,PTH,ViaDrill
T2C0.0079
; #@! TA.AperFunction,Plated,PTH,ViaDrill
T3C0.0118
; #@! TA.AperFunction,Plated,PTH,ComponentDrill
T4C0.0290
; #@! TA.AperFunction,Plated,PTH,ComponentDrill
T5C0.0827
; #@! TA.AperFunction,Plated,PTH,ComponentDrill
T6C0.1575
%
G90
G05
T1
X2.8957Y-5.3339
X2.9263Y-3.9028
X2.9263Y-3.7677
X2.9263Y-3.7997
X2.9264Y-3.7366
X2.9266Y-3.8317
X2.9266Y-3.8637
X2.938Y-5.334
X2.954Y-5.194
X3.0Y-5.334
X3.1543Y-5.334
X3.174Y-5.22
X3.1862Y-5.3339
X3.194Y-5.064
X3.2019Y-5.1921
X3.22Y-5.334
X3.249Y-5.193
X3.256Y-5.064
X3.278Y-3.7992
X3.278Y-3.8307
X3.278Y-3.8642
X3.278Y-3.9012
X3.2782Y-3.7362
X3.2782Y-3.7697
X3.28Y-5.194
X3.288Y-5.334
X3.31Y-5.194
X3.32Y-5.064
X3.344Y-5.194
X3.358Y-5.334
X3.376Y-5.194
X3.386Y-5.064
X3.412Y-5.194
X3.418Y-5.064
T2
X2.7323Y-3.7267
X2.7323Y-3.7417
X2.7323Y-3.7567
X2.7323Y-3.7717
X2.7323Y-3.7867
X2.7323Y-3.8017
X2.7323Y-3.8167
X2.7323Y-3.8307
X2.7327Y-3.8498
X2.7327Y-3.8648
X2.7327Y-3.8798
X2.7327Y-3.8948
X2.7327Y-3.9098
X2.7327Y-3.9248
X2.7327Y-3.9398
X2.7327Y-3.9548
X2.7327Y-3.9698
X2.7327Y-3.9848
X2.7327Y-3.9988
X2.7327Y-4.6839
X2.7327Y-4.9268
X2.7335Y-4.1559
X2.7335Y-4.6091
X2.7335Y-4.763
X2.7335Y-5.0201
X2.7343Y-4.5319
X2.7354Y-4.2252
X2.7354Y-4.3079
X2.7354Y-4.3772
X2.7354Y-4.4535
X2.7362Y-4.8618
X2.7406Y-3.7126
X2.7441Y-3.5051
X2.7449Y-3.6551
X2.7451Y-3.5981
X2.7504Y-3.4681
X2.7508Y-3.1504
X2.7516Y-3.7026
X2.7526Y-2.9663
X2.7526Y-3.0608
X2.7569Y-3.549
X2.7598Y-5.338
X2.7626Y-3.6926
X2.7635Y-5.427
X2.7673Y-4.4854
X2.7689Y-3.9835
X2.7689Y-4.0004
X2.7701Y-3.9685
X2.7713Y-4.8421
X2.7717Y-3.7425
X2.7717Y-3.7575
X2.7717Y-3.7725
X2.7717Y-3.7875
X2.7717Y-3.8025
X2.7717Y-3.8175
X2.7717Y-3.8325
X2.7717Y-3.8465
X2.7717Y-3.8637
X2.7717Y-3.8787
X2.7717Y-3.8937
X2.7717Y-3.9077
X2.7721Y-4.5562
X2.7732Y-3.6803
X2.7741Y-4.6332
X2.7744Y-3.1031
X2.7763Y-3.0135
X2.7764Y-3.1902
X2.7772Y-3.9228
X2.7776Y-5.0201
X2.779Y-4.101
X2.7791Y-3.5751
X2.7801Y-3.4831
X2.7801Y-3.5261
X2.781Y-4.252
X2.7811Y-3.7287
X2.7821Y-3.6211
X2.7842Y-3.6703
X2.787Y-4.882
X2.7871Y-5.3798
X2.7886Y-3.9339
X2.7933Y-3.7161
X2.7941Y-4.5212
X2.7951Y-4.5942
X2.7952Y-3.6603
X2.798Y-3.1504
X2.7996Y-3.9457
X2.7999Y-2.9663
X2.7999Y-3.0608
X2.801Y-4.398
X2.804Y-4.215
X2.804Y-4.286
X2.8055Y-3.7039
X2.8059Y-3.648
X2.807Y-5.338
X2.8075Y-3.7455
X2.8075Y-3.7605
X2.8075Y-3.7755
X2.8075Y-3.7905
X2.8075Y-3.8055
X2.8075Y-3.8205
X2.8075Y-3.8355
X2.8075Y-3.8495
X2.8075Y-3.8649
X2.8075Y-3.8799
X2.8075Y-3.8949
X2.8075Y-3.9099
X2.8075Y-3.9239
X2.8108Y-5.427
X2.8128Y-3.5551
X2.815Y-3.5059
X2.8161Y-3.5981
X2.8165Y-3.9453
X2.8169Y-3.638
X2.8177Y-3.6913
X2.8177Y-3.7303
X2.8211Y-4.5572
X2.8217Y-3.1031
X2.8235Y-3.0135
X2.8236Y-3.1902
X2.827Y-4.249
X2.8276Y-3.9567
X2.8287Y-3.7185
X2.8303Y-4.0732
X2.8307Y-4.3736
X2.8311Y-3.6311
X2.8311Y-3.678
X2.8323Y-4.3374
X2.8344Y-5.3798
X2.8358Y-4.3224
X2.839Y-3.9677
X2.8397Y-3.7085
X2.8421Y-4.5212
X2.8421Y-4.5942
X2.8449Y-3.7646
X2.8449Y-3.7802
X2.8449Y-3.7952
X2.8449Y-3.8102
X2.8449Y-3.8252
X2.8449Y-3.8402
X2.8449Y-3.8542
X2.8449Y-3.8696
X2.8449Y-3.8846
X2.8449Y-3.9015
X2.8449Y-3.9165
X2.8453Y-3.1504
X2.8457Y-4.3102
X2.846Y-3.6319
X2.846Y-4.447
X2.8471Y-4.2827
X2.8471Y-2.9663
X2.8471Y-3.0608
X2.8476Y-3.6677
X2.848Y-4.172
X2.85Y-3.9791
X2.8504Y-3.6962
X2.852Y-3.7488
X2.8531Y-4.2268
X2.8547Y-3.9303
X2.8575Y-4.2996
X2.858Y-5.427
X2.861Y-3.6319
X2.8614Y-3.6862
X2.8614Y-3.9902
X2.8626Y-3.6677
X2.8634Y-3.7366
X2.8641Y-4.5572
X2.8657Y-3.9417
X2.8689Y-4.2878
X2.8689Y-3.1031
X2.8693Y-4.3732
X2.8708Y-3.0135
X2.8709Y-3.1902
X2.8717Y-4.0748
X2.873Y-5.292
X2.8732Y-4.002
X2.8748Y-3.7252
X2.876Y-3.6319
X2.876Y-4.25
X2.8772Y-3.9528
X2.879Y-4.883
X2.8811Y-4.5932
X2.8816Y-5.3798
X2.8846Y-4.013
X2.885Y-4.2835
X2.8878Y-3.7146
X2.8882Y-3.9642
X2.891Y-3.6319
X2.8925Y-3.1504
X2.8936Y-4.0966
X2.8944Y-2.9663
X2.8944Y-3.0608
X2.897Y-4.214
X2.8972Y-4.4921
X2.8996Y-3.9752
X2.9Y-4.397
X2.9Y-4.926
X2.9016Y-4.2835
X2.9039Y-3.7142
X2.9051Y-4.6332
X2.9052Y-5.427
X2.906Y-3.6319
X2.909Y-4.5565
X2.9114Y-3.987
X2.9162Y-3.1031
X2.918Y-3.0135
X2.9181Y-4.2835
X2.9181Y-4.3197
X2.9181Y-3.1902
X2.9189Y-3.7142
X2.919Y-4.25
X2.9201Y-4.0858
X2.9201Y-4.1008
X2.9201Y-4.1158
X2.9201Y-4.1843
X2.921Y-3.6319
X2.922Y-4.2012
X2.9228Y-3.998
X2.926Y-4.5925
X2.9283Y-4.8992
X2.9299Y-5.3798
X2.9339Y-3.7142
X2.9339Y-4.215
X2.9343Y-4.011
X2.936Y-3.6319
X2.9408Y-3.1504
X2.9426Y-2.9663
X2.9426Y-3.0608
X2.9461Y-4.0228
X2.9465Y-4.228
X2.9469Y-4.4207
X2.9469Y-4.4617
X2.9469Y-4.5047
X2.9503Y-4.8622
X2.9531Y-4.3421
X2.9535Y-5.427
X2.9575Y-4.0339
X2.9575Y-4.0524
X2.9575Y-4.0674
X2.9575Y-4.0824
X2.9575Y-4.0974
X2.9575Y-4.1114
X2.9575Y-4.1287
X2.9575Y-4.1437
X2.9575Y-4.1587
X2.9575Y-4.1752
X2.9598Y-4.2413
X2.9622Y-4.1909
X2.9644Y-3.1031
X2.9663Y-3.0135
X2.9664Y-3.1902
X2.9681Y-4.8303
X2.9701Y-4.3815
X2.9732Y-4.2543
X2.9736Y-4.5518
X2.9744Y-4.2035
X2.9755Y-4.701
X2.9771Y-5.3798
X2.9787Y-4.626
X2.9791Y-4.7671
X2.9791Y-4.4528
X2.9839Y-4.2657
X2.9843Y-4.6654
X2.987Y-4.2165
X2.9874Y-4.511
X2.988Y-3.1504
X2.9882Y-4.1642
X2.9899Y-2.9663
X2.9899Y-3.0608
X2.9906Y-4.5878
X2.9917Y-3.7417
X2.9925Y-4.737
X2.9929Y-3.6646
X2.9929Y-3.7008
X2.9929Y-4.3232
X2.9929Y-4.3389
X2.9929Y-4.3539
X2.9933Y-4.2799
X2.9961Y-4.8031
X3.0004Y-4.2299
X3.0008Y-5.427
X3.0104Y-4.1903
X3.0114Y-4.1413
X3.0117Y-3.1031
X3.0135Y-3.0135
X3.0136Y-3.1902
X3.0138Y-4.2429
X3.0181Y-3.8
X3.0244Y-5.3798
X3.0252Y-4.2551
X3.0295Y-4.2728
X3.0295Y-4.2898
X3.0295Y-4.3063
X3.0295Y-4.3228
X3.0295Y-4.3385
X3.0295Y-4.3535
X3.0353Y-3.1504
X3.0371Y-2.9663
X3.0371Y-3.0608
X3.048Y-5.427
X3.0589Y-3.1031
X3.0608Y-3.0135
X3.0609Y-3.1902
X3.0697Y-3.8018
X3.0697Y-3.8398
X3.0716Y-5.3798
X3.0825Y-3.1504
X3.0844Y-2.9663
X3.0844Y-3.0608
X3.0952Y-5.427
X3.1062Y-3.1031
X3.108Y-3.0135
X3.1081Y-3.1902
X3.1199Y-5.3798
X3.1264Y-3.8026
X3.1264Y-3.8406
X3.1308Y-3.1504
X3.1326Y-2.9663
X3.1326Y-3.0608
X3.1435Y-5.427
X3.1544Y-3.1031
X3.1563Y-3.0135
X3.1564Y-3.1902
X3.1671Y-5.3798
X3.178Y-4.2713
X3.178Y-4.2882
X3.178Y-4.3047
X3.178Y-4.3213
X3.178Y-4.337
X3.178Y-4.352
X3.178Y-3.1504
X3.1783Y-4.2516
X3.1799Y-2.9663
X3.1799Y-3.0608
X3.1843Y-3.8004
X3.1898Y-4.237
X3.1908Y-5.427
X3.1933Y-4.1835
X3.1943Y-4.1345
X3.2017Y-3.1031
X3.2024Y-4.2244
X3.2035Y-3.0135
X3.2036Y-3.1902
X3.2071Y-3.7409
X3.2083Y-3.6638
X3.2083Y-3.7
X3.2142Y-4.2122
X3.2144Y-5.3798
X3.2146Y-4.2839
X3.2154Y-4.3213
X3.2154Y-4.337
X3.2154Y-4.352
X3.2157Y-4.452
X3.2165Y-4.1606
X3.2165Y-4.2626
X3.2179Y-4.5071
X3.219Y-5.098
X3.2253Y-3.1504
X3.2254Y-4.5752
X3.2268Y-4.1996
X3.2271Y-4.8065
X3.2271Y-2.9663
X3.2271Y-3.0608
X3.2283Y-4.7402
X3.2291Y-4.25
X3.2348Y-4.5464
X3.2379Y-4.6101
X3.238Y-5.427
X3.2382Y-4.1874
X3.2406Y-4.7764
X3.2417Y-4.7075
X3.2425Y-4.3758
X3.2425Y-4.4598
X3.2429Y-4.0471
X3.2429Y-4.0621
X3.2429Y-4.0771
X3.2429Y-4.0921
X3.2429Y-4.1061
X3.2429Y-4.1234
X3.2429Y-4.1384
X3.2429Y-4.1534
X3.2429Y-4.1699
X3.2429Y-4.2366
X3.2441Y-4.8425
X3.247Y-4.0339
X3.2489Y-3.1031
X3.2508Y-3.0135
X3.2509Y-3.1902
X3.2559Y-4.2232
X3.2584Y-4.0228
X3.2591Y-4.511
X3.2616Y-5.3798
X3.2677Y-4.6024
X3.2685Y-3.6319
X3.2689Y-4.2098
X3.2702Y-4.011
X3.2706Y-3.7142
X3.2725Y-3.1504
X3.2744Y-2.9663
X3.2744Y-3.0608
X3.2788Y-4.5669
X3.2791Y-4.1787
X3.2791Y-4.1961
X3.2795Y-4.0814
X3.2795Y-4.0964
X3.2795Y-4.1114
X3.2817Y-3.998
X3.283Y-4.249
X3.283Y-4.404
X3.2835Y-3.6319
X3.2847Y-4.4942
X3.2852Y-5.427
X3.2874Y-4.8622
X3.2878Y-3.7146
X3.2931Y-3.987
X3.2962Y-3.1031
X3.2972Y-4.2854
X3.298Y-3.0135
X3.2981Y-3.1902
X3.2985Y-3.6319
X3.3049Y-3.9752
X3.3049Y-4.5394
X3.3051Y-3.715
X3.3055Y-4.2213
X3.3071Y-4.9016
X3.3094Y-4.0996
X3.3134Y-4.2854
X3.3135Y-3.6319
X3.3139Y-4.6339
X3.3139Y-5.3798
X3.3163Y-3.9642
X3.3193Y-4.013
X3.3205Y-3.7232
X3.3248Y-3.1504
X3.3266Y-2.9663
X3.3266Y-3.0608
X3.3268Y-3.9528
X3.329Y-4.249
X3.3291Y-4.2866
X3.3295Y-3.6319
X3.3323Y-4.3701
X3.3327Y-4.0736
X3.3339Y-3.7366
X3.3343Y-4.0055
X3.3343Y-4.0256
X3.3346Y-4.0425
X3.3346Y-4.0575
X3.3375Y-5.427
X3.3387Y-3.9417
X3.3406Y-4.2961
X3.3425Y-4.5315
X3.3441Y-3.9929
X3.3461Y-3.6327
X3.3465Y-4.8819
X3.3467Y-4.6102
X3.3484Y-3.1031
X3.3498Y-3.9303
X3.3503Y-3.0135
X3.3504Y-3.1902
X3.351Y-4.167
X3.3516Y-4.2248
X3.3524Y-4.3063
X3.354Y-4.449
X3.3543Y-3.9803
X3.3559Y-3.7646
X3.3559Y-3.7802
X3.3559Y-3.7952
X3.3559Y-3.8102
X3.3559Y-3.8252
X3.3559Y-3.8402
X3.3559Y-3.8542
X3.3559Y-3.8696
X3.3559Y-3.8846
X3.3559Y-3.9015
X3.3559Y-3.9165
X3.3594Y-3.6437
X3.361Y-4.2768
X3.3611Y-5.3798
X3.3642Y-4.3189
X3.365Y-3.9677
X3.3677Y-4.3358
X3.3689Y-4.3705
X3.3701Y-4.0291
X3.3709Y-3.6559
X3.3717Y-4.0752
X3.372Y-3.1504
X3.3739Y-2.9663
X3.3739Y-3.0608
X3.374Y-4.5748
X3.3764Y-3.9567
X3.378Y-4.25
X3.3787Y-4.0146
X3.3819Y-3.668
X3.3848Y-5.427
X3.3874Y-3.9453
X3.3921Y-3.7648
X3.3921Y-3.7798
X3.3921Y-3.7948
X3.3921Y-3.8098
X3.3921Y-3.8248
X3.3921Y-3.8398
X3.3921Y-3.8538
X3.3921Y-3.8692
X3.3921Y-3.8842
X3.3921Y-3.8992
X3.3921Y-3.9142
X3.3921Y-3.9282
X3.3929Y-3.678
X3.3937Y-4.5372
X3.3937Y-4.6299
X3.3957Y-3.1031
X3.3961Y-3.5075
X3.3971Y-3.6005
X3.3975Y-3.0135
X3.3976Y-3.1902
X3.399Y-4.214
X3.399Y-4.287
X3.399Y-3.6375
X3.4036Y-3.6902
X3.407Y-4.399
X3.4078Y-5.338
X3.4084Y-5.3798
X3.4088Y-3.5513
X3.4098Y-3.8579
X3.4098Y-3.8941
X3.4102Y-3.7476
X3.411Y-3.7807
X3.411Y-3.8169
X3.411Y-3.9307
X3.4146Y-3.7002
X3.4157Y-4.5672
X3.4193Y-3.1504
X3.421Y-4.1
X3.421Y-4.25
X3.4211Y-2.9663
X3.4211Y-3.0608
X3.4213Y-3.6636
X3.4224Y-3.7587
X3.4224Y-3.9185
X3.4252Y-4.3067
X3.4256Y-3.7102
X3.4287Y-4.1953
X3.4307Y-4.5035
X3.4311Y-3.5775
X3.432Y-5.427
X3.4321Y-3.4855
X3.4321Y-3.5285
X3.4327Y-3.9776
X3.4327Y-3.9953
X3.4328Y-3.7725
X3.4328Y-3.7875
X3.4328Y-3.8025
X3.4328Y-3.8175
X3.4328Y-3.8325
X3.4328Y-3.8465
X3.4328Y-3.8637
X3.4328Y-3.8787
X3.4328Y-3.8937
X3.4328Y-3.9077
X3.4331Y-3.9598
X3.4341Y-3.6235
X3.4363Y-3.7225
X3.437Y-4.6142
X3.4429Y-3.1031
X3.4448Y-3.0135
X3.4449Y-3.1902
X3.4449Y-4.6457
X3.4449Y-4.8819
X3.4473Y-3.7325
X3.4496Y-4.5398
X3.455Y-5.338
X3.4556Y-5.3798
X3.4571Y-4.4823
X3.4583Y-3.6866
X3.4583Y-3.7425
X3.4618Y-3.5075
X3.463Y-5.0264
X3.4638Y-4.8441
X3.4647Y-3.5574
X3.4657Y-4.289
X3.4665Y-3.1504
X3.4665Y-3.6488
X3.4665Y-4.3736
X3.4665Y-4.4472
X3.4673Y-4.1685
X3.4681Y-3.6005
X3.4684Y-2.9663
X3.4684Y-3.0608
X3.4685Y-3.8509
X3.4685Y-3.8659
X3.4685Y-3.8809
X3.4685Y-3.8959
X3.4685Y-3.9109
X3.4685Y-3.9259
X3.4685Y-3.9409
X3.4685Y-3.9559
X3.4685Y-3.9709
X3.4685Y-3.9859
X3.4685Y-3.9999
X3.4685Y-4.2134
X3.4689Y-3.7578
X3.4689Y-3.7728
X3.4689Y-3.7878
X3.4689Y-3.8028
X3.4689Y-3.8178
X3.4689Y-3.8318
T3
X2.8819Y-3.6732
X2.9047Y-3.6732
X2.9291Y-3.6732
X3.2754Y-3.6732
X3.2998Y-3.6732
X3.3226Y-3.6732
X3.3425Y-3.6874
X3.3602Y-3.7043
X3.3772Y-3.7201
X3.3929Y-3.737
T4
X2.8Y-4.05
X2.8Y-4.15
X2.8Y-4.35
X2.8Y-4.45
X2.85Y-4.1
X2.85Y-4.4
X2.9Y-4.05
X2.9Y-4.15
X2.9Y-4.35
X2.9Y-4.45
X3.3Y-4.05
X3.3Y-4.15
X3.3Y-4.35
X3.3Y-4.45
X3.35Y-4.1
X3.35Y-4.4
X3.4Y-4.05
X3.4Y-4.15
X3.4Y-4.35
X3.4Y-4.45
T5
X2.8244Y-2.8941
X2.8244Y-4.9472
X3.4012Y-2.8941
X3.4012Y-4.9472
T6
X2.8638Y-4.7543
X3.3612Y-4.7559
M30
