M48
; DRILL file {KiCad 8.0.3} date 2024-07-17T15:11:24-0700
; FORMAT={-:-/ absolute / inch / decimal}
; #@! TF.CreationDate,2024-07-17T15:11:24-07:00
; #@! TF.GenerationSoftware,Kicad,Pcbnew,8.0.3
; #@! TF.FileFunction,Plated,1,4,PTH
FMAT,2
INCH
; #@! TA.AperFunction,Plated,PTH,ViaDrill
T1C0.0078
; #@! TA.AperFunction,Plated,PTH,ViaDrill
T2C0.0079
; #@! TA.AperFunction,Plated,PTH,ComponentDrill
T3C0.0290
; #@! TA.AperFunction,Plated,PTH,ComponentDrill
T4C0.0827
; #@! TA.AperFunction,Plated,PTH,ComponentDrill
T5C0.1575
%
G90
G05
T1
X2.8957Y-5.3339
X2.9263Y-3.9028
X2.9263Y-3.7677
X2.9263Y-3.7997
X2.9264Y-3.7366
X2.9266Y-3.8317
X2.9266Y-3.8637
X2.938Y-5.334
X2.954Y-5.194
X3.0Y-5.334
X3.1543Y-5.334
X3.174Y-5.22
X3.1862Y-5.3339
X3.194Y-5.064
X3.2019Y-5.1921
X3.22Y-5.334
X3.249Y-5.193
X3.256Y-5.064
X3.278Y-3.7992
X3.278Y-3.8307
X3.278Y-3.8642
X3.278Y-3.9012
X3.2782Y-3.7362
X3.2782Y-3.7697
X3.28Y-5.194
X3.288Y-5.334
X3.31Y-5.194
X3.32Y-5.064
X3.344Y-5.194
X3.358Y-5.334
X3.376Y-5.194
X3.386Y-5.064
X3.412Y-5.194
X3.418Y-5.064
T2
X2.724Y-3.0177
X2.724Y-3.1217
X2.7244Y-2.9717
X2.7248Y-3.0685
X2.7248Y-3.1752
X2.7248Y-3.226
X2.7248Y-3.3228
X2.7248Y-3.376
X2.7248Y-3.4295
X2.7252Y-3.272
X2.7319Y-3.8953
X2.7319Y-3.9457
X2.7323Y-3.7308
X2.7323Y-3.7478
X2.7323Y-3.7638
X2.7323Y-3.7822
X2.7323Y-3.7992
X2.7323Y-3.8152
X2.7323Y-3.8312
X2.7323Y-3.8462
X2.7323Y-3.8622
X2.7323Y-3.8782
X2.7323Y-3.9303
X2.7323Y-3.9626
X2.7323Y-3.9803
X2.7323Y-3.9963
X2.7327Y-3.9126
X2.7327Y-4.6839
X2.7327Y-4.9268
X2.7335Y-4.1559
X2.7335Y-4.6091
X2.7335Y-4.763
X2.7335Y-5.0201
X2.7343Y-4.5319
X2.7354Y-4.2252
X2.7354Y-4.3079
X2.7354Y-4.3772
X2.7354Y-4.4535
X2.7362Y-4.8618
X2.739Y-2.8256
X2.739Y-2.8728
X2.739Y-2.9201
X2.7402Y-3.7165
X2.7441Y-3.5051
X2.7449Y-3.6551
X2.7451Y-3.5981
X2.7504Y-3.4681
X2.752Y-3.7047
X2.7569Y-3.549
X2.7598Y-5.338
X2.7635Y-5.427
X2.7638Y-3.6929
X2.7673Y-4.4854
X2.7685Y-3.9657
X2.7685Y-3.9839
X2.7689Y-3.7783
X2.7689Y-3.7925
X2.7689Y-3.8087
X2.7689Y-3.8244
X2.7689Y-3.9988
X2.7693Y-3.7618
X2.7693Y-3.8412
X2.7693Y-3.8572
X2.7693Y-3.8722
X2.7693Y-3.8882
X2.7697Y-3.7461
X2.7697Y-3.9047
X2.7713Y-4.8421
X2.7721Y-4.5562
X2.7741Y-4.6332
X2.7748Y-3.9193
X2.7756Y-3.6815
X2.776Y-3.7327
X2.7776Y-3.9748
X2.7776Y-5.0201
X2.779Y-4.101
X2.7791Y-3.5751
X2.7801Y-3.4831
X2.7801Y-3.5261
X2.781Y-4.252
X2.7811Y-2.813
X2.7821Y-3.6211
X2.7858Y-3.9319
X2.7862Y-3.6701
X2.7866Y-3.7213
X2.787Y-4.882
X2.7871Y-5.3798
X2.7906Y-3.8362
X2.7906Y-3.8724
X2.7917Y-3.7591
X2.7917Y-3.7953
X2.7941Y-4.5212
X2.7951Y-4.5942
X2.7961Y-3.7114
X2.7969Y-3.9413
X2.7972Y-3.6583
X2.801Y-4.398
X2.804Y-4.215
X2.804Y-4.286
X2.8067Y-3.7016
X2.807Y-5.338
X2.8079Y-3.648
X2.8087Y-3.8091
X2.8087Y-3.8382
X2.8087Y-3.8524
X2.8091Y-3.7516
X2.8091Y-3.7795
X2.8091Y-3.7941
X2.8091Y-3.8236
X2.8091Y-3.8795
X2.8091Y-3.9071
X2.8091Y-3.9213
X2.8094Y-3.765
X2.8094Y-3.8657
X2.8094Y-3.8937
X2.8102Y-3.9354
X2.8108Y-5.427
X2.8128Y-3.5551
X2.813Y-3.7366
X2.815Y-3.5059
X2.8161Y-3.5981
X2.8177Y-3.6906
X2.8181Y-3.6386
X2.8189Y-3.9472
X2.8211Y-4.5572
X2.8236Y-3.7252
X2.827Y-4.249
X2.828Y-3.6807
X2.8311Y-3.9591
X2.8323Y-4.0681
X2.8323Y-4.3654
X2.8327Y-4.0315
X2.8327Y-4.3358
X2.8331Y-3.6323
X2.8331Y-4.3248
X2.8344Y-5.3798
X2.8346Y-3.7154
X2.8378Y-3.6713
X2.8421Y-4.5212
X2.8421Y-4.5942
X2.8421Y-3.9701
X2.8433Y-4.313
X2.8445Y-3.7047
X2.8445Y-3.7697
X2.8445Y-3.8874
X2.8445Y-3.902
X2.8445Y-3.9165
X2.8449Y-3.7846
X2.8449Y-3.7992
X2.8449Y-3.8138
X2.8449Y-3.8287
X2.8449Y-3.8433
X2.8449Y-3.8583
X2.8449Y-3.8728
X2.846Y-4.447
X2.8461Y-3.7559
X2.8471Y-4.2827
X2.8476Y-3.6319
X2.848Y-4.172
X2.8516Y-3.6677
X2.8528Y-3.9807
X2.8531Y-3.9283
X2.8531Y-4.2268
X2.8539Y-3.6953
X2.8543Y-4.3028
X2.8551Y-3.7445
X2.858Y-5.427
X2.8598Y-4.0047
X2.8626Y-3.6319
X2.8634Y-3.6858
X2.8634Y-3.9913
X2.8638Y-3.9402
X2.8641Y-4.5572
X2.8646Y-3.6677
X2.8657Y-3.7343
X2.8681Y-4.0185
X2.8681Y-4.0327
X2.8681Y-4.2906
X2.8681Y-4.3669
X2.8685Y-4.0673
X2.873Y-5.292
X2.874Y-4.002
X2.8744Y-2.8138
X2.8748Y-3.6795
X2.8756Y-3.9516
X2.876Y-4.25
X2.8776Y-3.6319
X2.8776Y-3.7236
X2.8787Y-3.6673
X2.879Y-4.883
X2.8811Y-4.5932
X2.8816Y-5.3798
X2.8858Y-4.0142
X2.886Y-4.2846
X2.887Y-3.963
X2.8886Y-3.7146
X2.8906Y-3.6795
X2.8925Y-3.6323
X2.8936Y-4.0966
X2.8941Y-3.6669
X2.897Y-4.214
X2.8972Y-4.4921
X2.898Y-3.974
X2.9Y-4.397
X2.9Y-4.926
X2.901Y-4.2846
X2.9035Y-3.715
X2.9051Y-4.6332
X2.9052Y-5.427
X2.9055Y-3.6795
X2.9071Y-3.6319
X2.9083Y-3.6669
X2.909Y-4.5565
X2.9098Y-3.9862
X2.915Y-4.2846
X2.9157Y-4.3193
X2.9185Y-3.7154
X2.9189Y-4.0842
X2.9189Y-4.0992
X2.9189Y-4.1142
X2.919Y-4.25
X2.9197Y-4.199
X2.9205Y-3.6795
X2.9209Y-4.1823
X2.9224Y-3.6315
X2.9224Y-3.9976
X2.9232Y-3.6669
X2.926Y-4.5925
X2.9283Y-4.8992
X2.9299Y-5.3798
X2.9307Y-4.211
X2.9339Y-3.6791
X2.9339Y-4.0098
X2.9343Y-3.7154
X2.9362Y-3.6669
X2.937Y-3.6319
X2.9429Y-4.2222
X2.9449Y-4.022
X2.9469Y-4.4207
X2.9469Y-4.4617
X2.9469Y-4.5047
X2.9503Y-4.8622
X2.9531Y-4.3421
X2.9535Y-5.427
X2.9539Y-4.2342
X2.9551Y-4.0354
X2.9559Y-4.0669
X2.9563Y-4.0512
X2.9563Y-4.0819
X2.9563Y-4.0974
X2.9563Y-4.1134
X2.9563Y-4.1294
X2.9563Y-4.1444
X2.9563Y-4.1604
X2.9563Y-4.1764
X2.9618Y-4.1904
X2.9657Y-4.2453
X2.9681Y-4.8303
X2.9701Y-4.3815
X2.9728Y-4.2024
X2.9736Y-4.5518
X2.9755Y-4.701
X2.9771Y-5.3798
X2.978Y-4.2571
X2.9787Y-4.626
X2.9791Y-4.7671
X2.9791Y-4.4528
X2.9838Y-4.2144
X2.9843Y-4.6654
X2.9874Y-4.511
X2.9882Y-4.1642
X2.989Y-4.2685
X2.9906Y-4.5878
X2.9917Y-3.7417
X2.9925Y-4.737
X2.9929Y-3.6646
X2.9929Y-3.7008
X2.9929Y-4.2835
X2.9929Y-4.3233
X2.9929Y-4.3394
X2.9933Y-4.3543
X2.9957Y-4.2254
X2.9961Y-4.8031
X3.0008Y-5.427
X3.0079Y-4.2372
X3.0104Y-4.1903
X3.0114Y-4.1413
X3.0181Y-3.8
X3.0197Y-4.2488
X3.0244Y-5.3798
X3.0287Y-4.2614
X3.0287Y-4.2773
X3.0287Y-4.2933
X3.0287Y-4.3083
X3.0287Y-4.324
X3.0287Y-4.34
X3.0287Y-4.355
X3.048Y-5.427
X3.0697Y-3.8018
X3.0697Y-3.8398
X3.0716Y-5.3798
X3.0952Y-5.427
X3.1199Y-5.3798
X3.1264Y-3.8026
X3.1264Y-3.8406
X3.1435Y-5.427
X3.1671Y-5.3798
X3.1783Y-4.2563
X3.1783Y-4.272
X3.1783Y-4.3031
X3.1787Y-4.287
X3.1787Y-4.3197
X3.1791Y-4.3528
X3.1795Y-4.3366
X3.1819Y-4.2433
X3.1843Y-3.8004
X3.1908Y-5.427
X3.1913Y-4.2339
X3.1933Y-4.1835
X3.1943Y-4.1345
X3.2024Y-4.2232
X3.2071Y-3.7409
X3.2083Y-3.6638
X3.2083Y-3.7
X3.2138Y-4.213
X3.2144Y-5.3798
X3.2146Y-4.3374
X3.215Y-4.2693
X3.215Y-4.3531
X3.2154Y-4.2843
X3.2157Y-4.452
X3.2165Y-4.1606
X3.2169Y-4.3232
X3.2179Y-4.5071
X3.219Y-5.098
X3.222Y-4.2575
X3.2236Y-4.2031
X3.2254Y-4.5752
X3.2271Y-4.8065
X3.2283Y-4.7402
X3.2335Y-4.1933
X3.2348Y-4.5464
X3.235Y-4.2449
X3.2379Y-4.6101
X3.238Y-5.427
X3.2406Y-4.7764
X3.2417Y-4.0764
X3.2417Y-4.0902
X3.2417Y-4.7075
X3.2421Y-4.1041
X3.2421Y-4.1201
X3.2421Y-4.1361
X3.2421Y-4.1511
X3.2421Y-4.1671
X3.2421Y-4.1831
X3.2425Y-4.3758
X3.2425Y-4.4598
X3.2433Y-4.0472
X3.2433Y-4.0618
X3.2441Y-4.8425
X3.2469Y-4.2331
X3.2496Y-4.0319
X3.2579Y-4.2209
X3.2591Y-4.511
X3.2602Y-4.0209
X3.2616Y-5.3798
X3.2646Y-4.3291
X3.2677Y-4.6024
X3.2693Y-3.6669
X3.2693Y-3.715
X3.2705Y-4.2094
X3.2709Y-3.6791
X3.2709Y-4.0098
X3.2756Y-3.6319
X3.2788Y-4.5669
X3.2815Y-4.189
X3.2819Y-3.9984
X3.2823Y-3.6669
X3.283Y-4.249
X3.283Y-4.404
X3.2834Y-4.0846
X3.2834Y-4.0996
X3.2834Y-4.1156
X3.2843Y-3.7154
X3.2847Y-4.4942
X3.2852Y-5.427
X3.2854Y-3.6791
X3.2874Y-4.8622
X3.2902Y-3.6323
X3.2929Y-3.9874
X3.2969Y-3.6673
X3.298Y-4.285
X3.2992Y-3.6791
X3.2992Y-3.7157
X3.3035Y-3.9772
X3.3039Y-3.6323
X3.3049Y-4.5394
X3.3055Y-4.2213
X3.3071Y-4.9016
X3.3094Y-4.0996
X3.311Y-3.6673
X3.313Y-4.285
X3.3134Y-3.6795
X3.3134Y-3.7173
X3.3134Y-3.9665
X3.3139Y-4.6339
X3.3139Y-5.3798
X3.3173Y-3.6323
X3.3177Y-4.0161
X3.3228Y-3.7268
X3.3244Y-3.9563
X3.3252Y-3.6681
X3.3276Y-3.6811
X3.329Y-4.249
X3.3291Y-4.0035
X3.3311Y-3.6323
X3.3312Y-4.2885
X3.3323Y-4.3654
X3.3327Y-3.7358
X3.3335Y-4.0693
X3.3339Y-4.022
X3.3339Y-4.0378
X3.3343Y-4.0535
X3.335Y-3.9457
X3.3374Y-3.6906
X3.3375Y-5.427
X3.3378Y-3.674
X3.3402Y-3.9933
X3.3422Y-4.2985
X3.3425Y-4.5315
X3.3465Y-3.935
X3.3465Y-4.8819
X3.3467Y-4.6102
X3.3469Y-3.7004
X3.3476Y-3.6835
X3.3484Y-3.6335
X3.351Y-4.167
X3.3512Y-3.9823
X3.3516Y-4.2248
X3.352Y-2.8106
X3.352Y-4.287
X3.3522Y-4.3085
X3.3539Y-3.7583
X3.354Y-4.449
X3.3551Y-3.7866
X3.3551Y-3.8965
X3.3555Y-3.815
X3.3555Y-3.8413
X3.3555Y-3.8681
X3.3555Y-3.8823
X3.3559Y-3.7728
X3.3559Y-3.8004
X3.3559Y-3.8283
X3.3559Y-3.8543
X3.3559Y-3.9106
X3.3559Y-3.924
X3.3575Y-3.6929
X3.3575Y-3.7106
X3.361Y-3.9717
X3.3611Y-5.3798
X3.3614Y-3.6445
X3.3622Y-4.3185
X3.3669Y-3.7024
X3.3673Y-4.3343
X3.3673Y-4.3646
X3.3677Y-3.7205
X3.3697Y-4.0382
X3.3705Y-4.0673
X3.3709Y-3.9622
X3.372Y-3.6551
X3.374Y-4.5748
X3.3743Y-4.0253
X3.3768Y-3.7126
X3.378Y-4.25
X3.3783Y-3.7315
X3.3815Y-3.9508
X3.3823Y-4.0134
X3.3831Y-3.6665
X3.3848Y-5.427
X3.3874Y-3.7228
X3.3898Y-3.7433
X3.3906Y-3.9378
X3.3917Y-3.7717
X3.3917Y-3.8276
X3.3917Y-3.8402
X3.3921Y-3.7854
X3.3921Y-3.7996
X3.3921Y-3.8138
X3.3921Y-3.8669
X3.3921Y-3.8957
X3.3921Y-3.9094
X3.3921Y-3.9232
X3.3925Y-3.7571
X3.3925Y-3.8539
X3.3925Y-3.8819
X3.3937Y-4.5372
X3.3937Y-4.6299
X3.3945Y-3.6776
X3.3961Y-3.5075
X3.3969Y-3.7331
X3.3971Y-3.6005
X3.399Y-4.214
X3.399Y-4.287
X3.399Y-3.6375
X3.3992Y-2.8106
X3.4063Y-3.7429
X3.4067Y-3.6902
X3.407Y-4.399
X3.4078Y-5.338
X3.4084Y-5.3798
X3.4088Y-3.5513
X3.4098Y-3.8579
X3.4098Y-3.8941
X3.411Y-3.7807
X3.411Y-3.8169
X3.4126Y-3.9287
X3.4157Y-4.5672
X3.4157Y-3.7531
X3.4181Y-3.7016
X3.421Y-4.1
X3.421Y-4.25
X3.4213Y-3.6636
X3.4248Y-3.9173
X3.4252Y-4.3067
X3.4256Y-3.7622
X3.4287Y-4.1953
X3.4299Y-3.7138
X3.4299Y-3.8331
X3.4299Y-3.8898
X3.4303Y-3.8476
X3.4307Y-3.8035
X3.4307Y-3.8193
X3.4307Y-3.8614
X3.4307Y-3.8752
X3.4307Y-4.5035
X3.4311Y-3.5775
X3.4311Y-3.7748
X3.4311Y-3.789
X3.4311Y-3.9043
X3.4315Y-3.9791
X3.4319Y-3.9941
X3.432Y-5.427
X3.4321Y-3.4855
X3.4321Y-3.5285
X3.4327Y-3.9642
X3.4341Y-3.6235
X3.437Y-4.6142
X3.4402Y-3.7244
X3.4449Y-4.6457
X3.4449Y-4.8819
X3.4465Y-2.8106
X3.4496Y-4.5398
X3.452Y-3.7346
X3.455Y-5.338
X3.4556Y-5.3798
X3.4571Y-4.4823
X3.4583Y-3.6866
X3.4618Y-3.5075
X3.463Y-5.0264
X3.4638Y-4.8441
X3.4646Y-3.7469
X3.4647Y-3.5574
X3.4657Y-4.289
X3.4665Y-3.6488
X3.4665Y-4.3736
X3.4665Y-4.4472
X3.4673Y-3.8665
X3.4673Y-3.883
X3.4673Y-4.1685
X3.4677Y-3.7638
X3.4677Y-3.7822
X3.4677Y-3.7992
X3.4677Y-3.8152
X3.4677Y-3.8326
X3.4677Y-3.8495
X3.4677Y-3.9003
X3.4677Y-3.9173
X3.4677Y-3.9333
X3.4677Y-3.9493
X3.4677Y-3.9643
X3.4677Y-3.9803
X3.4677Y-3.9963
X3.4681Y-3.6005
X3.4685Y-4.2134
X3.4744Y-3.3224
X3.4748Y-3.2717
X3.4748Y-3.3756
X3.4752Y-3.1913
X3.4752Y-3.2256
X3.4756Y-2.9878
X3.4756Y-3.0339
X3.4756Y-3.0846
X3.4756Y-3.4291
X3.476Y-3.1378
T3
X2.8Y-4.05
X2.8Y-4.15
X2.8Y-4.35
X2.8Y-4.45
X2.85Y-4.1
X2.85Y-4.4
X2.9Y-4.05
X2.9Y-4.15
X2.9Y-4.35
X2.9Y-4.45
X3.3Y-4.05
X3.3Y-4.15
X3.3Y-4.35
X3.3Y-4.45
X3.35Y-4.1
X3.35Y-4.4
X3.4Y-4.05
X3.4Y-4.15
X3.4Y-4.35
X3.4Y-4.45
T4
X2.8244Y-2.8941
X2.8244Y-4.9472
X3.4012Y-2.8941
X3.4012Y-4.9472
T5
X2.8638Y-4.7543
X3.3612Y-4.7559
M30
