M48
; DRILL file {KiCad 8.0.3} date 2024-07-19T06:24:07-0700
; FORMAT={-:-/ absolute / inch / decimal}
; #@! TF.CreationDate,2024-07-19T06:24:07-07:00
; #@! TF.GenerationSoftware,Kicad,Pcbnew,8.0.3
; #@! TF.FileFunction,Plated,1,3,Blind
FMAT,2
INCH
; #@! TA.AperFunction,Plated,Buried,ViaDrill
T1C0.0078
%
G90
G05
T1
X2.8692Y-3.753
X2.8692Y-3.783
X2.8692Y-3.8158
X2.8693Y-3.8522
X2.8693Y-3.885
X2.8696Y-3.9213
X3.03Y-5.194
X3.066Y-5.334
X3.0697Y-5.194
X3.094Y-5.334
X3.1054Y-5.1949
X3.126Y-5.3339
X3.146Y-5.194
X3.28Y-5.222
X3.3364Y-3.7834
X3.3364Y-3.8154
X3.3364Y-3.9212
X3.3366Y-3.7524
X3.3373Y-3.8494
X3.3373Y-3.8853
X3.458Y-5.166
X3.458Y-5.186
X3.472Y-5.262
X3.472Y-5.292
M30
