%TF.GenerationSoftware,KiCad,Pcbnew,8.0.3*%
%TF.CreationDate,2024-07-17T15:11:27-07:00*%
%TF.ProjectId,wide_v1_4_layer,77696465-5f76-4315-9f34-5f6c61796572,V1*%
%TF.SameCoordinates,Original*%
%TF.FileFunction,Paste,Top*%
%TF.FilePolarity,Positive*%
%FSLAX46Y46*%
G04 Gerber Fmt 4.6, Leading zero omitted, Abs format (unit mm)*
G04 Created by KiCad (PCBNEW 8.0.3) date 2024-07-17 15:11:27*
%MOMM*%
%LPD*%
G01*
G04 APERTURE LIST*
%ADD10C,0.010000*%
%ADD11R,0.300000X0.670000*%
%ADD12R,0.300000X0.500000*%
%ADD13R,0.350000X1.000000*%
G04 APERTURE END LIST*
%TO.C,R6*%
D10*
X69605000Y-101835000D02*
X70155000Y-101835000D01*
X70155000Y-102385000D01*
X69605000Y-102385000D01*
X69605000Y-101835000D01*
G36*
X69605000Y-101835000D02*
G01*
X70155000Y-101835000D01*
X70155000Y-102385000D01*
X69605000Y-102385000D01*
X69605000Y-101835000D01*
G37*
X69605000Y-102785000D02*
X70155000Y-102785000D01*
X70155000Y-103335000D01*
X69605000Y-103335000D01*
X69605000Y-102785000D01*
G36*
X69605000Y-102785000D02*
G01*
X70155000Y-102785000D01*
X70155000Y-103335000D01*
X69605000Y-103335000D01*
X69605000Y-102785000D01*
G37*
%TO.C,*%
X81476902Y-112370433D02*
X80926903Y-112370433D01*
X80926903Y-111820433D01*
X81476904Y-111820433D01*
X81476902Y-112370433D01*
G36*
X81476902Y-112370433D02*
G01*
X80926903Y-112370433D01*
X80926903Y-111820433D01*
X81476904Y-111820433D01*
X81476902Y-112370433D01*
G37*
X81476903Y-111420433D02*
X80926903Y-111420433D01*
X80926904Y-110870433D01*
X81476903Y-110870433D01*
X81476903Y-111420433D01*
G36*
X81476903Y-111420433D02*
G01*
X80926903Y-111420433D01*
X80926904Y-110870433D01*
X81476903Y-110870433D01*
X81476903Y-111420433D01*
G37*
X86277159Y-101241754D02*
X85888250Y-101630662D01*
X85499341Y-101241755D01*
X85888250Y-100852845D01*
X86277159Y-101241754D01*
G36*
X86277159Y-101241754D02*
G01*
X85888250Y-101630662D01*
X85499341Y-101241755D01*
X85888250Y-100852845D01*
X86277159Y-101241754D01*
G37*
X86948910Y-100570001D02*
X86560001Y-100958911D01*
X86171091Y-100570002D01*
X86560001Y-100181093D01*
X86948910Y-100570001D01*
G36*
X86948910Y-100570001D02*
G01*
X86560001Y-100958911D01*
X86171091Y-100570002D01*
X86560001Y-100181093D01*
X86948910Y-100570001D01*
G37*
X87874998Y-103305000D02*
X87324999Y-103305000D01*
X87324999Y-102755000D01*
X87875000Y-102755000D01*
X87874998Y-103305000D01*
G36*
X87874998Y-103305000D02*
G01*
X87324999Y-103305000D01*
X87324999Y-102755000D01*
X87875000Y-102755000D01*
X87874998Y-103305000D01*
G37*
X87874999Y-102355000D02*
X87324999Y-102355000D01*
X87325000Y-101805000D01*
X87874999Y-101805000D01*
X87874999Y-102355000D01*
G36*
X87874999Y-102355000D02*
G01*
X87324999Y-102355000D01*
X87325000Y-101805000D01*
X87874999Y-101805000D01*
X87874999Y-102355000D01*
G37*
X76756902Y-112370433D02*
X76206903Y-112370433D01*
X76206903Y-111820433D01*
X76756904Y-111820433D01*
X76756902Y-112370433D01*
G36*
X76756902Y-112370433D02*
G01*
X76206903Y-112370433D01*
X76206903Y-111820433D01*
X76756904Y-111820433D01*
X76756902Y-112370433D01*
G37*
X76756903Y-111420433D02*
X76206903Y-111420433D01*
X76206904Y-110870433D01*
X76756903Y-110870433D01*
X76756903Y-111420433D01*
G36*
X76756903Y-111420433D02*
G01*
X76206903Y-111420433D01*
X76206904Y-110870433D01*
X76756903Y-110870433D01*
X76756903Y-111420433D01*
G37*
X74890433Y-109583097D02*
X74340433Y-109583096D01*
X74340433Y-109033097D01*
X74890433Y-109033097D01*
X74890433Y-109583097D01*
G36*
X74890433Y-109583097D02*
G01*
X74340433Y-109583096D01*
X74340433Y-109033097D01*
X74890433Y-109033097D01*
X74890433Y-109583097D01*
G37*
X75840433Y-109033098D02*
X75840433Y-109583097D01*
X75290433Y-109583097D01*
X75290433Y-109033096D01*
X75840433Y-109033098D01*
G36*
X75840433Y-109033098D02*
G01*
X75840433Y-109583097D01*
X75290433Y-109583097D01*
X75290433Y-109033096D01*
X75840433Y-109033098D01*
G37*
X82530433Y-109583097D02*
X81980433Y-109583096D01*
X81980433Y-109033097D01*
X82530433Y-109033097D01*
X82530433Y-109583097D01*
G36*
X82530433Y-109583097D02*
G01*
X81980433Y-109583096D01*
X81980433Y-109033097D01*
X82530433Y-109033097D01*
X82530433Y-109583097D01*
G37*
X83480433Y-109033098D02*
X83480433Y-109583097D01*
X82930433Y-109583097D01*
X82930433Y-109033096D01*
X83480433Y-109033098D01*
G36*
X83480433Y-109033098D02*
G01*
X83480433Y-109583097D01*
X82930433Y-109583097D01*
X82930433Y-109033096D01*
X83480433Y-109033098D01*
G37*
X71617157Y-100998249D02*
X71228248Y-101387158D01*
X70839341Y-100998248D01*
X71228248Y-100609339D01*
X71617157Y-100998249D01*
G36*
X71617157Y-100998249D02*
G01*
X71228248Y-101387158D01*
X70839341Y-100998248D01*
X71228248Y-100609339D01*
X71617157Y-100998249D01*
G37*
X72288908Y-101670001D02*
X71900000Y-102058909D01*
X71511091Y-101670000D01*
X71900000Y-101281092D01*
X72288908Y-101670001D01*
G36*
X72288908Y-101670001D02*
G01*
X71900000Y-102058909D01*
X71511091Y-101670000D01*
X71900000Y-101281092D01*
X72288908Y-101670001D01*
G37*
%TD*%
D11*
%TO.C,ZIF1*%
X71291600Y-133451600D03*
D12*
X71591600Y-130386600D03*
D11*
X71891600Y-133451600D03*
D12*
X72191600Y-130386600D03*
D11*
X72491600Y-133451600D03*
D12*
X72791600Y-130386600D03*
D11*
X73091600Y-133451600D03*
D12*
X73391600Y-130386600D03*
D11*
X73691600Y-133451600D03*
D12*
X73991600Y-130386600D03*
D11*
X74291600Y-133451600D03*
D12*
X74591600Y-130386600D03*
D11*
X74891600Y-133451600D03*
D12*
X75191600Y-130386600D03*
D11*
X75491600Y-133451600D03*
D12*
X75791600Y-130386600D03*
D11*
X76091600Y-133451600D03*
D12*
X76391600Y-130386600D03*
D11*
X76691600Y-133451600D03*
D12*
X76991600Y-130386600D03*
D11*
X77291600Y-133451600D03*
D12*
X77591600Y-130386600D03*
D11*
X77891600Y-133451600D03*
D12*
X78191600Y-130386600D03*
D11*
X78491600Y-133451600D03*
D12*
X78791600Y-130386600D03*
D11*
X79091600Y-133451600D03*
D12*
X79391600Y-130386600D03*
D11*
X79691600Y-133451600D03*
D12*
X79991600Y-130386600D03*
D11*
X80291600Y-133451600D03*
D12*
X80591600Y-130386600D03*
D11*
X80891600Y-133451600D03*
D12*
X81191600Y-130386600D03*
D11*
X81491600Y-133451600D03*
D12*
X81791600Y-130386600D03*
D11*
X82091600Y-133451600D03*
D12*
X82391600Y-130386600D03*
D11*
X82691600Y-133451600D03*
D12*
X82991600Y-130386600D03*
D11*
X83291600Y-133451600D03*
D12*
X83591600Y-130386600D03*
D11*
X83891600Y-133451600D03*
D12*
X84191600Y-130386600D03*
D11*
X84491600Y-133451600D03*
D12*
X84791600Y-130386600D03*
D11*
X85091600Y-133451600D03*
D12*
X85391600Y-130386600D03*
D11*
X85691600Y-133451600D03*
D12*
X85991600Y-130386600D03*
D11*
X86291600Y-133451600D03*
D13*
X70316600Y-133186600D03*
X87266600Y-133186600D03*
%TD*%
M02*
