%TF.GenerationSoftware,KiCad,Pcbnew,8.0.3*%
%TF.CreationDate,2024-07-18T21:09:06-07:00*%
%TF.ProjectId,wide_v1_4_layer,77696465-5f76-4315-9f34-5f6c61796572,V1*%
%TF.SameCoordinates,Original*%
%TF.FileFunction,Legend,Top*%
%TF.FilePolarity,Positive*%
%FSLAX46Y46*%
G04 Gerber Fmt 4.6, Leading zero omitted, Abs format (unit mm)*
G04 Created by KiCad (PCBNEW 8.0.3) date 2024-07-18 21:09:06*
%MOMM*%
%LPD*%
G01*
G04 APERTURE LIST*
%ADD10C,0.125000*%
%ADD11C,0.127000*%
%ADD12C,0.100000*%
G04 APERTURE END LIST*
D10*
X87626997Y-105432309D02*
X87460331Y-105194214D01*
X87341283Y-105432309D02*
X87341283Y-104932309D01*
X87341283Y-104932309D02*
X87531759Y-104932309D01*
X87531759Y-104932309D02*
X87579378Y-104956119D01*
X87579378Y-104956119D02*
X87603188Y-104979928D01*
X87603188Y-104979928D02*
X87626997Y-105027547D01*
X87626997Y-105027547D02*
X87626997Y-105098976D01*
X87626997Y-105098976D02*
X87603188Y-105146595D01*
X87603188Y-105146595D02*
X87579378Y-105170404D01*
X87579378Y-105170404D02*
X87531759Y-105194214D01*
X87531759Y-105194214D02*
X87341283Y-105194214D01*
X87793664Y-104932309D02*
X88103188Y-104932309D01*
X88103188Y-104932309D02*
X87936521Y-105122785D01*
X87936521Y-105122785D02*
X88007950Y-105122785D01*
X88007950Y-105122785D02*
X88055569Y-105146595D01*
X88055569Y-105146595D02*
X88079378Y-105170404D01*
X88079378Y-105170404D02*
X88103188Y-105218023D01*
X88103188Y-105218023D02*
X88103188Y-105337071D01*
X88103188Y-105337071D02*
X88079378Y-105384690D01*
X88079378Y-105384690D02*
X88055569Y-105408500D01*
X88055569Y-105408500D02*
X88007950Y-105432309D01*
X88007950Y-105432309D02*
X87865093Y-105432309D01*
X87865093Y-105432309D02*
X87817474Y-105408500D01*
X87817474Y-105408500D02*
X87793664Y-105384690D01*
X75556997Y-112242309D02*
X75390331Y-112004214D01*
X75271283Y-112242309D02*
X75271283Y-111742309D01*
X75271283Y-111742309D02*
X75461759Y-111742309D01*
X75461759Y-111742309D02*
X75509378Y-111766119D01*
X75509378Y-111766119D02*
X75533188Y-111789928D01*
X75533188Y-111789928D02*
X75556997Y-111837547D01*
X75556997Y-111837547D02*
X75556997Y-111908976D01*
X75556997Y-111908976D02*
X75533188Y-111956595D01*
X75533188Y-111956595D02*
X75509378Y-111980404D01*
X75509378Y-111980404D02*
X75461759Y-112004214D01*
X75461759Y-112004214D02*
X75271283Y-112004214D01*
X76033188Y-112242309D02*
X75747474Y-112242309D01*
X75890331Y-112242309D02*
X75890331Y-111742309D01*
X75890331Y-111742309D02*
X75842712Y-111813738D01*
X75842712Y-111813738D02*
X75795093Y-111861357D01*
X75795093Y-111861357D02*
X75747474Y-111885166D01*
X82486997Y-110384690D02*
X82463188Y-110408500D01*
X82463188Y-110408500D02*
X82391759Y-110432309D01*
X82391759Y-110432309D02*
X82344140Y-110432309D01*
X82344140Y-110432309D02*
X82272712Y-110408500D01*
X82272712Y-110408500D02*
X82225093Y-110360880D01*
X82225093Y-110360880D02*
X82201283Y-110313261D01*
X82201283Y-110313261D02*
X82177474Y-110218023D01*
X82177474Y-110218023D02*
X82177474Y-110146595D01*
X82177474Y-110146595D02*
X82201283Y-110051357D01*
X82201283Y-110051357D02*
X82225093Y-110003738D01*
X82225093Y-110003738D02*
X82272712Y-109956119D01*
X82272712Y-109956119D02*
X82344140Y-109932309D01*
X82344140Y-109932309D02*
X82391759Y-109932309D01*
X82391759Y-109932309D02*
X82463188Y-109956119D01*
X82463188Y-109956119D02*
X82486997Y-109979928D01*
X82915569Y-110098976D02*
X82915569Y-110432309D01*
X82796521Y-109908500D02*
X82677474Y-110265642D01*
X82677474Y-110265642D02*
X82986997Y-110265642D01*
X69936997Y-105322309D02*
X69770331Y-105084214D01*
X69651283Y-105322309D02*
X69651283Y-104822309D01*
X69651283Y-104822309D02*
X69841759Y-104822309D01*
X69841759Y-104822309D02*
X69889378Y-104846119D01*
X69889378Y-104846119D02*
X69913188Y-104869928D01*
X69913188Y-104869928D02*
X69936997Y-104917547D01*
X69936997Y-104917547D02*
X69936997Y-104988976D01*
X69936997Y-104988976D02*
X69913188Y-105036595D01*
X69913188Y-105036595D02*
X69889378Y-105060404D01*
X69889378Y-105060404D02*
X69841759Y-105084214D01*
X69841759Y-105084214D02*
X69651283Y-105084214D01*
X70127474Y-104869928D02*
X70151283Y-104846119D01*
X70151283Y-104846119D02*
X70198902Y-104822309D01*
X70198902Y-104822309D02*
X70317950Y-104822309D01*
X70317950Y-104822309D02*
X70365569Y-104846119D01*
X70365569Y-104846119D02*
X70389378Y-104869928D01*
X70389378Y-104869928D02*
X70413188Y-104917547D01*
X70413188Y-104917547D02*
X70413188Y-104965166D01*
X70413188Y-104965166D02*
X70389378Y-105036595D01*
X70389378Y-105036595D02*
X70103664Y-105322309D01*
X70103664Y-105322309D02*
X70413188Y-105322309D01*
X70836997Y-102064690D02*
X70813188Y-102088500D01*
X70813188Y-102088500D02*
X70741759Y-102112309D01*
X70741759Y-102112309D02*
X70694140Y-102112309D01*
X70694140Y-102112309D02*
X70622712Y-102088500D01*
X70622712Y-102088500D02*
X70575093Y-102040880D01*
X70575093Y-102040880D02*
X70551283Y-101993261D01*
X70551283Y-101993261D02*
X70527474Y-101898023D01*
X70527474Y-101898023D02*
X70527474Y-101826595D01*
X70527474Y-101826595D02*
X70551283Y-101731357D01*
X70551283Y-101731357D02*
X70575093Y-101683738D01*
X70575093Y-101683738D02*
X70622712Y-101636119D01*
X70622712Y-101636119D02*
X70694140Y-101612309D01*
X70694140Y-101612309D02*
X70741759Y-101612309D01*
X70741759Y-101612309D02*
X70813188Y-101636119D01*
X70813188Y-101636119D02*
X70836997Y-101659928D01*
X71027474Y-101659928D02*
X71051283Y-101636119D01*
X71051283Y-101636119D02*
X71098902Y-101612309D01*
X71098902Y-101612309D02*
X71217950Y-101612309D01*
X71217950Y-101612309D02*
X71265569Y-101636119D01*
X71265569Y-101636119D02*
X71289378Y-101659928D01*
X71289378Y-101659928D02*
X71313188Y-101707547D01*
X71313188Y-101707547D02*
X71313188Y-101755166D01*
X71313188Y-101755166D02*
X71289378Y-101826595D01*
X71289378Y-101826595D02*
X71003664Y-102112309D01*
X71003664Y-102112309D02*
X71313188Y-102112309D01*
X82106997Y-112152309D02*
X81940331Y-111914214D01*
X81821283Y-112152309D02*
X81821283Y-111652309D01*
X81821283Y-111652309D02*
X82011759Y-111652309D01*
X82011759Y-111652309D02*
X82059378Y-111676119D01*
X82059378Y-111676119D02*
X82083188Y-111699928D01*
X82083188Y-111699928D02*
X82106997Y-111747547D01*
X82106997Y-111747547D02*
X82106997Y-111818976D01*
X82106997Y-111818976D02*
X82083188Y-111866595D01*
X82083188Y-111866595D02*
X82059378Y-111890404D01*
X82059378Y-111890404D02*
X82011759Y-111914214D01*
X82011759Y-111914214D02*
X81821283Y-111914214D01*
X82535569Y-111818976D02*
X82535569Y-112152309D01*
X82416521Y-111628500D02*
X82297474Y-111985642D01*
X82297474Y-111985642D02*
X82606997Y-111985642D01*
X75046997Y-108764690D02*
X75023188Y-108788500D01*
X75023188Y-108788500D02*
X74951759Y-108812309D01*
X74951759Y-108812309D02*
X74904140Y-108812309D01*
X74904140Y-108812309D02*
X74832712Y-108788500D01*
X74832712Y-108788500D02*
X74785093Y-108740880D01*
X74785093Y-108740880D02*
X74761283Y-108693261D01*
X74761283Y-108693261D02*
X74737474Y-108598023D01*
X74737474Y-108598023D02*
X74737474Y-108526595D01*
X74737474Y-108526595D02*
X74761283Y-108431357D01*
X74761283Y-108431357D02*
X74785093Y-108383738D01*
X74785093Y-108383738D02*
X74832712Y-108336119D01*
X74832712Y-108336119D02*
X74904140Y-108312309D01*
X74904140Y-108312309D02*
X74951759Y-108312309D01*
X74951759Y-108312309D02*
X75023188Y-108336119D01*
X75023188Y-108336119D02*
X75046997Y-108359928D01*
X75523188Y-108812309D02*
X75237474Y-108812309D01*
X75380331Y-108812309D02*
X75380331Y-108312309D01*
X75380331Y-108312309D02*
X75332712Y-108383738D01*
X75332712Y-108383738D02*
X75285093Y-108431357D01*
X75285093Y-108431357D02*
X75237474Y-108455166D01*
X86566997Y-101964690D02*
X86543188Y-101988500D01*
X86543188Y-101988500D02*
X86471759Y-102012309D01*
X86471759Y-102012309D02*
X86424140Y-102012309D01*
X86424140Y-102012309D02*
X86352712Y-101988500D01*
X86352712Y-101988500D02*
X86305093Y-101940880D01*
X86305093Y-101940880D02*
X86281283Y-101893261D01*
X86281283Y-101893261D02*
X86257474Y-101798023D01*
X86257474Y-101798023D02*
X86257474Y-101726595D01*
X86257474Y-101726595D02*
X86281283Y-101631357D01*
X86281283Y-101631357D02*
X86305093Y-101583738D01*
X86305093Y-101583738D02*
X86352712Y-101536119D01*
X86352712Y-101536119D02*
X86424140Y-101512309D01*
X86424140Y-101512309D02*
X86471759Y-101512309D01*
X86471759Y-101512309D02*
X86543188Y-101536119D01*
X86543188Y-101536119D02*
X86566997Y-101559928D01*
X86733664Y-101512309D02*
X87043188Y-101512309D01*
X87043188Y-101512309D02*
X86876521Y-101702785D01*
X86876521Y-101702785D02*
X86947950Y-101702785D01*
X86947950Y-101702785D02*
X86995569Y-101726595D01*
X86995569Y-101726595D02*
X87019378Y-101750404D01*
X87019378Y-101750404D02*
X87043188Y-101798023D01*
X87043188Y-101798023D02*
X87043188Y-101917071D01*
X87043188Y-101917071D02*
X87019378Y-101964690D01*
X87019378Y-101964690D02*
X86995569Y-101988500D01*
X86995569Y-101988500D02*
X86947950Y-102012309D01*
X86947950Y-102012309D02*
X86805093Y-102012309D01*
X86805093Y-102012309D02*
X86757474Y-101988500D01*
X86757474Y-101988500D02*
X86733664Y-101964690D01*
D11*
X71448666Y-106834216D02*
X71521238Y-106858406D01*
X71521238Y-106858406D02*
X71642190Y-106858406D01*
X71642190Y-106858406D02*
X71690571Y-106834216D01*
X71690571Y-106834216D02*
X71714762Y-106810025D01*
X71714762Y-106810025D02*
X71738952Y-106761644D01*
X71738952Y-106761644D02*
X71738952Y-106713263D01*
X71738952Y-106713263D02*
X71714762Y-106664882D01*
X71714762Y-106664882D02*
X71690571Y-106640692D01*
X71690571Y-106640692D02*
X71642190Y-106616501D01*
X71642190Y-106616501D02*
X71545428Y-106592311D01*
X71545428Y-106592311D02*
X71497047Y-106568120D01*
X71497047Y-106568120D02*
X71472857Y-106543930D01*
X71472857Y-106543930D02*
X71448666Y-106495549D01*
X71448666Y-106495549D02*
X71448666Y-106447168D01*
X71448666Y-106447168D02*
X71472857Y-106398787D01*
X71472857Y-106398787D02*
X71497047Y-106374596D01*
X71497047Y-106374596D02*
X71545428Y-106350406D01*
X71545428Y-106350406D02*
X71666381Y-106350406D01*
X71666381Y-106350406D02*
X71738952Y-106374596D01*
X71956667Y-106858406D02*
X71956667Y-106350406D01*
X71956667Y-106350406D02*
X72126000Y-106713263D01*
X72126000Y-106713263D02*
X72295334Y-106350406D01*
X72295334Y-106350406D02*
X72295334Y-106858406D01*
X72537238Y-106858406D02*
X72537238Y-106350406D01*
X72537238Y-106350406D02*
X72730762Y-106350406D01*
X72730762Y-106350406D02*
X72779143Y-106374596D01*
X72779143Y-106374596D02*
X72803333Y-106398787D01*
X72803333Y-106398787D02*
X72827524Y-106447168D01*
X72827524Y-106447168D02*
X72827524Y-106519739D01*
X72827524Y-106519739D02*
X72803333Y-106568120D01*
X72803333Y-106568120D02*
X72779143Y-106592311D01*
X72779143Y-106592311D02*
X72730762Y-106616501D01*
X72730762Y-106616501D02*
X72537238Y-106616501D01*
X73021047Y-106398787D02*
X73045238Y-106374596D01*
X73045238Y-106374596D02*
X73093619Y-106350406D01*
X73093619Y-106350406D02*
X73214571Y-106350406D01*
X73214571Y-106350406D02*
X73262952Y-106374596D01*
X73262952Y-106374596D02*
X73287143Y-106398787D01*
X73287143Y-106398787D02*
X73311333Y-106447168D01*
X73311333Y-106447168D02*
X73311333Y-106495549D01*
X73311333Y-106495549D02*
X73287143Y-106568120D01*
X73287143Y-106568120D02*
X72996857Y-106858406D01*
X72996857Y-106858406D02*
X73311333Y-106858406D01*
X84158666Y-106804216D02*
X84231238Y-106828406D01*
X84231238Y-106828406D02*
X84352190Y-106828406D01*
X84352190Y-106828406D02*
X84400571Y-106804216D01*
X84400571Y-106804216D02*
X84424762Y-106780025D01*
X84424762Y-106780025D02*
X84448952Y-106731644D01*
X84448952Y-106731644D02*
X84448952Y-106683263D01*
X84448952Y-106683263D02*
X84424762Y-106634882D01*
X84424762Y-106634882D02*
X84400571Y-106610692D01*
X84400571Y-106610692D02*
X84352190Y-106586501D01*
X84352190Y-106586501D02*
X84255428Y-106562311D01*
X84255428Y-106562311D02*
X84207047Y-106538120D01*
X84207047Y-106538120D02*
X84182857Y-106513930D01*
X84182857Y-106513930D02*
X84158666Y-106465549D01*
X84158666Y-106465549D02*
X84158666Y-106417168D01*
X84158666Y-106417168D02*
X84182857Y-106368787D01*
X84182857Y-106368787D02*
X84207047Y-106344596D01*
X84207047Y-106344596D02*
X84255428Y-106320406D01*
X84255428Y-106320406D02*
X84376381Y-106320406D01*
X84376381Y-106320406D02*
X84448952Y-106344596D01*
X84666667Y-106828406D02*
X84666667Y-106320406D01*
X84666667Y-106320406D02*
X84836000Y-106683263D01*
X84836000Y-106683263D02*
X85005334Y-106320406D01*
X85005334Y-106320406D02*
X85005334Y-106828406D01*
X85247238Y-106828406D02*
X85247238Y-106320406D01*
X85247238Y-106320406D02*
X85440762Y-106320406D01*
X85440762Y-106320406D02*
X85489143Y-106344596D01*
X85489143Y-106344596D02*
X85513333Y-106368787D01*
X85513333Y-106368787D02*
X85537524Y-106417168D01*
X85537524Y-106417168D02*
X85537524Y-106489739D01*
X85537524Y-106489739D02*
X85513333Y-106538120D01*
X85513333Y-106538120D02*
X85489143Y-106562311D01*
X85489143Y-106562311D02*
X85440762Y-106586501D01*
X85440762Y-106586501D02*
X85247238Y-106586501D01*
X85706857Y-106320406D02*
X86021333Y-106320406D01*
X86021333Y-106320406D02*
X85852000Y-106513930D01*
X85852000Y-106513930D02*
X85924571Y-106513930D01*
X85924571Y-106513930D02*
X85972952Y-106538120D01*
X85972952Y-106538120D02*
X85997143Y-106562311D01*
X85997143Y-106562311D02*
X86021333Y-106610692D01*
X86021333Y-106610692D02*
X86021333Y-106731644D01*
X86021333Y-106731644D02*
X85997143Y-106780025D01*
X85997143Y-106780025D02*
X85972952Y-106804216D01*
X85972952Y-106804216D02*
X85924571Y-106828406D01*
X85924571Y-106828406D02*
X85779428Y-106828406D01*
X85779428Y-106828406D02*
X85731047Y-106804216D01*
X85731047Y-106804216D02*
X85706857Y-106780025D01*
X71458666Y-114504216D02*
X71531238Y-114528406D01*
X71531238Y-114528406D02*
X71652190Y-114528406D01*
X71652190Y-114528406D02*
X71700571Y-114504216D01*
X71700571Y-114504216D02*
X71724762Y-114480025D01*
X71724762Y-114480025D02*
X71748952Y-114431644D01*
X71748952Y-114431644D02*
X71748952Y-114383263D01*
X71748952Y-114383263D02*
X71724762Y-114334882D01*
X71724762Y-114334882D02*
X71700571Y-114310692D01*
X71700571Y-114310692D02*
X71652190Y-114286501D01*
X71652190Y-114286501D02*
X71555428Y-114262311D01*
X71555428Y-114262311D02*
X71507047Y-114238120D01*
X71507047Y-114238120D02*
X71482857Y-114213930D01*
X71482857Y-114213930D02*
X71458666Y-114165549D01*
X71458666Y-114165549D02*
X71458666Y-114117168D01*
X71458666Y-114117168D02*
X71482857Y-114068787D01*
X71482857Y-114068787D02*
X71507047Y-114044596D01*
X71507047Y-114044596D02*
X71555428Y-114020406D01*
X71555428Y-114020406D02*
X71676381Y-114020406D01*
X71676381Y-114020406D02*
X71748952Y-114044596D01*
X71966667Y-114528406D02*
X71966667Y-114020406D01*
X71966667Y-114020406D02*
X72136000Y-114383263D01*
X72136000Y-114383263D02*
X72305334Y-114020406D01*
X72305334Y-114020406D02*
X72305334Y-114528406D01*
X72547238Y-114528406D02*
X72547238Y-114020406D01*
X72547238Y-114020406D02*
X72740762Y-114020406D01*
X72740762Y-114020406D02*
X72789143Y-114044596D01*
X72789143Y-114044596D02*
X72813333Y-114068787D01*
X72813333Y-114068787D02*
X72837524Y-114117168D01*
X72837524Y-114117168D02*
X72837524Y-114189739D01*
X72837524Y-114189739D02*
X72813333Y-114238120D01*
X72813333Y-114238120D02*
X72789143Y-114262311D01*
X72789143Y-114262311D02*
X72740762Y-114286501D01*
X72740762Y-114286501D02*
X72547238Y-114286501D01*
X73321333Y-114528406D02*
X73031047Y-114528406D01*
X73176190Y-114528406D02*
X73176190Y-114020406D01*
X73176190Y-114020406D02*
X73127809Y-114092977D01*
X73127809Y-114092977D02*
X73079428Y-114141358D01*
X73079428Y-114141358D02*
X73031047Y-114165549D01*
X84158666Y-114504216D02*
X84231238Y-114528406D01*
X84231238Y-114528406D02*
X84352190Y-114528406D01*
X84352190Y-114528406D02*
X84400571Y-114504216D01*
X84400571Y-114504216D02*
X84424762Y-114480025D01*
X84424762Y-114480025D02*
X84448952Y-114431644D01*
X84448952Y-114431644D02*
X84448952Y-114383263D01*
X84448952Y-114383263D02*
X84424762Y-114334882D01*
X84424762Y-114334882D02*
X84400571Y-114310692D01*
X84400571Y-114310692D02*
X84352190Y-114286501D01*
X84352190Y-114286501D02*
X84255428Y-114262311D01*
X84255428Y-114262311D02*
X84207047Y-114238120D01*
X84207047Y-114238120D02*
X84182857Y-114213930D01*
X84182857Y-114213930D02*
X84158666Y-114165549D01*
X84158666Y-114165549D02*
X84158666Y-114117168D01*
X84158666Y-114117168D02*
X84182857Y-114068787D01*
X84182857Y-114068787D02*
X84207047Y-114044596D01*
X84207047Y-114044596D02*
X84255428Y-114020406D01*
X84255428Y-114020406D02*
X84376381Y-114020406D01*
X84376381Y-114020406D02*
X84448952Y-114044596D01*
X84666667Y-114528406D02*
X84666667Y-114020406D01*
X84666667Y-114020406D02*
X84836000Y-114383263D01*
X84836000Y-114383263D02*
X85005334Y-114020406D01*
X85005334Y-114020406D02*
X85005334Y-114528406D01*
X85247238Y-114528406D02*
X85247238Y-114020406D01*
X85247238Y-114020406D02*
X85440762Y-114020406D01*
X85440762Y-114020406D02*
X85489143Y-114044596D01*
X85489143Y-114044596D02*
X85513333Y-114068787D01*
X85513333Y-114068787D02*
X85537524Y-114117168D01*
X85537524Y-114117168D02*
X85537524Y-114189739D01*
X85537524Y-114189739D02*
X85513333Y-114238120D01*
X85513333Y-114238120D02*
X85489143Y-114262311D01*
X85489143Y-114262311D02*
X85440762Y-114286501D01*
X85440762Y-114286501D02*
X85247238Y-114286501D01*
X85972952Y-114189739D02*
X85972952Y-114528406D01*
X85852000Y-113996216D02*
X85731047Y-114359073D01*
X85731047Y-114359073D02*
X86045524Y-114359073D01*
D12*
%TO.C,ZIF1*%
X70091600Y-130136600D02*
X70091600Y-132361600D01*
X71291600Y-130136600D02*
X70091600Y-130136600D01*
X86291600Y-130136600D02*
X87491600Y-130136600D01*
X87491600Y-130136600D02*
X87491600Y-132361600D01*
%TD*%
M02*
