%TF.GenerationSoftware,KiCad,Pcbnew,8.0.3*%
%TF.CreationDate,2024-07-17T15:11:27-07:00*%
%TF.ProjectId,wide_v1_4_layer,77696465-5f76-4315-9f34-5f6c61796572,V1*%
%TF.SameCoordinates,Original*%
%TF.FileFunction,Copper,L4,Bot*%
%TF.FilePolarity,Positive*%
%FSLAX46Y46*%
G04 Gerber Fmt 4.6, Leading zero omitted, Abs format (unit mm)*
G04 Created by KiCad (PCBNEW 8.0.3) date 2024-07-17 15:11:27*
%MOMM*%
%LPD*%
G01*
G04 APERTURE LIST*
%TA.AperFunction,ComponentPad*%
%ADD10C,0.990600*%
%TD*%
%TA.AperFunction,ComponentPad*%
%ADD11C,3.000000*%
%TD*%
%TA.AperFunction,ComponentPad*%
%ADD12C,5.000000*%
%TD*%
%TA.AperFunction,ViaPad*%
%ADD13C,0.300000*%
%TD*%
%TA.AperFunction,ViaPad*%
%ADD14C,0.400000*%
%TD*%
%TA.AperFunction,Conductor*%
%ADD15C,0.099000*%
%TD*%
%TA.AperFunction,Conductor*%
%ADD16C,0.099060*%
%TD*%
G04 APERTURE END LIST*
D10*
%TO.P,SMP2,*%
%TO.N,Net-(C2-Pad1)*%
X72390000Y-104140000D03*
%TO.P,SMP2,2,2*%
%TO.N,GND*%
X71120000Y-105410000D03*
%TO.P,SMP2,3,3*%
X73660000Y-105410000D03*
%TO.P,SMP2,4,4*%
X73660000Y-102870000D03*
%TO.P,SMP2,5,5*%
X71120000Y-102870000D03*
%TD*%
%TO.P,SMP3,1,1*%
%TO.N,Net-(R3-Pad1)*%
X85090000Y-104140000D03*
%TO.P,SMP3,2,2*%
%TO.N,GND*%
X83820000Y-105410000D03*
%TO.P,SMP3,3,3*%
X86360000Y-105410000D03*
%TO.P,SMP3,4,4*%
X86360000Y-102870000D03*
%TO.P,SMP3,5,5*%
X83820000Y-102870000D03*
%TD*%
D11*
%TO.P,,*%
%TO.N,GND*%
X86390000Y-125660000D03*
%TD*%
D12*
%TO.P,,*%
%TO.N,GND*%
X85375000Y-120800000D03*
%TD*%
D11*
%TO.P,,*%
%TO.N,GND*%
X71740000Y-125660000D03*
%TD*%
D10*
%TO.P,SMP1,1,1*%
%TO.N,Net-(C1-Pad1)*%
X72390000Y-111760000D03*
%TO.P,SMP1,2,2*%
%TO.N,GND*%
X71120000Y-113030000D03*
%TO.P,SMP1,3,3*%
X73660000Y-113030000D03*
%TO.P,SMP1,4,4*%
X73660000Y-110490000D03*
%TO.P,SMP1,5,5*%
X71120000Y-110490000D03*
%TD*%
D11*
%TO.P,,*%
%TO.N,GND*%
X71740000Y-73510000D03*
%TD*%
D10*
%TO.P,SMP4,1,1*%
%TO.N,Net-(R4-Pad1)*%
X85090000Y-111760000D03*
%TO.P,SMP4,2,2*%
%TO.N,GND*%
X83820000Y-113030000D03*
%TO.P,SMP4,3,3*%
X86360000Y-113030000D03*
%TO.P,SMP4,4,4*%
X86360000Y-110490000D03*
%TO.P,SMP4,5,5*%
X83820000Y-110490000D03*
%TD*%
D11*
%TO.P,,*%
%TO.N,GND*%
X86390000Y-73510000D03*
%TD*%
D12*
%TO.P,,*%
%TO.N,GND*%
X72740000Y-120760000D03*
%TD*%
D13*
%TO.N,unconnected-(ZIF1-Pad13)*%
X73550000Y-135480000D03*
X74334900Y-98138210D03*
%TO.N,Net-(Sample1-Pad15)*%
X74334900Y-97325410D03*
X74625200Y-135483600D03*
%TO.N,Net-(Sample1-Pad16)*%
X75031600Y-131927600D03*
X74327100Y-99130000D03*
%TO.N,Net-(Sample1-Pad17)*%
X74328700Y-96512799D03*
X76200000Y-135483600D03*
%TO.N,unconnected-(ZIF1-Pad27)*%
X74328700Y-95700000D03*
X80118000Y-135483600D03*
%TO.N,31*%
X81788001Y-135483600D03*
X83265665Y-94899980D03*
%TO.N,32*%
X83265665Y-95749990D03*
X80619600Y-132588000D03*
%TO.N,33*%
X83260400Y-96499980D03*
X83515200Y-135483600D03*
%TO.N,34*%
X81328043Y-131879557D03*
X83260400Y-97299990D03*
%TO.N,35*%
X83260400Y-98150790D03*
X85293201Y-135483600D03*
%TO.N,36*%
X83260400Y-99090000D03*
X82524600Y-131902200D03*
%TO.N,52*%
X86817200Y-128625600D03*
X86664800Y-131927600D03*
%TO.N,Net-(Sample1-Pad40)*%
X81127600Y-128625600D03*
X83312000Y-131927600D03*
%TO.N,Net-(Sample1-Pad42)*%
X82702400Y-128625600D03*
X84074000Y-131927600D03*
%TO.N,Net-(Sample1-Pad44)*%
X84328000Y-128625600D03*
X84937600Y-131927600D03*
%TO.N,Net-(Sample1-Pad46)*%
X85750400Y-131927600D03*
X86004400Y-128625600D03*
%TO.N,GND*%
X73370000Y-94350000D03*
D14*
X86537800Y-111734600D03*
D13*
X73300000Y-101960000D03*
X73684400Y-108830000D03*
D14*
X81762600Y-129489200D03*
D13*
X71450000Y-94910000D03*
X71340000Y-96750000D03*
X69220000Y-83110000D03*
X87140000Y-97010000D03*
X74160600Y-106655200D03*
X88080000Y-101100000D03*
X86160000Y-96510000D03*
X71570000Y-93740000D03*
X73610000Y-100940000D03*
X69400000Y-99830000D03*
D14*
X86610000Y-98910000D03*
D13*
X72710000Y-92250000D03*
D14*
X81110000Y-106260000D03*
X69570000Y-74170000D03*
D13*
X70770000Y-93220000D03*
X86520000Y-95070000D03*
X76400600Y-107625200D03*
D14*
X70550000Y-127510000D03*
X71500000Y-89050000D03*
X72974200Y-134416800D03*
D13*
X72260000Y-98000000D03*
X72000000Y-94370000D03*
D14*
X86335600Y-92391600D03*
X84772800Y-137845800D03*
X70880000Y-98360000D03*
X86334600Y-107035600D03*
X73590000Y-114100000D03*
D13*
X70340000Y-97566200D03*
D14*
X88070000Y-105880000D03*
X81680000Y-113080000D03*
D13*
X75090000Y-103680000D03*
X82920000Y-109960000D03*
D14*
X72315400Y-108779800D03*
D13*
X84840000Y-101430000D03*
X84690000Y-102960000D03*
X72730000Y-93620000D03*
D14*
X69480000Y-107320000D03*
X74938800Y-123500200D03*
X85000000Y-124000000D03*
D13*
X84770000Y-93740000D03*
X71960000Y-92260000D03*
X72860000Y-103310000D03*
X86160000Y-96870000D03*
D14*
X82000000Y-120400000D03*
D13*
X86530000Y-93730000D03*
X73840000Y-92250000D03*
X71050000Y-92920000D03*
X69400000Y-97693800D03*
X72260000Y-96870000D03*
X88080000Y-96500000D03*
D14*
X76490000Y-105190000D03*
X72470000Y-107360000D03*
D13*
X80730000Y-108110000D03*
X72520000Y-95110000D03*
X71720000Y-94620000D03*
X82340000Y-103540000D03*
X72220000Y-109550000D03*
X85910000Y-101940000D03*
X69900000Y-94100000D03*
D14*
X71145400Y-111709200D03*
X82310000Y-121320000D03*
D13*
X83800000Y-93450000D03*
X70480000Y-99550000D03*
D14*
X71805800Y-107924600D03*
D13*
X73090000Y-92250000D03*
X86120000Y-100020000D03*
X88290000Y-79700000D03*
X84670000Y-103360000D03*
D14*
X73793200Y-137845800D03*
X88030000Y-108940000D03*
D13*
X85010000Y-93990000D03*
D14*
X69860000Y-88090000D03*
D13*
X88070000Y-98208000D03*
X83360000Y-101560000D03*
X72460000Y-101110000D03*
X84612600Y-108928000D03*
X81880000Y-106760000D03*
X74440000Y-106960000D03*
X74040000Y-108830000D03*
D14*
X73496600Y-104052800D03*
X83388200Y-111861600D03*
D13*
X75330000Y-107830000D03*
X74230000Y-101540000D03*
X70330000Y-97140000D03*
D14*
X81460000Y-95020000D03*
X87960000Y-127670000D03*
D13*
X87010000Y-95560000D03*
X83080000Y-101850000D03*
X84650000Y-94890000D03*
D14*
X70793200Y-136645800D03*
D13*
X80740000Y-109720000D03*
X72850000Y-110920000D03*
X84892000Y-109182000D03*
X73870000Y-93140000D03*
X73303400Y-108830000D03*
X85810000Y-94780000D03*
D14*
X86900200Y-93055800D03*
D13*
X85650000Y-92840000D03*
X80750000Y-110560000D03*
X86680000Y-99790000D03*
X71290000Y-94020000D03*
D14*
X71393200Y-137845800D03*
D13*
X85240000Y-97900000D03*
X71380000Y-99960000D03*
X72250000Y-95750000D03*
X85530000Y-110090000D03*
D14*
X76020000Y-94000000D03*
D13*
X71910000Y-100560000D03*
X69390000Y-100220000D03*
X80730000Y-109300000D03*
X76930000Y-109830000D03*
X85146000Y-109436000D03*
X74140000Y-104500000D03*
X88080000Y-97778000D03*
X83070000Y-106920000D03*
X82130000Y-106510000D03*
X72250000Y-99480000D03*
D14*
X78619200Y-137845800D03*
X70097800Y-135585200D03*
D13*
X70340000Y-97972600D03*
D14*
X73660000Y-125120000D03*
D13*
X83450000Y-93450000D03*
X86150000Y-97540000D03*
D14*
X82780000Y-114580000D03*
X69725400Y-91392200D03*
X88050000Y-111090000D03*
D13*
X88080000Y-97348000D03*
X84400000Y-94660000D03*
X70330000Y-96330000D03*
X80820000Y-107780000D03*
X85930000Y-93130000D03*
X85190000Y-95460000D03*
D14*
X70193200Y-137845800D03*
X86640000Y-96030000D03*
D13*
X69400000Y-95193600D03*
X75090000Y-102900000D03*
D14*
X83281200Y-116000200D03*
X83000000Y-116900000D03*
D13*
X70320000Y-100730000D03*
X71940000Y-110880000D03*
X70780000Y-94520000D03*
X87150000Y-96240000D03*
X82350000Y-105843600D03*
D14*
X88050000Y-112960000D03*
D13*
X80740000Y-108890000D03*
D14*
X76464600Y-106434600D03*
D13*
X75080000Y-103300000D03*
X70340000Y-95550000D03*
X85890000Y-100350000D03*
D14*
X79410000Y-96584800D03*
D13*
X76930000Y-109049000D03*
X72850000Y-102430000D03*
X74250000Y-93140000D03*
X87190000Y-100690000D03*
X86160000Y-96150000D03*
X83040000Y-94360000D03*
D14*
X73660000Y-111683800D03*
X70024400Y-90143800D03*
X81924800Y-116209800D03*
X69500000Y-123490000D03*
X71297800Y-135585200D03*
D13*
X76930000Y-108240000D03*
D14*
X76219200Y-137845800D03*
X75960000Y-116530000D03*
X75900000Y-105770400D03*
D13*
X87150000Y-99170000D03*
D14*
X76010000Y-120320000D03*
X71221600Y-107061000D03*
D13*
X74749400Y-107244800D03*
X71340000Y-97850000D03*
X84160000Y-93460000D03*
X72260000Y-98370000D03*
D14*
X85372800Y-136645800D03*
X87772800Y-136645800D03*
D13*
X71350000Y-99240000D03*
D14*
X72339200Y-105968800D03*
D13*
X73120000Y-93150000D03*
X75789400Y-107044800D03*
D14*
X76100000Y-122000000D03*
D13*
X72740000Y-100080000D03*
X69400000Y-95600000D03*
X84610000Y-92260000D03*
X69400000Y-97312800D03*
X86170000Y-97890000D03*
D14*
X85140000Y-71390000D03*
D13*
X87140000Y-98430000D03*
D14*
X75619200Y-136645800D03*
X83960000Y-107220000D03*
D13*
X81340000Y-107270000D03*
D14*
X87149000Y-90868000D03*
D13*
X84100000Y-93150000D03*
X71020000Y-94270000D03*
X88080000Y-95600000D03*
X85706600Y-102243400D03*
X69400000Y-100650000D03*
X85240000Y-96530000D03*
D14*
X74850000Y-114420000D03*
D13*
X87120000Y-97360000D03*
D14*
X87540000Y-71390000D03*
D13*
X85240000Y-99670000D03*
X69190000Y-79290000D03*
D14*
X72188600Y-116693200D03*
D13*
X72260000Y-97620000D03*
X73420000Y-93460000D03*
X71040000Y-100110000D03*
X70350000Y-95150000D03*
X86150000Y-97220000D03*
D14*
X87090000Y-106560000D03*
D13*
X83420000Y-94370000D03*
X71950000Y-102400000D03*
X70550000Y-100960000D03*
D14*
X70637400Y-108000800D03*
D13*
X72250000Y-98740000D03*
X86100000Y-95080000D03*
X87120000Y-98800000D03*
X75640000Y-108130000D03*
D14*
X86334600Y-108889800D03*
D13*
X70330000Y-96740000D03*
X76930000Y-108642600D03*
X84150000Y-108840000D03*
D14*
X70589000Y-90808000D03*
D13*
X84460000Y-93170000D03*
X80730000Y-108510000D03*
X84160000Y-100750000D03*
X83350000Y-106400000D03*
X84440000Y-100490000D03*
X82170000Y-107820000D03*
X86170000Y-98600000D03*
D14*
X87000000Y-109390000D03*
X75660000Y-117500000D03*
D13*
X74130000Y-94370000D03*
X84260000Y-92260000D03*
X88280000Y-77060000D03*
X87380000Y-94600000D03*
D14*
X69480000Y-113120000D03*
D13*
X70350000Y-99180000D03*
X85240000Y-95830000D03*
X82470000Y-107520000D03*
D14*
X84172600Y-117700000D03*
X77419200Y-137845800D03*
X82845200Y-136645800D03*
D13*
X73510000Y-93140000D03*
D14*
X69430000Y-127510000D03*
D13*
X83040000Y-93140000D03*
X81710000Y-109810000D03*
D14*
X87757000Y-135585200D03*
X87500000Y-118000000D03*
D13*
X71360000Y-98900000D03*
X86990000Y-99500000D03*
D14*
X73583800Y-107035600D03*
D13*
X86170000Y-95430000D03*
X85230000Y-98610000D03*
X72290000Y-95400000D03*
D14*
X77970000Y-96564800D03*
D13*
X86160000Y-98220000D03*
X76700000Y-107920000D03*
D14*
X73126600Y-124028200D03*
X74850000Y-113327800D03*
D13*
X75510000Y-106740000D03*
X74520000Y-93450000D03*
X70760000Y-99870000D03*
X88080000Y-100693600D03*
D14*
X82360000Y-113280000D03*
D13*
X72850000Y-108980000D03*
X88280000Y-75890000D03*
D14*
X81045200Y-137845800D03*
D13*
X85220000Y-98970000D03*
D14*
X70640000Y-71450000D03*
D13*
X69400000Y-96906400D03*
X88250000Y-84390000D03*
X88080000Y-96906400D03*
X70330000Y-95970000D03*
D14*
X88050000Y-92680000D03*
X76020000Y-93080000D03*
X86610000Y-97990000D03*
D13*
X82350000Y-104649800D03*
X75028800Y-107549600D03*
D14*
X72747400Y-115753400D03*
X87810000Y-113850000D03*
D13*
X81060000Y-107540000D03*
D14*
X85700000Y-116200000D03*
D13*
X71580000Y-92420000D03*
X71960000Y-109850000D03*
X71340000Y-97490000D03*
X75090000Y-106080000D03*
X69210000Y-84400000D03*
X75090000Y-105267200D03*
X88080000Y-96068200D03*
X73750000Y-94360000D03*
X71950000Y-110130000D03*
X74190000Y-106230000D03*
X72430000Y-93160000D03*
X87120000Y-94330000D03*
D14*
X87172800Y-137845800D03*
D13*
X88080000Y-99499800D03*
X83370000Y-93140000D03*
X83740000Y-93150000D03*
D14*
X80880000Y-96530000D03*
D13*
X88080000Y-99068000D03*
D14*
X71528800Y-91392200D03*
D13*
X69400000Y-94761800D03*
X85520000Y-94040000D03*
X85530000Y-110860000D03*
D14*
X87930000Y-89090000D03*
D13*
X88080000Y-99906200D03*
D14*
X87980000Y-123040000D03*
D13*
X74580000Y-93140000D03*
X86040000Y-94560000D03*
X88000000Y-95170000D03*
D14*
X74850000Y-112286400D03*
D13*
X72850000Y-102070000D03*
X69400000Y-96500000D03*
D14*
X86340000Y-71390000D03*
X81490000Y-93980000D03*
D13*
X71940000Y-103330000D03*
X82380000Y-103170000D03*
D14*
X70880000Y-97440000D03*
X87174400Y-88531200D03*
X75800000Y-118500000D03*
D13*
X73090000Y-94580000D03*
X69390000Y-98940000D03*
D14*
X79845200Y-137845800D03*
D13*
X81660000Y-110570000D03*
X75060000Y-102500000D03*
X74060000Y-109710000D03*
X83920000Y-92260000D03*
D14*
X86893400Y-104140000D03*
D13*
X69600000Y-94400000D03*
D14*
X88100000Y-107020000D03*
D13*
X73000000Y-101650000D03*
X85230000Y-96900000D03*
D14*
X70410600Y-115728000D03*
X85191600Y-113004600D03*
D13*
X74230000Y-92240000D03*
X70500000Y-93510000D03*
D14*
X86584400Y-90203800D03*
D13*
X82350000Y-106250000D03*
X72790000Y-94850000D03*
X71350000Y-95290000D03*
D14*
X87500000Y-124000000D03*
D13*
X71830000Y-93490000D03*
D14*
X69720000Y-92840000D03*
D13*
X87150000Y-95880000D03*
D14*
X69450000Y-115110000D03*
D13*
X84640000Y-110880000D03*
D14*
X74380000Y-124440000D03*
D13*
X85050000Y-92290000D03*
X83399600Y-104130000D03*
D14*
X86893400Y-107950000D03*
D13*
X88280000Y-78350000D03*
X70330000Y-101570000D03*
D14*
X85130000Y-107310000D03*
X71221600Y-108864400D03*
X85006200Y-117100000D03*
D13*
X76930000Y-110617400D03*
X87160000Y-101070000D03*
D14*
X86260000Y-89090000D03*
D13*
X73330000Y-100660000D03*
D14*
X72288400Y-112953800D03*
D13*
X85120000Y-101150000D03*
D14*
X86572800Y-136645800D03*
D13*
X71600000Y-100260000D03*
X81650000Y-110170000D03*
X69190000Y-76650000D03*
X88270000Y-81060000D03*
X72470000Y-99780000D03*
X69210000Y-81940000D03*
X69400000Y-101100000D03*
D14*
X69570000Y-72970000D03*
D13*
X82350000Y-104243400D03*
X86820000Y-94020000D03*
D14*
X87140000Y-114390000D03*
X86758800Y-116007800D03*
X81968200Y-122085600D03*
X69430000Y-120980000D03*
D13*
X85770000Y-94300000D03*
X85000000Y-99950000D03*
X72260000Y-96500000D03*
X69410000Y-99380000D03*
D14*
X86285400Y-91452200D03*
X88088800Y-91452200D03*
D13*
X70510000Y-94810000D03*
X72260000Y-96130000D03*
X72250000Y-99110000D03*
D14*
X81645200Y-136645800D03*
D13*
X75090000Y-105673600D03*
X74530000Y-94370000D03*
X85400000Y-109690000D03*
X85280000Y-94250000D03*
X82380000Y-102800000D03*
D14*
X83388200Y-107924600D03*
D13*
X88070000Y-98628000D03*
X72260000Y-97250000D03*
D14*
X69410000Y-118970000D03*
X69480000Y-109420000D03*
D13*
X84710000Y-100220000D03*
X71350000Y-98540000D03*
X69210000Y-87110000D03*
X85380000Y-92570000D03*
D14*
X70789800Y-124002800D03*
D13*
X83769000Y-108840000D03*
X76020000Y-108800000D03*
D14*
X86200000Y-117600000D03*
X84556600Y-107924600D03*
X76819200Y-136645800D03*
D13*
X71320000Y-92660000D03*
X74140000Y-103738000D03*
D14*
X73179200Y-116667800D03*
X84000000Y-124500000D03*
X85115400Y-105841800D03*
D13*
X72190000Y-100840000D03*
X73800000Y-93460000D03*
D14*
X70586600Y-104165400D03*
D13*
X69210000Y-85750000D03*
X76930000Y-109430000D03*
D14*
X70665200Y-91976400D03*
X69570000Y-71770000D03*
D13*
X82350000Y-105437200D03*
X88080000Y-100312600D03*
X72490000Y-93860000D03*
D14*
X75010000Y-110290000D03*
D13*
X71350000Y-99600000D03*
X73470000Y-92260000D03*
D14*
X87620000Y-115310000D03*
X83445200Y-137845800D03*
D13*
X83200000Y-92250000D03*
X73040000Y-100370000D03*
X76020000Y-109812600D03*
D14*
X69480000Y-111180000D03*
X75668200Y-121085600D03*
D13*
X86150000Y-95800000D03*
X82350000Y-105056200D03*
D14*
X73888200Y-115735600D03*
D13*
X87130000Y-97730000D03*
D14*
X75578200Y-119405600D03*
X85140800Y-108889800D03*
X73050400Y-107950000D03*
D13*
X85230000Y-97570000D03*
D14*
X70994800Y-116693200D03*
D13*
X84160000Y-94420000D03*
D14*
X70390000Y-122990000D03*
D13*
X83080000Y-93450000D03*
D14*
X70461400Y-117683800D03*
D13*
X83399600Y-104536400D03*
X85370000Y-100880000D03*
X86160000Y-99300000D03*
D14*
X77970000Y-97530000D03*
D13*
X76020000Y-110220000D03*
D14*
X82163000Y-115479800D03*
D13*
X85030000Y-93560000D03*
X80760000Y-110150000D03*
D14*
X76660000Y-96520000D03*
D13*
X84680000Y-102160000D03*
X88280000Y-87100000D03*
D14*
X87174400Y-89623400D03*
D13*
X72080000Y-93250000D03*
D14*
X87840000Y-93640000D03*
X75390000Y-122690000D03*
D13*
X71360000Y-95630000D03*
D14*
X74419200Y-136645800D03*
X82243000Y-117095400D03*
X85801200Y-107950000D03*
D13*
X83800000Y-94380000D03*
X81840000Y-108140000D03*
X75230600Y-106435200D03*
X84780000Y-93320000D03*
X70200000Y-93800000D03*
D14*
X69430000Y-105560000D03*
X84060000Y-104130000D03*
D13*
X75920000Y-108420000D03*
X85590000Y-102570000D03*
D14*
X71444200Y-90298400D03*
X87300000Y-117200000D03*
D13*
X74600000Y-92250000D03*
X69400000Y-101506400D03*
X75090000Y-104479800D03*
D14*
X86557000Y-135585200D03*
D13*
X81660000Y-108440000D03*
X81630000Y-107010000D03*
D14*
X69700000Y-89030000D03*
D13*
X83910000Y-101020000D03*
X69400000Y-98506600D03*
X82340000Y-103890000D03*
D14*
X75880000Y-114580000D03*
D13*
X71350000Y-96370000D03*
D14*
X80445200Y-136645800D03*
D13*
X70340000Y-98353600D03*
D14*
X70614400Y-88471200D03*
D13*
X69400000Y-96068200D03*
D14*
X75670000Y-113100000D03*
X82400000Y-123000000D03*
X69410000Y-125140000D03*
D13*
X72640000Y-101720000D03*
X86160000Y-98950000D03*
X71350000Y-96000000D03*
D14*
X84172800Y-136645800D03*
D13*
X83640000Y-101280000D03*
X75090000Y-104073400D03*
X84560000Y-101690000D03*
D14*
X71993200Y-136645800D03*
X70910000Y-95480000D03*
D13*
X85280000Y-93800000D03*
X85230000Y-98250000D03*
X87140000Y-98080000D03*
X85620000Y-100640000D03*
X69210000Y-77940000D03*
X86280000Y-94820000D03*
D14*
X81135400Y-105015400D03*
D13*
X88080000Y-101506400D03*
X69210000Y-80650000D03*
D14*
X85972800Y-137845800D03*
D13*
X72730000Y-101380000D03*
X69200000Y-75480000D03*
D14*
X73010000Y-71470000D03*
D13*
X70320000Y-101190000D03*
D14*
X70969400Y-114839000D03*
X75440000Y-111290000D03*
D13*
X85540000Y-94500000D03*
X88270000Y-81930000D03*
D14*
X82340000Y-119570000D03*
D13*
X72500000Y-109290000D03*
D14*
X81734800Y-114479800D03*
X88004200Y-90358400D03*
X72188600Y-114839000D03*
D13*
X84520000Y-93500000D03*
X76930000Y-110236400D03*
D14*
X75019200Y-137845800D03*
D13*
X85610000Y-103310000D03*
X73020000Y-93460000D03*
X86220000Y-93410000D03*
X84680000Y-102560000D03*
X75090000Y-104886200D03*
D14*
X70910000Y-96400000D03*
X72593200Y-137845800D03*
D13*
X82810000Y-102130000D03*
D14*
X71655200Y-115753400D03*
D13*
X87140000Y-96610000D03*
X86160000Y-99650000D03*
X72330000Y-92250000D03*
X82540000Y-102410000D03*
D14*
X73788800Y-117683800D03*
D13*
X76090600Y-107325200D03*
X85240000Y-99330000D03*
D14*
X70614400Y-89563400D03*
X78019200Y-136645800D03*
D13*
X76030000Y-110600000D03*
D14*
X74320000Y-116650000D03*
D13*
X88260000Y-85740000D03*
X74140000Y-104119000D03*
D14*
X86200000Y-115245800D03*
X73193200Y-136645800D03*
D13*
X74520000Y-101850000D03*
X85240000Y-97240000D03*
X84270000Y-102010000D03*
X83570000Y-92260000D03*
D14*
X83944800Y-115300000D03*
X79410000Y-97550000D03*
X75528200Y-115615600D03*
D13*
X87170000Y-101450000D03*
X73910000Y-101250000D03*
D14*
X81490000Y-93060000D03*
D13*
X88260000Y-83100000D03*
X87680000Y-94860000D03*
D14*
X70290000Y-113930000D03*
X84900000Y-115100000D03*
D13*
X85220000Y-96180000D03*
X69400000Y-98100200D03*
D14*
X83431400Y-114153600D03*
X82360000Y-111146400D03*
D13*
X83399600Y-103749000D03*
X82750000Y-107210000D03*
X81670000Y-108820000D03*
X72760000Y-93160000D03*
D14*
X79245200Y-136645800D03*
X81700000Y-105679600D03*
X83500000Y-123500000D03*
X87225200Y-92036400D03*
D13*
X74180000Y-93460000D03*
X70340000Y-98760000D03*
X71360000Y-98190000D03*
D14*
X86640000Y-96950000D03*
X69430000Y-117070000D03*
X74142600Y-107950000D03*
D13*
X74800000Y-102160000D03*
D14*
X82245200Y-137845800D03*
D13*
X86760000Y-95330000D03*
X71350000Y-97120000D03*
X72250000Y-94100000D03*
D14*
X75990000Y-95040000D03*
D13*
%TO.N,Net-(Sample1-Pad25)*%
X74330000Y-94910000D03*
X80930000Y-135480000D03*
%TD*%
D15*
%TO.N,unconnected-(ZIF1-Pad13)*%
X77540000Y-101343310D02*
X74334900Y-98138210D01*
X76143300Y-132886700D02*
X76983300Y-132886700D01*
X73550000Y-135480000D02*
X76143300Y-132886700D01*
X77540000Y-132330000D02*
X77540000Y-101343310D01*
X76983300Y-132886700D02*
X77540000Y-132330000D01*
D16*
%TO.N,Net-(Sample1-Pad15)*%
X75506400Y-135483600D02*
X77870000Y-133120000D01*
X77870000Y-133120000D02*
X77870000Y-100860510D01*
X74625200Y-135483600D02*
X75506400Y-135483600D01*
X77870000Y-100860510D02*
X74334900Y-97325410D01*
%TO.N,Net-(Sample1-Pad16)*%
X76510929Y-131927600D02*
X77240000Y-131198529D01*
X77240000Y-131198529D02*
X77240000Y-101862100D01*
X74507900Y-99130000D02*
X74327100Y-99130000D01*
X75031600Y-131927600D02*
X76510929Y-131927600D01*
X77240000Y-101862100D02*
X74507900Y-99130000D01*
%TO.N,Net-(Sample1-Pad17)*%
X78180000Y-100364099D02*
X74328700Y-96512799D01*
X78180000Y-134069011D02*
X78180000Y-100364099D01*
X76765411Y-135483600D02*
X78180000Y-134069011D01*
X76200000Y-135483600D02*
X76765411Y-135483600D01*
D15*
%TO.N,unconnected-(ZIF1-Pad27)*%
X78500000Y-133865600D02*
X78500000Y-99871300D01*
X78500000Y-99871300D02*
X74328700Y-95700000D01*
X80118000Y-135483600D02*
X78500000Y-133865600D01*
D16*
%TO.N,31*%
X79112820Y-99052825D02*
X83265665Y-94899980D01*
X79112820Y-132430000D02*
X79112820Y-99052825D01*
X79552820Y-132870000D02*
X79112820Y-132430000D01*
X81788001Y-135483600D02*
X81788001Y-134368001D01*
X80290000Y-132870000D02*
X79552820Y-132870000D01*
X81788001Y-134368001D02*
X80290000Y-132870000D01*
%TO.N,32*%
X79411880Y-131380280D02*
X79411880Y-99603775D01*
X80619600Y-132588000D02*
X79411880Y-131380280D01*
X79411880Y-99603775D02*
X83265665Y-95749990D01*
%TO.N,33*%
X79710940Y-130815740D02*
X83515200Y-134620000D01*
X83260400Y-96499980D02*
X79710940Y-100049440D01*
X79710940Y-100049440D02*
X79710940Y-130815740D01*
X83515200Y-134620000D02*
X83515200Y-135483600D01*
%TO.N,34*%
X81328043Y-131879557D02*
X81328043Y-131874043D01*
X81328043Y-131874043D02*
X80010000Y-130556000D01*
X80010000Y-100550390D02*
X83260400Y-97299990D01*
X80010000Y-130556000D02*
X80010000Y-100550390D01*
%TO.N,35*%
X85293201Y-135483600D02*
X85293201Y-135280401D01*
X80209060Y-100774930D02*
X82833200Y-98150790D01*
X85293201Y-135280401D02*
X80209060Y-130196260D01*
X82833200Y-98150790D02*
X83260400Y-98150790D01*
X80209060Y-130196260D02*
X80209060Y-100774930D01*
%TO.N,36*%
X82524600Y-131902200D02*
X80408120Y-129785720D01*
X80408120Y-129785720D02*
X80408120Y-101942280D01*
X80408120Y-101942280D02*
X83260400Y-99090000D01*
%TO.N,52*%
X86664800Y-131927600D02*
X86817200Y-131775200D01*
X86817200Y-131775200D02*
X86817200Y-128625600D01*
%TO.N,Net-(Sample1-Pad40)*%
X83312000Y-131927600D02*
X81127600Y-129743200D01*
X81127600Y-129743200D02*
X81127600Y-128625600D01*
%TO.N,Net-(Sample1-Pad42)*%
X84074000Y-131927600D02*
X82702400Y-130556000D01*
X82702400Y-130556000D02*
X82702400Y-128625600D01*
%TO.N,Net-(Sample1-Pad44)*%
X84328000Y-131318000D02*
X84328000Y-128625600D01*
X84937600Y-131927600D02*
X84328000Y-131318000D01*
%TO.N,Net-(Sample1-Pad46)*%
X85750400Y-131927600D02*
X86004400Y-131673600D01*
X86004400Y-131673600D02*
X86004400Y-128625600D01*
D15*
%TO.N,Net-(Sample1-Pad25)*%
X78810000Y-133360000D02*
X78810000Y-99390000D01*
X78810000Y-99390000D02*
X74330000Y-94910000D01*
X80930000Y-135480000D02*
X78810000Y-133360000D01*
%TD*%
%TA.AperFunction,Conductor*%
%TO.N,GND*%
G36*
X88436939Y-71026505D02*
G01*
X88482694Y-71079309D01*
X88493900Y-71130820D01*
X88493900Y-72740442D01*
X88474215Y-72807481D01*
X88421411Y-72853236D01*
X88352253Y-72863180D01*
X88288697Y-72834155D01*
X88253718Y-72783776D01*
X88213908Y-72677041D01*
X88076808Y-72425961D01*
X88076807Y-72425960D01*
X87970115Y-72283436D01*
X87288621Y-72964930D01*
X87205589Y-72840664D01*
X87059336Y-72694411D01*
X86935068Y-72611378D01*
X87616562Y-71929883D01*
X87616561Y-71929882D01*
X87474046Y-71823196D01*
X87474038Y-71823191D01*
X87222957Y-71686091D01*
X87222958Y-71686091D01*
X86954895Y-71586109D01*
X86675362Y-71525300D01*
X86390001Y-71504891D01*
X86389999Y-71504891D01*
X86104637Y-71525300D01*
X85825104Y-71586109D01*
X85557041Y-71686091D01*
X85305961Y-71823191D01*
X85305953Y-71823196D01*
X85163437Y-71929882D01*
X85163436Y-71929883D01*
X85844931Y-72611378D01*
X85720664Y-72694411D01*
X85574411Y-72840664D01*
X85491378Y-72964931D01*
X84809883Y-72283436D01*
X84809882Y-72283437D01*
X84703196Y-72425953D01*
X84703191Y-72425961D01*
X84566091Y-72677041D01*
X84466109Y-72945104D01*
X84405300Y-73224637D01*
X84384891Y-73509998D01*
X84384891Y-73510001D01*
X84405300Y-73795362D01*
X84466109Y-74074895D01*
X84566091Y-74342958D01*
X84703191Y-74594038D01*
X84703196Y-74594046D01*
X84809882Y-74736561D01*
X84809883Y-74736562D01*
X85491377Y-74055067D01*
X85574411Y-74179336D01*
X85720664Y-74325589D01*
X85844930Y-74408621D01*
X85163436Y-75090115D01*
X85305960Y-75196807D01*
X85305961Y-75196808D01*
X85557042Y-75333908D01*
X85557041Y-75333908D01*
X85825104Y-75433890D01*
X86104637Y-75494699D01*
X86389999Y-75515109D01*
X86390001Y-75515109D01*
X86675362Y-75494699D01*
X86954895Y-75433890D01*
X87222958Y-75333908D01*
X87474047Y-75196803D01*
X87616561Y-75090116D01*
X87616562Y-75090115D01*
X86935068Y-74408621D01*
X87059336Y-74325589D01*
X87205589Y-74179336D01*
X87288621Y-74055068D01*
X87970115Y-74736562D01*
X87970116Y-74736561D01*
X88076803Y-74594047D01*
X88213908Y-74342957D01*
X88213910Y-74342953D01*
X88253718Y-74236224D01*
X88295589Y-74180290D01*
X88361054Y-74155873D01*
X88429327Y-74170725D01*
X88478732Y-74220130D01*
X88493900Y-74279557D01*
X88493900Y-119911178D01*
X88474215Y-119978217D01*
X88421411Y-120023972D01*
X88352253Y-120033916D01*
X88288697Y-120004891D01*
X88251109Y-119946742D01*
X88198854Y-119772199D01*
X88060444Y-119451329D01*
X88060438Y-119451316D01*
X87885710Y-119148677D01*
X87677032Y-118868374D01*
X87668850Y-118859702D01*
X86954919Y-119573632D01*
X86881906Y-119478479D01*
X86696521Y-119293094D01*
X86601366Y-119220079D01*
X87312180Y-118509265D01*
X87312179Y-118509264D01*
X87169519Y-118389557D01*
X86877538Y-118197519D01*
X86565260Y-118040685D01*
X86565254Y-118040683D01*
X86236869Y-117921161D01*
X86236866Y-117921160D01*
X85896828Y-117840570D01*
X85549723Y-117800000D01*
X85200277Y-117800000D01*
X84853172Y-117840570D01*
X84853170Y-117840570D01*
X84513133Y-117921160D01*
X84513130Y-117921161D01*
X84184745Y-118040683D01*
X84184739Y-118040685D01*
X83872461Y-118197519D01*
X83580480Y-118389557D01*
X83437819Y-118509264D01*
X83437818Y-118509265D01*
X84148633Y-119220079D01*
X84053479Y-119293094D01*
X83868094Y-119478479D01*
X83795080Y-119573633D01*
X83081148Y-118859701D01*
X83081147Y-118859702D01*
X83072976Y-118868363D01*
X83072972Y-118868368D01*
X82864289Y-119148677D01*
X82689561Y-119451316D01*
X82689555Y-119451329D01*
X82551145Y-119772199D01*
X82450916Y-120106988D01*
X82450914Y-120106997D01*
X82390236Y-120451119D01*
X82390235Y-120451130D01*
X82369916Y-120799996D01*
X82369916Y-120800003D01*
X82390235Y-121148869D01*
X82390236Y-121148880D01*
X82450914Y-121493002D01*
X82450916Y-121493011D01*
X82551145Y-121827800D01*
X82689555Y-122148670D01*
X82689561Y-122148683D01*
X82864289Y-122451322D01*
X83072967Y-122731625D01*
X83081148Y-122740296D01*
X83795079Y-122026365D01*
X83868094Y-122121521D01*
X84053479Y-122306906D01*
X84148632Y-122379919D01*
X83437818Y-123090733D01*
X83437819Y-123090734D01*
X83580484Y-123210445D01*
X83872461Y-123402480D01*
X84184739Y-123559314D01*
X84184745Y-123559316D01*
X84513130Y-123678838D01*
X84513133Y-123678839D01*
X84853171Y-123759429D01*
X85182973Y-123797977D01*
X85247274Y-123825311D01*
X85286590Y-123883070D01*
X85288437Y-123952915D01*
X85252231Y-124012672D01*
X85242888Y-124020406D01*
X85163437Y-124079882D01*
X85163436Y-124079883D01*
X85844931Y-124761378D01*
X85720664Y-124844411D01*
X85574411Y-124990664D01*
X85491378Y-125114931D01*
X84809883Y-124433436D01*
X84809882Y-124433437D01*
X84703196Y-124575953D01*
X84703191Y-124575961D01*
X84566091Y-124827041D01*
X84466109Y-125095104D01*
X84405300Y-125374637D01*
X84384891Y-125659998D01*
X84384891Y-125660001D01*
X84405300Y-125945362D01*
X84466109Y-126224895D01*
X84566091Y-126492958D01*
X84703191Y-126744038D01*
X84703196Y-126744046D01*
X84809882Y-126886561D01*
X84809883Y-126886562D01*
X85491377Y-126205067D01*
X85574411Y-126329336D01*
X85720664Y-126475589D01*
X85844930Y-126558621D01*
X85163436Y-127240115D01*
X85305960Y-127346807D01*
X85305961Y-127346808D01*
X85557042Y-127483908D01*
X85557041Y-127483908D01*
X85825104Y-127583890D01*
X86104637Y-127644699D01*
X86389999Y-127665109D01*
X86390001Y-127665109D01*
X86675362Y-127644699D01*
X86954895Y-127583890D01*
X87222958Y-127483908D01*
X87474047Y-127346803D01*
X87616561Y-127240116D01*
X87616562Y-127240115D01*
X86935068Y-126558621D01*
X87059336Y-126475589D01*
X87205589Y-126329336D01*
X87288621Y-126205068D01*
X87970115Y-126886562D01*
X87970116Y-126886561D01*
X88076803Y-126744047D01*
X88213908Y-126492957D01*
X88213910Y-126492953D01*
X88253718Y-126386224D01*
X88295589Y-126330290D01*
X88361054Y-126305873D01*
X88429327Y-126320725D01*
X88478732Y-126370130D01*
X88493900Y-126429557D01*
X88493900Y-138357100D01*
X88474215Y-138424139D01*
X88421411Y-138469894D01*
X88369900Y-138481100D01*
X69160900Y-138481100D01*
X69093861Y-138461415D01*
X69048106Y-138408611D01*
X69036900Y-138357100D01*
X69036900Y-135479997D01*
X73294592Y-135479997D01*
X73294592Y-135480002D01*
X73314033Y-135577738D01*
X73314033Y-135577739D01*
X73314034Y-135577740D01*
X73369399Y-135660601D01*
X73452260Y-135715966D01*
X73484840Y-135722446D01*
X73549998Y-135735408D01*
X73550000Y-135735408D01*
X73550002Y-135735408D01*
X73598870Y-135725687D01*
X73647740Y-135715966D01*
X73730601Y-135660601D01*
X73785966Y-135577740D01*
X73805408Y-135480000D01*
X73807791Y-135468021D01*
X73811105Y-135468680D01*
X73825093Y-135421046D01*
X73841727Y-135400404D01*
X76169113Y-133073019D01*
X76230436Y-133039534D01*
X76256794Y-133036700D01*
X77013135Y-133036700D01*
X77013137Y-133036700D01*
X77068268Y-133013864D01*
X77508289Y-132573843D01*
X77569612Y-132540358D01*
X77639304Y-132545342D01*
X77695237Y-132587214D01*
X77719654Y-132652678D01*
X77719970Y-132661524D01*
X77719970Y-133006494D01*
X77700285Y-133073533D01*
X77683651Y-133094175D01*
X75480575Y-135297251D01*
X75419252Y-135330736D01*
X75392894Y-135333570D01*
X74887735Y-135333570D01*
X74820696Y-135313885D01*
X74813912Y-135308418D01*
X74727316Y-135250558D01*
X74722940Y-135247634D01*
X74722939Y-135247633D01*
X74722938Y-135247633D01*
X74625202Y-135228192D01*
X74625198Y-135228192D01*
X74527461Y-135247633D01*
X74444599Y-135302999D01*
X74389233Y-135385861D01*
X74369792Y-135483597D01*
X74369792Y-135483602D01*
X74389233Y-135581338D01*
X74389233Y-135581339D01*
X74389234Y-135581340D01*
X74444599Y-135664201D01*
X74527460Y-135719566D01*
X74560040Y-135726046D01*
X74625198Y-135739008D01*
X74625200Y-135739008D01*
X74625202Y-135739008D01*
X74674070Y-135729287D01*
X74722940Y-135719566D01*
X74805801Y-135664201D01*
X74805800Y-135664201D01*
X74815956Y-135657416D01*
X74817840Y-135660236D01*
X74861377Y-135636464D01*
X74887735Y-135633630D01*
X75536242Y-135633630D01*
X75536243Y-135633630D01*
X75591385Y-135610789D01*
X75743054Y-135459119D01*
X75804376Y-135425636D01*
X75874067Y-135430620D01*
X75930001Y-135472491D01*
X75952351Y-135522610D01*
X75964033Y-135581338D01*
X75964033Y-135581339D01*
X75964034Y-135581340D01*
X76019399Y-135664201D01*
X76102260Y-135719566D01*
X76134840Y-135726046D01*
X76199998Y-135739008D01*
X76200000Y-135739008D01*
X76200002Y-135739008D01*
X76248870Y-135729287D01*
X76297740Y-135719566D01*
X76380601Y-135664201D01*
X76380600Y-135664201D01*
X76390756Y-135657416D01*
X76392640Y-135660236D01*
X76436177Y-135636464D01*
X76462535Y-135633630D01*
X76795253Y-135633630D01*
X76795254Y-135633630D01*
X76850396Y-135610789D01*
X78307189Y-134153996D01*
X78314981Y-134135182D01*
X78358820Y-134080781D01*
X78425114Y-134058715D01*
X78492814Y-134075993D01*
X78517223Y-134094955D01*
X79826273Y-135404005D01*
X79859758Y-135465328D01*
X79860700Y-135474091D01*
X79882033Y-135581338D01*
X79882033Y-135581339D01*
X79882034Y-135581340D01*
X79937399Y-135664201D01*
X80020260Y-135719566D01*
X80052840Y-135726046D01*
X80117998Y-135739008D01*
X80118000Y-135739008D01*
X80118002Y-135739008D01*
X80166870Y-135729287D01*
X80215740Y-135719566D01*
X80298601Y-135664201D01*
X80353966Y-135581340D01*
X80373408Y-135483600D01*
X80366731Y-135450033D01*
X80372958Y-135380443D01*
X80415820Y-135325265D01*
X80481710Y-135302020D01*
X80549707Y-135318087D01*
X80576029Y-135338161D01*
X80638273Y-135400405D01*
X80671758Y-135461728D01*
X80672700Y-135470491D01*
X80694033Y-135577738D01*
X80694033Y-135577739D01*
X80694034Y-135577740D01*
X80749399Y-135660601D01*
X80832260Y-135715966D01*
X80864840Y-135722446D01*
X80929998Y-135735408D01*
X80930000Y-135735408D01*
X80930002Y-135735408D01*
X80978870Y-135725687D01*
X81027740Y-135715966D01*
X81110601Y-135660601D01*
X81165966Y-135577740D01*
X81185408Y-135480000D01*
X81185408Y-135479997D01*
X81165966Y-135382261D01*
X81165966Y-135382260D01*
X81110601Y-135299399D01*
X81027740Y-135244034D01*
X81027739Y-135244033D01*
X81027738Y-135244033D01*
X80918022Y-135222209D01*
X80918681Y-135218894D01*
X80871047Y-135204907D01*
X80850405Y-135188273D01*
X78996319Y-133334187D01*
X78962834Y-133272864D01*
X78960000Y-133246506D01*
X78960000Y-132788716D01*
X78979685Y-132721677D01*
X79032489Y-132675922D01*
X79101647Y-132665978D01*
X79165203Y-132695003D01*
X79171681Y-132701035D01*
X79425631Y-132954985D01*
X79467835Y-132997189D01*
X79522977Y-133020030D01*
X80176494Y-133020030D01*
X80243533Y-133039715D01*
X80264175Y-133056349D01*
X81601652Y-134393826D01*
X81635137Y-134455149D01*
X81637971Y-134481507D01*
X81637971Y-135221065D01*
X81618286Y-135288104D01*
X81612819Y-135294887D01*
X81552034Y-135385861D01*
X81532593Y-135483597D01*
X81532593Y-135483602D01*
X81552034Y-135581338D01*
X81552034Y-135581339D01*
X81552035Y-135581340D01*
X81607400Y-135664201D01*
X81690261Y-135719566D01*
X81722841Y-135726046D01*
X81787999Y-135739008D01*
X81788001Y-135739008D01*
X81788003Y-135739008D01*
X81836871Y-135729287D01*
X81885741Y-135719566D01*
X81968602Y-135664201D01*
X82023967Y-135581340D01*
X82043409Y-135483600D01*
X82043409Y-135483597D01*
X82023967Y-135385861D01*
X82023967Y-135385860D01*
X81968602Y-135302999D01*
X81961817Y-135292844D01*
X81964637Y-135290959D01*
X81940865Y-135247423D01*
X81938031Y-135221065D01*
X81938031Y-134338159D01*
X81938031Y-134338158D01*
X81915190Y-134283016D01*
X81872986Y-134240812D01*
X81276629Y-133644455D01*
X80663516Y-133031341D01*
X80630031Y-132970018D01*
X80635015Y-132900326D01*
X80676887Y-132844393D01*
X80707019Y-132830962D01*
X80706057Y-132828640D01*
X80717336Y-132823967D01*
X80717336Y-132823966D01*
X80717340Y-132823966D01*
X80800201Y-132768601D01*
X80855566Y-132685740D01*
X80875008Y-132588000D01*
X80856423Y-132494568D01*
X80862650Y-132424977D01*
X80905513Y-132369800D01*
X80971402Y-132346555D01*
X81039399Y-132362622D01*
X81065721Y-132382696D01*
X83328851Y-134645825D01*
X83362336Y-134707148D01*
X83365170Y-134733506D01*
X83365170Y-135221065D01*
X83345485Y-135288104D01*
X83340018Y-135294887D01*
X83279233Y-135385861D01*
X83259792Y-135483597D01*
X83259792Y-135483602D01*
X83279233Y-135581338D01*
X83279233Y-135581339D01*
X83279234Y-135581340D01*
X83334599Y-135664201D01*
X83417460Y-135719566D01*
X83450040Y-135726046D01*
X83515198Y-135739008D01*
X83515200Y-135739008D01*
X83515202Y-135739008D01*
X83564070Y-135729287D01*
X83612940Y-135719566D01*
X83695801Y-135664201D01*
X83751166Y-135581340D01*
X83770608Y-135483600D01*
X83770608Y-135483597D01*
X83751166Y-135385861D01*
X83751166Y-135385860D01*
X83695801Y-135302999D01*
X83689016Y-135292844D01*
X83691836Y-135290959D01*
X83668064Y-135247423D01*
X83665230Y-135221065D01*
X83665230Y-134590158D01*
X83665230Y-134590157D01*
X83642389Y-134535015D01*
X83600185Y-134492811D01*
X81411001Y-132303627D01*
X81377516Y-132242304D01*
X81382500Y-132172612D01*
X81424372Y-132116679D01*
X81429776Y-132112854D01*
X81508644Y-132060158D01*
X81564009Y-131977297D01*
X81564009Y-131977295D01*
X81565746Y-131974696D01*
X81619357Y-131929890D01*
X81688682Y-131921181D01*
X81751710Y-131951335D01*
X81756530Y-131955904D01*
X85037047Y-135236421D01*
X85070532Y-135297744D01*
X85065548Y-135367436D01*
X85061896Y-135374572D01*
X85061908Y-135374577D01*
X85057234Y-135385860D01*
X85037793Y-135483597D01*
X85037793Y-135483602D01*
X85057234Y-135581338D01*
X85057234Y-135581339D01*
X85057235Y-135581340D01*
X85112600Y-135664201D01*
X85195461Y-135719566D01*
X85228041Y-135726046D01*
X85293199Y-135739008D01*
X85293201Y-135739008D01*
X85293203Y-135739008D01*
X85342071Y-135729287D01*
X85390941Y-135719566D01*
X85473802Y-135664201D01*
X85529167Y-135581340D01*
X85548609Y-135483600D01*
X85548609Y-135483597D01*
X85529167Y-135385861D01*
X85529167Y-135385860D01*
X85473802Y-135302999D01*
X85467017Y-135292844D01*
X85468410Y-135291912D01*
X85451236Y-135260461D01*
X85447905Y-135261842D01*
X85441932Y-135247423D01*
X85420390Y-135195416D01*
X85378186Y-135153212D01*
X82570184Y-132345210D01*
X82536699Y-132283887D01*
X82541683Y-132214195D01*
X82583555Y-132158262D01*
X82612161Y-132145507D01*
X82611057Y-132142840D01*
X82622336Y-132138167D01*
X82622336Y-132138166D01*
X82622340Y-132138166D01*
X82705201Y-132082801D01*
X82760566Y-131999940D01*
X82774956Y-131927597D01*
X82782391Y-131890222D01*
X82784834Y-131890707D01*
X82799693Y-131840105D01*
X82852497Y-131794350D01*
X82921655Y-131784406D01*
X82985211Y-131813431D01*
X82991689Y-131819463D01*
X83020273Y-131848047D01*
X83053758Y-131909370D01*
X83054690Y-131918042D01*
X83076033Y-132025338D01*
X83076033Y-132025339D01*
X83076034Y-132025340D01*
X83131399Y-132108201D01*
X83214260Y-132163566D01*
X83246840Y-132170046D01*
X83311998Y-132183008D01*
X83312000Y-132183008D01*
X83312002Y-132183008D01*
X83364263Y-132172612D01*
X83409740Y-132163566D01*
X83492601Y-132108201D01*
X83547966Y-132025340D01*
X83562687Y-131951335D01*
X83569791Y-131915622D01*
X83572234Y-131916107D01*
X83587093Y-131865505D01*
X83639897Y-131819750D01*
X83709055Y-131809806D01*
X83772611Y-131838831D01*
X83779089Y-131844863D01*
X83782273Y-131848047D01*
X83815758Y-131909370D01*
X83816690Y-131918042D01*
X83838033Y-132025338D01*
X83838033Y-132025339D01*
X83838034Y-132025340D01*
X83893399Y-132108201D01*
X83976260Y-132163566D01*
X84008840Y-132170046D01*
X84073998Y-132183008D01*
X84074000Y-132183008D01*
X84074002Y-132183008D01*
X84126263Y-132172612D01*
X84171740Y-132163566D01*
X84254601Y-132108201D01*
X84309966Y-132025340D01*
X84324687Y-131951335D01*
X84329408Y-131927602D01*
X84329408Y-131927599D01*
X84310823Y-131834169D01*
X84317050Y-131764577D01*
X84359913Y-131709400D01*
X84425802Y-131686155D01*
X84493799Y-131702222D01*
X84520118Y-131722292D01*
X84645875Y-131848050D01*
X84679358Y-131909369D01*
X84680290Y-131918043D01*
X84701633Y-132025338D01*
X84701633Y-132025339D01*
X84701634Y-132025340D01*
X84756999Y-132108201D01*
X84839860Y-132163566D01*
X84872440Y-132170046D01*
X84937598Y-132183008D01*
X84937600Y-132183008D01*
X84937602Y-132183008D01*
X84989863Y-132172612D01*
X85035340Y-132163566D01*
X85118201Y-132108201D01*
X85173566Y-132025340D01*
X85188287Y-131951335D01*
X85193008Y-131927602D01*
X85193008Y-131927597D01*
X85494992Y-131927597D01*
X85494992Y-131927602D01*
X85514433Y-132025338D01*
X85514433Y-132025339D01*
X85514434Y-132025340D01*
X85569799Y-132108201D01*
X85652660Y-132163566D01*
X85685240Y-132170046D01*
X85750398Y-132183008D01*
X85750400Y-132183008D01*
X85750402Y-132183008D01*
X85802663Y-132172612D01*
X85848140Y-132163566D01*
X85931001Y-132108201D01*
X85986366Y-132025340D01*
X86001102Y-131951253D01*
X86005808Y-131927597D01*
X86409392Y-131927597D01*
X86409392Y-131927602D01*
X86428833Y-132025338D01*
X86428833Y-132025339D01*
X86428834Y-132025340D01*
X86484199Y-132108201D01*
X86567060Y-132163566D01*
X86599640Y-132170046D01*
X86664798Y-132183008D01*
X86664800Y-132183008D01*
X86664802Y-132183008D01*
X86717063Y-132172612D01*
X86762540Y-132163566D01*
X86845401Y-132108201D01*
X86900766Y-132025340D01*
X86915502Y-131951253D01*
X86922591Y-131915621D01*
X86925435Y-131916186D01*
X86939893Y-131866950D01*
X86941108Y-131865096D01*
X86944387Y-131860188D01*
X86944387Y-131860186D01*
X86944389Y-131860185D01*
X86967230Y-131805043D01*
X86967230Y-131745357D01*
X86967230Y-128888134D01*
X86986915Y-128821095D01*
X86992379Y-128814313D01*
X86997797Y-128806203D01*
X86997801Y-128806201D01*
X87053166Y-128723340D01*
X87072608Y-128625600D01*
X87072608Y-128625597D01*
X87053166Y-128527861D01*
X87053166Y-128527860D01*
X86997801Y-128444999D01*
X86914940Y-128389634D01*
X86914939Y-128389633D01*
X86914938Y-128389633D01*
X86817202Y-128370192D01*
X86817198Y-128370192D01*
X86719461Y-128389633D01*
X86636599Y-128444999D01*
X86581233Y-128527861D01*
X86561792Y-128625597D01*
X86561792Y-128625602D01*
X86581233Y-128723338D01*
X86581233Y-128723339D01*
X86581234Y-128723340D01*
X86636599Y-128806201D01*
X86636600Y-128806201D01*
X86643385Y-128816356D01*
X86640563Y-128818240D01*
X86664336Y-128861776D01*
X86667170Y-128888134D01*
X86667170Y-131569956D01*
X86647485Y-131636995D01*
X86594681Y-131682750D01*
X86567366Y-131691572D01*
X86567063Y-131691632D01*
X86484199Y-131746999D01*
X86428833Y-131829861D01*
X86409392Y-131927597D01*
X86005808Y-131927597D01*
X86008191Y-131915621D01*
X86011517Y-131916282D01*
X86025493Y-131868689D01*
X86042127Y-131848046D01*
X86060313Y-131829860D01*
X86131589Y-131758585D01*
X86154430Y-131703443D01*
X86154430Y-131643757D01*
X86154430Y-128888134D01*
X86174115Y-128821095D01*
X86179579Y-128814313D01*
X86184997Y-128806203D01*
X86185001Y-128806201D01*
X86240366Y-128723340D01*
X86259808Y-128625600D01*
X86259808Y-128625597D01*
X86240366Y-128527861D01*
X86240366Y-128527860D01*
X86185001Y-128444999D01*
X86102140Y-128389634D01*
X86102139Y-128389633D01*
X86102138Y-128389633D01*
X86004402Y-128370192D01*
X86004398Y-128370192D01*
X85906661Y-128389633D01*
X85823799Y-128444999D01*
X85768433Y-128527861D01*
X85748992Y-128625597D01*
X85748992Y-128625602D01*
X85768433Y-128723338D01*
X85768433Y-128723339D01*
X85768434Y-128723340D01*
X85823799Y-128806201D01*
X85823800Y-128806201D01*
X85830585Y-128816356D01*
X85827763Y-128818240D01*
X85851536Y-128861776D01*
X85854370Y-128888134D01*
X85854370Y-131549746D01*
X85834685Y-131616785D01*
X85781881Y-131662540D01*
X85754562Y-131671363D01*
X85652661Y-131691633D01*
X85569799Y-131746999D01*
X85514433Y-131829861D01*
X85494992Y-131927597D01*
X85193008Y-131927597D01*
X85173566Y-131829861D01*
X85173566Y-131829860D01*
X85118201Y-131746999D01*
X85035340Y-131691634D01*
X85035339Y-131691633D01*
X85035338Y-131691633D01*
X84925622Y-131669809D01*
X84926283Y-131666482D01*
X84878690Y-131652507D01*
X84858048Y-131635873D01*
X84514349Y-131292174D01*
X84480864Y-131230851D01*
X84478030Y-131204493D01*
X84478030Y-128888134D01*
X84497715Y-128821095D01*
X84503179Y-128814313D01*
X84508597Y-128806203D01*
X84508601Y-128806201D01*
X84563966Y-128723340D01*
X84583408Y-128625600D01*
X84583408Y-128625597D01*
X84563966Y-128527861D01*
X84563966Y-128527860D01*
X84508601Y-128444999D01*
X84425740Y-128389634D01*
X84425739Y-128389633D01*
X84425738Y-128389633D01*
X84328002Y-128370192D01*
X84327998Y-128370192D01*
X84230261Y-128389633D01*
X84147399Y-128444999D01*
X84092033Y-128527861D01*
X84072592Y-128625597D01*
X84072592Y-128625602D01*
X84092033Y-128723338D01*
X84092033Y-128723339D01*
X84092034Y-128723340D01*
X84147399Y-128806201D01*
X84147400Y-128806201D01*
X84154185Y-128816356D01*
X84151363Y-128818240D01*
X84175136Y-128861776D01*
X84177970Y-128888134D01*
X84177970Y-131288157D01*
X84177970Y-131347843D01*
X84200811Y-131402985D01*
X84200812Y-131402986D01*
X84279304Y-131481478D01*
X84312789Y-131542801D01*
X84307805Y-131612493D01*
X84265933Y-131668426D01*
X84200469Y-131692843D01*
X84167432Y-131690776D01*
X84062022Y-131669809D01*
X84062683Y-131666482D01*
X84015089Y-131652507D01*
X83994447Y-131635873D01*
X82888749Y-130530175D01*
X82855264Y-130468852D01*
X82852430Y-130442494D01*
X82852430Y-128888134D01*
X82872115Y-128821095D01*
X82877579Y-128814313D01*
X82882997Y-128806203D01*
X82883001Y-128806201D01*
X82938366Y-128723340D01*
X82957808Y-128625600D01*
X82957808Y-128625597D01*
X82938366Y-128527861D01*
X82938366Y-128527860D01*
X82883001Y-128444999D01*
X82800140Y-128389634D01*
X82800139Y-128389633D01*
X82800138Y-128389633D01*
X82702402Y-128370192D01*
X82702398Y-128370192D01*
X82604661Y-128389633D01*
X82521799Y-128444999D01*
X82466433Y-128527861D01*
X82446992Y-128625597D01*
X82446992Y-128625602D01*
X82466433Y-128723338D01*
X82466433Y-128723339D01*
X82466434Y-128723340D01*
X82521799Y-128806201D01*
X82521800Y-128806201D01*
X82528585Y-128816356D01*
X82525763Y-128818240D01*
X82549536Y-128861776D01*
X82552370Y-128888134D01*
X82552370Y-130585845D01*
X82575405Y-130641455D01*
X82582874Y-130710924D01*
X82551599Y-130773404D01*
X82491510Y-130809056D01*
X82421685Y-130806563D01*
X82373163Y-130776589D01*
X81313949Y-129717375D01*
X81280464Y-129656052D01*
X81277630Y-129629694D01*
X81277630Y-128888134D01*
X81297315Y-128821095D01*
X81302779Y-128814313D01*
X81308197Y-128806203D01*
X81308201Y-128806201D01*
X81363566Y-128723340D01*
X81383008Y-128625600D01*
X81383008Y-128625597D01*
X81363566Y-128527861D01*
X81363566Y-128527860D01*
X81308201Y-128444999D01*
X81225340Y-128389634D01*
X81225339Y-128389633D01*
X81225338Y-128389633D01*
X81127602Y-128370192D01*
X81127598Y-128370192D01*
X81029861Y-128389633D01*
X80946999Y-128444999D01*
X80891633Y-128527861D01*
X80872192Y-128625597D01*
X80872192Y-128625602D01*
X80891633Y-128723338D01*
X80891633Y-128723339D01*
X80891634Y-128723340D01*
X80946999Y-128806201D01*
X80947000Y-128806201D01*
X80953785Y-128816356D01*
X80950963Y-128818240D01*
X80974736Y-128861776D01*
X80977570Y-128888134D01*
X80977570Y-129773043D01*
X81000605Y-129828653D01*
X81008074Y-129898123D01*
X80976800Y-129960602D01*
X80916711Y-129996255D01*
X80846886Y-129993762D01*
X80798363Y-129963788D01*
X80594469Y-129759894D01*
X80560984Y-129698571D01*
X80558150Y-129672213D01*
X80558150Y-110490000D01*
X82819884Y-110490000D01*
X82839100Y-110685111D01*
X82896013Y-110872727D01*
X82961395Y-110995049D01*
X83451700Y-110504745D01*
X83451700Y-110538488D01*
X83476799Y-110632158D01*
X83525287Y-110716141D01*
X83593859Y-110784713D01*
X83677842Y-110833201D01*
X83771512Y-110858300D01*
X83805252Y-110858300D01*
X83314948Y-111348604D01*
X83437267Y-111413985D01*
X83624888Y-111470899D01*
X83820000Y-111490115D01*
X84015111Y-111470899D01*
X84202732Y-111413985D01*
X84375629Y-111321569D01*
X84380698Y-111318183D01*
X84381811Y-111319849D01*
X84437643Y-111296125D01*
X84506513Y-111307904D01*
X84558082Y-111355047D01*
X84575977Y-111422586D01*
X84566582Y-111466741D01*
X84509537Y-111604461D01*
X84509536Y-111604465D01*
X84489059Y-111759999D01*
X84489059Y-111760000D01*
X84509536Y-111915534D01*
X84509537Y-111915538D01*
X84566582Y-112053258D01*
X84574051Y-112122727D01*
X84542776Y-112185206D01*
X84482687Y-112220858D01*
X84412861Y-112218364D01*
X84381284Y-112200939D01*
X84380698Y-112201817D01*
X84375629Y-112198430D01*
X84202732Y-112106014D01*
X84015111Y-112049100D01*
X83820000Y-112029884D01*
X83624888Y-112049100D01*
X83437270Y-112106014D01*
X83314949Y-112171394D01*
X83314949Y-112171395D01*
X83805253Y-112661700D01*
X83771512Y-112661700D01*
X83677842Y-112686799D01*
X83593859Y-112735287D01*
X83525287Y-112803859D01*
X83476799Y-112887842D01*
X83451700Y-112981512D01*
X83451700Y-113015254D01*
X82961395Y-112524949D01*
X82961394Y-112524949D01*
X82896014Y-112647270D01*
X82839100Y-112834888D01*
X82819884Y-113030000D01*
X82839100Y-113225111D01*
X82896013Y-113412727D01*
X82961395Y-113535049D01*
X83451700Y-113044745D01*
X83451700Y-113078488D01*
X83476799Y-113172158D01*
X83525287Y-113256141D01*
X83593859Y-113324713D01*
X83677842Y-113373201D01*
X83771512Y-113398300D01*
X83805253Y-113398300D01*
X83314948Y-113888604D01*
X83437267Y-113953985D01*
X83624888Y-114010899D01*
X83820000Y-114030115D01*
X84015111Y-114010899D01*
X84202730Y-113953985D01*
X84325050Y-113888603D01*
X83834748Y-113398300D01*
X83868488Y-113398300D01*
X83962158Y-113373201D01*
X84046141Y-113324713D01*
X84114713Y-113256141D01*
X84163201Y-113172158D01*
X84188300Y-113078488D01*
X84188300Y-113044746D01*
X84678603Y-113535049D01*
X84743985Y-113412730D01*
X84800899Y-113225111D01*
X84820115Y-113030000D01*
X84800899Y-112834888D01*
X84743985Y-112647267D01*
X84651569Y-112474370D01*
X84648183Y-112469302D01*
X84649845Y-112468191D01*
X84626122Y-112412331D01*
X84637915Y-112343463D01*
X84685068Y-112291904D01*
X84752611Y-112274023D01*
X84796738Y-112283416D01*
X84934465Y-112340464D01*
X85071904Y-112358558D01*
X85089999Y-112360941D01*
X85090000Y-112360941D01*
X85090001Y-112360941D01*
X85106209Y-112358806D01*
X85245535Y-112340464D01*
X85383260Y-112283416D01*
X85452726Y-112275948D01*
X85515206Y-112307223D01*
X85550858Y-112367312D01*
X85548364Y-112437137D01*
X85530942Y-112468717D01*
X85531817Y-112469302D01*
X85528430Y-112474370D01*
X85436014Y-112647267D01*
X85379100Y-112834888D01*
X85359884Y-113030000D01*
X85379100Y-113225111D01*
X85436013Y-113412727D01*
X85501395Y-113535049D01*
X85991700Y-113044745D01*
X85991700Y-113078488D01*
X86016799Y-113172158D01*
X86065287Y-113256141D01*
X86133859Y-113324713D01*
X86217842Y-113373201D01*
X86311512Y-113398300D01*
X86345253Y-113398300D01*
X85854948Y-113888604D01*
X85977267Y-113953985D01*
X86164888Y-114010899D01*
X86360000Y-114030115D01*
X86555111Y-114010899D01*
X86742730Y-113953985D01*
X86865050Y-113888603D01*
X86374748Y-113398300D01*
X86408488Y-113398300D01*
X86502158Y-113373201D01*
X86586141Y-113324713D01*
X86654713Y-113256141D01*
X86703201Y-113172158D01*
X86728300Y-113078488D01*
X86728300Y-113044747D01*
X87218603Y-113535050D01*
X87283985Y-113412730D01*
X87340899Y-113225111D01*
X87360115Y-113030000D01*
X87340899Y-112834888D01*
X87283985Y-112647267D01*
X87218604Y-112524948D01*
X86728300Y-113015252D01*
X86728300Y-112981512D01*
X86703201Y-112887842D01*
X86654713Y-112803859D01*
X86586141Y-112735287D01*
X86502158Y-112686799D01*
X86408488Y-112661700D01*
X86374747Y-112661700D01*
X86865049Y-112171395D01*
X86742727Y-112106013D01*
X86555111Y-112049100D01*
X86360000Y-112029884D01*
X86164888Y-112049100D01*
X85977267Y-112106014D01*
X85804370Y-112198430D01*
X85799302Y-112201817D01*
X85798194Y-112200159D01*
X85742300Y-112223880D01*
X85673436Y-112212071D01*
X85621888Y-112164905D01*
X85604023Y-112097358D01*
X85613415Y-112053262D01*
X85670464Y-111915535D01*
X85690941Y-111760000D01*
X85670464Y-111604465D01*
X85613416Y-111466741D01*
X85605948Y-111397272D01*
X85637223Y-111334793D01*
X85697312Y-111299141D01*
X85767137Y-111301635D01*
X85798715Y-111319060D01*
X85799302Y-111318183D01*
X85804370Y-111321569D01*
X85977267Y-111413985D01*
X86164888Y-111470899D01*
X86360000Y-111490115D01*
X86555111Y-111470899D01*
X86742730Y-111413985D01*
X86865050Y-111348603D01*
X86374747Y-110858300D01*
X86408488Y-110858300D01*
X86502158Y-110833201D01*
X86586141Y-110784713D01*
X86654713Y-110716141D01*
X86703201Y-110632158D01*
X86728300Y-110538488D01*
X86728300Y-110504747D01*
X87218603Y-110995050D01*
X87283985Y-110872730D01*
X87340899Y-110685111D01*
X87360115Y-110490000D01*
X87340899Y-110294888D01*
X87283985Y-110107267D01*
X87218604Y-109984948D01*
X86728300Y-110475252D01*
X86728300Y-110441512D01*
X86703201Y-110347842D01*
X86654713Y-110263859D01*
X86586141Y-110195287D01*
X86502158Y-110146799D01*
X86408488Y-110121700D01*
X86374747Y-110121700D01*
X86865049Y-109631395D01*
X86742727Y-109566013D01*
X86555111Y-109509100D01*
X86360000Y-109489884D01*
X86164888Y-109509100D01*
X85977270Y-109566014D01*
X85854949Y-109631394D01*
X85854949Y-109631395D01*
X86345254Y-110121700D01*
X86311512Y-110121700D01*
X86217842Y-110146799D01*
X86133859Y-110195287D01*
X86065287Y-110263859D01*
X86016799Y-110347842D01*
X85991700Y-110441512D01*
X85991700Y-110475253D01*
X85501395Y-109984949D01*
X85501394Y-109984949D01*
X85436014Y-110107270D01*
X85379100Y-110294888D01*
X85359884Y-110490000D01*
X85379100Y-110685111D01*
X85436014Y-110872732D01*
X85528430Y-111045629D01*
X85531817Y-111050698D01*
X85530154Y-111051808D01*
X85553877Y-111107674D01*
X85542082Y-111176541D01*
X85494926Y-111228098D01*
X85427383Y-111245976D01*
X85383258Y-111236582D01*
X85245538Y-111179537D01*
X85245536Y-111179536D01*
X85245535Y-111179536D01*
X85167767Y-111169297D01*
X85090001Y-111159059D01*
X85089999Y-111159059D01*
X84934465Y-111179536D01*
X84934461Y-111179537D01*
X84796741Y-111236582D01*
X84727272Y-111244051D01*
X84664793Y-111212775D01*
X84629141Y-111152686D01*
X84631635Y-111082861D01*
X84649063Y-111051286D01*
X84648183Y-111050698D01*
X84651569Y-111045629D01*
X84743985Y-110872732D01*
X84800899Y-110685111D01*
X84820115Y-110490000D01*
X84800899Y-110294888D01*
X84743985Y-110107267D01*
X84678604Y-109984948D01*
X84188300Y-110475252D01*
X84188300Y-110441512D01*
X84163201Y-110347842D01*
X84114713Y-110263859D01*
X84046141Y-110195287D01*
X83962158Y-110146799D01*
X83868488Y-110121700D01*
X83834747Y-110121700D01*
X84325049Y-109631395D01*
X84202727Y-109566013D01*
X84015111Y-109509100D01*
X83820000Y-109489884D01*
X83624888Y-109509100D01*
X83437270Y-109566014D01*
X83314949Y-109631394D01*
X83314949Y-109631395D01*
X83805254Y-110121700D01*
X83771512Y-110121700D01*
X83677842Y-110146799D01*
X83593859Y-110195287D01*
X83525287Y-110263859D01*
X83476799Y-110347842D01*
X83451700Y-110441512D01*
X83451700Y-110475254D01*
X82961395Y-109984949D01*
X82961394Y-109984949D01*
X82896014Y-110107270D01*
X82839100Y-110294888D01*
X82819884Y-110490000D01*
X80558150Y-110490000D01*
X80558150Y-102870000D01*
X82819884Y-102870000D01*
X82839100Y-103065111D01*
X82896013Y-103252727D01*
X82961395Y-103375049D01*
X83451700Y-102884745D01*
X83451700Y-102918488D01*
X83476799Y-103012158D01*
X83525287Y-103096141D01*
X83593859Y-103164713D01*
X83677842Y-103213201D01*
X83771512Y-103238300D01*
X83805252Y-103238300D01*
X83314948Y-103728604D01*
X83437267Y-103793985D01*
X83624888Y-103850899D01*
X83820000Y-103870115D01*
X84015111Y-103850899D01*
X84202732Y-103793985D01*
X84375629Y-103701569D01*
X84380698Y-103698183D01*
X84381811Y-103699849D01*
X84437643Y-103676125D01*
X84506513Y-103687904D01*
X84558082Y-103735047D01*
X84575977Y-103802586D01*
X84566582Y-103846741D01*
X84509537Y-103984461D01*
X84509536Y-103984465D01*
X84489059Y-104139999D01*
X84489059Y-104140000D01*
X84509536Y-104295534D01*
X84509537Y-104295538D01*
X84566582Y-104433258D01*
X84574051Y-104502727D01*
X84542776Y-104565206D01*
X84482687Y-104600858D01*
X84412861Y-104598364D01*
X84381284Y-104580939D01*
X84380698Y-104581817D01*
X84375629Y-104578430D01*
X84202732Y-104486014D01*
X84015111Y-104429100D01*
X83820000Y-104409884D01*
X83624888Y-104429100D01*
X83437270Y-104486014D01*
X83314949Y-104551394D01*
X83314949Y-104551395D01*
X83805253Y-105041700D01*
X83771512Y-105041700D01*
X83677842Y-105066799D01*
X83593859Y-105115287D01*
X83525287Y-105183859D01*
X83476799Y-105267842D01*
X83451700Y-105361512D01*
X83451700Y-105395254D01*
X82961395Y-104904949D01*
X82961394Y-104904949D01*
X82896014Y-105027270D01*
X82839100Y-105214888D01*
X82819884Y-105410000D01*
X82839100Y-105605111D01*
X82896013Y-105792727D01*
X82961395Y-105915049D01*
X83451700Y-105424745D01*
X83451700Y-105458488D01*
X83476799Y-105552158D01*
X83525287Y-105636141D01*
X83593859Y-105704713D01*
X83677842Y-105753201D01*
X83771512Y-105778300D01*
X83805253Y-105778300D01*
X83314948Y-106268604D01*
X83437267Y-106333985D01*
X83624888Y-106390899D01*
X83820000Y-106410115D01*
X84015111Y-106390899D01*
X84202730Y-106333985D01*
X84325050Y-106268603D01*
X83834748Y-105778300D01*
X83868488Y-105778300D01*
X83962158Y-105753201D01*
X84046141Y-105704713D01*
X84114713Y-105636141D01*
X84163201Y-105552158D01*
X84188300Y-105458488D01*
X84188300Y-105424746D01*
X84678603Y-105915049D01*
X84743985Y-105792730D01*
X84800899Y-105605111D01*
X84820115Y-105410000D01*
X84800899Y-105214888D01*
X84743985Y-105027267D01*
X84651569Y-104854370D01*
X84648183Y-104849302D01*
X84649845Y-104848191D01*
X84626122Y-104792331D01*
X84637915Y-104723463D01*
X84685068Y-104671904D01*
X84752611Y-104654023D01*
X84796738Y-104663416D01*
X84934465Y-104720464D01*
X85071904Y-104738558D01*
X85089999Y-104740941D01*
X85090000Y-104740941D01*
X85090001Y-104740941D01*
X85106209Y-104738806D01*
X85245535Y-104720464D01*
X85383260Y-104663416D01*
X85452726Y-104655948D01*
X85515206Y-104687223D01*
X85550858Y-104747312D01*
X85548364Y-104817137D01*
X85530942Y-104848717D01*
X85531817Y-104849302D01*
X85528430Y-104854370D01*
X85436014Y-105027267D01*
X85379100Y-105214888D01*
X85359884Y-105410000D01*
X85379100Y-105605111D01*
X85436013Y-105792727D01*
X85501395Y-105915049D01*
X85991700Y-105424745D01*
X85991700Y-105458488D01*
X86016799Y-105552158D01*
X86065287Y-105636141D01*
X86133859Y-105704713D01*
X86217842Y-105753201D01*
X86311512Y-105778300D01*
X86345253Y-105778300D01*
X85854948Y-106268604D01*
X85977267Y-106333985D01*
X86164888Y-106390899D01*
X86360000Y-106410115D01*
X86555111Y-106390899D01*
X86742730Y-106333985D01*
X86865050Y-106268603D01*
X86374748Y-105778300D01*
X86408488Y-105778300D01*
X86502158Y-105753201D01*
X86586141Y-105704713D01*
X86654713Y-105636141D01*
X86703201Y-105552158D01*
X86728300Y-105458488D01*
X86728300Y-105424747D01*
X87218603Y-105915050D01*
X87283985Y-105792730D01*
X87340899Y-105605111D01*
X87360115Y-105410000D01*
X87340899Y-105214888D01*
X87283985Y-105027267D01*
X87218604Y-104904948D01*
X86728300Y-105395252D01*
X86728300Y-105361512D01*
X86703201Y-105267842D01*
X86654713Y-105183859D01*
X86586141Y-105115287D01*
X86502158Y-105066799D01*
X86408488Y-105041700D01*
X86374747Y-105041700D01*
X86865049Y-104551395D01*
X86742727Y-104486013D01*
X86555111Y-104429100D01*
X86360000Y-104409884D01*
X86164888Y-104429100D01*
X85977267Y-104486014D01*
X85804370Y-104578430D01*
X85799302Y-104581817D01*
X85798194Y-104580159D01*
X85742300Y-104603880D01*
X85673436Y-104592071D01*
X85621888Y-104544905D01*
X85604023Y-104477358D01*
X85613415Y-104433262D01*
X85670464Y-104295535D01*
X85690941Y-104140000D01*
X85670464Y-103984465D01*
X85613416Y-103846741D01*
X85605948Y-103777272D01*
X85637223Y-103714793D01*
X85697312Y-103679141D01*
X85767137Y-103681635D01*
X85798715Y-103699060D01*
X85799302Y-103698183D01*
X85804370Y-103701569D01*
X85977267Y-103793985D01*
X86164888Y-103850899D01*
X86360000Y-103870115D01*
X86555111Y-103850899D01*
X86742730Y-103793985D01*
X86865050Y-103728603D01*
X86374747Y-103238300D01*
X86408488Y-103238300D01*
X86502158Y-103213201D01*
X86586141Y-103164713D01*
X86654713Y-103096141D01*
X86703201Y-103012158D01*
X86728300Y-102918488D01*
X86728300Y-102884747D01*
X87218603Y-103375050D01*
X87283985Y-103252730D01*
X87340899Y-103065111D01*
X87360115Y-102870000D01*
X87340899Y-102674888D01*
X87283985Y-102487267D01*
X87218604Y-102364948D01*
X86728300Y-102855252D01*
X86728300Y-102821512D01*
X86703201Y-102727842D01*
X86654713Y-102643859D01*
X86586141Y-102575287D01*
X86502158Y-102526799D01*
X86408488Y-102501700D01*
X86374747Y-102501700D01*
X86865049Y-102011395D01*
X86742727Y-101946013D01*
X86555111Y-101889100D01*
X86360000Y-101869884D01*
X86164888Y-101889100D01*
X85977270Y-101946014D01*
X85854949Y-102011394D01*
X85854949Y-102011395D01*
X86345254Y-102501700D01*
X86311512Y-102501700D01*
X86217842Y-102526799D01*
X86133859Y-102575287D01*
X86065287Y-102643859D01*
X86016799Y-102727842D01*
X85991700Y-102821512D01*
X85991700Y-102855253D01*
X85501395Y-102364949D01*
X85501394Y-102364949D01*
X85436014Y-102487270D01*
X85379100Y-102674888D01*
X85359884Y-102870000D01*
X85379100Y-103065111D01*
X85436014Y-103252732D01*
X85528430Y-103425629D01*
X85531817Y-103430698D01*
X85530154Y-103431808D01*
X85553877Y-103487674D01*
X85542082Y-103556541D01*
X85494926Y-103608098D01*
X85427383Y-103625976D01*
X85383258Y-103616582D01*
X85245538Y-103559537D01*
X85245536Y-103559536D01*
X85245535Y-103559536D01*
X85167767Y-103549297D01*
X85090001Y-103539059D01*
X85089999Y-103539059D01*
X84934465Y-103559536D01*
X84934461Y-103559537D01*
X84796741Y-103616582D01*
X84727272Y-103624051D01*
X84664793Y-103592775D01*
X84629141Y-103532686D01*
X84631635Y-103462861D01*
X84649063Y-103431286D01*
X84648183Y-103430698D01*
X84651569Y-103425629D01*
X84743985Y-103252732D01*
X84800899Y-103065111D01*
X84820115Y-102870000D01*
X84800899Y-102674888D01*
X84743985Y-102487267D01*
X84678604Y-102364948D01*
X84188300Y-102855252D01*
X84188300Y-102821512D01*
X84163201Y-102727842D01*
X84114713Y-102643859D01*
X84046141Y-102575287D01*
X83962158Y-102526799D01*
X83868488Y-102501700D01*
X83834747Y-102501700D01*
X84325049Y-102011395D01*
X84202727Y-101946013D01*
X84015111Y-101889100D01*
X83820000Y-101869884D01*
X83624888Y-101889100D01*
X83437270Y-101946014D01*
X83314949Y-102011394D01*
X83314949Y-102011395D01*
X83805254Y-102501700D01*
X83771512Y-102501700D01*
X83677842Y-102526799D01*
X83593859Y-102575287D01*
X83525287Y-102643859D01*
X83476799Y-102727842D01*
X83451700Y-102821512D01*
X83451700Y-102855254D01*
X82961395Y-102364949D01*
X82961394Y-102364949D01*
X82896014Y-102487270D01*
X82839100Y-102674888D01*
X82819884Y-102870000D01*
X80558150Y-102870000D01*
X80558150Y-102055785D01*
X80577835Y-101988746D01*
X80594464Y-101968109D01*
X83180846Y-99381726D01*
X83242169Y-99348242D01*
X83250841Y-99347309D01*
X83260398Y-99345407D01*
X83260400Y-99345408D01*
X83358140Y-99325966D01*
X83441001Y-99270601D01*
X83496366Y-99187740D01*
X83510841Y-99114969D01*
X83515808Y-99090002D01*
X83515808Y-99089997D01*
X83498465Y-99002811D01*
X83496366Y-98992260D01*
X83441001Y-98909399D01*
X83358140Y-98854034D01*
X83358139Y-98854033D01*
X83358138Y-98854033D01*
X83260402Y-98834592D01*
X83260398Y-98834592D01*
X83162661Y-98854033D01*
X83079799Y-98909399D01*
X83024433Y-98992261D01*
X83002609Y-99101978D01*
X82999282Y-99101316D01*
X82985307Y-99148910D01*
X82968673Y-99169552D01*
X80570771Y-101567454D01*
X80509448Y-101600939D01*
X80439756Y-101595955D01*
X80383823Y-101554083D01*
X80359406Y-101488619D01*
X80359090Y-101479773D01*
X80359090Y-100888436D01*
X80378775Y-100821397D01*
X80395409Y-100800755D01*
X82859025Y-98337139D01*
X82920348Y-98303654D01*
X82946706Y-98300820D01*
X82997865Y-98300820D01*
X83064904Y-98320505D01*
X83071687Y-98325971D01*
X83079799Y-98331391D01*
X83162660Y-98386756D01*
X83195240Y-98393236D01*
X83260398Y-98406198D01*
X83260400Y-98406198D01*
X83260402Y-98406198D01*
X83311663Y-98396001D01*
X83358140Y-98386756D01*
X83441001Y-98331391D01*
X83496366Y-98248530D01*
X83515808Y-98150790D01*
X83515808Y-98150787D01*
X83496366Y-98053051D01*
X83496366Y-98053050D01*
X83441001Y-97970189D01*
X83358140Y-97914824D01*
X83358139Y-97914823D01*
X83358138Y-97914823D01*
X83260402Y-97895382D01*
X83260398Y-97895382D01*
X83182945Y-97910788D01*
X83113353Y-97904561D01*
X83058176Y-97861697D01*
X83034932Y-97795808D01*
X83051000Y-97727811D01*
X83071066Y-97701497D01*
X83180849Y-97591714D01*
X83242170Y-97558232D01*
X83250842Y-97557299D01*
X83260399Y-97555397D01*
X83260400Y-97555398D01*
X83358140Y-97535956D01*
X83441001Y-97480591D01*
X83496366Y-97397730D01*
X83510752Y-97325407D01*
X83515808Y-97299992D01*
X83515808Y-97299987D01*
X83496366Y-97202251D01*
X83496366Y-97202250D01*
X83441001Y-97119389D01*
X83358140Y-97064024D01*
X83358139Y-97064023D01*
X83358138Y-97064023D01*
X83260402Y-97044582D01*
X83260401Y-97044582D01*
X83260400Y-97044582D01*
X83246344Y-97047378D01*
X83176752Y-97041149D01*
X83121576Y-96998286D01*
X83098332Y-96932396D01*
X83114401Y-96864399D01*
X83134470Y-96838082D01*
X83180847Y-96791705D01*
X83242170Y-96758222D01*
X83250840Y-96757289D01*
X83260398Y-96755387D01*
X83260400Y-96755388D01*
X83358140Y-96735946D01*
X83441001Y-96680581D01*
X83496366Y-96597720D01*
X83509632Y-96531028D01*
X83515808Y-96499982D01*
X83515808Y-96499977D01*
X83496366Y-96402241D01*
X83496366Y-96402240D01*
X83441001Y-96319379D01*
X83358140Y-96264014D01*
X83358139Y-96264013D01*
X83358138Y-96264013D01*
X83273238Y-96247125D01*
X83211327Y-96214740D01*
X83176753Y-96154024D01*
X83180494Y-96084254D01*
X83221360Y-96027583D01*
X83273235Y-96003892D01*
X83363405Y-95985956D01*
X83446266Y-95930591D01*
X83501631Y-95847730D01*
X83515184Y-95779595D01*
X83521073Y-95749992D01*
X83521073Y-95749987D01*
X83501631Y-95652251D01*
X83501631Y-95652250D01*
X83446266Y-95569389D01*
X83363405Y-95514024D01*
X83363404Y-95514023D01*
X83363403Y-95514023D01*
X83265667Y-95494582D01*
X83265663Y-95494582D01*
X83189196Y-95509792D01*
X83119604Y-95503565D01*
X83064427Y-95460702D01*
X83041183Y-95394812D01*
X83057251Y-95326815D01*
X83077317Y-95300501D01*
X83186114Y-95191704D01*
X83247435Y-95158222D01*
X83256107Y-95157289D01*
X83265664Y-95155387D01*
X83265665Y-95155388D01*
X83363405Y-95135946D01*
X83446266Y-95080581D01*
X83501631Y-94997720D01*
X83517188Y-94919510D01*
X83521073Y-94899982D01*
X83521073Y-94899977D01*
X83501631Y-94802241D01*
X83501631Y-94802240D01*
X83446266Y-94719379D01*
X83363405Y-94664014D01*
X83363404Y-94664013D01*
X83363403Y-94664013D01*
X83265667Y-94644572D01*
X83265663Y-94644572D01*
X83167926Y-94664013D01*
X83085064Y-94719379D01*
X83029698Y-94802241D01*
X83007874Y-94911958D01*
X83004546Y-94911296D01*
X82990572Y-94958889D01*
X82973938Y-94979531D01*
X79027835Y-98925636D01*
X79027834Y-98925637D01*
X78985632Y-98967838D01*
X78985631Y-98967839D01*
X78985631Y-98967840D01*
X78978942Y-98983987D01*
X78962790Y-99022981D01*
X78962790Y-99031296D01*
X78943105Y-99098335D01*
X78890301Y-99144090D01*
X78821143Y-99154034D01*
X78757587Y-99125009D01*
X78751109Y-99118977D01*
X74621727Y-94989595D01*
X74588242Y-94928272D01*
X74587299Y-94919510D01*
X74585407Y-94910001D01*
X74585408Y-94910000D01*
X74565966Y-94812260D01*
X74510601Y-94729399D01*
X74427740Y-94674034D01*
X74427739Y-94674033D01*
X74427738Y-94674033D01*
X74330002Y-94654592D01*
X74329998Y-94654592D01*
X74232261Y-94674033D01*
X74149399Y-94729399D01*
X74094033Y-94812261D01*
X74074592Y-94909997D01*
X74074592Y-94910002D01*
X74094033Y-95007738D01*
X74094033Y-95007739D01*
X74094034Y-95007740D01*
X74149399Y-95090601D01*
X74232260Y-95145966D01*
X74279627Y-95155388D01*
X74341979Y-95167791D01*
X74341319Y-95171106D01*
X74388953Y-95185093D01*
X74409595Y-95201727D01*
X74443804Y-95235936D01*
X74477289Y-95297259D01*
X74472305Y-95366951D01*
X74430433Y-95422884D01*
X74364969Y-95447301D01*
X74331935Y-95445235D01*
X74328702Y-95444592D01*
X74328698Y-95444592D01*
X74230961Y-95464033D01*
X74148099Y-95519399D01*
X74092733Y-95602261D01*
X74073292Y-95699997D01*
X74073292Y-95700002D01*
X74092733Y-95797738D01*
X74092733Y-95797739D01*
X74092734Y-95797740D01*
X74148099Y-95880601D01*
X74230960Y-95935966D01*
X74286884Y-95947090D01*
X74340679Y-95957791D01*
X74340019Y-95961106D01*
X74387653Y-95975093D01*
X74408295Y-95991727D01*
X74470641Y-96054073D01*
X74504126Y-96115396D01*
X74499142Y-96185088D01*
X74457270Y-96241021D01*
X74391806Y-96265438D01*
X74358771Y-96263372D01*
X74328700Y-96257391D01*
X74328698Y-96257391D01*
X74230961Y-96276832D01*
X74148099Y-96332198D01*
X74092733Y-96415060D01*
X74073292Y-96512796D01*
X74073292Y-96512801D01*
X74092733Y-96610537D01*
X74092733Y-96610538D01*
X74092734Y-96610539D01*
X74148099Y-96693400D01*
X74230960Y-96748765D01*
X74278503Y-96758222D01*
X74340679Y-96770590D01*
X74340017Y-96773916D01*
X74387611Y-96787892D01*
X74408253Y-96804526D01*
X74468815Y-96865088D01*
X74502300Y-96926411D01*
X74497316Y-96996103D01*
X74455444Y-97052036D01*
X74389980Y-97076453D01*
X74356945Y-97074387D01*
X74334900Y-97070002D01*
X74334898Y-97070002D01*
X74334897Y-97070002D01*
X74237161Y-97089443D01*
X74154299Y-97144809D01*
X74098933Y-97227671D01*
X74079492Y-97325407D01*
X74079492Y-97325412D01*
X74098933Y-97423148D01*
X74098933Y-97423149D01*
X74098934Y-97423150D01*
X74154299Y-97506011D01*
X74237160Y-97561376D01*
X74293084Y-97572500D01*
X74346879Y-97583201D01*
X74346217Y-97586527D01*
X74393811Y-97600503D01*
X74414453Y-97617137D01*
X74476790Y-97679474D01*
X74510275Y-97740797D01*
X74505291Y-97810489D01*
X74463419Y-97866422D01*
X74397955Y-97890839D01*
X74364919Y-97888773D01*
X74348378Y-97885483D01*
X74334900Y-97882802D01*
X74334899Y-97882802D01*
X74334898Y-97882802D01*
X74237161Y-97902243D01*
X74154299Y-97957609D01*
X74098933Y-98040471D01*
X74079492Y-98138207D01*
X74079492Y-98138212D01*
X74098933Y-98235948D01*
X74098933Y-98235949D01*
X74098934Y-98235950D01*
X74154299Y-98318811D01*
X74237160Y-98374176D01*
X74293084Y-98385300D01*
X74346879Y-98396001D01*
X74346219Y-98399316D01*
X74393853Y-98413303D01*
X74414495Y-98429937D01*
X77353681Y-101369123D01*
X77387166Y-101430446D01*
X77390000Y-101456804D01*
X77390000Y-101500563D01*
X77370315Y-101567602D01*
X77317511Y-101613357D01*
X77248353Y-101623301D01*
X77184797Y-101594276D01*
X77178319Y-101588244D01*
X74592887Y-99002812D01*
X74592884Y-99002810D01*
X74559198Y-98988856D01*
X74518396Y-98955974D01*
X74516337Y-98958034D01*
X74507703Y-98949400D01*
X74447836Y-98909399D01*
X74424840Y-98894034D01*
X74424839Y-98894033D01*
X74424838Y-98894033D01*
X74327102Y-98874592D01*
X74327098Y-98874592D01*
X74229361Y-98894033D01*
X74146499Y-98949399D01*
X74091133Y-99032261D01*
X74071692Y-99129997D01*
X74071692Y-99130002D01*
X74091133Y-99227738D01*
X74091133Y-99227739D01*
X74091134Y-99227740D01*
X74146499Y-99310601D01*
X74229360Y-99365966D01*
X74261940Y-99372446D01*
X74327098Y-99385408D01*
X74327100Y-99385408D01*
X74327102Y-99385408D01*
X74436819Y-99363584D01*
X74437091Y-99364954D01*
X74493304Y-99358905D01*
X74555787Y-99390173D01*
X74558982Y-99393256D01*
X77053651Y-101887925D01*
X77087136Y-101949248D01*
X77089970Y-101975606D01*
X77089970Y-131085023D01*
X77070285Y-131152062D01*
X77053651Y-131172704D01*
X76485104Y-131741251D01*
X76423781Y-131774736D01*
X76397423Y-131777570D01*
X75294135Y-131777570D01*
X75227096Y-131757885D01*
X75220312Y-131752418D01*
X75155929Y-131709400D01*
X75129340Y-131691634D01*
X75129339Y-131691633D01*
X75129338Y-131691633D01*
X75031602Y-131672192D01*
X75031598Y-131672192D01*
X74933861Y-131691633D01*
X74850999Y-131746999D01*
X74795633Y-131829861D01*
X74776192Y-131927597D01*
X74776192Y-131927602D01*
X74795633Y-132025338D01*
X74795633Y-132025339D01*
X74795634Y-132025340D01*
X74850999Y-132108201D01*
X74933860Y-132163566D01*
X74966440Y-132170046D01*
X75031598Y-132183008D01*
X75031600Y-132183008D01*
X75031602Y-132183008D01*
X75083863Y-132172612D01*
X75129340Y-132163566D01*
X75212201Y-132108201D01*
X75212200Y-132108201D01*
X75222356Y-132101416D01*
X75224240Y-132104236D01*
X75267777Y-132080464D01*
X75294135Y-132077630D01*
X76540771Y-132077630D01*
X76540772Y-132077630D01*
X76595914Y-132054789D01*
X77178319Y-131472384D01*
X77239642Y-131438899D01*
X77309333Y-131443883D01*
X77365267Y-131485754D01*
X77389684Y-131551219D01*
X77390000Y-131560065D01*
X77390000Y-132216506D01*
X77370315Y-132283545D01*
X77353681Y-132304187D01*
X76957487Y-132700381D01*
X76896164Y-132733866D01*
X76869806Y-132736700D01*
X76113461Y-132736700D01*
X76058331Y-132759536D01*
X73629594Y-135188273D01*
X73568271Y-135221758D01*
X73559509Y-135222700D01*
X73452261Y-135244033D01*
X73369399Y-135299399D01*
X73314033Y-135382261D01*
X73294592Y-135479997D01*
X69036900Y-135479997D01*
X69036900Y-125659998D01*
X69734891Y-125659998D01*
X69734891Y-125660001D01*
X69755300Y-125945362D01*
X69816109Y-126224895D01*
X69916091Y-126492958D01*
X70053191Y-126744038D01*
X70053196Y-126744046D01*
X70159882Y-126886561D01*
X70159883Y-126886562D01*
X70841377Y-126205067D01*
X70924411Y-126329336D01*
X71070664Y-126475589D01*
X71194930Y-126558621D01*
X70513436Y-127240115D01*
X70655960Y-127346807D01*
X70655961Y-127346808D01*
X70907042Y-127483908D01*
X70907041Y-127483908D01*
X71175104Y-127583890D01*
X71454637Y-127644699D01*
X71739999Y-127665109D01*
X71740001Y-127665109D01*
X72025362Y-127644699D01*
X72304895Y-127583890D01*
X72572958Y-127483908D01*
X72824047Y-127346803D01*
X72966561Y-127240116D01*
X72966562Y-127240115D01*
X72285068Y-126558621D01*
X72409336Y-126475589D01*
X72555589Y-126329336D01*
X72638621Y-126205068D01*
X73320115Y-126886562D01*
X73320116Y-126886561D01*
X73426803Y-126744047D01*
X73563908Y-126492958D01*
X73663890Y-126224895D01*
X73724699Y-125945362D01*
X73745109Y-125660001D01*
X73745109Y-125659998D01*
X73724699Y-125374637D01*
X73663890Y-125095104D01*
X73563908Y-124827041D01*
X73426808Y-124575961D01*
X73426807Y-124575960D01*
X73320115Y-124433436D01*
X72638621Y-125114930D01*
X72555589Y-124990664D01*
X72409336Y-124844411D01*
X72285068Y-124761378D01*
X72966562Y-124079883D01*
X72966561Y-124079882D01*
X72837499Y-123983267D01*
X72795627Y-123927334D01*
X72790643Y-123857642D01*
X72824128Y-123796319D01*
X72885451Y-123762834D01*
X72911809Y-123760000D01*
X72914723Y-123760000D01*
X72914723Y-123759999D01*
X73261827Y-123719429D01*
X73261829Y-123719429D01*
X73601866Y-123638839D01*
X73601869Y-123638838D01*
X73930254Y-123519316D01*
X73930260Y-123519314D01*
X74242538Y-123362480D01*
X74534509Y-123170449D01*
X74534510Y-123170448D01*
X74677179Y-123050734D01*
X74677180Y-123050733D01*
X73966367Y-122339919D01*
X74061521Y-122266906D01*
X74246906Y-122081521D01*
X74319919Y-121986366D01*
X75033850Y-122700297D01*
X75033851Y-122700296D01*
X75042022Y-122691636D01*
X75042033Y-122691623D01*
X75250710Y-122411322D01*
X75425438Y-122108683D01*
X75425444Y-122108670D01*
X75563854Y-121787800D01*
X75664083Y-121453011D01*
X75664085Y-121453002D01*
X75724763Y-121108880D01*
X75724764Y-121108869D01*
X75745084Y-120760003D01*
X75745084Y-120759996D01*
X75724764Y-120411130D01*
X75724763Y-120411119D01*
X75664085Y-120066997D01*
X75664083Y-120066988D01*
X75563854Y-119732199D01*
X75425444Y-119411329D01*
X75425438Y-119411316D01*
X75250710Y-119108677D01*
X75042032Y-118828374D01*
X75033850Y-118819702D01*
X74319919Y-119533632D01*
X74246906Y-119438479D01*
X74061521Y-119253094D01*
X73966366Y-119180079D01*
X74677180Y-118469265D01*
X74677179Y-118469264D01*
X74534519Y-118349557D01*
X74242538Y-118157519D01*
X73930260Y-118000685D01*
X73930254Y-118000683D01*
X73601869Y-117881161D01*
X73601866Y-117881160D01*
X73261828Y-117800570D01*
X72914723Y-117760000D01*
X72565277Y-117760000D01*
X72218172Y-117800570D01*
X72218170Y-117800570D01*
X71878133Y-117881160D01*
X71878130Y-117881161D01*
X71549745Y-118000683D01*
X71549739Y-118000685D01*
X71237461Y-118157519D01*
X70945480Y-118349557D01*
X70802819Y-118469264D01*
X70802818Y-118469265D01*
X71513633Y-119180079D01*
X71418479Y-119253094D01*
X71233094Y-119438479D01*
X71160080Y-119533633D01*
X70446148Y-118819701D01*
X70446147Y-118819702D01*
X70437976Y-118828363D01*
X70437972Y-118828368D01*
X70229289Y-119108677D01*
X70054561Y-119411316D01*
X70054555Y-119411329D01*
X69916145Y-119732199D01*
X69815916Y-120066988D01*
X69815914Y-120066997D01*
X69755236Y-120411119D01*
X69755235Y-120411130D01*
X69734916Y-120759996D01*
X69734916Y-120760003D01*
X69755235Y-121108869D01*
X69755236Y-121108880D01*
X69815914Y-121453002D01*
X69815916Y-121453011D01*
X69916145Y-121787800D01*
X70054555Y-122108670D01*
X70054561Y-122108683D01*
X70229289Y-122411322D01*
X70437967Y-122691625D01*
X70446148Y-122700296D01*
X71160078Y-121986365D01*
X71233094Y-122081521D01*
X71418479Y-122266906D01*
X71513632Y-122339919D01*
X70802818Y-123050733D01*
X70802819Y-123050734D01*
X70945484Y-123170445D01*
X71237461Y-123362480D01*
X71424273Y-123456302D01*
X71475348Y-123503980D01*
X71492537Y-123571702D01*
X71470384Y-123637967D01*
X71415923Y-123681736D01*
X71394980Y-123688278D01*
X71175104Y-123736109D01*
X70907041Y-123836091D01*
X70655961Y-123973191D01*
X70655953Y-123973196D01*
X70513437Y-124079882D01*
X70513436Y-124079883D01*
X71194931Y-124761378D01*
X71070664Y-124844411D01*
X70924411Y-124990664D01*
X70841378Y-125114931D01*
X70159883Y-124433436D01*
X70159882Y-124433437D01*
X70053196Y-124575953D01*
X70053191Y-124575961D01*
X69916091Y-124827041D01*
X69816109Y-125095104D01*
X69755300Y-125374637D01*
X69734891Y-125659998D01*
X69036900Y-125659998D01*
X69036900Y-110490000D01*
X70119884Y-110490000D01*
X70139100Y-110685111D01*
X70196013Y-110872727D01*
X70261395Y-110995049D01*
X70751700Y-110504745D01*
X70751700Y-110538488D01*
X70776799Y-110632158D01*
X70825287Y-110716141D01*
X70893859Y-110784713D01*
X70977842Y-110833201D01*
X71071512Y-110858300D01*
X71105252Y-110858300D01*
X70614948Y-111348604D01*
X70737267Y-111413985D01*
X70924888Y-111470899D01*
X71120000Y-111490115D01*
X71315111Y-111470899D01*
X71502732Y-111413985D01*
X71675629Y-111321569D01*
X71680698Y-111318183D01*
X71681811Y-111319849D01*
X71737643Y-111296125D01*
X71806513Y-111307904D01*
X71858082Y-111355047D01*
X71875977Y-111422586D01*
X71866582Y-111466741D01*
X71809537Y-111604461D01*
X71809536Y-111604465D01*
X71789059Y-111759999D01*
X71789059Y-111760000D01*
X71809536Y-111915534D01*
X71809537Y-111915538D01*
X71866582Y-112053258D01*
X71874051Y-112122727D01*
X71842776Y-112185206D01*
X71782687Y-112220858D01*
X71712861Y-112218364D01*
X71681284Y-112200939D01*
X71680698Y-112201817D01*
X71675629Y-112198430D01*
X71502732Y-112106014D01*
X71315111Y-112049100D01*
X71120000Y-112029884D01*
X70924888Y-112049100D01*
X70737270Y-112106014D01*
X70614949Y-112171394D01*
X70614949Y-112171395D01*
X71105253Y-112661700D01*
X71071512Y-112661700D01*
X70977842Y-112686799D01*
X70893859Y-112735287D01*
X70825287Y-112803859D01*
X70776799Y-112887842D01*
X70751700Y-112981512D01*
X70751700Y-113015254D01*
X70261395Y-112524949D01*
X70261394Y-112524949D01*
X70196014Y-112647270D01*
X70139100Y-112834888D01*
X70119884Y-113030000D01*
X70139100Y-113225111D01*
X70196013Y-113412727D01*
X70261395Y-113535049D01*
X70751700Y-113044745D01*
X70751700Y-113078488D01*
X70776799Y-113172158D01*
X70825287Y-113256141D01*
X70893859Y-113324713D01*
X70977842Y-113373201D01*
X71071512Y-113398300D01*
X71105253Y-113398300D01*
X70614948Y-113888604D01*
X70737267Y-113953985D01*
X70924888Y-114010899D01*
X71120000Y-114030115D01*
X71315111Y-114010899D01*
X71502730Y-113953985D01*
X71625050Y-113888603D01*
X71134748Y-113398300D01*
X71168488Y-113398300D01*
X71262158Y-113373201D01*
X71346141Y-113324713D01*
X71414713Y-113256141D01*
X71463201Y-113172158D01*
X71488300Y-113078488D01*
X71488300Y-113044746D01*
X71978603Y-113535049D01*
X72043985Y-113412730D01*
X72100899Y-113225111D01*
X72120115Y-113030000D01*
X72100899Y-112834888D01*
X72043985Y-112647267D01*
X71951569Y-112474370D01*
X71948183Y-112469302D01*
X71949845Y-112468191D01*
X71926122Y-112412331D01*
X71937915Y-112343463D01*
X71985068Y-112291904D01*
X72052611Y-112274023D01*
X72096738Y-112283416D01*
X72234465Y-112340464D01*
X72371904Y-112358558D01*
X72389999Y-112360941D01*
X72390000Y-112360941D01*
X72390001Y-112360941D01*
X72406209Y-112358806D01*
X72545535Y-112340464D01*
X72683260Y-112283416D01*
X72752726Y-112275948D01*
X72815206Y-112307223D01*
X72850858Y-112367312D01*
X72848364Y-112437137D01*
X72830942Y-112468717D01*
X72831817Y-112469302D01*
X72828430Y-112474370D01*
X72736014Y-112647267D01*
X72679100Y-112834888D01*
X72659884Y-113030000D01*
X72679100Y-113225111D01*
X72736013Y-113412727D01*
X72801395Y-113535049D01*
X73291700Y-113044745D01*
X73291700Y-113078488D01*
X73316799Y-113172158D01*
X73365287Y-113256141D01*
X73433859Y-113324713D01*
X73517842Y-113373201D01*
X73611512Y-113398300D01*
X73645253Y-113398300D01*
X73154948Y-113888604D01*
X73277267Y-113953985D01*
X73464888Y-114010899D01*
X73660000Y-114030115D01*
X73855111Y-114010899D01*
X74042730Y-113953985D01*
X74165050Y-113888603D01*
X73674748Y-113398300D01*
X73708488Y-113398300D01*
X73802158Y-113373201D01*
X73886141Y-113324713D01*
X73954713Y-113256141D01*
X74003201Y-113172158D01*
X74028300Y-113078488D01*
X74028300Y-113044747D01*
X74518603Y-113535050D01*
X74583985Y-113412730D01*
X74640899Y-113225111D01*
X74660115Y-113030000D01*
X74640899Y-112834888D01*
X74583985Y-112647267D01*
X74518604Y-112524948D01*
X74028300Y-113015252D01*
X74028300Y-112981512D01*
X74003201Y-112887842D01*
X73954713Y-112803859D01*
X73886141Y-112735287D01*
X73802158Y-112686799D01*
X73708488Y-112661700D01*
X73674747Y-112661700D01*
X74165049Y-112171395D01*
X74042727Y-112106013D01*
X73855111Y-112049100D01*
X73660000Y-112029884D01*
X73464888Y-112049100D01*
X73277267Y-112106014D01*
X73104370Y-112198430D01*
X73099302Y-112201817D01*
X73098194Y-112200159D01*
X73042300Y-112223880D01*
X72973436Y-112212071D01*
X72921888Y-112164905D01*
X72904023Y-112097358D01*
X72913415Y-112053262D01*
X72970464Y-111915535D01*
X72990941Y-111760000D01*
X72970464Y-111604465D01*
X72913416Y-111466741D01*
X72905948Y-111397272D01*
X72937223Y-111334793D01*
X72997312Y-111299141D01*
X73067137Y-111301635D01*
X73098715Y-111319060D01*
X73099302Y-111318183D01*
X73104370Y-111321569D01*
X73277267Y-111413985D01*
X73464888Y-111470899D01*
X73660000Y-111490115D01*
X73855111Y-111470899D01*
X74042730Y-111413985D01*
X74165050Y-111348603D01*
X73674747Y-110858300D01*
X73708488Y-110858300D01*
X73802158Y-110833201D01*
X73886141Y-110784713D01*
X73954713Y-110716141D01*
X74003201Y-110632158D01*
X74028300Y-110538488D01*
X74028300Y-110504747D01*
X74518603Y-110995050D01*
X74583985Y-110872730D01*
X74640899Y-110685111D01*
X74660115Y-110490000D01*
X74640899Y-110294888D01*
X74583985Y-110107267D01*
X74518604Y-109984948D01*
X74028300Y-110475252D01*
X74028300Y-110441512D01*
X74003201Y-110347842D01*
X73954713Y-110263859D01*
X73886141Y-110195287D01*
X73802158Y-110146799D01*
X73708488Y-110121700D01*
X73674747Y-110121700D01*
X74165049Y-109631395D01*
X74042727Y-109566013D01*
X73855111Y-109509100D01*
X73660000Y-109489884D01*
X73464888Y-109509100D01*
X73277270Y-109566014D01*
X73154949Y-109631394D01*
X73154949Y-109631395D01*
X73645254Y-110121700D01*
X73611512Y-110121700D01*
X73517842Y-110146799D01*
X73433859Y-110195287D01*
X73365287Y-110263859D01*
X73316799Y-110347842D01*
X73291700Y-110441512D01*
X73291700Y-110475253D01*
X72801395Y-109984949D01*
X72801394Y-109984949D01*
X72736014Y-110107270D01*
X72679100Y-110294888D01*
X72659884Y-110490000D01*
X72679100Y-110685111D01*
X72736014Y-110872732D01*
X72828430Y-111045629D01*
X72831817Y-111050698D01*
X72830154Y-111051808D01*
X72853877Y-111107674D01*
X72842082Y-111176541D01*
X72794926Y-111228098D01*
X72727383Y-111245976D01*
X72683258Y-111236582D01*
X72545538Y-111179537D01*
X72545536Y-111179536D01*
X72545535Y-111179536D01*
X72467767Y-111169297D01*
X72390001Y-111159059D01*
X72389999Y-111159059D01*
X72234465Y-111179536D01*
X72234461Y-111179537D01*
X72096741Y-111236582D01*
X72027272Y-111244051D01*
X71964793Y-111212775D01*
X71929141Y-111152686D01*
X71931635Y-111082861D01*
X71949063Y-111051286D01*
X71948183Y-111050698D01*
X71951569Y-111045629D01*
X72043985Y-110872732D01*
X72100899Y-110685111D01*
X72120115Y-110490000D01*
X72100899Y-110294888D01*
X72043985Y-110107267D01*
X71978604Y-109984948D01*
X71488300Y-110475252D01*
X71488300Y-110441512D01*
X71463201Y-110347842D01*
X71414713Y-110263859D01*
X71346141Y-110195287D01*
X71262158Y-110146799D01*
X71168488Y-110121700D01*
X71134747Y-110121700D01*
X71625049Y-109631395D01*
X71502727Y-109566013D01*
X71315111Y-109509100D01*
X71120000Y-109489884D01*
X70924888Y-109509100D01*
X70737270Y-109566014D01*
X70614949Y-109631394D01*
X70614949Y-109631395D01*
X71105254Y-110121700D01*
X71071512Y-110121700D01*
X70977842Y-110146799D01*
X70893859Y-110195287D01*
X70825287Y-110263859D01*
X70776799Y-110347842D01*
X70751700Y-110441512D01*
X70751700Y-110475254D01*
X70261395Y-109984949D01*
X70261394Y-109984949D01*
X70196014Y-110107270D01*
X70139100Y-110294888D01*
X70119884Y-110490000D01*
X69036900Y-110490000D01*
X69036900Y-102870000D01*
X70119884Y-102870000D01*
X70139100Y-103065111D01*
X70196013Y-103252727D01*
X70261395Y-103375049D01*
X70751700Y-102884745D01*
X70751700Y-102918488D01*
X70776799Y-103012158D01*
X70825287Y-103096141D01*
X70893859Y-103164713D01*
X70977842Y-103213201D01*
X71071512Y-103238300D01*
X71105252Y-103238300D01*
X70614948Y-103728604D01*
X70737267Y-103793985D01*
X70924888Y-103850899D01*
X71120000Y-103870115D01*
X71315111Y-103850899D01*
X71502732Y-103793985D01*
X71675629Y-103701569D01*
X71680698Y-103698183D01*
X71681811Y-103699849D01*
X71737643Y-103676125D01*
X71806513Y-103687904D01*
X71858082Y-103735047D01*
X71875977Y-103802586D01*
X71866582Y-103846741D01*
X71809537Y-103984461D01*
X71809536Y-103984465D01*
X71789059Y-104139999D01*
X71789059Y-104140000D01*
X71809536Y-104295534D01*
X71809537Y-104295538D01*
X71866582Y-104433258D01*
X71874051Y-104502727D01*
X71842776Y-104565206D01*
X71782687Y-104600858D01*
X71712861Y-104598364D01*
X71681284Y-104580939D01*
X71680698Y-104581817D01*
X71675629Y-104578430D01*
X71502732Y-104486014D01*
X71315111Y-104429100D01*
X71120000Y-104409884D01*
X70924888Y-104429100D01*
X70737270Y-104486014D01*
X70614949Y-104551394D01*
X70614949Y-104551395D01*
X71105253Y-105041700D01*
X71071512Y-105041700D01*
X70977842Y-105066799D01*
X70893859Y-105115287D01*
X70825287Y-105183859D01*
X70776799Y-105267842D01*
X70751700Y-105361512D01*
X70751700Y-105395254D01*
X70261395Y-104904949D01*
X70261394Y-104904949D01*
X70196014Y-105027270D01*
X70139100Y-105214888D01*
X70119884Y-105410000D01*
X70139100Y-105605111D01*
X70196013Y-105792727D01*
X70261395Y-105915049D01*
X70751700Y-105424745D01*
X70751700Y-105458488D01*
X70776799Y-105552158D01*
X70825287Y-105636141D01*
X70893859Y-105704713D01*
X70977842Y-105753201D01*
X71071512Y-105778300D01*
X71105253Y-105778300D01*
X70614948Y-106268604D01*
X70737267Y-106333985D01*
X70924888Y-106390899D01*
X71120000Y-106410115D01*
X71315111Y-106390899D01*
X71502730Y-106333985D01*
X71625050Y-106268603D01*
X71134748Y-105778300D01*
X71168488Y-105778300D01*
X71262158Y-105753201D01*
X71346141Y-105704713D01*
X71414713Y-105636141D01*
X71463201Y-105552158D01*
X71488300Y-105458488D01*
X71488300Y-105424746D01*
X71978603Y-105915049D01*
X72043985Y-105792730D01*
X72100899Y-105605111D01*
X72120115Y-105410000D01*
X72100899Y-105214888D01*
X72043985Y-105027267D01*
X71951569Y-104854370D01*
X71948183Y-104849302D01*
X71949845Y-104848191D01*
X71926122Y-104792331D01*
X71937915Y-104723463D01*
X71985068Y-104671904D01*
X72052611Y-104654023D01*
X72096738Y-104663416D01*
X72234465Y-104720464D01*
X72371904Y-104738558D01*
X72389999Y-104740941D01*
X72390000Y-104740941D01*
X72390001Y-104740941D01*
X72406209Y-104738806D01*
X72545535Y-104720464D01*
X72683260Y-104663416D01*
X72752726Y-104655948D01*
X72815206Y-104687223D01*
X72850858Y-104747312D01*
X72848364Y-104817137D01*
X72830942Y-104848717D01*
X72831817Y-104849302D01*
X72828430Y-104854370D01*
X72736014Y-105027267D01*
X72679100Y-105214888D01*
X72659884Y-105410000D01*
X72679100Y-105605111D01*
X72736013Y-105792727D01*
X72801395Y-105915049D01*
X73291700Y-105424745D01*
X73291700Y-105458488D01*
X73316799Y-105552158D01*
X73365287Y-105636141D01*
X73433859Y-105704713D01*
X73517842Y-105753201D01*
X73611512Y-105778300D01*
X73645253Y-105778300D01*
X73154948Y-106268604D01*
X73277267Y-106333985D01*
X73464888Y-106390899D01*
X73660000Y-106410115D01*
X73855111Y-106390899D01*
X74042730Y-106333985D01*
X74165050Y-106268603D01*
X73674748Y-105778300D01*
X73708488Y-105778300D01*
X73802158Y-105753201D01*
X73886141Y-105704713D01*
X73954713Y-105636141D01*
X74003201Y-105552158D01*
X74028300Y-105458488D01*
X74028300Y-105424747D01*
X74518603Y-105915050D01*
X74583985Y-105792730D01*
X74640899Y-105605111D01*
X74660115Y-105410000D01*
X74640899Y-105214888D01*
X74583985Y-105027267D01*
X74518604Y-104904948D01*
X74028300Y-105395252D01*
X74028300Y-105361512D01*
X74003201Y-105267842D01*
X73954713Y-105183859D01*
X73886141Y-105115287D01*
X73802158Y-105066799D01*
X73708488Y-105041700D01*
X73674747Y-105041700D01*
X74165049Y-104551395D01*
X74042727Y-104486013D01*
X73855111Y-104429100D01*
X73660000Y-104409884D01*
X73464888Y-104429100D01*
X73277267Y-104486014D01*
X73104370Y-104578430D01*
X73099302Y-104581817D01*
X73098194Y-104580159D01*
X73042300Y-104603880D01*
X72973436Y-104592071D01*
X72921888Y-104544905D01*
X72904023Y-104477358D01*
X72913415Y-104433262D01*
X72970464Y-104295535D01*
X72990941Y-104140000D01*
X72970464Y-103984465D01*
X72913416Y-103846741D01*
X72905948Y-103777272D01*
X72937223Y-103714793D01*
X72997312Y-103679141D01*
X73067137Y-103681635D01*
X73098715Y-103699060D01*
X73099302Y-103698183D01*
X73104370Y-103701569D01*
X73277267Y-103793985D01*
X73464888Y-103850899D01*
X73660000Y-103870115D01*
X73855111Y-103850899D01*
X74042730Y-103793985D01*
X74165050Y-103728603D01*
X73674747Y-103238300D01*
X73708488Y-103238300D01*
X73802158Y-103213201D01*
X73886141Y-103164713D01*
X73954713Y-103096141D01*
X74003201Y-103012158D01*
X74028300Y-102918488D01*
X74028300Y-102884747D01*
X74518603Y-103375050D01*
X74583985Y-103252730D01*
X74640899Y-103065111D01*
X74660115Y-102870000D01*
X74640899Y-102674888D01*
X74583985Y-102487267D01*
X74518604Y-102364948D01*
X74028300Y-102855252D01*
X74028300Y-102821512D01*
X74003201Y-102727842D01*
X73954713Y-102643859D01*
X73886141Y-102575287D01*
X73802158Y-102526799D01*
X73708488Y-102501700D01*
X73674747Y-102501700D01*
X74165049Y-102011395D01*
X74042727Y-101946013D01*
X73855111Y-101889100D01*
X73660000Y-101869884D01*
X73464888Y-101889100D01*
X73277270Y-101946014D01*
X73154949Y-102011394D01*
X73154949Y-102011395D01*
X73645254Y-102501700D01*
X73611512Y-102501700D01*
X73517842Y-102526799D01*
X73433859Y-102575287D01*
X73365287Y-102643859D01*
X73316799Y-102727842D01*
X73291700Y-102821512D01*
X73291700Y-102855253D01*
X72801395Y-102364949D01*
X72801394Y-102364949D01*
X72736014Y-102487270D01*
X72679100Y-102674888D01*
X72659884Y-102870000D01*
X72679100Y-103065111D01*
X72736014Y-103252732D01*
X72828430Y-103425629D01*
X72831817Y-103430698D01*
X72830154Y-103431808D01*
X72853877Y-103487674D01*
X72842082Y-103556541D01*
X72794926Y-103608098D01*
X72727383Y-103625976D01*
X72683258Y-103616582D01*
X72545538Y-103559537D01*
X72545536Y-103559536D01*
X72545535Y-103559536D01*
X72467767Y-103549297D01*
X72390001Y-103539059D01*
X72389999Y-103539059D01*
X72234465Y-103559536D01*
X72234461Y-103559537D01*
X72096741Y-103616582D01*
X72027272Y-103624051D01*
X71964793Y-103592775D01*
X71929141Y-103532686D01*
X71931635Y-103462861D01*
X71949063Y-103431286D01*
X71948183Y-103430698D01*
X71951569Y-103425629D01*
X72043985Y-103252732D01*
X72100899Y-103065111D01*
X72120115Y-102870000D01*
X72100899Y-102674888D01*
X72043985Y-102487267D01*
X71978604Y-102364948D01*
X71488300Y-102855252D01*
X71488300Y-102821512D01*
X71463201Y-102727842D01*
X71414713Y-102643859D01*
X71346141Y-102575287D01*
X71262158Y-102526799D01*
X71168488Y-102501700D01*
X71134747Y-102501700D01*
X71625049Y-102011395D01*
X71502727Y-101946013D01*
X71315111Y-101889100D01*
X71120000Y-101869884D01*
X70924888Y-101889100D01*
X70737270Y-101946014D01*
X70614949Y-102011394D01*
X70614949Y-102011395D01*
X71105254Y-102501700D01*
X71071512Y-102501700D01*
X70977842Y-102526799D01*
X70893859Y-102575287D01*
X70825287Y-102643859D01*
X70776799Y-102727842D01*
X70751700Y-102821512D01*
X70751700Y-102855254D01*
X70261395Y-102364949D01*
X70261394Y-102364949D01*
X70196014Y-102487270D01*
X70139100Y-102674888D01*
X70119884Y-102870000D01*
X69036900Y-102870000D01*
X69036900Y-73509998D01*
X69734891Y-73509998D01*
X69734891Y-73510001D01*
X69755300Y-73795362D01*
X69816109Y-74074895D01*
X69916091Y-74342958D01*
X70053191Y-74594038D01*
X70053196Y-74594046D01*
X70159882Y-74736561D01*
X70159883Y-74736562D01*
X70841377Y-74055067D01*
X70924411Y-74179336D01*
X71070664Y-74325589D01*
X71194930Y-74408621D01*
X70513436Y-75090115D01*
X70655960Y-75196807D01*
X70655961Y-75196808D01*
X70907042Y-75333908D01*
X70907041Y-75333908D01*
X71175104Y-75433890D01*
X71454637Y-75494699D01*
X71739999Y-75515109D01*
X71740001Y-75515109D01*
X72025362Y-75494699D01*
X72304895Y-75433890D01*
X72572958Y-75333908D01*
X72824047Y-75196803D01*
X72966561Y-75090116D01*
X72966562Y-75090115D01*
X72285068Y-74408621D01*
X72409336Y-74325589D01*
X72555589Y-74179336D01*
X72638621Y-74055068D01*
X73320115Y-74736562D01*
X73320116Y-74736561D01*
X73426803Y-74594047D01*
X73563908Y-74342958D01*
X73663890Y-74074895D01*
X73724699Y-73795362D01*
X73745109Y-73510001D01*
X73745109Y-73509998D01*
X73724699Y-73224637D01*
X73663890Y-72945104D01*
X73563908Y-72677041D01*
X73426808Y-72425961D01*
X73426807Y-72425960D01*
X73320115Y-72283436D01*
X72638621Y-72964930D01*
X72555589Y-72840664D01*
X72409336Y-72694411D01*
X72285068Y-72611378D01*
X72966562Y-71929883D01*
X72966561Y-71929882D01*
X72824046Y-71823196D01*
X72824038Y-71823191D01*
X72572957Y-71686091D01*
X72572958Y-71686091D01*
X72304895Y-71586109D01*
X72025362Y-71525300D01*
X71740001Y-71504891D01*
X71739999Y-71504891D01*
X71454637Y-71525300D01*
X71175104Y-71586109D01*
X70907041Y-71686091D01*
X70655961Y-71823191D01*
X70655953Y-71823196D01*
X70513437Y-71929882D01*
X70513436Y-71929883D01*
X71194931Y-72611378D01*
X71070664Y-72694411D01*
X70924411Y-72840664D01*
X70841378Y-72964931D01*
X70159883Y-72283436D01*
X70159882Y-72283437D01*
X70053196Y-72425953D01*
X70053191Y-72425961D01*
X69916091Y-72677041D01*
X69816109Y-72945104D01*
X69755300Y-73224637D01*
X69734891Y-73509998D01*
X69036900Y-73509998D01*
X69036900Y-71130820D01*
X69056585Y-71063781D01*
X69109389Y-71018026D01*
X69160900Y-71006820D01*
X88369900Y-71006820D01*
X88436939Y-71026505D01*
G37*
%TD.AperFunction*%
%TA.AperFunction,Conductor*%
G36*
X88422007Y-121576301D02*
G01*
X88474569Y-121622334D01*
X88493900Y-121688821D01*
X88493900Y-124890442D01*
X88474215Y-124957481D01*
X88421411Y-125003236D01*
X88352253Y-125013180D01*
X88288697Y-124984155D01*
X88253718Y-124933776D01*
X88213908Y-124827041D01*
X88076808Y-124575961D01*
X88076807Y-124575960D01*
X87970115Y-124433436D01*
X87288621Y-125114930D01*
X87205589Y-124990664D01*
X87059336Y-124844411D01*
X86935068Y-124761378D01*
X87616562Y-124079883D01*
X87616561Y-124079882D01*
X87474046Y-123973196D01*
X87474038Y-123973191D01*
X87222957Y-123836091D01*
X87222958Y-123836091D01*
X86954896Y-123736110D01*
X86780126Y-123698090D01*
X86718803Y-123664605D01*
X86685319Y-123603281D01*
X86690303Y-123533590D01*
X86732175Y-123477656D01*
X86750834Y-123466113D01*
X86877545Y-123402476D01*
X87169509Y-123210449D01*
X87169510Y-123210448D01*
X87312179Y-123090734D01*
X87312180Y-123090733D01*
X86601367Y-122379919D01*
X86696521Y-122306906D01*
X86881906Y-122121521D01*
X86954919Y-122026367D01*
X87668849Y-122740297D01*
X87668851Y-122740296D01*
X87677022Y-122731636D01*
X87677033Y-122731623D01*
X87885710Y-122451322D01*
X88060438Y-122148683D01*
X88060444Y-122148670D01*
X88198854Y-121827800D01*
X88251109Y-121653257D01*
X88289194Y-121594680D01*
X88352902Y-121565992D01*
X88422007Y-121576301D01*
G37*
%TD.AperFunction*%
%TD*%
M02*
