%TF.GenerationSoftware,KiCad,Pcbnew,8.0.3*%
%TF.CreationDate,2024-07-21T22:55:40-07:00*%
%TF.ProjectId,wide_v1_4_layer,77696465-5f76-4315-9f34-5f6c61796572,V1*%
%TF.SameCoordinates,Original*%
%TF.FileFunction,Legend,Bot*%
%TF.FilePolarity,Positive*%
%FSLAX46Y46*%
G04 Gerber Fmt 4.6, Leading zero omitted, Abs format (unit mm)*
G04 Created by KiCad (PCBNEW 8.0.3) date 2024-07-21 22:55:40*
%MOMM*%
%LPD*%
G01*
G04 APERTURE LIST*
%ADD10C,0.100000*%
G04 APERTURE END LIST*
D10*
X82195315Y-74508009D02*
X81861982Y-74508009D01*
X81719125Y-75031819D02*
X82195315Y-75031819D01*
X82195315Y-75031819D02*
X82195315Y-74031819D01*
X82195315Y-74031819D02*
X81719125Y-74031819D01*
X80861982Y-75031819D02*
X80861982Y-74031819D01*
X80861982Y-74984200D02*
X80957220Y-75031819D01*
X80957220Y-75031819D02*
X81147696Y-75031819D01*
X81147696Y-75031819D02*
X81242934Y-74984200D01*
X81242934Y-74984200D02*
X81290553Y-74936580D01*
X81290553Y-74936580D02*
X81338172Y-74841342D01*
X81338172Y-74841342D02*
X81338172Y-74555628D01*
X81338172Y-74555628D02*
X81290553Y-74460390D01*
X81290553Y-74460390D02*
X81242934Y-74412771D01*
X81242934Y-74412771D02*
X81147696Y-74365152D01*
X81147696Y-74365152D02*
X80957220Y-74365152D01*
X80957220Y-74365152D02*
X80861982Y-74412771D01*
X80481029Y-74365152D02*
X80290553Y-75031819D01*
X80290553Y-75031819D02*
X80100077Y-74555628D01*
X80100077Y-74555628D02*
X79909601Y-75031819D01*
X79909601Y-75031819D02*
X79719125Y-74365152D01*
X78909601Y-75031819D02*
X78909601Y-74508009D01*
X78909601Y-74508009D02*
X78957220Y-74412771D01*
X78957220Y-74412771D02*
X79052458Y-74365152D01*
X79052458Y-74365152D02*
X79242934Y-74365152D01*
X79242934Y-74365152D02*
X79338172Y-74412771D01*
X78909601Y-74984200D02*
X79004839Y-75031819D01*
X79004839Y-75031819D02*
X79242934Y-75031819D01*
X79242934Y-75031819D02*
X79338172Y-74984200D01*
X79338172Y-74984200D02*
X79385791Y-74888961D01*
X79385791Y-74888961D02*
X79385791Y-74793723D01*
X79385791Y-74793723D02*
X79338172Y-74698485D01*
X79338172Y-74698485D02*
X79242934Y-74650866D01*
X79242934Y-74650866D02*
X79004839Y-74650866D01*
X79004839Y-74650866D02*
X78909601Y-74603247D01*
X78433410Y-75031819D02*
X78433410Y-74365152D01*
X78433410Y-74555628D02*
X78385791Y-74460390D01*
X78385791Y-74460390D02*
X78338172Y-74412771D01*
X78338172Y-74412771D02*
X78242934Y-74365152D01*
X78242934Y-74365152D02*
X78147696Y-74365152D01*
X77385791Y-75031819D02*
X77385791Y-74031819D01*
X77385791Y-74984200D02*
X77481029Y-75031819D01*
X77481029Y-75031819D02*
X77671505Y-75031819D01*
X77671505Y-75031819D02*
X77766743Y-74984200D01*
X77766743Y-74984200D02*
X77814362Y-74936580D01*
X77814362Y-74936580D02*
X77861981Y-74841342D01*
X77861981Y-74841342D02*
X77861981Y-74555628D01*
X77861981Y-74555628D02*
X77814362Y-74460390D01*
X77814362Y-74460390D02*
X77766743Y-74412771D01*
X77766743Y-74412771D02*
X77671505Y-74365152D01*
X77671505Y-74365152D02*
X77481029Y-74365152D01*
X77481029Y-74365152D02*
X77385791Y-74412771D01*
X84801353Y-72360752D02*
X84610877Y-73027419D01*
X84610877Y-73027419D02*
X84420401Y-72551228D01*
X84420401Y-72551228D02*
X84229925Y-73027419D01*
X84229925Y-73027419D02*
X84039449Y-72360752D01*
X83658496Y-73027419D02*
X83658496Y-72360752D01*
X83658496Y-72027419D02*
X83706115Y-72075038D01*
X83706115Y-72075038D02*
X83658496Y-72122657D01*
X83658496Y-72122657D02*
X83610877Y-72075038D01*
X83610877Y-72075038D02*
X83658496Y-72027419D01*
X83658496Y-72027419D02*
X83658496Y-72122657D01*
X82753735Y-73027419D02*
X82753735Y-72027419D01*
X82753735Y-72979800D02*
X82848973Y-73027419D01*
X82848973Y-73027419D02*
X83039449Y-73027419D01*
X83039449Y-73027419D02*
X83134687Y-72979800D01*
X83134687Y-72979800D02*
X83182306Y-72932180D01*
X83182306Y-72932180D02*
X83229925Y-72836942D01*
X83229925Y-72836942D02*
X83229925Y-72551228D01*
X83229925Y-72551228D02*
X83182306Y-72455990D01*
X83182306Y-72455990D02*
X83134687Y-72408371D01*
X83134687Y-72408371D02*
X83039449Y-72360752D01*
X83039449Y-72360752D02*
X82848973Y-72360752D01*
X82848973Y-72360752D02*
X82753735Y-72408371D01*
X81896592Y-72979800D02*
X81991830Y-73027419D01*
X81991830Y-73027419D02*
X82182306Y-73027419D01*
X82182306Y-73027419D02*
X82277544Y-72979800D01*
X82277544Y-72979800D02*
X82325163Y-72884561D01*
X82325163Y-72884561D02*
X82325163Y-72503609D01*
X82325163Y-72503609D02*
X82277544Y-72408371D01*
X82277544Y-72408371D02*
X82182306Y-72360752D01*
X82182306Y-72360752D02*
X81991830Y-72360752D01*
X81991830Y-72360752D02*
X81896592Y-72408371D01*
X81896592Y-72408371D02*
X81848973Y-72503609D01*
X81848973Y-72503609D02*
X81848973Y-72598847D01*
X81848973Y-72598847D02*
X82325163Y-72694085D01*
X81658497Y-73122657D02*
X80896592Y-73122657D01*
X80515639Y-73027419D02*
X80610877Y-72979800D01*
X80610877Y-72979800D02*
X80658496Y-72932180D01*
X80658496Y-72932180D02*
X80706115Y-72836942D01*
X80706115Y-72836942D02*
X80706115Y-72551228D01*
X80706115Y-72551228D02*
X80658496Y-72455990D01*
X80658496Y-72455990D02*
X80610877Y-72408371D01*
X80610877Y-72408371D02*
X80515639Y-72360752D01*
X80515639Y-72360752D02*
X80372782Y-72360752D01*
X80372782Y-72360752D02*
X80277544Y-72408371D01*
X80277544Y-72408371D02*
X80229925Y-72455990D01*
X80229925Y-72455990D02*
X80182306Y-72551228D01*
X80182306Y-72551228D02*
X80182306Y-72836942D01*
X80182306Y-72836942D02*
X80229925Y-72932180D01*
X80229925Y-72932180D02*
X80277544Y-72979800D01*
X80277544Y-72979800D02*
X80372782Y-73027419D01*
X80372782Y-73027419D02*
X80515639Y-73027419D01*
X79753734Y-72360752D02*
X79753734Y-73360752D01*
X79753734Y-72408371D02*
X79658496Y-72360752D01*
X79658496Y-72360752D02*
X79468020Y-72360752D01*
X79468020Y-72360752D02*
X79372782Y-72408371D01*
X79372782Y-72408371D02*
X79325163Y-72455990D01*
X79325163Y-72455990D02*
X79277544Y-72551228D01*
X79277544Y-72551228D02*
X79277544Y-72836942D01*
X79277544Y-72836942D02*
X79325163Y-72932180D01*
X79325163Y-72932180D02*
X79372782Y-72979800D01*
X79372782Y-72979800D02*
X79468020Y-73027419D01*
X79468020Y-73027419D02*
X79658496Y-73027419D01*
X79658496Y-73027419D02*
X79753734Y-72979800D01*
X78991829Y-72360752D02*
X78610877Y-72360752D01*
X78848972Y-72027419D02*
X78848972Y-72884561D01*
X78848972Y-72884561D02*
X78801353Y-72979800D01*
X78801353Y-72979800D02*
X78706115Y-73027419D01*
X78706115Y-73027419D02*
X78610877Y-73027419D01*
X78277543Y-73027419D02*
X78277543Y-72360752D01*
X78277543Y-72027419D02*
X78325162Y-72075038D01*
X78325162Y-72075038D02*
X78277543Y-72122657D01*
X78277543Y-72122657D02*
X78229924Y-72075038D01*
X78229924Y-72075038D02*
X78277543Y-72027419D01*
X78277543Y-72027419D02*
X78277543Y-72122657D01*
X77372782Y-72979800D02*
X77468020Y-73027419D01*
X77468020Y-73027419D02*
X77658496Y-73027419D01*
X77658496Y-73027419D02*
X77753734Y-72979800D01*
X77753734Y-72979800D02*
X77801353Y-72932180D01*
X77801353Y-72932180D02*
X77848972Y-72836942D01*
X77848972Y-72836942D02*
X77848972Y-72551228D01*
X77848972Y-72551228D02*
X77801353Y-72455990D01*
X77801353Y-72455990D02*
X77753734Y-72408371D01*
X77753734Y-72408371D02*
X77658496Y-72360752D01*
X77658496Y-72360752D02*
X77468020Y-72360752D01*
X77468020Y-72360752D02*
X77372782Y-72408371D01*
X76515639Y-73027419D02*
X76515639Y-72503609D01*
X76515639Y-72503609D02*
X76563258Y-72408371D01*
X76563258Y-72408371D02*
X76658496Y-72360752D01*
X76658496Y-72360752D02*
X76848972Y-72360752D01*
X76848972Y-72360752D02*
X76944210Y-72408371D01*
X76515639Y-72979800D02*
X76610877Y-73027419D01*
X76610877Y-73027419D02*
X76848972Y-73027419D01*
X76848972Y-73027419D02*
X76944210Y-72979800D01*
X76944210Y-72979800D02*
X76991829Y-72884561D01*
X76991829Y-72884561D02*
X76991829Y-72789323D01*
X76991829Y-72789323D02*
X76944210Y-72694085D01*
X76944210Y-72694085D02*
X76848972Y-72646466D01*
X76848972Y-72646466D02*
X76610877Y-72646466D01*
X76610877Y-72646466D02*
X76515639Y-72598847D01*
X75896591Y-73027419D02*
X75991829Y-72979800D01*
X75991829Y-72979800D02*
X76039448Y-72884561D01*
X76039448Y-72884561D02*
X76039448Y-72027419D01*
X75753734Y-73122657D02*
X74991829Y-73122657D01*
X74848971Y-72360752D02*
X74610876Y-73027419D01*
X74610876Y-73027419D02*
X74372781Y-72360752D01*
X73468019Y-73027419D02*
X74039447Y-73027419D01*
X73753733Y-73027419D02*
X73753733Y-72027419D01*
X73753733Y-72027419D02*
X73848971Y-72170276D01*
X73848971Y-72170276D02*
X73944209Y-72265514D01*
X73944209Y-72265514D02*
X74039447Y-72313133D01*
M02*
