%TF.GenerationSoftware,KiCad,Pcbnew,8.0.3*%
%TF.CreationDate,2024-07-19T20:57:39-07:00*%
%TF.ProjectId,wide_v1_4_layer,77696465-5f76-4315-9f34-5f6c61796572,V1*%
%TF.SameCoordinates,Original*%
%TF.FileFunction,Copper,L3,Inr*%
%TF.FilePolarity,Positive*%
%FSLAX46Y46*%
G04 Gerber Fmt 4.6, Leading zero omitted, Abs format (unit mm)*
G04 Created by KiCad (PCBNEW 8.0.3) date 2024-07-19 20:57:39*
%MOMM*%
%LPD*%
G01*
G04 APERTURE LIST*
%TA.AperFunction,ComponentPad*%
%ADD10C,0.990600*%
%TD*%
%TA.AperFunction,ComponentPad*%
%ADD11C,3.000000*%
%TD*%
%TA.AperFunction,ComponentPad*%
%ADD12C,5.000000*%
%TD*%
%TA.AperFunction,ViaPad*%
%ADD13C,0.300000*%
%TD*%
%TA.AperFunction,ViaPad*%
%ADD14C,0.400000*%
%TD*%
%TA.AperFunction,ViaPad*%
%ADD15C,0.500000*%
%TD*%
%TA.AperFunction,Conductor*%
%ADD16C,0.099060*%
%TD*%
G04 APERTURE END LIST*
D10*
%TO.N,Net-(C2-Pad1)*%
%TO.C,SMP2*%
X72390000Y-104140000D03*
%TO.N,GND*%
X71120000Y-105410000D03*
X73660000Y-105410000D03*
X73660000Y-102870000D03*
X71120000Y-102870000D03*
%TD*%
%TO.N,Net-(R3-Pad1)*%
%TO.C,SMP3*%
X85090000Y-104140000D03*
%TO.N,GND*%
X83820000Y-105410000D03*
X86360000Y-105410000D03*
X86360000Y-102870000D03*
X83820000Y-102870000D03*
%TD*%
D11*
%TO.N,GND*%
%TO.C,*%
X86390000Y-125660000D03*
%TD*%
D12*
%TO.N,GND*%
%TO.C,*%
X85375000Y-120800000D03*
%TD*%
D11*
%TO.N,GND*%
%TO.C,*%
X71740000Y-125660000D03*
%TD*%
D10*
%TO.N,Net-(C1-Pad1)*%
%TO.C,SMP1*%
X72390000Y-111760000D03*
%TO.N,GND*%
X71120000Y-113030000D03*
X73660000Y-113030000D03*
X73660000Y-110490000D03*
X71120000Y-110490000D03*
%TD*%
D11*
%TO.N,GND*%
%TO.C,*%
X71740000Y-73510000D03*
%TD*%
D10*
%TO.N,Net-(R4-Pad1)*%
%TO.C,SMP4*%
X85090000Y-111760000D03*
%TO.N,GND*%
X83820000Y-113030000D03*
X86360000Y-113030000D03*
X86360000Y-110490000D03*
X83820000Y-110490000D03*
%TD*%
D11*
%TO.N,GND*%
%TO.C,*%
X86390000Y-73510000D03*
%TD*%
D12*
%TO.N,GND*%
%TO.C,*%
X72740000Y-120760000D03*
%TD*%
D13*
%TO.N,GND*%
X84600000Y-102250000D03*
X85810000Y-101940000D03*
X85200000Y-99660000D03*
%TO.N,unconnected-(ZIF1-Pad13)*%
X73550000Y-135480000D03*
X74334900Y-98138210D03*
%TO.N,Net-(Sample1-Pad15)*%
X74334900Y-97325410D03*
X74625200Y-135483600D03*
%TO.N,Net-(Sample1-Pad16)*%
X75031600Y-131927600D03*
X74327100Y-99130000D03*
%TO.N,Net-(Sample1-Pad17)*%
X74328700Y-96512799D03*
X76200000Y-135483600D03*
%TO.N,Net-(Sample1-Pad18)*%
X72889100Y-99600000D03*
X76962000Y-131927600D03*
%TO.N,Net-(Sample1-Pad19)*%
X77876400Y-135483600D03*
X72880000Y-98680000D03*
%TO.N,Net-(Sample1-Pad20)*%
X77971130Y-131927600D03*
X72880000Y-97845190D03*
%TO.N,Net-(Sample1-Pad21)*%
X78588000Y-135483600D03*
X72877900Y-96922230D03*
%TO.N,Net-(Sample1-Pad22)*%
X78878160Y-131949243D03*
X72877900Y-96087420D03*
%TO.N,Net-(Sample1-Pad23)*%
X79400000Y-135480000D03*
X72877900Y-95325410D03*
%TO.N,Net-(Sample1-Pad24)*%
X84750300Y-95311700D03*
X79908400Y-131927600D03*
%TO.N,unconnected-(ZIF1-Pad27)*%
X74328700Y-95700000D03*
X80118000Y-135483600D03*
%TO.N,31*%
X81788001Y-135483600D03*
X83265665Y-94899980D03*
%TO.N,32*%
X83265665Y-95749990D03*
X80619600Y-132588000D03*
%TO.N,33*%
X83260400Y-96499980D03*
X83515200Y-135483600D03*
%TO.N,34*%
X81328043Y-131879557D03*
X83260400Y-97299990D03*
%TO.N,35*%
X83260400Y-98150790D03*
X85293201Y-135483600D03*
%TO.N,36*%
X83260400Y-99090000D03*
X82524600Y-131902200D03*
%TO.N,37*%
X84745035Y-96911700D03*
X88188800Y-134416800D03*
%TO.N,39*%
X88188800Y-133654800D03*
X84768155Y-97773710D03*
%TO.N,40*%
X84768155Y-98685840D03*
X87833200Y-131216400D03*
%TO.N,Net-(Sample1-Pad37)*%
X84745035Y-96099330D03*
X83312000Y-132638800D03*
%TO.N,52*%
X86817200Y-128625600D03*
X86664800Y-131927600D03*
%TO.N,Net-(Sample1-Pad40)*%
X81127600Y-128625600D03*
X83312000Y-131927600D03*
%TO.N,Net-(Sample1-Pad42)*%
X82702400Y-128625600D03*
X84074000Y-131927600D03*
%TO.N,Net-(Sample1-Pad44)*%
X84328000Y-128625600D03*
X84937600Y-131927600D03*
%TO.N,Net-(Sample1-Pad46)*%
X85750400Y-131927600D03*
X86004400Y-128625600D03*
D14*
%TO.N,GND*%
X86537800Y-111734600D03*
D13*
X73730000Y-94410000D03*
X75150000Y-105240000D03*
D14*
X81762600Y-129489200D03*
D13*
X86190000Y-96381400D03*
X69220000Y-83110000D03*
D14*
X88050000Y-80020000D03*
X86610000Y-98910000D03*
D13*
X88130000Y-97324600D03*
X73670000Y-100960000D03*
D14*
X81110000Y-106260000D03*
X70517200Y-76543200D03*
D13*
X83520000Y-94400000D03*
X72280000Y-109480000D03*
D14*
X70550000Y-127510000D03*
D13*
X87140000Y-97710000D03*
D14*
X71500000Y-89050000D03*
X72974200Y-134416800D03*
X72317200Y-75343200D03*
X86335600Y-92391600D03*
X84772800Y-137845800D03*
D15*
X83814000Y-93300000D03*
D13*
X74205000Y-92200000D03*
D14*
X86334600Y-107035600D03*
D13*
X74150000Y-94390000D03*
D14*
X73590000Y-114100000D03*
X88070000Y-105880000D03*
D13*
X73970000Y-101250000D03*
D14*
X81680000Y-113080000D03*
X72150000Y-108520000D03*
D13*
X71540000Y-94740000D03*
X70400000Y-93500000D03*
X75150000Y-104030000D03*
X81770000Y-108760000D03*
X87150000Y-101330000D03*
X74150000Y-104320000D03*
D14*
X69480000Y-107320000D03*
D13*
X87600000Y-94780000D03*
D14*
X74938800Y-123500200D03*
X85000000Y-124000000D03*
X78896400Y-78820000D03*
D13*
X73824000Y-92200000D03*
X72300000Y-95840000D03*
D14*
X82000000Y-120400000D03*
D13*
X88130000Y-98950000D03*
X72681000Y-92200000D03*
X69380000Y-96553400D03*
X82340000Y-105099000D03*
D14*
X76490000Y-105190000D03*
D13*
X86610000Y-99810000D03*
X69390000Y-99299400D03*
X83310000Y-106600000D03*
D14*
X72470000Y-107360000D03*
D13*
X88130000Y-96207000D03*
X72360000Y-101070000D03*
D14*
X84496800Y-75343200D03*
X71145400Y-111709200D03*
X82310000Y-121320000D03*
D13*
X82340000Y-104718000D03*
X72300000Y-98650000D03*
D14*
X71805800Y-107924600D03*
D13*
X88130000Y-96588000D03*
D14*
X82569200Y-76543200D03*
D13*
X86190000Y-97143400D03*
D14*
X78296400Y-80020000D03*
D13*
X86190000Y-98652400D03*
X71540000Y-92380000D03*
X80700000Y-109720000D03*
X76240000Y-107410000D03*
D14*
X73793200Y-137845800D03*
X88030000Y-108940000D03*
D13*
X69390000Y-97775400D03*
D14*
X69860000Y-88090000D03*
D13*
X84600000Y-110930000D03*
D14*
X82572400Y-81030000D03*
X77096400Y-80020000D03*
D13*
X87140000Y-98860000D03*
X85520000Y-109680000D03*
X86190000Y-97880000D03*
X84340000Y-101940000D03*
D14*
X73496600Y-104052800D03*
D13*
X85210000Y-97917600D03*
D14*
X83388200Y-111861600D03*
X81460000Y-95020000D03*
X87960000Y-127670000D03*
X70793200Y-136645800D03*
D13*
X76550000Y-107730000D03*
X71310000Y-97040000D03*
X86190000Y-97524400D03*
D14*
X86900200Y-93055800D03*
X76546400Y-81030000D03*
D13*
X85210000Y-96010000D03*
X69390000Y-98156400D03*
D14*
X74696400Y-80020000D03*
D13*
X69390000Y-100442400D03*
D14*
X71393200Y-137845800D03*
D13*
X73062000Y-92200000D03*
X75460000Y-108090000D03*
D14*
X71670400Y-78820000D03*
D15*
X73780000Y-93300000D03*
D13*
X71310000Y-97776600D03*
X69380000Y-95410400D03*
D14*
X81369200Y-76543200D03*
D13*
X85490000Y-100790000D03*
D14*
X76020000Y-94000000D03*
D13*
X81710000Y-109800000D03*
X86600000Y-95220000D03*
X70690000Y-93230000D03*
X73443000Y-92200000D03*
D14*
X78946400Y-81030000D03*
D13*
X74560000Y-101840000D03*
X70400000Y-96582400D03*
X87140000Y-97334400D03*
X88150000Y-95445000D03*
D14*
X78619200Y-137845800D03*
D13*
X85200000Y-98330000D03*
D14*
X70097800Y-135585200D03*
X74120400Y-81030000D03*
D13*
X70370000Y-100900000D03*
X88120000Y-101594600D03*
X70960000Y-94410000D03*
D14*
X73660000Y-125120000D03*
D13*
X80710000Y-110159000D03*
X85360000Y-92510000D03*
X71310000Y-98549000D03*
D14*
X82780000Y-114580000D03*
X74070400Y-78820000D03*
X69725400Y-91392200D03*
X88050000Y-111090000D03*
X78343200Y-77743200D03*
D13*
X72380000Y-93850000D03*
D14*
X85096800Y-76543200D03*
X70193200Y-137845800D03*
X86640000Y-96030000D03*
D13*
X71310000Y-99311000D03*
D14*
X80172400Y-81030000D03*
X83281200Y-116000200D03*
X83000000Y-116900000D03*
X83169200Y-75343200D03*
D13*
X72870000Y-108910000D03*
X80700000Y-108850000D03*
X70400000Y-96201400D03*
D14*
X88050000Y-112960000D03*
D13*
X70400000Y-98138000D03*
D14*
X86300000Y-81030000D03*
X76464600Y-106434600D03*
D13*
X87150000Y-98090000D03*
X87150000Y-96572400D03*
D14*
X79410000Y-96584800D03*
D13*
X72960000Y-94730000D03*
D14*
X72317200Y-77743200D03*
D13*
X72080000Y-100780000D03*
X83330000Y-106160000D03*
X69380000Y-97290000D03*
X75150000Y-104440000D03*
D14*
X73660000Y-111683800D03*
X70024400Y-90143800D03*
X81924800Y-116209800D03*
X69500000Y-123490000D03*
X71297800Y-135585200D03*
X76219200Y-137845800D03*
D13*
X87150000Y-95800000D03*
D14*
X75960000Y-116530000D03*
X75900000Y-105770400D03*
X76010000Y-120320000D03*
D13*
X72320000Y-99500000D03*
D14*
X84496800Y-77743200D03*
X71221600Y-107061000D03*
D13*
X83930000Y-100960000D03*
X69380000Y-96934400D03*
X88130000Y-96969000D03*
D14*
X85372800Y-136645800D03*
X87772800Y-136645800D03*
D13*
X87150000Y-98500000D03*
X74160000Y-103770000D03*
D14*
X72339200Y-105968800D03*
D13*
X85000000Y-92250000D03*
D14*
X80769200Y-75343200D03*
X72917200Y-76543200D03*
D13*
X69390000Y-101560000D03*
D14*
X71070400Y-80020000D03*
X76100000Y-122000000D03*
D13*
X86190000Y-99033400D03*
D14*
X75619200Y-136645800D03*
X83960000Y-107220000D03*
D13*
X87860000Y-95060000D03*
X83060000Y-101820000D03*
X84930000Y-101380000D03*
D14*
X87149000Y-90868000D03*
D13*
X83812000Y-92190000D03*
X73100000Y-100370000D03*
D14*
X75296400Y-78820000D03*
D13*
X85580000Y-110130000D03*
D14*
X72920400Y-81030000D03*
D13*
X81630000Y-106940000D03*
X73380000Y-100670000D03*
D14*
X74850000Y-114420000D03*
D13*
X70970000Y-92970000D03*
X70400000Y-95820400D03*
X72800000Y-100090000D03*
D14*
X85696800Y-77743200D03*
X87450000Y-78820000D03*
X72188600Y-116693200D03*
D13*
X75150000Y-104830000D03*
X83431000Y-92190000D03*
D14*
X87090000Y-106560000D03*
D13*
X86190000Y-95619400D03*
D14*
X81969200Y-77743200D03*
X70637400Y-108000800D03*
D13*
X72330000Y-95430000D03*
X82240000Y-106310000D03*
X87150000Y-99250000D03*
D14*
X80722400Y-80020000D03*
D13*
X76970000Y-110580000D03*
D14*
X86334600Y-108889800D03*
D13*
X71990000Y-109760000D03*
D14*
X77143200Y-77743200D03*
X70589000Y-90808000D03*
D13*
X72310000Y-97850000D03*
D14*
X85696800Y-75343200D03*
X76543200Y-76543200D03*
X72870400Y-78820000D03*
D13*
X69380000Y-95791400D03*
X84790000Y-100090000D03*
X75270000Y-106430000D03*
X69390000Y-101204400D03*
X71310000Y-96278000D03*
D14*
X87000000Y-109390000D03*
X75660000Y-117500000D03*
X78943200Y-76543200D03*
X79569200Y-77743200D03*
D13*
X84220000Y-100670000D03*
X83050000Y-92190000D03*
D14*
X88096800Y-77743200D03*
X83169200Y-77743200D03*
X69480000Y-113120000D03*
D13*
X76970000Y-109380000D03*
D14*
X84172600Y-117700000D03*
X77419200Y-137845800D03*
X88096800Y-75343200D03*
D13*
X76970000Y-108960000D03*
D14*
X81969200Y-75343200D03*
X82845200Y-136645800D03*
X69430000Y-127510000D03*
D13*
X73240000Y-101930000D03*
D14*
X85650000Y-80020000D03*
D13*
X87150000Y-96953400D03*
D14*
X87757000Y-135585200D03*
X87500000Y-118000000D03*
D13*
X84300000Y-108720000D03*
D14*
X73583800Y-107035600D03*
D15*
X84900000Y-93660000D03*
D14*
X77970000Y-96564800D03*
D13*
X69390000Y-100061400D03*
X72310000Y-98250000D03*
D14*
X73126600Y-124028200D03*
X74850000Y-113327800D03*
D13*
X84300000Y-94600000D03*
X71310000Y-95897000D03*
D14*
X87500000Y-81030000D03*
D13*
X75150000Y-107780000D03*
X69380000Y-96172400D03*
X84600000Y-92190000D03*
D14*
X82360000Y-113280000D03*
D13*
X85210000Y-96800000D03*
D14*
X81045200Y-137845800D03*
D13*
X88250000Y-84390000D03*
D15*
X85350000Y-94090000D03*
D14*
X84450000Y-80020000D03*
D13*
X75160000Y-106040000D03*
D15*
X84394000Y-93300000D03*
D14*
X88050000Y-92680000D03*
X76020000Y-93080000D03*
D13*
X74840000Y-107450000D03*
D14*
X86610000Y-97990000D03*
D13*
X80740000Y-107990000D03*
X75140000Y-102910000D03*
D14*
X79522400Y-80020000D03*
X72747400Y-115753400D03*
X80169200Y-76543200D03*
X87810000Y-113850000D03*
D13*
X71310000Y-96659000D03*
D14*
X85700000Y-116200000D03*
D13*
X88120000Y-100096000D03*
X83074000Y-94390000D03*
X80710000Y-109290000D03*
D14*
X74743200Y-77743200D03*
D13*
X72300000Y-92200000D03*
X70860000Y-99880000D03*
X70400000Y-97344400D03*
X69210000Y-84400000D03*
X76890000Y-108060000D03*
X69380000Y-95029400D03*
X88120000Y-99334000D03*
D14*
X87172800Y-137845800D03*
X77143200Y-75343200D03*
D13*
X72320000Y-99070000D03*
D14*
X75943200Y-77743200D03*
X85100000Y-81030000D03*
X80880000Y-96530000D03*
X71528800Y-91392200D03*
D13*
X85190000Y-96400000D03*
D14*
X87496800Y-76543200D03*
X87930000Y-89090000D03*
D13*
X82340000Y-103543400D03*
X85210000Y-97562000D03*
X84660000Y-101690000D03*
X84950000Y-109030000D03*
X86480000Y-93680000D03*
X86190000Y-99770000D03*
D14*
X87980000Y-123040000D03*
X83722400Y-78820000D03*
X74850000Y-112286400D03*
X71720400Y-81030000D03*
D13*
X70570000Y-99610000D03*
X72310000Y-97080000D03*
D14*
X81490000Y-93980000D03*
D13*
X82340000Y-105900000D03*
D14*
X87174400Y-88531200D03*
X75800000Y-118500000D03*
D13*
X81800000Y-108320000D03*
X70400000Y-97700000D03*
X82340000Y-103162400D03*
D14*
X86896800Y-77743200D03*
X79845200Y-137845800D03*
D13*
X74586000Y-92200000D03*
X71140000Y-100170000D03*
D14*
X86250000Y-78820000D03*
D13*
X69390000Y-98537400D03*
D15*
X86180000Y-94920000D03*
D13*
X85210000Y-109340000D03*
X82840000Y-107340000D03*
D14*
X86893400Y-104140000D03*
D13*
X84680000Y-108800000D03*
D14*
X83769200Y-76543200D03*
X88100000Y-107020000D03*
X70410600Y-115728000D03*
X85191600Y-113004600D03*
D13*
X88130000Y-98569000D03*
X88120000Y-97810000D03*
X87020000Y-94230000D03*
D14*
X75346400Y-81030000D03*
X86584400Y-90203800D03*
D13*
X86880000Y-95510000D03*
X76970000Y-110199000D03*
X70400000Y-99255600D03*
X86210000Y-93400000D03*
D14*
X87500000Y-124000000D03*
X69720000Y-92840000D03*
X81922400Y-80020000D03*
X69450000Y-115110000D03*
X74380000Y-124440000D03*
D13*
X88120000Y-100477000D03*
D14*
X86893400Y-107950000D03*
D13*
X72300000Y-93190000D03*
X72940000Y-103500000D03*
D14*
X73517200Y-75343200D03*
X85130000Y-107310000D03*
X71221600Y-108864400D03*
X85006200Y-117100000D03*
D13*
X82760000Y-102120000D03*
D14*
X81372400Y-81030000D03*
X77743200Y-76543200D03*
D15*
X73200000Y-93300000D03*
D14*
X86260000Y-89090000D03*
D13*
X85590000Y-102320000D03*
X70380000Y-101400000D03*
X74240000Y-106810000D03*
D14*
X72288400Y-112953800D03*
D13*
X71310000Y-99666600D03*
D14*
X86572800Y-136645800D03*
D13*
X73270000Y-108780000D03*
X82340000Y-104280000D03*
X69230000Y-81940000D03*
X75140000Y-105630000D03*
D14*
X73517200Y-77743200D03*
D13*
X81710000Y-110199000D03*
D14*
X87140000Y-114390000D03*
X86758800Y-116007800D03*
X81968200Y-122085600D03*
D13*
X88120000Y-101239000D03*
D14*
X70520400Y-81030000D03*
X69430000Y-120980000D03*
X71117200Y-77743200D03*
D13*
X86070000Y-100230000D03*
X86760000Y-93950000D03*
X70400000Y-95439400D03*
D14*
X86285400Y-91452200D03*
X88088800Y-91452200D03*
X79569200Y-75343200D03*
D13*
X84193000Y-92190000D03*
D14*
X83122400Y-80020000D03*
X81645200Y-136645800D03*
D13*
X75970000Y-110470000D03*
X86890000Y-99500000D03*
X70400000Y-98900000D03*
X74240000Y-101550000D03*
D14*
X83388200Y-107924600D03*
D13*
X86190000Y-98271400D03*
D15*
X83194000Y-93300000D03*
D14*
X69410000Y-118970000D03*
D13*
X71310000Y-95135000D03*
D14*
X69480000Y-109420000D03*
D13*
X75160000Y-103650000D03*
X69240000Y-87110000D03*
D14*
X70789800Y-124002800D03*
D13*
X80980000Y-107590000D03*
D14*
X86200000Y-117600000D03*
X84556600Y-107924600D03*
D13*
X70400000Y-95058400D03*
D14*
X76819200Y-136645800D03*
D13*
X82450000Y-102390000D03*
X85210000Y-98770000D03*
D14*
X73179200Y-116667800D03*
X84000000Y-124500000D03*
X71717200Y-76543200D03*
X80122400Y-78820000D03*
X85115400Y-105841800D03*
D13*
X71900000Y-92190000D03*
X69390000Y-100823400D03*
X74840000Y-102140000D03*
X83350000Y-101530000D03*
D14*
X70586600Y-104165400D03*
D13*
X69220000Y-85750000D03*
X75150000Y-103270000D03*
D14*
X70665200Y-91976400D03*
X80769200Y-77743200D03*
D13*
X86190000Y-99414400D03*
D14*
X75010000Y-110290000D03*
D13*
X70640000Y-94710000D03*
D14*
X83772400Y-81030000D03*
X82522400Y-78820000D03*
D13*
X88120000Y-98191000D03*
X83340000Y-104049000D03*
D14*
X87620000Y-115310000D03*
X69917200Y-77743200D03*
X83445200Y-137845800D03*
D13*
X82340000Y-103924400D03*
D14*
X69480000Y-111180000D03*
X75668200Y-121085600D03*
D13*
X71790000Y-100500000D03*
X72720000Y-93580000D03*
X71890000Y-103460000D03*
D14*
X73888200Y-115735600D03*
X75578200Y-119405600D03*
X85370000Y-108630000D03*
X73050400Y-107950000D03*
D13*
X73300000Y-94440000D03*
X88120000Y-99715000D03*
X76970000Y-109800000D03*
D14*
X70994800Y-116693200D03*
X74743200Y-75343200D03*
D13*
X83340000Y-104430000D03*
D14*
X70470400Y-78820000D03*
X75943200Y-75343200D03*
X86850000Y-80020000D03*
D13*
X74550000Y-94410000D03*
D14*
X70390000Y-122990000D03*
X70461400Y-117683800D03*
X78343200Y-75343200D03*
D13*
X83120000Y-107000000D03*
X69870000Y-94060000D03*
X72300000Y-96250000D03*
D14*
X77970000Y-97530000D03*
D13*
X82340000Y-105480000D03*
D14*
X82163000Y-115479800D03*
X81322400Y-78820000D03*
X69870400Y-80020000D03*
X76660000Y-96520000D03*
D15*
X74400000Y-93300000D03*
D13*
X88280000Y-87100000D03*
D14*
X87174400Y-89623400D03*
D13*
X82480000Y-107660000D03*
D14*
X87840000Y-93640000D03*
X75390000Y-122690000D03*
X76496400Y-78820000D03*
X74419200Y-136645800D03*
X82243000Y-117095400D03*
X85801200Y-107950000D03*
D13*
X72120000Y-94150000D03*
D14*
X77746400Y-81030000D03*
D13*
X87140000Y-100860000D03*
D14*
X69430000Y-105560000D03*
X84060000Y-104130000D03*
X71444200Y-90298400D03*
D13*
X83644000Y-101250000D03*
X75890000Y-107070000D03*
X72950000Y-101650000D03*
D14*
X87300000Y-117200000D03*
D13*
X80700000Y-108420000D03*
X72710000Y-93200000D03*
X85920000Y-93100000D03*
X83890000Y-108720000D03*
D14*
X86557000Y-135585200D03*
D13*
X85210000Y-97181000D03*
D14*
X86896800Y-75343200D03*
D13*
X71920000Y-93440000D03*
D14*
X69700000Y-89030000D03*
D13*
X71310000Y-98930000D03*
D14*
X86296800Y-76543200D03*
X75880000Y-114580000D03*
X80445200Y-136645800D03*
D13*
X74110000Y-108780000D03*
X75120000Y-102550000D03*
X69550000Y-94310000D03*
D14*
X70614400Y-88471200D03*
X75670000Y-113100000D03*
X82400000Y-123000000D03*
D13*
X85210000Y-99170000D03*
D14*
X69410000Y-125140000D03*
X84172800Y-136645800D03*
D13*
X84560000Y-94890000D03*
D14*
X85050000Y-78820000D03*
D13*
X69390000Y-98918400D03*
X86190000Y-96000400D03*
D14*
X71993200Y-136645800D03*
X77696400Y-78820000D03*
D13*
X75970000Y-109960000D03*
X84500000Y-100400000D03*
X69390000Y-99680400D03*
X75760000Y-108370000D03*
D14*
X81135400Y-105015400D03*
X85972800Y-137845800D03*
D13*
X72310000Y-96670000D03*
D15*
X85780000Y-94490000D03*
D14*
X70969400Y-114839000D03*
X69917200Y-75343200D03*
X75440000Y-111290000D03*
D13*
X88270000Y-81930000D03*
X71310000Y-95516000D03*
D14*
X82340000Y-119570000D03*
D13*
X85210000Y-95600000D03*
X71230000Y-92660000D03*
D14*
X81734800Y-114479800D03*
X88004200Y-90358400D03*
X72188600Y-114839000D03*
D13*
X71310000Y-98168000D03*
D14*
X75019200Y-137845800D03*
D13*
X81710000Y-110580000D03*
X81950000Y-106620000D03*
X86190000Y-96762400D03*
D14*
X72593200Y-137845800D03*
X71655200Y-115753400D03*
D13*
X74160000Y-106410000D03*
X74530000Y-107110000D03*
X85790000Y-100510000D03*
D14*
X73788800Y-117683800D03*
D13*
X85640000Y-92830000D03*
X88120000Y-100858000D03*
X70400000Y-96963400D03*
D14*
X70614400Y-89563400D03*
X72270400Y-80020000D03*
X78019200Y-136645800D03*
D13*
X71820000Y-94420000D03*
D14*
X74320000Y-116650000D03*
D13*
X83950000Y-94390000D03*
X88260000Y-85740000D03*
D14*
X75896400Y-80020000D03*
D13*
X71510000Y-100210000D03*
D14*
X86200000Y-115245800D03*
X73193200Y-136645800D03*
D13*
X85200000Y-101100000D03*
X76970000Y-108530000D03*
D14*
X83944800Y-115300000D03*
X79410000Y-97550000D03*
D13*
X71310000Y-97421000D03*
X73700000Y-108780000D03*
D14*
X75528200Y-115615600D03*
X81490000Y-93060000D03*
D13*
X88260000Y-83100000D03*
X70400000Y-98519000D03*
X72650000Y-101350000D03*
D14*
X70290000Y-113930000D03*
X84900000Y-115100000D03*
D13*
X82130000Y-107970000D03*
X88150000Y-95826000D03*
D14*
X83431400Y-114153600D03*
D13*
X82340000Y-102781400D03*
X87150000Y-96191400D03*
D14*
X82360000Y-111146400D03*
D13*
X81300000Y-107250000D03*
X83340000Y-103668000D03*
X71270000Y-94100000D03*
D14*
X75343200Y-76543200D03*
X79245200Y-136645800D03*
D13*
X69400000Y-94658400D03*
X80710000Y-110540000D03*
D14*
X81700000Y-105679600D03*
X83500000Y-123500000D03*
X87225200Y-92036400D03*
D13*
X72310000Y-97470000D03*
X75980000Y-108720000D03*
D14*
X71117200Y-75343200D03*
D13*
X70130000Y-93792000D03*
D14*
X86640000Y-96950000D03*
D13*
X72560000Y-109190000D03*
D14*
X69430000Y-117070000D03*
X73470400Y-80020000D03*
X74142600Y-107950000D03*
X82245200Y-137845800D03*
D13*
X71580000Y-93780000D03*
X85630000Y-110980000D03*
X87320000Y-94520000D03*
D14*
X74117200Y-76543200D03*
D13*
X75590000Y-106740000D03*
D14*
X75990000Y-95040000D03*
D13*
%TO.N,38*%
X87833200Y-131724400D03*
X84745035Y-99599320D03*
%TO.N,Net-(Sample1-Pad25)*%
X74330000Y-94910000D03*
X80930000Y-135480000D03*
%TD*%
D16*
%TO.N,37*%
X84681905Y-96848570D02*
X84745035Y-96911700D01*
X82947810Y-96848570D02*
X84681905Y-96848570D01*
X79286380Y-100510000D02*
X82947810Y-96848570D01*
%TO.N,Net-(Sample1-Pad20)*%
X78092020Y-131417374D02*
X78092020Y-101042019D01*
X77871160Y-131638234D02*
X78092020Y-131417374D01*
X74839621Y-97789620D02*
X72935570Y-97789620D01*
X72935570Y-97789620D02*
X72880000Y-97845190D01*
X77871160Y-131827630D02*
X77871160Y-131638234D01*
X78092020Y-101042019D02*
X74839621Y-97789620D01*
X77971130Y-131927600D02*
X77871160Y-131827630D01*
%TO.N,Net-(Sample1-Pad19)*%
X74370081Y-98680000D02*
X72880000Y-98680000D01*
X77892960Y-102202879D02*
X74370081Y-98680000D01*
X77892960Y-131334920D02*
X77892960Y-102202879D01*
X77572100Y-131655780D02*
X77892960Y-131334920D01*
X77572100Y-135179300D02*
X77572100Y-131655780D01*
X77876400Y-135483600D02*
X77572100Y-135179300D01*
%TO.N,Net-(Sample1-Pad24)*%
X78888260Y-99421370D02*
X82997930Y-95311700D01*
X78888260Y-130681504D02*
X78888260Y-99421370D01*
X79908400Y-131701644D02*
X78888260Y-130681504D01*
X79908400Y-131927600D02*
X79908400Y-131701644D01*
X82997930Y-95311700D02*
X84750300Y-95311700D01*
%TO.N,Net-(Sample1-Pad22)*%
X78778190Y-131849273D02*
X78878160Y-131949243D01*
X78490140Y-131350185D02*
X78778190Y-131638235D01*
X78778190Y-131638235D02*
X78778190Y-131849273D01*
X78490140Y-99840140D02*
X78490140Y-131350185D01*
X72877900Y-96087420D02*
X74737420Y-96087420D01*
X74737420Y-96087420D02*
X78490140Y-99840140D01*
%TO.N,Net-(Sample1-Pad23)*%
X79298800Y-131514979D02*
X79298800Y-135378800D01*
X78689200Y-130905379D02*
X79298800Y-131514979D01*
X74817780Y-95325410D02*
X78689200Y-99196830D01*
X78689200Y-99196830D02*
X78689200Y-130905379D01*
X72877900Y-95325410D02*
X74817780Y-95325410D01*
X79298800Y-135378800D02*
X79400000Y-135480000D01*
%TO.N,Net-(Sample1-Pad21)*%
X78529570Y-135425170D02*
X78588000Y-135483600D01*
X78291080Y-131754569D02*
X78529570Y-131993059D01*
X78291080Y-100650639D02*
X78291080Y-131754569D01*
X78529570Y-131993059D02*
X78529570Y-135425170D01*
%TO.N,Net-(Sample1-Pad18)*%
X77693900Y-131195700D02*
X76962000Y-131927600D01*
X77693900Y-131195700D02*
X77693900Y-104404800D01*
X77693900Y-104404800D02*
X72889100Y-99600000D01*
%TO.N,Net-(Sample1-Pad19)*%
X72900000Y-98700000D02*
X72880000Y-98680000D01*
%TO.N,Net-(Sample1-Pad21)*%
X74562671Y-96922230D02*
X78291080Y-100650639D01*
X72877900Y-96922230D02*
X74562671Y-96922230D01*
%TO.N,Net-(Sample1-Pad23)*%
X72952960Y-95400470D02*
X72877900Y-95325410D01*
%TO.N,37*%
X84538070Y-131274070D02*
X84538070Y-132093091D01*
X79286380Y-123820248D02*
X82289130Y-126822998D01*
X84538070Y-132093091D02*
X86861779Y-134416800D01*
X82289130Y-126822998D02*
X82289130Y-129025130D01*
X82289130Y-129025130D02*
X84538070Y-131274070D01*
X79286380Y-100510000D02*
X79286380Y-123820248D01*
X86861779Y-134416800D02*
X88188800Y-134416800D01*
%TO.N,39*%
X79485440Y-123596374D02*
X79485440Y-100797539D01*
X86265270Y-131876800D02*
X83413600Y-129025130D01*
X83349709Y-129025130D02*
X83115670Y-128791091D01*
X83115670Y-128791091D02*
X83115670Y-127226604D01*
X79485440Y-100797539D02*
X82509269Y-97773710D01*
X82509269Y-97773710D02*
X84768155Y-97773710D01*
X86265270Y-132093091D02*
X86265270Y-131876800D01*
X87826979Y-133654800D02*
X86265270Y-132093091D01*
X83413600Y-129025130D02*
X83349709Y-129025130D01*
X88188800Y-133654800D02*
X87826979Y-133654800D01*
X83115670Y-127226604D02*
X79485440Y-123596374D01*
%TO.N,40*%
X84682785Y-98600470D02*
X84768155Y-98685840D01*
X82719530Y-98600470D02*
X84682785Y-98600470D01*
X84792070Y-128480070D02*
X79684500Y-123372500D01*
X84792070Y-128791091D02*
X84792070Y-128480070D01*
X79684500Y-123372500D02*
X79684500Y-101635500D01*
X87217379Y-131216400D02*
X84792070Y-128791091D01*
X79684500Y-101635500D02*
X82719530Y-98600470D01*
X87833200Y-131216400D02*
X87217379Y-131216400D01*
%TO.N,Net-(Sample1-Pad37)*%
X82696179Y-132638800D02*
X79087320Y-129029941D01*
X79087320Y-129029941D02*
X79087320Y-100033480D01*
X83312000Y-132638800D02*
X82696179Y-132638800D01*
X79087320Y-100033480D02*
X83021470Y-96099330D01*
X83021470Y-96099330D02*
X84745035Y-96099330D01*
%TO.N,38*%
X87998691Y-130816870D02*
X87586069Y-130816870D01*
X87890221Y-131724400D02*
X88232730Y-131381891D01*
X87833200Y-131724400D02*
X87890221Y-131724400D01*
X85591130Y-128821931D02*
X85591130Y-128460109D01*
X87586069Y-130816870D02*
X85591130Y-128821931D01*
X85591130Y-128460109D02*
X79910000Y-122778979D01*
X88232730Y-131381891D02*
X88232730Y-131050909D01*
X88232730Y-131050909D02*
X87998691Y-130816870D01*
X82700680Y-99599320D02*
X84745035Y-99599320D01*
X79910000Y-102390000D02*
X82700680Y-99599320D01*
X79910000Y-122778979D02*
X79910000Y-102390000D01*
%TD*%
%TA.AperFunction,Conductor*%
%TO.N,GND*%
G36*
X88436939Y-71026505D02*
G01*
X88482694Y-71079309D01*
X88493900Y-71130820D01*
X88493900Y-72740442D01*
X88474215Y-72807481D01*
X88421411Y-72853236D01*
X88352253Y-72863180D01*
X88288697Y-72834155D01*
X88253718Y-72783776D01*
X88213908Y-72677041D01*
X88076808Y-72425961D01*
X88076807Y-72425960D01*
X87970115Y-72283436D01*
X87288621Y-72964930D01*
X87205589Y-72840664D01*
X87059336Y-72694411D01*
X86935068Y-72611378D01*
X87616562Y-71929883D01*
X87616561Y-71929882D01*
X87474046Y-71823196D01*
X87474038Y-71823191D01*
X87222957Y-71686091D01*
X87222958Y-71686091D01*
X86954895Y-71586109D01*
X86675362Y-71525300D01*
X86390001Y-71504891D01*
X86389999Y-71504891D01*
X86104637Y-71525300D01*
X85825104Y-71586109D01*
X85557041Y-71686091D01*
X85305961Y-71823191D01*
X85305953Y-71823196D01*
X85163437Y-71929882D01*
X85163436Y-71929883D01*
X85844931Y-72611378D01*
X85720664Y-72694411D01*
X85574411Y-72840664D01*
X85491378Y-72964931D01*
X84809883Y-72283436D01*
X84809882Y-72283437D01*
X84703196Y-72425953D01*
X84703191Y-72425961D01*
X84566091Y-72677041D01*
X84466109Y-72945104D01*
X84405300Y-73224637D01*
X84384891Y-73509998D01*
X84384891Y-73510001D01*
X84405300Y-73795362D01*
X84466109Y-74074895D01*
X84566091Y-74342958D01*
X84703191Y-74594038D01*
X84703196Y-74594046D01*
X84809882Y-74736561D01*
X84809883Y-74736562D01*
X85491377Y-74055067D01*
X85574411Y-74179336D01*
X85720664Y-74325589D01*
X85844930Y-74408621D01*
X85163436Y-75090115D01*
X85305960Y-75196807D01*
X85305961Y-75196808D01*
X85557042Y-75333908D01*
X85557041Y-75333908D01*
X85825104Y-75433890D01*
X86104637Y-75494699D01*
X86389999Y-75515109D01*
X86390001Y-75515109D01*
X86675362Y-75494699D01*
X86954895Y-75433890D01*
X87222958Y-75333908D01*
X87474047Y-75196803D01*
X87616561Y-75090116D01*
X87616562Y-75090115D01*
X86935068Y-74408621D01*
X87059336Y-74325589D01*
X87205589Y-74179336D01*
X87288621Y-74055068D01*
X87970115Y-74736562D01*
X87970116Y-74736561D01*
X88076803Y-74594047D01*
X88213908Y-74342957D01*
X88213910Y-74342953D01*
X88253718Y-74236224D01*
X88295589Y-74180290D01*
X88361054Y-74155873D01*
X88429327Y-74170725D01*
X88478732Y-74220130D01*
X88493900Y-74279557D01*
X88493900Y-119911178D01*
X88474215Y-119978217D01*
X88421411Y-120023972D01*
X88352253Y-120033916D01*
X88288697Y-120004891D01*
X88251109Y-119946742D01*
X88198854Y-119772199D01*
X88060444Y-119451329D01*
X88060438Y-119451316D01*
X87885710Y-119148677D01*
X87677032Y-118868374D01*
X87668850Y-118859702D01*
X86954919Y-119573632D01*
X86881906Y-119478479D01*
X86696521Y-119293094D01*
X86601366Y-119220079D01*
X87312180Y-118509265D01*
X87312179Y-118509264D01*
X87169519Y-118389557D01*
X86877538Y-118197519D01*
X86565260Y-118040685D01*
X86565254Y-118040683D01*
X86236869Y-117921161D01*
X86236866Y-117921160D01*
X85896828Y-117840570D01*
X85549723Y-117800000D01*
X85200277Y-117800000D01*
X84853172Y-117840570D01*
X84853170Y-117840570D01*
X84513133Y-117921160D01*
X84513130Y-117921161D01*
X84184745Y-118040683D01*
X84184739Y-118040685D01*
X83872461Y-118197519D01*
X83580480Y-118389557D01*
X83437819Y-118509264D01*
X83437818Y-118509265D01*
X84148633Y-119220079D01*
X84053479Y-119293094D01*
X83868094Y-119478479D01*
X83795080Y-119573633D01*
X83081148Y-118859701D01*
X83081147Y-118859702D01*
X83072976Y-118868363D01*
X83072972Y-118868368D01*
X82864289Y-119148677D01*
X82689561Y-119451316D01*
X82689555Y-119451329D01*
X82551145Y-119772199D01*
X82450916Y-120106988D01*
X82450914Y-120106997D01*
X82390236Y-120451119D01*
X82390235Y-120451130D01*
X82369916Y-120799996D01*
X82369916Y-120800003D01*
X82390235Y-121148869D01*
X82390236Y-121148880D01*
X82450914Y-121493002D01*
X82450916Y-121493011D01*
X82551145Y-121827800D01*
X82689555Y-122148670D01*
X82689561Y-122148683D01*
X82864289Y-122451322D01*
X83072967Y-122731625D01*
X83081148Y-122740296D01*
X83795079Y-122026365D01*
X83868094Y-122121521D01*
X84053479Y-122306906D01*
X84148632Y-122379919D01*
X83437818Y-123090733D01*
X83437819Y-123090734D01*
X83580484Y-123210445D01*
X83872461Y-123402480D01*
X84184739Y-123559314D01*
X84184745Y-123559316D01*
X84513130Y-123678838D01*
X84513133Y-123678839D01*
X84853171Y-123759429D01*
X85182973Y-123797977D01*
X85247274Y-123825311D01*
X85286590Y-123883070D01*
X85288437Y-123952915D01*
X85252231Y-124012672D01*
X85242888Y-124020406D01*
X85163437Y-124079882D01*
X85163436Y-124079883D01*
X85844931Y-124761378D01*
X85720664Y-124844411D01*
X85574411Y-124990664D01*
X85491378Y-125114931D01*
X84809883Y-124433436D01*
X84809882Y-124433437D01*
X84703196Y-124575953D01*
X84703191Y-124575961D01*
X84566091Y-124827041D01*
X84466109Y-125095104D01*
X84405300Y-125374637D01*
X84384891Y-125659998D01*
X84384891Y-125660001D01*
X84405300Y-125945362D01*
X84466109Y-126224895D01*
X84566091Y-126492958D01*
X84703191Y-126744038D01*
X84703196Y-126744046D01*
X84809882Y-126886561D01*
X84809883Y-126886562D01*
X85491377Y-126205067D01*
X85574411Y-126329336D01*
X85720664Y-126475589D01*
X85844930Y-126558621D01*
X85163436Y-127240115D01*
X85305960Y-127346807D01*
X85305961Y-127346808D01*
X85557042Y-127483908D01*
X85557041Y-127483908D01*
X85825104Y-127583890D01*
X86104637Y-127644699D01*
X86389999Y-127665109D01*
X86390001Y-127665109D01*
X86675362Y-127644699D01*
X86954895Y-127583890D01*
X87222958Y-127483908D01*
X87474047Y-127346803D01*
X87616561Y-127240116D01*
X87616562Y-127240115D01*
X86935068Y-126558621D01*
X87059336Y-126475589D01*
X87205589Y-126329336D01*
X87288621Y-126205068D01*
X87970115Y-126886562D01*
X87970116Y-126886561D01*
X88076803Y-126744047D01*
X88213908Y-126492957D01*
X88213910Y-126492953D01*
X88253718Y-126386224D01*
X88295589Y-126330290D01*
X88361054Y-126305873D01*
X88429327Y-126320725D01*
X88478732Y-126370130D01*
X88493900Y-126429557D01*
X88493900Y-130800542D01*
X88474215Y-130867581D01*
X88421411Y-130913336D01*
X88352253Y-130923280D01*
X88288697Y-130894255D01*
X88282219Y-130888223D01*
X88083678Y-130689682D01*
X88028534Y-130666840D01*
X87699576Y-130666840D01*
X87632537Y-130647155D01*
X87611895Y-130630521D01*
X86084374Y-129103001D01*
X86050889Y-129041678D01*
X86055873Y-128971986D01*
X86097745Y-128916053D01*
X86129638Y-128898801D01*
X86156491Y-128889028D01*
X86237416Y-128821124D01*
X86290237Y-128729636D01*
X86290238Y-128729629D01*
X86293947Y-128719441D01*
X86297466Y-128720722D01*
X86319704Y-128675846D01*
X86379649Y-128639951D01*
X86449484Y-128642162D01*
X86507036Y-128681778D01*
X86524723Y-128720507D01*
X86527653Y-128719441D01*
X86531364Y-128729638D01*
X86584181Y-128821120D01*
X86584182Y-128821121D01*
X86584184Y-128821124D01*
X86665109Y-128889028D01*
X86764380Y-128925160D01*
X86764382Y-128925160D01*
X86870018Y-128925160D01*
X86870020Y-128925160D01*
X86969291Y-128889028D01*
X87050216Y-128821124D01*
X87103037Y-128729636D01*
X87121381Y-128625600D01*
X87103037Y-128521564D01*
X87050216Y-128430076D01*
X86969291Y-128362172D01*
X86870020Y-128326040D01*
X86764380Y-128326040D01*
X86665110Y-128362172D01*
X86665109Y-128362172D01*
X86665108Y-128362173D01*
X86584185Y-128430074D01*
X86584181Y-128430078D01*
X86531364Y-128521561D01*
X86527653Y-128531759D01*
X86524134Y-128530478D01*
X86501888Y-128575362D01*
X86441940Y-128611251D01*
X86372106Y-128609033D01*
X86314556Y-128569412D01*
X86296873Y-128530693D01*
X86293947Y-128531759D01*
X86290237Y-128521566D01*
X86290237Y-128521564D01*
X86237416Y-128430076D01*
X86156491Y-128362172D01*
X86057220Y-128326040D01*
X85951580Y-128326040D01*
X85932678Y-128332920D01*
X85852306Y-128362173D01*
X85842913Y-128367597D01*
X85840989Y-128364265D01*
X85795387Y-128384199D01*
X85726400Y-128373128D01*
X85692065Y-128348870D01*
X80096349Y-122753154D01*
X80062864Y-122691831D01*
X80060030Y-122665473D01*
X80060030Y-110490000D01*
X82819884Y-110490000D01*
X82839100Y-110685111D01*
X82896013Y-110872727D01*
X82961395Y-110995049D01*
X83451700Y-110504745D01*
X83451700Y-110538488D01*
X83476799Y-110632158D01*
X83525287Y-110716141D01*
X83593859Y-110784713D01*
X83677842Y-110833201D01*
X83771512Y-110858300D01*
X83805252Y-110858300D01*
X83314948Y-111348604D01*
X83437267Y-111413985D01*
X83624888Y-111470899D01*
X83820000Y-111490115D01*
X84015111Y-111470899D01*
X84202732Y-111413985D01*
X84375629Y-111321569D01*
X84380698Y-111318183D01*
X84381811Y-111319849D01*
X84437643Y-111296125D01*
X84506513Y-111307904D01*
X84558082Y-111355047D01*
X84575977Y-111422586D01*
X84566582Y-111466741D01*
X84509537Y-111604461D01*
X84509536Y-111604465D01*
X84489059Y-111759999D01*
X84489059Y-111760000D01*
X84509536Y-111915534D01*
X84509537Y-111915538D01*
X84566582Y-112053258D01*
X84574051Y-112122727D01*
X84542776Y-112185206D01*
X84482687Y-112220858D01*
X84412861Y-112218364D01*
X84381284Y-112200939D01*
X84380698Y-112201817D01*
X84375629Y-112198430D01*
X84202732Y-112106014D01*
X84015111Y-112049100D01*
X83820000Y-112029884D01*
X83624888Y-112049100D01*
X83437270Y-112106014D01*
X83314949Y-112171394D01*
X83314949Y-112171395D01*
X83805253Y-112661700D01*
X83771512Y-112661700D01*
X83677842Y-112686799D01*
X83593859Y-112735287D01*
X83525287Y-112803859D01*
X83476799Y-112887842D01*
X83451700Y-112981512D01*
X83451700Y-113015254D01*
X82961395Y-112524949D01*
X82961394Y-112524949D01*
X82896014Y-112647270D01*
X82839100Y-112834888D01*
X82819884Y-113030000D01*
X82839100Y-113225111D01*
X82896013Y-113412727D01*
X82961395Y-113535049D01*
X83451700Y-113044745D01*
X83451700Y-113078488D01*
X83476799Y-113172158D01*
X83525287Y-113256141D01*
X83593859Y-113324713D01*
X83677842Y-113373201D01*
X83771512Y-113398300D01*
X83805253Y-113398300D01*
X83314948Y-113888604D01*
X83437267Y-113953985D01*
X83624888Y-114010899D01*
X83820000Y-114030115D01*
X84015111Y-114010899D01*
X84202730Y-113953985D01*
X84325050Y-113888603D01*
X83834748Y-113398300D01*
X83868488Y-113398300D01*
X83962158Y-113373201D01*
X84046141Y-113324713D01*
X84114713Y-113256141D01*
X84163201Y-113172158D01*
X84188300Y-113078488D01*
X84188300Y-113044746D01*
X84678603Y-113535049D01*
X84743985Y-113412730D01*
X84800899Y-113225111D01*
X84820115Y-113030000D01*
X84800899Y-112834888D01*
X84743985Y-112647267D01*
X84651569Y-112474370D01*
X84648183Y-112469302D01*
X84649845Y-112468191D01*
X84626122Y-112412331D01*
X84637915Y-112343463D01*
X84685068Y-112291904D01*
X84752611Y-112274023D01*
X84796738Y-112283416D01*
X84934465Y-112340464D01*
X85071904Y-112358558D01*
X85089999Y-112360941D01*
X85090000Y-112360941D01*
X85090001Y-112360941D01*
X85106209Y-112358806D01*
X85245535Y-112340464D01*
X85383260Y-112283416D01*
X85452726Y-112275948D01*
X85515206Y-112307223D01*
X85550858Y-112367312D01*
X85548364Y-112437137D01*
X85530942Y-112468717D01*
X85531817Y-112469302D01*
X85528430Y-112474370D01*
X85436014Y-112647267D01*
X85379100Y-112834888D01*
X85359884Y-113030000D01*
X85379100Y-113225111D01*
X85436013Y-113412727D01*
X85501395Y-113535049D01*
X85991700Y-113044745D01*
X85991700Y-113078488D01*
X86016799Y-113172158D01*
X86065287Y-113256141D01*
X86133859Y-113324713D01*
X86217842Y-113373201D01*
X86311512Y-113398300D01*
X86345253Y-113398300D01*
X85854948Y-113888604D01*
X85977267Y-113953985D01*
X86164888Y-114010899D01*
X86360000Y-114030115D01*
X86555111Y-114010899D01*
X86742730Y-113953985D01*
X86865050Y-113888603D01*
X86374748Y-113398300D01*
X86408488Y-113398300D01*
X86502158Y-113373201D01*
X86586141Y-113324713D01*
X86654713Y-113256141D01*
X86703201Y-113172158D01*
X86728300Y-113078488D01*
X86728300Y-113044747D01*
X87218603Y-113535050D01*
X87283985Y-113412730D01*
X87340899Y-113225111D01*
X87360115Y-113030000D01*
X87340899Y-112834888D01*
X87283985Y-112647267D01*
X87218604Y-112524948D01*
X86728300Y-113015252D01*
X86728300Y-112981512D01*
X86703201Y-112887842D01*
X86654713Y-112803859D01*
X86586141Y-112735287D01*
X86502158Y-112686799D01*
X86408488Y-112661700D01*
X86374747Y-112661700D01*
X86865049Y-112171395D01*
X86742727Y-112106013D01*
X86555111Y-112049100D01*
X86360000Y-112029884D01*
X86164888Y-112049100D01*
X85977267Y-112106014D01*
X85804370Y-112198430D01*
X85799302Y-112201817D01*
X85798194Y-112200159D01*
X85742300Y-112223880D01*
X85673436Y-112212071D01*
X85621888Y-112164905D01*
X85604023Y-112097358D01*
X85613415Y-112053262D01*
X85670464Y-111915535D01*
X85690941Y-111760000D01*
X85670464Y-111604465D01*
X85613416Y-111466741D01*
X85605948Y-111397272D01*
X85637223Y-111334793D01*
X85697312Y-111299141D01*
X85767137Y-111301635D01*
X85798715Y-111319060D01*
X85799302Y-111318183D01*
X85804370Y-111321569D01*
X85977267Y-111413985D01*
X86164888Y-111470899D01*
X86360000Y-111490115D01*
X86555111Y-111470899D01*
X86742730Y-111413985D01*
X86865050Y-111348603D01*
X86374747Y-110858300D01*
X86408488Y-110858300D01*
X86502158Y-110833201D01*
X86586141Y-110784713D01*
X86654713Y-110716141D01*
X86703201Y-110632158D01*
X86728300Y-110538488D01*
X86728300Y-110504747D01*
X87218603Y-110995050D01*
X87283985Y-110872730D01*
X87340899Y-110685111D01*
X87360115Y-110490000D01*
X87340899Y-110294888D01*
X87283985Y-110107267D01*
X87218604Y-109984948D01*
X86728300Y-110475252D01*
X86728300Y-110441512D01*
X86703201Y-110347842D01*
X86654713Y-110263859D01*
X86586141Y-110195287D01*
X86502158Y-110146799D01*
X86408488Y-110121700D01*
X86374747Y-110121700D01*
X86865049Y-109631395D01*
X86742727Y-109566013D01*
X86555111Y-109509100D01*
X86360000Y-109489884D01*
X86164888Y-109509100D01*
X85977270Y-109566014D01*
X85854949Y-109631394D01*
X85854949Y-109631395D01*
X86345254Y-110121700D01*
X86311512Y-110121700D01*
X86217842Y-110146799D01*
X86133859Y-110195287D01*
X86065287Y-110263859D01*
X86016799Y-110347842D01*
X85991700Y-110441512D01*
X85991700Y-110475253D01*
X85501395Y-109984949D01*
X85501394Y-109984949D01*
X85436014Y-110107270D01*
X85379100Y-110294888D01*
X85359884Y-110490000D01*
X85379100Y-110685111D01*
X85436014Y-110872732D01*
X85528430Y-111045629D01*
X85531817Y-111050698D01*
X85530154Y-111051808D01*
X85553877Y-111107674D01*
X85542082Y-111176541D01*
X85494926Y-111228098D01*
X85427383Y-111245976D01*
X85383258Y-111236582D01*
X85245538Y-111179537D01*
X85245536Y-111179536D01*
X85245535Y-111179536D01*
X85167767Y-111169297D01*
X85090001Y-111159059D01*
X85089999Y-111159059D01*
X84934465Y-111179536D01*
X84934461Y-111179537D01*
X84796741Y-111236582D01*
X84727272Y-111244051D01*
X84664793Y-111212775D01*
X84629141Y-111152686D01*
X84631635Y-111082861D01*
X84649063Y-111051286D01*
X84648183Y-111050698D01*
X84651569Y-111045629D01*
X84743985Y-110872732D01*
X84800899Y-110685111D01*
X84820115Y-110490000D01*
X84800899Y-110294888D01*
X84743985Y-110107267D01*
X84678604Y-109984948D01*
X84188300Y-110475252D01*
X84188300Y-110441512D01*
X84163201Y-110347842D01*
X84114713Y-110263859D01*
X84046141Y-110195287D01*
X83962158Y-110146799D01*
X83868488Y-110121700D01*
X83834747Y-110121700D01*
X84325049Y-109631395D01*
X84202727Y-109566013D01*
X84015111Y-109509100D01*
X83820000Y-109489884D01*
X83624888Y-109509100D01*
X83437270Y-109566014D01*
X83314949Y-109631394D01*
X83314949Y-109631395D01*
X83805254Y-110121700D01*
X83771512Y-110121700D01*
X83677842Y-110146799D01*
X83593859Y-110195287D01*
X83525287Y-110263859D01*
X83476799Y-110347842D01*
X83451700Y-110441512D01*
X83451700Y-110475254D01*
X82961395Y-109984949D01*
X82961394Y-109984949D01*
X82896014Y-110107270D01*
X82839100Y-110294888D01*
X82819884Y-110490000D01*
X80060030Y-110490000D01*
X80060030Y-102870000D01*
X82819884Y-102870000D01*
X82839100Y-103065111D01*
X82896013Y-103252727D01*
X82961395Y-103375049D01*
X83451700Y-102884745D01*
X83451700Y-102918488D01*
X83476799Y-103012158D01*
X83525287Y-103096141D01*
X83593859Y-103164713D01*
X83677842Y-103213201D01*
X83771512Y-103238300D01*
X83805252Y-103238300D01*
X83314948Y-103728604D01*
X83437267Y-103793985D01*
X83624888Y-103850899D01*
X83820000Y-103870115D01*
X84015111Y-103850899D01*
X84202732Y-103793985D01*
X84375629Y-103701569D01*
X84380698Y-103698183D01*
X84381811Y-103699849D01*
X84437643Y-103676125D01*
X84506513Y-103687904D01*
X84558082Y-103735047D01*
X84575977Y-103802586D01*
X84566582Y-103846741D01*
X84509537Y-103984461D01*
X84509536Y-103984465D01*
X84489059Y-104139999D01*
X84489059Y-104140000D01*
X84509536Y-104295534D01*
X84509537Y-104295538D01*
X84566582Y-104433258D01*
X84574051Y-104502727D01*
X84542776Y-104565206D01*
X84482687Y-104600858D01*
X84412861Y-104598364D01*
X84381284Y-104580939D01*
X84380698Y-104581817D01*
X84375629Y-104578430D01*
X84202732Y-104486014D01*
X84015111Y-104429100D01*
X83820000Y-104409884D01*
X83624888Y-104429100D01*
X83437270Y-104486014D01*
X83314949Y-104551394D01*
X83314949Y-104551395D01*
X83805253Y-105041700D01*
X83771512Y-105041700D01*
X83677842Y-105066799D01*
X83593859Y-105115287D01*
X83525287Y-105183859D01*
X83476799Y-105267842D01*
X83451700Y-105361512D01*
X83451700Y-105395254D01*
X82961395Y-104904949D01*
X82961394Y-104904949D01*
X82896014Y-105027270D01*
X82839100Y-105214888D01*
X82819884Y-105410000D01*
X82839100Y-105605111D01*
X82896013Y-105792727D01*
X82961395Y-105915049D01*
X83451700Y-105424745D01*
X83451700Y-105458488D01*
X83476799Y-105552158D01*
X83525287Y-105636141D01*
X83593859Y-105704713D01*
X83677842Y-105753201D01*
X83771512Y-105778300D01*
X83805253Y-105778300D01*
X83314948Y-106268604D01*
X83437267Y-106333985D01*
X83624888Y-106390899D01*
X83820000Y-106410115D01*
X84015111Y-106390899D01*
X84202730Y-106333985D01*
X84325050Y-106268603D01*
X83834748Y-105778300D01*
X83868488Y-105778300D01*
X83962158Y-105753201D01*
X84046141Y-105704713D01*
X84114713Y-105636141D01*
X84163201Y-105552158D01*
X84188300Y-105458488D01*
X84188300Y-105424746D01*
X84678603Y-105915049D01*
X84743985Y-105792730D01*
X84800899Y-105605111D01*
X84820115Y-105410000D01*
X84800899Y-105214888D01*
X84743985Y-105027267D01*
X84651569Y-104854370D01*
X84648183Y-104849302D01*
X84649845Y-104848191D01*
X84626122Y-104792331D01*
X84637915Y-104723463D01*
X84685068Y-104671904D01*
X84752611Y-104654023D01*
X84796738Y-104663416D01*
X84934465Y-104720464D01*
X85071904Y-104738558D01*
X85089999Y-104740941D01*
X85090000Y-104740941D01*
X85090001Y-104740941D01*
X85106209Y-104738806D01*
X85245535Y-104720464D01*
X85383260Y-104663416D01*
X85452726Y-104655948D01*
X85515206Y-104687223D01*
X85550858Y-104747312D01*
X85548364Y-104817137D01*
X85530942Y-104848717D01*
X85531817Y-104849302D01*
X85528430Y-104854370D01*
X85436014Y-105027267D01*
X85379100Y-105214888D01*
X85359884Y-105410000D01*
X85379100Y-105605111D01*
X85436013Y-105792727D01*
X85501395Y-105915049D01*
X85991700Y-105424745D01*
X85991700Y-105458488D01*
X86016799Y-105552158D01*
X86065287Y-105636141D01*
X86133859Y-105704713D01*
X86217842Y-105753201D01*
X86311512Y-105778300D01*
X86345253Y-105778300D01*
X85854948Y-106268604D01*
X85977267Y-106333985D01*
X86164888Y-106390899D01*
X86360000Y-106410115D01*
X86555111Y-106390899D01*
X86742730Y-106333985D01*
X86865050Y-106268603D01*
X86374748Y-105778300D01*
X86408488Y-105778300D01*
X86502158Y-105753201D01*
X86586141Y-105704713D01*
X86654713Y-105636141D01*
X86703201Y-105552158D01*
X86728300Y-105458488D01*
X86728300Y-105424747D01*
X87218603Y-105915050D01*
X87283985Y-105792730D01*
X87340899Y-105605111D01*
X87360115Y-105410000D01*
X87340899Y-105214888D01*
X87283985Y-105027267D01*
X87218604Y-104904948D01*
X86728300Y-105395252D01*
X86728300Y-105361512D01*
X86703201Y-105267842D01*
X86654713Y-105183859D01*
X86586141Y-105115287D01*
X86502158Y-105066799D01*
X86408488Y-105041700D01*
X86374747Y-105041700D01*
X86865049Y-104551395D01*
X86742727Y-104486013D01*
X86555111Y-104429100D01*
X86360000Y-104409884D01*
X86164888Y-104429100D01*
X85977267Y-104486014D01*
X85804370Y-104578430D01*
X85799302Y-104581817D01*
X85798194Y-104580159D01*
X85742300Y-104603880D01*
X85673436Y-104592071D01*
X85621888Y-104544905D01*
X85604023Y-104477358D01*
X85613415Y-104433262D01*
X85670464Y-104295535D01*
X85690941Y-104140000D01*
X85670464Y-103984465D01*
X85613416Y-103846741D01*
X85605948Y-103777272D01*
X85637223Y-103714793D01*
X85697312Y-103679141D01*
X85767137Y-103681635D01*
X85798715Y-103699060D01*
X85799302Y-103698183D01*
X85804370Y-103701569D01*
X85977267Y-103793985D01*
X86164888Y-103850899D01*
X86360000Y-103870115D01*
X86555111Y-103850899D01*
X86742730Y-103793985D01*
X86865050Y-103728603D01*
X86374747Y-103238300D01*
X86408488Y-103238300D01*
X86502158Y-103213201D01*
X86586141Y-103164713D01*
X86654713Y-103096141D01*
X86703201Y-103012158D01*
X86728300Y-102918488D01*
X86728300Y-102884747D01*
X87218603Y-103375050D01*
X87283985Y-103252730D01*
X87340899Y-103065111D01*
X87360115Y-102870000D01*
X87340899Y-102674888D01*
X87283985Y-102487267D01*
X87218604Y-102364948D01*
X86728300Y-102855252D01*
X86728300Y-102821512D01*
X86703201Y-102727842D01*
X86654713Y-102643859D01*
X86586141Y-102575287D01*
X86502158Y-102526799D01*
X86408488Y-102501700D01*
X86374747Y-102501700D01*
X86865049Y-102011395D01*
X86742727Y-101946013D01*
X86555111Y-101889100D01*
X86360000Y-101869884D01*
X86164888Y-101889100D01*
X85977270Y-101946014D01*
X85854949Y-102011394D01*
X85854949Y-102011395D01*
X86345254Y-102501700D01*
X86311512Y-102501700D01*
X86217842Y-102526799D01*
X86133859Y-102575287D01*
X86065287Y-102643859D01*
X86016799Y-102727842D01*
X85991700Y-102821512D01*
X85991700Y-102855253D01*
X85501395Y-102364949D01*
X85501394Y-102364949D01*
X85436014Y-102487270D01*
X85379100Y-102674888D01*
X85359884Y-102870000D01*
X85379100Y-103065111D01*
X85436014Y-103252732D01*
X85528430Y-103425629D01*
X85531817Y-103430698D01*
X85530154Y-103431808D01*
X85553877Y-103487674D01*
X85542082Y-103556541D01*
X85494926Y-103608098D01*
X85427383Y-103625976D01*
X85383258Y-103616582D01*
X85245538Y-103559537D01*
X85245536Y-103559536D01*
X85245535Y-103559536D01*
X85167767Y-103549297D01*
X85090001Y-103539059D01*
X85089999Y-103539059D01*
X84934465Y-103559536D01*
X84934461Y-103559537D01*
X84796741Y-103616582D01*
X84727272Y-103624051D01*
X84664793Y-103592775D01*
X84629141Y-103532686D01*
X84631635Y-103462861D01*
X84649063Y-103431286D01*
X84648183Y-103430698D01*
X84651569Y-103425629D01*
X84743985Y-103252732D01*
X84800899Y-103065111D01*
X84820115Y-102870000D01*
X84800899Y-102674888D01*
X84743985Y-102487267D01*
X84678604Y-102364948D01*
X84188300Y-102855252D01*
X84188300Y-102821512D01*
X84163201Y-102727842D01*
X84114713Y-102643859D01*
X84046141Y-102575287D01*
X83962158Y-102526799D01*
X83868488Y-102501700D01*
X83834747Y-102501700D01*
X84325049Y-102011395D01*
X84202727Y-101946013D01*
X84015111Y-101889100D01*
X83820000Y-101869884D01*
X83624888Y-101889100D01*
X83437270Y-101946014D01*
X83314949Y-102011394D01*
X83314949Y-102011395D01*
X83805254Y-102501700D01*
X83771512Y-102501700D01*
X83677842Y-102526799D01*
X83593859Y-102575287D01*
X83525287Y-102643859D01*
X83476799Y-102727842D01*
X83451700Y-102821512D01*
X83451700Y-102855254D01*
X82961395Y-102364949D01*
X82961394Y-102364949D01*
X82896014Y-102487270D01*
X82839100Y-102674888D01*
X82819884Y-102870000D01*
X80060030Y-102870000D01*
X80060030Y-102503506D01*
X80079715Y-102436467D01*
X80096349Y-102415825D01*
X82726506Y-99785669D01*
X82787829Y-99752184D01*
X82814187Y-99749350D01*
X84416023Y-99749350D01*
X84483062Y-99769035D01*
X84511012Y-99793643D01*
X84512016Y-99794839D01*
X84512019Y-99794844D01*
X84592944Y-99862748D01*
X84692215Y-99898880D01*
X84692217Y-99898880D01*
X84797853Y-99898880D01*
X84797855Y-99898880D01*
X84897126Y-99862748D01*
X84978051Y-99794844D01*
X85030872Y-99703356D01*
X85049216Y-99599320D01*
X85030872Y-99495284D01*
X84978742Y-99404992D01*
X84978053Y-99403799D01*
X84978052Y-99403798D01*
X84978051Y-99403796D01*
X84897126Y-99335892D01*
X84797855Y-99299760D01*
X84692215Y-99299760D01*
X84592945Y-99335892D01*
X84592944Y-99335892D01*
X84592943Y-99335893D01*
X84512022Y-99403792D01*
X84511016Y-99404992D01*
X84508972Y-99406351D01*
X84503708Y-99410769D01*
X84503215Y-99410182D01*
X84452846Y-99443696D01*
X84416023Y-99449290D01*
X83613640Y-99449290D01*
X83546601Y-99429605D01*
X83500846Y-99376801D01*
X83490902Y-99307643D01*
X83506253Y-99263290D01*
X83514054Y-99249778D01*
X83546237Y-99194036D01*
X83564581Y-99090000D01*
X83546237Y-98985964D01*
X83531698Y-98960782D01*
X83517679Y-98936500D01*
X83501206Y-98868599D01*
X83524059Y-98802573D01*
X83578980Y-98759382D01*
X83625066Y-98750500D01*
X84387993Y-98750500D01*
X84455032Y-98770185D01*
X84495380Y-98812500D01*
X84535136Y-98881360D01*
X84535137Y-98881361D01*
X84535139Y-98881364D01*
X84616064Y-98949268D01*
X84715335Y-98985400D01*
X84715337Y-98985400D01*
X84820973Y-98985400D01*
X84820975Y-98985400D01*
X84920246Y-98949268D01*
X85001171Y-98881364D01*
X85053992Y-98789876D01*
X85072336Y-98685840D01*
X85053992Y-98581804D01*
X85001171Y-98490316D01*
X84920246Y-98422412D01*
X84820975Y-98386280D01*
X84715335Y-98386280D01*
X84682605Y-98398193D01*
X84616061Y-98422413D01*
X84606668Y-98427837D01*
X84605846Y-98426414D01*
X84553226Y-98449443D01*
X84537530Y-98450440D01*
X83648073Y-98450440D01*
X83581034Y-98430755D01*
X83535279Y-98377951D01*
X83525335Y-98308793D01*
X83540684Y-98264442D01*
X83546237Y-98254826D01*
X83564581Y-98150790D01*
X83550207Y-98069270D01*
X83557951Y-97999834D01*
X83602007Y-97945604D01*
X83668388Y-97923802D01*
X83672323Y-97923740D01*
X84439143Y-97923740D01*
X84506182Y-97943425D01*
X84534132Y-97968033D01*
X84535136Y-97969229D01*
X84535139Y-97969234D01*
X84616064Y-98037138D01*
X84715335Y-98073270D01*
X84715337Y-98073270D01*
X84820973Y-98073270D01*
X84820975Y-98073270D01*
X84920246Y-98037138D01*
X85001171Y-97969234D01*
X85053992Y-97877746D01*
X85072336Y-97773710D01*
X85053992Y-97669674D01*
X85001171Y-97578186D01*
X84920246Y-97510282D01*
X84820975Y-97474150D01*
X84715335Y-97474150D01*
X84616065Y-97510282D01*
X84616064Y-97510282D01*
X84616063Y-97510283D01*
X84535142Y-97578182D01*
X84534136Y-97579382D01*
X84532092Y-97580741D01*
X84526828Y-97585159D01*
X84526335Y-97584572D01*
X84475966Y-97618086D01*
X84439143Y-97623680D01*
X83634194Y-97623680D01*
X83567155Y-97603995D01*
X83521400Y-97551191D01*
X83511456Y-97482033D01*
X83526806Y-97437681D01*
X83546237Y-97404026D01*
X83564581Y-97299990D01*
X83546237Y-97195954D01*
X83540293Y-97185658D01*
X83539681Y-97184598D01*
X83523210Y-97116698D01*
X83546063Y-97050671D01*
X83600985Y-97007482D01*
X83647069Y-96998600D01*
X84377713Y-96998600D01*
X84444752Y-97018285D01*
X84485099Y-97060598D01*
X84512019Y-97107224D01*
X84592944Y-97175128D01*
X84692215Y-97211260D01*
X84692217Y-97211260D01*
X84797853Y-97211260D01*
X84797855Y-97211260D01*
X84897126Y-97175128D01*
X84978051Y-97107224D01*
X85030872Y-97015736D01*
X85049216Y-96911700D01*
X85030872Y-96807664D01*
X85004461Y-96761920D01*
X84978053Y-96716179D01*
X84978052Y-96716178D01*
X84978051Y-96716176D01*
X84947186Y-96690277D01*
X84897127Y-96648272D01*
X84868860Y-96637984D01*
X84825043Y-96622035D01*
X84768781Y-96580611D01*
X84743845Y-96515342D01*
X84758155Y-96446953D01*
X84807167Y-96397158D01*
X84825038Y-96388995D01*
X84897126Y-96362758D01*
X84978051Y-96294854D01*
X85030872Y-96203366D01*
X85049216Y-96099330D01*
X85030872Y-95995294D01*
X84978051Y-95903806D01*
X84897126Y-95835902D01*
X84861661Y-95822993D01*
X84805399Y-95781568D01*
X84780464Y-95716299D01*
X84794774Y-95647911D01*
X84843786Y-95598115D01*
X84861658Y-95589953D01*
X84902391Y-95575128D01*
X84983316Y-95507224D01*
X85036137Y-95415736D01*
X85054481Y-95311700D01*
X85036137Y-95207664D01*
X85006352Y-95156076D01*
X84983318Y-95116179D01*
X84983317Y-95116178D01*
X84983316Y-95116176D01*
X84902391Y-95048272D01*
X84803120Y-95012140D01*
X84697480Y-95012140D01*
X84598210Y-95048272D01*
X84598209Y-95048272D01*
X84598208Y-95048273D01*
X84517287Y-95116172D01*
X84516281Y-95117372D01*
X84514237Y-95118731D01*
X84508973Y-95123149D01*
X84508480Y-95122562D01*
X84458111Y-95156076D01*
X84421288Y-95161670D01*
X83671211Y-95161670D01*
X83604172Y-95141985D01*
X83558417Y-95089181D01*
X83548473Y-95020023D01*
X83549800Y-95014732D01*
X83549618Y-95014700D01*
X83551503Y-95004013D01*
X83569846Y-94899980D01*
X83551502Y-94795944D01*
X83498681Y-94704456D01*
X83417756Y-94636552D01*
X83318485Y-94600420D01*
X83212845Y-94600420D01*
X83113575Y-94636552D01*
X83113574Y-94636552D01*
X83113573Y-94636553D01*
X83032650Y-94704454D01*
X83032646Y-94704458D01*
X82979829Y-94795941D01*
X82979827Y-94795946D01*
X82961484Y-94899979D01*
X82961484Y-94899980D01*
X82979828Y-95004016D01*
X82979829Y-95004017D01*
X82980322Y-95004871D01*
X82980685Y-95006370D01*
X82983539Y-95014210D01*
X82982664Y-95014528D01*
X82996791Y-95072772D01*
X82973937Y-95138798D01*
X82920391Y-95181425D01*
X82912948Y-95184508D01*
X82912942Y-95184512D01*
X78988681Y-99108774D01*
X78927358Y-99142259D01*
X78857666Y-99137275D01*
X78813319Y-99108774D01*
X74902767Y-95198222D01*
X74869659Y-95184508D01*
X74847623Y-95175380D01*
X74734203Y-95175380D01*
X74667164Y-95155695D01*
X74621409Y-95102891D01*
X74611465Y-95033733D01*
X74614486Y-95021693D01*
X74615835Y-95014038D01*
X74615837Y-95014036D01*
X74634181Y-94910000D01*
X74615837Y-94805964D01*
X74563016Y-94714476D01*
X74482091Y-94646572D01*
X74382820Y-94610440D01*
X74277180Y-94610440D01*
X74177910Y-94646572D01*
X74177909Y-94646572D01*
X74177908Y-94646573D01*
X74096985Y-94714474D01*
X74096981Y-94714478D01*
X74044164Y-94805961D01*
X74044162Y-94805966D01*
X74027586Y-94899979D01*
X74025819Y-94910000D01*
X74042396Y-95004017D01*
X74046047Y-95024720D01*
X74043351Y-95025195D01*
X74046748Y-95078708D01*
X74012773Y-95139761D01*
X73951184Y-95172753D01*
X73925797Y-95175380D01*
X73206912Y-95175380D01*
X73139873Y-95155695D01*
X73111923Y-95131087D01*
X73110918Y-95129891D01*
X73110916Y-95129886D01*
X73029991Y-95061982D01*
X72930720Y-95025850D01*
X72825080Y-95025850D01*
X72725810Y-95061982D01*
X72725809Y-95061982D01*
X72725808Y-95061983D01*
X72644885Y-95129884D01*
X72644881Y-95129888D01*
X72592064Y-95221371D01*
X72592062Y-95221376D01*
X72573719Y-95325409D01*
X72573719Y-95325410D01*
X72592062Y-95429443D01*
X72592064Y-95429448D01*
X72644881Y-95520930D01*
X72644882Y-95520931D01*
X72644884Y-95520934D01*
X72725809Y-95588838D01*
X72728271Y-95589734D01*
X72728710Y-95589894D01*
X72732603Y-95592760D01*
X72735202Y-95594261D01*
X72735034Y-95594550D01*
X72784973Y-95631321D01*
X72809908Y-95696589D01*
X72795598Y-95764978D01*
X72746585Y-95814773D01*
X72728713Y-95822935D01*
X72725810Y-95823991D01*
X72725809Y-95823991D01*
X72644885Y-95891894D01*
X72644881Y-95891898D01*
X72592064Y-95983381D01*
X72592062Y-95983386D01*
X72573719Y-96087419D01*
X72573719Y-96087420D01*
X72592062Y-96191453D01*
X72592064Y-96191458D01*
X72644881Y-96282940D01*
X72644882Y-96282941D01*
X72644884Y-96282944D01*
X72685346Y-96316896D01*
X72725807Y-96350847D01*
X72725808Y-96350847D01*
X72725809Y-96350848D01*
X72825080Y-96386980D01*
X72825083Y-96386980D01*
X72828715Y-96388302D01*
X72880044Y-96426095D01*
X72909206Y-96396468D01*
X72927083Y-96388303D01*
X72930718Y-96386980D01*
X72930720Y-96386980D01*
X73029991Y-96350848D01*
X73110916Y-96282944D01*
X73110920Y-96282935D01*
X73111923Y-96281743D01*
X73113970Y-96280380D01*
X73119226Y-96275971D01*
X73119717Y-96276557D01*
X73170095Y-96243042D01*
X73206912Y-96237450D01*
X73928126Y-96237450D01*
X73995165Y-96257135D01*
X74040920Y-96309939D01*
X74050864Y-96379097D01*
X74044648Y-96403861D01*
X74042862Y-96408766D01*
X74036491Y-96444899D01*
X74024519Y-96512799D01*
X74042862Y-96616832D01*
X74044597Y-96626668D01*
X74036853Y-96696107D01*
X73992796Y-96750336D01*
X73926415Y-96772138D01*
X73922481Y-96772200D01*
X73206912Y-96772200D01*
X73139873Y-96752515D01*
X73111923Y-96727907D01*
X73110918Y-96726711D01*
X73110916Y-96726706D01*
X73029991Y-96658802D01*
X72930720Y-96622670D01*
X72930718Y-96622670D01*
X72927083Y-96621347D01*
X72875754Y-96583553D01*
X72846594Y-96613181D01*
X72828717Y-96621345D01*
X72725809Y-96658801D01*
X72644885Y-96726704D01*
X72644881Y-96726708D01*
X72592064Y-96818191D01*
X72592062Y-96818196D01*
X72573719Y-96922229D01*
X72573719Y-96922230D01*
X72592062Y-97026263D01*
X72592064Y-97026268D01*
X72644881Y-97117750D01*
X72644882Y-97117751D01*
X72644884Y-97117754D01*
X72725809Y-97185658D01*
X72825080Y-97221790D01*
X72825082Y-97221790D01*
X72930718Y-97221790D01*
X72930720Y-97221790D01*
X73029991Y-97185658D01*
X73110916Y-97117754D01*
X73110920Y-97117745D01*
X73111923Y-97116553D01*
X73113970Y-97115190D01*
X73119226Y-97110781D01*
X73119717Y-97111367D01*
X73170095Y-97077852D01*
X73206912Y-97072260D01*
X73927579Y-97072260D01*
X73994618Y-97091945D01*
X74040373Y-97144749D01*
X74050317Y-97213907D01*
X74049695Y-97217793D01*
X74049063Y-97221372D01*
X74049063Y-97221374D01*
X74048990Y-97221789D01*
X74030719Y-97325410D01*
X74044580Y-97404026D01*
X74049063Y-97429446D01*
X74063003Y-97453591D01*
X74079476Y-97521489D01*
X74056624Y-97587516D01*
X74001703Y-97630707D01*
X73955616Y-97639590D01*
X73146140Y-97639590D01*
X73079101Y-97619905D01*
X73066434Y-97610579D01*
X73032092Y-97581763D01*
X73032091Y-97581762D01*
X72932820Y-97545630D01*
X72827180Y-97545630D01*
X72727910Y-97581762D01*
X72727909Y-97581762D01*
X72727908Y-97581763D01*
X72646985Y-97649664D01*
X72646981Y-97649668D01*
X72594164Y-97741151D01*
X72594162Y-97741156D01*
X72575819Y-97845189D01*
X72575819Y-97845190D01*
X72594162Y-97949223D01*
X72594164Y-97949228D01*
X72646981Y-98040710D01*
X72646982Y-98040711D01*
X72646984Y-98040714D01*
X72676388Y-98065387D01*
X72727907Y-98108617D01*
X72727908Y-98108617D01*
X72727909Y-98108618D01*
X72827180Y-98144750D01*
X72827183Y-98144750D01*
X72830815Y-98146072D01*
X72882144Y-98183865D01*
X72911306Y-98154238D01*
X72929183Y-98146073D01*
X72932818Y-98144750D01*
X72932820Y-98144750D01*
X73032091Y-98108618D01*
X73113016Y-98040714D01*
X73135570Y-98001650D01*
X73186137Y-97953434D01*
X73242957Y-97939650D01*
X73917953Y-97939650D01*
X73984992Y-97959335D01*
X74030747Y-98012139D01*
X74040691Y-98081297D01*
X74040069Y-98085182D01*
X74030719Y-98138209D01*
X74030719Y-98138210D01*
X74049062Y-98242243D01*
X74049064Y-98242248D01*
X74107308Y-98343129D01*
X74103864Y-98345117D01*
X74123626Y-98390245D01*
X74112602Y-98459240D01*
X74066026Y-98511321D01*
X74000627Y-98529970D01*
X73209012Y-98529970D01*
X73141973Y-98510285D01*
X73114023Y-98485677D01*
X73113018Y-98484481D01*
X73113016Y-98484476D01*
X73032091Y-98416572D01*
X72932820Y-98380440D01*
X72932818Y-98380440D01*
X72929183Y-98379117D01*
X72877854Y-98341323D01*
X72848694Y-98370951D01*
X72830817Y-98379115D01*
X72727909Y-98416571D01*
X72646985Y-98484474D01*
X72646981Y-98484478D01*
X72594164Y-98575961D01*
X72594162Y-98575966D01*
X72575819Y-98679999D01*
X72575819Y-98680000D01*
X72594162Y-98784033D01*
X72594164Y-98784038D01*
X72646981Y-98875520D01*
X72646982Y-98875521D01*
X72646984Y-98875524D01*
X72727909Y-98943428D01*
X72827180Y-98979560D01*
X72827182Y-98979560D01*
X72932818Y-98979560D01*
X72932820Y-98979560D01*
X73032091Y-98943428D01*
X73113016Y-98875524D01*
X73113020Y-98875515D01*
X73114023Y-98874323D01*
X73116070Y-98872960D01*
X73121326Y-98868551D01*
X73121817Y-98869137D01*
X73172195Y-98835622D01*
X73209012Y-98830030D01*
X73939611Y-98830030D01*
X74006650Y-98849715D01*
X74052405Y-98902519D01*
X74062349Y-98971677D01*
X74047000Y-99016027D01*
X74041264Y-99025961D01*
X74041262Y-99025966D01*
X74022919Y-99129999D01*
X74022919Y-99130000D01*
X74041262Y-99234033D01*
X74041264Y-99234038D01*
X74094081Y-99325520D01*
X74094082Y-99325521D01*
X74094084Y-99325524D01*
X74175009Y-99393428D01*
X74274280Y-99429560D01*
X74274282Y-99429560D01*
X74379918Y-99429560D01*
X74379920Y-99429560D01*
X74479191Y-99393428D01*
X74560116Y-99325524D01*
X74568374Y-99311219D01*
X74618937Y-99263004D01*
X74687544Y-99249778D01*
X74752410Y-99275743D01*
X74763443Y-99285536D01*
X77706611Y-102228704D01*
X77740096Y-102290027D01*
X77742930Y-102316385D01*
X77742930Y-103942294D01*
X77723245Y-104009333D01*
X77670441Y-104055088D01*
X77601283Y-104065032D01*
X77537727Y-104036007D01*
X77531249Y-104029975D01*
X73225133Y-99723859D01*
X73191648Y-99662536D01*
X73190699Y-99614642D01*
X73193281Y-99600001D01*
X73193281Y-99599999D01*
X73174937Y-99495966D01*
X73174937Y-99495964D01*
X73144760Y-99443696D01*
X73122118Y-99404479D01*
X73122117Y-99404478D01*
X73122116Y-99404476D01*
X73041191Y-99336572D01*
X72941920Y-99300440D01*
X72836280Y-99300440D01*
X72737010Y-99336572D01*
X72737009Y-99336572D01*
X72737008Y-99336573D01*
X72656085Y-99404474D01*
X72656081Y-99404478D01*
X72603264Y-99495961D01*
X72603262Y-99495966D01*
X72584919Y-99599999D01*
X72584919Y-99600000D01*
X72603262Y-99704033D01*
X72603264Y-99704038D01*
X72656081Y-99795520D01*
X72656082Y-99795521D01*
X72656084Y-99795524D01*
X72737009Y-99863428D01*
X72836280Y-99899560D01*
X72836282Y-99899560D01*
X72925124Y-99899560D01*
X72992163Y-99919245D01*
X73012805Y-99935879D01*
X77507551Y-104430625D01*
X77541036Y-104491948D01*
X77543870Y-104518306D01*
X77543870Y-131082193D01*
X77524185Y-131149232D01*
X77507551Y-131169874D01*
X77085704Y-131591721D01*
X77024381Y-131625206D01*
X76998023Y-131628040D01*
X76909180Y-131628040D01*
X76809910Y-131664172D01*
X76809909Y-131664172D01*
X76809908Y-131664173D01*
X76728985Y-131732074D01*
X76728981Y-131732078D01*
X76676164Y-131823561D01*
X76676162Y-131823566D01*
X76657819Y-131927599D01*
X76657819Y-131927600D01*
X76676162Y-132031633D01*
X76676164Y-132031638D01*
X76728981Y-132123120D01*
X76728982Y-132123121D01*
X76728984Y-132123124D01*
X76809909Y-132191028D01*
X76909180Y-132227160D01*
X76909182Y-132227160D01*
X77014818Y-132227160D01*
X77014820Y-132227160D01*
X77114091Y-132191028D01*
X77195016Y-132123124D01*
X77195020Y-132123115D01*
X77201990Y-132114812D01*
X77204800Y-132117169D01*
X77241242Y-132082418D01*
X77309848Y-132069190D01*
X77374714Y-132095153D01*
X77415247Y-132152064D01*
X77422070Y-132192629D01*
X77422070Y-135149457D01*
X77422070Y-135209143D01*
X77444911Y-135264285D01*
X77540367Y-135359741D01*
X77573851Y-135421062D01*
X77574802Y-135468951D01*
X77572219Y-135483601D01*
X77590562Y-135587632D01*
X77590564Y-135587638D01*
X77643381Y-135679120D01*
X77643382Y-135679121D01*
X77643384Y-135679124D01*
X77724309Y-135747028D01*
X77823580Y-135783160D01*
X77823582Y-135783160D01*
X77929218Y-135783160D01*
X77929220Y-135783160D01*
X78028491Y-135747028D01*
X78109416Y-135679124D01*
X78124813Y-135652454D01*
X78175379Y-135604240D01*
X78243986Y-135591016D01*
X78308851Y-135616984D01*
X78339585Y-135652452D01*
X78354984Y-135679124D01*
X78435909Y-135747028D01*
X78535180Y-135783160D01*
X78535182Y-135783160D01*
X78640818Y-135783160D01*
X78640820Y-135783160D01*
X78740091Y-135747028D01*
X78821016Y-135679124D01*
X78873837Y-135587636D01*
X78873838Y-135587629D01*
X78877547Y-135577441D01*
X78880990Y-135578694D01*
X78903338Y-135533572D01*
X78963275Y-135497665D01*
X79033110Y-135499862D01*
X79090671Y-135539466D01*
X79110972Y-135575269D01*
X79114162Y-135584033D01*
X79114163Y-135584036D01*
X79116243Y-135587638D01*
X79166981Y-135675520D01*
X79166982Y-135675521D01*
X79166984Y-135675524D01*
X79247909Y-135743428D01*
X79347180Y-135779560D01*
X79347182Y-135779560D01*
X79452818Y-135779560D01*
X79452820Y-135779560D01*
X79552091Y-135743428D01*
X79633016Y-135675524D01*
X79650575Y-135645112D01*
X79701138Y-135596898D01*
X79769745Y-135583674D01*
X79834610Y-135609641D01*
X79865347Y-135645112D01*
X79884984Y-135679124D01*
X79965909Y-135747028D01*
X80065180Y-135783160D01*
X80065182Y-135783160D01*
X80170818Y-135783160D01*
X80170820Y-135783160D01*
X80270091Y-135747028D01*
X80351016Y-135679124D01*
X80403837Y-135587636D01*
X80403838Y-135587629D01*
X80407547Y-135577441D01*
X80410990Y-135578694D01*
X80433338Y-135533572D01*
X80493275Y-135497665D01*
X80563110Y-135499862D01*
X80620671Y-135539466D01*
X80640972Y-135575269D01*
X80644162Y-135584033D01*
X80644163Y-135584036D01*
X80646243Y-135587638D01*
X80696981Y-135675520D01*
X80696982Y-135675521D01*
X80696984Y-135675524D01*
X80777909Y-135743428D01*
X80877180Y-135779560D01*
X80877182Y-135779560D01*
X80982818Y-135779560D01*
X80982820Y-135779560D01*
X81082091Y-135743428D01*
X81163016Y-135675524D01*
X81215837Y-135584036D01*
X81233546Y-135483599D01*
X81483820Y-135483599D01*
X81483820Y-135483600D01*
X81502163Y-135587633D01*
X81502165Y-135587638D01*
X81554982Y-135679120D01*
X81554983Y-135679121D01*
X81554985Y-135679124D01*
X81635910Y-135747028D01*
X81735181Y-135783160D01*
X81735183Y-135783160D01*
X81840819Y-135783160D01*
X81840821Y-135783160D01*
X81940092Y-135747028D01*
X82021017Y-135679124D01*
X82073838Y-135587636D01*
X82092182Y-135483600D01*
X82092182Y-135483599D01*
X83211019Y-135483599D01*
X83211019Y-135483600D01*
X83229362Y-135587633D01*
X83229364Y-135587638D01*
X83282181Y-135679120D01*
X83282182Y-135679121D01*
X83282184Y-135679124D01*
X83363109Y-135747028D01*
X83462380Y-135783160D01*
X83462382Y-135783160D01*
X83568018Y-135783160D01*
X83568020Y-135783160D01*
X83667291Y-135747028D01*
X83748216Y-135679124D01*
X83801037Y-135587636D01*
X83819381Y-135483600D01*
X83819381Y-135483599D01*
X84989020Y-135483599D01*
X84989020Y-135483600D01*
X85007363Y-135587633D01*
X85007365Y-135587638D01*
X85060182Y-135679120D01*
X85060183Y-135679121D01*
X85060185Y-135679124D01*
X85141110Y-135747028D01*
X85240381Y-135783160D01*
X85240383Y-135783160D01*
X85346019Y-135783160D01*
X85346021Y-135783160D01*
X85445292Y-135747028D01*
X85526217Y-135679124D01*
X85579038Y-135587636D01*
X85597382Y-135483600D01*
X85579038Y-135379564D01*
X85526217Y-135288076D01*
X85445292Y-135220172D01*
X85346021Y-135184040D01*
X85240381Y-135184040D01*
X85141111Y-135220172D01*
X85141110Y-135220172D01*
X85141109Y-135220173D01*
X85060186Y-135288074D01*
X85060182Y-135288078D01*
X85007365Y-135379561D01*
X85007363Y-135379566D01*
X84989020Y-135483599D01*
X83819381Y-135483599D01*
X83801037Y-135379564D01*
X83748216Y-135288076D01*
X83667291Y-135220172D01*
X83568020Y-135184040D01*
X83462380Y-135184040D01*
X83363110Y-135220172D01*
X83363109Y-135220172D01*
X83363108Y-135220173D01*
X83282185Y-135288074D01*
X83282181Y-135288078D01*
X83229364Y-135379561D01*
X83229362Y-135379566D01*
X83211019Y-135483599D01*
X82092182Y-135483599D01*
X82073838Y-135379564D01*
X82021017Y-135288076D01*
X81940092Y-135220172D01*
X81840821Y-135184040D01*
X81735181Y-135184040D01*
X81635911Y-135220172D01*
X81635910Y-135220172D01*
X81635909Y-135220173D01*
X81554986Y-135288074D01*
X81554982Y-135288078D01*
X81502165Y-135379561D01*
X81502163Y-135379566D01*
X81483820Y-135483599D01*
X81233546Y-135483599D01*
X81234181Y-135480000D01*
X81215837Y-135375964D01*
X81165096Y-135288078D01*
X81163018Y-135284479D01*
X81163017Y-135284478D01*
X81163016Y-135284476D01*
X81082091Y-135216572D01*
X80982820Y-135180440D01*
X80877180Y-135180440D01*
X80777910Y-135216572D01*
X80777909Y-135216572D01*
X80777908Y-135216573D01*
X80696985Y-135284474D01*
X80696981Y-135284478D01*
X80644164Y-135375961D01*
X80640453Y-135386159D01*
X80637015Y-135384907D01*
X80614617Y-135430074D01*
X80554661Y-135465950D01*
X80484827Y-135463716D01*
X80427287Y-135424082D01*
X80407026Y-135388327D01*
X80403837Y-135379566D01*
X80403837Y-135379564D01*
X80351016Y-135288076D01*
X80270091Y-135220172D01*
X80170820Y-135184040D01*
X80065180Y-135184040D01*
X79965910Y-135220172D01*
X79965909Y-135220172D01*
X79965908Y-135220173D01*
X79884985Y-135288074D01*
X79884981Y-135288078D01*
X79867426Y-135318486D01*
X79816859Y-135366702D01*
X79748252Y-135379925D01*
X79683387Y-135353957D01*
X79652652Y-135318486D01*
X79633018Y-135284479D01*
X79633017Y-135284478D01*
X79633016Y-135284476D01*
X79552091Y-135216572D01*
X79552092Y-135216572D01*
X79530417Y-135208683D01*
X79474154Y-135167256D01*
X79449220Y-135101987D01*
X79448830Y-135092162D01*
X79448830Y-132587999D01*
X80315419Y-132587999D01*
X80315419Y-132588000D01*
X80333762Y-132692033D01*
X80333764Y-132692038D01*
X80386581Y-132783520D01*
X80386582Y-132783521D01*
X80386584Y-132783524D01*
X80467509Y-132851428D01*
X80566780Y-132887560D01*
X80566782Y-132887560D01*
X80672418Y-132887560D01*
X80672420Y-132887560D01*
X80771691Y-132851428D01*
X80852616Y-132783524D01*
X80905437Y-132692036D01*
X80923781Y-132588000D01*
X80905437Y-132483964D01*
X80852616Y-132392476D01*
X80771691Y-132324572D01*
X80672420Y-132288440D01*
X80566780Y-132288440D01*
X80467510Y-132324572D01*
X80467509Y-132324572D01*
X80467508Y-132324573D01*
X80386585Y-132392474D01*
X80386581Y-132392478D01*
X80333764Y-132483961D01*
X80333762Y-132483966D01*
X80315419Y-132587999D01*
X79448830Y-132587999D01*
X79448830Y-132193495D01*
X79468515Y-132126456D01*
X79521319Y-132080701D01*
X79590477Y-132070757D01*
X79654033Y-132099782D01*
X79667246Y-132115788D01*
X79668410Y-132114812D01*
X79675381Y-132123119D01*
X79675384Y-132123124D01*
X79756309Y-132191028D01*
X79855580Y-132227160D01*
X79855582Y-132227160D01*
X79961218Y-132227160D01*
X79961220Y-132227160D01*
X80060491Y-132191028D01*
X80141416Y-132123124D01*
X80194237Y-132031636D01*
X80212581Y-131927600D01*
X80212272Y-131925850D01*
X80201337Y-131863829D01*
X80194237Y-131823564D01*
X80161380Y-131766654D01*
X80141418Y-131732079D01*
X80141413Y-131732073D01*
X80075733Y-131676961D01*
X80040878Y-131629425D01*
X80035591Y-131616662D01*
X80035590Y-131616659D01*
X79074609Y-130655678D01*
X79041124Y-130594355D01*
X79038290Y-130567997D01*
X79038290Y-129492447D01*
X79057975Y-129425408D01*
X79110779Y-129379653D01*
X79179937Y-129369709D01*
X79243493Y-129398734D01*
X79249971Y-129404766D01*
X81247549Y-131402344D01*
X81281034Y-131463667D01*
X81276050Y-131533359D01*
X81234178Y-131589292D01*
X81202281Y-131606546D01*
X81175952Y-131616129D01*
X81095028Y-131684031D01*
X81095024Y-131684035D01*
X81042207Y-131775518D01*
X81042205Y-131775523D01*
X81023862Y-131879556D01*
X81023862Y-131879557D01*
X81042205Y-131983590D01*
X81042207Y-131983595D01*
X81095024Y-132075077D01*
X81095025Y-132075078D01*
X81095027Y-132075081D01*
X81175952Y-132142985D01*
X81275223Y-132179117D01*
X81275225Y-132179117D01*
X81380861Y-132179117D01*
X81380863Y-132179117D01*
X81480134Y-132142985D01*
X81561059Y-132075081D01*
X81611747Y-131987286D01*
X81662311Y-131939074D01*
X81730918Y-131925850D01*
X81795783Y-131951818D01*
X81806813Y-131961608D01*
X82568990Y-132723785D01*
X82611194Y-132765989D01*
X82666336Y-132788830D01*
X82982988Y-132788830D01*
X83050027Y-132808515D01*
X83077977Y-132833123D01*
X83078981Y-132834319D01*
X83078984Y-132834324D01*
X83159909Y-132902228D01*
X83259180Y-132938360D01*
X83259182Y-132938360D01*
X83364818Y-132938360D01*
X83364820Y-132938360D01*
X83464091Y-132902228D01*
X83545016Y-132834324D01*
X83597837Y-132742836D01*
X83616181Y-132638800D01*
X83597837Y-132534764D01*
X83545016Y-132443276D01*
X83467446Y-132378187D01*
X83428746Y-132320018D01*
X83427638Y-132250157D01*
X83464475Y-132190787D01*
X83467406Y-132188245D01*
X83545016Y-132123124D01*
X83585613Y-132052807D01*
X83636180Y-132004592D01*
X83704787Y-131991369D01*
X83769652Y-132017337D01*
X83800387Y-132052808D01*
X83840981Y-132123120D01*
X83840982Y-132123121D01*
X83840984Y-132123124D01*
X83921909Y-132191028D01*
X84021180Y-132227160D01*
X84021182Y-132227160D01*
X84126818Y-132227160D01*
X84126820Y-132227160D01*
X84226091Y-132191028D01*
X84246571Y-132173843D01*
X84310575Y-132145831D01*
X84379567Y-132156869D01*
X84413956Y-132181152D01*
X85615570Y-133382766D01*
X86776794Y-134543990D01*
X86831936Y-134566830D01*
X87859788Y-134566830D01*
X87926827Y-134586515D01*
X87954777Y-134611123D01*
X87955781Y-134612319D01*
X87955784Y-134612324D01*
X88036709Y-134680228D01*
X88135980Y-134716360D01*
X88135982Y-134716360D01*
X88241618Y-134716360D01*
X88241620Y-134716360D01*
X88327492Y-134685104D01*
X88397218Y-134680674D01*
X88458274Y-134714644D01*
X88491271Y-134776230D01*
X88493900Y-134801627D01*
X88493900Y-138357100D01*
X88474215Y-138424139D01*
X88421411Y-138469894D01*
X88369900Y-138481100D01*
X69160900Y-138481100D01*
X69093861Y-138461415D01*
X69048106Y-138408611D01*
X69036900Y-138357100D01*
X69036900Y-135479999D01*
X73245819Y-135479999D01*
X73245819Y-135480000D01*
X73264162Y-135584033D01*
X73264164Y-135584038D01*
X73316981Y-135675520D01*
X73316982Y-135675521D01*
X73316984Y-135675524D01*
X73397909Y-135743428D01*
X73497180Y-135779560D01*
X73497182Y-135779560D01*
X73602818Y-135779560D01*
X73602820Y-135779560D01*
X73702091Y-135743428D01*
X73783016Y-135675524D01*
X73835837Y-135584036D01*
X73853546Y-135483599D01*
X74321019Y-135483599D01*
X74321019Y-135483600D01*
X74339362Y-135587633D01*
X74339364Y-135587638D01*
X74392181Y-135679120D01*
X74392182Y-135679121D01*
X74392184Y-135679124D01*
X74473109Y-135747028D01*
X74572380Y-135783160D01*
X74572382Y-135783160D01*
X74678018Y-135783160D01*
X74678020Y-135783160D01*
X74777291Y-135747028D01*
X74858216Y-135679124D01*
X74911037Y-135587636D01*
X74929381Y-135483600D01*
X74929381Y-135483599D01*
X75895819Y-135483599D01*
X75895819Y-135483600D01*
X75914162Y-135587633D01*
X75914164Y-135587638D01*
X75966981Y-135679120D01*
X75966982Y-135679121D01*
X75966984Y-135679124D01*
X76047909Y-135747028D01*
X76147180Y-135783160D01*
X76147182Y-135783160D01*
X76252818Y-135783160D01*
X76252820Y-135783160D01*
X76352091Y-135747028D01*
X76433016Y-135679124D01*
X76485837Y-135587636D01*
X76504181Y-135483600D01*
X76485837Y-135379564D01*
X76433016Y-135288076D01*
X76352091Y-135220172D01*
X76252820Y-135184040D01*
X76147180Y-135184040D01*
X76047910Y-135220172D01*
X76047909Y-135220172D01*
X76047908Y-135220173D01*
X75966985Y-135288074D01*
X75966981Y-135288078D01*
X75914164Y-135379561D01*
X75914162Y-135379566D01*
X75895819Y-135483599D01*
X74929381Y-135483599D01*
X74911037Y-135379564D01*
X74858216Y-135288076D01*
X74777291Y-135220172D01*
X74678020Y-135184040D01*
X74572380Y-135184040D01*
X74473110Y-135220172D01*
X74473109Y-135220172D01*
X74473108Y-135220173D01*
X74392185Y-135288074D01*
X74392181Y-135288078D01*
X74339364Y-135379561D01*
X74339362Y-135379566D01*
X74321019Y-135483599D01*
X73853546Y-135483599D01*
X73854181Y-135480000D01*
X73835837Y-135375964D01*
X73785096Y-135288078D01*
X73783018Y-135284479D01*
X73783017Y-135284478D01*
X73783016Y-135284476D01*
X73702091Y-135216572D01*
X73602820Y-135180440D01*
X73497180Y-135180440D01*
X73397910Y-135216572D01*
X73397909Y-135216572D01*
X73397908Y-135216573D01*
X73316985Y-135284474D01*
X73316981Y-135284478D01*
X73264164Y-135375961D01*
X73264162Y-135375966D01*
X73245819Y-135479999D01*
X69036900Y-135479999D01*
X69036900Y-131927599D01*
X74727419Y-131927599D01*
X74727419Y-131927600D01*
X74745762Y-132031633D01*
X74745764Y-132031638D01*
X74798581Y-132123120D01*
X74798582Y-132123121D01*
X74798584Y-132123124D01*
X74879509Y-132191028D01*
X74978780Y-132227160D01*
X74978782Y-132227160D01*
X75084418Y-132227160D01*
X75084420Y-132227160D01*
X75183691Y-132191028D01*
X75264616Y-132123124D01*
X75317437Y-132031636D01*
X75335781Y-131927600D01*
X75335472Y-131925850D01*
X75324537Y-131863829D01*
X75317437Y-131823564D01*
X75284580Y-131766654D01*
X75264618Y-131732079D01*
X75264617Y-131732078D01*
X75264616Y-131732076D01*
X75183691Y-131664172D01*
X75084420Y-131628040D01*
X74978780Y-131628040D01*
X74879510Y-131664172D01*
X74879509Y-131664172D01*
X74879508Y-131664173D01*
X74798585Y-131732074D01*
X74798581Y-131732078D01*
X74745764Y-131823561D01*
X74745762Y-131823566D01*
X74727419Y-131927599D01*
X69036900Y-131927599D01*
X69036900Y-125659998D01*
X69734891Y-125659998D01*
X69734891Y-125660001D01*
X69755300Y-125945362D01*
X69816109Y-126224895D01*
X69916091Y-126492958D01*
X70053191Y-126744038D01*
X70053196Y-126744046D01*
X70159882Y-126886561D01*
X70159883Y-126886562D01*
X70841377Y-126205067D01*
X70924411Y-126329336D01*
X71070664Y-126475589D01*
X71194930Y-126558621D01*
X70513436Y-127240115D01*
X70655960Y-127346807D01*
X70655961Y-127346808D01*
X70907042Y-127483908D01*
X70907041Y-127483908D01*
X71175104Y-127583890D01*
X71454637Y-127644699D01*
X71739999Y-127665109D01*
X71740001Y-127665109D01*
X72025362Y-127644699D01*
X72304895Y-127583890D01*
X72572958Y-127483908D01*
X72824047Y-127346803D01*
X72966561Y-127240116D01*
X72966562Y-127240115D01*
X72285068Y-126558621D01*
X72409336Y-126475589D01*
X72555589Y-126329336D01*
X72638621Y-126205068D01*
X73320115Y-126886562D01*
X73320116Y-126886561D01*
X73426803Y-126744047D01*
X73563908Y-126492958D01*
X73663890Y-126224895D01*
X73724699Y-125945362D01*
X73745109Y-125660001D01*
X73745109Y-125659998D01*
X73724699Y-125374637D01*
X73663890Y-125095104D01*
X73563908Y-124827041D01*
X73426808Y-124575961D01*
X73426807Y-124575960D01*
X73320115Y-124433436D01*
X72638621Y-125114930D01*
X72555589Y-124990664D01*
X72409336Y-124844411D01*
X72285068Y-124761378D01*
X72966562Y-124079883D01*
X72966561Y-124079882D01*
X72837499Y-123983267D01*
X72795627Y-123927334D01*
X72790643Y-123857642D01*
X72824128Y-123796319D01*
X72885451Y-123762834D01*
X72911809Y-123760000D01*
X72914723Y-123760000D01*
X72914723Y-123759999D01*
X73261827Y-123719429D01*
X73261829Y-123719429D01*
X73601866Y-123638839D01*
X73601869Y-123638838D01*
X73930254Y-123519316D01*
X73930260Y-123519314D01*
X74242538Y-123362480D01*
X74534509Y-123170449D01*
X74534510Y-123170448D01*
X74677179Y-123050734D01*
X74677180Y-123050733D01*
X73966367Y-122339919D01*
X74061521Y-122266906D01*
X74246906Y-122081521D01*
X74319919Y-121986366D01*
X75033850Y-122700297D01*
X75033851Y-122700296D01*
X75042022Y-122691636D01*
X75042033Y-122691623D01*
X75250710Y-122411322D01*
X75425438Y-122108683D01*
X75425444Y-122108670D01*
X75563854Y-121787800D01*
X75664083Y-121453011D01*
X75664085Y-121453002D01*
X75724763Y-121108880D01*
X75724764Y-121108869D01*
X75745084Y-120760003D01*
X75745084Y-120759996D01*
X75724764Y-120411130D01*
X75724763Y-120411119D01*
X75664085Y-120066997D01*
X75664083Y-120066988D01*
X75563854Y-119732199D01*
X75425444Y-119411329D01*
X75425438Y-119411316D01*
X75250710Y-119108677D01*
X75042032Y-118828374D01*
X75033850Y-118819702D01*
X74319919Y-119533632D01*
X74246906Y-119438479D01*
X74061521Y-119253094D01*
X73966366Y-119180079D01*
X74677180Y-118469265D01*
X74677179Y-118469264D01*
X74534519Y-118349557D01*
X74242538Y-118157519D01*
X73930260Y-118000685D01*
X73930254Y-118000683D01*
X73601869Y-117881161D01*
X73601866Y-117881160D01*
X73261828Y-117800570D01*
X72914723Y-117760000D01*
X72565277Y-117760000D01*
X72218172Y-117800570D01*
X72218170Y-117800570D01*
X71878133Y-117881160D01*
X71878130Y-117881161D01*
X71549745Y-118000683D01*
X71549739Y-118000685D01*
X71237461Y-118157519D01*
X70945480Y-118349557D01*
X70802819Y-118469264D01*
X70802818Y-118469265D01*
X71513633Y-119180079D01*
X71418479Y-119253094D01*
X71233094Y-119438479D01*
X71160080Y-119533633D01*
X70446148Y-118819701D01*
X70446147Y-118819702D01*
X70437976Y-118828363D01*
X70437972Y-118828368D01*
X70229289Y-119108677D01*
X70054561Y-119411316D01*
X70054555Y-119411329D01*
X69916145Y-119732199D01*
X69815916Y-120066988D01*
X69815914Y-120066997D01*
X69755236Y-120411119D01*
X69755235Y-120411130D01*
X69734916Y-120759996D01*
X69734916Y-120760003D01*
X69755235Y-121108869D01*
X69755236Y-121108880D01*
X69815914Y-121453002D01*
X69815916Y-121453011D01*
X69916145Y-121787800D01*
X70054555Y-122108670D01*
X70054561Y-122108683D01*
X70229289Y-122411322D01*
X70437967Y-122691625D01*
X70446148Y-122700296D01*
X71160078Y-121986365D01*
X71233094Y-122081521D01*
X71418479Y-122266906D01*
X71513632Y-122339919D01*
X70802818Y-123050733D01*
X70802819Y-123050734D01*
X70945484Y-123170445D01*
X71237461Y-123362480D01*
X71424273Y-123456302D01*
X71475348Y-123503980D01*
X71492537Y-123571702D01*
X71470384Y-123637967D01*
X71415923Y-123681736D01*
X71394980Y-123688278D01*
X71175104Y-123736109D01*
X70907041Y-123836091D01*
X70655961Y-123973191D01*
X70655953Y-123973196D01*
X70513437Y-124079882D01*
X70513436Y-124079883D01*
X71194931Y-124761378D01*
X71070664Y-124844411D01*
X70924411Y-124990664D01*
X70841378Y-125114931D01*
X70159883Y-124433436D01*
X70159882Y-124433437D01*
X70053196Y-124575953D01*
X70053191Y-124575961D01*
X69916091Y-124827041D01*
X69816109Y-125095104D01*
X69755300Y-125374637D01*
X69734891Y-125659998D01*
X69036900Y-125659998D01*
X69036900Y-110490000D01*
X70119884Y-110490000D01*
X70139100Y-110685111D01*
X70196013Y-110872727D01*
X70261395Y-110995049D01*
X70751700Y-110504745D01*
X70751700Y-110538488D01*
X70776799Y-110632158D01*
X70825287Y-110716141D01*
X70893859Y-110784713D01*
X70977842Y-110833201D01*
X71071512Y-110858300D01*
X71105252Y-110858300D01*
X70614948Y-111348604D01*
X70737267Y-111413985D01*
X70924888Y-111470899D01*
X71120000Y-111490115D01*
X71315111Y-111470899D01*
X71502732Y-111413985D01*
X71675629Y-111321569D01*
X71680698Y-111318183D01*
X71681811Y-111319849D01*
X71737643Y-111296125D01*
X71806513Y-111307904D01*
X71858082Y-111355047D01*
X71875977Y-111422586D01*
X71866582Y-111466741D01*
X71809537Y-111604461D01*
X71809536Y-111604465D01*
X71789059Y-111759999D01*
X71789059Y-111760000D01*
X71809536Y-111915534D01*
X71809537Y-111915538D01*
X71866582Y-112053258D01*
X71874051Y-112122727D01*
X71842776Y-112185206D01*
X71782687Y-112220858D01*
X71712861Y-112218364D01*
X71681284Y-112200939D01*
X71680698Y-112201817D01*
X71675629Y-112198430D01*
X71502732Y-112106014D01*
X71315111Y-112049100D01*
X71120000Y-112029884D01*
X70924888Y-112049100D01*
X70737270Y-112106014D01*
X70614949Y-112171394D01*
X70614949Y-112171395D01*
X71105253Y-112661700D01*
X71071512Y-112661700D01*
X70977842Y-112686799D01*
X70893859Y-112735287D01*
X70825287Y-112803859D01*
X70776799Y-112887842D01*
X70751700Y-112981512D01*
X70751700Y-113015254D01*
X70261395Y-112524949D01*
X70261394Y-112524949D01*
X70196014Y-112647270D01*
X70139100Y-112834888D01*
X70119884Y-113030000D01*
X70139100Y-113225111D01*
X70196013Y-113412727D01*
X70261395Y-113535049D01*
X70751700Y-113044745D01*
X70751700Y-113078488D01*
X70776799Y-113172158D01*
X70825287Y-113256141D01*
X70893859Y-113324713D01*
X70977842Y-113373201D01*
X71071512Y-113398300D01*
X71105253Y-113398300D01*
X70614948Y-113888604D01*
X70737267Y-113953985D01*
X70924888Y-114010899D01*
X71120000Y-114030115D01*
X71315111Y-114010899D01*
X71502730Y-113953985D01*
X71625050Y-113888603D01*
X71134748Y-113398300D01*
X71168488Y-113398300D01*
X71262158Y-113373201D01*
X71346141Y-113324713D01*
X71414713Y-113256141D01*
X71463201Y-113172158D01*
X71488300Y-113078488D01*
X71488300Y-113044746D01*
X71978603Y-113535049D01*
X72043985Y-113412730D01*
X72100899Y-113225111D01*
X72120115Y-113030000D01*
X72100899Y-112834888D01*
X72043985Y-112647267D01*
X71951569Y-112474370D01*
X71948183Y-112469302D01*
X71949845Y-112468191D01*
X71926122Y-112412331D01*
X71937915Y-112343463D01*
X71985068Y-112291904D01*
X72052611Y-112274023D01*
X72096738Y-112283416D01*
X72234465Y-112340464D01*
X72371904Y-112358558D01*
X72389999Y-112360941D01*
X72390000Y-112360941D01*
X72390001Y-112360941D01*
X72406209Y-112358806D01*
X72545535Y-112340464D01*
X72683260Y-112283416D01*
X72752726Y-112275948D01*
X72815206Y-112307223D01*
X72850858Y-112367312D01*
X72848364Y-112437137D01*
X72830942Y-112468717D01*
X72831817Y-112469302D01*
X72828430Y-112474370D01*
X72736014Y-112647267D01*
X72679100Y-112834888D01*
X72659884Y-113030000D01*
X72679100Y-113225111D01*
X72736013Y-113412727D01*
X72801395Y-113535049D01*
X73291700Y-113044745D01*
X73291700Y-113078488D01*
X73316799Y-113172158D01*
X73365287Y-113256141D01*
X73433859Y-113324713D01*
X73517842Y-113373201D01*
X73611512Y-113398300D01*
X73645253Y-113398300D01*
X73154948Y-113888604D01*
X73277267Y-113953985D01*
X73464888Y-114010899D01*
X73660000Y-114030115D01*
X73855111Y-114010899D01*
X74042730Y-113953985D01*
X74165050Y-113888603D01*
X73674748Y-113398300D01*
X73708488Y-113398300D01*
X73802158Y-113373201D01*
X73886141Y-113324713D01*
X73954713Y-113256141D01*
X74003201Y-113172158D01*
X74028300Y-113078488D01*
X74028300Y-113044747D01*
X74518603Y-113535050D01*
X74583985Y-113412730D01*
X74640899Y-113225111D01*
X74660115Y-113030000D01*
X74640899Y-112834888D01*
X74583985Y-112647267D01*
X74518604Y-112524948D01*
X74028300Y-113015252D01*
X74028300Y-112981512D01*
X74003201Y-112887842D01*
X73954713Y-112803859D01*
X73886141Y-112735287D01*
X73802158Y-112686799D01*
X73708488Y-112661700D01*
X73674747Y-112661700D01*
X74165049Y-112171395D01*
X74042727Y-112106013D01*
X73855111Y-112049100D01*
X73660000Y-112029884D01*
X73464888Y-112049100D01*
X73277267Y-112106014D01*
X73104370Y-112198430D01*
X73099302Y-112201817D01*
X73098194Y-112200159D01*
X73042300Y-112223880D01*
X72973436Y-112212071D01*
X72921888Y-112164905D01*
X72904023Y-112097358D01*
X72913415Y-112053262D01*
X72970464Y-111915535D01*
X72990941Y-111760000D01*
X72970464Y-111604465D01*
X72913416Y-111466741D01*
X72905948Y-111397272D01*
X72937223Y-111334793D01*
X72997312Y-111299141D01*
X73067137Y-111301635D01*
X73098715Y-111319060D01*
X73099302Y-111318183D01*
X73104370Y-111321569D01*
X73277267Y-111413985D01*
X73464888Y-111470899D01*
X73660000Y-111490115D01*
X73855111Y-111470899D01*
X74042730Y-111413985D01*
X74165050Y-111348603D01*
X73674747Y-110858300D01*
X73708488Y-110858300D01*
X73802158Y-110833201D01*
X73886141Y-110784713D01*
X73954713Y-110716141D01*
X74003201Y-110632158D01*
X74028300Y-110538488D01*
X74028300Y-110504747D01*
X74518603Y-110995050D01*
X74583985Y-110872730D01*
X74640899Y-110685111D01*
X74660115Y-110490000D01*
X74640899Y-110294888D01*
X74583985Y-110107267D01*
X74518604Y-109984948D01*
X74028300Y-110475252D01*
X74028300Y-110441512D01*
X74003201Y-110347842D01*
X73954713Y-110263859D01*
X73886141Y-110195287D01*
X73802158Y-110146799D01*
X73708488Y-110121700D01*
X73674747Y-110121700D01*
X74165049Y-109631395D01*
X74042727Y-109566013D01*
X73855111Y-109509100D01*
X73660000Y-109489884D01*
X73464888Y-109509100D01*
X73277270Y-109566014D01*
X73154949Y-109631394D01*
X73154949Y-109631395D01*
X73645254Y-110121700D01*
X73611512Y-110121700D01*
X73517842Y-110146799D01*
X73433859Y-110195287D01*
X73365287Y-110263859D01*
X73316799Y-110347842D01*
X73291700Y-110441512D01*
X73291700Y-110475253D01*
X72801395Y-109984949D01*
X72801394Y-109984949D01*
X72736014Y-110107270D01*
X72679100Y-110294888D01*
X72659884Y-110490000D01*
X72679100Y-110685111D01*
X72736014Y-110872732D01*
X72828430Y-111045629D01*
X72831817Y-111050698D01*
X72830154Y-111051808D01*
X72853877Y-111107674D01*
X72842082Y-111176541D01*
X72794926Y-111228098D01*
X72727383Y-111245976D01*
X72683258Y-111236582D01*
X72545538Y-111179537D01*
X72545536Y-111179536D01*
X72545535Y-111179536D01*
X72467767Y-111169297D01*
X72390001Y-111159059D01*
X72389999Y-111159059D01*
X72234465Y-111179536D01*
X72234461Y-111179537D01*
X72096741Y-111236582D01*
X72027272Y-111244051D01*
X71964793Y-111212775D01*
X71929141Y-111152686D01*
X71931635Y-111082861D01*
X71949063Y-111051286D01*
X71948183Y-111050698D01*
X71951569Y-111045629D01*
X72043985Y-110872732D01*
X72100899Y-110685111D01*
X72120115Y-110490000D01*
X72100899Y-110294888D01*
X72043985Y-110107267D01*
X71978604Y-109984948D01*
X71488300Y-110475252D01*
X71488300Y-110441512D01*
X71463201Y-110347842D01*
X71414713Y-110263859D01*
X71346141Y-110195287D01*
X71262158Y-110146799D01*
X71168488Y-110121700D01*
X71134747Y-110121700D01*
X71625049Y-109631395D01*
X71502727Y-109566013D01*
X71315111Y-109509100D01*
X71120000Y-109489884D01*
X70924888Y-109509100D01*
X70737270Y-109566014D01*
X70614949Y-109631394D01*
X70614949Y-109631395D01*
X71105254Y-110121700D01*
X71071512Y-110121700D01*
X70977842Y-110146799D01*
X70893859Y-110195287D01*
X70825287Y-110263859D01*
X70776799Y-110347842D01*
X70751700Y-110441512D01*
X70751700Y-110475254D01*
X70261395Y-109984949D01*
X70261394Y-109984949D01*
X70196014Y-110107270D01*
X70139100Y-110294888D01*
X70119884Y-110490000D01*
X69036900Y-110490000D01*
X69036900Y-102870000D01*
X70119884Y-102870000D01*
X70139100Y-103065111D01*
X70196013Y-103252727D01*
X70261395Y-103375049D01*
X70751700Y-102884745D01*
X70751700Y-102918488D01*
X70776799Y-103012158D01*
X70825287Y-103096141D01*
X70893859Y-103164713D01*
X70977842Y-103213201D01*
X71071512Y-103238300D01*
X71105252Y-103238300D01*
X70614948Y-103728604D01*
X70737267Y-103793985D01*
X70924888Y-103850899D01*
X71120000Y-103870115D01*
X71315111Y-103850899D01*
X71502732Y-103793985D01*
X71675629Y-103701569D01*
X71680698Y-103698183D01*
X71681811Y-103699849D01*
X71737643Y-103676125D01*
X71806513Y-103687904D01*
X71858082Y-103735047D01*
X71875977Y-103802586D01*
X71866582Y-103846741D01*
X71809537Y-103984461D01*
X71809536Y-103984465D01*
X71789059Y-104139999D01*
X71789059Y-104140000D01*
X71809536Y-104295534D01*
X71809537Y-104295538D01*
X71866582Y-104433258D01*
X71874051Y-104502727D01*
X71842776Y-104565206D01*
X71782687Y-104600858D01*
X71712861Y-104598364D01*
X71681284Y-104580939D01*
X71680698Y-104581817D01*
X71675629Y-104578430D01*
X71502732Y-104486014D01*
X71315111Y-104429100D01*
X71120000Y-104409884D01*
X70924888Y-104429100D01*
X70737270Y-104486014D01*
X70614949Y-104551394D01*
X70614949Y-104551395D01*
X71105253Y-105041700D01*
X71071512Y-105041700D01*
X70977842Y-105066799D01*
X70893859Y-105115287D01*
X70825287Y-105183859D01*
X70776799Y-105267842D01*
X70751700Y-105361512D01*
X70751700Y-105395254D01*
X70261395Y-104904949D01*
X70261394Y-104904949D01*
X70196014Y-105027270D01*
X70139100Y-105214888D01*
X70119884Y-105410000D01*
X70139100Y-105605111D01*
X70196013Y-105792727D01*
X70261395Y-105915049D01*
X70751700Y-105424745D01*
X70751700Y-105458488D01*
X70776799Y-105552158D01*
X70825287Y-105636141D01*
X70893859Y-105704713D01*
X70977842Y-105753201D01*
X71071512Y-105778300D01*
X71105253Y-105778300D01*
X70614948Y-106268604D01*
X70737267Y-106333985D01*
X70924888Y-106390899D01*
X71120000Y-106410115D01*
X71315111Y-106390899D01*
X71502730Y-106333985D01*
X71625050Y-106268603D01*
X71134748Y-105778300D01*
X71168488Y-105778300D01*
X71262158Y-105753201D01*
X71346141Y-105704713D01*
X71414713Y-105636141D01*
X71463201Y-105552158D01*
X71488300Y-105458488D01*
X71488300Y-105424746D01*
X71978603Y-105915049D01*
X72043985Y-105792730D01*
X72100899Y-105605111D01*
X72120115Y-105410000D01*
X72100899Y-105214888D01*
X72043985Y-105027267D01*
X71951569Y-104854370D01*
X71948183Y-104849302D01*
X71949845Y-104848191D01*
X71926122Y-104792331D01*
X71937915Y-104723463D01*
X71985068Y-104671904D01*
X72052611Y-104654023D01*
X72096738Y-104663416D01*
X72234465Y-104720464D01*
X72371904Y-104738558D01*
X72389999Y-104740941D01*
X72390000Y-104740941D01*
X72390001Y-104740941D01*
X72406209Y-104738806D01*
X72545535Y-104720464D01*
X72683260Y-104663416D01*
X72752726Y-104655948D01*
X72815206Y-104687223D01*
X72850858Y-104747312D01*
X72848364Y-104817137D01*
X72830942Y-104848717D01*
X72831817Y-104849302D01*
X72828430Y-104854370D01*
X72736014Y-105027267D01*
X72679100Y-105214888D01*
X72659884Y-105410000D01*
X72679100Y-105605111D01*
X72736013Y-105792727D01*
X72801395Y-105915049D01*
X73291700Y-105424745D01*
X73291700Y-105458488D01*
X73316799Y-105552158D01*
X73365287Y-105636141D01*
X73433859Y-105704713D01*
X73517842Y-105753201D01*
X73611512Y-105778300D01*
X73645253Y-105778300D01*
X73154948Y-106268604D01*
X73277267Y-106333985D01*
X73464888Y-106390899D01*
X73660000Y-106410115D01*
X73855111Y-106390899D01*
X74042730Y-106333985D01*
X74165050Y-106268603D01*
X73674748Y-105778300D01*
X73708488Y-105778300D01*
X73802158Y-105753201D01*
X73886141Y-105704713D01*
X73954713Y-105636141D01*
X74003201Y-105552158D01*
X74028300Y-105458488D01*
X74028300Y-105424747D01*
X74518603Y-105915050D01*
X74583985Y-105792730D01*
X74640899Y-105605111D01*
X74660115Y-105410000D01*
X74640899Y-105214888D01*
X74583985Y-105027267D01*
X74518604Y-104904948D01*
X74028300Y-105395252D01*
X74028300Y-105361512D01*
X74003201Y-105267842D01*
X73954713Y-105183859D01*
X73886141Y-105115287D01*
X73802158Y-105066799D01*
X73708488Y-105041700D01*
X73674747Y-105041700D01*
X74165049Y-104551395D01*
X74042727Y-104486013D01*
X73855111Y-104429100D01*
X73660000Y-104409884D01*
X73464888Y-104429100D01*
X73277267Y-104486014D01*
X73104370Y-104578430D01*
X73099302Y-104581817D01*
X73098194Y-104580159D01*
X73042300Y-104603880D01*
X72973436Y-104592071D01*
X72921888Y-104544905D01*
X72904023Y-104477358D01*
X72913415Y-104433262D01*
X72970464Y-104295535D01*
X72990941Y-104140000D01*
X72970464Y-103984465D01*
X72913416Y-103846741D01*
X72905948Y-103777272D01*
X72937223Y-103714793D01*
X72997312Y-103679141D01*
X73067137Y-103681635D01*
X73098715Y-103699060D01*
X73099302Y-103698183D01*
X73104370Y-103701569D01*
X73277267Y-103793985D01*
X73464888Y-103850899D01*
X73660000Y-103870115D01*
X73855111Y-103850899D01*
X74042730Y-103793985D01*
X74165050Y-103728603D01*
X73674747Y-103238300D01*
X73708488Y-103238300D01*
X73802158Y-103213201D01*
X73886141Y-103164713D01*
X73954713Y-103096141D01*
X74003201Y-103012158D01*
X74028300Y-102918488D01*
X74028300Y-102884747D01*
X74518603Y-103375050D01*
X74583985Y-103252730D01*
X74640899Y-103065111D01*
X74660115Y-102870000D01*
X74640899Y-102674888D01*
X74583985Y-102487267D01*
X74518604Y-102364948D01*
X74028300Y-102855252D01*
X74028300Y-102821512D01*
X74003201Y-102727842D01*
X73954713Y-102643859D01*
X73886141Y-102575287D01*
X73802158Y-102526799D01*
X73708488Y-102501700D01*
X73674747Y-102501700D01*
X74165049Y-102011395D01*
X74042727Y-101946013D01*
X73855111Y-101889100D01*
X73660000Y-101869884D01*
X73464888Y-101889100D01*
X73277270Y-101946014D01*
X73154949Y-102011394D01*
X73154949Y-102011395D01*
X73645254Y-102501700D01*
X73611512Y-102501700D01*
X73517842Y-102526799D01*
X73433859Y-102575287D01*
X73365287Y-102643859D01*
X73316799Y-102727842D01*
X73291700Y-102821512D01*
X73291700Y-102855253D01*
X72801395Y-102364949D01*
X72801394Y-102364949D01*
X72736014Y-102487270D01*
X72679100Y-102674888D01*
X72659884Y-102870000D01*
X72679100Y-103065111D01*
X72736014Y-103252732D01*
X72828430Y-103425629D01*
X72831817Y-103430698D01*
X72830154Y-103431808D01*
X72853877Y-103487674D01*
X72842082Y-103556541D01*
X72794926Y-103608098D01*
X72727383Y-103625976D01*
X72683258Y-103616582D01*
X72545538Y-103559537D01*
X72545536Y-103559536D01*
X72545535Y-103559536D01*
X72467767Y-103549297D01*
X72390001Y-103539059D01*
X72389999Y-103539059D01*
X72234465Y-103559536D01*
X72234461Y-103559537D01*
X72096741Y-103616582D01*
X72027272Y-103624051D01*
X71964793Y-103592775D01*
X71929141Y-103532686D01*
X71931635Y-103462861D01*
X71949063Y-103431286D01*
X71948183Y-103430698D01*
X71951569Y-103425629D01*
X72043985Y-103252732D01*
X72100899Y-103065111D01*
X72120115Y-102870000D01*
X72100899Y-102674888D01*
X72043985Y-102487267D01*
X71978604Y-102364948D01*
X71488300Y-102855252D01*
X71488300Y-102821512D01*
X71463201Y-102727842D01*
X71414713Y-102643859D01*
X71346141Y-102575287D01*
X71262158Y-102526799D01*
X71168488Y-102501700D01*
X71134747Y-102501700D01*
X71625049Y-102011395D01*
X71502727Y-101946013D01*
X71315111Y-101889100D01*
X71120000Y-101869884D01*
X70924888Y-101889100D01*
X70737270Y-101946014D01*
X70614949Y-102011394D01*
X70614949Y-102011395D01*
X71105254Y-102501700D01*
X71071512Y-102501700D01*
X70977842Y-102526799D01*
X70893859Y-102575287D01*
X70825287Y-102643859D01*
X70776799Y-102727842D01*
X70751700Y-102821512D01*
X70751700Y-102855254D01*
X70261395Y-102364949D01*
X70261394Y-102364949D01*
X70196014Y-102487270D01*
X70139100Y-102674888D01*
X70119884Y-102870000D01*
X69036900Y-102870000D01*
X69036900Y-73509998D01*
X69734891Y-73509998D01*
X69734891Y-73510001D01*
X69755300Y-73795362D01*
X69816109Y-74074895D01*
X69916091Y-74342958D01*
X70053191Y-74594038D01*
X70053196Y-74594046D01*
X70159882Y-74736561D01*
X70159883Y-74736562D01*
X70841377Y-74055067D01*
X70924411Y-74179336D01*
X71070664Y-74325589D01*
X71194930Y-74408621D01*
X70513436Y-75090115D01*
X70655960Y-75196807D01*
X70655961Y-75196808D01*
X70907042Y-75333908D01*
X70907041Y-75333908D01*
X71175104Y-75433890D01*
X71454637Y-75494699D01*
X71739999Y-75515109D01*
X71740001Y-75515109D01*
X72025362Y-75494699D01*
X72304895Y-75433890D01*
X72572958Y-75333908D01*
X72824047Y-75196803D01*
X72966561Y-75090116D01*
X72966562Y-75090115D01*
X72285068Y-74408621D01*
X72409336Y-74325589D01*
X72555589Y-74179336D01*
X72638621Y-74055068D01*
X73320115Y-74736562D01*
X73320116Y-74736561D01*
X73426803Y-74594047D01*
X73563908Y-74342958D01*
X73663890Y-74074895D01*
X73724699Y-73795362D01*
X73745109Y-73510001D01*
X73745109Y-73509998D01*
X73724699Y-73224637D01*
X73663890Y-72945104D01*
X73563908Y-72677041D01*
X73426808Y-72425961D01*
X73426807Y-72425960D01*
X73320115Y-72283436D01*
X72638621Y-72964930D01*
X72555589Y-72840664D01*
X72409336Y-72694411D01*
X72285068Y-72611378D01*
X72966562Y-71929883D01*
X72966561Y-71929882D01*
X72824046Y-71823196D01*
X72824038Y-71823191D01*
X72572957Y-71686091D01*
X72572958Y-71686091D01*
X72304895Y-71586109D01*
X72025362Y-71525300D01*
X71740001Y-71504891D01*
X71739999Y-71504891D01*
X71454637Y-71525300D01*
X71175104Y-71586109D01*
X70907041Y-71686091D01*
X70655961Y-71823191D01*
X70655953Y-71823196D01*
X70513437Y-71929882D01*
X70513436Y-71929883D01*
X71194931Y-72611378D01*
X71070664Y-72694411D01*
X70924411Y-72840664D01*
X70841378Y-72964931D01*
X70159883Y-72283436D01*
X70159882Y-72283437D01*
X70053196Y-72425953D01*
X70053191Y-72425961D01*
X69916091Y-72677041D01*
X69816109Y-72945104D01*
X69755300Y-73224637D01*
X69734891Y-73509998D01*
X69036900Y-73509998D01*
X69036900Y-71130820D01*
X69056585Y-71063781D01*
X69109389Y-71018026D01*
X69160900Y-71006820D01*
X88369900Y-71006820D01*
X88436939Y-71026505D01*
G37*
%TD.AperFunction*%
%TA.AperFunction,Conductor*%
G36*
X79442553Y-124189041D02*
G01*
X79449031Y-124195073D01*
X82102781Y-126848823D01*
X82136266Y-126910146D01*
X82139100Y-126936504D01*
X82139100Y-129054973D01*
X82161942Y-129110117D01*
X84351721Y-131299895D01*
X84385206Y-131361218D01*
X84388040Y-131387576D01*
X84388040Y-131546026D01*
X84368355Y-131613065D01*
X84315551Y-131658820D01*
X84246393Y-131668764D01*
X84221630Y-131662548D01*
X84126820Y-131628040D01*
X84021180Y-131628040D01*
X83921910Y-131664172D01*
X83921909Y-131664172D01*
X83921908Y-131664173D01*
X83840985Y-131732074D01*
X83840983Y-131732076D01*
X83800386Y-131802392D01*
X83749818Y-131850607D01*
X83681211Y-131863829D01*
X83616347Y-131837861D01*
X83585612Y-131802390D01*
X83545019Y-131732081D01*
X83545018Y-131732080D01*
X83545016Y-131732076D01*
X83464091Y-131664172D01*
X83364820Y-131628040D01*
X83259180Y-131628040D01*
X83159910Y-131664172D01*
X83159909Y-131664172D01*
X83159908Y-131664173D01*
X83078985Y-131732074D01*
X83078983Y-131732076D01*
X83032478Y-131812625D01*
X82981910Y-131860840D01*
X82913303Y-131874062D01*
X82848439Y-131848094D01*
X82818137Y-131806244D01*
X82815861Y-131807559D01*
X82757618Y-131706679D01*
X82757617Y-131706678D01*
X82757616Y-131706676D01*
X82676691Y-131638772D01*
X82577420Y-131602640D01*
X82471780Y-131602640D01*
X82372510Y-131638772D01*
X82372509Y-131638772D01*
X82372508Y-131638773D01*
X82291585Y-131706674D01*
X82291583Y-131706676D01*
X82256955Y-131766654D01*
X82206388Y-131814869D01*
X82137780Y-131828091D01*
X82072916Y-131802123D01*
X82061887Y-131792334D01*
X79273669Y-129004116D01*
X79240184Y-128942793D01*
X79237350Y-128916435D01*
X79237350Y-128625599D01*
X80823419Y-128625599D01*
X80823419Y-128625600D01*
X80841762Y-128729633D01*
X80841764Y-128729638D01*
X80894581Y-128821120D01*
X80894582Y-128821121D01*
X80894584Y-128821124D01*
X80975509Y-128889028D01*
X81074780Y-128925160D01*
X81074782Y-128925160D01*
X81180418Y-128925160D01*
X81180420Y-128925160D01*
X81279691Y-128889028D01*
X81360616Y-128821124D01*
X81413437Y-128729636D01*
X81431781Y-128625600D01*
X81413437Y-128521564D01*
X81360616Y-128430076D01*
X81279691Y-128362172D01*
X81180420Y-128326040D01*
X81074780Y-128326040D01*
X80975510Y-128362172D01*
X80975509Y-128362172D01*
X80975508Y-128362173D01*
X80894585Y-128430074D01*
X80894581Y-128430078D01*
X80841764Y-128521561D01*
X80841762Y-128521566D01*
X80823419Y-128625599D01*
X79237350Y-128625599D01*
X79237350Y-124282754D01*
X79257035Y-124215715D01*
X79309839Y-124169960D01*
X79378997Y-124160016D01*
X79442553Y-124189041D01*
G37*
%TD.AperFunction*%
%TA.AperFunction,Conductor*%
G36*
X88422007Y-121576301D02*
G01*
X88474569Y-121622334D01*
X88493900Y-121688821D01*
X88493900Y-124890442D01*
X88474215Y-124957481D01*
X88421411Y-125003236D01*
X88352253Y-125013180D01*
X88288697Y-124984155D01*
X88253718Y-124933776D01*
X88213908Y-124827041D01*
X88076808Y-124575961D01*
X88076807Y-124575960D01*
X87970115Y-124433436D01*
X87288621Y-125114930D01*
X87205589Y-124990664D01*
X87059336Y-124844411D01*
X86935068Y-124761378D01*
X87616562Y-124079883D01*
X87616561Y-124079882D01*
X87474046Y-123973196D01*
X87474038Y-123973191D01*
X87222957Y-123836091D01*
X87222958Y-123836091D01*
X86954896Y-123736110D01*
X86780126Y-123698090D01*
X86718803Y-123664605D01*
X86685319Y-123603281D01*
X86690303Y-123533590D01*
X86732175Y-123477656D01*
X86750834Y-123466113D01*
X86877545Y-123402476D01*
X87169509Y-123210449D01*
X87169510Y-123210448D01*
X87312179Y-123090734D01*
X87312180Y-123090733D01*
X86601367Y-122379919D01*
X86696521Y-122306906D01*
X86881906Y-122121521D01*
X86954919Y-122026367D01*
X87668849Y-122740297D01*
X87668851Y-122740296D01*
X87677022Y-122731636D01*
X87677033Y-122731623D01*
X87885710Y-122451322D01*
X88060438Y-122148683D01*
X88060444Y-122148670D01*
X88198854Y-121827800D01*
X88251109Y-121653257D01*
X88289194Y-121594680D01*
X88352902Y-121565992D01*
X88422007Y-121576301D01*
G37*
%TD.AperFunction*%
%TD*%
M02*
