M48
; DRILL file {KiCad 8.0.3} date 2024-07-17T15:11:24-0700
; FORMAT={-:-/ absolute / inch / decimal}
; #@! TF.CreationDate,2024-07-17T15:11:24-07:00
; #@! TF.GenerationSoftware,Kicad,Pcbnew,8.0.3
; #@! TF.FileFunction,Plated,1,2,Blind
FMAT,2
INCH
; #@! TA.AperFunction,Plated,Buried,ViaDrill
T1C0.0078
%
G90
G05
T1
X2.7512Y-4.1142
X2.7854Y-5.1425
X2.792Y-5.064
X2.7992Y-5.1055
X2.826Y-5.194
X2.856Y-5.064
X2.866Y-5.194
X2.8925Y-5.063
X2.908Y-5.194
X2.9299Y-5.0626
X2.9315Y-5.194
X2.96Y-3.9799
X2.961Y-5.063
X2.9807Y-5.1953
X2.99Y-3.9799
X3.0035Y-5.063
X3.022Y-3.9799
X3.054Y-3.9799
X3.086Y-3.9799
X3.118Y-3.9799
X3.15Y-3.9799
X3.182Y-3.9799
X3.1969Y-4.8067
X3.214Y-3.9799
X3.242Y-3.9799
X3.4492Y-4.1157
M30
