%TF.GenerationSoftware,KiCad,Pcbnew,8.0.3*%
%TF.CreationDate,2024-07-17T15:11:27-07:00*%
%TF.ProjectId,wide_v1_4_layer,77696465-5f76-4315-9f34-5f6c61796572,V1*%
%TF.SameCoordinates,Original*%
%TF.FileFunction,Soldermask,Bot*%
%TF.FilePolarity,Negative*%
%FSLAX46Y46*%
G04 Gerber Fmt 4.6, Leading zero omitted, Abs format (unit mm)*
G04 Created by KiCad (PCBNEW 8.0.3) date 2024-07-17 15:11:27*
%MOMM*%
%LPD*%
G01*
G04 APERTURE LIST*
%ADD10C,0.100000*%
%ADD11C,0.990600*%
G04 APERTURE END LIST*
D10*
X88700000Y-70800000D02*
X88760000Y-94420000D01*
X68690000Y-94380000D01*
X68650000Y-70630000D01*
X88700000Y-70800000D01*
G36*
X88700000Y-70800000D02*
G01*
X88760000Y-94420000D01*
X68690000Y-94380000D01*
X68650000Y-70630000D01*
X88700000Y-70800000D01*
G37*
X89072244Y-127802607D02*
X80912244Y-127822607D01*
X81030000Y-102200000D01*
X84022244Y-99172607D01*
X84062244Y-94042607D01*
X89142244Y-93982607D01*
X89072244Y-127802607D01*
G36*
X89072244Y-127802607D02*
G01*
X80912244Y-127822607D01*
X81030000Y-102200000D01*
X84022244Y-99172607D01*
X84062244Y-94042607D01*
X89142244Y-93982607D01*
X89072244Y-127802607D01*
G37*
X73750000Y-94330000D02*
X73710000Y-99200000D01*
X76530000Y-102150000D01*
X76430000Y-129070000D01*
X68680000Y-129090000D01*
X68670000Y-94270000D01*
X73750000Y-94330000D01*
G36*
X73750000Y-94330000D02*
G01*
X73710000Y-99200000D01*
X76530000Y-102150000D01*
X76430000Y-129070000D01*
X68680000Y-129090000D01*
X68670000Y-94270000D01*
X73750000Y-94330000D01*
G37*
D11*
%TO.C,SMP2*%
X72390000Y-104140000D03*
X71120000Y-105410000D03*
X73660000Y-105410000D03*
X73660000Y-102870000D03*
X71120000Y-102870000D03*
%TD*%
%TO.C,SMP3*%
X85090000Y-104140000D03*
X83820000Y-105410000D03*
X86360000Y-105410000D03*
X86360000Y-102870000D03*
X83820000Y-102870000D03*
%TD*%
%TO.C,SMP1*%
X72390000Y-111760000D03*
X71120000Y-113030000D03*
X73660000Y-113030000D03*
X73660000Y-110490000D03*
X71120000Y-110490000D03*
%TD*%
%TO.C,SMP4*%
X85090000Y-111760000D03*
X83820000Y-113030000D03*
X86360000Y-113030000D03*
X86360000Y-110490000D03*
X83820000Y-110490000D03*
%TD*%
M02*
